<?xml version="1.0" encoding="UTF-8" standalone="no"?>
<!DOCTYPE svg PUBLIC "-//W3C//DTD SVG 1.1//EN"
 "http://www.w3.org/Graphics/SVG/1.1/DTD/svg11.dtd">
<!-- Generated by graphviz version 14.1.2 (0)
 -->
<!-- Title: encoder_callback Pages: 1 -->
<svg width="288pt" height="66pt"
 viewBox="0.00 0.00 288.00 66.00" xmlns="http://www.w3.org/2000/svg" xmlns:xlink="http://www.w3.org/1999/xlink">
<g id="graph0" class="graph" transform="scale(1 1) rotate(0) translate(4 62)">
<title>encoder_callback</title>
<!-- Node1 -->
<g id="Node000001" class="node">
<title>Node1</title>
<g id="a_Node000001"><a xlink:title="Process encoder interrupt callback.">
<polygon fill="#999999" stroke="#666666" points="279.5,-39 187.75,-39 187.75,-19 279.5,-19 279.5,-39"/>
<text xml:space="preserve" text-anchor="middle" x="233.62" y="-25.5" font-family="Helvetica,sans-Serif" font-size="10.00">encoder_callback</text>
</a>
</g>
</g>
<!-- Node2 -->
<g id="Node000002" class="node">
<title>Node2</title>
<g id="a_Node000002"><a xlink:href="main_8c.html#a0cd91fd3a9608559c2a87a8ba6cba55f" target="_top" xlink:title=" ">
<polygon fill="white" stroke="#666666" points="144.25,-58 7.5,-58 7.5,-38 144.25,-38 144.25,-58"/>
<text xml:space="preserve" text-anchor="middle" x="75.88" y="-44.5" font-family="Helvetica,sans-Serif" font-size="10.00">HAL_GPIO_EXTI_Callback</text>
</a>
</g>
</g>
<!-- Node1&#45;&gt;Node2 -->
<g id="edge1_Node000001_Node000002" class="edge">
<title>Node1&#45;&gt;Node2</title>
<g id="a_edge1_Node000001_Node000002"><a xlink:title=" ">
<path fill="none" stroke="#63b8ff" d="M176.28,-35.87C166.04,-37.12 155.25,-38.44 144.72,-39.72"/>
<polygon fill="#63b8ff" stroke="#63b8ff" points="176.57,-39.36 186.07,-34.68 175.72,-32.42 176.57,-39.36"/>
</a>
</g>
</g>
<!-- Node3 -->
<g id="Node000003" class="node">
<title>Node3</title>
<g id="a_Node000003"><a xlink:href="main_8c.html#a77a2401a35ddd9bd0b8fc28331b81381" target="_top" xlink:title=" ">
<polygon fill="white" stroke="#666666" points="151.75,-20 0,-20 0,0 151.75,0 151.75,-20"/>
<text xml:space="preserve" text-anchor="middle" x="75.88" y="-6.5" font-family="Helvetica,sans-Serif" font-size="10.00">HAL_TIM_IC_CaptureCallback</text>
</a>
</g>
</g>
<!-- Node1&#45;&gt;Node3 -->
<g id="edge2_Node000001_Node000003" class="edge">
<title>Node1&#45;&gt;Node3</title>
<g id="a_edge2_Node000001_Node000003"><a xlink:title=" ">
<path fill="none" stroke="#63b8ff" d="M176.3,-22.13C168.41,-21.17 160.21,-20.17 152.05,-19.17"/>
<polygon fill="#63b8ff" stroke="#63b8ff" points="175.72,-25.58 186.07,-23.32 176.57,-18.64 175.72,-25.58"/>
</a>
</g>
</g>
</g>
</svg>
