<?xml version="1.0" encoding="UTF-8" standalone="no"?>
<!DOCTYPE svg PUBLIC "-//W3C//DTD SVG 1.1//EN"
 "http://www.w3.org/Graphics/SVG/1.1/DTD/svg11.dtd">
<!-- Generated by graphviz version 14.1.2 (0)
 -->
<!-- Title: encoder_get_state Pages: 1 -->
<svg width="252pt" height="66pt"
 viewBox="0.00 0.00 252.00 66.00" xmlns="http://www.w3.org/2000/svg" xmlns:xlink="http://www.w3.org/1999/xlink">
<g id="graph0" class="graph" transform="scale(1 1) rotate(0) translate(4 62)">
<title>encoder_get_state</title>
<!-- Node1 -->
<g id="Node000001" class="node">
<title>Node1</title>
<g id="a_Node000001"><a xlink:title="Get both position and direction of the encoder.">
<polygon fill="#999999" stroke="#666666" points="96.25,-39 0,-39 0,-19 96.25,-19 96.25,-39"/>
<text xml:space="preserve" text-anchor="middle" x="48.12" y="-25.5" font-family="Helvetica,sans-Serif" font-size="10.00">encoder_get_state</text>
</a>
</g>
</g>
<!-- Node2 -->
<g id="Node000002" class="node">
<title>Node2</title>
<g id="a_Node000002"><a xlink:href="encoder_8c.html#ae6013b4fa03410efa01327e93dd8a3f4" target="_top" xlink:title="Get last rotation direction.">
<polygon fill="white" stroke="#666666" points="243.5,-58 132.25,-58 132.25,-38 243.5,-38 243.5,-58"/>
<text xml:space="preserve" text-anchor="middle" x="187.88" y="-44.5" font-family="Helvetica,sans-Serif" font-size="10.00">encoder_get_direction</text>
</a>
</g>
</g>
<!-- Node1&#45;&gt;Node2 -->
<g id="edge1_Node000001_Node000002" class="edge">
<title>Node1&#45;&gt;Node2</title>
<g id="a_edge1_Node000001_Node000002"><a xlink:title=" ">
<path fill="none" stroke="#63b8ff" d="M96.53,-35.54C104.25,-36.6 112.38,-37.72 120.45,-38.84"/>
<polygon fill="#63b8ff" stroke="#63b8ff" points="119.91,-42.3 130.3,-40.2 120.87,-35.36 119.91,-42.3"/>
</a>
</g>
</g>
<!-- Node3 -->
<g id="Node000003" class="node">
<title>Node3</title>
<g id="a_Node000003"><a xlink:href="encoder_8c.html#ab0836e352dad2ef26a6f4244121c6c29" target="_top" xlink:title="Get current encoder position.">
<polygon fill="white" stroke="#666666" points="242,-20 133.75,-20 133.75,0 242,0 242,-20"/>
<text xml:space="preserve" text-anchor="middle" x="187.88" y="-6.5" font-family="Helvetica,sans-Serif" font-size="10.00">encoder_get_position</text>
</a>
</g>
</g>
<!-- Node1&#45;&gt;Node3 -->
<g id="edge2_Node000001_Node000003" class="edge">
<title>Node1&#45;&gt;Node3</title>
<g id="a_edge2_Node000001_Node000003"><a xlink:title=" ">
<path fill="none" stroke="#63b8ff" d="M96.53,-22.46C104.86,-21.31 113.66,-20.1 122.37,-18.9"/>
<polygon fill="#63b8ff" stroke="#63b8ff" points="122.79,-22.37 132.21,-17.54 121.83,-15.44 122.79,-22.37"/>
</a>
</g>
</g>
</g>
</svg>
