<?xml version="1.0" encoding="UTF-8" standalone="no"?>
<!DOCTYPE svg PUBLIC "-//W3C//DTD SVG 1.1//EN"
 "http://www.w3.org/Graphics/SVG/1.1/DTD/svg11.dtd">
<!-- Generated by graphviz version 14.1.2 (0)
 -->
<!-- Title: Core/Src/encoder.c Pages: 1 -->
<svg width="487pt" height="308pt"
 viewBox="0.00 0.00 487.00 308.00" xmlns="http://www.w3.org/2000/svg" xmlns:xlink="http://www.w3.org/1999/xlink">

<svg id="main" version="1.1" xmlns="http://www.w3.org/2000/svg" xmlns:xlink="http://www.w3.org/1999/xlink" xml:space="preserve">

<style type="text/css"><![CDATA[
.node, .edge {opacity: 0.7;}
.node.selected, .edge.selected {opacity: 1;}
.edge:hover path { stroke: red; }
.edge:hover polygon { stroke: red; fill: red; }
]]></style>
<script type="application/ecmascript" xlink:href="svg.min.js"/>
<svg id="graph" class="graph">
<g id="graph0" class="graph" transform="scale(1 1) rotate(0) translate(4 304)">
<title>Core/Src/encoder.c</title>
<!-- Node1 -->
<g id="Node000001" class="node">
<title>Node1</title>
<g id="a_Node000001"><a xlink:title="Implementation of rotary encoder driver.">
<polygon fill="#999999" stroke="#666666" points="169.69,-300 68.94,-300 68.94,-280 169.69,-280 169.69,-300"/>
<text xml:space="preserve" text-anchor="middle" x="119.32" y="-286.5" font-family="Helvetica,sans-Serif" font-size="10.00">Core/Src/encoder.c</text>
</a>
</g>
</g>
<!-- Node2 -->
<g id="Node000002" class="node">
<title>Node2</title>
<g id="a_Node000002"><a xlink:href="encoder_8h.html" target="_top" xlink:title="Rotary encoder driver with interrupt&#45;based rotation detection.">
<polygon fill="white" stroke="#666666" points="148.69,-244 89.94,-244 89.94,-224 148.69,-224 148.69,-244"/>
<text xml:space="preserve" text-anchor="middle" x="119.32" y="-230.5" font-family="Helvetica,sans-Serif" font-size="10.00">encoder.h</text>
</a>
</g>
</g>
<!-- Node1&#45;&gt;Node2 -->
<g id="edge1_Node000001_Node000002" class="edge">
<title>Node1&#45;&gt;Node2</title>
<g id="a_edge1_Node000001_Node000002"><a xlink:title=" ">
<path fill="none" stroke="#63b8ff" d="M119.32,-279.59C119.32,-273.01 119.32,-263.96 119.32,-255.73"/>
<polygon fill="#63b8ff" stroke="#63b8ff" points="122.82,-255.81 119.32,-245.81 115.82,-255.81 122.82,-255.81"/>
</a>
</g>
</g>
<!-- Node3 -->
<g id="Node000003" class="node">
<title>Node3</title>
<g id="a_Node000003"><a xlink:href="main_8h.html" target="_top" xlink:title=": Header for main.c file. This file contains the common defines of the application.">
<polygon fill="white" stroke="#666666" points="66.94,-76 21.69,-76 21.69,-56 66.94,-56 66.94,-76"/>
<text xml:space="preserve" text-anchor="middle" x="44.32" y="-62.5" font-family="Helvetica,sans-Serif" font-size="10.00">main.h</text>
</a>
</g>
</g>
<!-- Node2&#45;&gt;Node3 -->
<g id="edge2_Node000002_Node000003" class="edge">
<title>Node2&#45;&gt;Node3</title>
<g id="a_edge2_Node000002_Node000003"><a xlink:title=" ">
<path fill="none" stroke="#63b8ff" d="M112.66,-223.73C100.56,-206.48 74.89,-167.95 60.32,-132 54.43,-117.47 50.3,-100.21 47.72,-87.12"/>
<polygon fill="#63b8ff" stroke="#63b8ff" points="51.22,-86.78 45.98,-77.58 44.33,-88.04 51.22,-86.78"/>
</a>
</g>
</g>
<!-- Node4 -->
<g id="Node000004" class="node">
<title>Node4</title>
<g id="a_Node000004"><a xlink:title=" ">
<polygon fill="#e0e0e0" stroke="#999999" points="227.32,-20 139.32,-20 139.32,0 227.32,0 227.32,-20"/>
<text xml:space="preserve" text-anchor="middle" x="183.32" y="-6.5" font-family="Helvetica,sans-Serif" font-size="10.00">stm32f0xx_hal.h</text>
</a>
</g>
</g>
<!-- Node2&#45;&gt;Node4 -->
<g id="edge4_Node000002_Node000004" class="edge">
<title>Node2&#45;&gt;Node4</title>
<g id="a_edge4_Node000002_Node000004"><a xlink:title=" ">
<path fill="none" stroke="#63b8ff" d="M105.74,-223.69C67.77,-196.57 -33.72,-115.72 12.32,-56 26.46,-37.66 83.32,-25.31 127.64,-18.26"/>
<polygon fill="#63b8ff" stroke="#63b8ff" points="128.04,-21.73 137.4,-16.76 126.98,-14.82 128.04,-21.73"/>
</a>
</g>
</g>
<!-- Node5 -->
<g id="Node000005" class="node">
<title>Node5</title>
<g id="a_Node000005"><a xlink:href="ui_8h.html" target="_top" xlink:title="User interface module for menu&#45;driven LCD control.">
<polygon fill="white" stroke="#666666" points="235.19,-188 203.44,-188 203.44,-168 235.19,-168 235.19,-188"/>
<text xml:space="preserve" text-anchor="middle" x="219.32" y="-174.5" font-family="Helvetica,sans-Serif" font-size="10.00">ui.h</text>
</a>
</g>
</g>
<!-- Node2&#45;&gt;Node5 -->
<g id="edge5_Node000002_Node000005" class="edge">
<title>Node2&#45;&gt;Node5</title>
<g id="a_edge5_Node000002_Node000005"><a xlink:title=" ">
<path fill="none" stroke="#63b8ff" d="M136.74,-223.59C152.29,-215.2 175.29,-202.78 193.07,-193.18"/>
<polygon fill="#63b8ff" stroke="#63b8ff" points="194.62,-196.31 201.76,-188.48 191.3,-190.15 194.62,-196.31"/>
</a>
</g>
</g>
<!-- Node11 -->
<g id="Node000011" class="node">
<title>Node11</title>
<g id="a_Node000011"><a xlink:href="event_8h.html" target="_top" xlink:title="Event queue module for decoupling interrupt handlers from UI processing.">
<polygon fill="white" stroke="#666666" points="465.44,-132 417.19,-132 417.19,-112 465.44,-112 465.44,-132"/>
<text xml:space="preserve" text-anchor="middle" x="441.32" y="-118.5" font-family="Helvetica,sans-Serif" font-size="10.00">event.h</text>
</a>
</g>
</g>
<!-- Node2&#45;&gt;Node11 -->
<g id="edge24_Node000002_Node000011" class="edge">
<title>Node2&#45;&gt;Node11</title>
<g id="a_edge24_Node000002_Node000011"><a xlink:title=" ">
<path fill="none" stroke="#63b8ff" d="M147.05,-223.53C205.62,-203.52 341.83,-156.99 406.3,-134.96"/>
<polygon fill="#63b8ff" stroke="#63b8ff" points="407.34,-138.31 415.67,-131.76 405.07,-131.68 407.34,-138.31"/>
</a>
</g>
</g>
<!-- Node3&#45;&gt;Node4 -->
<g id="edge3_Node000003_Node000004" class="edge">
<title>Node3&#45;&gt;Node4</title>
<g id="a_edge3_Node000003_Node000004"><a xlink:title=" ">
<path fill="none" stroke="#63b8ff" d="M67.27,-56.08C89.3,-47.52 122.88,-34.48 148.26,-24.62"/>
<polygon fill="#63b8ff" stroke="#63b8ff" points="149.46,-27.91 157.52,-21.02 146.93,-21.38 149.46,-27.91"/>
</a>
</g>
</g>
<!-- Node5&#45;&gt;Node3 -->
<g id="edge8_Node000005_Node000003" class="edge">
<title>Node5&#45;&gt;Node3</title>
<g id="a_edge8_Node000005_Node000003"><a xlink:title=" ">
<path fill="none" stroke="#63b8ff" d="M203.05,-175.5C175.24,-172.18 118.03,-161.95 81.32,-132 66.87,-120.21 56.99,-101.2 51.09,-86.77"/>
<polygon fill="#63b8ff" stroke="#63b8ff" points="54.53,-85.96 47.75,-77.83 47.98,-88.42 54.53,-85.96"/>
</a>
</g>
</g>
<!-- Node5&#45;&gt;Node4 -->
<g id="edge11_Node000005_Node000004" class="edge">
<title>Node5&#45;&gt;Node4</title>
<g id="a_edge11_Node000005_Node000004"><a xlink:title=" ">
<path fill="none" stroke="#63b8ff" d="M203.05,-175.45C178.88,-172.17 134.19,-162.13 114.32,-132 90.52,-95.91 133.62,-51.21 161.78,-27.53"/>
<polygon fill="#63b8ff" stroke="#63b8ff" points="163.9,-30.32 169.46,-21.3 159.49,-24.88 163.9,-30.32"/>
</a>
</g>
</g>
<!-- Node6 -->
<g id="Node000006" class="node">
<title>Node6</title>
<g id="a_Node000006"><a xlink:title=" ">
<polygon fill="#e0e0e0" stroke="#999999" points="344.94,-76 299.69,-76 299.69,-56 344.94,-56 344.94,-76"/>
<text xml:space="preserve" text-anchor="middle" x="322.32" y="-62.5" font-family="Helvetica,sans-Serif" font-size="10.00">stdio.h</text>
</a>
</g>
</g>
<!-- Node5&#45;&gt;Node6 -->
<g id="edge6_Node000005_Node000006" class="edge">
<title>Node5&#45;&gt;Node6</title>
<g id="a_edge6_Node000005_Node000006"><a xlink:title=" ">
<path fill="none" stroke="#63b8ff" d="M235.51,-176C261.14,-173.43 310.39,-164.33 332.32,-132 341.33,-118.71 337.42,-100.41 332.07,-86.61"/>
<polygon fill="#63b8ff" stroke="#63b8ff" points="335.36,-85.39 328.1,-77.67 328.96,-88.23 335.36,-85.39"/>
</a>
</g>
</g>
<!-- Node7 -->
<g id="Node000007" class="node">
<title>Node7</title>
<g id="a_Node000007"><a xlink:title=" ">
<polygon fill="#e0e0e0" stroke="#999999" points="243.44,-76 195.19,-76 195.19,-56 243.44,-56 243.44,-76"/>
<text xml:space="preserve" text-anchor="middle" x="219.32" y="-62.5" font-family="Helvetica,sans-Serif" font-size="10.00">stdint.h</text>
</a>
</g>
</g>
<!-- Node5&#45;&gt;Node7 -->
<g id="edge7_Node000005_Node000007" class="edge">
<title>Node5&#45;&gt;Node7</title>
<g id="a_edge7_Node000005_Node000007"><a xlink:title=" ">
<path fill="none" stroke="#63b8ff" d="M219.32,-167.62C219.32,-150.01 219.32,-111.59 219.32,-87.65"/>
<polygon fill="#63b8ff" stroke="#63b8ff" points="222.82,-87.87 219.32,-77.87 215.82,-87.87 222.82,-87.87"/>
</a>
</g>
</g>
<!-- Node8 -->
<g id="Node000008" class="node">
<title>Node8</title>
<g id="a_Node000008"><a xlink:href="log_8h.html" target="_top" xlink:title="Logging module with configurable log levels and UART output.">
<polygon fill="white" stroke="#666666" points="399.82,-76 362.82,-76 362.82,-56 399.82,-56 399.82,-76"/>
<text xml:space="preserve" text-anchor="middle" x="381.32" y="-62.5" font-family="Helvetica,sans-Serif" font-size="10.00">log.h</text>
</a>
</g>
</g>
<!-- Node5&#45;&gt;Node8 -->
<g id="edge9_Node000005_Node000008" class="edge">
<title>Node5&#45;&gt;Node8</title>
<g id="a_edge9_Node000005_Node000008"><a xlink:title=" ">
<path fill="none" stroke="#63b8ff" d="M235.69,-175.34C262.48,-171.83 316.02,-161.4 349.32,-132 362.72,-120.16 371.11,-101.42 375.92,-87.1"/>
<polygon fill="#63b8ff" stroke="#63b8ff" points="379.18,-88.39 378.71,-77.81 372.48,-86.38 379.18,-88.39"/>
</a>
</g>
</g>
<!-- Node9 -->
<g id="Node000009" class="node">
<title>Node9</title>
<g id="a_Node000009"><a xlink:href="lcd1602__rgb_8h.html" target="_top" xlink:title="LCD1602 RGB display driver with I2C interface.">
<polygon fill="white" stroke="#666666" points="323.69,-132 246.94,-132 246.94,-112 323.69,-112 323.69,-132"/>
<text xml:space="preserve" text-anchor="middle" x="285.32" y="-118.5" font-family="Helvetica,sans-Serif" font-size="10.00">lcd1602_rgb.h</text>
</a>
</g>
</g>
<!-- Node5&#45;&gt;Node9 -->
<g id="edge12_Node000005_Node000009" class="edge">
<title>Node5&#45;&gt;Node9</title>
<g id="a_edge12_Node000005_Node000009"><a xlink:title=" ">
<path fill="none" stroke="#63b8ff" d="M230.81,-167.59C240.28,-159.85 253.92,-148.69 265.19,-139.47"/>
<polygon fill="#63b8ff" stroke="#63b8ff" points="267.26,-142.3 272.78,-133.26 262.83,-136.88 267.26,-142.3"/>
</a>
</g>
</g>
<!-- Node10 -->
<g id="Node000010" class="node">
<title>Node10</title>
<g id="a_Node000010"><a xlink:title=" ">
<polygon fill="#e0e0e0" stroke="#999999" points="191.19,-132 123.44,-132 123.44,-112 191.19,-112 191.19,-132"/>
<text xml:space="preserve" text-anchor="middle" x="157.32" y="-118.5" font-family="Helvetica,sans-Serif" font-size="10.00">arm_math.h</text>
</a>
</g>
</g>
<!-- Node5&#45;&gt;Node10 -->
<g id="edge18_Node000005_Node000010" class="edge">
<title>Node5&#45;&gt;Node10</title>
<g id="a_edge18_Node000005_Node000010"><a xlink:title=" ">
<path fill="none" stroke="#63b8ff" d="M208.52,-167.59C199.72,-159.93 187.07,-148.91 176.54,-139.75"/>
<polygon fill="#63b8ff" stroke="#63b8ff" points="178.97,-137.22 169.13,-133.29 174.38,-142.5 178.97,-137.22"/>
</a>
</g>
</g>
<!-- Node5&#45;&gt;Node11 -->
<g id="edge19_Node000005_Node000011" class="edge">
<title>Node5&#45;&gt;Node11</title>
<g id="a_edge19_Node000005_Node000011"><a xlink:title=" ">
<path fill="none" stroke="#63b8ff" d="M235.64,-173.03C271.33,-164.35 357,-143.51 405.77,-131.65"/>
<polygon fill="#63b8ff" stroke="#63b8ff" points="406.39,-135.1 415.28,-129.33 404.73,-128.3 406.39,-135.1"/>
</a>
</g>
</g>
<!-- Node8&#45;&gt;Node4 -->
<g id="edge10_Node000008_Node000004" class="edge">
<title>Node8&#45;&gt;Node4</title>
<g id="a_edge10_Node000008_Node000004"><a xlink:title=" ">
<path fill="none" stroke="#63b8ff" d="M362.48,-58.55C359.75,-57.67 356.97,-56.79 354.32,-56 313.88,-43.95 267.56,-31.87 233.34,-23.26"/>
<polygon fill="#63b8ff" stroke="#63b8ff" points="234.25,-19.88 223.7,-20.85 232.55,-26.67 234.25,-19.88"/>
</a>
</g>
</g>
<!-- Node9&#45;&gt;Node3 -->
<g id="edge14_Node000009_Node000003" class="edge">
<title>Node9&#45;&gt;Node3</title>
<g id="a_edge14_Node000009_Node000003"><a xlink:title=" ">
<path fill="none" stroke="#63b8ff" d="M246.6,-112.32C200.06,-101.9 122.71,-84.57 78.36,-74.63"/>
<polygon fill="#63b8ff" stroke="#63b8ff" points="79.31,-71.25 68.79,-72.48 77.78,-78.08 79.31,-71.25"/>
</a>
</g>
</g>
<!-- Node9&#45;&gt;Node4 -->
<g id="edge17_Node000009_Node000004" class="edge">
<title>Node9&#45;&gt;Node4</title>
<g id="a_edge17_Node000009_Node000004"><a xlink:title=" ">
<path fill="none" stroke="#63b8ff" d="M282.34,-111.7C277.67,-98.2 267.53,-72.96 252.32,-56 241.28,-43.7 226.15,-33.34 212.87,-25.67"/>
<polygon fill="#63b8ff" stroke="#63b8ff" points="214.95,-22.82 204.5,-21.07 211.58,-28.95 214.95,-22.82"/>
</a>
</g>
</g>
<!-- Node9&#45;&gt;Node6 -->
<g id="edge16_Node000009_Node000006" class="edge">
<title>Node9&#45;&gt;Node6</title>
<g id="a_edge16_Node000009_Node000006"><a xlink:title=" ">
<path fill="none" stroke="#63b8ff" d="M291.76,-111.59C296.64,-104.47 303.51,-94.45 309.49,-85.72"/>
<polygon fill="#63b8ff" stroke="#63b8ff" points="312.33,-87.77 315.09,-77.55 306.55,-83.82 312.33,-87.77"/>
</a>
</g>
</g>
<!-- Node9&#45;&gt;Node7 -->
<g id="edge13_Node000009_Node000007" class="edge">
<title>Node9&#45;&gt;Node7</title>
<g id="a_edge13_Node000009_Node000007"><a xlink:title=" ">
<path fill="none" stroke="#63b8ff" d="M273.82,-111.59C264.36,-103.85 250.71,-92.69 239.45,-83.47"/>
<polygon fill="#63b8ff" stroke="#63b8ff" points="241.81,-80.88 231.85,-77.26 237.38,-86.3 241.81,-80.88"/>
</a>
</g>
</g>
<!-- Node9&#45;&gt;Node8 -->
<g id="edge15_Node000009_Node000008" class="edge">
<title>Node9&#45;&gt;Node8</title>
<g id="a_edge15_Node000009_Node000008"><a xlink:title=" ">
<path fill="none" stroke="#63b8ff" d="M302.04,-111.59C316.54,-103.44 337.79,-91.48 354.64,-82"/>
<polygon fill="#63b8ff" stroke="#63b8ff" points="356.15,-85.17 363.15,-77.22 352.71,-79.07 356.15,-85.17"/>
</a>
</g>
</g>
<!-- Node11&#45;&gt;Node4 -->
<g id="edge20_Node000011_Node000004" class="edge">
<title>Node11&#45;&gt;Node4</title>
<g id="a_edge20_Node000011_Node000004"><a xlink:title=" ">
<path fill="none" stroke="#63b8ff" d="M452.24,-111.79C466.81,-98.4 489.14,-73.3 474.32,-56 444.61,-21.34 314.74,-13.14 238.91,-11.35"/>
<polygon fill="#63b8ff" stroke="#63b8ff" points="239.26,-7.86 229.19,-11.15 239.12,-14.85 239.26,-7.86"/>
</a>
</g>
</g>
<!-- Node11&#45;&gt;Node6 -->
<g id="edge22_Node000011_Node000006" class="edge">
<title>Node11&#45;&gt;Node6</title>
<g id="a_edge22_Node000011_Node000006"><a xlink:title=" ">
<path fill="none" stroke="#63b8ff" d="M420.59,-111.59C402.1,-103.21 374.77,-90.8 353.62,-81.21"/>
<polygon fill="#63b8ff" stroke="#63b8ff" points="355.14,-78.05 344.59,-77.1 352.25,-84.42 355.14,-78.05"/>
</a>
</g>
</g>
<!-- Node11&#45;&gt;Node8 -->
<g id="edge21_Node000011_Node000008" class="edge">
<title>Node11&#45;&gt;Node8</title>
<g id="a_edge21_Node000011_Node000008"><a xlink:title=" ">
<path fill="none" stroke="#63b8ff" d="M430.87,-111.59C422.35,-103.93 410.11,-92.91 399.92,-83.75"/>
<polygon fill="#63b8ff" stroke="#63b8ff" points="402.55,-81.4 392.77,-77.31 397.87,-86.6 402.55,-81.4"/>
</a>
</g>
</g>
<!-- Node12 -->
<g id="Node000012" class="node">
<title>Node12</title>
<g id="a_Node000012"><a xlink:title=" ">
<polygon fill="#e0e0e0" stroke="#999999" points="465.07,-76 417.57,-76 417.57,-56 465.07,-56 465.07,-76"/>
<text xml:space="preserve" text-anchor="middle" x="441.32" y="-62.5" font-family="Helvetica,sans-Serif" font-size="10.00">stdlib.h</text>
</a>
</g>
</g>
<!-- Node11&#45;&gt;Node12 -->
<g id="edge23_Node000011_Node000012" class="edge">
<title>Node11&#45;&gt;Node12</title>
<g id="a_edge23_Node000011_Node000012"><a xlink:title=" ">
<path fill="none" stroke="#63b8ff" d="M441.32,-111.59C441.32,-105.01 441.32,-95.96 441.32,-87.73"/>
<polygon fill="#63b8ff" stroke="#63b8ff" points="444.82,-87.81 441.32,-77.81 437.82,-87.81 444.82,-87.81"/>
</a>
</g>
</g>
</g>
</svg>
</svg>

<style type='text/css'>
<![CDATA[
[data-mouse-over-selected='false'] { opacity: 0.7; }
[data-mouse-over-selected='true']  { opacity: 1.0; }
]]>
</style>
<script type="application/ecmascript"><![CDATA[
document.addEventListener('DOMContentLoaded', (event) => {
  highlightEdges();
  highlightAdjacentNodes();
});
]]></script>
</svg>
