<?xml version="1.0" encoding="UTF-8" standalone="no"?>
<!DOCTYPE svg PUBLIC "-//W3C//DTD SVG 1.1//EN"
 "http://www.w3.org/Graphics/SVG/1.1/DTD/svg11.dtd">
<!-- Generated by graphviz version 14.1.2 (0)
 -->
<!-- Title: update_position Pages: 1 -->
<svg width="425pt" height="104pt"
 viewBox="0.00 0.00 425.00 104.00" xmlns="http://www.w3.org/2000/svg" xmlns:xlink="http://www.w3.org/1999/xlink">

<svg id="main" version="1.1" xmlns="http://www.w3.org/2000/svg" xmlns:xlink="http://www.w3.org/1999/xlink" xml:space="preserve">

<style type="text/css"><![CDATA[
.node, .edge {opacity: 0.7;}
.node.selected, .edge.selected {opacity: 1;}
.edge:hover path { stroke: red; }
.edge:hover polygon { stroke: red; fill: red; }
]]></style>
<script type="application/ecmascript" xlink:href="svg.min.js"/>
<svg id="graph" class="graph">
<g id="graph0" class="graph" transform="scale(1 1) rotate(0) translate(4 100)">
<title>update_position</title>
<!-- Node1 -->
<g id="Node000001" class="node">
<title>Node1</title>
<g id="a_Node000001"><a xlink:title="Update encoder position based on rotation direction.">
<polygon fill="#999999" stroke="#666666" points="84.25,-58 0,-58 0,-38 84.25,-38 84.25,-58"/>
<text xml:space="preserve" text-anchor="middle" x="42.12" y="-44.5" font-family="Helvetica,sans-Serif" font-size="10.00">update_position</text>
</a>
</g>
</g>
<!-- Node2 -->
<g id="Node000002" class="node">
<title>Node2</title>
<g id="a_Node000002"><a xlink:href="event_8c.html#a55880a847852bc5cd0e3b50ecb2b6839" target="_top" xlink:title="Add an event to the rear of the queue.">
<polygon fill="white" stroke="#666666" points="202.25,-58 120.25,-58 120.25,-38 202.25,-38 202.25,-58"/>
<text xml:space="preserve" text-anchor="middle" x="161.25" y="-44.5" font-family="Helvetica,sans-Serif" font-size="10.00">event_enqueue</text>
</a>
</g>
</g>
<!-- Node1&#45;&gt;Node2 -->
<g id="edge1_Node000001_Node000002" class="edge">
<title>Node1&#45;&gt;Node2</title>
<g id="a_edge1_Node000001_Node000002"><a xlink:title=" ">
<path fill="none" stroke="#63b8ff" d="M84.75,-48C92.44,-48 100.55,-48 108.49,-48"/>
<polygon fill="#63b8ff" stroke="#63b8ff" points="108.43,-51.5 118.43,-48 108.43,-44.5 108.43,-51.5"/>
</a>
</g>
</g>
<!-- Node3 -->
<g id="Node000003" class="node">
<title>Node3</title>
<g id="a_Node000003"><a xlink:href="event_8c.html#ae5e03ab33fd406568f5f30681b510393" target="_top" xlink:title="Create a new event node with dynamic memory allocation.">
<polygon fill="white" stroke="#666666" points="333.75,-96 238.25,-96 238.25,-76 333.75,-76 333.75,-96"/>
<text xml:space="preserve" text-anchor="middle" x="286" y="-82.5" font-family="Helvetica,sans-Serif" font-size="10.00">event_createNode</text>
</a>
</g>
</g>
<!-- Node2&#45;&gt;Node3 -->
<g id="edge2_Node000002_Node000003" class="edge">
<title>Node2&#45;&gt;Node3</title>
<g id="a_edge2_Node000002_Node000003"><a xlink:title=" ">
<path fill="none" stroke="#63b8ff" d="M196.12,-58.48C209.8,-62.72 225.79,-67.67 240.4,-72.19"/>
<polygon fill="#63b8ff" stroke="#63b8ff" points="239.21,-75.49 249.8,-75.1 241.28,-68.8 239.21,-75.49"/>
</a>
</g>
</g>
<!-- Node4 -->
<g id="Node000004" class="node">
<title>Node4</title>
<g id="a_Node000004"><a xlink:href="event_8c.html#a9a29143d5146b5140c4fdfbe1009549f" target="_top" xlink:title="Log event type to terminal when event callback is triggered.">
<polygon fill="white" stroke="#666666" points="333.38,-58 238.62,-58 238.62,-38 333.38,-38 333.38,-58"/>
<text xml:space="preserve" text-anchor="middle" x="286" y="-44.5" font-family="Helvetica,sans-Serif" font-size="10.00">event_diplay_type</text>
</a>
</g>
</g>
<!-- Node2&#45;&gt;Node4 -->
<g id="edge3_Node000002_Node000004" class="edge">
<title>Node2&#45;&gt;Node4</title>
<g id="a_edge3_Node000002_Node000004"><a xlink:title=" ">
<path fill="none" stroke="#63b8ff" d="M202.44,-48C210.33,-48 218.74,-48 227.07,-48"/>
<polygon fill="#63b8ff" stroke="#63b8ff" points="226.81,-51.5 236.81,-48 226.81,-44.5 226.81,-51.5"/>
</a>
</g>
</g>
<!-- Node6 -->
<g id="Node000006" class="node">
<title>Node6</title>
<g id="a_Node000006"><a xlink:href="event_8c.html#aea88d358a100904366305919eaa2d0ce" target="_top" xlink:title="Check if the event queue is empty.">
<polygon fill="white" stroke="#666666" points="326.62,-20 245.38,-20 245.38,0 326.62,0 326.62,-20"/>
<text xml:space="preserve" text-anchor="middle" x="286" y="-6.5" font-family="Helvetica,sans-Serif" font-size="10.00">event_isEmpty</text>
</a>
</g>
</g>
<!-- Node2&#45;&gt;Node6 -->
<g id="edge5_Node000002_Node000006" class="edge">
<title>Node2&#45;&gt;Node6</title>
<g id="a_edge5_Node000002_Node000006"><a xlink:title=" ">
<path fill="none" stroke="#63b8ff" d="M196.12,-37.52C209.8,-33.28 225.79,-28.33 240.4,-23.81"/>
<polygon fill="#63b8ff" stroke="#63b8ff" points="241.28,-27.2 249.8,-20.9 239.21,-20.51 241.28,-27.2"/>
</a>
</g>
</g>
<!-- Node5 -->
<g id="Node000005" class="node">
<title>Node5</title>
<g id="a_Node000005"><a xlink:href="log_8c.html#a19c27922f37e1d81bb9370e65be76554" target="_top" xlink:title="Log a message with specified log level.">
<polygon fill="white" stroke="#666666" points="417.25,-58 369.75,-58 369.75,-38 417.25,-38 417.25,-58"/>
<text xml:space="preserve" text-anchor="middle" x="393.5" y="-44.5" font-family="Helvetica,sans-Serif" font-size="10.00">logMsg</text>
</a>
</g>
</g>
<!-- Node4&#45;&gt;Node5 -->
<g id="edge4_Node000004_Node000005" class="edge">
<title>Node4&#45;&gt;Node5</title>
<g id="a_edge4_Node000004_Node000005"><a xlink:title=" ">
<path fill="none" stroke="#63b8ff" d="M333.58,-48C341.79,-48 350.2,-48 358.01,-48"/>
<polygon fill="#63b8ff" stroke="#63b8ff" points="357.77,-51.5 367.77,-48 357.77,-44.5 357.77,-51.5"/>
</a>
</g>
</g>
</g>
</svg>
</svg>

<style type='text/css'>
<![CDATA[
[data-mouse-over-selected='false'] { opacity: 0.7; }
[data-mouse-over-selected='true']  { opacity: 1.0; }
]]>
</style>
<script type="application/ecmascript"><![CDATA[
document.addEventListener('DOMContentLoaded', (event) => {
  highlightEdges();
  highlightAdjacentNodes();
});
]]></script>
</svg>
