<?xml version="1.0" encoding="UTF-8" standalone="no"?>
<!DOCTYPE svg PUBLIC "-//W3C//DTD SVG 1.1//EN"
 "http://www.w3.org/Graphics/SVG/1.1/DTD/svg11.dtd">
<!-- Generated by graphviz version 14.1.2 (0)
 -->
<!-- Title: encoder_callback Pages: 1 -->
<svg width="553pt" height="104pt"
 viewBox="0.00 0.00 553.00 104.00" xmlns="http://www.w3.org/2000/svg" xmlns:xlink="http://www.w3.org/1999/xlink">
<g id="graph0" class="graph" transform="scale(1 1) rotate(0) translate(4 100)">
<title>encoder_callback</title>
<!-- Node1 -->
<g id="Node000001" class="node">
<title>Node1</title>
<g id="a_Node000001"><a xlink:title="Process encoder interrupt callback.">
<polygon fill="#999999" stroke="#666666" points="91.75,-58 0,-58 0,-38 91.75,-38 91.75,-58"/>
<text xml:space="preserve" text-anchor="middle" x="45.88" y="-44.5" font-family="Helvetica,sans-Serif" font-size="10.00">encoder_callback</text>
</a>
</g>
</g>
<!-- Node2 -->
<g id="Node000002" class="node">
<title>Node2</title>
<g id="a_Node000002"><a xlink:href="event_8c.html#a55880a847852bc5cd0e3b50ecb2b6839" target="_top" xlink:title="Add an event to the rear of the queue.">
<polygon fill="white" stroke="#666666" points="330,-58 248,-58 248,-38 330,-38 330,-58"/>
<text xml:space="preserve" text-anchor="middle" x="289" y="-44.5" font-family="Helvetica,sans-Serif" font-size="10.00">event_enqueue</text>
</a>
</g>
</g>
<!-- Node1&#45;&gt;Node2 -->
<g id="edge1_Node000001_Node000002" class="edge">
<title>Node1&#45;&gt;Node2</title>
<g id="a_edge1_Node000001_Node000002"><a xlink:title=" ">
<path fill="none" stroke="#63b8ff" d="M92.23,-48C133.22,-48 193.52,-48 236.35,-48"/>
<polygon fill="#63b8ff" stroke="#63b8ff" points="236.14,-51.5 246.14,-48 236.14,-44.5 236.14,-51.5"/>
</a>
</g>
</g>
<!-- Node7 -->
<g id="Node000007" class="node">
<title>Node7</title>
<g id="a_Node000007"><a xlink:href="encoder_8c.html#a2eece46a31e7c42df2173d6173bce48d" target="_top" xlink:title="Update encoder position based on rotation direction.">
<polygon fill="white" stroke="#666666" points="212,-39 127.75,-39 127.75,-19 212,-19 212,-39"/>
<text xml:space="preserve" text-anchor="middle" x="169.88" y="-25.5" font-family="Helvetica,sans-Serif" font-size="10.00">update_position</text>
</a>
</g>
</g>
<!-- Node1&#45;&gt;Node7 -->
<g id="edge6_Node000001_Node000007" class="edge">
<title>Node1&#45;&gt;Node7</title>
<g id="a_edge6_Node000001_Node000007"><a xlink:title=" ">
<path fill="none" stroke="#63b8ff" d="M91.96,-40.98C99.89,-39.74 108.21,-38.45 116.33,-37.18"/>
<polygon fill="#63b8ff" stroke="#63b8ff" points="116.77,-40.66 126.12,-35.66 115.7,-33.74 116.77,-40.66"/>
</a>
</g>
</g>
<!-- Node3 -->
<g id="Node000003" class="node">
<title>Node3</title>
<g id="a_Node000003"><a xlink:href="event_8c.html#ae5e03ab33fd406568f5f30681b510393" target="_top" xlink:title="Create a new event node with dynamic memory allocation.">
<polygon fill="white" stroke="#666666" points="461.5,-96 366,-96 366,-76 461.5,-76 461.5,-96"/>
<text xml:space="preserve" text-anchor="middle" x="413.75" y="-82.5" font-family="Helvetica,sans-Serif" font-size="10.00">event_createNode</text>
</a>
</g>
</g>
<!-- Node2&#45;&gt;Node3 -->
<g id="edge2_Node000002_Node000003" class="edge">
<title>Node2&#45;&gt;Node3</title>
<g id="a_edge2_Node000002_Node000003"><a xlink:title=" ">
<path fill="none" stroke="#63b8ff" d="M323.87,-58.48C337.55,-62.72 353.54,-67.67 368.15,-72.19"/>
<polygon fill="#63b8ff" stroke="#63b8ff" points="366.96,-75.49 377.55,-75.1 369.03,-68.8 366.96,-75.49"/>
</a>
</g>
</g>
<!-- Node4 -->
<g id="Node000004" class="node">
<title>Node4</title>
<g id="a_Node000004"><a xlink:href="event_8c.html#a9a29143d5146b5140c4fdfbe1009549f" target="_top" xlink:title="Log event type to terminal when event callback is triggered.">
<polygon fill="white" stroke="#666666" points="461.12,-58 366.38,-58 366.38,-38 461.12,-38 461.12,-58"/>
<text xml:space="preserve" text-anchor="middle" x="413.75" y="-44.5" font-family="Helvetica,sans-Serif" font-size="10.00">event_diplay_type</text>
</a>
</g>
</g>
<!-- Node2&#45;&gt;Node4 -->
<g id="edge3_Node000002_Node000004" class="edge">
<title>Node2&#45;&gt;Node4</title>
<g id="a_edge3_Node000002_Node000004"><a xlink:title=" ">
<path fill="none" stroke="#63b8ff" d="M330.19,-48C338.08,-48 346.49,-48 354.82,-48"/>
<polygon fill="#63b8ff" stroke="#63b8ff" points="354.56,-51.5 364.56,-48 354.56,-44.5 354.56,-51.5"/>
</a>
</g>
</g>
<!-- Node6 -->
<g id="Node000006" class="node">
<title>Node6</title>
<g id="a_Node000006"><a xlink:href="event_8c.html#aea88d358a100904366305919eaa2d0ce" target="_top" xlink:title="Check if the event queue is empty.">
<polygon fill="white" stroke="#666666" points="454.38,-20 373.12,-20 373.12,0 454.38,0 454.38,-20"/>
<text xml:space="preserve" text-anchor="middle" x="413.75" y="-6.5" font-family="Helvetica,sans-Serif" font-size="10.00">event_isEmpty</text>
</a>
</g>
</g>
<!-- Node2&#45;&gt;Node6 -->
<g id="edge5_Node000002_Node000006" class="edge">
<title>Node2&#45;&gt;Node6</title>
<g id="a_edge5_Node000002_Node000006"><a xlink:title=" ">
<path fill="none" stroke="#63b8ff" d="M323.87,-37.52C337.55,-33.28 353.54,-28.33 368.15,-23.81"/>
<polygon fill="#63b8ff" stroke="#63b8ff" points="369.03,-27.2 377.55,-20.9 366.96,-20.51 369.03,-27.2"/>
</a>
</g>
</g>
<!-- Node5 -->
<g id="Node000005" class="node">
<title>Node5</title>
<g id="a_Node000005"><a xlink:href="log_8c.html#a19c27922f37e1d81bb9370e65be76554" target="_top" xlink:title="Log a message with specified log level.">
<polygon fill="white" stroke="#666666" points="545,-58 497.5,-58 497.5,-38 545,-38 545,-58"/>
<text xml:space="preserve" text-anchor="middle" x="521.25" y="-44.5" font-family="Helvetica,sans-Serif" font-size="10.00">logMsg</text>
</a>
</g>
</g>
<!-- Node4&#45;&gt;Node5 -->
<g id="edge4_Node000004_Node000005" class="edge">
<title>Node4&#45;&gt;Node5</title>
<g id="a_edge4_Node000004_Node000005"><a xlink:title=" ">
<path fill="none" stroke="#63b8ff" d="M461.33,-48C469.54,-48 477.95,-48 485.76,-48"/>
<polygon fill="#63b8ff" stroke="#63b8ff" points="485.52,-51.5 495.52,-48 485.52,-44.5 485.52,-51.5"/>
</a>
</g>
</g>
<!-- Node7&#45;&gt;Node2 -->
<g id="edge7_Node000007_Node000002" class="edge">
<title>Node7&#45;&gt;Node2</title>
<g id="a_edge7_Node000007_Node000002"><a xlink:title=" ">
<path fill="none" stroke="#63b8ff" d="M212.5,-35.75C220.27,-37.01 228.49,-38.35 236.52,-39.65"/>
<polygon fill="#63b8ff" stroke="#63b8ff" points="235.76,-43.07 246.2,-41.22 236.89,-36.16 235.76,-43.07"/>
</a>
</g>
</g>
</g>
</svg>
