<?xml version="1.0" encoding="UTF-8" standalone="no"?>
<!DOCTYPE svg PUBLIC "-//W3C//DTD SVG 1.1//EN"
 "http://www.w3.org/Graphics/SVG/1.1/DTD/svg11.dtd">
<!-- Generated by graphviz version 14.1.2 (0)
 -->
<!-- Title: event_diplay_type Pages: 1 -->
<svg width="657pt" height="78pt"
 viewBox="0.00 0.00 657.00 78.00" xmlns="http://www.w3.org/2000/svg" xmlns:xlink="http://www.w3.org/1999/xlink">
<g id="graph0" class="graph" transform="scale(1 1) rotate(0) translate(4 74.37)">
<title>event_diplay_type</title>
<!-- Node1 -->
<g id="Node000001" class="node">
<title>Node1</title>
<g id="a_Node000001"><a xlink:title="Log event type to terminal when event callback is triggered.">
<polygon fill="#999999" stroke="#666666" points="648.5,-58 553.75,-58 553.75,-38 648.5,-38 648.5,-58"/>
<text xml:space="preserve" text-anchor="middle" x="601.12" y="-44.5" font-family="Helvetica,sans-Serif" font-size="10.00">event_diplay_type</text>
</a>
</g>
</g>
<!-- Node2 -->
<g id="Node000002" class="node">
<title>Node2</title>
<g id="a_Node000002"><a xlink:href="event_8c.html#a55880a847852bc5cd0e3b50ecb2b6839" target="_top" xlink:title="Add an event to the rear of the queue.">
<polygon fill="white" stroke="#666666" points="517.75,-58 435.75,-58 435.75,-38 517.75,-38 517.75,-58"/>
<text xml:space="preserve" text-anchor="middle" x="476.75" y="-44.5" font-family="Helvetica,sans-Serif" font-size="10.00">event_enqueue</text>
</a>
</g>
</g>
<!-- Node1&#45;&gt;Node2 -->
<g id="edge1_Node000001_Node000002" class="edge">
<title>Node1&#45;&gt;Node2</title>
<g id="a_edge1_Node000001_Node000002"><a xlink:title=" ">
<path fill="none" stroke="#63b8ff" d="M542.18,-48C534.08,-48 525.91,-48 518.24,-48"/>
<polygon fill="#63b8ff" stroke="#63b8ff" points="542,-51.5 552,-48 542,-44.5 542,-51.5"/>
</a>
</g>
</g>
<!-- Node3 -->
<g id="Node000003" class="node">
<title>Node3</title>
<g id="a_Node000003"><a xlink:href="encoder_8c.html#ac97bebdda353039aa590609205734aa1" target="_top" xlink:title="Process encoder interrupt callback.">
<polygon fill="white" stroke="#666666" points="279.5,-58 187.75,-58 187.75,-38 279.5,-38 279.5,-58"/>
<text xml:space="preserve" text-anchor="middle" x="233.62" y="-44.5" font-family="Helvetica,sans-Serif" font-size="10.00">encoder_callback</text>
</a>
</g>
</g>
<!-- Node2&#45;&gt;Node3 -->
<g id="edge2_Node000002_Node000003" class="edge">
<title>Node2&#45;&gt;Node3</title>
<g id="a_edge2_Node000002_Node000003"><a xlink:title=" ">
<path fill="none" stroke="#63b8ff" d="M430.61,-61.21C420.54,-63.62 409.85,-65.76 399.75,-67 362.59,-71.58 352.7,-71.31 315.5,-67 300.74,-65.29 284.77,-61.88 270.95,-58.42"/>
<polygon fill="#63b8ff" stroke="#63b8ff" points="431.36,-64.63 440.19,-58.79 429.64,-57.85 431.36,-64.63"/>
</a>
</g>
</g>
<!-- Node4 -->
<g id="Node000004" class="node">
<title>Node4</title>
<g id="a_Node000004"><a xlink:href="main_8c.html#a0cd91fd3a9608559c2a87a8ba6cba55f" target="_top" xlink:title=" ">
<polygon fill="white" stroke="#666666" points="144.25,-20 7.5,-20 7.5,0 144.25,0 144.25,-20"/>
<text xml:space="preserve" text-anchor="middle" x="75.88" y="-6.5" font-family="Helvetica,sans-Serif" font-size="10.00">HAL_GPIO_EXTI_Callback</text>
</a>
</g>
</g>
<!-- Node2&#45;&gt;Node4 -->
<g id="edge5_Node000002_Node000004" class="edge">
<title>Node2&#45;&gt;Node4</title>
<g id="a_edge5_Node000002_Node000004"><a xlink:title=" ">
<path fill="none" stroke="#63b8ff" d="M428.77,-34.81C419.23,-32.54 409.22,-30.45 399.75,-29 312.33,-15.62 210.26,-11.51 144.66,-10.33"/>
<polygon fill="#63b8ff" stroke="#63b8ff" points="427.67,-38.14 438.22,-37.16 429.36,-31.35 427.67,-38.14"/>
</a>
</g>
</g>
<!-- Node6 -->
<g id="Node000006" class="node">
<title>Node6</title>
<g id="a_Node000006"><a xlink:href="encoder_8c.html#a2eece46a31e7c42df2173d6173bce48d" target="_top" xlink:title="Update encoder position based on rotation direction.">
<polygon fill="white" stroke="#666666" points="399.75,-58 315.5,-58 315.5,-38 399.75,-38 399.75,-58"/>
<text xml:space="preserve" text-anchor="middle" x="357.62" y="-44.5" font-family="Helvetica,sans-Serif" font-size="10.00">update_position</text>
</a>
</g>
</g>
<!-- Node2&#45;&gt;Node6 -->
<g id="edge6_Node000002_Node000006" class="edge">
<title>Node2&#45;&gt;Node6</title>
<g id="a_edge6_Node000002_Node000006"><a xlink:title=" ">
<path fill="none" stroke="#63b8ff" d="M423.98,-48C416.02,-48 407.9,-48 400.2,-48"/>
<polygon fill="#63b8ff" stroke="#63b8ff" points="423.93,-51.5 433.93,-48 423.93,-44.5 423.93,-51.5"/>
</a>
</g>
</g>
<!-- Node3&#45;&gt;Node4 -->
<g id="edge3_Node000003_Node000004" class="edge">
<title>Node3&#45;&gt;Node4</title>
<g id="a_edge3_Node000003_Node000004"><a xlink:title=" ">
<path fill="none" stroke="#63b8ff" d="M178.6,-34.82C159.33,-30.12 137.9,-24.89 119.71,-20.45"/>
<polygon fill="#63b8ff" stroke="#63b8ff" points="177.64,-38.19 188.18,-37.16 179.3,-31.39 177.64,-38.19"/>
</a>
</g>
</g>
<!-- Node5 -->
<g id="Node000005" class="node">
<title>Node5</title>
<g id="a_Node000005"><a xlink:href="main_8c.html#a77a2401a35ddd9bd0b8fc28331b81381" target="_top" xlink:title=" ">
<polygon fill="white" stroke="#666666" points="151.75,-58 0,-58 0,-38 151.75,-38 151.75,-58"/>
<text xml:space="preserve" text-anchor="middle" x="75.88" y="-44.5" font-family="Helvetica,sans-Serif" font-size="10.00">HAL_TIM_IC_CaptureCallback</text>
</a>
</g>
</g>
<!-- Node3&#45;&gt;Node5 -->
<g id="edge4_Node000003_Node000005" class="edge">
<title>Node3&#45;&gt;Node5</title>
<g id="a_edge4_Node000003_Node000005"><a xlink:title=" ">
<path fill="none" stroke="#63b8ff" d="M176.3,-48C168.41,-48 160.21,-48 152.05,-48"/>
<polygon fill="#63b8ff" stroke="#63b8ff" points="176.06,-51.5 186.06,-48 176.06,-44.5 176.06,-51.5"/>
</a>
</g>
</g>
<!-- Node6&#45;&gt;Node3 -->
<g id="edge7_Node000006_Node000003" class="edge">
<title>Node6&#45;&gt;Node3</title>
<g id="a_edge7_Node000006_Node000003"><a xlink:title=" ">
<path fill="none" stroke="#63b8ff" d="M304.04,-48C295.91,-48 287.59,-48 279.65,-48"/>
<polygon fill="#63b8ff" stroke="#63b8ff" points="303.81,-51.5 313.81,-48 303.81,-44.5 303.81,-51.5"/>
</a>
</g>
</g>
</g>
</svg>
