<?xml version="1.0" encoding="UTF-8" standalone="no"?>
<!DOCTYPE svg PUBLIC "-//W3C//DTD SVG 1.1//EN"
 "http://www.w3.org/Graphics/SVG/1.1/DTD/svg11.dtd">
<!-- Generated by graphviz version 14.1.2 (0)
 -->
<!-- Title: Core/Inc/event.h Pages: 1 -->
<svg width="223pt" height="140pt"
 viewBox="0.00 0.00 223.00 140.00" xmlns="http://www.w3.org/2000/svg" xmlns:xlink="http://www.w3.org/1999/xlink">
<g id="graph0" class="graph" transform="scale(1 1) rotate(0) translate(4 136)">
<title>Core/Inc/event.h</title>
<!-- Node1 -->
<g id="Node000001" class="node">
<title>Node1</title>
<g id="a_Node000001"><a xlink:title="Event queue module for decoupling interrupt handlers from UI processing.">
<polygon fill="#999999" stroke="#666666" points="141.38,-132 52.62,-132 52.62,-112 141.38,-112 141.38,-132"/>
<text xml:space="preserve" text-anchor="middle" x="97" y="-118.5" font-family="Helvetica,sans-Serif" font-size="10.00">Core/Inc/event.h</text>
</a>
</g>
</g>
<!-- Node2 -->
<g id="Node000002" class="node">
<title>Node2</title>
<g id="a_Node000002"><a xlink:title=" ">
<polygon fill="#e0e0e0" stroke="#999999" points="88,-20 0,-20 0,0 88,0 88,-20"/>
<text xml:space="preserve" text-anchor="middle" x="44" y="-6.5" font-family="Helvetica,sans-Serif" font-size="10.00">stm32f0xx_hal.h</text>
</a>
</g>
</g>
<!-- Node1&#45;&gt;Node2 -->
<g id="edge1_Node000001_Node000002" class="edge">
<title>Node1&#45;&gt;Node2</title>
<g id="a_edge1_Node000001_Node000002"><a xlink:title=" ">
<path fill="none" stroke="#63b8ff" d="M77.52,-111.6C64.26,-104.02 47.75,-92 40,-76 33.28,-62.13 34.85,-44.61 37.79,-31.25"/>
<polygon fill="#63b8ff" stroke="#63b8ff" points="41.1,-32.41 40.28,-21.84 34.33,-30.61 41.1,-32.41"/>
</a>
</g>
</g>
<!-- Node3 -->
<g id="Node000003" class="node">
<title>Node3</title>
<g id="a_Node000003"><a xlink:href="log_8h.html" target="_top" xlink:title="Logging module with configurable log levels and UART output.">
<polygon fill="white" stroke="#666666" points="86.5,-76 49.5,-76 49.5,-56 86.5,-56 86.5,-76"/>
<text xml:space="preserve" text-anchor="middle" x="68" y="-62.5" font-family="Helvetica,sans-Serif" font-size="10.00">log.h</text>
</a>
</g>
</g>
<!-- Node1&#45;&gt;Node3 -->
<g id="edge2_Node000001_Node000003" class="edge">
<title>Node1&#45;&gt;Node3</title>
<g id="a_edge2_Node000001_Node000003"><a xlink:title=" ">
<path fill="none" stroke="#63b8ff" d="M91.95,-111.59C88.21,-104.63 82.98,-94.89 78.36,-86.29"/>
<polygon fill="#63b8ff" stroke="#63b8ff" points="81.52,-84.79 73.71,-77.63 75.36,-88.1 81.52,-84.79"/>
</a>
</g>
</g>
<!-- Node4 -->
<g id="Node000004" class="node">
<title>Node4</title>
<g id="a_Node000004"><a xlink:title=" ">
<polygon fill="#e0e0e0" stroke="#999999" points="149.62,-76 104.38,-76 104.38,-56 149.62,-56 149.62,-76"/>
<text xml:space="preserve" text-anchor="middle" x="127" y="-62.5" font-family="Helvetica,sans-Serif" font-size="10.00">stdio.h</text>
</a>
</g>
</g>
<!-- Node1&#45;&gt;Node4 -->
<g id="edge4_Node000001_Node000004" class="edge">
<title>Node1&#45;&gt;Node4</title>
<g id="a_edge4_Node000001_Node000004"><a xlink:title=" ">
<path fill="none" stroke="#63b8ff" d="M102.23,-111.59C106.1,-104.63 111.51,-94.89 116.28,-86.29"/>
<polygon fill="#63b8ff" stroke="#63b8ff" points="119.3,-88.06 121.1,-77.62 113.18,-84.66 119.3,-88.06"/>
</a>
</g>
</g>
<!-- Node5 -->
<g id="Node000005" class="node">
<title>Node5</title>
<g id="a_Node000005"><a xlink:title=" ">
<polygon fill="#e0e0e0" stroke="#999999" points="214.75,-76 167.25,-76 167.25,-56 214.75,-56 214.75,-76"/>
<text xml:space="preserve" text-anchor="middle" x="191" y="-62.5" font-family="Helvetica,sans-Serif" font-size="10.00">stdlib.h</text>
</a>
</g>
</g>
<!-- Node1&#45;&gt;Node5 -->
<g id="edge5_Node000001_Node000005" class="edge">
<title>Node1&#45;&gt;Node5</title>
<g id="a_edge5_Node000001_Node000005"><a xlink:title=" ">
<path fill="none" stroke="#63b8ff" d="M113.37,-111.59C127.57,-103.44 148.38,-91.48 164.88,-82"/>
<polygon fill="#63b8ff" stroke="#63b8ff" points="166.26,-85.25 173.19,-77.23 162.77,-79.18 166.26,-85.25"/>
</a>
</g>
</g>
<!-- Node3&#45;&gt;Node2 -->
<g id="edge3_Node000003_Node000002" class="edge">
<title>Node3&#45;&gt;Node2</title>
<g id="a_edge3_Node000003_Node000002"><a xlink:title=" ">
<path fill="none" stroke="#63b8ff" d="M63.82,-55.59C60.76,-48.7 56.49,-39.1 52.7,-30.57"/>
<polygon fill="#63b8ff" stroke="#63b8ff" points="56.01,-29.4 48.75,-21.68 49.61,-32.24 56.01,-29.4"/>
</a>
</g>
</g>
</g>
</svg>
