<?xml version="1.0" encoding="UTF-8" standalone="no"?>
<!DOCTYPE svg PUBLIC "-//W3C//DTD SVG 1.1//EN"
 "http://www.w3.org/Graphics/SVG/1.1/DTD/svg11.dtd">
<!-- Generated by graphviz version 14.1.2 (0)
 -->
<!-- Title: event_dequeue Pages: 1 -->
<svg width="297pt" height="28pt"
 viewBox="0.00 0.00 297.00 28.00" xmlns="http://www.w3.org/2000/svg" xmlns:xlink="http://www.w3.org/1999/xlink">
<g id="graph0" class="graph" transform="scale(1 1) rotate(0) translate(4 24)">
<title>event_dequeue</title>
<!-- Node1 -->
<g id="Node000001" class="node">
<title>Node1</title>
<g id="a_Node000001"><a xlink:title="Remove and return the event at the front of the queue.">
<polygon fill="#999999" stroke="#666666" points="288.75,-20 206.75,-20 206.75,0 288.75,0 288.75,-20"/>
<text xml:space="preserve" text-anchor="middle" x="247.75" y="-6.5" font-family="Helvetica,sans-Serif" font-size="10.00">event_dequeue</text>
</a>
</g>
</g>
<!-- Node2 -->
<g id="Node000002" class="node">
<title>Node2</title>
<g id="a_Node000002"><a xlink:href="ui_8c.html#ad5a13f6f84cc1bd8df97a052ba4a746b" target="_top" xlink:title="Get next event from UI event queue.">
<polygon fill="white" stroke="#666666" points="170.75,-20 94,-20 94,0 170.75,0 170.75,-20"/>
<text xml:space="preserve" text-anchor="middle" x="132.38" y="-6.5" font-family="Helvetica,sans-Serif" font-size="10.00">ui_get_events</text>
</a>
</g>
</g>
<!-- Node1&#45;&gt;Node2 -->
<g id="edge1_Node000001_Node000002" class="edge">
<title>Node1&#45;&gt;Node2</title>
<g id="a_edge1_Node000001_Node000002"><a xlink:title=" ">
<path fill="none" stroke="#63b8ff" d="M195.09,-10C186.93,-10 178.64,-10 170.88,-10"/>
<polygon fill="#63b8ff" stroke="#63b8ff" points="194.95,-13.5 204.95,-10 194.95,-6.5 194.95,-13.5"/>
</a>
</g>
</g>
<!-- Node3 -->
<g id="Node000003" class="node">
<title>Node3</title>
<g id="a_Node000003"><a xlink:href="ui_8c.html#a1c0a0e3c37fa619fc105b56716b1e08a" target="_top" xlink:title="Main UI state machine update function.">
<polygon fill="white" stroke="#666666" points="58,-20 0,-20 0,0 58,0 58,-20"/>
<text xml:space="preserve" text-anchor="middle" x="29" y="-6.5" font-family="Helvetica,sans-Serif" font-size="10.00">ui_update</text>
</a>
</g>
</g>
<!-- Node2&#45;&gt;Node3 -->
<g id="edge2_Node000002_Node000003" class="edge">
<title>Node2&#45;&gt;Node3</title>
<g id="a_edge2_Node000002_Node000003"><a xlink:title=" ">
<path fill="none" stroke="#63b8ff" d="M82.16,-10C73.96,-10 65.71,-10 58.27,-10"/>
<polygon fill="#63b8ff" stroke="#63b8ff" points="82.11,-13.5 92.11,-10 82.11,-6.5 82.11,-13.5"/>
</a>
</g>
</g>
</g>
</svg>
