<?xml version="1.0" encoding="UTF-8" standalone="no"?>
<!DOCTYPE svg PUBLIC "-//W3C//DTD SVG 1.1//EN"
 "http://www.w3.org/Graphics/SVG/1.1/DTD/svg11.dtd">
<!-- Generated by graphviz version 14.1.2 (0)
 -->
<!-- Title: event_isEmpty Pages: 1 -->
<svg width="643pt" height="142pt"
 viewBox="0.00 0.00 643.00 142.00" xmlns="http://www.w3.org/2000/svg" xmlns:xlink="http://www.w3.org/1999/xlink">
<g id="graph0" class="graph" transform="scale(1 1) rotate(0) translate(4 138)">
<title>event_isEmpty</title>
<!-- Node1 -->
<g id="Node000001" class="node">
<title>Node1</title>
<g id="a_Node000001"><a xlink:title="Check if the event queue is empty.">
<polygon fill="#999999" stroke="#666666" points="635,-96 553.75,-96 553.75,-76 635,-76 635,-96"/>
<text xml:space="preserve" text-anchor="middle" x="594.38" y="-82.5" font-family="Helvetica,sans-Serif" font-size="10.00">event_isEmpty</text>
</a>
</g>
</g>
<!-- Node2 -->
<g id="Node000002" class="node">
<title>Node2</title>
<g id="a_Node000002"><a xlink:href="event_8c.html#aa5ad85f2fdb68531971d2f337e657061" target="_top" xlink:title="Remove and return the event at the front of the queue.">
<polygon fill="white" stroke="#666666" points="517.75,-134 435.75,-134 435.75,-114 517.75,-114 517.75,-134"/>
<text xml:space="preserve" text-anchor="middle" x="476.75" y="-120.5" font-family="Helvetica,sans-Serif" font-size="10.00">event_dequeue</text>
</a>
</g>
</g>
<!-- Node1&#45;&gt;Node2 -->
<g id="edge1_Node000001_Node000002" class="edge">
<title>Node1&#45;&gt;Node2</title>
<g id="a_edge1_Node000001_Node000002"><a xlink:title=" ">
<path fill="none" stroke="#63b8ff" d="M550.85,-99.98C537.19,-104.47 522.3,-109.36 509.55,-113.55"/>
<polygon fill="#63b8ff" stroke="#63b8ff" points="551.63,-103.4 560.04,-96.96 549.44,-96.75 551.63,-103.4"/>
</a>
</g>
</g>
<!-- Node3 -->
<g id="Node000003" class="node">
<title>Node3</title>
<g id="a_Node000003"><a xlink:href="ui_8c.html#ad5a13f6f84cc1bd8df97a052ba4a746b" target="_top" xlink:title="Get next event from UI event queue.">
<polygon fill="white" stroke="#666666" points="396,-134 319.25,-134 319.25,-114 396,-114 396,-134"/>
<text xml:space="preserve" text-anchor="middle" x="357.62" y="-120.5" font-family="Helvetica,sans-Serif" font-size="10.00">ui_get_events</text>
</a>
</g>
</g>
<!-- Node1&#45;&gt;Node3 -->
<g id="edge11_Node000001_Node000003" class="edge">
<title>Node1&#45;&gt;Node3</title>
<g id="a_edge11_Node000001_Node000003"><a xlink:title=" ">
<path fill="none" stroke="#63b8ff" d="M541.96,-90.6C511.04,-93.77 470.97,-98.56 435.75,-105 422.86,-107.36 408.92,-110.58 396.48,-113.7"/>
<polygon fill="#63b8ff" stroke="#63b8ff" points="542.22,-94.09 551.83,-89.62 541.53,-87.13 542.22,-94.09"/>
</a>
</g>
</g>
<!-- Node5 -->
<g id="Node000005" class="node">
<title>Node5</title>
<g id="a_Node000005"><a xlink:href="event_8c.html#a55880a847852bc5cd0e3b50ecb2b6839" target="_top" xlink:title="Add an event to the rear of the queue.">
<polygon fill="white" stroke="#666666" points="517.75,-58 435.75,-58 435.75,-38 517.75,-38 517.75,-58"/>
<text xml:space="preserve" text-anchor="middle" x="476.75" y="-44.5" font-family="Helvetica,sans-Serif" font-size="10.00">event_enqueue</text>
</a>
</g>
</g>
<!-- Node1&#45;&gt;Node5 -->
<g id="edge4_Node000001_Node000005" class="edge">
<title>Node1&#45;&gt;Node5</title>
<g id="a_edge4_Node000001_Node000005"><a xlink:title=" ">
<path fill="none" stroke="#63b8ff" d="M550.85,-72.02C537.19,-67.53 522.3,-62.64 509.55,-58.45"/>
<polygon fill="#63b8ff" stroke="#63b8ff" points="549.44,-75.25 560.04,-75.04 551.63,-68.6 549.44,-75.25"/>
</a>
</g>
</g>
<!-- Node2&#45;&gt;Node3 -->
<g id="edge2_Node000002_Node000003" class="edge">
<title>Node2&#45;&gt;Node3</title>
<g id="a_edge2_Node000002_Node000003"><a xlink:title=" ">
<path fill="none" stroke="#63b8ff" d="M424.17,-124C414.78,-124 405.14,-124 396.25,-124"/>
<polygon fill="#63b8ff" stroke="#63b8ff" points="423.93,-127.5 433.93,-124 423.93,-120.5 423.93,-127.5"/>
</a>
</g>
</g>
<!-- Node4 -->
<g id="Node000004" class="node">
<title>Node4</title>
<g id="a_Node000004"><a xlink:href="ui_8c.html#a1c0a0e3c37fa619fc105b56716b1e08a" target="_top" xlink:title="Main UI state machine update function.">
<polygon fill="white" stroke="#666666" points="262.62,-134 204.62,-134 204.62,-114 262.62,-114 262.62,-134"/>
<text xml:space="preserve" text-anchor="middle" x="233.62" y="-120.5" font-family="Helvetica,sans-Serif" font-size="10.00">ui_update</text>
</a>
</g>
</g>
<!-- Node3&#45;&gt;Node4 -->
<g id="edge3_Node000003_Node000004" class="edge">
<title>Node3&#45;&gt;Node4</title>
<g id="a_edge3_Node000003_Node000004"><a xlink:title=" ">
<path fill="none" stroke="#63b8ff" d="M307.68,-124C292.5,-124 276.28,-124 262.99,-124"/>
<polygon fill="#63b8ff" stroke="#63b8ff" points="307.51,-127.5 317.51,-124 307.51,-120.5 307.51,-127.5"/>
</a>
</g>
</g>
<!-- Node6 -->
<g id="Node000006" class="node">
<title>Node6</title>
<g id="a_Node000006"><a xlink:href="encoder_8c.html#ac97bebdda353039aa590609205734aa1" target="_top" xlink:title="Process encoder interrupt callback.">
<polygon fill="white" stroke="#666666" points="279.5,-58 187.75,-58 187.75,-38 279.5,-38 279.5,-58"/>
<text xml:space="preserve" text-anchor="middle" x="233.62" y="-44.5" font-family="Helvetica,sans-Serif" font-size="10.00">encoder_callback</text>
</a>
</g>
</g>
<!-- Node5&#45;&gt;Node6 -->
<g id="edge5_Node000005_Node000006" class="edge">
<title>Node5&#45;&gt;Node6</title>
<g id="a_edge5_Node000005_Node000006"><a xlink:title=" ">
<path fill="none" stroke="#63b8ff" d="M430.61,-61.21C420.54,-63.62 409.85,-65.76 399.75,-67 362.59,-71.58 352.7,-71.31 315.5,-67 300.74,-65.29 284.77,-61.88 270.95,-58.42"/>
<polygon fill="#63b8ff" stroke="#63b8ff" points="431.36,-64.63 440.19,-58.79 429.64,-57.85 431.36,-64.63"/>
</a>
</g>
</g>
<!-- Node7 -->
<g id="Node000007" class="node">
<title>Node7</title>
<g id="a_Node000007"><a xlink:href="main_8c.html#a0cd91fd3a9608559c2a87a8ba6cba55f" target="_top" xlink:title=" ">
<polygon fill="white" stroke="#666666" points="144.25,-20 7.5,-20 7.5,0 144.25,0 144.25,-20"/>
<text xml:space="preserve" text-anchor="middle" x="75.88" y="-6.5" font-family="Helvetica,sans-Serif" font-size="10.00">HAL_GPIO_EXTI_Callback</text>
</a>
</g>
</g>
<!-- Node5&#45;&gt;Node7 -->
<g id="edge8_Node000005_Node000007" class="edge">
<title>Node5&#45;&gt;Node7</title>
<g id="a_edge8_Node000005_Node000007"><a xlink:title=" ">
<path fill="none" stroke="#63b8ff" d="M428.77,-34.81C419.23,-32.54 409.22,-30.45 399.75,-29 312.33,-15.62 210.26,-11.51 144.66,-10.33"/>
<polygon fill="#63b8ff" stroke="#63b8ff" points="427.67,-38.14 438.22,-37.16 429.36,-31.35 427.67,-38.14"/>
</a>
</g>
</g>
<!-- Node9 -->
<g id="Node000009" class="node">
<title>Node9</title>
<g id="a_Node000009"><a xlink:href="encoder_8c.html#a2eece46a31e7c42df2173d6173bce48d" target="_top" xlink:title="Update encoder position based on rotation direction.">
<polygon fill="white" stroke="#666666" points="399.75,-58 315.5,-58 315.5,-38 399.75,-38 399.75,-58"/>
<text xml:space="preserve" text-anchor="middle" x="357.62" y="-44.5" font-family="Helvetica,sans-Serif" font-size="10.00">update_position</text>
</a>
</g>
</g>
<!-- Node5&#45;&gt;Node9 -->
<g id="edge9_Node000005_Node000009" class="edge">
<title>Node5&#45;&gt;Node9</title>
<g id="a_edge9_Node000005_Node000009"><a xlink:title=" ">
<path fill="none" stroke="#63b8ff" d="M423.98,-48C416.02,-48 407.9,-48 400.2,-48"/>
<polygon fill="#63b8ff" stroke="#63b8ff" points="423.93,-51.5 433.93,-48 423.93,-44.5 423.93,-51.5"/>
</a>
</g>
</g>
<!-- Node6&#45;&gt;Node7 -->
<g id="edge6_Node000006_Node000007" class="edge">
<title>Node6&#45;&gt;Node7</title>
<g id="a_edge6_Node000006_Node000007"><a xlink:title=" ">
<path fill="none" stroke="#63b8ff" d="M178.6,-34.82C159.33,-30.12 137.9,-24.89 119.71,-20.45"/>
<polygon fill="#63b8ff" stroke="#63b8ff" points="177.64,-38.19 188.18,-37.16 179.3,-31.39 177.64,-38.19"/>
</a>
</g>
</g>
<!-- Node8 -->
<g id="Node000008" class="node">
<title>Node8</title>
<g id="a_Node000008"><a xlink:href="main_8c.html#a77a2401a35ddd9bd0b8fc28331b81381" target="_top" xlink:title=" ">
<polygon fill="white" stroke="#666666" points="151.75,-58 0,-58 0,-38 151.75,-38 151.75,-58"/>
<text xml:space="preserve" text-anchor="middle" x="75.88" y="-44.5" font-family="Helvetica,sans-Serif" font-size="10.00">HAL_TIM_IC_CaptureCallback</text>
</a>
</g>
</g>
<!-- Node6&#45;&gt;Node8 -->
<g id="edge7_Node000006_Node000008" class="edge">
<title>Node6&#45;&gt;Node8</title>
<g id="a_edge7_Node000006_Node000008"><a xlink:title=" ">
<path fill="none" stroke="#63b8ff" d="M176.3,-48C168.41,-48 160.21,-48 152.05,-48"/>
<polygon fill="#63b8ff" stroke="#63b8ff" points="176.06,-51.5 186.06,-48 176.06,-44.5 176.06,-51.5"/>
</a>
</g>
</g>
<!-- Node9&#45;&gt;Node6 -->
<g id="edge10_Node000009_Node000006" class="edge">
<title>Node9&#45;&gt;Node6</title>
<g id="a_edge10_Node000009_Node000006"><a xlink:title=" ">
<path fill="none" stroke="#63b8ff" d="M304.04,-48C295.91,-48 287.59,-48 279.65,-48"/>
<polygon fill="#63b8ff" stroke="#63b8ff" points="303.81,-51.5 313.81,-48 303.81,-44.5 303.81,-51.5"/>
</a>
</g>
</g>
</g>
</svg>
