<?xml version="1.0" encoding="UTF-8" standalone="no"?>
<!DOCTYPE svg PUBLIC "-//W3C//DTD SVG 1.1//EN"
 "http://www.w3.org/Graphics/SVG/1.1/DTD/svg11.dtd">
<!-- Generated by graphviz version 14.1.2 (0)
 -->
<!-- Title: Core/Inc/event.h Pages: 1 -->
<svg width="362pt" height="196pt"
 viewBox="0.00 0.00 362.00 196.00" xmlns="http://www.w3.org/2000/svg" xmlns:xlink="http://www.w3.org/1999/xlink">
<g id="graph0" class="graph" transform="scale(1 1) rotate(0) translate(4 192)">
<title>Core/Inc/event.h</title>
<!-- Node1 -->
<g id="Node000001" class="node">
<title>Node1</title>
<g id="a_Node000001"><a xlink:title="Event queue module for decoupling interrupt handlers from UI processing.">
<polygon fill="#999999" stroke="#666666" points="221.75,-188 133,-188 133,-168 221.75,-168 221.75,-188"/>
<text xml:space="preserve" text-anchor="middle" x="177.38" y="-174.5" font-family="Helvetica,sans-Serif" font-size="10.00">Core/Inc/event.h</text>
</a>
</g>
</g>
<!-- Node2 -->
<g id="Node000002" class="node">
<title>Node2</title>
<g id="a_Node000002"><a xlink:href="encoder_8h.html" target="_top" xlink:title="Rotary encoder driver with interrupt&#45;based rotation detection.">
<polygon fill="white" stroke="#666666" points="117,-76 17.75,-76 17.75,-56 117,-56 117,-76"/>
<text xml:space="preserve" text-anchor="middle" x="67.38" y="-62.5" font-family="Helvetica,sans-Serif" font-size="10.00">Core/Inc/encoder.h</text>
</a>
</g>
</g>
<!-- Node1&#45;&gt;Node2 -->
<g id="edge1_Node000001_Node000002" class="edge">
<title>Node1&#45;&gt;Node2</title>
<g id="a_edge1_Node000001_Node000002"><a xlink:title=" ">
<path fill="none" stroke="#63b8ff" d="M159.66,-159.83C151.08,-151.47 140.65,-141.25 131.38,-132 111.63,-112.32 88.79,-88.98 76.44,-76.31"/>
<polygon fill="#63b8ff" stroke="#63b8ff" points="157.11,-162.23 166.72,-166.69 161.99,-157.21 157.11,-162.23"/>
</a>
</g>
</g>
<!-- Node4 -->
<g id="Node000004" class="node">
<title>Node4</title>
<g id="a_Node000004"><a xlink:href="main_8c.html" target="_top" xlink:title=": Main program body">
<polygon fill="white" stroke="#666666" points="206,-20 118.75,-20 118.75,0 206,0 206,-20"/>
<text xml:space="preserve" text-anchor="middle" x="162.38" y="-6.5" font-family="Helvetica,sans-Serif" font-size="10.00">Core/Src/main.c</text>
</a>
</g>
</g>
<!-- Node1&#45;&gt;Node4 -->
<g id="edge9_Node000001_Node000004" class="edge">
<title>Node1&#45;&gt;Node4</title>
<g id="a_edge9_Node000001_Node000004"><a xlink:title=" ">
<path fill="none" stroke="#63b8ff" d="M170.28,-156.73C167.94,-149.08 165.61,-140.23 164.38,-132 158.2,-90.86 160.38,-40.98 161.69,-20.48"/>
<polygon fill="#63b8ff" stroke="#63b8ff" points="166.91,-157.67 173.36,-166.07 173.56,-155.48 166.91,-157.67"/>
</a>
</g>
</g>
<!-- Node5 -->
<g id="Node000005" class="node">
<title>Node5</title>
<g id="a_Node000005"><a xlink:href="ui_8h.html" target="_top" xlink:title="User interface module for menu&#45;driven LCD control.">
<polygon fill="white" stroke="#666666" points="245.5,-132 173.25,-132 173.25,-112 245.5,-112 245.5,-132"/>
<text xml:space="preserve" text-anchor="middle" x="209.38" y="-118.5" font-family="Helvetica,sans-Serif" font-size="10.00">Core/Inc/ui.h</text>
</a>
</g>
</g>
<!-- Node1&#45;&gt;Node5 -->
<g id="edge4_Node000001_Node000005" class="edge">
<title>Node1&#45;&gt;Node5</title>
<g id="a_edge4_Node000001_Node000005"><a xlink:title=" ">
<path fill="none" stroke="#63b8ff" d="M188.71,-157.87C193.86,-149.19 199.71,-139.32 203.86,-132.3"/>
<polygon fill="#63b8ff" stroke="#63b8ff" points="185.81,-155.9 183.72,-166.29 191.83,-159.47 185.81,-155.9"/>
</a>
</g>
</g>
<!-- Node7 -->
<g id="Node000007" class="node">
<title>Node7</title>
<g id="a_Node000007"><a xlink:href="event_8c.html" target="_top" xlink:title="Implementation of event queue for UI event handling.">
<polygon fill="white" stroke="#666666" points="353.5,-132 263.25,-132 263.25,-112 353.5,-112 353.5,-132"/>
<text xml:space="preserve" text-anchor="middle" x="308.38" y="-118.5" font-family="Helvetica,sans-Serif" font-size="10.00">Core/Src/event.c</text>
</a>
</g>
</g>
<!-- Node1&#45;&gt;Node7 -->
<g id="edge8_Node000001_Node000007" class="edge">
<title>Node1&#45;&gt;Node7</title>
<g id="a_edge8_Node000001_Node000007"><a xlink:title=" ">
<path fill="none" stroke="#63b8ff" d="M210.68,-163.27C234.05,-153.64 264.69,-141.01 285.38,-132.48"/>
<polygon fill="#63b8ff" stroke="#63b8ff" points="209.5,-159.97 201.59,-167.02 212.17,-166.44 209.5,-159.97"/>
</a>
</g>
</g>
<!-- Node3 -->
<g id="Node000003" class="node">
<title>Node3</title>
<g id="a_Node000003"><a xlink:href="encoder_8c.html" target="_top" xlink:title="Implementation of rotary encoder driver.">
<polygon fill="white" stroke="#666666" points="100.75,-20 0,-20 0,0 100.75,0 100.75,-20"/>
<text xml:space="preserve" text-anchor="middle" x="50.38" y="-6.5" font-family="Helvetica,sans-Serif" font-size="10.00">Core/Src/encoder.c</text>
</a>
</g>
</g>
<!-- Node2&#45;&gt;Node3 -->
<g id="edge2_Node000002_Node000003" class="edge">
<title>Node2&#45;&gt;Node3</title>
<g id="a_edge2_Node000002_Node000003"><a xlink:title=" ">
<path fill="none" stroke="#63b8ff" d="M60.99,-44.71C58.35,-36.32 55.41,-27.01 53.3,-20.3"/>
<polygon fill="#63b8ff" stroke="#63b8ff" points="57.62,-45.66 63.96,-54.15 64.29,-43.56 57.62,-45.66"/>
</a>
</g>
</g>
<!-- Node2&#45;&gt;Node4 -->
<g id="edge3_Node000002_Node000004" class="edge">
<title>Node2&#45;&gt;Node4</title>
<g id="a_edge3_Node000002_Node000004"><a xlink:title=" ">
<path fill="none" stroke="#63b8ff" d="M93.62,-50.08C110.27,-40.62 131.31,-28.66 145.7,-20.48"/>
<polygon fill="#63b8ff" stroke="#63b8ff" points="92.2,-46.86 85.24,-54.85 95.66,-52.95 92.2,-46.86"/>
</a>
</g>
</g>
<!-- Node5&#45;&gt;Node2 -->
<g id="edge5_Node000005_Node000002" class="edge">
<title>Node5&#45;&gt;Node2</title>
<g id="a_edge5_Node000005_Node000002"><a xlink:title=" ">
<path fill="none" stroke="#63b8ff" d="M173.96,-107.53C148.55,-97.87 114.93,-85.08 92.3,-76.48"/>
<polygon fill="#63b8ff" stroke="#63b8ff" points="172.63,-110.77 183.23,-111.06 175.12,-104.23 172.63,-110.77"/>
</a>
</g>
</g>
<!-- Node5&#45;&gt;Node4 -->
<g id="edge6_Node000005_Node000004" class="edge">
<title>Node5&#45;&gt;Node4</title>
<g id="a_edge6_Node000005_Node000004"><a xlink:title=" ">
<path fill="none" stroke="#63b8ff" d="M200.96,-101.3C190.76,-77.43 173.99,-38.2 166.37,-20.35"/>
<polygon fill="#63b8ff" stroke="#63b8ff" points="197.63,-102.41 204.77,-110.23 204.06,-99.66 197.63,-102.41"/>
</a>
</g>
</g>
<!-- Node6 -->
<g id="Node000006" class="node">
<title>Node6</title>
<g id="a_Node000006"><a xlink:href="ui_8c.html" target="_top" xlink:title="Implementation of menu&#45;driven user interface.">
<polygon fill="white" stroke="#666666" points="285.25,-76 211.5,-76 211.5,-56 285.25,-56 285.25,-76"/>
<text xml:space="preserve" text-anchor="middle" x="248.38" y="-62.5" font-family="Helvetica,sans-Serif" font-size="10.00">Core/Src/ui.c</text>
</a>
</g>
</g>
<!-- Node5&#45;&gt;Node6 -->
<g id="edge7_Node000005_Node000006" class="edge">
<title>Node5&#45;&gt;Node6</title>
<g id="a_edge7_Node000005_Node000006"><a xlink:title=" ">
<path fill="none" stroke="#63b8ff" d="M222.78,-102.44C229.15,-93.62 236.48,-83.47 241.66,-76.3"/>
<polygon fill="#63b8ff" stroke="#63b8ff" points="220.07,-100.21 217.05,-110.37 225.75,-104.31 220.07,-100.21"/>
</a>
</g>
</g>
</g>
</svg>
