<?xml version="1.0" encoding="UTF-8" standalone="no"?>
<!DOCTYPE svg PUBLIC "-//W3C//DTD SVG 1.1//EN"
 "http://www.w3.org/Graphics/SVG/1.1/DTD/svg11.dtd">
<!-- Generated by graphviz version 14.1.2 (0)
 -->
<!-- Title: Core/Src/event.c Pages: 1 -->
<svg width="223pt" height="196pt"
 viewBox="0.00 0.00 223.00 196.00" xmlns="http://www.w3.org/2000/svg" xmlns:xlink="http://www.w3.org/1999/xlink">
<g id="graph0" class="graph" transform="scale(1 1) rotate(0) translate(4 192)">
<title>Core/Src/event.c</title>
<!-- Node1 -->
<g id="Node000001" class="node">
<title>Node1</title>
<g id="a_Node000001"><a xlink:title="Implementation of event queue for UI event handling.">
<polygon fill="#999999" stroke="#666666" points="178.12,-188 87.88,-188 87.88,-168 178.12,-168 178.12,-188"/>
<text xml:space="preserve" text-anchor="middle" x="133" y="-174.5" font-family="Helvetica,sans-Serif" font-size="10.00">Core/Src/event.c</text>
</a>
</g>
</g>
<!-- Node2 -->
<g id="Node000002" class="node">
<title>Node2</title>
<g id="a_Node000002"><a xlink:href="event_8h.html" target="_top" xlink:title="Event queue module for decoupling interrupt handlers from UI processing.">
<polygon fill="white" stroke="#666666" points="105.12,-132 56.88,-132 56.88,-112 105.12,-112 105.12,-132"/>
<text xml:space="preserve" text-anchor="middle" x="81" y="-118.5" font-family="Helvetica,sans-Serif" font-size="10.00">event.h</text>
</a>
</g>
</g>
<!-- Node1&#45;&gt;Node2 -->
<g id="edge1_Node000001_Node000002" class="edge">
<title>Node1&#45;&gt;Node2</title>
<g id="a_edge1_Node000001_Node000002"><a xlink:title=" ">
<path fill="none" stroke="#63b8ff" d="M123.94,-167.59C116.78,-160.16 106.59,-149.58 97.93,-140.58"/>
<polygon fill="#63b8ff" stroke="#63b8ff" points="100.46,-138.16 91,-133.39 95.42,-143.02 100.46,-138.16"/>
</a>
</g>
</g>
<!-- Node5 -->
<g id="Node000005" class="node">
<title>Node5</title>
<g id="a_Node000005"><a xlink:title=" ">
<polygon fill="#e0e0e0" stroke="#999999" points="149.62,-76 104.38,-76 104.38,-56 149.62,-56 149.62,-76"/>
<text xml:space="preserve" text-anchor="middle" x="127" y="-62.5" font-family="Helvetica,sans-Serif" font-size="10.00">stdio.h</text>
</a>
</g>
</g>
<!-- Node1&#45;&gt;Node5 -->
<g id="edge7_Node000001_Node000005" class="edge">
<title>Node1&#45;&gt;Node5</title>
<g id="a_edge7_Node000001_Node000005"><a xlink:title=" ">
<path fill="none" stroke="#63b8ff" d="M132.49,-167.62C131.53,-150.01 129.43,-111.59 128.13,-87.65"/>
<polygon fill="#63b8ff" stroke="#63b8ff" points="131.63,-87.66 127.59,-77.87 124.64,-88.04 131.63,-87.66"/>
</a>
</g>
</g>
<!-- Node6 -->
<g id="Node000006" class="node">
<title>Node6</title>
<g id="a_Node000006"><a xlink:title=" ">
<polygon fill="#e0e0e0" stroke="#999999" points="214.75,-76 167.25,-76 167.25,-56 214.75,-56 214.75,-76"/>
<text xml:space="preserve" text-anchor="middle" x="191" y="-62.5" font-family="Helvetica,sans-Serif" font-size="10.00">stdlib.h</text>
</a>
</g>
</g>
<!-- Node1&#45;&gt;Node6 -->
<g id="edge8_Node000001_Node000006" class="edge">
<title>Node1&#45;&gt;Node6</title>
<g id="a_edge8_Node000001_Node000006"><a xlink:title=" ">
<path fill="none" stroke="#63b8ff" d="M137.95,-167.62C147.4,-149.68 168.24,-110.17 180.8,-86.35"/>
<polygon fill="#63b8ff" stroke="#63b8ff" points="183.79,-88.17 185.36,-77.69 177.6,-84.91 183.79,-88.17"/>
</a>
</g>
</g>
<!-- Node3 -->
<g id="Node000003" class="node">
<title>Node3</title>
<g id="a_Node000003"><a xlink:title=" ">
<polygon fill="#e0e0e0" stroke="#999999" points="88,-20 0,-20 0,0 88,0 88,-20"/>
<text xml:space="preserve" text-anchor="middle" x="44" y="-6.5" font-family="Helvetica,sans-Serif" font-size="10.00">stm32f0xx_hal.h</text>
</a>
</g>
</g>
<!-- Node2&#45;&gt;Node3 -->
<g id="edge2_Node000002_Node000003" class="edge">
<title>Node2&#45;&gt;Node3</title>
<g id="a_edge2_Node000002_Node000003"><a xlink:title=" ">
<path fill="none" stroke="#63b8ff" d="M68.28,-111.52C58.47,-103.35 45.65,-90.59 40,-76 34.49,-61.78 35.9,-44.5 38.46,-31.33"/>
<polygon fill="#63b8ff" stroke="#63b8ff" points="41.85,-32.21 40.74,-21.67 35.04,-30.6 41.85,-32.21"/>
</a>
</g>
</g>
<!-- Node4 -->
<g id="Node000004" class="node">
<title>Node4</title>
<g id="a_Node000004"><a xlink:href="log_8h.html" target="_top" xlink:title="Logging module with configurable log levels and UART output.">
<polygon fill="white" stroke="#666666" points="86.5,-76 49.5,-76 49.5,-56 86.5,-56 86.5,-76"/>
<text xml:space="preserve" text-anchor="middle" x="68" y="-62.5" font-family="Helvetica,sans-Serif" font-size="10.00">log.h</text>
</a>
</g>
</g>
<!-- Node2&#45;&gt;Node4 -->
<g id="edge3_Node000002_Node000004" class="edge">
<title>Node2&#45;&gt;Node4</title>
<g id="a_edge3_Node000002_Node000004"><a xlink:title=" ">
<path fill="none" stroke="#63b8ff" d="M78.74,-111.59C77.13,-104.93 74.92,-95.75 72.92,-87.44"/>
<polygon fill="#63b8ff" stroke="#63b8ff" points="76.34,-86.67 70.59,-77.77 69.53,-88.31 76.34,-86.67"/>
</a>
</g>
</g>
<!-- Node2&#45;&gt;Node5 -->
<g id="edge5_Node000002_Node000005" class="edge">
<title>Node2&#45;&gt;Node5</title>
<g id="a_edge5_Node000002_Node000005"><a xlink:title=" ">
<path fill="none" stroke="#63b8ff" d="M89.01,-111.59C95.28,-104.24 104.17,-93.8 111.78,-84.87"/>
<polygon fill="#63b8ff" stroke="#63b8ff" points="114.28,-87.33 118.1,-77.45 108.95,-82.79 114.28,-87.33"/>
</a>
</g>
</g>
<!-- Node2&#45;&gt;Node6 -->
<g id="edge6_Node000002_Node000006" class="edge">
<title>Node2&#45;&gt;Node6</title>
<g id="a_edge6_Node000002_Node000006"><a xlink:title=" ">
<path fill="none" stroke="#63b8ff" d="M100.16,-111.59C117.09,-103.28 142.05,-91.03 161.52,-81.47"/>
<polygon fill="#63b8ff" stroke="#63b8ff" points="162.9,-84.7 170.33,-77.15 159.81,-78.41 162.9,-84.7"/>
</a>
</g>
</g>
<!-- Node4&#45;&gt;Node3 -->
<g id="edge4_Node000004_Node000003" class="edge">
<title>Node4&#45;&gt;Node3</title>
<g id="a_edge4_Node000004_Node000003"><a xlink:title=" ">
<path fill="none" stroke="#63b8ff" d="M63.82,-55.59C60.76,-48.7 56.49,-39.1 52.7,-30.57"/>
<polygon fill="#63b8ff" stroke="#63b8ff" points="56.01,-29.4 48.75,-21.68 49.61,-32.24 56.01,-29.4"/>
</a>
</g>
</g>
</g>
</svg>
