<?xml version="1.0" encoding="UTF-8" standalone="no"?>
<!DOCTYPE svg PUBLIC "-//W3C//DTD SVG 1.1//EN"
 "http://www.w3.org/Graphics/SVG/1.1/DTD/svg11.dtd">
<!-- Generated by graphviz version 14.1.2 (0)
 -->
<!-- Title: event_enqueue Pages: 1 -->
<svg width="305pt" height="104pt"
 viewBox="0.00 0.00 305.00 104.00" xmlns="http://www.w3.org/2000/svg" xmlns:xlink="http://www.w3.org/1999/xlink">
<g id="graph0" class="graph" transform="scale(1 1) rotate(0) translate(4 100)">
<title>event_enqueue</title>
<!-- Node1 -->
<g id="Node000001" class="node">
<title>Node1</title>
<g id="a_Node000001"><a xlink:title="Add an event to the rear of the queue.">
<polygon fill="#999999" stroke="#666666" points="82,-58 0,-58 0,-38 82,-38 82,-58"/>
<text xml:space="preserve" text-anchor="middle" x="41" y="-44.5" font-family="Helvetica,sans-Serif" font-size="10.00">event_enqueue</text>
</a>
</g>
</g>
<!-- Node2 -->
<g id="Node000002" class="node">
<title>Node2</title>
<g id="a_Node000002"><a xlink:href="event_8c.html#ae5e03ab33fd406568f5f30681b510393" target="_top" xlink:title="Create a new event node with dynamic memory allocation.">
<polygon fill="white" stroke="#666666" points="213.5,-96 118,-96 118,-76 213.5,-76 213.5,-96"/>
<text xml:space="preserve" text-anchor="middle" x="165.75" y="-82.5" font-family="Helvetica,sans-Serif" font-size="10.00">event_createNode</text>
</a>
</g>
</g>
<!-- Node1&#45;&gt;Node2 -->
<g id="edge1_Node000001_Node000002" class="edge">
<title>Node1&#45;&gt;Node2</title>
<g id="a_edge1_Node000001_Node000002"><a xlink:title=" ">
<path fill="none" stroke="#63b8ff" d="M75.87,-58.48C89.55,-62.72 105.54,-67.67 120.15,-72.19"/>
<polygon fill="#63b8ff" stroke="#63b8ff" points="118.96,-75.49 129.55,-75.1 121.03,-68.8 118.96,-75.49"/>
</a>
</g>
</g>
<!-- Node3 -->
<g id="Node000003" class="node">
<title>Node3</title>
<g id="a_Node000003"><a xlink:href="event_8c.html#a9a29143d5146b5140c4fdfbe1009549f" target="_top" xlink:title="Log event type to terminal when event callback is triggered.">
<polygon fill="white" stroke="#666666" points="213.12,-58 118.38,-58 118.38,-38 213.12,-38 213.12,-58"/>
<text xml:space="preserve" text-anchor="middle" x="165.75" y="-44.5" font-family="Helvetica,sans-Serif" font-size="10.00">event_diplay_type</text>
</a>
</g>
</g>
<!-- Node1&#45;&gt;Node3 -->
<g id="edge2_Node000001_Node000003" class="edge">
<title>Node1&#45;&gt;Node3</title>
<g id="a_edge2_Node000001_Node000003"><a xlink:title=" ">
<path fill="none" stroke="#63b8ff" d="M82.19,-48C90.08,-48 98.49,-48 106.82,-48"/>
<polygon fill="#63b8ff" stroke="#63b8ff" points="106.56,-51.5 116.56,-48 106.56,-44.5 106.56,-51.5"/>
</a>
</g>
</g>
<!-- Node5 -->
<g id="Node000005" class="node">
<title>Node5</title>
<g id="a_Node000005"><a xlink:href="event_8c.html#aea88d358a100904366305919eaa2d0ce" target="_top" xlink:title="Check if the event queue is empty.">
<polygon fill="white" stroke="#666666" points="206.38,-20 125.12,-20 125.12,0 206.38,0 206.38,-20"/>
<text xml:space="preserve" text-anchor="middle" x="165.75" y="-6.5" font-family="Helvetica,sans-Serif" font-size="10.00">event_isEmpty</text>
</a>
</g>
</g>
<!-- Node1&#45;&gt;Node5 -->
<g id="edge4_Node000001_Node000005" class="edge">
<title>Node1&#45;&gt;Node5</title>
<g id="a_edge4_Node000001_Node000005"><a xlink:title=" ">
<path fill="none" stroke="#63b8ff" d="M75.87,-37.52C89.55,-33.28 105.54,-28.33 120.15,-23.81"/>
<polygon fill="#63b8ff" stroke="#63b8ff" points="121.03,-27.2 129.55,-20.9 118.96,-20.51 121.03,-27.2"/>
</a>
</g>
</g>
<!-- Node4 -->
<g id="Node000004" class="node">
<title>Node4</title>
<g id="a_Node000004"><a xlink:href="log_8c.html#a19c27922f37e1d81bb9370e65be76554" target="_top" xlink:title="Log a message with specified log level.">
<polygon fill="white" stroke="#666666" points="297,-58 249.5,-58 249.5,-38 297,-38 297,-58"/>
<text xml:space="preserve" text-anchor="middle" x="273.25" y="-44.5" font-family="Helvetica,sans-Serif" font-size="10.00">logMsg</text>
</a>
</g>
</g>
<!-- Node3&#45;&gt;Node4 -->
<g id="edge3_Node000003_Node000004" class="edge">
<title>Node3&#45;&gt;Node4</title>
<g id="a_edge3_Node000003_Node000004"><a xlink:title=" ">
<path fill="none" stroke="#63b8ff" d="M213.33,-48C221.54,-48 229.95,-48 237.76,-48"/>
<polygon fill="#63b8ff" stroke="#63b8ff" points="237.52,-51.5 247.52,-48 237.52,-44.5 237.52,-51.5"/>
</a>
</g>
</g>
</g>
</svg>
