<?xml version="1.0" encoding="UTF-8" standalone="no"?>
<!DOCTYPE svg PUBLIC "-//W3C//DTD SVG 1.1//EN"
 "http://www.w3.org/Graphics/SVG/1.1/DTD/svg11.dtd">
<!-- Generated by graphviz version 14.1.2 (0)
 -->
<!-- Title: heater_on_interupt Pages: 1 -->
<svg width="454pt" height="218pt"
 viewBox="0.00 0.00 454.00 218.00" xmlns="http://www.w3.org/2000/svg" xmlns:xlink="http://www.w3.org/1999/xlink">
<g id="graph0" class="graph" transform="scale(1 1) rotate(0) translate(4 214)">
<title>heater_on_interupt</title>
<!-- Node1 -->
<g id="Node000001" class="node">
<title>Node1</title>
<g id="a_Node000001"><a xlink:title="RTC interrupt handler for temperature sampling and PID.">
<polygon fill="#999999" stroke="#666666" points="96.25,-115 0,-115 0,-95 96.25,-95 96.25,-115"/>
<text xml:space="preserve" text-anchor="middle" x="48.12" y="-101.5" font-family="Helvetica,sans-Serif" font-size="10.00">heater_on_interupt</text>
</a>
</g>
</g>
<!-- Node2 -->
<g id="Node000002" class="node">
<title>Node2</title>
<g id="a_Node000002"><a xlink:href="heater_8c.html#a5e2e3fa0e798944d57a5bcc38822e5a9" target="_top" xlink:title="Calculate mean temperature from sample buffer.">
<polygon fill="white" stroke="#666666" points="261.88,-210 145.38,-210 145.38,-190 261.88,-190 261.88,-210"/>
<text xml:space="preserve" text-anchor="middle" x="203.62" y="-196.5" font-family="Helvetica,sans-Serif" font-size="10.00">heater_calculate_mean</text>
</a>
</g>
</g>
<!-- Node1&#45;&gt;Node2 -->
<g id="edge1_Node000001_Node000002" class="edge">
<title>Node1&#45;&gt;Node2</title>
<g id="a_edge1_Node000001_Node000002"><a xlink:title=" ">
<path fill="none" stroke="#63b8ff" d="M57.44,-115.28C71.25,-131.65 100.54,-163.59 132.25,-181 135.26,-182.65 138.42,-184.17 141.67,-185.56"/>
<polygon fill="#63b8ff" stroke="#63b8ff" points="140.25,-188.76 150.84,-189.04 142.73,-182.22 140.25,-188.76"/>
</a>
</g>
</g>
<!-- Node3 -->
<g id="Node000003" class="node">
<title>Node3</title>
<g id="a_Node000003"><a xlink:href="heater_8c.html#aafa171e3ee132132560f2a851bb2ba7e" target="_top" xlink:title="Calculate temperature slope using linear regression.">
<polygon fill="white" stroke="#666666" points="261.5,-172 145.75,-172 145.75,-152 261.5,-152 261.5,-172"/>
<text xml:space="preserve" text-anchor="middle" x="203.62" y="-158.5" font-family="Helvetica,sans-Serif" font-size="10.00">heater_calculate_slope</text>
</a>
</g>
</g>
<!-- Node1&#45;&gt;Node3 -->
<g id="edge2_Node000001_Node000003" class="edge">
<title>Node1&#45;&gt;Node3</title>
<g id="a_edge2_Node000001_Node000003"><a xlink:title=" ">
<path fill="none" stroke="#63b8ff" d="M69.57,-115.5C86.16,-123.73 110.31,-135.08 132.25,-143 137.55,-144.91 143.13,-146.73 148.73,-148.43"/>
<polygon fill="#63b8ff" stroke="#63b8ff" points="147.44,-151.7 158.02,-151.14 149.4,-144.98 147.44,-151.7"/>
</a>
</g>
</g>
<!-- Node4 -->
<g id="Node000004" class="node">
<title>Node4</title>
<g id="a_Node000004"><a xlink:href="heater_8c.html#a3ebedbe9a7aef79d70fb5e26f0b10abd" target="_top" xlink:title="Print temperature reading with RTC timestamp.">
<polygon fill="white" stroke="#666666" points="248,-134 159.25,-134 159.25,-114 248,-114 248,-134"/>
<text xml:space="preserve" text-anchor="middle" x="203.62" y="-120.5" font-family="Helvetica,sans-Serif" font-size="10.00">heater_print_test</text>
</a>
</g>
</g>
<!-- Node1&#45;&gt;Node4 -->
<g id="edge3_Node000001_Node000004" class="edge">
<title>Node1&#45;&gt;Node4</title>
<g id="a_edge3_Node000001_Node000004"><a xlink:title=" ">
<path fill="none" stroke="#63b8ff" d="M96.43,-110.86C112.61,-112.86 130.84,-115.11 147.57,-117.19"/>
<polygon fill="#63b8ff" stroke="#63b8ff" points="147.02,-120.64 157.37,-118.4 147.88,-113.7 147.02,-120.64"/>
</a>
</g>
</g>
<!-- Node5 -->
<g id="Node000005" class="node">
<title>Node5</title>
<g id="a_Node000005"><a xlink:href="heater_8c.html#a6d9ebb2503909ecffc49e9097c9a61a0" target="_top" xlink:title="Clear temperature sample buffer.">
<polygon fill="white" stroke="#666666" points="275,-96 132.25,-96 132.25,-76 275,-76 275,-96"/>
<text xml:space="preserve" text-anchor="middle" x="203.62" y="-82.5" font-family="Helvetica,sans-Serif" font-size="10.00">heater_set_temperature_zero</text>
</a>
</g>
</g>
<!-- Node1&#45;&gt;Node5 -->
<g id="edge4_Node000001_Node000005" class="edge">
<title>Node1&#45;&gt;Node5</title>
<g id="a_edge4_Node000001_Node000005"><a xlink:title=" ">
<path fill="none" stroke="#63b8ff" d="M96.43,-99.14C104.12,-98.19 112.28,-97.18 120.52,-96.16"/>
<polygon fill="#63b8ff" stroke="#63b8ff" points="120.77,-99.66 130.27,-94.96 119.91,-92.71 120.77,-99.66"/>
</a>
</g>
</g>
<!-- Node6 -->
<g id="Node000006" class="node">
<title>Node6</title>
<g id="a_Node000006"><a xlink:href="MAX31855_8c.html#a4a6509f271e451fd9f7dcf2f11755108" target="_top" xlink:title="Get thermocouple temperature as float32.">
<polygon fill="white" stroke="#666666" points="266.38,-58 140.88,-58 140.88,-38 266.38,-38 266.38,-58"/>
<text xml:space="preserve" text-anchor="middle" x="203.62" y="-44.5" font-family="Helvetica,sans-Serif" font-size="10.00">max31855_get_temp_f32</text>
</a>
</g>
</g>
<!-- Node1&#45;&gt;Node6 -->
<g id="edge5_Node000001_Node000006" class="edge">
<title>Node1&#45;&gt;Node6</title>
<g id="a_edge5_Node000001_Node000006"><a xlink:title=" ">
<path fill="none" stroke="#63b8ff" d="M69.57,-94.5C86.16,-86.27 110.31,-74.92 132.25,-67 137.55,-65.09 143.13,-63.27 148.73,-61.57"/>
<polygon fill="#63b8ff" stroke="#63b8ff" points="149.4,-65.02 158.02,-58.86 147.44,-58.3 149.4,-65.02"/>
</a>
</g>
</g>
<!-- Node9 -->
<g id="Node000009" class="node">
<title>Node9</title>
<g id="a_Node000009"><a xlink:href="MAX31855_8c.html#a6cd53d20c2e59cce375ec338cd52f6ad" target="_top" xlink:title="Read data from MAX31855 via SPI.">
<polygon fill="white" stroke="#666666" points="258.12,-20 149.12,-20 149.12,0 258.12,0 258.12,-20"/>
<text xml:space="preserve" text-anchor="middle" x="203.62" y="-6.5" font-family="Helvetica,sans-Serif" font-size="10.00">max31855_read_data</text>
</a>
</g>
</g>
<!-- Node1&#45;&gt;Node9 -->
<g id="edge8_Node000001_Node000009" class="edge">
<title>Node1&#45;&gt;Node9</title>
<g id="a_edge8_Node000001_Node000009"><a xlink:title=" ">
<path fill="none" stroke="#63b8ff" d="M57.44,-94.72C71.25,-78.35 100.54,-46.41 132.25,-29 135.26,-27.35 138.42,-25.83 141.67,-24.44"/>
<polygon fill="#63b8ff" stroke="#63b8ff" points="142.73,-27.78 150.84,-20.96 140.25,-21.24 142.73,-27.78"/>
</a>
</g>
</g>
<!-- Node7 -->
<g id="Node000007" class="node">
<title>Node7</title>
<g id="a_Node000007"><a xlink:href="MAX31855_8c.html#a49efeafd115179b8de90f96c540b7a94" target="_top" xlink:title="Get thermocouple temperature sign.">
<polygon fill="white" stroke="#666666" points="443.25,-96 313.25,-96 313.25,-76 443.25,-76 443.25,-96"/>
<text xml:space="preserve" text-anchor="middle" x="378.25" y="-82.5" font-family="Helvetica,sans-Serif" font-size="10.00">max31855_get_temp_sign</text>
</a>
</g>
</g>
<!-- Node6&#45;&gt;Node7 -->
<g id="edge6_Node000006_Node000007" class="edge">
<title>Node6&#45;&gt;Node7</title>
<g id="a_edge6_Node000006_Node000007"><a xlink:title=" ">
<path fill="none" stroke="#63b8ff" d="M252.25,-58.48C272.82,-63.01 297.08,-68.35 318.73,-73.12"/>
<polygon fill="#63b8ff" stroke="#63b8ff" points="317.78,-76.49 328.3,-75.22 319.29,-69.66 317.78,-76.49"/>
</a>
</g>
</g>
<!-- Node8 -->
<g id="Node000008" class="node">
<title>Node8</title>
<g id="a_Node000008"><a xlink:href="MAX31855_8c.html#a48789df725799c99959eccdc8f9012a3" target="_top" xlink:title="Get thermocouple temperature integer value.">
<polygon fill="white" stroke="#666666" points="440.62,-58 315.88,-58 315.88,-38 440.62,-38 440.62,-58"/>
<text xml:space="preserve" text-anchor="middle" x="378.25" y="-44.5" font-family="Helvetica,sans-Serif" font-size="10.00">max31855_get_temp_val</text>
</a>
</g>
</g>
<!-- Node6&#45;&gt;Node8 -->
<g id="edge7_Node000006_Node000008" class="edge">
<title>Node6&#45;&gt;Node8</title>
<g id="a_edge7_Node000006_Node000008"><a xlink:title=" ">
<path fill="none" stroke="#63b8ff" d="M266.46,-48C278.68,-48 291.62,-48 304.17,-48"/>
<polygon fill="#63b8ff" stroke="#63b8ff" points="304.04,-51.5 314.04,-48 304.04,-44.5 304.04,-51.5"/>
</a>
</g>
</g>
<!-- Node10 -->
<g id="Node000010" class="node">
<title>Node10</title>
<g id="a_Node000010"><a xlink:href="MAX31855_8c.html#aae5583f844a0b1863d8a3777ba0f22aa" target="_top" xlink:title="Parse raw SPI data into payload structure fields.">
<polygon fill="white" stroke="#666666" points="445.5,-20 311,-20 311,0 445.5,0 445.5,-20"/>
<text xml:space="preserve" text-anchor="middle" x="378.25" y="-6.5" font-family="Helvetica,sans-Serif" font-size="10.00">max31855_update_payload</text>
</a>
</g>
</g>
<!-- Node9&#45;&gt;Node10 -->
<g id="edge9_Node000009_Node000010" class="edge">
<title>Node9&#45;&gt;Node10</title>
<g id="a_edge9_Node000009_Node000010"><a xlink:title=" ">
<path fill="none" stroke="#63b8ff" d="M258.3,-10C271.21,-10 285.27,-10 299.05,-10"/>
<polygon fill="#63b8ff" stroke="#63b8ff" points="299.01,-13.5 309.01,-10 299.01,-6.5 299.01,-13.5"/>
</a>
</g>
</g>
</g>
</svg>
