<?xml version="1.0" encoding="UTF-8" standalone="no"?>
<!DOCTYPE svg PUBLIC "-//W3C//DTD SVG 1.1//EN"
 "http://www.w3.org/Graphics/SVG/1.1/DTD/svg11.dtd">
<!-- Generated by graphviz version 14.1.2 (0)
 -->
<!-- Title: heater_set_state Pages: 1 -->
<svg width="549pt" height="142pt"
 viewBox="0.00 0.00 549.00 142.00" xmlns="http://www.w3.org/2000/svg" xmlns:xlink="http://www.w3.org/1999/xlink">
<g id="graph0" class="graph" transform="scale(1 1) rotate(0) translate(4 138)">
<title>heater_set_state</title>
<!-- Node1 -->
<g id="Node000001" class="node">
<title>Node1</title>
<g id="a_Node000001"><a xlink:title="Apply the configured heater state to GPIO outputs.">
<polygon fill="#999999" stroke="#666666" points="88.75,-96 0,-96 0,-76 88.75,-76 88.75,-96"/>
<text xml:space="preserve" text-anchor="middle" x="44.38" y="-82.5" font-family="Helvetica,sans-Serif" font-size="10.00">heater_set_state</text>
</a>
</g>
</g>
<!-- Node2 -->
<g id="Node000002" class="node">
<title>Node2</title>
<g id="a_Node000002"><a xlink:href="heater_8c.html#a744433fcabe6fce4a484100cb21dbc00" target="_top" xlink:title="Check door state and pause/resume heating accordingly.">
<polygon fill="white" stroke="#666666" points="250.25,-124 124.75,-124 124.75,-104 250.25,-104 250.25,-124"/>
<text xml:space="preserve" text-anchor="middle" x="187.5" y="-110.5" font-family="Helvetica,sans-Serif" font-size="10.00">heater_check_door_state</text>
</a>
</g>
</g>
<!-- Node1&#45;&gt;Node2 -->
<g id="edge1_Node000001_Node000002" class="edge">
<title>Node1&#45;&gt;Node2</title>
<g id="a_edge1_Node000001_Node000002"><a xlink:title=" ">
<path fill="none" stroke="#63b8ff" d="M88.87,-94.63C99.5,-96.74 111.09,-99.04 122.46,-101.29"/>
<polygon fill="#63b8ff" stroke="#63b8ff" points="121.73,-104.72 132.22,-103.23 123.1,-97.85 121.73,-104.72"/>
</a>
</g>
</g>
<!-- Node4 -->
<g id="Node000004" class="node">
<title>Node4</title>
<g id="a_Node000004"><a xlink:href="heater_8c.html#a6d5286ce557080170ed8c1855deb2bd5" target="_top" xlink:title="Apply configured state to a single coil.">
<polygon fill="white" stroke="#666666" points="242,-77 133,-77 133,-57 242,-57 242,-77"/>
<text xml:space="preserve" text-anchor="middle" x="187.5" y="-63.5" font-family="Helvetica,sans-Serif" font-size="10.00">heater_set_coil_state</text>
</a>
</g>
</g>
<!-- Node1&#45;&gt;Node4 -->
<g id="edge3_Node000001_Node000004" class="edge">
<title>Node1&#45;&gt;Node4</title>
<g id="a_edge3_Node000001_Node000004"><a xlink:title=" ">
<path fill="none" stroke="#63b8ff" d="M88.87,-80.14C99.15,-78.76 110.33,-77.26 121.33,-75.77"/>
<polygon fill="#63b8ff" stroke="#63b8ff" points="121.75,-79.25 131.19,-74.45 120.82,-72.31 121.75,-79.25"/>
</a>
</g>
</g>
<!-- Node3 -->
<g id="Node000003" class="node">
<title>Node3</title>
<g id="a_Node000003"><a xlink:href="heater_8c.html#aa845617288d221752fd94dbb011b564a" target="_top" xlink:title="Set the heater power level (0&#45;6).">
<polygon fill="white" stroke="#666666" points="391.88,-134 304.62,-134 304.62,-114 391.88,-114 391.88,-134"/>
<text xml:space="preserve" text-anchor="middle" x="348.25" y="-120.5" font-family="Helvetica,sans-Serif" font-size="10.00">heater_set_level</text>
</a>
</g>
</g>
<!-- Node2&#45;&gt;Node3 -->
<g id="edge2_Node000002_Node000003" class="edge">
<title>Node2&#45;&gt;Node3</title>
<g id="a_edge2_Node000002_Node000003"><a xlink:title=" ">
<path fill="none" stroke="#63b8ff" d="M250.33,-117.89C264.48,-118.79 279.41,-119.73 293.2,-120.6"/>
<polygon fill="#63b8ff" stroke="#63b8ff" points="292.76,-124.07 302.96,-121.21 293.2,-117.09 292.76,-124.07"/>
</a>
</g>
</g>
<!-- Node5 -->
<g id="Node000005" class="node">
<title>Node5</title>
<g id="a_Node000005"><a xlink:href="heater_8c.html#abd981657b41a08c0fca6d043e71f9fe1" target="_top" xlink:title="Set coil GPIO pin low (turn off).">
<polygon fill="white" stroke="#666666" points="397.12,-96 299.38,-96 299.38,-76 397.12,-76 397.12,-96"/>
<text xml:space="preserve" text-anchor="middle" x="348.25" y="-82.5" font-family="Helvetica,sans-Serif" font-size="10.00">heater_set_coil_off</text>
</a>
</g>
</g>
<!-- Node4&#45;&gt;Node5 -->
<g id="edge4_Node000004_Node000005" class="edge">
<title>Node4&#45;&gt;Node5</title>
<g id="a_edge4_Node000004_Node000005"><a xlink:title=" ">
<path fill="none" stroke="#63b8ff" d="M242.25,-73.43C256.87,-75.18 272.79,-77.09 287.71,-78.87"/>
<polygon fill="#63b8ff" stroke="#63b8ff" points="287.04,-82.32 297.39,-80.03 287.88,-75.37 287.04,-82.32"/>
</a>
</g>
</g>
<!-- Node6 -->
<g id="Node000006" class="node">
<title>Node6</title>
<g id="a_Node000006"><a xlink:href="heater_8c.html#a7b55ee7ff070b92958c6ce66d74a3c6b" target="_top" xlink:title="Set coil GPIO pin high (turn on).">
<polygon fill="white" stroke="#666666" points="397.12,-58 299.38,-58 299.38,-38 397.12,-38 397.12,-58"/>
<text xml:space="preserve" text-anchor="middle" x="348.25" y="-44.5" font-family="Helvetica,sans-Serif" font-size="10.00">heater_set_coil_on</text>
</a>
</g>
</g>
<!-- Node4&#45;&gt;Node6 -->
<g id="edge5_Node000004_Node000006" class="edge">
<title>Node4&#45;&gt;Node6</title>
<g id="a_edge5_Node000004_Node000006"><a xlink:title=" ">
<path fill="none" stroke="#63b8ff" d="M242.25,-60.57C256.87,-58.82 272.79,-56.91 287.71,-55.13"/>
<polygon fill="#63b8ff" stroke="#63b8ff" points="287.88,-58.63 297.39,-53.97 287.04,-51.68 287.88,-58.63"/>
</a>
</g>
</g>
<!-- Node7 -->
<g id="Node000007" class="node">
<title>Node7</title>
<g id="a_Node000007"><a xlink:href="heater_8c.html#af1591585fd2062bd24306e39d4db5596" target="_top" xlink:title="Update PWM state for a coil.">
<polygon fill="white" stroke="#666666" points="410.25,-20 286.25,-20 286.25,0 410.25,0 410.25,-20"/>
<text xml:space="preserve" text-anchor="middle" x="348.25" y="-6.5" font-family="Helvetica,sans-Serif" font-size="10.00">heater_update_pwm_coil</text>
</a>
</g>
</g>
<!-- Node4&#45;&gt;Node7 -->
<g id="edge6_Node000004_Node000007" class="edge">
<title>Node4&#45;&gt;Node7</title>
<g id="a_edge6_Node000004_Node000007"><a xlink:title=" ">
<path fill="none" stroke="#63b8ff" d="M214.05,-56.51C233.67,-48.6 261.5,-37.65 286.25,-29 291.22,-27.26 296.45,-25.51 301.67,-23.82"/>
<polygon fill="#63b8ff" stroke="#63b8ff" points="302.37,-27.27 310.83,-20.9 300.24,-20.6 302.37,-27.27"/>
</a>
</g>
</g>
<!-- Node8 -->
<g id="Node000008" class="node">
<title>Node8</title>
<g id="a_Node000008"><a xlink:href="heater_8c.html#ac4a6b221323e72ff20c2a96b8c51b9ac" target="_top" xlink:title="Toggle coil GPIO pin state.">
<polygon fill="white" stroke="#666666" points="541,-20 446.25,-20 446.25,0 541,0 541,-20"/>
<text xml:space="preserve" text-anchor="middle" x="493.62" y="-6.5" font-family="Helvetica,sans-Serif" font-size="10.00">heater_toggle_coil</text>
</a>
</g>
</g>
<!-- Node7&#45;&gt;Node8 -->
<g id="edge7_Node000007_Node000008" class="edge">
<title>Node7&#45;&gt;Node8</title>
<g id="a_edge7_Node000007_Node000008"><a xlink:title=" ">
<path fill="none" stroke="#63b8ff" d="M410.47,-10C418.45,-10 426.6,-10 434.53,-10"/>
<polygon fill="#63b8ff" stroke="#63b8ff" points="434.41,-13.5 444.41,-10 434.41,-6.5 434.41,-13.5"/>
</a>
</g>
</g>
</g>
</svg>
