<?xml version="1.0" encoding="UTF-8" standalone="no"?>
<!DOCTYPE svg PUBLIC "-//W3C//DTD SVG 1.1//EN"
 "http://www.w3.org/Graphics/SVG/1.1/DTD/svg11.dtd">
<!-- Generated by graphviz version 14.1.2 (0)
 -->
<!-- Title: Core/Src/heater.c Pages: 1 -->
<svg width="292pt" height="252pt"
 viewBox="0.00 0.00 292.00 252.00" xmlns="http://www.w3.org/2000/svg" xmlns:xlink="http://www.w3.org/1999/xlink">

<svg id="main" version="1.1" xmlns="http://www.w3.org/2000/svg" xmlns:xlink="http://www.w3.org/1999/xlink" xml:space="preserve">

<style type="text/css"><![CDATA[
.node, .edge {opacity: 0.7;}
.node.selected, .edge.selected {opacity: 1;}
.edge:hover path { stroke: red; }
.edge:hover polygon { stroke: red; fill: red; }
]]></style>
<script type="application/ecmascript" xlink:href="svg.min.js"/>
<svg id="graph" class="graph">
<g id="graph0" class="graph" transform="scale(1 1) rotate(0) translate(4 248)">
<title>Core/Src/heater.c</title>
<!-- Node1 -->
<g id="Node000001" class="node">
<title>Node1</title>
<g id="a_Node000001"><a xlink:title="Implementation of heater control for kiln heating coils.">
<polygon fill="#999999" stroke="#666666" points="190.25,-244 97,-244 97,-224 190.25,-224 190.25,-244"/>
<text xml:space="preserve" text-anchor="middle" x="143.62" y="-230.5" font-family="Helvetica,sans-Serif" font-size="10.00">Core/Src/heater.c</text>
</a>
</g>
</g>
<!-- Node2 -->
<g id="Node000002" class="node">
<title>Node2</title>
<g id="a_Node000002"><a xlink:href="heater_8h.html" target="_top" xlink:title="Heater control module for kiln heating coils.">
<polygon fill="white" stroke="#666666" points="169.25,-188 118,-188 118,-168 169.25,-168 169.25,-188"/>
<text xml:space="preserve" text-anchor="middle" x="143.62" y="-174.5" font-family="Helvetica,sans-Serif" font-size="10.00">heater.h</text>
</a>
</g>
</g>
<!-- Node1&#45;&gt;Node2 -->
<g id="edge1_Node000001_Node000002" class="edge">
<title>Node1&#45;&gt;Node2</title>
<g id="a_edge1_Node000001_Node000002"><a xlink:title=" ">
<path fill="none" stroke="#63b8ff" d="M143.62,-223.59C143.62,-217.01 143.62,-207.96 143.62,-199.73"/>
<polygon fill="#63b8ff" stroke="#63b8ff" points="147.13,-199.81 143.63,-189.81 140.13,-199.81 147.13,-199.81"/>
</a>
</g>
</g>
<!-- Node3 -->
<g id="Node000003" class="node">
<title>Node3</title>
<g id="a_Node000003"><a xlink:title=" ">
<polygon fill="#e0e0e0" stroke="#999999" points="45.25,-132 0,-132 0,-112 45.25,-112 45.25,-132"/>
<text xml:space="preserve" text-anchor="middle" x="22.62" y="-118.5" font-family="Helvetica,sans-Serif" font-size="10.00">stdio.h</text>
</a>
</g>
</g>
<!-- Node2&#45;&gt;Node3 -->
<g id="edge2_Node000002_Node000003" class="edge">
<title>Node2&#45;&gt;Node3</title>
<g id="a_edge2_Node000002_Node000003"><a xlink:title=" ">
<path fill="none" stroke="#63b8ff" d="M122.55,-167.59C103.67,-159.17 75.71,-146.69 54.16,-137.07"/>
<polygon fill="#63b8ff" stroke="#63b8ff" points="55.81,-133.98 45.25,-133.1 52.95,-140.37 55.81,-133.98"/>
</a>
</g>
</g>
<!-- Node4 -->
<g id="Node000004" class="node">
<title>Node4</title>
<g id="a_Node000004"><a xlink:href="main_8h.html" target="_top" xlink:title=": Header for main.c file. This file contains the common defines of the application.">
<polygon fill="white" stroke="#666666" points="147.25,-76 102,-76 102,-56 147.25,-56 147.25,-76"/>
<text xml:space="preserve" text-anchor="middle" x="124.62" y="-62.5" font-family="Helvetica,sans-Serif" font-size="10.00">main.h</text>
</a>
</g>
</g>
<!-- Node2&#45;&gt;Node4 -->
<g id="edge3_Node000002_Node000004" class="edge">
<title>Node2&#45;&gt;Node4</title>
<g id="a_edge3_Node000002_Node000004"><a xlink:title=" ">
<path fill="none" stroke="#63b8ff" d="M140.42,-167.82C137.4,-158.81 133.01,-144.63 130.62,-132 127.85,-117.3 126.34,-100.48 125.53,-87.63"/>
<polygon fill="#63b8ff" stroke="#63b8ff" points="129.04,-87.65 125.01,-77.85 122.05,-88.02 129.04,-87.65"/>
</a>
</g>
</g>
<!-- Node5 -->
<g id="Node000005" class="node">
<title>Node5</title>
<g id="a_Node000005"><a xlink:title=" ">
<polygon fill="#e0e0e0" stroke="#999999" points="193.62,-20 105.62,-20 105.62,0 193.62,0 193.62,-20"/>
<text xml:space="preserve" text-anchor="middle" x="149.62" y="-6.5" font-family="Helvetica,sans-Serif" font-size="10.00">stm32f0xx_hal.h</text>
</a>
</g>
</g>
<!-- Node2&#45;&gt;Node5 -->
<g id="edge7_Node000002_Node000005" class="edge">
<title>Node2&#45;&gt;Node5</title>
<g id="a_edge7_Node000002_Node000005"><a xlink:title=" ">
<path fill="none" stroke="#63b8ff" d="M169.34,-172.47C194.23,-166.87 231.62,-155.11 255.62,-132 275.26,-113.09 274.94,-102.66 280.62,-76 282.48,-67.31 285.79,-63.23 280.62,-56 263.43,-31.92 232.5,-20.59 205.01,-15.32"/>
<polygon fill="#63b8ff" stroke="#63b8ff" points="205.82,-11.9 195.39,-13.72 204.68,-18.81 205.82,-11.9"/>
</a>
</g>
</g>
<!-- Node6 -->
<g id="Node000006" class="node">
<title>Node6</title>
<g id="a_Node000006"><a xlink:href="log_8h.html" target="_top" xlink:title="Logging module with configurable log levels and UART output.">
<polygon fill="white" stroke="#666666" points="84.12,-76 47.12,-76 47.12,-56 84.12,-56 84.12,-76"/>
<text xml:space="preserve" text-anchor="middle" x="65.62" y="-62.5" font-family="Helvetica,sans-Serif" font-size="10.00">log.h</text>
</a>
</g>
</g>
<!-- Node2&#45;&gt;Node6 -->
<g id="edge5_Node000002_Node000006" class="edge">
<title>Node2&#45;&gt;Node6</title>
<g id="a_edge5_Node000002_Node000006"><a xlink:title=" ">
<path fill="none" stroke="#63b8ff" d="M136.97,-167.62C124.14,-149.52 95.73,-109.45 78.89,-85.7"/>
<polygon fill="#63b8ff" stroke="#63b8ff" points="81.77,-83.72 73.13,-77.59 76.06,-87.77 81.77,-83.72"/>
</a>
</g>
</g>
<!-- Node7 -->
<g id="Node000007" class="node">
<title>Node7</title>
<g id="a_Node000007"><a xlink:title=" ">
<polygon fill="#e0e0e0" stroke="#999999" points="271.5,-76 203.75,-76 203.75,-56 271.5,-56 271.5,-76"/>
<text xml:space="preserve" text-anchor="middle" x="237.62" y="-62.5" font-family="Helvetica,sans-Serif" font-size="10.00">arm_math.h</text>
</a>
</g>
</g>
<!-- Node2&#45;&gt;Node7 -->
<g id="edge8_Node000002_Node000007" class="edge">
<title>Node2&#45;&gt;Node7</title>
<g id="a_edge8_Node000002_Node000007"><a xlink:title=" ">
<path fill="none" stroke="#63b8ff" d="M169.69,-172.57C192.27,-167.21 223.6,-155.75 238.62,-132 246.94,-118.86 246.01,-101.03 243.39,-87.37"/>
<polygon fill="#63b8ff" stroke="#63b8ff" points="246.81,-86.62 241.06,-77.72 240,-88.26 246.81,-86.62"/>
</a>
</g>
</g>
<!-- Node8 -->
<g id="Node000008" class="node">
<title>Node8</title>
<g id="a_Node000008"><a xlink:href="MAX31855_8h.html" target="_top" xlink:title="MAX31855 thermocouple&#45;to&#45;digital converter driver.">
<polygon fill="white" stroke="#666666" points="211.75,-132 139.5,-132 139.5,-112 211.75,-112 211.75,-132"/>
<text xml:space="preserve" text-anchor="middle" x="175.62" y="-118.5" font-family="Helvetica,sans-Serif" font-size="10.00">MAX31855.h</text>
</a>
</g>
</g>
<!-- Node2&#45;&gt;Node8 -->
<g id="edge9_Node000002_Node000008" class="edge">
<title>Node2&#45;&gt;Node8</title>
<g id="a_edge9_Node000002_Node000008"><a xlink:title=" ">
<path fill="none" stroke="#63b8ff" d="M149.2,-167.59C153.37,-160.55 159.23,-150.67 164.37,-142"/>
<polygon fill="#63b8ff" stroke="#63b8ff" points="167.26,-143.99 169.34,-133.6 161.23,-140.42 167.26,-143.99"/>
</a>
</g>
</g>
<!-- Node4&#45;&gt;Node5 -->
<g id="edge4_Node000004_Node000005" class="edge">
<title>Node4&#45;&gt;Node5</title>
<g id="a_edge4_Node000004_Node000005"><a xlink:title=" ">
<path fill="none" stroke="#63b8ff" d="M128.98,-55.59C132.17,-48.7 136.61,-39.1 140.56,-30.57"/>
<polygon fill="#63b8ff" stroke="#63b8ff" points="143.66,-32.22 144.68,-21.67 137.31,-29.28 143.66,-32.22"/>
</a>
</g>
</g>
<!-- Node6&#45;&gt;Node5 -->
<g id="edge6_Node000006_Node000005" class="edge">
<title>Node6&#45;&gt;Node5</title>
<g id="a_edge6_Node000006_Node000005"><a xlink:title=" ">
<path fill="none" stroke="#63b8ff" d="M80.26,-55.59C92.71,-47.59 110.84,-35.93 125.45,-26.54"/>
<polygon fill="#63b8ff" stroke="#63b8ff" points="127.09,-29.65 133.61,-21.3 123.3,-23.76 127.09,-29.65"/>
</a>
</g>
</g>
<!-- Node8&#45;&gt;Node4 -->
<g id="edge11_Node000008_Node000004" class="edge">
<title>Node8&#45;&gt;Node4</title>
<g id="a_edge11_Node000008_Node000004"><a xlink:title=" ">
<path fill="none" stroke="#63b8ff" d="M166.74,-111.59C159.72,-104.16 149.72,-93.58 141.23,-84.58"/>
<polygon fill="#63b8ff" stroke="#63b8ff" points="143.86,-82.27 134.45,-77.4 138.77,-87.07 143.86,-82.27"/>
</a>
</g>
</g>
<!-- Node8&#45;&gt;Node5 -->
<g id="edge10_Node000008_Node000005" class="edge">
<title>Node8&#45;&gt;Node5</title>
<g id="a_edge10_Node000008_Node000005"><a xlink:title=" ">
<path fill="none" stroke="#63b8ff" d="M173.41,-111.62C169.23,-93.92 160.08,-55.24 154.43,-31.32"/>
<polygon fill="#63b8ff" stroke="#63b8ff" points="157.89,-30.75 152.18,-21.83 151.08,-32.36 157.89,-30.75"/>
</a>
</g>
</g>
<!-- Node8&#45;&gt;Node7 -->
<g id="edge12_Node000008_Node000007" class="edge">
<title>Node8&#45;&gt;Node7</title>
<g id="a_edge12_Node000008_Node000007"><a xlink:title=" ">
<path fill="none" stroke="#63b8ff" d="M186.42,-111.59C195.23,-103.93 207.88,-92.91 218.4,-83.75"/>
<polygon fill="#63b8ff" stroke="#63b8ff" points="220.57,-86.5 225.81,-77.29 215.97,-81.22 220.57,-86.5"/>
</a>
</g>
</g>
<!-- Node8&#45;&gt;Node8 -->
<g id="edge13_Node000008_Node000008" class="edge">
<title>Node8&#45;&gt;Node8</title>
<g id="a_edge13_Node000008_Node000008"><a xlink:title=" ">
<path fill="none" stroke="#63b8ff" d="M212.05,-132.44C222.08,-131.93 229.75,-128.45 229.75,-122 229.75,-118.27 227.19,-115.53 223.09,-113.79"/>
<polygon fill="#63b8ff" stroke="#63b8ff" points="224.03,-110.41 213.54,-111.86 222.65,-117.27 224.03,-110.41"/>
</a>
</g>
</g>
</g>
</svg>
</svg>

<style type='text/css'>
<![CDATA[
[data-mouse-over-selected='false'] { opacity: 0.7; }
[data-mouse-over-selected='true']  { opacity: 1.0; }
]]>
</style>
<script type="application/ecmascript"><![CDATA[
document.addEventListener('DOMContentLoaded', (event) => {
  highlightEdges();
  highlightAdjacentNodes();
});
]]></script>
</svg>
