<?xml version="1.0" encoding="UTF-8" standalone="no"?>
<!DOCTYPE svg PUBLIC "-//W3C//DTD SVG 1.1//EN"
 "http://www.w3.org/Graphics/SVG/1.1/DTD/svg11.dtd">
<!-- Generated by graphviz version 14.1.2 (0)
 -->
<!-- Title: heater_set_level Pages: 1 -->
<svg width="554pt" height="104pt"
 viewBox="0.00 0.00 554.00 104.00" xmlns="http://www.w3.org/2000/svg" xmlns:xlink="http://www.w3.org/1999/xlink">
<g id="graph0" class="graph" transform="scale(1 1) rotate(0) translate(4 100)">
<title>heater_set_level</title>
<!-- Node1 -->
<g id="Node000001" class="node">
<title>Node1</title>
<g id="a_Node000001"><a xlink:title="Set the heater power level.">
<polygon fill="#999999" stroke="#666666" points="546.25,-58 459,-58 459,-38 546.25,-38 546.25,-58"/>
<text xml:space="preserve" text-anchor="middle" x="502.62" y="-44.5" font-family="Helvetica,sans-Serif" font-size="10.00">heater_set_level</text>
</a>
</g>
</g>
<!-- Node2 -->
<g id="Node000002" class="node">
<title>Node2</title>
<g id="a_Node000002"><a xlink:href="heater_8c.html#a744433fcabe6fce4a484100cb21dbc00" target="_top" xlink:title="Check door state and pause/resume heating accordingly.">
<polygon fill="white" stroke="#666666" points="423,-96 297.5,-96 297.5,-76 423,-76 423,-96"/>
<text xml:space="preserve" text-anchor="middle" x="360.25" y="-82.5" font-family="Helvetica,sans-Serif" font-size="10.00">heater_check_door_state</text>
</a>
</g>
</g>
<!-- Node1&#45;&gt;Node2 -->
<g id="edge1_Node000001_Node000002" class="edge">
<title>Node1&#45;&gt;Node2</title>
<g id="a_edge1_Node000001_Node000002"><a xlink:title=" ">
<path fill="none" stroke="#63b8ff" d="M451.96,-61.45C434.84,-66.08 415.95,-71.19 399.85,-75.55"/>
<polygon fill="#63b8ff" stroke="#63b8ff" points="452.7,-64.87 461.43,-58.88 450.87,-58.11 452.7,-64.87"/>
</a>
</g>
</g>
<!-- Node5 -->
<g id="Node000005" class="node">
<title>Node5</title>
<g id="a_Node000005"><a xlink:href="main_8c.html#a840291bc02cba5474a4cb46a9b9566fe" target="_top" xlink:title="The application entry point.">
<polygon fill="white" stroke="#666666" points="86.88,-58 49.88,-58 49.88,-38 86.88,-38 86.88,-58"/>
<text xml:space="preserve" text-anchor="middle" x="68.38" y="-44.5" font-family="Helvetica,sans-Serif" font-size="10.00">main</text>
</a>
</g>
</g>
<!-- Node1&#45;&gt;Node5 -->
<g id="edge6_Node000001_Node000005" class="edge">
<title>Node1&#45;&gt;Node5</title>
<g id="a_edge6_Node000001_Node000005"><a xlink:title=" ">
<path fill="none" stroke="#63b8ff" d="M447.19,-48C349.34,-48 148.22,-48 87.27,-48"/>
<polygon fill="#63b8ff" stroke="#63b8ff" points="447.09,-51.5 457.09,-48 447.09,-44.5 447.09,-51.5"/>
</a>
</g>
</g>
<!-- Node6 -->
<g id="Node000006" class="node">
<title>Node6</title>
<g id="a_Node000006"><a xlink:href="heater_8c.html#a7f883e5fa8e1c1da14ca09afdca27036" target="_top" xlink:title="Turn off all heaters and reset to default state.">
<polygon fill="white" stroke="#666666" points="400.5,-20 320,-20 320,0 400.5,0 400.5,-20"/>
<text xml:space="preserve" text-anchor="middle" x="360.25" y="-6.5" font-family="Helvetica,sans-Serif" font-size="10.00">heater_turn_off</text>
</a>
</g>
</g>
<!-- Node1&#45;&gt;Node6 -->
<g id="edge5_Node000001_Node000006" class="edge">
<title>Node1&#45;&gt;Node6</title>
<g id="a_edge5_Node000001_Node000006"><a xlink:title=" ">
<path fill="none" stroke="#63b8ff" d="M451.96,-34.55C434.84,-29.92 415.95,-24.81 399.85,-20.45"/>
<polygon fill="#63b8ff" stroke="#63b8ff" points="450.87,-37.89 461.43,-37.12 452.7,-31.13 450.87,-37.89"/>
</a>
</g>
</g>
<!-- Node3 -->
<g id="Node000003" class="node">
<title>Node3</title>
<g id="a_Node000003"><a xlink:href="heater_8c.html#aeb7b9057d5e38aaa7816e8c7f0b059e3" target="_top" xlink:title="Apply configured state to all coil GPIO outputs.">
<polygon fill="white" stroke="#666666" points="261.5,-96 172.75,-96 172.75,-76 261.5,-76 261.5,-96"/>
<text xml:space="preserve" text-anchor="middle" x="217.12" y="-82.5" font-family="Helvetica,sans-Serif" font-size="10.00">heater_set_state</text>
</a>
</g>
</g>
<!-- Node2&#45;&gt;Node3 -->
<g id="edge2_Node000002_Node000003" class="edge">
<title>Node2&#45;&gt;Node3</title>
<g id="a_edge2_Node000002_Node000003"><a xlink:title=" ">
<path fill="none" stroke="#63b8ff" d="M286.05,-86C277.75,-86 269.5,-86 261.76,-86"/>
<polygon fill="#63b8ff" stroke="#63b8ff" points="285.84,-89.5 295.84,-86 285.84,-82.5 285.84,-89.5"/>
</a>
</g>
</g>
<!-- Node4 -->
<g id="Node000004" class="node">
<title>Node4</title>
<g id="a_Node000004"><a xlink:href="main_8c.html#a0cd91fd3a9608559c2a87a8ba6cba55f" target="_top" xlink:title=" ">
<polygon fill="white" stroke="#666666" points="136.75,-96 0,-96 0,-76 136.75,-76 136.75,-96"/>
<text xml:space="preserve" text-anchor="middle" x="68.38" y="-82.5" font-family="Helvetica,sans-Serif" font-size="10.00">HAL_GPIO_EXTI_Callback</text>
</a>
</g>
</g>
<!-- Node3&#45;&gt;Node4 -->
<g id="edge3_Node000003_Node000004" class="edge">
<title>Node3&#45;&gt;Node4</title>
<g id="a_edge3_Node000003_Node000004"><a xlink:title=" ">
<path fill="none" stroke="#63b8ff" d="M161.2,-86C153.32,-86 145.13,-86 137.04,-86"/>
<polygon fill="#63b8ff" stroke="#63b8ff" points="160.98,-89.5 170.98,-86 160.98,-82.5 160.98,-89.5"/>
</a>
</g>
</g>
<!-- Node3&#45;&gt;Node5 -->
<g id="edge4_Node000003_Node000005" class="edge">
<title>Node3&#45;&gt;Node5</title>
<g id="a_edge4_Node000003_Node000005"><a xlink:title=" ">
<path fill="none" stroke="#63b8ff" d="M164.76,-72.7C137.73,-65.7 106.32,-57.57 87.14,-52.6"/>
<polygon fill="#63b8ff" stroke="#63b8ff" points="163.61,-76.02 174.17,-75.14 165.37,-69.24 163.61,-76.02"/>
</a>
</g>
</g>
</g>
</svg>
