<?xml version="1.0" encoding="UTF-8" standalone="no"?>
<!DOCTYPE svg PUBLIC "-//W3C//DTD SVG 1.1//EN"
 "http://www.w3.org/Graphics/SVG/1.1/DTD/svg11.dtd">
<!-- Generated by graphviz version 14.1.2 (0)
 -->
<!-- Title: Core/Inc/heater.h Pages: 1 -->
<svg width="206pt" height="84pt"
 viewBox="0.00 0.00 206.00 84.00" xmlns="http://www.w3.org/2000/svg" xmlns:xlink="http://www.w3.org/1999/xlink">
<g id="graph0" class="graph" transform="scale(1 1) rotate(0) translate(4 80)">
<title>Core/Inc/heater.h</title>
<!-- Node1 -->
<g id="Node000001" class="node">
<title>Node1</title>
<g id="a_Node000001"><a xlink:title="Heater control module for kiln heating coils.">
<polygon fill="#999999" stroke="#666666" points="146.5,-76 54.75,-76 54.75,-56 146.5,-56 146.5,-76"/>
<text xml:space="preserve" text-anchor="middle" x="100.62" y="-62.5" font-family="Helvetica,sans-Serif" font-size="10.00">Core/Inc/heater.h</text>
</a>
</g>
</g>
<!-- Node2 -->
<g id="Node000002" class="node">
<title>Node2</title>
<g id="a_Node000002"><a xlink:href="heater_8c.html" target="_top" xlink:title="Implementation of heater control for kiln heating coils.">
<polygon fill="white" stroke="#666666" points="93.25,-20 0,-20 0,0 93.25,0 93.25,-20"/>
<text xml:space="preserve" text-anchor="middle" x="46.62" y="-6.5" font-family="Helvetica,sans-Serif" font-size="10.00">Core/Src/heater.c</text>
</a>
</g>
</g>
<!-- Node1&#45;&gt;Node2 -->
<g id="edge1_Node000001_Node000002" class="edge">
<title>Node1&#45;&gt;Node2</title>
<g id="a_edge1_Node000001_Node000002"><a xlink:title=" ">
<path fill="none" stroke="#63b8ff" d="M83.19,-47.57C74.12,-38.5 63.4,-27.78 55.92,-20.3"/>
<polygon fill="#63b8ff" stroke="#63b8ff" points="80.6,-49.93 90.15,-54.52 85.55,-44.98 80.6,-49.93"/>
</a>
</g>
</g>
<!-- Node3 -->
<g id="Node000003" class="node">
<title>Node3</title>
<g id="a_Node000003"><a xlink:href="main_8c.html" target="_top" xlink:title=": Main program body">
<polygon fill="white" stroke="#666666" points="198.25,-20 111,-20 111,0 198.25,0 198.25,-20"/>
<text xml:space="preserve" text-anchor="middle" x="154.62" y="-6.5" font-family="Helvetica,sans-Serif" font-size="10.00">Core/Src/main.c</text>
</a>
</g>
</g>
<!-- Node1&#45;&gt;Node3 -->
<g id="edge2_Node000001_Node000003" class="edge">
<title>Node1&#45;&gt;Node3</title>
<g id="a_edge2_Node000001_Node000003"><a xlink:title=" ">
<path fill="none" stroke="#63b8ff" d="M118.06,-47.57C127.13,-38.5 137.85,-27.78 145.33,-20.3"/>
<polygon fill="#63b8ff" stroke="#63b8ff" points="115.7,-44.98 111.1,-54.52 120.65,-49.93 115.7,-44.98"/>
</a>
</g>
</g>
</g>
</svg>
