<?xml version="1.0" encoding="UTF-8" standalone="no"?>
<!DOCTYPE svg PUBLIC "-//W3C//DTD SVG 1.1//EN"
 "http://www.w3.org/Graphics/SVG/1.1/DTD/svg11.dtd">
<!-- Generated by graphviz version 14.1.2 (0)
 -->
<!-- Title: heater_set_state Pages: 1 -->
<!--zoomable 142 -->

<svg id="main" version="1.1" xmlns="http://www.w3.org/2000/svg" xmlns:xlink="http://www.w3.org/1999/xlink" xml:space="preserve" onload="init(evt)">

<style type="text/css"><![CDATA[
.node, .edge {opacity: 0.7;}
.node.selected, .edge.selected {opacity: 1;}
.edge:hover path { stroke: red; }
.edge:hover polygon { stroke: red; fill: red; }
]]></style>

<defs>
  <circle id="rim" cx="0" cy="0" r="7"/>
  <circle id="rim2" cx="0" cy="0" r="3.5"/>
  <g id="zoomPlus">
    <use xlink:href="#rim" fill="#404040"><set attributeName="fill" to="#808080" begin="zoomplus.mouseover" end="zoomplus.mouseout"/></use>
    <path d="M-4,0h8M0,-4v8" fill="none" stroke="white" stroke-width="1.5" pointer-events="none"/>
  </g>
  <g id="zoomMin">
    <use xlink:href="#rim" fill="#404040"><set attributeName="fill" to="#808080" begin="zoomminus.mouseover" end="zoomminus.mouseout"/></use>
    <path d="M-4,0h8" fill="none" stroke="white" stroke-width="1.5" pointer-events="none"/>
  </g>
  <g id="arrowUp" transform="translate(30 24)">
    <use xlink:href="#rim"/>
    <path pointer-events="none" fill="none" stroke="white" stroke-width="1.5" d="M0,-3.0v7 M-2.5,-0.5L0,-3.0L2.5,-0.5"/>
  </g>
  <g id="arrowRight" transform="rotate(90) translate(36 -43)">
    <use xlink:href="#rim"/>
    <path pointer-events="none" fill="none" stroke="white" stroke-width="1.5" d="M0,-3.0v7 M-2.5,-0.5L0,-3.0L2.5,-0.5"/>
  </g>
  <g id="arrowDown" transform="rotate(180) translate(-30 -48)">
    <use xlink:href="#rim"/>
    <path pointer-events="none" fill="none" stroke="white" stroke-width="1.5" d="M0,-3.0v7 M-2.5,-0.5L0,-3.0L2.5,-0.5"/>
  </g>
  <g id="arrowLeft" transform="rotate(270) translate(-36 17)">
    <use xlink:href="#rim"/>
    <path pointer-events="none" fill="none" stroke="white" stroke-width="1.5" d="M0,-3.0v7 M-2.5,-0.5L0,-3.0L2.5,-0.5"/>
  </g>
  <g id="resetDef">
    <use xlink:href="#rim2" fill="#404040"><set attributeName="fill" to="#808080" begin="reset.mouseover" end="reset.mouseout"/></use>
  </g>
</defs>
<script type="application/ecmascript">
var viewWidth = 549;
var viewHeight = 142;
var sectionId = 'dynsection-8';
</script>
<script type="application/ecmascript" xlink:href="svg.min.js"/>
<svg id="graph" class="graph">
<g id="viewport">
<title>heater_set_state</title>
<!-- Node1 -->
<g id="Node000001" class="node">
<title>Node1</title>
<g id="a_Node000001"><a xlink:title="Apply the configured heater state to GPIO outputs.">
<polygon fill="#999999" stroke="#666666" points="88.75,-96 0,-96 0,-76 88.75,-76 88.75,-96"/>
<text xml:space="preserve" text-anchor="middle" x="44.38" y="-82.5" font-family="Helvetica,sans-Serif" font-size="10.00">heater_set_state</text>
</a>
</g>
</g>
<!-- Node2 -->
<g id="Node000002" class="node">
<title>Node2</title>
<g id="a_Node000002"><a xlink:href="heater_8c.html#a744433fcabe6fce4a484100cb21dbc00" target="_top" xlink:title="Check door state and pause/resume heating accordingly.">
<polygon fill="white" stroke="#666666" points="250.25,-124 124.75,-124 124.75,-104 250.25,-104 250.25,-124"/>
<text xml:space="preserve" text-anchor="middle" x="187.5" y="-110.5" font-family="Helvetica,sans-Serif" font-size="10.00">heater_check_door_state</text>
</a>
</g>
</g>
<!-- Node1&#45;&gt;Node2 -->
<g id="edge1_Node000001_Node000002" class="edge">
<title>Node1&#45;&gt;Node2</title>
<g id="a_edge1_Node000001_Node000002"><a xlink:title=" ">
<path fill="none" stroke="#63b8ff" d="M88.87,-94.63C99.5,-96.74 111.09,-99.04 122.46,-101.29"/>
<polygon fill="#63b8ff" stroke="#63b8ff" points="121.73,-104.72 132.22,-103.23 123.1,-97.85 121.73,-104.72"/>
</a>
</g>
</g>
<!-- Node4 -->
<g id="Node000004" class="node">
<title>Node4</title>
<g id="a_Node000004"><a xlink:href="heater_8c.html#a6d5286ce557080170ed8c1855deb2bd5" target="_top" xlink:title="Apply configured state to a single coil.">
<polygon fill="white" stroke="#666666" points="242,-77 133,-77 133,-57 242,-57 242,-77"/>
<text xml:space="preserve" text-anchor="middle" x="187.5" y="-63.5" font-family="Helvetica,sans-Serif" font-size="10.00">heater_set_coil_state</text>
</a>
</g>
</g>
<!-- Node1&#45;&gt;Node4 -->
<g id="edge3_Node000001_Node000004" class="edge">
<title>Node1&#45;&gt;Node4</title>
<g id="a_edge3_Node000001_Node000004"><a xlink:title=" ">
<path fill="none" stroke="#63b8ff" d="M88.87,-80.14C99.15,-78.76 110.33,-77.26 121.33,-75.77"/>
<polygon fill="#63b8ff" stroke="#63b8ff" points="121.75,-79.25 131.19,-74.45 120.82,-72.31 121.75,-79.25"/>
</a>
</g>
</g>
<!-- Node3 -->
<g id="Node000003" class="node">
<title>Node3</title>
<g id="a_Node000003"><a xlink:href="heater_8c.html#aa845617288d221752fd94dbb011b564a" target="_top" xlink:title="Set the heater power level (0&#45;6).">
<polygon fill="white" stroke="#666666" points="391.88,-134 304.62,-134 304.62,-114 391.88,-114 391.88,-134"/>
<text xml:space="preserve" text-anchor="middle" x="348.25" y="-120.5" font-family="Helvetica,sans-Serif" font-size="10.00">heater_set_level</text>
</a>
</g>
</g>
<!-- Node2&#45;&gt;Node3 -->
<g id="edge2_Node000002_Node000003" class="edge">
<title>Node2&#45;&gt;Node3</title>
<g id="a_edge2_Node000002_Node000003"><a xlink:title=" ">
<path fill="none" stroke="#63b8ff" d="M250.33,-117.89C264.48,-118.79 279.41,-119.73 293.2,-120.6"/>
<polygon fill="#63b8ff" stroke="#63b8ff" points="292.76,-124.07 302.96,-121.21 293.2,-117.09 292.76,-124.07"/>
</a>
</g>
</g>
<!-- Node5 -->
<g id="Node000005" class="node">
<title>Node5</title>
<g id="a_Node000005"><a xlink:href="heater_8c.html#abd981657b41a08c0fca6d043e71f9fe1" target="_top" xlink:title="Set coil GPIO pin low (turn off).">
<polygon fill="white" stroke="#666666" points="397.12,-96 299.38,-96 299.38,-76 397.12,-76 397.12,-96"/>
<text xml:space="preserve" text-anchor="middle" x="348.25" y="-82.5" font-family="Helvetica,sans-Serif" font-size="10.00">heater_set_coil_off</text>
</a>
</g>
</g>
<!-- Node4&#45;&gt;Node5 -->
<g id="edge4_Node000004_Node000005" class="edge">
<title>Node4&#45;&gt;Node5</title>
<g id="a_edge4_Node000004_Node000005"><a xlink:title=" ">
<path fill="none" stroke="#63b8ff" d="M242.25,-73.43C256.87,-75.18 272.79,-77.09 287.71,-78.87"/>
<polygon fill="#63b8ff" stroke="#63b8ff" points="287.04,-82.32 297.39,-80.03 287.88,-75.37 287.04,-82.32"/>
</a>
</g>
</g>
<!-- Node6 -->
<g id="Node000006" class="node">
<title>Node6</title>
<g id="a_Node000006"><a xlink:href="heater_8c.html#a7b55ee7ff070b92958c6ce66d74a3c6b" target="_top" xlink:title="Set coil GPIO pin high (turn on).">
<polygon fill="white" stroke="#666666" points="397.12,-58 299.38,-58 299.38,-38 397.12,-38 397.12,-58"/>
<text xml:space="preserve" text-anchor="middle" x="348.25" y="-44.5" font-family="Helvetica,sans-Serif" font-size="10.00">heater_set_coil_on</text>
</a>
</g>
</g>
<!-- Node4&#45;&gt;Node6 -->
<g id="edge5_Node000004_Node000006" class="edge">
<title>Node4&#45;&gt;Node6</title>
<g id="a_edge5_Node000004_Node000006"><a xlink:title=" ">
<path fill="none" stroke="#63b8ff" d="M242.25,-60.57C256.87,-58.82 272.79,-56.91 287.71,-55.13"/>
<polygon fill="#63b8ff" stroke="#63b8ff" points="287.88,-58.63 297.39,-53.97 287.04,-51.68 287.88,-58.63"/>
</a>
</g>
</g>
<!-- Node7 -->
<g id="Node000007" class="node">
<title>Node7</title>
<g id="a_Node000007"><a xlink:href="heater_8c.html#af1591585fd2062bd24306e39d4db5596" target="_top" xlink:title="Update PWM state for a coil.">
<polygon fill="white" stroke="#666666" points="410.25,-20 286.25,-20 286.25,0 410.25,0 410.25,-20"/>
<text xml:space="preserve" text-anchor="middle" x="348.25" y="-6.5" font-family="Helvetica,sans-Serif" font-size="10.00">heater_update_pwm_coil</text>
</a>
</g>
</g>
<!-- Node4&#45;&gt;Node7 -->
<g id="edge6_Node000004_Node000007" class="edge">
<title>Node4&#45;&gt;Node7</title>
<g id="a_edge6_Node000004_Node000007"><a xlink:title=" ">
<path fill="none" stroke="#63b8ff" d="M214.05,-56.51C233.67,-48.6 261.5,-37.65 286.25,-29 291.22,-27.26 296.45,-25.51 301.67,-23.82"/>
<polygon fill="#63b8ff" stroke="#63b8ff" points="302.37,-27.27 310.83,-20.9 300.24,-20.6 302.37,-27.27"/>
</a>
</g>
</g>
<!-- Node8 -->
<g id="Node000008" class="node">
<title>Node8</title>
<g id="a_Node000008"><a xlink:href="heater_8c.html#ac4a6b221323e72ff20c2a96b8c51b9ac" target="_top" xlink:title="Toggle coil GPIO pin state.">
<polygon fill="white" stroke="#666666" points="541,-20 446.25,-20 446.25,0 541,0 541,-20"/>
<text xml:space="preserve" text-anchor="middle" x="493.62" y="-6.5" font-family="Helvetica,sans-Serif" font-size="10.00">heater_toggle_coil</text>
</a>
</g>
</g>
<!-- Node7&#45;&gt;Node8 -->
<g id="edge7_Node000007_Node000008" class="edge">
<title>Node7&#45;&gt;Node8</title>
<g id="a_edge7_Node000007_Node000008"><a xlink:title=" ">
<path fill="none" stroke="#63b8ff" d="M410.47,-10C418.45,-10 426.6,-10 434.53,-10"/>
<polygon fill="#63b8ff" stroke="#63b8ff" points="434.41,-13.5 444.41,-10 434.41,-6.5 434.41,-13.5"/>
</a>
</g>
</g>
</g>
</svg>

<g id="navigator" transform="translate(0 0)" fill="#404254">
  <rect fill="#f2f5e9" fill-opacity="0.5" stroke="#606060" stroke-width=".5" x="0" y="0" width="60" height="60"/>
  <use id="zoomplus" xlink:href="#zoomPlus" x="17" y="9" onmousedown="handleZoom(evt,'in')"/>
  <use id="zoomminus" xlink:href="#zoomMin" x="42" y="9" onmousedown="handleZoom(evt,'out')"/>
  <use id="reset" xlink:href="#resetDef" x="30" y="36" onmousedown="handleReset()"/>
   <use id="arrowup" xlink:href="#arrowUp" x="0" y="0" onmousedown="handlePan(0,-1)"/>
  <use id="arrowright" xlink:href="#arrowRight" x="0" y="0" onmousedown="handlePan(1,0)"/>
  <use id="arrowdown" xlink:href="#arrowDown" x="0" y="0" onmousedown="handlePan(0,1)"/>
  <use id="arrowleft" xlink:href="#arrowLeft" x="0" y="0" onmousedown="handlePan(-1,0)"/>
</g>
<svg viewBox="0 0 15 15" width="100%" height="30px" preserveAspectRatio="xMaxYMin meet">
 <g id="arrow_out" transform="scale(0.3 0.3)">
  <a xlink:href="heater_8h_aeb7b9057d5e38aaa7816e8c7f0b059e3_cgraph_org.svg" target="_base">
   <rect id="button" ry="5" rx="5" y="6" x="6" height="38" width="38"
        fill="#f2f5e9" fill-opacity="0.5" stroke="#606060" stroke-width="1.0"/>
   <path id="arrow"
     d="M 11.500037,31.436501 C 11.940474,20.09759 22.043105,11.32322 32.158766,21.979434 L 37.068811,17.246167 C 37.068811,17.246167 37.088388,32 37.088388,32 L 22.160133,31.978069 C 22.160133,31.978069 26.997745,27.140456 26.997745,27.140456 C 18.528582,18.264221 13.291696,25.230495 11.500037,31.436501 z"
     style="fill:#404040;"/>
  </a>
 </g>
</svg>

<style type='text/css'>
<![CDATA[
[data-mouse-over-selected='false'] { opacity: 0.7; }
[data-mouse-over-selected='true']  { opacity: 1.0; }
]]>
</style>
<script type="application/ecmascript"><![CDATA[
document.addEventListener('DOMContentLoaded', (event) => {
  highlightEdges();
  highlightAdjacentNodes();
});
]]></script>
</svg>
