<?xml version="1.0" encoding="UTF-8" standalone="no"?>
<!DOCTYPE svg PUBLIC "-//W3C//DTD SVG 1.1//EN"
 "http://www.w3.org/Graphics/SVG/1.1/DTD/svg11.dtd">
<!-- Generated by graphviz version 14.1.2 (0)
 -->
<!-- Title: heater_set_coil_state Pages: 1 -->
<svg width="408pt" height="104pt"
 viewBox="0.00 0.00 408.00 104.00" xmlns="http://www.w3.org/2000/svg" xmlns:xlink="http://www.w3.org/1999/xlink">
<g id="graph0" class="graph" transform="scale(1 1) rotate(0) translate(4 100)">
<title>heater_set_coil_state</title>
<!-- Node1 -->
<g id="Node000001" class="node">
<title>Node1</title>
<g id="a_Node000001"><a xlink:title="Apply configured state to a single coil.">
<polygon fill="#999999" stroke="#666666" points="109,-58 0,-58 0,-38 109,-38 109,-58"/>
<text xml:space="preserve" text-anchor="middle" x="54.5" y="-44.5" font-family="Helvetica,sans-Serif" font-size="10.00">heater_set_coil_state</text>
</a>
</g>
</g>
<!-- Node2 -->
<g id="Node000002" class="node">
<title>Node2</title>
<g id="a_Node000002"><a xlink:href="heater_8c.html#abd981657b41a08c0fca6d043e71f9fe1" target="_top" xlink:title="Set coil GPIO pin low (turn off).">
<polygon fill="white" stroke="#666666" points="255.88,-96 158.12,-96 158.12,-76 255.88,-76 255.88,-96"/>
<text xml:space="preserve" text-anchor="middle" x="207" y="-82.5" font-family="Helvetica,sans-Serif" font-size="10.00">heater_set_coil_off</text>
</a>
</g>
</g>
<!-- Node1&#45;&gt;Node2 -->
<g id="edge1_Node000001_Node000002" class="edge">
<title>Node1&#45;&gt;Node2</title>
<g id="a_edge1_Node000001_Node000002"><a xlink:title=" ">
<path fill="none" stroke="#63b8ff" d="M97.02,-58.48C114.54,-62.91 135.14,-68.11 153.68,-72.79"/>
<polygon fill="#63b8ff" stroke="#63b8ff" points="152.59,-76.12 163.14,-75.18 154.31,-69.34 152.59,-76.12"/>
</a>
</g>
</g>
<!-- Node3 -->
<g id="Node000003" class="node">
<title>Node3</title>
<g id="a_Node000003"><a xlink:href="heater_8c.html#a7b55ee7ff070b92958c6ce66d74a3c6b" target="_top" xlink:title="Set coil GPIO pin high (turn on).">
<polygon fill="white" stroke="#666666" points="255.88,-58 158.12,-58 158.12,-38 255.88,-38 255.88,-58"/>
<text xml:space="preserve" text-anchor="middle" x="207" y="-44.5" font-family="Helvetica,sans-Serif" font-size="10.00">heater_set_coil_on</text>
</a>
</g>
</g>
<!-- Node1&#45;&gt;Node3 -->
<g id="edge2_Node000001_Node000003" class="edge">
<title>Node1&#45;&gt;Node3</title>
<g id="a_edge2_Node000001_Node000003"><a xlink:title=" ">
<path fill="none" stroke="#63b8ff" d="M109.41,-48C121.43,-48 134.23,-48 146.46,-48"/>
<polygon fill="#63b8ff" stroke="#63b8ff" points="146.45,-51.5 156.45,-48 146.45,-44.5 146.45,-51.5"/>
</a>
</g>
</g>
<!-- Node4 -->
<g id="Node000004" class="node">
<title>Node4</title>
<g id="a_Node000004"><a xlink:href="heater_8c.html#af1591585fd2062bd24306e39d4db5596" target="_top" xlink:title="Update PWM state for a coil.">
<polygon fill="white" stroke="#666666" points="269,-20 145,-20 145,0 269,0 269,-20"/>
<text xml:space="preserve" text-anchor="middle" x="207" y="-6.5" font-family="Helvetica,sans-Serif" font-size="10.00">heater_update_pwm_coil</text>
</a>
</g>
</g>
<!-- Node1&#45;&gt;Node4 -->
<g id="edge3_Node000001_Node000004" class="edge">
<title>Node1&#45;&gt;Node4</title>
<g id="a_edge3_Node000001_Node000004"><a xlink:title=" ">
<path fill="none" stroke="#63b8ff" d="M97.02,-37.52C114.54,-33.09 135.14,-27.89 153.68,-23.21"/>
<polygon fill="#63b8ff" stroke="#63b8ff" points="154.31,-26.66 163.14,-20.82 152.59,-19.88 154.31,-26.66"/>
</a>
</g>
</g>
<!-- Node5 -->
<g id="Node000005" class="node">
<title>Node5</title>
<g id="a_Node000005"><a xlink:href="heater_8c.html#ac4a6b221323e72ff20c2a96b8c51b9ac" target="_top" xlink:title="Toggle coil GPIO pin state.">
<polygon fill="white" stroke="#666666" points="399.75,-20 305,-20 305,0 399.75,0 399.75,-20"/>
<text xml:space="preserve" text-anchor="middle" x="352.38" y="-6.5" font-family="Helvetica,sans-Serif" font-size="10.00">heater_toggle_coil</text>
</a>
</g>
</g>
<!-- Node4&#45;&gt;Node5 -->
<g id="edge4_Node000004_Node000005" class="edge">
<title>Node4&#45;&gt;Node5</title>
<g id="a_edge4_Node000004_Node000005"><a xlink:title=" ">
<path fill="none" stroke="#63b8ff" d="M269.22,-10C277.2,-10 285.35,-10 293.28,-10"/>
<polygon fill="#63b8ff" stroke="#63b8ff" points="293.16,-13.5 303.16,-10 293.16,-6.5 293.16,-13.5"/>
</a>
</g>
</g>
</g>
</svg>
