<?xml version="1.0" encoding="UTF-8" standalone="no"?>
<!DOCTYPE svg PUBLIC "-//W3C//DTD SVG 1.1//EN"
 "http://www.w3.org/Graphics/SVG/1.1/DTD/svg11.dtd">
<!-- Generated by graphviz version 14.1.2 (0)
 -->
<!-- Title: heater_calculate_slope Pages: 1 -->
<svg width="454pt" height="28pt"
 viewBox="0.00 0.00 454.00 28.00" xmlns="http://www.w3.org/2000/svg" xmlns:xlink="http://www.w3.org/1999/xlink">
<g id="graph0" class="graph" transform="scale(1 1) rotate(0) translate(4 24)">
<title>heater_calculate_slope</title>
<!-- Node1 -->
<g id="Node000001" class="node">
<title>Node1</title>
<g id="a_Node000001"><a xlink:title="Calculate temperature slope using linear regression.">
<polygon fill="#999999" stroke="#666666" points="446.25,-20 330.5,-20 330.5,0 446.25,0 446.25,-20"/>
<text xml:space="preserve" text-anchor="middle" x="388.38" y="-6.5" font-family="Helvetica,sans-Serif" font-size="10.00">heater_calculate_slope</text>
</a>
</g>
</g>
<!-- Node2 -->
<g id="Node000002" class="node">
<title>Node2</title>
<g id="a_Node000002"><a xlink:href="heater_8c.html#ac2883f1108f7c28edb2c028a9e0f2639" target="_top" xlink:title="RTC interrupt handler for temperature sampling and PID calculation.">
<polygon fill="white" stroke="#666666" points="294.5,-20 198.25,-20 198.25,0 294.5,0 294.5,-20"/>
<text xml:space="preserve" text-anchor="middle" x="246.38" y="-6.5" font-family="Helvetica,sans-Serif" font-size="10.00">heater_on_interupt</text>
</a>
</g>
</g>
<!-- Node1&#45;&gt;Node2 -->
<g id="edge1_Node000001_Node000002" class="edge">
<title>Node1&#45;&gt;Node2</title>
<g id="a_edge1_Node000001_Node000002"><a xlink:title=" ">
<path fill="none" stroke="#63b8ff" d="M318.6,-10C310.48,-10 302.33,-10 294.6,-10"/>
<polygon fill="#63b8ff" stroke="#63b8ff" points="318.51,-13.5 328.51,-10 318.51,-6.5 318.51,-13.5"/>
</a>
</g>
</g>
<!-- Node3 -->
<g id="Node000003" class="node">
<title>Node3</title>
<g id="a_Node000003"><a xlink:href="main_8c.html#a11aeff83fd498cddbed3bcddcf017e0a" target="_top" xlink:title=" ">
<polygon fill="white" stroke="#666666" points="162.25,-20 0,-20 0,0 162.25,0 162.25,-20"/>
<text xml:space="preserve" text-anchor="middle" x="81.12" y="-6.5" font-family="Helvetica,sans-Serif" font-size="10.00">HAL_RTC_AlarmAEventCallback</text>
</a>
</g>
</g>
<!-- Node2&#45;&gt;Node3 -->
<g id="edge2_Node000002_Node000003" class="edge">
<title>Node2&#45;&gt;Node3</title>
<g id="a_edge2_Node000002_Node000003"><a xlink:title=" ">
<path fill="none" stroke="#63b8ff" d="M186.82,-10C178.91,-10 170.67,-10 162.46,-10"/>
<polygon fill="#63b8ff" stroke="#63b8ff" points="186.64,-13.5 196.64,-10 186.64,-6.5 186.64,-13.5"/>
</a>
</g>
</g>
</g>
</svg>
