<?xml version="1.0" encoding="UTF-8" standalone="no"?>
<!DOCTYPE svg PUBLIC "-//W3C//DTD SVG 1.1//EN"
 "http://www.w3.org/Graphics/SVG/1.1/DTD/svg11.dtd">
<!-- Generated by graphviz version 14.1.2 (0)
 -->
<!-- Title: heater_update_pwm_coil Pages: 1 -->
<svg width="575pt" height="66pt"
 viewBox="0.00 0.00 575.00 66.00" xmlns="http://www.w3.org/2000/svg" xmlns:xlink="http://www.w3.org/1999/xlink">
<g id="graph0" class="graph" transform="scale(1 1) rotate(0) translate(4 62)">
<title>heater_update_pwm_coil</title>
<!-- Node1 -->
<g id="Node000001" class="node">
<title>Node1</title>
<g id="a_Node000001"><a xlink:title="Update PWM state for a coil.">
<polygon fill="#999999" stroke="#666666" points="566.5,-39 442.5,-39 442.5,-19 566.5,-19 566.5,-39"/>
<text xml:space="preserve" text-anchor="middle" x="504.5" y="-25.5" font-family="Helvetica,sans-Serif" font-size="10.00">heater_update_pwm_coil</text>
</a>
</g>
</g>
<!-- Node2 -->
<g id="Node000002" class="node">
<title>Node2</title>
<g id="a_Node000002"><a xlink:href="heater_8c.html#a6d5286ce557080170ed8c1855deb2bd5" target="_top" xlink:title="Apply configured state to a single coil.">
<polygon fill="white" stroke="#666666" points="406.5,-39 297.5,-39 297.5,-19 406.5,-19 406.5,-39"/>
<text xml:space="preserve" text-anchor="middle" x="352" y="-25.5" font-family="Helvetica,sans-Serif" font-size="10.00">heater_set_coil_state</text>
</a>
</g>
</g>
<!-- Node1&#45;&gt;Node2 -->
<g id="edge1_Node000001_Node000002" class="edge">
<title>Node1&#45;&gt;Node2</title>
<g id="a_edge1_Node000001_Node000002"><a xlink:title=" ">
<path fill="none" stroke="#63b8ff" d="M430.92,-29C422.83,-29 414.7,-29 406.91,-29"/>
<polygon fill="#63b8ff" stroke="#63b8ff" points="430.77,-32.5 440.77,-29 430.77,-25.5 430.77,-32.5"/>
</a>
</g>
</g>
<!-- Node3 -->
<g id="Node000003" class="node">
<title>Node3</title>
<g id="a_Node000003"><a xlink:href="heater_8c.html#aeb7b9057d5e38aaa7816e8c7f0b059e3" target="_top" xlink:title="Apply configured state to all coil GPIO outputs.">
<polygon fill="white" stroke="#666666" points="261.5,-39 172.75,-39 172.75,-19 261.5,-19 261.5,-39"/>
<text xml:space="preserve" text-anchor="middle" x="217.12" y="-25.5" font-family="Helvetica,sans-Serif" font-size="10.00">heater_set_state</text>
</a>
</g>
</g>
<!-- Node2&#45;&gt;Node3 -->
<g id="edge2_Node000002_Node000003" class="edge">
<title>Node2&#45;&gt;Node3</title>
<g id="a_edge2_Node000002_Node000003"><a xlink:title=" ">
<path fill="none" stroke="#63b8ff" d="M285.87,-29C277.7,-29 269.51,-29 261.79,-29"/>
<polygon fill="#63b8ff" stroke="#63b8ff" points="285.82,-32.5 295.82,-29 285.82,-25.5 285.82,-32.5"/>
</a>
</g>
</g>
<!-- Node4 -->
<g id="Node000004" class="node">
<title>Node4</title>
<g id="a_Node000004"><a xlink:href="main_8c.html#a0cd91fd3a9608559c2a87a8ba6cba55f" target="_top" xlink:title=" ">
<polygon fill="white" stroke="#666666" points="136.75,-58 0,-58 0,-38 136.75,-38 136.75,-58"/>
<text xml:space="preserve" text-anchor="middle" x="68.38" y="-44.5" font-family="Helvetica,sans-Serif" font-size="10.00">HAL_GPIO_EXTI_Callback</text>
</a>
</g>
</g>
<!-- Node3&#45;&gt;Node4 -->
<g id="edge3_Node000003_Node000004" class="edge">
<title>Node3&#45;&gt;Node4</title>
<g id="a_edge3_Node000003_Node000004"><a xlink:title=" ">
<path fill="none" stroke="#63b8ff" d="M161.2,-36.11C153.32,-37.13 145.13,-38.19 137.04,-39.24"/>
<polygon fill="#63b8ff" stroke="#63b8ff" points="161.52,-39.6 170.99,-34.84 160.62,-32.66 161.52,-39.6"/>
</a>
</g>
</g>
<!-- Node5 -->
<g id="Node000005" class="node">
<title>Node5</title>
<g id="a_Node000005"><a xlink:href="main_8c.html#a840291bc02cba5474a4cb46a9b9566fe" target="_top" xlink:title="The application entry point.">
<polygon fill="white" stroke="#666666" points="86.88,-20 49.88,-20 49.88,0 86.88,0 86.88,-20"/>
<text xml:space="preserve" text-anchor="middle" x="68.38" y="-6.5" font-family="Helvetica,sans-Serif" font-size="10.00">main</text>
</a>
</g>
</g>
<!-- Node3&#45;&gt;Node5 -->
<g id="edge4_Node000003_Node000005" class="edge">
<title>Node3&#45;&gt;Node5</title>
<g id="a_edge4_Node000003_Node000005"><a xlink:title=" ">
<path fill="none" stroke="#63b8ff" d="M161.14,-21.88C134.95,-18.49 105.43,-14.67 87.11,-12.3"/>
<polygon fill="#63b8ff" stroke="#63b8ff" points="160.62,-25.34 170.99,-23.16 161.52,-18.4 160.62,-25.34"/>
</a>
</g>
</g>
</g>
</svg>
