<?xml version="1.0" encoding="UTF-8" standalone="no"?>
<!DOCTYPE svg PUBLIC "-//W3C//DTD SVG 1.1//EN"
 "http://www.w3.org/Graphics/SVG/1.1/DTD/svg11.dtd">
<!-- Generated by graphviz version 14.1.2 (0)
 -->
<!-- Title: lcd1602_init Pages: 1 -->
<svg width="600pt" height="172pt"
 viewBox="0.00 0.00 600.00 172.00" xmlns="http://www.w3.org/2000/svg" xmlns:xlink="http://www.w3.org/1999/xlink">
<g id="graph0" class="graph" transform="scale(1 1) rotate(0) translate(4 167.96)">
<title>lcd1602_init</title>
<!-- Node1 -->
<g id="Node000001" class="node">
<title>Node1</title>
<g id="a_Node000001"><a xlink:title="Initialize the LCD display.">
<polygon fill="#999999" stroke="#666666" points="67.75,-87.96 0,-87.96 0,-67.96 67.75,-67.96 67.75,-87.96"/>
<text xml:space="preserve" text-anchor="middle" x="33.88" y="-74.46" font-family="Helvetica,sans-Serif" font-size="10.00">lcd1602_init</text>
</a>
</g>
</g>
<!-- Node2 -->
<g id="Node000002" class="node">
<title>Node2</title>
<g id="a_Node000002"><a xlink:href="lcd1602__rgb_8c.html#a971081be754ef4622e54951a306bca10" target="_top" xlink:title="Begin display operation with full initialization sequence.">
<polygon fill="white" stroke="#666666" points="182,-87.96 103.75,-87.96 103.75,-67.96 182,-67.96 182,-87.96"/>
<text xml:space="preserve" text-anchor="middle" x="142.88" y="-74.46" font-family="Helvetica,sans-Serif" font-size="10.00">lcd1602_begin</text>
</a>
</g>
</g>
<!-- Node1&#45;&gt;Node2 -->
<g id="edge1_Node000001_Node000002" class="edge">
<title>Node1&#45;&gt;Node2</title>
<g id="a_edge1_Node000001_Node000002"><a xlink:title=" ">
<path fill="none" stroke="#63b8ff" d="M68.14,-77.96C75.73,-77.96 83.96,-77.96 92.07,-77.96"/>
<polygon fill="#63b8ff" stroke="#63b8ff" points="91.87,-81.46 101.87,-77.96 91.87,-74.46 91.87,-81.46"/>
</a>
</g>
</g>
<!-- Node3 -->
<g id="Node000003" class="node">
<title>Node3</title>
<g id="a_Node000003"><a xlink:href="lcd1602__rgb_8c.html#af0c1d216ce5b0f77cdb3cbfebb180ac4" target="_top" xlink:title="Clear the display and return cursor to home.">
<polygon fill="white" stroke="#666666" points="314.62,-163.96 238.62,-163.96 238.62,-143.96 314.62,-143.96 314.62,-163.96"/>
<text xml:space="preserve" text-anchor="middle" x="276.62" y="-150.46" font-family="Helvetica,sans-Serif" font-size="10.00">lcd1602_clear</text>
</a>
</g>
</g>
<!-- Node2&#45;&gt;Node3 -->
<g id="edge2_Node000002_Node000003" class="edge">
<title>Node2&#45;&gt;Node3</title>
<g id="a_edge2_Node000002_Node000003"><a xlink:title=" ">
<path fill="none" stroke="#63b8ff" d="M156.7,-88.26C171.05,-99.46 195.28,-117.45 218,-129.96 223.9,-133.21 230.33,-136.29 236.69,-139.1"/>
<polygon fill="#63b8ff" stroke="#63b8ff" points="235.24,-142.29 245.81,-142.96 237.97,-135.84 235.24,-142.29"/>
</a>
</g>
</g>
<!-- Node4 -->
<g id="Node000004" class="node">
<title>Node4</title>
<g id="a_Node000004"><a xlink:href="lcd1602__rgb_8c.html#a0f2acca4c1aa5a1126b031e719beb4df" target="_top" xlink:title="Send a command byte to the LCD.">
<polygon fill="white" stroke="#666666" points="469,-125.96 371.25,-125.96 371.25,-105.96 469,-105.96 469,-125.96"/>
<text xml:space="preserve" text-anchor="middle" x="420.12" y="-112.46" font-family="Helvetica,sans-Serif" font-size="10.00">lcd1602_command</text>
</a>
</g>
</g>
<!-- Node2&#45;&gt;Node4 -->
<g id="edge5_Node000002_Node000004" class="edge">
<title>Node2&#45;&gt;Node4</title>
<g id="a_edge5_Node000002_Node000004"><a xlink:title=" ">
<path fill="none" stroke="#63b8ff" d="M179.82,-88.38C191.87,-91.55 205.44,-94.77 218,-96.96 265.17,-105.18 319.23,-110.04 359.42,-112.78"/>
<polygon fill="#63b8ff" stroke="#63b8ff" points="359.17,-116.27 369.38,-113.43 359.63,-109.28 359.17,-116.27"/>
</a>
</g>
</g>
<!-- Node6 -->
<g id="Node000006" class="node">
<title>Node6</title>
<g id="a_Node000006"><a xlink:href="lcd1602__rgb_8c.html#a63497d3efb539cc2db79a2ef8de2f1fa" target="_top" xlink:title="Turn on the display.">
<polygon fill="white" stroke="#666666" points="319.5,-87.96 233.75,-87.96 233.75,-67.96 319.5,-67.96 319.5,-87.96"/>
<text xml:space="preserve" text-anchor="middle" x="276.62" y="-74.46" font-family="Helvetica,sans-Serif" font-size="10.00">lcd1602_display</text>
</a>
</g>
</g>
<!-- Node2&#45;&gt;Node6 -->
<g id="edge6_Node000002_Node000006" class="edge">
<title>Node2&#45;&gt;Node6</title>
<g id="a_edge6_Node000002_Node000006"><a xlink:title=" ">
<path fill="none" stroke="#63b8ff" d="M182.34,-77.96C194.79,-77.96 208.84,-77.96 222.18,-77.96"/>
<polygon fill="#63b8ff" stroke="#63b8ff" points="222.14,-81.46 232.14,-77.96 222.14,-74.46 222.14,-81.46"/>
</a>
</g>
</g>
<!-- Node7 -->
<g id="Node000007" class="node">
<title>Node7</title>
<g id="a_Node000007"><a xlink:href="lcd1602__rgb_8c.html#accc7208e7b9a4f0cb58891d91fdbf759" target="_top" xlink:title="Set backlight to white (full brightness all colors).">
<polygon fill="white" stroke="#666666" points="335.25,-49.96 218,-49.96 218,-29.96 335.25,-29.96 335.25,-49.96"/>
<text xml:space="preserve" text-anchor="middle" x="276.62" y="-36.46" font-family="Helvetica,sans-Serif" font-size="10.00">lcd1602_setColorWhite</text>
</a>
</g>
</g>
<!-- Node2&#45;&gt;Node7 -->
<g id="edge8_Node000002_Node000007" class="edge">
<title>Node2&#45;&gt;Node7</title>
<g id="a_edge8_Node000002_Node000007"><a xlink:title=" ">
<path fill="none" stroke="#63b8ff" d="M180.23,-67.47C195.2,-63.15 212.74,-58.09 228.67,-53.5"/>
<polygon fill="#63b8ff" stroke="#63b8ff" points="229.3,-56.96 237.94,-50.83 227.36,-50.24 229.3,-56.96"/>
</a>
</g>
</g>
<!-- Node9 -->
<g id="Node000009" class="node">
<title>Node9</title>
<g id="a_Node000009"><a xlink:href="lcd1602__rgb_8c.html#a04d63df3f6caa36888761103435accd8" target="_top" xlink:title="Write a value to an RGB controller register.">
<polygon fill="white" stroke="#666666" points="591.5,-30.96 505,-30.96 505,-10.96 591.5,-10.96 591.5,-30.96"/>
<text xml:space="preserve" text-anchor="middle" x="548.25" y="-17.46" font-family="Helvetica,sans-Serif" font-size="10.00">lcd1602_setReg</text>
</a>
</g>
</g>
<!-- Node2&#45;&gt;Node9 -->
<g id="edge11_Node000002_Node000009" class="edge">
<title>Node2&#45;&gt;Node9</title>
<g id="a_edge11_Node000002_Node000009"><a xlink:title=" ">
<path fill="none" stroke="#63b8ff" d="M152.71,-67.9C165.49,-54.18 190.64,-30.26 218,-20.96 310.73,10.57 426.82,-0.1 493.46,-10.61"/>
<polygon fill="#63b8ff" stroke="#63b8ff" points="492.59,-14.02 503.02,-12.18 493.72,-7.11 492.59,-14.02"/>
</a>
</g>
</g>
<!-- Node3&#45;&gt;Node4 -->
<g id="edge3_Node000003_Node000004" class="edge">
<title>Node3&#45;&gt;Node4</title>
<g id="a_edge3_Node000003_Node000004"><a xlink:title=" ">
<path fill="none" stroke="#63b8ff" d="M314.8,-143.97C331.48,-139.49 351.41,-134.14 369.35,-129.32"/>
<polygon fill="#63b8ff" stroke="#63b8ff" points="370.01,-132.77 378.76,-126.8 368.19,-126.01 370.01,-132.77"/>
</a>
</g>
</g>
<!-- Node5 -->
<g id="Node000005" class="node">
<title>Node5</title>
<g id="a_Node000005"><a xlink:href="lcd1602__rgb_8c.html#af833ec77ef44dc848f52a09072a777ae" target="_top" xlink:title="Send raw data bytes to the LCD via I2C.">
<polygon fill="white" stroke="#666666" points="586.25,-125.96 510.25,-125.96 510.25,-105.96 586.25,-105.96 586.25,-125.96"/>
<text xml:space="preserve" text-anchor="middle" x="548.25" y="-112.46" font-family="Helvetica,sans-Serif" font-size="10.00">lcd1602_send</text>
</a>
</g>
</g>
<!-- Node4&#45;&gt;Node5 -->
<g id="edge4_Node000004_Node000005" class="edge">
<title>Node4&#45;&gt;Node5</title>
<g id="a_edge4_Node000004_Node000005"><a xlink:title=" ">
<path fill="none" stroke="#63b8ff" d="M469.17,-115.96C478.77,-115.96 488.86,-115.96 498.49,-115.96"/>
<polygon fill="#63b8ff" stroke="#63b8ff" points="498.42,-119.46 508.42,-115.96 498.42,-112.46 498.42,-119.46"/>
</a>
</g>
</g>
<!-- Node6&#45;&gt;Node4 -->
<g id="edge7_Node000006_Node000004" class="edge">
<title>Node6&#45;&gt;Node4</title>
<g id="a_edge7_Node000006_Node000004"><a xlink:title=" ">
<path fill="none" stroke="#63b8ff" d="M316.67,-88.44C332.9,-92.8 351.95,-97.92 369.19,-102.55"/>
<polygon fill="#63b8ff" stroke="#63b8ff" points="368.18,-105.9 378.75,-105.12 370,-99.14 368.18,-105.9"/>
</a>
</g>
</g>
<!-- Node8 -->
<g id="Node000008" class="node">
<title>Node8</title>
<g id="a_Node000008"><a xlink:href="lcd1602__rgb_8c.html#a194a9c42a39f341ab1f51a61a75ab1f2" target="_top" xlink:title="Set RGB backlight color.">
<polygon fill="white" stroke="#666666" points="465.25,-49.96 375,-49.96 375,-29.96 465.25,-29.96 465.25,-49.96"/>
<text xml:space="preserve" text-anchor="middle" x="420.12" y="-36.46" font-family="Helvetica,sans-Serif" font-size="10.00">lcd1602_setRGB</text>
</a>
</g>
</g>
<!-- Node7&#45;&gt;Node8 -->
<g id="edge9_Node000007_Node000008" class="edge">
<title>Node7&#45;&gt;Node8</title>
<g id="a_edge9_Node000007_Node000008"><a xlink:title=" ">
<path fill="none" stroke="#63b8ff" d="M335.59,-39.96C344.82,-39.96 354.35,-39.96 363.52,-39.96"/>
<polygon fill="#63b8ff" stroke="#63b8ff" points="363.39,-43.46 373.39,-39.96 363.39,-36.46 363.39,-43.46"/>
</a>
</g>
</g>
<!-- Node8&#45;&gt;Node9 -->
<g id="edge10_Node000008_Node000009" class="edge">
<title>Node8&#45;&gt;Node9</title>
<g id="a_edge10_Node000008_Node000009"><a xlink:title=" ">
<path fill="none" stroke="#63b8ff" d="M465.59,-33.26C474.67,-31.89 484.31,-30.44 493.66,-29.03"/>
<polygon fill="#63b8ff" stroke="#63b8ff" points="494.01,-32.52 503.38,-27.57 492.97,-25.6 494.01,-32.52"/>
</a>
</g>
</g>
</g>
</svg>
