<?xml version="1.0" encoding="UTF-8" standalone="no"?>
<!DOCTYPE svg PUBLIC "-//W3C//DTD SVG 1.1//EN"
 "http://www.w3.org/Graphics/SVG/1.1/DTD/svg11.dtd">
<!-- Generated by graphviz version 14.1.2 (0)
 -->
<!-- Title: lcd1602_setColorWhite Pages: 1 -->
<svg width="374pt" height="28pt"
 viewBox="0.00 0.00 374.00 28.00" xmlns="http://www.w3.org/2000/svg" xmlns:xlink="http://www.w3.org/1999/xlink">
<g id="graph0" class="graph" transform="scale(1 1) rotate(0) translate(4 24)">
<title>lcd1602_setColorWhite</title>
<!-- Node1 -->
<g id="Node000001" class="node">
<title>Node1</title>
<g id="a_Node000001"><a xlink:title="Set backlight to white (255, 255, 255).">
<polygon fill="#999999" stroke="#666666" points="117.25,-20 0,-20 0,0 117.25,0 117.25,-20"/>
<text xml:space="preserve" text-anchor="middle" x="58.62" y="-6.5" font-family="Helvetica,sans-Serif" font-size="10.00">lcd1602_setColorWhite</text>
</a>
</g>
</g>
<!-- Node2 -->
<g id="Node000002" class="node">
<title>Node2</title>
<g id="a_Node000002"><a xlink:href="lcd1602__rgb_8c.html#a194a9c42a39f341ab1f51a61a75ab1f2" target="_top" xlink:title="Set RGB backlight color.">
<polygon fill="white" stroke="#666666" points="243.5,-20 153.25,-20 153.25,0 243.5,0 243.5,-20"/>
<text xml:space="preserve" text-anchor="middle" x="198.38" y="-6.5" font-family="Helvetica,sans-Serif" font-size="10.00">lcd1602_setRGB</text>
</a>
</g>
</g>
<!-- Node1&#45;&gt;Node2 -->
<g id="edge1_Node000001_Node000002" class="edge">
<title>Node1&#45;&gt;Node2</title>
<g id="a_edge1_Node000001_Node000002"><a xlink:title=" ">
<path fill="none" stroke="#63b8ff" d="M117.64,-10C125.55,-10 133.65,-10 141.51,-10"/>
<polygon fill="#63b8ff" stroke="#63b8ff" points="141.3,-13.5 151.3,-10 141.3,-6.5 141.3,-13.5"/>
</a>
</g>
</g>
<!-- Node3 -->
<g id="Node000003" class="node">
<title>Node3</title>
<g id="a_Node000003"><a xlink:href="lcd1602__rgb_8c.html#a04d63df3f6caa36888761103435accd8" target="_top" xlink:title="Write a value to an RGB controller register.">
<polygon fill="white" stroke="#666666" points="366,-20 279.5,-20 279.5,0 366,0 366,-20"/>
<text xml:space="preserve" text-anchor="middle" x="322.75" y="-6.5" font-family="Helvetica,sans-Serif" font-size="10.00">lcd1602_setReg</text>
</a>
</g>
</g>
<!-- Node2&#45;&gt;Node3 -->
<g id="edge2_Node000002_Node000003" class="edge">
<title>Node2&#45;&gt;Node3</title>
<g id="a_edge2_Node000002_Node000003"><a xlink:title=" ">
<path fill="none" stroke="#63b8ff" d="M243.9,-10C251.62,-10 259.71,-10 267.65,-10"/>
<polygon fill="#63b8ff" stroke="#63b8ff" points="267.58,-13.5 277.58,-10 267.58,-6.5 267.58,-13.5"/>
</a>
</g>
</g>
</g>
</svg>
