<?xml version="1.0" encoding="UTF-8" standalone="no"?>
<!DOCTYPE svg PUBLIC "-//W3C//DTD SVG 1.1//EN"
 "http://www.w3.org/Graphics/SVG/1.1/DTD/svg11.dtd">
<!-- Generated by graphviz version 14.1.2 (0)
 -->
<!-- Title: Core/Inc/lcd1602_rgb.h Pages: 1 -->
<svg width="430pt" height="196pt"
 viewBox="0.00 0.00 430.00 196.00" xmlns="http://www.w3.org/2000/svg" xmlns:xlink="http://www.w3.org/1999/xlink">
<g id="graph0" class="graph" transform="scale(1 1) rotate(0) translate(4 192)">
<title>Core/Inc/lcd1602_rgb.h</title>
<!-- Node1 -->
<g id="Node000001" class="node">
<title>Node1</title>
<g id="a_Node000001"><a xlink:title="LCD1602 RGB display driver with I2C interface.">
<polygon fill="#999999" stroke="#666666" points="334,-188 216.75,-188 216.75,-168 334,-168 334,-188"/>
<text xml:space="preserve" text-anchor="middle" x="275.38" y="-174.5" font-family="Helvetica,sans-Serif" font-size="10.00">Core/Inc/lcd1602_rgb.h</text>
</a>
</g>
</g>
<!-- Node2 -->
<g id="Node000002" class="node">
<title>Node2</title>
<g id="a_Node000002"><a xlink:href="ui_8h.html" target="_top" xlink:title="User interface module for menu&#45;driven LCD control.">
<polygon fill="white" stroke="#666666" points="214.5,-132 142.25,-132 142.25,-112 214.5,-112 214.5,-132"/>
<text xml:space="preserve" text-anchor="middle" x="178.38" y="-118.5" font-family="Helvetica,sans-Serif" font-size="10.00">Core/Inc/ui.h</text>
</a>
</g>
</g>
<!-- Node1&#45;&gt;Node2 -->
<g id="edge1_Node000001_Node000002" class="edge">
<title>Node1&#45;&gt;Node2</title>
<g id="a_edge1_Node000001_Node000002"><a xlink:title=" ">
<path fill="none" stroke="#63b8ff" d="M248.57,-162.08C231.58,-152.62 210.1,-140.66 195.4,-132.48"/>
<polygon fill="#63b8ff" stroke="#63b8ff" points="246.72,-165.05 257.16,-166.86 250.12,-158.94 246.72,-165.05"/>
</a>
</g>
</g>
<!-- Node5 -->
<g id="Node000005" class="node">
<title>Node5</title>
<g id="a_Node000005"><a xlink:href="main_8c.html" target="_top" xlink:title=": Main program body">
<polygon fill="white" stroke="#666666" points="206,-20 118.75,-20 118.75,0 206,0 206,-20"/>
<text xml:space="preserve" text-anchor="middle" x="162.38" y="-6.5" font-family="Helvetica,sans-Serif" font-size="10.00">Core/Src/main.c</text>
</a>
</g>
</g>
<!-- Node1&#45;&gt;Node5 -->
<g id="edge8_Node000001_Node000005" class="edge">
<title>Node1&#45;&gt;Node5</title>
<g id="a_edge8_Node000001_Node000005"><a xlink:title=" ">
<path fill="none" stroke="#63b8ff" d="M277.61,-156.31C279.3,-130.29 278.32,-85.47 256.38,-56 243.08,-38.15 220.87,-27.06 201.37,-20.36"/>
<polygon fill="#63b8ff" stroke="#63b8ff" points="274.13,-155.95 276.75,-166.21 281.1,-156.55 274.13,-155.95"/>
</a>
</g>
</g>
<!-- Node7 -->
<g id="Node000007" class="node">
<title>Node7</title>
<g id="a_Node000007"><a xlink:href="lcd1602__rgb_8c.html" target="_top" xlink:title="Implementation of LCD1602 RGB display driver.">
<polygon fill="white" stroke="#666666" points="421.75,-132 303,-132 303,-112 421.75,-112 421.75,-132"/>
<text xml:space="preserve" text-anchor="middle" x="362.38" y="-118.5" font-family="Helvetica,sans-Serif" font-size="10.00">Core/Src/lcd1602_rgb.c</text>
</a>
</g>
</g>
<!-- Node1&#45;&gt;Node7 -->
<g id="edge7_Node000001_Node000007" class="edge">
<title>Node1&#45;&gt;Node7</title>
<g id="a_edge7_Node000001_Node000007"><a xlink:title=" ">
<path fill="none" stroke="#63b8ff" d="M300.28,-161.54C315.38,-152.17 334.17,-140.51 347.1,-132.48"/>
<polygon fill="#63b8ff" stroke="#63b8ff" points="298.47,-158.55 291.82,-166.8 302.16,-164.5 298.47,-158.55"/>
</a>
</g>
</g>
<!-- Node3 -->
<g id="Node000003" class="node">
<title>Node3</title>
<g id="a_Node000003"><a xlink:href="encoder_8h.html" target="_top" xlink:title="Rotary encoder driver with interrupt&#45;based rotation detection.">
<polygon fill="white" stroke="#666666" points="117,-76 17.75,-76 17.75,-56 117,-56 117,-76"/>
<text xml:space="preserve" text-anchor="middle" x="67.38" y="-62.5" font-family="Helvetica,sans-Serif" font-size="10.00">Core/Inc/encoder.h</text>
</a>
</g>
</g>
<!-- Node2&#45;&gt;Node3 -->
<g id="edge2_Node000002_Node000003" class="edge">
<title>Node2&#45;&gt;Node3</title>
<g id="a_edge2_Node000002_Node000003"><a xlink:title=" ">
<path fill="none" stroke="#63b8ff" d="M148.8,-106.61C129.18,-97.07 103.99,-84.81 86.86,-76.48"/>
<polygon fill="#63b8ff" stroke="#63b8ff" points="147.16,-109.7 157.68,-110.93 150.22,-103.41 147.16,-109.7"/>
</a>
</g>
</g>
<!-- Node2&#45;&gt;Node5 -->
<g id="edge5_Node000002_Node000005" class="edge">
<title>Node2&#45;&gt;Node5</title>
<g id="a_edge5_Node000002_Node000005"><a xlink:title=" ">
<path fill="none" stroke="#63b8ff" d="M170.8,-100.76C168.28,-93.11 165.76,-84.26 164.38,-76 161.09,-56.4 161.38,-33.03 161.88,-20.33"/>
<polygon fill="#63b8ff" stroke="#63b8ff" points="167.47,-101.84 174.1,-110.1 174.07,-99.51 167.47,-101.84"/>
</a>
</g>
</g>
<!-- Node6 -->
<g id="Node000006" class="node">
<title>Node6</title>
<g id="a_Node000006"><a xlink:href="ui_8c.html" target="_top" xlink:title="Implementation of menu&#45;driven user interface.">
<polygon fill="white" stroke="#666666" points="247.25,-76 173.5,-76 173.5,-56 247.25,-56 247.25,-76"/>
<text xml:space="preserve" text-anchor="middle" x="210.38" y="-62.5" font-family="Helvetica,sans-Serif" font-size="10.00">Core/Src/ui.c</text>
</a>
</g>
</g>
<!-- Node2&#45;&gt;Node6 -->
<g id="edge6_Node000002_Node000006" class="edge">
<title>Node2&#45;&gt;Node6</title>
<g id="a_edge6_Node000002_Node000006"><a xlink:title=" ">
<path fill="none" stroke="#63b8ff" d="M189.71,-101.87C194.86,-93.19 200.71,-83.32 204.86,-76.3"/>
<polygon fill="#63b8ff" stroke="#63b8ff" points="186.81,-99.9 184.72,-110.29 192.83,-103.47 186.81,-99.9"/>
</a>
</g>
</g>
<!-- Node4 -->
<g id="Node000004" class="node">
<title>Node4</title>
<g id="a_Node000004"><a xlink:href="encoder_8c.html" target="_top" xlink:title="Implementation of rotary encoder driver.">
<polygon fill="white" stroke="#666666" points="100.75,-20 0,-20 0,0 100.75,0 100.75,-20"/>
<text xml:space="preserve" text-anchor="middle" x="50.38" y="-6.5" font-family="Helvetica,sans-Serif" font-size="10.00">Core/Src/encoder.c</text>
</a>
</g>
</g>
<!-- Node3&#45;&gt;Node4 -->
<g id="edge3_Node000003_Node000004" class="edge">
<title>Node3&#45;&gt;Node4</title>
<g id="a_edge3_Node000003_Node000004"><a xlink:title=" ">
<path fill="none" stroke="#63b8ff" d="M60.99,-44.71C58.35,-36.32 55.41,-27.01 53.3,-20.3"/>
<polygon fill="#63b8ff" stroke="#63b8ff" points="57.62,-45.66 63.96,-54.15 64.29,-43.56 57.62,-45.66"/>
</a>
</g>
</g>
<!-- Node3&#45;&gt;Node5 -->
<g id="edge4_Node000003_Node000005" class="edge">
<title>Node3&#45;&gt;Node5</title>
<g id="a_edge4_Node000003_Node000005"><a xlink:title=" ">
<path fill="none" stroke="#63b8ff" d="M93.62,-50.08C110.27,-40.62 131.31,-28.66 145.7,-20.48"/>
<polygon fill="#63b8ff" stroke="#63b8ff" points="92.2,-46.86 85.24,-54.85 95.66,-52.95 92.2,-46.86"/>
</a>
</g>
</g>
</g>
</svg>
