<?xml version="1.0" encoding="UTF-8" standalone="no"?>
<!DOCTYPE svg PUBLIC "-//W3C//DTD SVG 1.1//EN"
 "http://www.w3.org/Graphics/SVG/1.1/DTD/svg11.dtd">
<!-- Generated by graphviz version 14.1.2 (0)
 -->
<!-- Title: lcd1602_setReg Pages: 1 -->
<svg width="682pt" height="122pt"
 viewBox="0.00 0.00 682.00 122.00" xmlns="http://www.w3.org/2000/svg" xmlns:xlink="http://www.w3.org/1999/xlink">
<g id="graph0" class="graph" transform="scale(1 1) rotate(0) translate(4 117.95)">
<title>lcd1602_setReg</title>
<!-- Node1 -->
<g id="Node000001" class="node">
<title>Node1</title>
<g id="a_Node000001"><a xlink:title="Write a value to an RGB controller register.">
<polygon fill="#999999" stroke="#666666" points="673.5,-77 587,-77 587,-57 673.5,-57 673.5,-77"/>
<text xml:space="preserve" text-anchor="middle" x="630.25" y="-63.5" font-family="Helvetica,sans-Serif" font-size="10.00">lcd1602_setReg</text>
</a>
</g>
</g>
<!-- Node2 -->
<g id="Node000002" class="node">
<title>Node2</title>
<g id="a_Node000002"><a xlink:href="lcd1602__rgb_8c.html#a971081be754ef4622e54951a306bca10" target="_top" xlink:title="Begin display operation with full initialization sequence.">
<polygon fill="white" stroke="#666666" points="255,-77 176.75,-77 176.75,-57 255,-57 255,-77"/>
<text xml:space="preserve" text-anchor="middle" x="215.88" y="-63.5" font-family="Helvetica,sans-Serif" font-size="10.00">lcd1602_begin</text>
</a>
</g>
</g>
<!-- Node1&#45;&gt;Node2 -->
<g id="edge1_Node000001_Node000002" class="edge">
<title>Node1&#45;&gt;Node2</title>
<g id="a_edge1_Node000001_Node000002"><a xlink:title=" ">
<path fill="none" stroke="#63b8ff" d="M603.39,-83.24C588.65,-91.53 569.48,-100.75 551,-105 441.19,-130.25 307.04,-95.83 247.67,-77.36"/>
<polygon fill="#63b8ff" stroke="#63b8ff" points="605.11,-86.29 611.96,-78.21 601.57,-80.25 605.11,-86.29"/>
</a>
</g>
</g>
<!-- Node5 -->
<g id="Node000005" class="node">
<title>Node5</title>
<g id="a_Node000005"><a xlink:href="lcd1602__rgb_8c.html#a780c08363380f75b7f7b21e452eb6184" target="_top" xlink:title="Enable RGB LED blinking.">
<polygon fill="white" stroke="#666666" points="545.75,-96 449.5,-96 449.5,-76 545.75,-76 545.75,-96"/>
<text xml:space="preserve" text-anchor="middle" x="497.62" y="-82.5" font-family="Helvetica,sans-Serif" font-size="10.00">lcd1602_BlinkLED</text>
</a>
</g>
</g>
<!-- Node1&#45;&gt;Node5 -->
<g id="edge4_Node000001_Node000005" class="edge">
<title>Node1&#45;&gt;Node5</title>
<g id="a_edge4_Node000001_Node000005"><a xlink:title=" ">
<path fill="none" stroke="#63b8ff" d="M575.5,-74.82C565.65,-76.25 555.44,-77.74 545.8,-79.14"/>
<polygon fill="#63b8ff" stroke="#63b8ff" points="575.95,-78.29 585.34,-73.39 574.94,-71.36 575.95,-78.29"/>
</a>
</g>
</g>
<!-- Node6 -->
<g id="Node000006" class="node">
<title>Node6</title>
<g id="a_Node000006"><a xlink:href="lcd1602__rgb_8c.html#a32ec6ae1ce0bb46c6b1083832adb06ad" target="_top" xlink:title="Disable RGB LED blinking.">
<polygon fill="white" stroke="#666666" points="551,-58 444.25,-58 444.25,-38 551,-38 551,-58"/>
<text xml:space="preserve" text-anchor="middle" x="497.62" y="-44.5" font-family="Helvetica,sans-Serif" font-size="10.00">lcd1602_noBlinkLED</text>
</a>
</g>
</g>
<!-- Node1&#45;&gt;Node6 -->
<g id="edge5_Node000001_Node000006" class="edge">
<title>Node1&#45;&gt;Node6</title>
<g id="a_edge5_Node000001_Node000006"><a xlink:title=" ">
<path fill="none" stroke="#63b8ff" d="M575.69,-59.21C567.65,-58.04 559.36,-56.83 551.34,-55.67"/>
<polygon fill="#63b8ff" stroke="#63b8ff" points="574.94,-62.64 585.34,-60.61 575.95,-55.71 574.94,-62.64"/>
</a>
</g>
</g>
<!-- Node7 -->
<g id="Node000007" class="node">
<title>Node7</title>
<g id="a_Node000007"><a xlink:href="lcd1602__rgb_8c.html#a194a9c42a39f341ab1f51a61a75ab1f2" target="_top" xlink:title="Set RGB backlight color.">
<polygon fill="white" stroke="#666666" points="542.75,-20 452.5,-20 452.5,0 542.75,0 542.75,-20"/>
<text xml:space="preserve" text-anchor="middle" x="497.62" y="-6.5" font-family="Helvetica,sans-Serif" font-size="10.00">lcd1602_setRGB</text>
</a>
</g>
</g>
<!-- Node1&#45;&gt;Node7 -->
<g id="edge6_Node000001_Node000007" class="edge">
<title>Node1&#45;&gt;Node7</title>
<g id="a_edge6_Node000001_Node000007"><a xlink:title=" ">
<path fill="none" stroke="#63b8ff" d="M599.37,-51.58C584.92,-44.36 567.23,-35.86 551,-29 543.96,-26.02 536.28,-23.08 529.02,-20.42"/>
<polygon fill="#63b8ff" stroke="#63b8ff" points="597.39,-54.51 607.9,-55.89 600.55,-48.26 597.39,-54.51"/>
</a>
</g>
</g>
<!-- Node3 -->
<g id="Node000003" class="node">
<title>Node3</title>
<g id="a_Node000003"><a xlink:href="lcd1602__rgb_8c.html#a46c1528764d32608b85028f9f6a13dc6" target="_top" xlink:title="Initialize the LCD display.">
<polygon fill="white" stroke="#666666" points="140.75,-77 73,-77 73,-57 140.75,-57 140.75,-77"/>
<text xml:space="preserve" text-anchor="middle" x="106.88" y="-63.5" font-family="Helvetica,sans-Serif" font-size="10.00">lcd1602_init</text>
</a>
</g>
</g>
<!-- Node2&#45;&gt;Node3 -->
<g id="edge2_Node000002_Node000003" class="edge">
<title>Node2&#45;&gt;Node3</title>
<g id="a_edge2_Node000002_Node000003"><a xlink:title=" ">
<path fill="none" stroke="#63b8ff" d="M165.13,-67C156.94,-67 148.63,-67 140.98,-67"/>
<polygon fill="#63b8ff" stroke="#63b8ff" points="165.03,-70.5 175.03,-67 165.03,-63.5 165.03,-70.5"/>
</a>
</g>
</g>
<!-- Node4 -->
<g id="Node000004" class="node">
<title>Node4</title>
<g id="a_Node000004"><a xlink:href="main_8c.html#a840291bc02cba5474a4cb46a9b9566fe" target="_top" xlink:title="The application entry point.">
<polygon fill="white" stroke="#666666" points="37,-77 0,-77 0,-57 37,-57 37,-77"/>
<text xml:space="preserve" text-anchor="middle" x="18.5" y="-63.5" font-family="Helvetica,sans-Serif" font-size="10.00">main</text>
</a>
</g>
</g>
<!-- Node3&#45;&gt;Node4 -->
<g id="edge3_Node000003_Node000004" class="edge">
<title>Node3&#45;&gt;Node4</title>
<g id="a_edge3_Node000003_Node000004"><a xlink:title=" ">
<path fill="none" stroke="#63b8ff" d="M61.29,-67C52.84,-67 44.47,-67 37.46,-67"/>
<polygon fill="#63b8ff" stroke="#63b8ff" points="61.21,-70.5 71.21,-67 61.21,-63.5 61.21,-70.5"/>
</a>
</g>
</g>
<!-- Node8 -->
<g id="Node000008" class="node">
<title>Node8</title>
<g id="a_Node000008"><a xlink:href="lcd1602__rgb_8c.html#accc7208e7b9a4f0cb58891d91fdbf759" target="_top" xlink:title="Set backlight to white (full brightness all colors).">
<polygon fill="white" stroke="#666666" points="408.25,-58 291,-58 291,-38 408.25,-38 408.25,-58"/>
<text xml:space="preserve" text-anchor="middle" x="349.62" y="-44.5" font-family="Helvetica,sans-Serif" font-size="10.00">lcd1602_setColorWhite</text>
</a>
</g>
</g>
<!-- Node7&#45;&gt;Node8 -->
<g id="edge7_Node000007_Node000008" class="edge">
<title>Node7&#45;&gt;Node8</title>
<g id="a_edge7_Node000007_Node000008"><a xlink:title=" ">
<path fill="none" stroke="#63b8ff" d="M445.22,-23.38C427.36,-28.03 407.6,-33.17 390.78,-37.55"/>
<polygon fill="#63b8ff" stroke="#63b8ff" points="446.08,-26.77 454.88,-20.87 444.32,-20 446.08,-26.77"/>
</a>
</g>
</g>
<!-- Node8&#45;&gt;Node2 -->
<g id="edge8_Node000008_Node000002" class="edge">
<title>Node8&#45;&gt;Node2</title>
<g id="a_edge8_Node000008_Node000002"><a xlink:title=" ">
<path fill="none" stroke="#63b8ff" d="M279.5,-57.97C271.18,-59.17 262.94,-60.36 255.29,-61.46"/>
<polygon fill="#63b8ff" stroke="#63b8ff" points="279.94,-61.44 289.34,-56.55 278.94,-54.51 279.94,-61.44"/>
</a>
</g>
</g>
</g>
</svg>
