<?xml version="1.0" encoding="UTF-8" standalone="no"?>
<!DOCTYPE svg PUBLIC "-//W3C//DTD SVG 1.1//EN"
 "http://www.w3.org/Graphics/SVG/1.1/DTD/svg11.dtd">
<!-- Generated by graphviz version 14.1.2 (0)
 -->
<!-- Title: lcd1602_begin Pages: 1 -->
<svg width="496pt" height="172pt"
 viewBox="0.00 0.00 496.00 172.00" xmlns="http://www.w3.org/2000/svg" xmlns:xlink="http://www.w3.org/1999/xlink">

<svg id="main" version="1.1" xmlns="http://www.w3.org/2000/svg" xmlns:xlink="http://www.w3.org/1999/xlink" xml:space="preserve">

<style type="text/css"><![CDATA[
.node, .edge {opacity: 0.7;}
.node.selected, .edge.selected {opacity: 1;}
.edge:hover path { stroke: red; }
.edge:hover polygon { stroke: red; fill: red; }
]]></style>
<script type="application/ecmascript" xlink:href="svg.min.js"/>
<svg id="graph" class="graph">
<g id="graph0" class="graph" transform="scale(1 1) rotate(0) translate(4 167.96)">
<title>lcd1602_begin</title>
<!-- Node1 -->
<g id="Node000001" class="node">
<title>Node1</title>
<g id="a_Node000001"><a xlink:title="Begin display operation with full initialization sequence.">
<polygon fill="#999999" stroke="#666666" points="78.25,-87.96 0,-87.96 0,-67.96 78.25,-67.96 78.25,-87.96"/>
<text xml:space="preserve" text-anchor="middle" x="39.12" y="-74.46" font-family="Helvetica,sans-Serif" font-size="10.00">lcd1602_begin</text>
</a>
</g>
</g>
<!-- Node2 -->
<g id="Node000002" class="node">
<title>Node2</title>
<g id="a_Node000002"><a xlink:href="lcd1602__rgb_8c.html#af0c1d216ce5b0f77cdb3cbfebb180ac4" target="_top" xlink:title="Clear the display and return cursor to home.">
<polygon fill="white" stroke="#666666" points="210.88,-163.96 134.88,-163.96 134.88,-143.96 210.88,-143.96 210.88,-163.96"/>
<text xml:space="preserve" text-anchor="middle" x="172.88" y="-150.46" font-family="Helvetica,sans-Serif" font-size="10.00">lcd1602_clear</text>
</a>
</g>
</g>
<!-- Node1&#45;&gt;Node2 -->
<g id="edge1_Node000001_Node000002" class="edge">
<title>Node1&#45;&gt;Node2</title>
<g id="a_edge1_Node000001_Node000002"><a xlink:title=" ">
<path fill="none" stroke="#63b8ff" d="M52.95,-88.26C67.3,-99.46 91.53,-117.45 114.25,-129.96 120.15,-133.21 126.58,-136.29 132.94,-139.1"/>
<polygon fill="#63b8ff" stroke="#63b8ff" points="131.49,-142.29 142.06,-142.96 134.22,-135.84 131.49,-142.29"/>
</a>
</g>
</g>
<!-- Node3 -->
<g id="Node000003" class="node">
<title>Node3</title>
<g id="a_Node000003"><a xlink:href="lcd1602__rgb_8c.html#a0f2acca4c1aa5a1126b031e719beb4df" target="_top" xlink:title="Send a command byte to the LCD.">
<polygon fill="white" stroke="#666666" points="365.25,-125.96 267.5,-125.96 267.5,-105.96 365.25,-105.96 365.25,-125.96"/>
<text xml:space="preserve" text-anchor="middle" x="316.38" y="-112.46" font-family="Helvetica,sans-Serif" font-size="10.00">lcd1602_command</text>
</a>
</g>
</g>
<!-- Node1&#45;&gt;Node3 -->
<g id="edge4_Node000001_Node000003" class="edge">
<title>Node1&#45;&gt;Node3</title>
<g id="a_edge4_Node000001_Node000003"><a xlink:title=" ">
<path fill="none" stroke="#63b8ff" d="M76.07,-88.38C88.12,-91.55 101.69,-94.77 114.25,-96.96 161.42,-105.18 215.48,-110.04 255.67,-112.78"/>
<polygon fill="#63b8ff" stroke="#63b8ff" points="255.42,-116.27 265.63,-113.43 255.88,-109.28 255.42,-116.27"/>
</a>
</g>
</g>
<!-- Node5 -->
<g id="Node000005" class="node">
<title>Node5</title>
<g id="a_Node000005"><a xlink:href="lcd1602__rgb_8c.html#a63497d3efb539cc2db79a2ef8de2f1fa" target="_top" xlink:title="Turn on the display.">
<polygon fill="white" stroke="#666666" points="215.75,-87.96 130,-87.96 130,-67.96 215.75,-67.96 215.75,-87.96"/>
<text xml:space="preserve" text-anchor="middle" x="172.88" y="-74.46" font-family="Helvetica,sans-Serif" font-size="10.00">lcd1602_display</text>
</a>
</g>
</g>
<!-- Node1&#45;&gt;Node5 -->
<g id="edge5_Node000001_Node000005" class="edge">
<title>Node1&#45;&gt;Node5</title>
<g id="a_edge5_Node000001_Node000005"><a xlink:title=" ">
<path fill="none" stroke="#63b8ff" d="M78.59,-77.96C91.04,-77.96 105.09,-77.96 118.43,-77.96"/>
<polygon fill="#63b8ff" stroke="#63b8ff" points="118.39,-81.46 128.39,-77.96 118.39,-74.46 118.39,-81.46"/>
</a>
</g>
</g>
<!-- Node6 -->
<g id="Node000006" class="node">
<title>Node6</title>
<g id="a_Node000006"><a xlink:href="lcd1602__rgb_8c.html#accc7208e7b9a4f0cb58891d91fdbf759" target="_top" xlink:title="Set backlight to white (full brightness all colors).">
<polygon fill="white" stroke="#666666" points="231.5,-49.96 114.25,-49.96 114.25,-29.96 231.5,-29.96 231.5,-49.96"/>
<text xml:space="preserve" text-anchor="middle" x="172.88" y="-36.46" font-family="Helvetica,sans-Serif" font-size="10.00">lcd1602_setColorWhite</text>
</a>
</g>
</g>
<!-- Node1&#45;&gt;Node6 -->
<g id="edge7_Node000001_Node000006" class="edge">
<title>Node1&#45;&gt;Node6</title>
<g id="a_edge7_Node000001_Node000006"><a xlink:title=" ">
<path fill="none" stroke="#63b8ff" d="M76.48,-67.47C91.45,-63.15 108.99,-58.09 124.92,-53.5"/>
<polygon fill="#63b8ff" stroke="#63b8ff" points="125.55,-56.96 134.19,-50.83 123.61,-50.24 125.55,-56.96"/>
</a>
</g>
</g>
<!-- Node8 -->
<g id="Node000008" class="node">
<title>Node8</title>
<g id="a_Node000008"><a xlink:href="lcd1602__rgb_8c.html#a04d63df3f6caa36888761103435accd8" target="_top" xlink:title="Write a value to an RGB controller register.">
<polygon fill="white" stroke="#666666" points="487.75,-30.96 401.25,-30.96 401.25,-10.96 487.75,-10.96 487.75,-30.96"/>
<text xml:space="preserve" text-anchor="middle" x="444.5" y="-17.46" font-family="Helvetica,sans-Serif" font-size="10.00">lcd1602_setReg</text>
</a>
</g>
</g>
<!-- Node1&#45;&gt;Node8 -->
<g id="edge10_Node000001_Node000008" class="edge">
<title>Node1&#45;&gt;Node8</title>
<g id="a_edge10_Node000001_Node000008"><a xlink:title=" ">
<path fill="none" stroke="#63b8ff" d="M48.96,-67.9C61.74,-54.18 86.89,-30.26 114.25,-20.96 206.98,10.57 323.07,-0.1 389.71,-10.61"/>
<polygon fill="#63b8ff" stroke="#63b8ff" points="388.84,-14.02 399.27,-12.18 389.97,-7.11 388.84,-14.02"/>
</a>
</g>
</g>
<!-- Node2&#45;&gt;Node3 -->
<g id="edge2_Node000002_Node000003" class="edge">
<title>Node2&#45;&gt;Node3</title>
<g id="a_edge2_Node000002_Node000003"><a xlink:title=" ">
<path fill="none" stroke="#63b8ff" d="M211.05,-143.97C227.73,-139.49 247.66,-134.14 265.6,-129.32"/>
<polygon fill="#63b8ff" stroke="#63b8ff" points="266.26,-132.77 275.01,-126.8 264.44,-126.01 266.26,-132.77"/>
</a>
</g>
</g>
<!-- Node4 -->
<g id="Node000004" class="node">
<title>Node4</title>
<g id="a_Node000004"><a xlink:href="lcd1602__rgb_8c.html#af833ec77ef44dc848f52a09072a777ae" target="_top" xlink:title="Send raw data bytes to the LCD via I2C.">
<polygon fill="white" stroke="#666666" points="482.5,-125.96 406.5,-125.96 406.5,-105.96 482.5,-105.96 482.5,-125.96"/>
<text xml:space="preserve" text-anchor="middle" x="444.5" y="-112.46" font-family="Helvetica,sans-Serif" font-size="10.00">lcd1602_send</text>
</a>
</g>
</g>
<!-- Node3&#45;&gt;Node4 -->
<g id="edge3_Node000003_Node000004" class="edge">
<title>Node3&#45;&gt;Node4</title>
<g id="a_edge3_Node000003_Node000004"><a xlink:title=" ">
<path fill="none" stroke="#63b8ff" d="M365.42,-115.96C375.02,-115.96 385.11,-115.96 394.74,-115.96"/>
<polygon fill="#63b8ff" stroke="#63b8ff" points="394.67,-119.46 404.67,-115.96 394.67,-112.46 394.67,-119.46"/>
</a>
</g>
</g>
<!-- Node5&#45;&gt;Node3 -->
<g id="edge6_Node000005_Node000003" class="edge">
<title>Node5&#45;&gt;Node3</title>
<g id="a_edge6_Node000005_Node000003"><a xlink:title=" ">
<path fill="none" stroke="#63b8ff" d="M212.92,-88.44C229.15,-92.8 248.2,-97.92 265.44,-102.55"/>
<polygon fill="#63b8ff" stroke="#63b8ff" points="264.43,-105.9 275,-105.12 266.25,-99.14 264.43,-105.9"/>
</a>
</g>
</g>
<!-- Node7 -->
<g id="Node000007" class="node">
<title>Node7</title>
<g id="a_Node000007"><a xlink:href="lcd1602__rgb_8c.html#a194a9c42a39f341ab1f51a61a75ab1f2" target="_top" xlink:title="Set RGB backlight color.">
<polygon fill="white" stroke="#666666" points="361.5,-49.96 271.25,-49.96 271.25,-29.96 361.5,-29.96 361.5,-49.96"/>
<text xml:space="preserve" text-anchor="middle" x="316.38" y="-36.46" font-family="Helvetica,sans-Serif" font-size="10.00">lcd1602_setRGB</text>
</a>
</g>
</g>
<!-- Node6&#45;&gt;Node7 -->
<g id="edge8_Node000006_Node000007" class="edge">
<title>Node6&#45;&gt;Node7</title>
<g id="a_edge8_Node000006_Node000007"><a xlink:title=" ">
<path fill="none" stroke="#63b8ff" d="M231.84,-39.96C241.07,-39.96 250.6,-39.96 259.77,-39.96"/>
<polygon fill="#63b8ff" stroke="#63b8ff" points="259.64,-43.46 269.64,-39.96 259.64,-36.46 259.64,-43.46"/>
</a>
</g>
</g>
<!-- Node7&#45;&gt;Node8 -->
<g id="edge9_Node000007_Node000008" class="edge">
<title>Node7&#45;&gt;Node8</title>
<g id="a_edge9_Node000007_Node000008"><a xlink:title=" ">
<path fill="none" stroke="#63b8ff" d="M361.84,-33.26C370.92,-31.89 380.56,-30.44 389.91,-29.03"/>
<polygon fill="#63b8ff" stroke="#63b8ff" points="390.26,-32.52 399.63,-27.57 389.22,-25.6 390.26,-32.52"/>
</a>
</g>
</g>
</g>
</svg>
</svg>

<style type='text/css'>
<![CDATA[
[data-mouse-over-selected='false'] { opacity: 0.7; }
[data-mouse-over-selected='true']  { opacity: 1.0; }
]]>
</style>
<script type="application/ecmascript"><![CDATA[
document.addEventListener('DOMContentLoaded', (event) => {
  highlightEdges();
  highlightAdjacentNodes();
});
]]></script>
</svg>
