<?xml version="1.0" encoding="UTF-8" standalone="no"?>
<!DOCTYPE svg PUBLIC "-//W3C//DTD SVG 1.1//EN"
 "http://www.w3.org/Graphics/SVG/1.1/DTD/svg11.dtd">
<!-- Generated by graphviz version 14.1.2 (0)
 -->
<!-- Title: lcd1602_send_string Pages: 1 -->
<svg width="361pt" height="28pt"
 viewBox="0.00 0.00 361.00 28.00" xmlns="http://www.w3.org/2000/svg" xmlns:xlink="http://www.w3.org/1999/xlink">
<g id="graph0" class="graph" transform="scale(1 1) rotate(0) translate(4 24)">
<title>lcd1602_send_string</title>
<!-- Node1 -->
<g id="Node000001" class="node">
<title>Node1</title>
<g id="a_Node000001"><a xlink:title="Write a null&#45;terminated string to the display.">
<polygon fill="#999999" stroke="#666666" points="105.25,-20 0,-20 0,0 105.25,0 105.25,-20"/>
<text xml:space="preserve" text-anchor="middle" x="52.62" y="-6.5" font-family="Helvetica,sans-Serif" font-size="10.00">lcd1602_send_string</text>
</a>
</g>
</g>
<!-- Node2 -->
<g id="Node000002" class="node">
<title>Node2</title>
<g id="a_Node000002"><a xlink:href="lcd1602__rgb_8c.html#ab95d5708eabcbaa2bf3ca2b155fcefe3" target="_top" xlink:title="Write a single character to the display.">
<polygon fill="white" stroke="#666666" points="241.25,-20 141.25,-20 141.25,0 241.25,0 241.25,-20"/>
<text xml:space="preserve" text-anchor="middle" x="191.25" y="-6.5" font-family="Helvetica,sans-Serif" font-size="10.00">lcd1602_write_char</text>
</a>
</g>
</g>
<!-- Node1&#45;&gt;Node2 -->
<g id="edge1_Node000001_Node000002" class="edge">
<title>Node1&#45;&gt;Node2</title>
<g id="a_edge1_Node000001_Node000002"><a xlink:title=" ">
<path fill="none" stroke="#63b8ff" d="M105.67,-10C113.56,-10 121.76,-10 129.81,-10"/>
<polygon fill="#63b8ff" stroke="#63b8ff" points="129.54,-13.5 139.54,-10 129.54,-6.5 129.54,-13.5"/>
</a>
</g>
</g>
<!-- Node3 -->
<g id="Node000003" class="node">
<title>Node3</title>
<g id="a_Node000003"><a xlink:href="lcd1602__rgb_8c.html#af833ec77ef44dc848f52a09072a777ae" target="_top" xlink:title="Send raw data bytes to the LCD via I2C.">
<polygon fill="white" stroke="#666666" points="353.25,-20 277.25,-20 277.25,0 353.25,0 353.25,-20"/>
<text xml:space="preserve" text-anchor="middle" x="315.25" y="-6.5" font-family="Helvetica,sans-Serif" font-size="10.00">lcd1602_send</text>
</a>
</g>
</g>
<!-- Node2&#45;&gt;Node3 -->
<g id="edge2_Node000002_Node000003" class="edge">
<title>Node2&#45;&gt;Node3</title>
<g id="a_edge2_Node000002_Node000003"><a xlink:title=" ">
<path fill="none" stroke="#63b8ff" d="M241.52,-10C249.43,-10 257.61,-10 265.51,-10"/>
<polygon fill="#63b8ff" stroke="#63b8ff" points="265.29,-13.5 275.29,-10 265.29,-6.5 265.29,-13.5"/>
</a>
</g>
</g>
</g>
</svg>
