<?xml version="1.0" encoding="UTF-8" standalone="no"?>
<!DOCTYPE svg PUBLIC "-//W3C//DTD SVG 1.1//EN"
 "http://www.w3.org/Graphics/SVG/1.1/DTD/svg11.dtd">
<!-- Generated by graphviz version 14.1.2 (0)
 -->
<!-- Title: lcd1602_send_string Pages: 1 -->
<svg width="482pt" height="330pt"
 viewBox="0.00 0.00 482.00 330.00" xmlns="http://www.w3.org/2000/svg" xmlns:xlink="http://www.w3.org/1999/xlink">

<svg id="main" version="1.1" xmlns="http://www.w3.org/2000/svg" xmlns:xlink="http://www.w3.org/1999/xlink" xml:space="preserve">

<style type="text/css"><![CDATA[
.node, .edge {opacity: 0.7;}
.node.selected, .edge.selected {opacity: 1;}
.edge:hover path { stroke: red; }
.edge:hover polygon { stroke: red; fill: red; }
]]></style>
<script type="application/ecmascript" xlink:href="svg.min.js"/>
<svg id="graph" class="graph">
<g id="graph0" class="graph" transform="scale(1 1) rotate(0) translate(4 326)">
<title>lcd1602_send_string</title>
<!-- Node1 -->
<g id="Node000001" class="node">
<title>Node1</title>
<g id="a_Node000001"><a xlink:title="Write a null&#45;terminated string to the display.">
<polygon fill="#999999" stroke="#666666" points="474.25,-174 369,-174 369,-154 474.25,-154 474.25,-174"/>
<text xml:space="preserve" text-anchor="middle" x="421.62" y="-160.5" font-family="Helvetica,sans-Serif" font-size="10.00">lcd1602_send_string</text>
</a>
</g>
</g>
<!-- Node2 -->
<g id="Node000002" class="node">
<title>Node2</title>
<g id="a_Node000002"><a xlink:href="ui_8c.html#ab08bf40f29760a62fbea13ac28c412b6" target="_top" xlink:title="Display two rows of text on the LCD.">
<polygon fill="white" stroke="#666666" points="333,-174 267.5,-174 267.5,-154 333,-154 333,-174"/>
<text xml:space="preserve" text-anchor="middle" x="300.25" y="-160.5" font-family="Helvetica,sans-Serif" font-size="10.00">ui_print_lcd</text>
</a>
</g>
</g>
<!-- Node1&#45;&gt;Node2 -->
<g id="edge1_Node000001_Node000002" class="edge">
<title>Node1&#45;&gt;Node2</title>
<g id="a_edge1_Node000001_Node000002"><a xlink:title=" ">
<path fill="none" stroke="#63b8ff" d="M357.24,-164C348.9,-164 340.65,-164 333.16,-164"/>
<polygon fill="#63b8ff" stroke="#63b8ff" points="357.1,-167.5 367.1,-164 357.1,-160.5 357.1,-167.5"/>
</a>
</g>
</g>
<!-- Node3 -->
<g id="Node000003" class="node">
<title>Node3</title>
<g id="a_Node000003"><a xlink:href="ui_8c.html#a9cd652642569d6902183444cd519cc25" target="_top" xlink:title="Handle CREATE_PROGRAM menu state.">
<polygon fill="white" stroke="#666666" points="228.12,-322 97.38,-322 97.38,-302 228.12,-302 228.12,-322"/>
<text xml:space="preserve" text-anchor="middle" x="162.75" y="-308.5" font-family="Helvetica,sans-Serif" font-size="10.00">ui_update_create_program</text>
</a>
</g>
</g>
<!-- Node2&#45;&gt;Node3 -->
<g id="edge2_Node000002_Node000003" class="edge">
<title>Node2&#45;&gt;Node3</title>
<g id="a_edge2_Node000002_Node000003"><a xlink:title=" ">
<path fill="none" stroke="#63b8ff" d="M293.91,-184.92C285.5,-213.59 266.43,-264.74 231.5,-293 227.23,-296.46 222.36,-299.29 217.25,-301.6"/>
<polygon fill="#63b8ff" stroke="#63b8ff" points="297.2,-186.17 296.47,-175.6 290.45,-184.32 297.2,-186.17"/>
</a>
</g>
</g>
<!-- Node5 -->
<g id="Node000005" class="node">
<title>Node5</title>
<g id="a_Node000005"><a xlink:href="ui_8c.html#a7328c75524fbd4c255db4ee57d587e16" target="_top" xlink:title="Handle CREATE_PROGRAM_DETAILED menu state.">
<polygon fill="white" stroke="#666666" points="228.12,-284 97.38,-284 97.38,-252 228.12,-252 228.12,-284"/>
<text xml:space="preserve" text-anchor="start" x="105.38" y="-270.5" font-family="Helvetica,sans-Serif" font-size="10.00">ui_update_create_program</text>
<text xml:space="preserve" text-anchor="middle" x="162.75" y="-258.5" font-family="Helvetica,sans-Serif" font-size="10.00">_detailed</text>
</a>
</g>
</g>
<!-- Node2&#45;&gt;Node5 -->
<g id="edge4_Node000002_Node000005" class="edge">
<title>Node2&#45;&gt;Node5</title>
<g id="a_edge4_Node000002_Node000005"><a xlink:title=" ">
<path fill="none" stroke="#63b8ff" d="M286.59,-183.84C274.39,-201.54 254.44,-227.05 231.5,-243 226.87,-246.22 221.77,-249.08 216.52,-251.61"/>
<polygon fill="#63b8ff" stroke="#63b8ff" points="289.37,-185.98 292,-175.71 283.54,-182.1 289.37,-185.98"/>
</a>
</g>
</g>
<!-- Node6 -->
<g id="Node000006" class="node">
<title>Node6</title>
<g id="a_Node000006"><a xlink:href="ui_8c.html#ab9762754190f18740cddebbe0d59b309" target="_top" xlink:title="Handle PROGRAM_DETAILED menu state.">
<polygon fill="white" stroke="#666666" points="231.5,-234 94,-234 94,-214 231.5,-214 231.5,-234"/>
<text xml:space="preserve" text-anchor="middle" x="162.75" y="-220.5" font-family="Helvetica,sans-Serif" font-size="10.00">ui_update_program_detailed</text>
</a>
</g>
</g>
<!-- Node2&#45;&gt;Node6 -->
<g id="edge6_Node000002_Node000006" class="edge">
<title>Node2&#45;&gt;Node6</title>
<g id="a_edge6_Node000002_Node000006"><a xlink:title=" ">
<path fill="none" stroke="#63b8ff" d="M275.49,-180.56C262.87,-188.78 246.83,-198.36 231.5,-205 223.99,-208.25 215.77,-211.11 207.73,-213.54"/>
<polygon fill="#63b8ff" stroke="#63b8ff" points="277.18,-183.64 283.55,-175.17 273.29,-177.82 277.18,-183.64"/>
</a>
</g>
</g>
<!-- Node7 -->
<g id="Node000007" class="node">
<title>Node7</title>
<g id="a_Node000007"><a xlink:href="ui_8c.html#a3b5feeaa3b12e5b763ca3bada8a6f185" target="_top" xlink:title="Handle PROGRAMS main menu state.">
<polygon fill="white" stroke="#666666" points="214.62,-196 110.88,-196 110.88,-176 214.62,-176 214.62,-196"/>
<text xml:space="preserve" text-anchor="middle" x="162.75" y="-182.5" font-family="Helvetica,sans-Serif" font-size="10.00">ui_update_programs</text>
</a>
</g>
</g>
<!-- Node2&#45;&gt;Node7 -->
<g id="edge8_Node000002_Node000007" class="edge">
<title>Node2&#45;&gt;Node7</title>
<g id="a_edge8_Node000002_Node000007"><a xlink:title=" ">
<path fill="none" stroke="#63b8ff" d="M256.07,-171.01C243,-173.13 228.51,-175.49 214.96,-177.68"/>
<polygon fill="#63b8ff" stroke="#63b8ff" points="256.33,-174.51 265.64,-169.46 255.21,-167.6 256.33,-174.51"/>
</a>
</g>
</g>
<!-- Node8 -->
<g id="Node000008" class="node">
<title>Node8</title>
<g id="a_Node000008"><a xlink:href="ui_8c.html#aaf5cd0f82052c1fe3150ee31bee733c3" target="_top" xlink:title="Handle PROGRAMS_OVERVIEW menu state.">
<polygon fill="white" stroke="#666666" points="214.62,-158 110.88,-158 110.88,-126 214.62,-126 214.62,-158"/>
<text xml:space="preserve" text-anchor="start" x="118.88" y="-144.5" font-family="Helvetica,sans-Serif" font-size="10.00">ui_update_programs</text>
<text xml:space="preserve" text-anchor="middle" x="162.75" y="-132.5" font-family="Helvetica,sans-Serif" font-size="10.00">_overview</text>
</a>
</g>
</g>
<!-- Node2&#45;&gt;Node8 -->
<g id="edge10_Node000002_Node000008" class="edge">
<title>Node2&#45;&gt;Node8</title>
<g id="a_edge10_Node000002_Node000008"><a xlink:title=" ">
<path fill="none" stroke="#63b8ff" d="M256.07,-156.99C243,-154.87 228.51,-152.51 214.96,-150.32"/>
<polygon fill="#63b8ff" stroke="#63b8ff" points="255.21,-160.4 265.64,-158.54 256.33,-153.49 255.21,-160.4"/>
</a>
</g>
</g>
<!-- Node9 -->
<g id="Node000009" class="node">
<title>Node9</title>
<g id="a_Node000009"><a xlink:href="ui_8c.html#a69020987570a087f78cc6e830c66d003" target="_top" xlink:title="Handle SETPOINT menu state.">
<polygon fill="white" stroke="#666666" points="211.62,-108 113.88,-108 113.88,-88 211.62,-88 211.62,-108"/>
<text xml:space="preserve" text-anchor="middle" x="162.75" y="-94.5" font-family="Helvetica,sans-Serif" font-size="10.00">ui_update_setpoint</text>
</a>
</g>
</g>
<!-- Node2&#45;&gt;Node9 -->
<g id="edge12_Node000002_Node000009" class="edge">
<title>Node2&#45;&gt;Node9</title>
<g id="a_edge12_Node000002_Node000009"><a xlink:title=" ">
<path fill="none" stroke="#63b8ff" d="M278.14,-146.6C265.31,-136.76 248.22,-124.87 231.5,-117 224.43,-113.67 216.66,-110.82 208.98,-108.41"/>
<polygon fill="#63b8ff" stroke="#63b8ff" points="275.84,-149.25 285.85,-152.7 280.18,-143.76 275.84,-149.25"/>
</a>
</g>
</g>
<!-- Node10 -->
<g id="Node000010" class="node">
<title>Node10</title>
<g id="a_Node000010"><a xlink:href="ui_8c.html#a02da7ed57381740b440cbbf67658edb7" target="_top" xlink:title="Handle SETTINGS main menu state.">
<polygon fill="white" stroke="#666666" points="211.62,-70 113.88,-70 113.88,-50 211.62,-50 211.62,-70"/>
<text xml:space="preserve" text-anchor="middle" x="162.75" y="-56.5" font-family="Helvetica,sans-Serif" font-size="10.00">ui_update_settings</text>
</a>
</g>
</g>
<!-- Node2&#45;&gt;Node10 -->
<g id="edge14_Node000002_Node000010" class="edge">
<title>Node2&#45;&gt;Node10</title>
<g id="a_edge14_Node000002_Node000010"><a xlink:title=" ">
<path fill="none" stroke="#63b8ff" d="M288.15,-143.68C276.52,-124.26 256.46,-95.56 231.5,-79 225.6,-75.08 218.89,-71.97 212.05,-69.49"/>
<polygon fill="#63b8ff" stroke="#63b8ff" points="285.1,-145.39 293.11,-152.32 291.17,-141.9 285.1,-145.39"/>
</a>
</g>
</g>
<!-- Node11 -->
<g id="Node000011" class="node">
<title>Node11</title>
<g id="a_Node000011"><a xlink:href="ui_8c.html#ae12e11d5bc28a67cea4da70fe20127c3" target="_top" xlink:title="Handle SETTINGS_OVERVIEW menu state.">
<polygon fill="white" stroke="#666666" points="211.62,-32 113.88,-32 113.88,0 211.62,0 211.62,-32"/>
<text xml:space="preserve" text-anchor="start" x="121.88" y="-18.5" font-family="Helvetica,sans-Serif" font-size="10.00">ui_update_settings</text>
<text xml:space="preserve" text-anchor="middle" x="162.75" y="-6.5" font-family="Helvetica,sans-Serif" font-size="10.00">_overview</text>
</a>
</g>
</g>
<!-- Node2&#45;&gt;Node11 -->
<g id="edge16_Node000002_Node000011" class="edge">
<title>Node2&#45;&gt;Node11</title>
<g id="a_edge16_Node000002_Node000011"><a xlink:title=" ">
<path fill="none" stroke="#63b8ff" d="M292.92,-143.25C283.65,-116.13 263.86,-68.84 231.5,-41 225.8,-36.09 219.05,-32.11 212.05,-28.9"/>
<polygon fill="#63b8ff" stroke="#63b8ff" points="289.47,-143.96 295.89,-152.39 296.13,-141.8 289.47,-143.96"/>
</a>
</g>
</g>
<!-- Node4 -->
<g id="Node000004" class="node">
<title>Node4</title>
<g id="a_Node000004"><a xlink:href="ui_8c.html#a1c0a0e3c37fa619fc105b56716b1e08a" target="_top" xlink:title="Main UI state machine update function.">
<polygon fill="white" stroke="#666666" points="58,-174 0,-174 0,-154 58,-154 58,-174"/>
<text xml:space="preserve" text-anchor="middle" x="29" y="-160.5" font-family="Helvetica,sans-Serif" font-size="10.00">ui_update</text>
</a>
</g>
</g>
<!-- Node3&#45;&gt;Node4 -->
<g id="edge3_Node000003_Node000004" class="edge">
<title>Node3&#45;&gt;Node4</title>
<g id="a_edge3_Node000003_Node000004"><a xlink:title=" ">
<path fill="none" stroke="#63b8ff" d="M98.04,-296.04C96.64,-295.08 95.29,-294.07 94,-293 55.11,-260.78 37.75,-199.09 32.15,-174.5"/>
<polygon fill="#63b8ff" stroke="#63b8ff" points="96.08,-298.95 106.51,-300.8 99.51,-292.85 96.08,-298.95"/>
</a>
</g>
</g>
<!-- Node5&#45;&gt;Node4 -->
<g id="edge5_Node000005_Node000004" class="edge">
<title>Node5&#45;&gt;Node4</title>
<g id="a_edge5_Node000005_Node000004"><a xlink:title=" ">
<path fill="none" stroke="#63b8ff" d="M98.78,-246.18C97.14,-245.17 95.54,-244.1 94,-243 67.46,-223.98 45.85,-191.19 35.91,-174.47"/>
<polygon fill="#63b8ff" stroke="#63b8ff" points="96.77,-249.08 107.22,-250.84 100.15,-242.95 96.77,-249.08"/>
</a>
</g>
</g>
<!-- Node6&#45;&gt;Node4 -->
<g id="edge7_Node000006_Node000004" class="edge">
<title>Node6&#45;&gt;Node4</title>
<g id="a_edge7_Node000006_Node000004"><a xlink:title=" ">
<path fill="none" stroke="#63b8ff" d="M106.57,-210.02C102.26,-208.48 98.02,-206.8 94,-205 75.46,-196.68 56.06,-183.54 43.55,-174.38"/>
<polygon fill="#63b8ff" stroke="#63b8ff" points="105.31,-213.29 115.91,-213.11 107.51,-206.65 105.31,-213.29"/>
</a>
</g>
</g>
<!-- Node7&#45;&gt;Node4 -->
<g id="edge9_Node000007_Node000004" class="edge">
<title>Node7&#45;&gt;Node4</title>
<g id="a_edge9_Node000007_Node000004"><a xlink:title=" ">
<path fill="none" stroke="#63b8ff" d="M99.47,-175.6C85,-173.18 70.31,-170.73 58.18,-168.71"/>
<polygon fill="#63b8ff" stroke="#63b8ff" points="98.5,-178.99 108.94,-177.18 99.65,-172.08 98.5,-178.99"/>
</a>
</g>
</g>
<!-- Node8&#45;&gt;Node4 -->
<g id="edge11_Node000008_Node000004" class="edge">
<title>Node8&#45;&gt;Node4</title>
<g id="a_edge11_Node000008_Node000004"><a xlink:title=" ">
<path fill="none" stroke="#63b8ff" d="M99.47,-152.4C85,-154.82 70.31,-157.27 58.18,-159.29"/>
<polygon fill="#63b8ff" stroke="#63b8ff" points="99.65,-155.92 108.94,-150.82 98.5,-149.01 99.65,-155.92"/>
</a>
</g>
</g>
<!-- Node9&#45;&gt;Node4 -->
<g id="edge13_Node000009_Node000004" class="edge">
<title>Node9&#45;&gt;Node4</title>
<g id="a_edge13_Node000009_Node000004"><a xlink:title=" ">
<path fill="none" stroke="#63b8ff" d="M104.97,-112.25C101.2,-113.71 97.51,-115.29 94,-117 73.92,-126.78 53.63,-143.01 41.43,-153.6"/>
<polygon fill="#63b8ff" stroke="#63b8ff" points="106.02,-115.6 114.3,-108.98 103.7,-108.99 106.02,-115.6"/>
</a>
</g>
</g>
<!-- Node10&#45;&gt;Node4 -->
<g id="edge15_Node000010_Node000004" class="edge">
<title>Node10&#45;&gt;Node4</title>
<g id="a_edge15_Node000010_Node000004"><a xlink:title=" ">
<path fill="none" stroke="#63b8ff" d="M103.17,-73.68C99.97,-75.26 96.88,-77.03 94,-79 65.17,-98.7 44.03,-135.64 34.93,-153.63"/>
<polygon fill="#63b8ff" stroke="#63b8ff" points="104.47,-76.93 112.32,-69.8 101.74,-70.48 104.47,-76.93"/>
</a>
</g>
</g>
<!-- Node11&#45;&gt;Node4 -->
<g id="edge17_Node000011_Node000004" class="edge">
<title>Node11&#45;&gt;Node4</title>
<g id="a_edge17_Node000011_Node000004"><a xlink:title=" ">
<path fill="none" stroke="#63b8ff" d="M103.65,-33.94C100.21,-36.05 96.96,-38.39 94,-41 57.7,-72.99 38.95,-130.57 32.57,-153.84"/>
<polygon fill="#63b8ff" stroke="#63b8ff" points="105.16,-37.1 112.36,-29.33 101.88,-30.92 105.16,-37.1"/>
</a>
</g>
</g>
</g>
</svg>
</svg>

<style type='text/css'>
<![CDATA[
[data-mouse-over-selected='false'] { opacity: 0.7; }
[data-mouse-over-selected='true']  { opacity: 1.0; }
]]>
</style>
<script type="application/ecmascript"><![CDATA[
document.addEventListener('DOMContentLoaded', (event) => {
  highlightEdges();
  highlightAdjacentNodes();
});
]]></script>
</svg>
