<?xml version="1.0" encoding="UTF-8" standalone="no"?>
<!DOCTYPE svg PUBLIC "-//W3C//DTD SVG 1.1//EN"
 "http://www.w3.org/Graphics/SVG/1.1/DTD/svg11.dtd">
<!-- Generated by graphviz version 14.1.2 (0)
 -->
<!-- Title: lcd1602_rightToLeft Pages: 1 -->
<svg width="355pt" height="28pt"
 viewBox="0.00 0.00 355.00 28.00" xmlns="http://www.w3.org/2000/svg" xmlns:xlink="http://www.w3.org/1999/xlink">
<g id="graph0" class="graph" transform="scale(1 1) rotate(0) translate(4 24)">
<title>lcd1602_rightToLeft</title>
<!-- Node1 -->
<g id="Node000001" class="node">
<title>Node1</title>
<g id="a_Node000001"><a xlink:title="Set text direction to right&#45;to&#45;left.">
<polygon fill="#999999" stroke="#666666" points="100.75,-20 0,-20 0,0 100.75,0 100.75,-20"/>
<text xml:space="preserve" text-anchor="middle" x="50.38" y="-6.5" font-family="Helvetica,sans-Serif" font-size="10.00">lcd1602_rightToLeft</text>
</a>
</g>
</g>
<!-- Node2 -->
<g id="Node000002" class="node">
<title>Node2</title>
<g id="a_Node000002"><a xlink:href="lcd1602__rgb_8c.html#a0f2acca4c1aa5a1126b031e719beb4df" target="_top" xlink:title="Send a command byte to the LCD.">
<polygon fill="white" stroke="#666666" points="234.5,-20 136.75,-20 136.75,0 234.5,0 234.5,-20"/>
<text xml:space="preserve" text-anchor="middle" x="185.62" y="-6.5" font-family="Helvetica,sans-Serif" font-size="10.00">lcd1602_command</text>
</a>
</g>
</g>
<!-- Node1&#45;&gt;Node2 -->
<g id="edge1_Node000001_Node000002" class="edge">
<title>Node1&#45;&gt;Node2</title>
<g id="a_edge1_Node000001_Node000002"><a xlink:title=" ">
<path fill="none" stroke="#63b8ff" d="M100.99,-10C108.75,-10 116.83,-10 124.79,-10"/>
<polygon fill="#63b8ff" stroke="#63b8ff" points="124.78,-13.5 134.78,-10 124.78,-6.5 124.78,-13.5"/>
</a>
</g>
</g>
<!-- Node3 -->
<g id="Node000003" class="node">
<title>Node3</title>
<g id="a_Node000003"><a xlink:href="lcd1602__rgb_8c.html#af833ec77ef44dc848f52a09072a777ae" target="_top" xlink:title="Send raw data bytes to the LCD via I2C.">
<polygon fill="white" stroke="#666666" points="346.5,-20 270.5,-20 270.5,0 346.5,0 346.5,-20"/>
<text xml:space="preserve" text-anchor="middle" x="308.5" y="-6.5" font-family="Helvetica,sans-Serif" font-size="10.00">lcd1602_send</text>
</a>
</g>
</g>
<!-- Node2&#45;&gt;Node3 -->
<g id="edge2_Node000002_Node000003" class="edge">
<title>Node2&#45;&gt;Node3</title>
<g id="a_edge2_Node000002_Node000003"><a xlink:title=" ">
<path fill="none" stroke="#63b8ff" d="M234.75,-10C242.71,-10 250.97,-10 258.94,-10"/>
<polygon fill="#63b8ff" stroke="#63b8ff" points="258.83,-13.5 268.83,-10 258.83,-6.5 258.83,-13.5"/>
</a>
</g>
</g>
</g>
</svg>
