<?xml version="1.0" encoding="UTF-8" standalone="no"?>
<!DOCTYPE svg PUBLIC "-//W3C//DTD SVG 1.1//EN"
 "http://www.w3.org/Graphics/SVG/1.1/DTD/svg11.dtd">
<!-- Generated by graphviz version 14.1.2 (0)
 -->
<!-- Title: lcd1602_customSymbol Pages: 1 -->
<svg width="374pt" height="47pt"
 viewBox="0.00 0.00 374.00 47.00" xmlns="http://www.w3.org/2000/svg" xmlns:xlink="http://www.w3.org/1999/xlink">
<g id="graph0" class="graph" transform="scale(1 1) rotate(0) translate(4 43)">
<title>lcd1602_customSymbol</title>
<!-- Node1 -->
<g id="Node000001" class="node">
<title>Node1</title>
<g id="a_Node000001"><a xlink:title="Create a custom character in CGRAM.">
<polygon fill="#999999" stroke="#666666" points="120.25,-20 0,-20 0,0 120.25,0 120.25,-20"/>
<text xml:space="preserve" text-anchor="middle" x="60.12" y="-6.5" font-family="Helvetica,sans-Serif" font-size="10.00">lcd1602_customSymbol</text>
</a>
</g>
</g>
<!-- Node2 -->
<g id="Node000002" class="node">
<title>Node2</title>
<g id="a_Node000002"><a xlink:href="lcd1602__rgb_8c.html#a0f2acca4c1aa5a1126b031e719beb4df" target="_top" xlink:title="Send a command byte to the LCD.">
<polygon fill="white" stroke="#666666" points="254,-39 156.25,-39 156.25,-19 254,-19 254,-39"/>
<text xml:space="preserve" text-anchor="middle" x="205.12" y="-25.5" font-family="Helvetica,sans-Serif" font-size="10.00">lcd1602_command</text>
</a>
</g>
</g>
<!-- Node1&#45;&gt;Node2 -->
<g id="edge1_Node000001_Node000002" class="edge">
<title>Node1&#45;&gt;Node2</title>
<g id="a_edge1_Node000001_Node000002"><a xlink:title=" ">
<path fill="none" stroke="#63b8ff" d="M120.53,-17.89C128.56,-18.96 136.8,-20.05 144.83,-21.12"/>
<polygon fill="#63b8ff" stroke="#63b8ff" points="144.13,-24.56 154.5,-22.41 145.05,-17.62 144.13,-24.56"/>
</a>
</g>
</g>
<!-- Node3 -->
<g id="Node000003" class="node">
<title>Node3</title>
<g id="a_Node000003"><a xlink:href="lcd1602__rgb_8c.html#af833ec77ef44dc848f52a09072a777ae" target="_top" xlink:title="Send raw data bytes to the LCD via I2C.">
<polygon fill="white" stroke="#666666" points="366,-20 290,-20 290,0 366,0 366,-20"/>
<text xml:space="preserve" text-anchor="middle" x="328" y="-6.5" font-family="Helvetica,sans-Serif" font-size="10.00">lcd1602_send</text>
</a>
</g>
</g>
<!-- Node1&#45;&gt;Node3 -->
<g id="edge3_Node000001_Node000003" class="edge">
<title>Node1&#45;&gt;Node3</title>
<g id="a_edge3_Node000001_Node000003"><a xlink:title=" ">
<path fill="none" stroke="#63b8ff" d="M120.46,-10C167.95,-10 233.73,-10 278.19,-10"/>
<polygon fill="#63b8ff" stroke="#63b8ff" points="278.06,-13.5 288.06,-10 278.06,-6.5 278.06,-13.5"/>
</a>
</g>
</g>
<!-- Node2&#45;&gt;Node3 -->
<g id="edge2_Node000002_Node000003" class="edge">
<title>Node2&#45;&gt;Node3</title>
<g id="a_edge2_Node000002_Node000003"><a xlink:title=" ">
<path fill="none" stroke="#63b8ff" d="M254.25,-21.44C262.3,-20.17 270.66,-18.86 278.72,-17.59"/>
<polygon fill="#63b8ff" stroke="#63b8ff" points="279.02,-21.09 288.35,-16.07 277.93,-14.17 279.02,-21.09"/>
</a>
</g>
</g>
</g>
</svg>
