<?xml version="1.0" encoding="UTF-8" standalone="no"?>
<!DOCTYPE svg PUBLIC "-//W3C//DTD SVG 1.1//EN"
 "http://www.w3.org/Graphics/SVG/1.1/DTD/svg11.dtd">
<!-- Generated by graphviz version 14.1.2 (0)
 -->
<!-- Title: lcd1602_send Pages: 1 -->
<svg width="829pt" height="850pt"
 viewBox="0.00 0.00 829.00 850.00" xmlns="http://www.w3.org/2000/svg" xmlns:xlink="http://www.w3.org/1999/xlink">
<g id="graph0" class="graph" transform="scale(1 1) rotate(0) translate(4 846)">
<title>lcd1602_send</title>
<!-- Node1 -->
<g id="Node000001" class="node">
<title>Node1</title>
<g id="a_Node000001"><a xlink:title="Send raw data bytes to the LCD.">
<polygon fill="#999999" stroke="#666666" points="821.25,-405 745.25,-405 745.25,-385 821.25,-385 821.25,-405"/>
<text xml:space="preserve" text-anchor="middle" x="783.25" y="-391.5" font-family="Helvetica,sans-Serif" font-size="10.00">lcd1602_send</text>
</a>
</g>
</g>
<!-- Node2 -->
<g id="Node000002" class="node">
<title>Node2</title>
<g id="a_Node000002"><a xlink:href="lcd1602__rgb_8c.html#a0f2acca4c1aa5a1126b031e719beb4df" target="_top" xlink:title="Send a command byte to the LCD.">
<polygon fill="white" stroke="#666666" points="708.12,-557 610.38,-557 610.38,-537 708.12,-537 708.12,-557"/>
<text xml:space="preserve" text-anchor="middle" x="659.25" y="-543.5" font-family="Helvetica,sans-Serif" font-size="10.00">lcd1602_command</text>
</a>
</g>
</g>
<!-- Node1&#45;&gt;Node2 -->
<g id="edge1_Node000001_Node000002" class="edge">
<title>Node1&#45;&gt;Node2</title>
<g id="a_edge1_Node000001_Node000002"><a xlink:title=" ">
<path fill="none" stroke="#63b8ff" d="M766.95,-414.06C740.82,-446.62 688.48,-511.83 668.37,-536.88"/>
<polygon fill="#63b8ff" stroke="#63b8ff" points="769.39,-416.62 772.92,-406.63 763.93,-412.24 769.39,-416.62"/>
</a>
</g>
</g>
<!-- Node10 -->
<g id="Node000010" class="node">
<title>Node10</title>
<g id="a_Node000010"><a xlink:href="lcd1602__rgb_8c.html#a8bd959dd5ad9fbb32f319b142ebcce17" target="_top" xlink:title="Create a custom character in CGRAM.">
<polygon fill="white" stroke="#666666" points="566.12,-842 445.88,-842 445.88,-822 566.12,-822 566.12,-842"/>
<text xml:space="preserve" text-anchor="middle" x="506" y="-828.5" font-family="Helvetica,sans-Serif" font-size="10.00">lcd1602_customSymbol</text>
</a>
</g>
</g>
<!-- Node1&#45;&gt;Node10 -->
<g id="edge23_Node000001_Node000010" class="edge">
<title>Node1&#45;&gt;Node10</title>
<g id="a_edge23_Node000001_Node000010"><a xlink:title=" ">
<path fill="none" stroke="#63b8ff" d="M778.12,-416.61C763.68,-485.99 708.79,-704.87 573.25,-813 568.95,-816.43 564.05,-819.25 558.92,-821.55"/>
<polygon fill="#63b8ff" stroke="#63b8ff" points="781.52,-417.43 780.06,-406.94 774.66,-416.06 781.52,-417.43"/>
</a>
</g>
</g>
<!-- Node21 -->
<g id="Node000021" class="node">
<title>Node21</title>
<g id="a_Node000021"><a xlink:href="lcd1602__rgb_8c.html#acedfa8e3ed17c86c319b1ee71aa43856" target="_top" xlink:title="Set cursor position.">
<polygon fill="white" stroke="#666666" points="554.88,-196 457.12,-196 457.12,-176 554.88,-176 554.88,-196"/>
<text xml:space="preserve" text-anchor="middle" x="506" y="-182.5" font-family="Helvetica,sans-Serif" font-size="10.00">lcd1602_setCursor</text>
</a>
</g>
</g>
<!-- Node1&#45;&gt;Node21 -->
<g id="edge24_Node000001_Node000021" class="edge">
<title>Node1&#45;&gt;Node21</title>
<g id="a_edge24_Node000001_Node000021"><a xlink:title=" ">
<path fill="none" stroke="#63b8ff" d="M777.9,-373.68C770.06,-340.71 750.39,-277.57 709.25,-243 665.54,-206.27 599.69,-193.15 555.1,-188.49"/>
<polygon fill="#63b8ff" stroke="#63b8ff" points="774.44,-374.23 780.02,-383.23 781.27,-372.71 774.44,-374.23"/>
</a>
</g>
</g>
<!-- Node33 -->
<g id="Node000033" class="node">
<title>Node33</title>
<g id="a_Node000033"><a xlink:href="lcd1602__rgb_8c.html#ab95d5708eabcbaa2bf3ca2b155fcefe3" target="_top" xlink:title="Write a single character to the display.">
<polygon fill="white" stroke="#666666" points="709.25,-272 609.25,-272 609.25,-252 709.25,-252 709.25,-272"/>
<text xml:space="preserve" text-anchor="middle" x="659.25" y="-258.5" font-family="Helvetica,sans-Serif" font-size="10.00">lcd1602_write_char</text>
</a>
</g>
</g>
<!-- Node1&#45;&gt;Node33 -->
<g id="edge45_Node000001_Node000033" class="edge">
<title>Node1&#45;&gt;Node33</title>
<g id="a_edge45_Node000001_Node000033"><a xlink:title=" ">
<path fill="none" stroke="#63b8ff" d="M765.07,-376.27C739,-347.85 690.32,-294.78 669.78,-272.39"/>
<polygon fill="#63b8ff" stroke="#63b8ff" points="762.31,-378.45 771.65,-383.45 767.47,-373.71 762.31,-378.45"/>
</a>
</g>
</g>
<!-- Node3 -->
<g id="Node000003" class="node">
<title>Node3</title>
<g id="a_Node000003"><a xlink:href="lcd1602__rgb_8c.html#a603d596039ec81fc8d8f452edba62611" target="_top" xlink:title="Enable autoscroll mode.">
<polygon fill="white" stroke="#666666" points="554.5,-386 457.5,-386 457.5,-366 554.5,-366 554.5,-386"/>
<text xml:space="preserve" text-anchor="middle" x="506" y="-372.5" font-family="Helvetica,sans-Serif" font-size="10.00">lcd1602_autoscroll</text>
</a>
</g>
</g>
<!-- Node2&#45;&gt;Node3 -->
<g id="edge2_Node000002_Node000003" class="edge">
<title>Node2&#45;&gt;Node3</title>
<g id="a_edge2_Node000002_Node000003"><a xlink:title=" ">
<path fill="none" stroke="#63b8ff" d="M652.27,-526.08C641.78,-493.21 616.94,-429.62 573.25,-395 567.81,-390.69 561.44,-387.36 554.83,-384.78"/>
<polygon fill="#63b8ff" stroke="#63b8ff" points="648.8,-526.7 655.05,-535.25 655.5,-524.66 648.8,-526.7"/>
</a>
</g>
</g>
<!-- Node4 -->
<g id="Node000004" class="node">
<title>Node4</title>
<g id="a_Node000004"><a xlink:href="lcd1602__rgb_8c.html#a971081be754ef4622e54951a306bca10" target="_top" xlink:title="Begin display operation with full initialization sequence.">
<polygon fill="white" stroke="#666666" points="374.25,-465 296,-465 296,-445 374.25,-445 374.25,-465"/>
<text xml:space="preserve" text-anchor="middle" x="335.12" y="-451.5" font-family="Helvetica,sans-Serif" font-size="10.00">lcd1602_begin</text>
</a>
</g>
</g>
<!-- Node2&#45;&gt;Node4 -->
<g id="edge3_Node000002_Node000004" class="edge">
<title>Node2&#45;&gt;Node4</title>
<g id="a_edge3_Node000002_Node000004"><a xlink:title=" ">
<path fill="none" stroke="#63b8ff" d="M656.02,-525.37C650.47,-484.14 631.93,-395.03 573.25,-357 523.09,-324.49 494.24,-334.76 438.75,-357 393.7,-375.05 357.21,-423.36 342.79,-444.66"/>
<polygon fill="#63b8ff" stroke="#63b8ff" points="652.54,-525.72 657.2,-535.23 659.49,-524.88 652.54,-525.72"/>
</a>
</g>
</g>
<!-- Node7 -->
<g id="Node000007" class="node">
<title>Node7</title>
<g id="a_Node000007"><a xlink:href="lcd1602__rgb_8c.html#ab4f828a524cfc67af4f2de2f233e5aed" target="_top" xlink:title="Enable cursor blinking.">
<polygon fill="white" stroke="#666666" points="543.62,-728 468.38,-728 468.38,-708 543.62,-708 543.62,-728"/>
<text xml:space="preserve" text-anchor="middle" x="506" y="-714.5" font-family="Helvetica,sans-Serif" font-size="10.00">lcd1602_blink</text>
</a>
</g>
</g>
<!-- Node2&#45;&gt;Node7 -->
<g id="edge6_Node000002_Node000007" class="edge">
<title>Node2&#45;&gt;Node7</title>
<g id="a_edge6_Node000002_Node000007"><a xlink:title=" ">
<path fill="none" stroke="#63b8ff" d="M652.27,-567.92C641.78,-600.79 616.94,-664.38 573.25,-699 564.81,-705.69 554.12,-710.02 543.8,-712.83"/>
<polygon fill="#63b8ff" stroke="#63b8ff" points="655.5,-569.34 655.05,-558.75 648.8,-567.3 655.5,-569.34"/>
</a>
</g>
</g>
<!-- Node8 -->
<g id="Node000008" class="node">
<title>Node8</title>
<g id="a_Node000008"><a xlink:href="lcd1602__rgb_8c.html#af0c1d216ce5b0f77cdb3cbfebb180ac4" target="_top" xlink:title="Clear the display and return cursor to home.">
<polygon fill="white" stroke="#666666" points="544,-310 468,-310 468,-290 544,-290 544,-310"/>
<text xml:space="preserve" text-anchor="middle" x="506" y="-296.5" font-family="Helvetica,sans-Serif" font-size="10.00">lcd1602_clear</text>
</a>
</g>
</g>
<!-- Node2&#45;&gt;Node8 -->
<g id="edge7_Node000002_Node000008" class="edge">
<title>Node2&#45;&gt;Node8</title>
<g id="a_edge7_Node000002_Node000008"><a xlink:title=" ">
<path fill="none" stroke="#63b8ff" d="M656.02,-525.77C650.33,-482.02 631.32,-381.12 573.25,-324 565.31,-316.19 554.65,-310.9 544.2,-307.33"/>
<polygon fill="#63b8ff" stroke="#63b8ff" points="652.52,-525.94 657.17,-535.46 659.47,-525.12 652.52,-525.94"/>
</a>
</g>
</g>
<!-- Node9 -->
<g id="Node000009" class="node">
<title>Node9</title>
<g id="a_Node000009"><a xlink:href="lcd1602__rgb_8c.html#a33a4eefc24003dd089d9463a8a2c2332" target="_top" xlink:title="Show the cursor (underscore).">
<polygon fill="white" stroke="#666666" points="547,-690 465,-690 465,-670 547,-670 547,-690"/>
<text xml:space="preserve" text-anchor="middle" x="506" y="-676.5" font-family="Helvetica,sans-Serif" font-size="10.00">lcd1602_cursor</text>
</a>
</g>
</g>
<!-- Node2&#45;&gt;Node9 -->
<g id="edge9_Node000002_Node000009" class="edge">
<title>Node2&#45;&gt;Node9</title>
<g id="a_edge9_Node000002_Node000009"><a xlink:title=" ">
<path fill="none" stroke="#63b8ff" d="M648.4,-567.37C634.96,-593.02 608.46,-636.67 573.25,-661 565.57,-666.31 556.42,-670.14 547.41,-672.91"/>
<polygon fill="#63b8ff" stroke="#63b8ff" points="651.43,-569.14 652.81,-558.64 645.18,-565.98 651.43,-569.14"/>
</a>
</g>
</g>
<!-- Node2&#45;&gt;Node10 -->
<g id="edge10_Node000002_Node000010" class="edge">
<title>Node2&#45;&gt;Node10</title>
<g id="a_edge10_Node000002_Node000010"><a xlink:title=" ">
<path fill="none" stroke="#63b8ff" d="M651.07,-567.94C641.35,-596.39 623.58,-648.91 609.25,-694 592.51,-746.66 612.6,-774.21 573.25,-813 569.76,-816.44 565.68,-819.27 561.3,-821.59"/>
<polygon fill="#63b8ff" stroke="#63b8ff" points="654.29,-569.33 654.21,-558.74 647.67,-567.06 654.29,-569.33"/>
</a>
</g>
</g>
<!-- Node12 -->
<g id="Node000012" class="node">
<title>Node12</title>
<g id="a_Node000012"><a xlink:href="lcd1602__rgb_8c.html#a63497d3efb539cc2db79a2ef8de2f1fa" target="_top" xlink:title="Turn on the display.">
<polygon fill="white" stroke="#666666" points="548.88,-804 463.12,-804 463.12,-784 548.88,-784 548.88,-804"/>
<text xml:space="preserve" text-anchor="middle" x="506" y="-790.5" font-family="Helvetica,sans-Serif" font-size="10.00">lcd1602_display</text>
</a>
</g>
</g>
<!-- Node2&#45;&gt;Node12 -->
<g id="edge13_Node000002_Node000012" class="edge">
<title>Node2&#45;&gt;Node12</title>
<g id="a_edge13_Node000002_Node000012"><a xlink:title=" ">
<path fill="none" stroke="#63b8ff" d="M651.49,-568.4C634.3,-622.27 589.18,-760.26 573.25,-775 566.58,-781.18 558.02,-785.36 549.3,-788.19"/>
<polygon fill="#63b8ff" stroke="#63b8ff" points="654.82,-569.47 654.51,-558.88 648.15,-567.36 654.82,-569.47"/>
</a>
</g>
</g>
<!-- Node13 -->
<g id="Node000013" class="node">
<title>Node13</title>
<g id="a_Node000013"><a xlink:href="lcd1602__rgb_8c.html#a5273443e59e2b88c06073bff39a471a5" target="_top" xlink:title="Return cursor to home position (0,0).">
<polygon fill="white" stroke="#666666" points="545.5,-652 466.5,-652 466.5,-632 545.5,-632 545.5,-652"/>
<text xml:space="preserve" text-anchor="middle" x="506" y="-638.5" font-family="Helvetica,sans-Serif" font-size="10.00">lcd1602_home</text>
</a>
</g>
</g>
<!-- Node2&#45;&gt;Node13 -->
<g id="edge15_Node000002_Node000013" class="edge">
<title>Node2&#45;&gt;Node13</title>
<g id="a_edge15_Node000002_Node000013"><a xlink:title=" ">
<path fill="none" stroke="#63b8ff" d="M642.06,-565.67C626.16,-582.9 600.4,-608.01 573.25,-623 564.77,-627.68 555.02,-631.31 545.65,-634.07"/>
<polygon fill="#63b8ff" stroke="#63b8ff" points="644.33,-568.38 648.42,-558.6 639.13,-563.7 644.33,-568.38"/>
</a>
</g>
</g>
<!-- Node14 -->
<g id="Node000014" class="node">
<title>Node14</title>
<g id="a_Node000014"><a xlink:href="lcd1602__rgb_8c.html#aa61ffff5e749a550f8ba999a9be296c8" target="_top" xlink:title="Set text direction to left&#45;to&#45;right.">
<polygon fill="white" stroke="#666666" points="557.12,-614 454.88,-614 454.88,-594 557.12,-594 557.12,-614"/>
<text xml:space="preserve" text-anchor="middle" x="506" y="-600.5" font-family="Helvetica,sans-Serif" font-size="10.00">lcd1602_leftToRight</text>
</a>
</g>
</g>
<!-- Node2&#45;&gt;Node14 -->
<g id="edge16_Node000002_Node000014" class="edge">
<title>Node2&#45;&gt;Node14</title>
<g id="a_edge16_Node000002_Node000014"><a xlink:title=" ">
<path fill="none" stroke="#63b8ff" d="M626.98,-562.25C611.1,-569.67 591.39,-578.38 573.25,-585 564.82,-588.08 555.64,-590.98 546.88,-593.55"/>
<polygon fill="#63b8ff" stroke="#63b8ff" points="628.38,-565.46 635.92,-558.02 625.38,-559.14 628.38,-565.46"/>
</a>
</g>
</g>
<!-- Node15 -->
<g id="Node000015" class="node">
<title>Node15</title>
<g id="a_Node000015"><a xlink:href="lcd1602__rgb_8c.html#adec420feef392d4305cf50c869c73064" target="_top" xlink:title="Disable autoscroll mode.">
<polygon fill="white" stroke="#666666" points="560.5,-576 451.5,-576 451.5,-556 560.5,-556 560.5,-576"/>
<text xml:space="preserve" text-anchor="middle" x="506" y="-562.5" font-family="Helvetica,sans-Serif" font-size="10.00">lcd1602_noAutoscroll</text>
</a>
</g>
</g>
<!-- Node2&#45;&gt;Node15 -->
<g id="edge17_Node000002_Node000015" class="edge">
<title>Node2&#45;&gt;Node15</title>
<g id="a_edge17_Node000002_Node000015"><a xlink:title=" ">
<path fill="none" stroke="#63b8ff" d="M598.72,-554.48C586.23,-556.05 573.12,-557.69 560.85,-559.24"/>
<polygon fill="#63b8ff" stroke="#63b8ff" points="598.99,-557.97 608.48,-553.25 598.12,-551.03 598.99,-557.97"/>
</a>
</g>
</g>
<!-- Node16 -->
<g id="Node000016" class="node">
<title>Node16</title>
<g id="a_Node000016"><a xlink:href="lcd1602__rgb_8c.html#a1363e532571df006a3729d28495ae71e" target="_top" xlink:title="Hide the cursor.">
<polygon fill="white" stroke="#666666" points="553.38,-538 458.62,-538 458.62,-518 553.38,-518 553.38,-538"/>
<text xml:space="preserve" text-anchor="middle" x="506" y="-524.5" font-family="Helvetica,sans-Serif" font-size="10.00">lcd1602_noCursor</text>
</a>
</g>
</g>
<!-- Node2&#45;&gt;Node16 -->
<g id="edge18_Node000002_Node000016" class="edge">
<title>Node2&#45;&gt;Node16</title>
<g id="a_edge18_Node000002_Node000016"><a xlink:title=" ">
<path fill="none" stroke="#63b8ff" d="M598.77,-539.53C583.83,-537.65 568,-535.66 553.78,-533.88"/>
<polygon fill="#63b8ff" stroke="#63b8ff" points="598.12,-542.97 608.48,-540.75 598.99,-536.03 598.12,-542.97"/>
</a>
</g>
</g>
<!-- Node17 -->
<g id="Node000017" class="node">
<title>Node17</title>
<g id="a_Node000017"><a xlink:href="lcd1602__rgb_8c.html#a292471c6502a785731a09d2a708410fd" target="_top" xlink:title="Set text direction to right&#45;to&#45;left.">
<polygon fill="white" stroke="#666666" points="556.38,-500 455.62,-500 455.62,-480 556.38,-480 556.38,-500"/>
<text xml:space="preserve" text-anchor="middle" x="506" y="-486.5" font-family="Helvetica,sans-Serif" font-size="10.00">lcd1602_rightToLeft</text>
</a>
</g>
</g>
<!-- Node2&#45;&gt;Node17 -->
<g id="edge19_Node000002_Node000017" class="edge">
<title>Node2&#45;&gt;Node17</title>
<g id="a_edge19_Node000002_Node000017"><a xlink:title=" ">
<path fill="none" stroke="#63b8ff" d="M626.98,-531.75C611.1,-524.33 591.39,-515.62 573.25,-509 564.82,-505.92 555.64,-503.02 546.88,-500.45"/>
<polygon fill="#63b8ff" stroke="#63b8ff" points="625.38,-534.86 635.92,-535.98 628.38,-528.54 625.38,-534.86"/>
</a>
</g>
</g>
<!-- Node18 -->
<g id="Node000018" class="node">
<title>Node18</title>
<g id="a_Node000018"><a xlink:href="lcd1602__rgb_8c.html#a86083f2813827fa282a9021d582772a1" target="_top" xlink:title="Scroll display content left by one position.">
<polygon fill="white" stroke="#666666" points="569.88,-462 442.12,-462 442.12,-442 569.88,-442 569.88,-462"/>
<text xml:space="preserve" text-anchor="middle" x="506" y="-448.5" font-family="Helvetica,sans-Serif" font-size="10.00">lcd1602_scrollDisplayLeft</text>
</a>
</g>
</g>
<!-- Node2&#45;&gt;Node18 -->
<g id="edge20_Node000002_Node000018" class="edge">
<title>Node2&#45;&gt;Node18</title>
<g id="a_edge20_Node000002_Node000018"><a xlink:title=" ">
<path fill="none" stroke="#63b8ff" d="M642.06,-528.33C626.16,-511.1 600.4,-485.99 573.25,-471 567.17,-467.65 560.45,-464.84 553.69,-462.5"/>
<polygon fill="#63b8ff" stroke="#63b8ff" points="639.13,-530.3 648.42,-535.4 644.33,-525.62 639.13,-530.3"/>
</a>
</g>
</g>
<!-- Node19 -->
<g id="Node000019" class="node">
<title>Node19</title>
<g id="a_Node000019"><a xlink:href="lcd1602__rgb_8c.html#a6ed0d7ab34b3bac8657a88c1815bf94b" target="_top" xlink:title="Scroll display content right by one position.">
<polygon fill="white" stroke="#666666" points="573.25,-424 438.75,-424 438.75,-404 573.25,-404 573.25,-424"/>
<text xml:space="preserve" text-anchor="middle" x="506" y="-410.5" font-family="Helvetica,sans-Serif" font-size="10.00">lcd1602_scrollDisplayRight</text>
</a>
</g>
</g>
<!-- Node2&#45;&gt;Node19 -->
<g id="edge21_Node000002_Node000019" class="edge">
<title>Node2&#45;&gt;Node19</title>
<g id="a_edge21_Node000002_Node000019"><a xlink:title=" ">
<path fill="none" stroke="#63b8ff" d="M648.4,-526.63C634.96,-500.98 608.46,-457.33 573.25,-433 568.23,-429.53 562.58,-426.69 556.75,-424.36"/>
<polygon fill="#63b8ff" stroke="#63b8ff" points="645.18,-528.02 652.81,-535.36 651.43,-524.86 645.18,-528.02"/>
</a>
</g>
</g>
<!-- Node20 -->
<g id="Node000020" class="node">
<title>Node20</title>
<g id="a_Node000020"><a xlink:href="lcd1602__rgb_8c.html#adacbbe9d5d0d94871587d6ba28b7498a" target="_top" xlink:title="Stop cursor blinking (cursor still visible).">
<polygon fill="white" stroke="#666666" points="553.75,-766 458.25,-766 458.25,-746 553.75,-746 553.75,-766"/>
<text xml:space="preserve" text-anchor="middle" x="506" y="-752.5" font-family="Helvetica,sans-Serif" font-size="10.00">lcd1602_stopBlink</text>
</a>
</g>
</g>
<!-- Node2&#45;&gt;Node20 -->
<g id="edge22_Node000002_Node000020" class="edge">
<title>Node2&#45;&gt;Node20</title>
<g id="a_edge22_Node000002_Node000020"><a xlink:title=" ">
<path fill="none" stroke="#63b8ff" d="M654.71,-568.59C647.11,-608 625.46,-691.69 573.25,-737 567.74,-741.78 561.09,-745.37 554.16,-748.05"/>
<polygon fill="#63b8ff" stroke="#63b8ff" points="658.12,-569.41 656.44,-558.95 651.23,-568.17 658.12,-569.41"/>
</a>
</g>
</g>
<!-- Node5 -->
<g id="Node000005" class="node">
<title>Node5</title>
<g id="a_Node000005"><a xlink:href="lcd1602__rgb_8c.html#a46c1528764d32608b85028f9f6a13dc6" target="_top" xlink:title="Initialize the LCD display.">
<polygon fill="white" stroke="#666666" points="196.62,-471 128.88,-471 128.88,-451 196.62,-451 196.62,-471"/>
<text xml:space="preserve" text-anchor="middle" x="162.75" y="-457.5" font-family="Helvetica,sans-Serif" font-size="10.00">lcd1602_init</text>
</a>
</g>
</g>
<!-- Node4&#45;&gt;Node5 -->
<g id="edge4_Node000004_Node000005" class="edge">
<title>Node4&#45;&gt;Node5</title>
<g id="a_edge4_Node000004_Node000005"><a xlink:title=" ">
<path fill="none" stroke="#63b8ff" d="M284.64,-456.74C256.46,-457.74 221.91,-458.95 196.97,-459.83"/>
<polygon fill="#63b8ff" stroke="#63b8ff" points="284.51,-460.25 294.38,-456.4 284.26,-453.25 284.51,-460.25"/>
</a>
</g>
</g>
<!-- Node6 -->
<g id="Node000006" class="node">
<title>Node6</title>
<g id="a_Node000006"><a xlink:href="main_8c.html#a840291bc02cba5474a4cb46a9b9566fe" target="_top" xlink:title="The application entry point.">
<polygon fill="white" stroke="#666666" points="47.5,-517 10.5,-517 10.5,-497 47.5,-497 47.5,-517"/>
<text xml:space="preserve" text-anchor="middle" x="29" y="-503.5" font-family="Helvetica,sans-Serif" font-size="10.00">main</text>
</a>
</g>
</g>
<!-- Node5&#45;&gt;Node6 -->
<g id="edge5_Node000005_Node000006" class="edge">
<title>Node5&#45;&gt;Node6</title>
<g id="a_edge5_Node000005_Node000006"><a xlink:title=" ">
<path fill="none" stroke="#63b8ff" d="M121,-475.23C96.4,-483.82 66.31,-494.32 47.64,-500.84"/>
<polygon fill="#63b8ff" stroke="#63b8ff" points="122.14,-478.54 130.42,-471.94 119.83,-471.93 122.14,-478.54"/>
</a>
</g>
</g>
<!-- Node8&#45;&gt;Node4 -->
<g id="edge8_Node000008_Node000004" class="edge">
<title>Node8&#45;&gt;Node4</title>
<g id="a_edge8_Node000008_Node000004"><a xlink:title=" ">
<path fill="none" stroke="#63b8ff" d="M457.41,-313.53C450.83,-316.44 444.41,-319.9 438.75,-324 391.49,-358.24 354.91,-420.01 341.59,-444.54"/>
<polygon fill="#63b8ff" stroke="#63b8ff" points="458.37,-316.92 466.37,-309.97 455.78,-310.41 458.37,-316.92"/>
</a>
</g>
</g>
<!-- Node11 -->
<g id="Node000011" class="node">
<title>Node11</title>
<g id="a_Node000011"><a xlink:href="ui_8c.html#a4f4b9a90a4a79b7a2c5bd2e4454e6331" target="_top" xlink:title="Initialize the UI module.">
<polygon fill="white" stroke="#666666" points="354.75,-786 315.5,-786 315.5,-766 354.75,-766 354.75,-786"/>
<text xml:space="preserve" text-anchor="middle" x="335.12" y="-772.5" font-family="Helvetica,sans-Serif" font-size="10.00">initUI</text>
</a>
</g>
</g>
<!-- Node10&#45;&gt;Node11 -->
<g id="edge11_Node000010_Node000011" class="edge">
<title>Node10&#45;&gt;Node11</title>
<g id="a_edge11_Node000010_Node000011"><a xlink:title=" ">
<path fill="none" stroke="#63b8ff" d="M456.4,-818.47C450.44,-816.69 444.44,-814.84 438.75,-813 409.2,-803.45 375.39,-790.95 354.91,-783.2"/>
<polygon fill="#63b8ff" stroke="#63b8ff" points="455,-821.7 465.58,-821.16 456.97,-814.98 455,-821.7"/>
</a>
</g>
</g>
<!-- Node11&#45;&gt;Node6 -->
<g id="edge12_Node000011_Node000006" class="edge">
<title>Node11&#45;&gt;Node6</title>
<g id="a_edge12_Node000011_Node000006"><a xlink:title=" ">
<path fill="none" stroke="#63b8ff" d="M314.22,-758.39C256,-706.9 87.31,-557.69 41.56,-517.23"/>
<polygon fill="#63b8ff" stroke="#63b8ff" points="311.63,-760.78 321.44,-764.78 316.27,-755.53 311.63,-760.78"/>
</a>
</g>
</g>
<!-- Node12&#45;&gt;Node4 -->
<g id="edge14_Node000012_Node000004" class="edge">
<title>Node12&#45;&gt;Node4</title>
<g id="a_edge14_Node000012_Node000004"><a xlink:title=" ">
<path fill="none" stroke="#63b8ff" d="M452.28,-784.31C447.32,-781.86 442.68,-778.81 438.75,-775 345.55,-684.64 336.83,-509.62 336.15,-465.36"/>
<polygon fill="#63b8ff" stroke="#63b8ff" points="450.84,-787.5 461.42,-787.97 453.44,-781 450.84,-787.5"/>
</a>
</g>
</g>
<!-- Node22 -->
<g id="Node000022" class="node">
<title>Node22</title>
<g id="a_Node000022"><a xlink:href="ui_8c.html#ab08bf40f29760a62fbea13ac28c412b6" target="_top" xlink:title="Display two rows of text on the LCD.">
<polygon fill="white" stroke="#666666" points="367.88,-196 302.38,-196 302.38,-176 367.88,-176 367.88,-196"/>
<text xml:space="preserve" text-anchor="middle" x="335.12" y="-182.5" font-family="Helvetica,sans-Serif" font-size="10.00">ui_print_lcd</text>
</a>
</g>
</g>
<!-- Node21&#45;&gt;Node22 -->
<g id="edge25_Node000021_Node000022" class="edge">
<title>Node21&#45;&gt;Node22</title>
<g id="a_edge25_Node000021_Node000022"><a xlink:title=" ">
<path fill="none" stroke="#63b8ff" d="M445.74,-186C419.65,-186 390.02,-186 368.15,-186"/>
<polygon fill="#63b8ff" stroke="#63b8ff" points="445.55,-189.5 455.55,-186 445.55,-182.5 445.55,-189.5"/>
</a>
</g>
</g>
<!-- Node32 -->
<g id="Node000032" class="node">
<title>Node32</title>
<g id="a_Node000032"><a xlink:href="ui_8c.html#a81de81298db27fab4a93d349c6f4defb" target="_top" xlink:title="Print custom degree symbols on LCD for program view.">
<polygon fill="white" stroke="#666666" points="402.75,-272 267.5,-272 267.5,-252 402.75,-252 402.75,-272"/>
<text xml:space="preserve" text-anchor="middle" x="335.12" y="-258.5" font-family="Helvetica,sans-Serif" font-size="10.00">ui_print_lcd_program_symb</text>
</a>
</g>
</g>
<!-- Node21&#45;&gt;Node32 -->
<g id="edge42_Node000021_Node000032" class="edge">
<title>Node21&#45;&gt;Node32</title>
<g id="a_edge42_Node000021_Node000032"><a xlink:title=" ">
<path fill="none" stroke="#63b8ff" d="M452.32,-199.91C447.68,-201.5 443.1,-203.2 438.75,-205 406.75,-218.27 371.99,-239.05 352.25,-251.52"/>
<polygon fill="#63b8ff" stroke="#63b8ff" points="453.26,-203.29 461.71,-196.9 451.12,-196.62 453.26,-203.29"/>
</a>
</g>
</g>
<!-- Node23 -->
<g id="Node000023" class="node">
<title>Node23</title>
<g id="a_Node000023"><a xlink:href="ui_8c.html#a9cd652642569d6902183444cd519cc25" target="_top" xlink:title="Handle CREATE_PROGRAM menu state.">
<polygon fill="white" stroke="#666666" points="228.12,-234 97.38,-234 97.38,-214 228.12,-214 228.12,-234"/>
<text xml:space="preserve" text-anchor="middle" x="162.75" y="-220.5" font-family="Helvetica,sans-Serif" font-size="10.00">ui_update_create_program</text>
</a>
</g>
</g>
<!-- Node22&#45;&gt;Node23 -->
<g id="edge26_Node000022_Node000023" class="edge">
<title>Node22&#45;&gt;Node23</title>
<g id="a_edge26_Node000022_Node000023"><a xlink:title=" ">
<path fill="none" stroke="#63b8ff" d="M290.96,-195.63C266.5,-201.08 235.86,-207.92 210.78,-213.51"/>
<polygon fill="#63b8ff" stroke="#63b8ff" points="291.6,-199.07 300.6,-193.48 290.08,-192.24 291.6,-199.07"/>
</a>
</g>
</g>
<!-- Node25 -->
<g id="Node000025" class="node">
<title>Node25</title>
<g id="a_Node000025"><a xlink:href="ui_8c.html#a7328c75524fbd4c255db4ee57d587e16" target="_top" xlink:title="Handle CREATE_PROGRAM_DETAILED menu state.">
<polygon fill="white" stroke="#666666" points="228.12,-322 97.38,-322 97.38,-290 228.12,-290 228.12,-322"/>
<text xml:space="preserve" text-anchor="start" x="105.38" y="-308.5" font-family="Helvetica,sans-Serif" font-size="10.00">ui_update_create_program</text>
<text xml:space="preserve" text-anchor="middle" x="162.75" y="-296.5" font-family="Helvetica,sans-Serif" font-size="10.00">_detailed</text>
</a>
</g>
</g>
<!-- Node22&#45;&gt;Node25 -->
<g id="edge28_Node000022_Node000025" class="edge">
<title>Node22&#45;&gt;Node25</title>
<g id="a_edge28_Node000022_Node000025"><a xlink:title=" ">
<path fill="none" stroke="#63b8ff" d="M312.37,-203.63C299.1,-214.62 281.97,-229.24 267.5,-243 250.64,-259.03 250.92,-268.19 231.5,-281 226.69,-284.17 221.41,-287.02 216,-289.54"/>
<polygon fill="#63b8ff" stroke="#63b8ff" points="314.58,-206.35 320.09,-197.29 310.14,-200.94 314.58,-206.35"/>
</a>
</g>
</g>
<!-- Node26 -->
<g id="Node000026" class="node">
<title>Node26</title>
<g id="a_Node000026"><a xlink:href="ui_8c.html#ab9762754190f18740cddebbe0d59b309" target="_top" xlink:title="Handle PROGRAM_DETAILED menu state.">
<polygon fill="white" stroke="#666666" points="231.5,-272 94,-272 94,-252 231.5,-252 231.5,-272"/>
<text xml:space="preserve" text-anchor="middle" x="162.75" y="-258.5" font-family="Helvetica,sans-Serif" font-size="10.00">ui_update_program_detailed</text>
</a>
</g>
</g>
<!-- Node22&#45;&gt;Node26 -->
<g id="edge30_Node000022_Node000026" class="edge">
<title>Node22&#45;&gt;Node26</title>
<g id="a_edge30_Node000022_Node000026"><a xlink:title=" ">
<path fill="none" stroke="#63b8ff" d="M308.65,-202.36C288.37,-214.82 258.95,-231.71 231.5,-243 223.7,-246.21 215.19,-249.06 206.91,-251.53"/>
<polygon fill="#63b8ff" stroke="#63b8ff" points="310.44,-205.36 317.07,-197.1 306.74,-199.42 310.44,-205.36"/>
</a>
</g>
</g>
<!-- Node27 -->
<g id="Node000027" class="node">
<title>Node27</title>
<g id="a_Node000027"><a xlink:href="ui_8c.html#a3b5feeaa3b12e5b763ca3bada8a6f185" target="_top" xlink:title="Handle PROGRAMS main menu state.">
<polygon fill="white" stroke="#666666" points="214.62,-196 110.88,-196 110.88,-176 214.62,-176 214.62,-196"/>
<text xml:space="preserve" text-anchor="middle" x="162.75" y="-182.5" font-family="Helvetica,sans-Serif" font-size="10.00">ui_update_programs</text>
</a>
</g>
</g>
<!-- Node22&#45;&gt;Node27 -->
<g id="edge32_Node000022_Node000027" class="edge">
<title>Node22&#45;&gt;Node27</title>
<g id="a_edge32_Node000022_Node000027"><a xlink:title=" ">
<path fill="none" stroke="#63b8ff" d="M290.58,-186C267.56,-186 239.16,-186 215.07,-186"/>
<polygon fill="#63b8ff" stroke="#63b8ff" points="290.57,-189.5 300.57,-186 290.57,-182.5 290.57,-189.5"/>
</a>
</g>
</g>
<!-- Node28 -->
<g id="Node000028" class="node">
<title>Node28</title>
<g id="a_Node000028"><a xlink:href="ui_8c.html#aaf5cd0f82052c1fe3150ee31bee733c3" target="_top" xlink:title="Handle PROGRAMS_OVERVIEW menu state.">
<polygon fill="white" stroke="#666666" points="214.62,-158 110.88,-158 110.88,-126 214.62,-126 214.62,-158"/>
<text xml:space="preserve" text-anchor="start" x="118.88" y="-144.5" font-family="Helvetica,sans-Serif" font-size="10.00">ui_update_programs</text>
<text xml:space="preserve" text-anchor="middle" x="162.75" y="-132.5" font-family="Helvetica,sans-Serif" font-size="10.00">_overview</text>
</a>
</g>
</g>
<!-- Node22&#45;&gt;Node28 -->
<g id="edge34_Node000022_Node000028" class="edge">
<title>Node22&#45;&gt;Node28</title>
<g id="a_edge34_Node000022_Node000028"><a xlink:title=" ">
<path fill="none" stroke="#63b8ff" d="M291.21,-174.92C268.08,-168.94 239.38,-161.53 215.07,-155.25"/>
<polygon fill="#63b8ff" stroke="#63b8ff" points="290.06,-178.23 300.61,-177.35 291.81,-171.46 290.06,-178.23"/>
</a>
</g>
</g>
<!-- Node29 -->
<g id="Node000029" class="node">
<title>Node29</title>
<g id="a_Node000029"><a xlink:href="ui_8c.html#a69020987570a087f78cc6e830c66d003" target="_top" xlink:title="Handle SETPOINT menu state.">
<polygon fill="white" stroke="#666666" points="211.62,-108 113.88,-108 113.88,-88 211.62,-88 211.62,-108"/>
<text xml:space="preserve" text-anchor="middle" x="162.75" y="-94.5" font-family="Helvetica,sans-Serif" font-size="10.00">ui_update_setpoint</text>
</a>
</g>
</g>
<!-- Node22&#45;&gt;Node29 -->
<g id="edge36_Node000022_Node000029" class="edge">
<title>Node22&#45;&gt;Node29</title>
<g id="a_edge36_Node000022_Node000029"><a xlink:title=" ">
<path fill="none" stroke="#63b8ff" d="M312.79,-168.68C292.83,-153.21 261.65,-130.93 231.5,-117 224.4,-113.72 216.62,-110.9 208.94,-108.5"/>
<polygon fill="#63b8ff" stroke="#63b8ff" points="310.43,-171.27 320.45,-174.71 314.76,-165.77 310.43,-171.27"/>
</a>
</g>
</g>
<!-- Node30 -->
<g id="Node000030" class="node">
<title>Node30</title>
<g id="a_Node000030"><a xlink:href="ui_8c.html#a02da7ed57381740b440cbbf67658edb7" target="_top" xlink:title="Handle SETTINGS main menu state.">
<polygon fill="white" stroke="#666666" points="211.62,-70 113.88,-70 113.88,-50 211.62,-50 211.62,-70"/>
<text xml:space="preserve" text-anchor="middle" x="162.75" y="-56.5" font-family="Helvetica,sans-Serif" font-size="10.00">ui_update_settings</text>
</a>
</g>
</g>
<!-- Node22&#45;&gt;Node30 -->
<g id="edge38_Node000022_Node000030" class="edge">
<title>Node22&#45;&gt;Node30</title>
<g id="a_edge38_Node000022_Node000030"><a xlink:title=" ">
<path fill="none" stroke="#63b8ff" d="M320.61,-166.51C302.89,-142.41 269.56,-101.81 231.5,-79 225.53,-75.42 218.86,-72.49 212.09,-70.11"/>
<polygon fill="#63b8ff" stroke="#63b8ff" points="317.66,-168.4 326.33,-174.49 323.35,-164.33 317.66,-168.4"/>
</a>
</g>
</g>
<!-- Node31 -->
<g id="Node000031" class="node">
<title>Node31</title>
<g id="a_Node000031"><a xlink:href="ui_8c.html#ae12e11d5bc28a67cea4da70fe20127c3" target="_top" xlink:title="Handle SETTINGS_OVERVIEW menu state.">
<polygon fill="white" stroke="#666666" points="211.62,-32 113.88,-32 113.88,0 211.62,0 211.62,-32"/>
<text xml:space="preserve" text-anchor="start" x="121.88" y="-18.5" font-family="Helvetica,sans-Serif" font-size="10.00">ui_update_settings</text>
<text xml:space="preserve" text-anchor="middle" x="162.75" y="-6.5" font-family="Helvetica,sans-Serif" font-size="10.00">_overview</text>
</a>
</g>
</g>
<!-- Node22&#45;&gt;Node31 -->
<g id="edge40_Node000022_Node000031" class="edge">
<title>Node22&#45;&gt;Node31</title>
<g id="a_edge40_Node000022_Node000031"><a xlink:title=" ">
<path fill="none" stroke="#63b8ff" d="M324.67,-165.52C309.33,-134.41 276.18,-75.26 231.5,-41 225.63,-36.5 218.87,-32.74 211.93,-29.63"/>
<polygon fill="#63b8ff" stroke="#63b8ff" points="321.37,-166.74 328.85,-174.24 327.69,-163.71 321.37,-166.74"/>
</a>
</g>
</g>
<!-- Node24 -->
<g id="Node000024" class="node">
<title>Node24</title>
<g id="a_Node000024"><a xlink:href="ui_8c.html#a1c0a0e3c37fa619fc105b56716b1e08a" target="_top" xlink:title="Main UI state machine update function.">
<polygon fill="white" stroke="#666666" points="58,-174 0,-174 0,-154 58,-154 58,-174"/>
<text xml:space="preserve" text-anchor="middle" x="29" y="-160.5" font-family="Helvetica,sans-Serif" font-size="10.00">ui_update</text>
</a>
</g>
</g>
<!-- Node23&#45;&gt;Node24 -->
<g id="edge27_Node000023_Node000024" class="edge">
<title>Node23&#45;&gt;Node24</title>
<g id="a_edge27_Node000023_Node000024"><a xlink:title=" ">
<path fill="none" stroke="#63b8ff" d="M106.57,-210.02C102.26,-208.48 98.02,-206.8 94,-205 75.46,-196.68 56.06,-183.54 43.55,-174.38"/>
<polygon fill="#63b8ff" stroke="#63b8ff" points="105.31,-213.29 115.91,-213.11 107.51,-206.65 105.31,-213.29"/>
</a>
</g>
</g>
<!-- Node25&#45;&gt;Node24 -->
<g id="edge29_Node000025_Node000024" class="edge">
<title>Node25&#45;&gt;Node24</title>
<g id="a_edge29_Node000025_Node000024"><a xlink:title=" ">
<path fill="none" stroke="#63b8ff" d="M96.93,-283.38C95.93,-282.61 94.95,-281.82 94,-281 59.12,-250.9 39.79,-196.9 32.92,-174.34"/>
<polygon fill="#63b8ff" stroke="#63b8ff" points="94.99,-286.3 105.29,-288.81 98.81,-280.43 94.99,-286.3"/>
</a>
</g>
</g>
<!-- Node26&#45;&gt;Node24 -->
<g id="edge31_Node000026_Node000024" class="edge">
<title>Node26&#45;&gt;Node24</title>
<g id="a_edge31_Node000026_Node000024"><a xlink:title=" ">
<path fill="none" stroke="#63b8ff" d="M100.62,-246.88C98.33,-245.68 96.11,-244.39 94,-243 66.57,-224.96 45.21,-191.43 35.59,-174.44"/>
<polygon fill="#63b8ff" stroke="#63b8ff" points="99.07,-250.02 109.63,-250.93 101.94,-243.63 99.07,-250.02"/>
</a>
</g>
</g>
<!-- Node27&#45;&gt;Node24 -->
<g id="edge33_Node000027_Node000024" class="edge">
<title>Node27&#45;&gt;Node24</title>
<g id="a_edge33_Node000027_Node000024"><a xlink:title=" ">
<path fill="none" stroke="#63b8ff" d="M99.47,-175.6C85,-173.18 70.31,-170.73 58.18,-168.71"/>
<polygon fill="#63b8ff" stroke="#63b8ff" points="98.5,-178.99 108.94,-177.18 99.65,-172.08 98.5,-178.99"/>
</a>
</g>
</g>
<!-- Node28&#45;&gt;Node24 -->
<g id="edge35_Node000028_Node000024" class="edge">
<title>Node28&#45;&gt;Node24</title>
<g id="a_edge35_Node000028_Node000024"><a xlink:title=" ">
<path fill="none" stroke="#63b8ff" d="M99.47,-152.4C85,-154.82 70.31,-157.27 58.18,-159.29"/>
<polygon fill="#63b8ff" stroke="#63b8ff" points="99.65,-155.92 108.94,-150.82 98.5,-149.01 99.65,-155.92"/>
</a>
</g>
</g>
<!-- Node29&#45;&gt;Node24 -->
<g id="edge37_Node000029_Node000024" class="edge">
<title>Node29&#45;&gt;Node24</title>
<g id="a_edge37_Node000029_Node000024"><a xlink:title=" ">
<path fill="none" stroke="#63b8ff" d="M104.97,-112.25C101.2,-113.71 97.51,-115.29 94,-117 73.92,-126.78 53.63,-143.01 41.43,-153.6"/>
<polygon fill="#63b8ff" stroke="#63b8ff" points="106.02,-115.6 114.3,-108.98 103.7,-108.99 106.02,-115.6"/>
</a>
</g>
</g>
<!-- Node30&#45;&gt;Node24 -->
<g id="edge39_Node000030_Node000024" class="edge">
<title>Node30&#45;&gt;Node24</title>
<g id="a_edge39_Node000030_Node000024"><a xlink:title=" ">
<path fill="none" stroke="#63b8ff" d="M103.17,-73.68C99.97,-75.26 96.88,-77.03 94,-79 65.17,-98.7 44.03,-135.64 34.93,-153.63"/>
<polygon fill="#63b8ff" stroke="#63b8ff" points="104.47,-76.93 112.32,-69.8 101.74,-70.48 104.47,-76.93"/>
</a>
</g>
</g>
<!-- Node31&#45;&gt;Node24 -->
<g id="edge41_Node000031_Node000024" class="edge">
<title>Node31&#45;&gt;Node24</title>
<g id="a_edge41_Node000031_Node000024"><a xlink:title=" ">
<path fill="none" stroke="#63b8ff" d="M103.65,-33.94C100.21,-36.05 96.96,-38.39 94,-41 57.7,-72.99 38.95,-130.57 32.57,-153.84"/>
<polygon fill="#63b8ff" stroke="#63b8ff" points="105.16,-37.1 112.36,-29.33 101.88,-30.92 105.16,-37.1"/>
</a>
</g>
</g>
<!-- Node32&#45;&gt;Node25 -->
<g id="edge43_Node000032_Node000025" class="edge">
<title>Node32&#45;&gt;Node25</title>
<g id="a_edge43_Node000032_Node000025"><a xlink:title=" ">
<path fill="none" stroke="#63b8ff" d="M282.69,-275.28C265.31,-279.77 245.7,-284.84 227.48,-289.54"/>
<polygon fill="#63b8ff" stroke="#63b8ff" points="283.48,-278.7 292.28,-272.81 281.73,-271.92 283.48,-278.7"/>
</a>
</g>
</g>
<!-- Node32&#45;&gt;Node26 -->
<g id="edge44_Node000032_Node000026" class="edge">
<title>Node32&#45;&gt;Node26</title>
<g id="a_edge44_Node000032_Node000026"><a xlink:title=" ">
<path fill="none" stroke="#63b8ff" d="M255.96,-262C247.9,-262 239.75,-262 231.8,-262"/>
<polygon fill="#63b8ff" stroke="#63b8ff" points="255.76,-265.5 265.76,-262 255.76,-258.5 255.76,-265.5"/>
</a>
</g>
</g>
<!-- Node33&#45;&gt;Node32 -->
<g id="edge48_Node000033_Node000032" class="edge">
<title>Node33&#45;&gt;Node32</title>
<g id="a_edge48_Node000033_Node000032"><a xlink:title=" ">
<path fill="none" stroke="#63b8ff" d="M597.57,-262C542.14,-262 460.33,-262 403.03,-262"/>
<polygon fill="#63b8ff" stroke="#63b8ff" points="597.46,-265.5 607.46,-262 597.46,-258.5 597.46,-265.5"/>
</a>
</g>
</g>
<!-- Node34 -->
<g id="Node000034" class="node">
<title>Node34</title>
<g id="a_Node000034"><a xlink:href="lcd1602__rgb_8c.html#a4675a2ae1eb331b5476c475cd042c71d" target="_top" xlink:title="Write a null&#45;terminated string to the display.">
<polygon fill="white" stroke="#666666" points="558.62,-234 453.38,-234 453.38,-214 558.62,-214 558.62,-234"/>
<text xml:space="preserve" text-anchor="middle" x="506" y="-220.5" font-family="Helvetica,sans-Serif" font-size="10.00">lcd1602_send_string</text>
</a>
</g>
</g>
<!-- Node33&#45;&gt;Node34 -->
<g id="edge46_Node000033_Node000034" class="edge">
<title>Node33&#45;&gt;Node34</title>
<g id="a_edge46_Node000033_Node000034"><a xlink:title=" ">
<path fill="none" stroke="#63b8ff" d="M605.52,-248.75C586.88,-244.07 566.18,-238.87 548.59,-234.45"/>
<polygon fill="#63b8ff" stroke="#63b8ff" points="604.5,-252.1 615.05,-251.15 606.21,-245.32 604.5,-252.1"/>
</a>
</g>
</g>
<!-- Node34&#45;&gt;Node22 -->
<g id="edge47_Node000034_Node000022" class="edge">
<title>Node34&#45;&gt;Node22</title>
<g id="a_edge47_Node000034_Node000022"><a xlink:title=" ">
<path fill="none" stroke="#63b8ff" d="M447.33,-211.02C420.85,-205.07 390.46,-198.23 368.14,-193.2"/>
<polygon fill="#63b8ff" stroke="#63b8ff" points="446.41,-214.4 456.93,-213.18 447.94,-207.57 446.41,-214.4"/>
</a>
</g>
</g>
</g>
</svg>
