<?xml version="1.0" encoding="UTF-8" standalone="no"?>
<!DOCTYPE svg PUBLIC "-//W3C//DTD SVG 1.1//EN"
 "http://www.w3.org/Graphics/SVG/1.1/DTD/svg11.dtd">
<!-- Generated by graphviz version 14.1.2 (0)
 -->
<!-- Title: lcd1602_stopBlink Pages: 1 -->
<svg width="349pt" height="28pt"
 viewBox="0.00 0.00 349.00 28.00" xmlns="http://www.w3.org/2000/svg" xmlns:xlink="http://www.w3.org/1999/xlink">
<g id="graph0" class="graph" transform="scale(1 1) rotate(0) translate(4 24)">
<title>lcd1602_stopBlink</title>
<!-- Node1 -->
<g id="Node000001" class="node">
<title>Node1</title>
<g id="a_Node000001"><a xlink:title="Stop cursor blinking.">
<polygon fill="#999999" stroke="#666666" points="95.5,-20 0,-20 0,0 95.5,0 95.5,-20"/>
<text xml:space="preserve" text-anchor="middle" x="47.75" y="-6.5" font-family="Helvetica,sans-Serif" font-size="10.00">lcd1602_stopBlink</text>
</a>
</g>
</g>
<!-- Node2 -->
<g id="Node000002" class="node">
<title>Node2</title>
<g id="a_Node000002"><a xlink:href="lcd1602__rgb_8c.html#a0f2acca4c1aa5a1126b031e719beb4df" target="_top" xlink:title="Send a command byte to the LCD.">
<polygon fill="white" stroke="#666666" points="229.25,-20 131.5,-20 131.5,0 229.25,0 229.25,-20"/>
<text xml:space="preserve" text-anchor="middle" x="180.38" y="-6.5" font-family="Helvetica,sans-Serif" font-size="10.00">lcd1602_command</text>
</a>
</g>
</g>
<!-- Node1&#45;&gt;Node2 -->
<g id="edge1_Node000001_Node000002" class="edge">
<title>Node1&#45;&gt;Node2</title>
<g id="a_edge1_Node000001_Node000002"><a xlink:title=" ">
<path fill="none" stroke="#63b8ff" d="M95.91,-10C103.76,-10 111.98,-10 120.09,-10"/>
<polygon fill="#63b8ff" stroke="#63b8ff" points="119.89,-13.5 129.89,-10 119.89,-6.5 119.89,-13.5"/>
</a>
</g>
</g>
<!-- Node3 -->
<g id="Node000003" class="node">
<title>Node3</title>
<g id="a_Node000003"><a xlink:href="lcd1602__rgb_8c.html#af833ec77ef44dc848f52a09072a777ae" target="_top" xlink:title="Send raw data bytes to the LCD via I2C.">
<polygon fill="white" stroke="#666666" points="341.25,-20 265.25,-20 265.25,0 341.25,0 341.25,-20"/>
<text xml:space="preserve" text-anchor="middle" x="303.25" y="-6.5" font-family="Helvetica,sans-Serif" font-size="10.00">lcd1602_send</text>
</a>
</g>
</g>
<!-- Node2&#45;&gt;Node3 -->
<g id="edge2_Node000002_Node000003" class="edge">
<title>Node2&#45;&gt;Node3</title>
<g id="a_edge2_Node000002_Node000003"><a xlink:title=" ">
<path fill="none" stroke="#63b8ff" d="M229.5,-10C237.46,-10 245.72,-10 253.69,-10"/>
<polygon fill="#63b8ff" stroke="#63b8ff" points="253.58,-13.5 263.58,-10 253.58,-6.5 253.58,-13.5"/>
</a>
</g>
</g>
</g>
</svg>
