<?xml version="1.0" encoding="UTF-8" standalone="no"?>
<!DOCTYPE svg PUBLIC "-//W3C//DTD SVG 1.1//EN"
 "http://www.w3.org/Graphics/SVG/1.1/DTD/svg11.dtd">
<!-- Generated by graphviz version 14.1.2 (0)
 -->
<!-- Title: lcd1602_setCursor Pages: 1 -->
<!--zoomable 330 -->

<svg id="main" version="1.1" xmlns="http://www.w3.org/2000/svg" xmlns:xlink="http://www.w3.org/1999/xlink" xml:space="preserve" onload="init(evt)">

<style type="text/css"><![CDATA[
.node, .edge {opacity: 0.7;}
.node.selected, .edge.selected {opacity: 1;}
.edge:hover path { stroke: red; }
.edge:hover polygon { stroke: red; fill: red; }
]]></style>

<defs>
  <circle id="rim" cx="0" cy="0" r="7"/>
  <circle id="rim2" cx="0" cy="0" r="3.5"/>
  <g id="zoomPlus">
    <use xlink:href="#rim" fill="#404040"><set attributeName="fill" to="#808080" begin="zoomplus.mouseover" end="zoomplus.mouseout"/></use>
    <path d="M-4,0h8M0,-4v8" fill="none" stroke="white" stroke-width="1.5" pointer-events="none"/>
  </g>
  <g id="zoomMin">
    <use xlink:href="#rim" fill="#404040"><set attributeName="fill" to="#808080" begin="zoomminus.mouseover" end="zoomminus.mouseout"/></use>
    <path d="M-4,0h8" fill="none" stroke="white" stroke-width="1.5" pointer-events="none"/>
  </g>
  <g id="arrowUp" transform="translate(30 24)">
    <use xlink:href="#rim"/>
    <path pointer-events="none" fill="none" stroke="white" stroke-width="1.5" d="M0,-3.0v7 M-2.5,-0.5L0,-3.0L2.5,-0.5"/>
  </g>
  <g id="arrowRight" transform="rotate(90) translate(36 -43)">
    <use xlink:href="#rim"/>
    <path pointer-events="none" fill="none" stroke="white" stroke-width="1.5" d="M0,-3.0v7 M-2.5,-0.5L0,-3.0L2.5,-0.5"/>
  </g>
  <g id="arrowDown" transform="rotate(180) translate(-30 -48)">
    <use xlink:href="#rim"/>
    <path pointer-events="none" fill="none" stroke="white" stroke-width="1.5" d="M0,-3.0v7 M-2.5,-0.5L0,-3.0L2.5,-0.5"/>
  </g>
  <g id="arrowLeft" transform="rotate(270) translate(-36 17)">
    <use xlink:href="#rim"/>
    <path pointer-events="none" fill="none" stroke="white" stroke-width="1.5" d="M0,-3.0v7 M-2.5,-0.5L0,-3.0L2.5,-0.5"/>
  </g>
  <g id="resetDef">
    <use xlink:href="#rim2" fill="#404040"><set attributeName="fill" to="#808080" begin="reset.mouseover" end="reset.mouseout"/></use>
  </g>
</defs>
<script type="application/ecmascript">
var viewWidth = 545;
var viewHeight = 330;
var sectionId = 'dynsection-31';
</script>
<script type="application/ecmascript" xlink:href="svg.min.js"/>
<svg id="graph" class="graph">
<g id="viewport">
<title>lcd1602_setCursor</title>
<!-- Node1 -->
<g id="Node000001" class="node">
<title>Node1</title>
<g id="a_Node000001"><a xlink:title="Set cursor position.">
<polygon fill="#999999" stroke="#666666" points="536.5,-234 438.75,-234 438.75,-214 536.5,-214 536.5,-234"/>
<text xml:space="preserve" text-anchor="middle" x="487.62" y="-220.5" font-family="Helvetica,sans-Serif" font-size="10.00">lcd1602_setCursor</text>
</a>
</g>
</g>
<!-- Node2 -->
<g id="Node000002" class="node">
<title>Node2</title>
<g id="a_Node000002"><a xlink:href="ui_8c.html#ab08bf40f29760a62fbea13ac28c412b6" target="_top" xlink:title="Display two rows of text on the LCD.">
<polygon fill="white" stroke="#666666" points="367.88,-196 302.38,-196 302.38,-176 367.88,-176 367.88,-196"/>
<text xml:space="preserve" text-anchor="middle" x="335.12" y="-182.5" font-family="Helvetica,sans-Serif" font-size="10.00">ui_print_lcd</text>
</a>
</g>
</g>
<!-- Node1&#45;&gt;Node2 -->
<g id="edge1_Node000001_Node000002" class="edge">
<title>Node1&#45;&gt;Node2</title>
<g id="a_edge1_Node000001_Node000002"><a xlink:title=" ">
<path fill="none" stroke="#63b8ff" d="M434.21,-210.77C412.14,-205.19 387.19,-198.89 367.97,-194.04"/>
<polygon fill="#63b8ff" stroke="#63b8ff" points="433.08,-214.09 443.63,-213.15 434.8,-207.3 433.08,-214.09"/>
</a>
</g>
</g>
<!-- Node12 -->
<g id="Node000012" class="node">
<title>Node12</title>
<g id="a_Node000012"><a xlink:href="ui_8c.html#a81de81298db27fab4a93d349c6f4defb" target="_top" xlink:title="Print custom degree symbols on LCD for program view.">
<polygon fill="white" stroke="#666666" points="402.75,-272 267.5,-272 267.5,-252 402.75,-252 402.75,-272"/>
<text xml:space="preserve" text-anchor="middle" x="335.12" y="-258.5" font-family="Helvetica,sans-Serif" font-size="10.00">ui_print_lcd_program_symb</text>
</a>
</g>
</g>
<!-- Node1&#45;&gt;Node12 -->
<g id="edge18_Node000001_Node000012" class="edge">
<title>Node1&#45;&gt;Node12</title>
<g id="a_edge18_Node000001_Node000012"><a xlink:title=" ">
<path fill="none" stroke="#63b8ff" d="M434.16,-237.25C415.61,-241.93 395.02,-247.13 377.51,-251.55"/>
<polygon fill="#63b8ff" stroke="#63b8ff" points="434.8,-240.7 443.63,-234.85 433.08,-233.91 434.8,-240.7"/>
</a>
</g>
</g>
<!-- Node3 -->
<g id="Node000003" class="node">
<title>Node3</title>
<g id="a_Node000003"><a xlink:href="ui_8c.html#a9cd652642569d6902183444cd519cc25" target="_top" xlink:title="Handle CREATE_PROGRAM menu state.">
<polygon fill="white" stroke="#666666" points="228.12,-234 97.38,-234 97.38,-214 228.12,-214 228.12,-234"/>
<text xml:space="preserve" text-anchor="middle" x="162.75" y="-220.5" font-family="Helvetica,sans-Serif" font-size="10.00">ui_update_create_program</text>
</a>
</g>
</g>
<!-- Node2&#45;&gt;Node3 -->
<g id="edge2_Node000002_Node000003" class="edge">
<title>Node2&#45;&gt;Node3</title>
<g id="a_edge2_Node000002_Node000003"><a xlink:title=" ">
<path fill="none" stroke="#63b8ff" d="M290.96,-195.63C266.5,-201.08 235.86,-207.92 210.78,-213.51"/>
<polygon fill="#63b8ff" stroke="#63b8ff" points="291.6,-199.07 300.6,-193.48 290.08,-192.24 291.6,-199.07"/>
</a>
</g>
</g>
<!-- Node5 -->
<g id="Node000005" class="node">
<title>Node5</title>
<g id="a_Node000005"><a xlink:href="ui_8c.html#a7328c75524fbd4c255db4ee57d587e16" target="_top" xlink:title="Handle CREATE_PROGRAM_DETAILED menu state.">
<polygon fill="white" stroke="#666666" points="228.12,-322 97.38,-322 97.38,-290 228.12,-290 228.12,-322"/>
<text xml:space="preserve" text-anchor="start" x="105.38" y="-308.5" font-family="Helvetica,sans-Serif" font-size="10.00">ui_update_create_program</text>
<text xml:space="preserve" text-anchor="middle" x="162.75" y="-296.5" font-family="Helvetica,sans-Serif" font-size="10.00">_detailed</text>
</a>
</g>
</g>
<!-- Node2&#45;&gt;Node5 -->
<g id="edge4_Node000002_Node000005" class="edge">
<title>Node2&#45;&gt;Node5</title>
<g id="a_edge4_Node000002_Node000005"><a xlink:title=" ">
<path fill="none" stroke="#63b8ff" d="M312.37,-203.63C299.1,-214.62 281.97,-229.24 267.5,-243 250.64,-259.03 250.92,-268.19 231.5,-281 226.69,-284.17 221.41,-287.02 216,-289.54"/>
<polygon fill="#63b8ff" stroke="#63b8ff" points="314.58,-206.35 320.09,-197.29 310.14,-200.94 314.58,-206.35"/>
</a>
</g>
</g>
<!-- Node6 -->
<g id="Node000006" class="node">
<title>Node6</title>
<g id="a_Node000006"><a xlink:href="ui_8c.html#ab9762754190f18740cddebbe0d59b309" target="_top" xlink:title="Handle PROGRAM_DETAILED menu state.">
<polygon fill="white" stroke="#666666" points="231.5,-272 94,-272 94,-252 231.5,-252 231.5,-272"/>
<text xml:space="preserve" text-anchor="middle" x="162.75" y="-258.5" font-family="Helvetica,sans-Serif" font-size="10.00">ui_update_program_detailed</text>
</a>
</g>
</g>
<!-- Node2&#45;&gt;Node6 -->
<g id="edge6_Node000002_Node000006" class="edge">
<title>Node2&#45;&gt;Node6</title>
<g id="a_edge6_Node000002_Node000006"><a xlink:title=" ">
<path fill="none" stroke="#63b8ff" d="M308.65,-202.36C288.37,-214.82 258.95,-231.71 231.5,-243 223.7,-246.21 215.19,-249.06 206.91,-251.53"/>
<polygon fill="#63b8ff" stroke="#63b8ff" points="310.44,-205.36 317.07,-197.1 306.74,-199.42 310.44,-205.36"/>
</a>
</g>
</g>
<!-- Node7 -->
<g id="Node000007" class="node">
<title>Node7</title>
<g id="a_Node000007"><a xlink:href="ui_8c.html#a3b5feeaa3b12e5b763ca3bada8a6f185" target="_top" xlink:title="Handle PROGRAMS main menu state.">
<polygon fill="white" stroke="#666666" points="214.62,-196 110.88,-196 110.88,-176 214.62,-176 214.62,-196"/>
<text xml:space="preserve" text-anchor="middle" x="162.75" y="-182.5" font-family="Helvetica,sans-Serif" font-size="10.00">ui_update_programs</text>
</a>
</g>
</g>
<!-- Node2&#45;&gt;Node7 -->
<g id="edge8_Node000002_Node000007" class="edge">
<title>Node2&#45;&gt;Node7</title>
<g id="a_edge8_Node000002_Node000007"><a xlink:title=" ">
<path fill="none" stroke="#63b8ff" d="M290.58,-186C267.56,-186 239.16,-186 215.07,-186"/>
<polygon fill="#63b8ff" stroke="#63b8ff" points="290.57,-189.5 300.57,-186 290.57,-182.5 290.57,-189.5"/>
</a>
</g>
</g>
<!-- Node8 -->
<g id="Node000008" class="node">
<title>Node8</title>
<g id="a_Node000008"><a xlink:href="ui_8c.html#aaf5cd0f82052c1fe3150ee31bee733c3" target="_top" xlink:title="Handle PROGRAMS_OVERVIEW menu state.">
<polygon fill="white" stroke="#666666" points="214.62,-158 110.88,-158 110.88,-126 214.62,-126 214.62,-158"/>
<text xml:space="preserve" text-anchor="start" x="118.88" y="-144.5" font-family="Helvetica,sans-Serif" font-size="10.00">ui_update_programs</text>
<text xml:space="preserve" text-anchor="middle" x="162.75" y="-132.5" font-family="Helvetica,sans-Serif" font-size="10.00">_overview</text>
</a>
</g>
</g>
<!-- Node2&#45;&gt;Node8 -->
<g id="edge10_Node000002_Node000008" class="edge">
<title>Node2&#45;&gt;Node8</title>
<g id="a_edge10_Node000002_Node000008"><a xlink:title=" ">
<path fill="none" stroke="#63b8ff" d="M291.21,-174.92C268.08,-168.94 239.38,-161.53 215.07,-155.25"/>
<polygon fill="#63b8ff" stroke="#63b8ff" points="290.06,-178.23 300.61,-177.35 291.81,-171.46 290.06,-178.23"/>
</a>
</g>
</g>
<!-- Node9 -->
<g id="Node000009" class="node">
<title>Node9</title>
<g id="a_Node000009"><a xlink:href="ui_8c.html#a69020987570a087f78cc6e830c66d003" target="_top" xlink:title="Handle SETPOINT menu state.">
<polygon fill="white" stroke="#666666" points="211.62,-108 113.88,-108 113.88,-88 211.62,-88 211.62,-108"/>
<text xml:space="preserve" text-anchor="middle" x="162.75" y="-94.5" font-family="Helvetica,sans-Serif" font-size="10.00">ui_update_setpoint</text>
</a>
</g>
</g>
<!-- Node2&#45;&gt;Node9 -->
<g id="edge12_Node000002_Node000009" class="edge">
<title>Node2&#45;&gt;Node9</title>
<g id="a_edge12_Node000002_Node000009"><a xlink:title=" ">
<path fill="none" stroke="#63b8ff" d="M312.79,-168.68C292.83,-153.21 261.65,-130.93 231.5,-117 224.4,-113.72 216.62,-110.9 208.94,-108.5"/>
<polygon fill="#63b8ff" stroke="#63b8ff" points="310.43,-171.27 320.45,-174.71 314.76,-165.77 310.43,-171.27"/>
</a>
</g>
</g>
<!-- Node10 -->
<g id="Node000010" class="node">
<title>Node10</title>
<g id="a_Node000010"><a xlink:href="ui_8c.html#a02da7ed57381740b440cbbf67658edb7" target="_top" xlink:title="Handle SETTINGS main menu state.">
<polygon fill="white" stroke="#666666" points="211.62,-70 113.88,-70 113.88,-50 211.62,-50 211.62,-70"/>
<text xml:space="preserve" text-anchor="middle" x="162.75" y="-56.5" font-family="Helvetica,sans-Serif" font-size="10.00">ui_update_settings</text>
</a>
</g>
</g>
<!-- Node2&#45;&gt;Node10 -->
<g id="edge14_Node000002_Node000010" class="edge">
<title>Node2&#45;&gt;Node10</title>
<g id="a_edge14_Node000002_Node000010"><a xlink:title=" ">
<path fill="none" stroke="#63b8ff" d="M320.61,-166.51C302.89,-142.41 269.56,-101.81 231.5,-79 225.53,-75.42 218.86,-72.49 212.09,-70.11"/>
<polygon fill="#63b8ff" stroke="#63b8ff" points="317.66,-168.4 326.33,-174.49 323.35,-164.33 317.66,-168.4"/>
</a>
</g>
</g>
<!-- Node11 -->
<g id="Node000011" class="node">
<title>Node11</title>
<g id="a_Node000011"><a xlink:href="ui_8c.html#ae12e11d5bc28a67cea4da70fe20127c3" target="_top" xlink:title="Handle SETTINGS_OVERVIEW menu state.">
<polygon fill="white" stroke="#666666" points="211.62,-32 113.88,-32 113.88,0 211.62,0 211.62,-32"/>
<text xml:space="preserve" text-anchor="start" x="121.88" y="-18.5" font-family="Helvetica,sans-Serif" font-size="10.00">ui_update_settings</text>
<text xml:space="preserve" text-anchor="middle" x="162.75" y="-6.5" font-family="Helvetica,sans-Serif" font-size="10.00">_overview</text>
</a>
</g>
</g>
<!-- Node2&#45;&gt;Node11 -->
<g id="edge16_Node000002_Node000011" class="edge">
<title>Node2&#45;&gt;Node11</title>
<g id="a_edge16_Node000002_Node000011"><a xlink:title=" ">
<path fill="none" stroke="#63b8ff" d="M324.67,-165.52C309.33,-134.41 276.18,-75.26 231.5,-41 225.63,-36.5 218.87,-32.74 211.93,-29.63"/>
<polygon fill="#63b8ff" stroke="#63b8ff" points="321.37,-166.74 328.85,-174.24 327.69,-163.71 321.37,-166.74"/>
</a>
</g>
</g>
<!-- Node4 -->
<g id="Node000004" class="node">
<title>Node4</title>
<g id="a_Node000004"><a xlink:href="ui_8c.html#a1c0a0e3c37fa619fc105b56716b1e08a" target="_top" xlink:title="Main UI state machine update function.">
<polygon fill="white" stroke="#666666" points="58,-174 0,-174 0,-154 58,-154 58,-174"/>
<text xml:space="preserve" text-anchor="middle" x="29" y="-160.5" font-family="Helvetica,sans-Serif" font-size="10.00">ui_update</text>
</a>
</g>
</g>
<!-- Node3&#45;&gt;Node4 -->
<g id="edge3_Node000003_Node000004" class="edge">
<title>Node3&#45;&gt;Node4</title>
<g id="a_edge3_Node000003_Node000004"><a xlink:title=" ">
<path fill="none" stroke="#63b8ff" d="M106.57,-210.02C102.26,-208.48 98.02,-206.8 94,-205 75.46,-196.68 56.06,-183.54 43.55,-174.38"/>
<polygon fill="#63b8ff" stroke="#63b8ff" points="105.31,-213.29 115.91,-213.11 107.51,-206.65 105.31,-213.29"/>
</a>
</g>
</g>
<!-- Node5&#45;&gt;Node4 -->
<g id="edge5_Node000005_Node000004" class="edge">
<title>Node5&#45;&gt;Node4</title>
<g id="a_edge5_Node000005_Node000004"><a xlink:title=" ">
<path fill="none" stroke="#63b8ff" d="M96.93,-283.38C95.93,-282.61 94.95,-281.82 94,-281 59.12,-250.9 39.79,-196.9 32.92,-174.34"/>
<polygon fill="#63b8ff" stroke="#63b8ff" points="94.99,-286.3 105.29,-288.81 98.81,-280.43 94.99,-286.3"/>
</a>
</g>
</g>
<!-- Node6&#45;&gt;Node4 -->
<g id="edge7_Node000006_Node000004" class="edge">
<title>Node6&#45;&gt;Node4</title>
<g id="a_edge7_Node000006_Node000004"><a xlink:title=" ">
<path fill="none" stroke="#63b8ff" d="M100.62,-246.88C98.33,-245.68 96.11,-244.39 94,-243 66.57,-224.96 45.21,-191.43 35.59,-174.44"/>
<polygon fill="#63b8ff" stroke="#63b8ff" points="99.07,-250.02 109.63,-250.93 101.94,-243.63 99.07,-250.02"/>
</a>
</g>
</g>
<!-- Node7&#45;&gt;Node4 -->
<g id="edge9_Node000007_Node000004" class="edge">
<title>Node7&#45;&gt;Node4</title>
<g id="a_edge9_Node000007_Node000004"><a xlink:title=" ">
<path fill="none" stroke="#63b8ff" d="M99.47,-175.6C85,-173.18 70.31,-170.73 58.18,-168.71"/>
<polygon fill="#63b8ff" stroke="#63b8ff" points="98.5,-178.99 108.94,-177.18 99.65,-172.08 98.5,-178.99"/>
</a>
</g>
</g>
<!-- Node8&#45;&gt;Node4 -->
<g id="edge11_Node000008_Node000004" class="edge">
<title>Node8&#45;&gt;Node4</title>
<g id="a_edge11_Node000008_Node000004"><a xlink:title=" ">
<path fill="none" stroke="#63b8ff" d="M99.47,-152.4C85,-154.82 70.31,-157.27 58.18,-159.29"/>
<polygon fill="#63b8ff" stroke="#63b8ff" points="99.65,-155.92 108.94,-150.82 98.5,-149.01 99.65,-155.92"/>
</a>
</g>
</g>
<!-- Node9&#45;&gt;Node4 -->
<g id="edge13_Node000009_Node000004" class="edge">
<title>Node9&#45;&gt;Node4</title>
<g id="a_edge13_Node000009_Node000004"><a xlink:title=" ">
<path fill="none" stroke="#63b8ff" d="M104.97,-112.25C101.2,-113.71 97.51,-115.29 94,-117 73.92,-126.78 53.63,-143.01 41.43,-153.6"/>
<polygon fill="#63b8ff" stroke="#63b8ff" points="106.02,-115.6 114.3,-108.98 103.7,-108.99 106.02,-115.6"/>
</a>
</g>
</g>
<!-- Node10&#45;&gt;Node4 -->
<g id="edge15_Node000010_Node000004" class="edge">
<title>Node10&#45;&gt;Node4</title>
<g id="a_edge15_Node000010_Node000004"><a xlink:title=" ">
<path fill="none" stroke="#63b8ff" d="M103.17,-73.68C99.97,-75.26 96.88,-77.03 94,-79 65.17,-98.7 44.03,-135.64 34.93,-153.63"/>
<polygon fill="#63b8ff" stroke="#63b8ff" points="104.47,-76.93 112.32,-69.8 101.74,-70.48 104.47,-76.93"/>
</a>
</g>
</g>
<!-- Node11&#45;&gt;Node4 -->
<g id="edge17_Node000011_Node000004" class="edge">
<title>Node11&#45;&gt;Node4</title>
<g id="a_edge17_Node000011_Node000004"><a xlink:title=" ">
<path fill="none" stroke="#63b8ff" d="M103.65,-33.94C100.21,-36.05 96.96,-38.39 94,-41 57.7,-72.99 38.95,-130.57 32.57,-153.84"/>
<polygon fill="#63b8ff" stroke="#63b8ff" points="105.16,-37.1 112.36,-29.33 101.88,-30.92 105.16,-37.1"/>
</a>
</g>
</g>
<!-- Node12&#45;&gt;Node5 -->
<g id="edge19_Node000012_Node000005" class="edge">
<title>Node12&#45;&gt;Node5</title>
<g id="a_edge19_Node000012_Node000005"><a xlink:title=" ">
<path fill="none" stroke="#63b8ff" d="M282.69,-275.28C265.31,-279.77 245.7,-284.84 227.48,-289.54"/>
<polygon fill="#63b8ff" stroke="#63b8ff" points="283.48,-278.7 292.28,-272.81 281.73,-271.92 283.48,-278.7"/>
</a>
</g>
</g>
<!-- Node12&#45;&gt;Node6 -->
<g id="edge20_Node000012_Node000006" class="edge">
<title>Node12&#45;&gt;Node6</title>
<g id="a_edge20_Node000012_Node000006"><a xlink:title=" ">
<path fill="none" stroke="#63b8ff" d="M255.96,-262C247.9,-262 239.75,-262 231.8,-262"/>
<polygon fill="#63b8ff" stroke="#63b8ff" points="255.76,-265.5 265.76,-262 255.76,-258.5 255.76,-265.5"/>
</a>
</g>
</g>
</g>
</svg>

<g id="navigator" transform="translate(0 0)" fill="#404254">
  <rect fill="#f2f5e9" fill-opacity="0.5" stroke="#606060" stroke-width=".5" x="0" y="0" width="60" height="60"/>
  <use id="zoomplus" xlink:href="#zoomPlus" x="17" y="9" onmousedown="handleZoom(evt,'in')"/>
  <use id="zoomminus" xlink:href="#zoomMin" x="42" y="9" onmousedown="handleZoom(evt,'out')"/>
  <use id="reset" xlink:href="#resetDef" x="30" y="36" onmousedown="handleReset()"/>
   <use id="arrowup" xlink:href="#arrowUp" x="0" y="0" onmousedown="handlePan(0,-1)"/>
  <use id="arrowright" xlink:href="#arrowRight" x="0" y="0" onmousedown="handlePan(1,0)"/>
  <use id="arrowdown" xlink:href="#arrowDown" x="0" y="0" onmousedown="handlePan(0,1)"/>
  <use id="arrowleft" xlink:href="#arrowLeft" x="0" y="0" onmousedown="handlePan(-1,0)"/>
</g>
<svg viewBox="0 0 15 15" width="100%" height="30px" preserveAspectRatio="xMaxYMin meet">
 <g id="arrow_out" transform="scale(0.3 0.3)">
  <a xlink:href="lcd1602__rgb_8c_acedfa8e3ed17c86c319b1ee71aa43856_icgraph_org.svg" target="_base">
   <rect id="button" ry="5" rx="5" y="6" x="6" height="38" width="38"
        fill="#f2f5e9" fill-opacity="0.5" stroke="#606060" stroke-width="1.0"/>
   <path id="arrow"
     d="M 11.500037,31.436501 C 11.940474,20.09759 22.043105,11.32322 32.158766,21.979434 L 37.068811,17.246167 C 37.068811,17.246167 37.088388,32 37.088388,32 L 22.160133,31.978069 C 22.160133,31.978069 26.997745,27.140456 26.997745,27.140456 C 18.528582,18.264221 13.291696,25.230495 11.500037,31.436501 z"
     style="fill:#404040;"/>
  </a>
 </g>
</svg>

<style type='text/css'>
<![CDATA[
[data-mouse-over-selected='false'] { opacity: 0.7; }
[data-mouse-over-selected='true']  { opacity: 1.0; }
]]>
</style>
<script type="application/ecmascript"><![CDATA[
document.addEventListener('DOMContentLoaded', (event) => {
  highlightEdges();
  highlightAdjacentNodes();
});
]]></script>
</svg>
