<?xml version="1.0" encoding="UTF-8" standalone="no"?>
<!DOCTYPE svg PUBLIC "-//W3C//DTD SVG 1.1//EN"
 "http://www.w3.org/Graphics/SVG/1.1/DTD/svg11.dtd">
<!-- Generated by graphviz version 14.1.2 (0)
 -->
<!-- Title: lcd1602_command Pages: 1 -->
<!--zoomable 560 -->

<svg id="main" version="1.1" xmlns="http://www.w3.org/2000/svg" xmlns:xlink="http://www.w3.org/1999/xlink" xml:space="preserve" onload="init(evt)">

<style type="text/css"><![CDATA[
.node, .edge {opacity: 0.7;}
.node.selected, .edge.selected {opacity: 1;}
.edge:hover path { stroke: red; }
.edge:hover polygon { stroke: red; fill: red; }
]]></style>

<defs>
  <circle id="rim" cx="0" cy="0" r="7"/>
  <circle id="rim2" cx="0" cy="0" r="3.5"/>
  <g id="zoomPlus">
    <use xlink:href="#rim" fill="#404040"><set attributeName="fill" to="#808080" begin="zoomplus.mouseover" end="zoomplus.mouseout"/></use>
    <path d="M-4,0h8M0,-4v8" fill="none" stroke="white" stroke-width="1.5" pointer-events="none"/>
  </g>
  <g id="zoomMin">
    <use xlink:href="#rim" fill="#404040"><set attributeName="fill" to="#808080" begin="zoomminus.mouseover" end="zoomminus.mouseout"/></use>
    <path d="M-4,0h8" fill="none" stroke="white" stroke-width="1.5" pointer-events="none"/>
  </g>
  <g id="arrowUp" transform="translate(30 24)">
    <use xlink:href="#rim"/>
    <path pointer-events="none" fill="none" stroke="white" stroke-width="1.5" d="M0,-3.0v7 M-2.5,-0.5L0,-3.0L2.5,-0.5"/>
  </g>
  <g id="arrowRight" transform="rotate(90) translate(36 -43)">
    <use xlink:href="#rim"/>
    <path pointer-events="none" fill="none" stroke="white" stroke-width="1.5" d="M0,-3.0v7 M-2.5,-0.5L0,-3.0L2.5,-0.5"/>
  </g>
  <g id="arrowDown" transform="rotate(180) translate(-30 -48)">
    <use xlink:href="#rim"/>
    <path pointer-events="none" fill="none" stroke="white" stroke-width="1.5" d="M0,-3.0v7 M-2.5,-0.5L0,-3.0L2.5,-0.5"/>
  </g>
  <g id="arrowLeft" transform="rotate(270) translate(-36 17)">
    <use xlink:href="#rim"/>
    <path pointer-events="none" fill="none" stroke="white" stroke-width="1.5" d="M0,-3.0v7 M-2.5,-0.5L0,-3.0L2.5,-0.5"/>
  </g>
  <g id="resetDef">
    <use xlink:href="#rim2" fill="#404040"><set attributeName="fill" to="#808080" begin="reset.mouseover" end="reset.mouseout"/></use>
  </g>
</defs>
<script type="application/ecmascript">
var viewWidth = 567;
var viewHeight = 560;
var sectionId = 'dynsection-9';
</script>
<script type="application/ecmascript" xlink:href="svg.min.js"/>
<svg id="graph" class="graph">
<g id="viewport">
<title>lcd1602_command</title>
<!-- Node1 -->
<g id="Node000001" class="node">
<title>Node1</title>
<g id="a_Node000001"><a xlink:title="Send a command byte to the LCD.">
<polygon fill="#999999" stroke="#666666" points="559.25,-286 461.5,-286 461.5,-266 559.25,-266 559.25,-286"/>
<text xml:space="preserve" text-anchor="middle" x="510.38" y="-272.5" font-family="Helvetica,sans-Serif" font-size="10.00">lcd1602_command</text>
</a>
</g>
</g>
<!-- Node2 -->
<g id="Node000002" class="node">
<title>Node2</title>
<g id="a_Node000002"><a xlink:href="lcd1602__rgb_8c.html#a603d596039ec81fc8d8f452edba62611" target="_top" xlink:title="Enable autoscroll mode.">
<polygon fill="white" stroke="#666666" points="406.75,-552 309.75,-552 309.75,-532 406.75,-532 406.75,-552"/>
<text xml:space="preserve" text-anchor="middle" x="358.25" y="-538.5" font-family="Helvetica,sans-Serif" font-size="10.00">lcd1602_autoscroll</text>
</a>
</g>
</g>
<!-- Node1&#45;&gt;Node2 -->
<g id="edge1_Node000001_Node000002" class="edge">
<title>Node1&#45;&gt;Node2</title>
<g id="a_edge1_Node000001_Node000002"><a xlink:title=" ">
<path fill="none" stroke="#63b8ff" d="M507.95,-297.74C503.74,-344.44 487.43,-455.2 425.5,-518 419.74,-523.84 412.46,-528.26 404.85,-531.61"/>
<polygon fill="#63b8ff" stroke="#63b8ff" points="511.43,-298.11 508.73,-287.86 504.46,-297.56 511.43,-298.11"/>
</a>
</g>
</g>
<!-- Node3 -->
<g id="Node000003" class="node">
<title>Node3</title>
<g id="a_Node000003"><a xlink:href="lcd1602__rgb_8c.html#a971081be754ef4622e54951a306bca10" target="_top" xlink:title="Begin display operation with full initialization sequence.">
<polygon fill="white" stroke="#666666" points="255,-419 176.75,-419 176.75,-399 255,-399 255,-419"/>
<text xml:space="preserve" text-anchor="middle" x="215.88" y="-405.5" font-family="Helvetica,sans-Serif" font-size="10.00">lcd1602_begin</text>
</a>
</g>
</g>
<!-- Node1&#45;&gt;Node3 -->
<g id="edge2_Node000001_Node000003" class="edge">
<title>Node1&#45;&gt;Node3</title>
<g id="a_edge2_Node000001_Node000003"><a xlink:title=" ">
<path fill="none" stroke="#63b8ff" d="M508.18,-297.89C504.44,-342.23 489.03,-442.04 425.5,-485 375.98,-518.49 346.08,-508.22 291,-485 259.07,-471.54 234.06,-436.86 223.03,-419.39"/>
<polygon fill="#63b8ff" stroke="#63b8ff" points="511.67,-298.22 508.88,-288 504.68,-297.73 511.67,-298.22"/>
</a>
</g>
</g>
<!-- Node6 -->
<g id="Node000006" class="node">
<title>Node6</title>
<g id="a_Node000006"><a xlink:href="lcd1602__rgb_8c.html#ab4f828a524cfc67af4f2de2f233e5aed" target="_top" xlink:title="Enable cursor blinking.">
<polygon fill="white" stroke="#666666" points="395.88,-476 320.62,-476 320.62,-456 395.88,-456 395.88,-476"/>
<text xml:space="preserve" text-anchor="middle" x="358.25" y="-462.5" font-family="Helvetica,sans-Serif" font-size="10.00">lcd1602_blink</text>
</a>
</g>
</g>
<!-- Node1&#45;&gt;Node6 -->
<g id="edge5_Node000001_Node000006" class="edge">
<title>Node1&#45;&gt;Node6</title>
<g id="a_edge5_Node000001_Node000006"><a xlink:title=" ">
<path fill="none" stroke="#63b8ff" d="M504.83,-297.42C496.02,-333.69 473.13,-407.12 425.5,-447 417.24,-453.91 406.6,-458.31 396.28,-461.11"/>
<polygon fill="#63b8ff" stroke="#63b8ff" points="508.23,-298.27 507.04,-287.74 501.41,-296.71 508.23,-298.27"/>
</a>
</g>
</g>
<!-- Node7 -->
<g id="Node000007" class="node">
<title>Node7</title>
<g id="a_Node000007"><a xlink:href="lcd1602__rgb_8c.html#af0c1d216ce5b0f77cdb3cbfebb180ac4" target="_top" xlink:title="Clear the display and return cursor to home.">
<polygon fill="white" stroke="#666666" points="396.25,-438 320.25,-438 320.25,-418 396.25,-418 396.25,-438"/>
<text xml:space="preserve" text-anchor="middle" x="358.25" y="-424.5" font-family="Helvetica,sans-Serif" font-size="10.00">lcd1602_clear</text>
</a>
</g>
</g>
<!-- Node1&#45;&gt;Node7 -->
<g id="edge6_Node000001_Node000007" class="edge">
<title>Node1&#45;&gt;Node7</title>
<g id="a_edge6_Node000001_Node000007"><a xlink:title=" ">
<path fill="none" stroke="#63b8ff" d="M501.67,-297.19C489.85,-326.68 464.46,-379.77 425.5,-409 417.08,-415.32 406.62,-419.54 396.52,-422.36"/>
<polygon fill="#63b8ff" stroke="#63b8ff" points="504.93,-298.47 505.24,-287.88 498.39,-295.96 504.93,-298.47"/>
</a>
</g>
</g>
<!-- Node8 -->
<g id="Node000008" class="node">
<title>Node8</title>
<g id="a_Node000008"><a xlink:href="lcd1602__rgb_8c.html#a33a4eefc24003dd089d9463a8a2c2332" target="_top" xlink:title="Show the cursor (underscore).">
<polygon fill="white" stroke="#666666" points="399.25,-400 317.25,-400 317.25,-380 399.25,-380 399.25,-400"/>
<text xml:space="preserve" text-anchor="middle" x="358.25" y="-386.5" font-family="Helvetica,sans-Serif" font-size="10.00">lcd1602_cursor</text>
</a>
</g>
</g>
<!-- Node1&#45;&gt;Node8 -->
<g id="edge8_Node000001_Node000008" class="edge">
<title>Node1&#45;&gt;Node8</title>
<g id="a_edge8_Node000001_Node000008"><a xlink:title=" ">
<path fill="none" stroke="#63b8ff" d="M496.98,-295.79C482.43,-317.4 456.35,-351.51 425.5,-371 417.71,-375.92 408.61,-379.6 399.7,-382.34"/>
<polygon fill="#63b8ff" stroke="#63b8ff" points="499.8,-297.86 502.33,-287.58 493.94,-294.04 499.8,-297.86"/>
</a>
</g>
</g>
<!-- Node9 -->
<g id="Node000009" class="node">
<title>Node9</title>
<g id="a_Node000009"><a xlink:href="lcd1602__rgb_8c.html#a8bd959dd5ad9fbb32f319b142ebcce17" target="_top" xlink:title="Create a custom character in CGRAM.">
<polygon fill="white" stroke="#666666" points="418.38,-324 298.12,-324 298.12,-304 418.38,-304 418.38,-324"/>
<text xml:space="preserve" text-anchor="middle" x="358.25" y="-310.5" font-family="Helvetica,sans-Serif" font-size="10.00">lcd1602_customSymbol</text>
</a>
</g>
</g>
<!-- Node1&#45;&gt;Node9 -->
<g id="edge9_Node000001_Node000009" class="edge">
<title>Node1&#45;&gt;Node9</title>
<g id="a_edge9_Node000001_Node000009"><a xlink:title=" ">
<path fill="none" stroke="#63b8ff" d="M457.04,-289.25C438.53,-293.93 417.99,-299.13 400.53,-303.55"/>
<polygon fill="#63b8ff" stroke="#63b8ff" points="457.65,-292.7 466.49,-286.86 455.93,-285.92 457.65,-292.7"/>
</a>
</g>
</g>
<!-- Node11 -->
<g id="Node000011" class="node">
<title>Node11</title>
<g id="a_Node000011"><a xlink:href="lcd1602__rgb_8c.html#a63497d3efb539cc2db79a2ef8de2f1fa" target="_top" xlink:title="Turn on the display.">
<polygon fill="white" stroke="#666666" points="401.12,-362 315.38,-362 315.38,-342 401.12,-342 401.12,-362"/>
<text xml:space="preserve" text-anchor="middle" x="358.25" y="-348.5" font-family="Helvetica,sans-Serif" font-size="10.00">lcd1602_display</text>
</a>
</g>
</g>
<!-- Node1&#45;&gt;Node11 -->
<g id="edge12_Node000001_Node000011" class="edge">
<title>Node1&#45;&gt;Node11</title>
<g id="a_edge12_Node000001_Node000011"><a xlink:title=" ">
<path fill="none" stroke="#63b8ff" d="M488.08,-293.28C471.78,-305.8 448.29,-322.32 425.5,-333 417.92,-336.55 409.52,-339.58 401.34,-342.11"/>
<polygon fill="#63b8ff" stroke="#63b8ff" points="489.89,-296.31 495.6,-287.39 485.57,-290.81 489.89,-296.31"/>
</a>
</g>
</g>
<!-- Node12 -->
<g id="Node000012" class="node">
<title>Node12</title>
<g id="a_Node000012"><a xlink:href="lcd1602__rgb_8c.html#a5273443e59e2b88c06073bff39a471a5" target="_top" xlink:title="Return cursor to home position (0,0).">
<polygon fill="white" stroke="#666666" points="397.75,-286 318.75,-286 318.75,-266 397.75,-266 397.75,-286"/>
<text xml:space="preserve" text-anchor="middle" x="358.25" y="-272.5" font-family="Helvetica,sans-Serif" font-size="10.00">lcd1602_home</text>
</a>
</g>
</g>
<!-- Node1&#45;&gt;Node12 -->
<g id="edge14_Node000001_Node000012" class="edge">
<title>Node1&#45;&gt;Node12</title>
<g id="a_edge14_Node000001_Node000012"><a xlink:title=" ">
<path fill="none" stroke="#63b8ff" d="M449.8,-276C432.36,-276 413.76,-276 397.98,-276"/>
<polygon fill="#63b8ff" stroke="#63b8ff" points="449.53,-279.5 459.53,-276 449.53,-272.5 449.53,-279.5"/>
</a>
</g>
</g>
<!-- Node13 -->
<g id="Node000013" class="node">
<title>Node13</title>
<g id="a_Node000013"><a xlink:href="lcd1602__rgb_8c.html#aa61ffff5e749a550f8ba999a9be296c8" target="_top" xlink:title="Set text direction to left&#45;to&#45;right.">
<polygon fill="white" stroke="#666666" points="409.38,-248 307.12,-248 307.12,-228 409.38,-228 409.38,-248"/>
<text xml:space="preserve" text-anchor="middle" x="358.25" y="-234.5" font-family="Helvetica,sans-Serif" font-size="10.00">lcd1602_leftToRight</text>
</a>
</g>
</g>
<!-- Node1&#45;&gt;Node13 -->
<g id="edge15_Node000001_Node000013" class="edge">
<title>Node1&#45;&gt;Node13</title>
<g id="a_edge15_Node000001_Node000013"><a xlink:title=" ">
<path fill="none" stroke="#63b8ff" d="M457.04,-262.75C438.53,-258.07 417.99,-252.87 400.53,-248.45"/>
<polygon fill="#63b8ff" stroke="#63b8ff" points="455.93,-266.08 466.49,-265.14 457.65,-259.3 455.93,-266.08"/>
</a>
</g>
</g>
<!-- Node14 -->
<g id="Node000014" class="node">
<title>Node14</title>
<g id="a_Node000014"><a xlink:href="lcd1602__rgb_8c.html#adec420feef392d4305cf50c869c73064" target="_top" xlink:title="Disable autoscroll mode.">
<polygon fill="white" stroke="#666666" points="412.75,-210 303.75,-210 303.75,-190 412.75,-190 412.75,-210"/>
<text xml:space="preserve" text-anchor="middle" x="358.25" y="-196.5" font-family="Helvetica,sans-Serif" font-size="10.00">lcd1602_noAutoscroll</text>
</a>
</g>
</g>
<!-- Node1&#45;&gt;Node14 -->
<g id="edge16_Node000001_Node000014" class="edge">
<title>Node1&#45;&gt;Node14</title>
<g id="a_edge16_Node000001_Node000014"><a xlink:title=" ">
<path fill="none" stroke="#63b8ff" d="M488.08,-258.72C471.78,-246.2 448.29,-229.68 425.5,-219 418.46,-215.7 410.72,-212.85 403.09,-210.44"/>
<polygon fill="#63b8ff" stroke="#63b8ff" points="485.57,-261.19 495.6,-264.61 489.89,-255.69 485.57,-261.19"/>
</a>
</g>
</g>
<!-- Node15 -->
<g id="Node000015" class="node">
<title>Node15</title>
<g id="a_Node000015"><a xlink:href="lcd1602__rgb_8c.html#a1363e532571df006a3729d28495ae71e" target="_top" xlink:title="Hide the cursor.">
<polygon fill="white" stroke="#666666" points="405.62,-172 310.88,-172 310.88,-152 405.62,-152 405.62,-172"/>
<text xml:space="preserve" text-anchor="middle" x="358.25" y="-158.5" font-family="Helvetica,sans-Serif" font-size="10.00">lcd1602_noCursor</text>
</a>
</g>
</g>
<!-- Node1&#45;&gt;Node15 -->
<g id="edge17_Node000001_Node000015" class="edge">
<title>Node1&#45;&gt;Node15</title>
<g id="a_edge17_Node000001_Node000015"><a xlink:title=" ">
<path fill="none" stroke="#63b8ff" d="M496.98,-256.21C482.43,-234.6 456.35,-200.49 425.5,-181 419.53,-177.23 412.8,-174.19 405.96,-171.74"/>
<polygon fill="#63b8ff" stroke="#63b8ff" points="493.94,-257.96 502.33,-264.42 499.8,-254.14 493.94,-257.96"/>
</a>
</g>
</g>
<!-- Node16 -->
<g id="Node000016" class="node">
<title>Node16</title>
<g id="a_Node000016"><a xlink:href="lcd1602__rgb_8c.html#a292471c6502a785731a09d2a708410fd" target="_top" xlink:title="Set text direction to right&#45;to&#45;left.">
<polygon fill="white" stroke="#666666" points="408.62,-134 307.88,-134 307.88,-114 408.62,-114 408.62,-134"/>
<text xml:space="preserve" text-anchor="middle" x="358.25" y="-120.5" font-family="Helvetica,sans-Serif" font-size="10.00">lcd1602_rightToLeft</text>
</a>
</g>
</g>
<!-- Node1&#45;&gt;Node16 -->
<g id="edge18_Node000001_Node000016" class="edge">
<title>Node1&#45;&gt;Node16</title>
<g id="a_edge18_Node000001_Node000016"><a xlink:title=" ">
<path fill="none" stroke="#63b8ff" d="M501.67,-254.81C489.85,-225.32 464.46,-172.23 425.5,-143 420.52,-139.27 414.83,-136.26 408.93,-133.85"/>
<polygon fill="#63b8ff" stroke="#63b8ff" points="498.39,-256.04 505.24,-264.12 504.93,-253.53 498.39,-256.04"/>
</a>
</g>
</g>
<!-- Node17 -->
<g id="Node000017" class="node">
<title>Node17</title>
<g id="a_Node000017"><a xlink:href="lcd1602__rgb_8c.html#a86083f2813827fa282a9021d582772a1" target="_top" xlink:title="Scroll display content left by one position.">
<polygon fill="white" stroke="#666666" points="422.12,-96 294.38,-96 294.38,-76 422.12,-76 422.12,-96"/>
<text xml:space="preserve" text-anchor="middle" x="358.25" y="-82.5" font-family="Helvetica,sans-Serif" font-size="10.00">lcd1602_scrollDisplayLeft</text>
</a>
</g>
</g>
<!-- Node1&#45;&gt;Node17 -->
<g id="edge19_Node000001_Node000017" class="edge">
<title>Node1&#45;&gt;Node17</title>
<g id="a_edge19_Node000001_Node000017"><a xlink:title=" ">
<path fill="none" stroke="#63b8ff" d="M504.83,-254.58C496.02,-218.31 473.13,-144.88 425.5,-105 421.37,-101.54 416.65,-98.72 411.66,-96.4"/>
<polygon fill="#63b8ff" stroke="#63b8ff" points="501.41,-255.29 507.04,-264.26 508.23,-253.73 501.41,-255.29"/>
</a>
</g>
</g>
<!-- Node18 -->
<g id="Node000018" class="node">
<title>Node18</title>
<g id="a_Node000018"><a xlink:href="lcd1602__rgb_8c.html#a6ed0d7ab34b3bac8657a88c1815bf94b" target="_top" xlink:title="Scroll display content right by one position.">
<polygon fill="white" stroke="#666666" points="425.5,-58 291,-58 291,-38 425.5,-38 425.5,-58"/>
<text xml:space="preserve" text-anchor="middle" x="358.25" y="-44.5" font-family="Helvetica,sans-Serif" font-size="10.00">lcd1602_scrollDisplayRight</text>
</a>
</g>
</g>
<!-- Node1&#45;&gt;Node18 -->
<g id="edge20_Node000001_Node000018" class="edge">
<title>Node1&#45;&gt;Node18</title>
<g id="a_edge20_Node000001_Node000018"><a xlink:title=" ">
<path fill="none" stroke="#63b8ff" d="M506.98,-254.65C501.11,-212.46 482.05,-118.04 425.5,-67 421.68,-63.55 417.28,-60.73 412.59,-58.41"/>
<polygon fill="#63b8ff" stroke="#63b8ff" points="503.5,-254.98 508.22,-264.47 510.44,-254.11 503.5,-254.98"/>
</a>
</g>
</g>
<!-- Node19 -->
<g id="Node000019" class="node">
<title>Node19</title>
<g id="a_Node000019"><a xlink:href="lcd1602__rgb_8c.html#adacbbe9d5d0d94871587d6ba28b7498a" target="_top" xlink:title="Stop cursor blinking (cursor still visible).">
<polygon fill="white" stroke="#666666" points="406,-20 310.5,-20 310.5,0 406,0 406,-20"/>
<text xml:space="preserve" text-anchor="middle" x="358.25" y="-6.5" font-family="Helvetica,sans-Serif" font-size="10.00">lcd1602_stopBlink</text>
</a>
</g>
</g>
<!-- Node1&#45;&gt;Node19 -->
<g id="edge21_Node000001_Node000019" class="edge">
<title>Node1&#45;&gt;Node19</title>
<g id="a_edge21_Node000001_Node000019"><a xlink:title=" ">
<path fill="none" stroke="#63b8ff" d="M508.47,-254.13C505.27,-206.21 490.81,-91.25 425.5,-29 420.13,-23.88 413.47,-20.13 406.47,-17.38"/>
<polygon fill="#63b8ff" stroke="#63b8ff" points="504.97,-254.23 509.01,-264.02 511.96,-253.84 504.97,-254.23"/>
</a>
</g>
</g>
<!-- Node4 -->
<g id="Node000004" class="node">
<title>Node4</title>
<g id="a_Node000004"><a xlink:href="lcd1602__rgb_8c.html#a46c1528764d32608b85028f9f6a13dc6" target="_top" xlink:title="Initialize the LCD display.">
<polygon fill="white" stroke="#666666" points="140.75,-409 73,-409 73,-389 140.75,-389 140.75,-409"/>
<text xml:space="preserve" text-anchor="middle" x="106.88" y="-395.5" font-family="Helvetica,sans-Serif" font-size="10.00">lcd1602_init</text>
</a>
</g>
</g>
<!-- Node3&#45;&gt;Node4 -->
<g id="edge3_Node000003_Node000004" class="edge">
<title>Node3&#45;&gt;Node4</title>
<g id="a_edge3_Node000003_Node000004"><a xlink:title=" ">
<path fill="none" stroke="#63b8ff" d="M165.13,-404.35C156.94,-403.59 148.63,-402.81 140.98,-402.09"/>
<polygon fill="#63b8ff" stroke="#63b8ff" points="164.76,-407.83 175.04,-405.28 165.41,-400.86 164.76,-407.83"/>
</a>
</g>
</g>
<!-- Node5 -->
<g id="Node000005" class="node">
<title>Node5</title>
<g id="a_Node000005"><a xlink:href="main_8c.html#a840291bc02cba5474a4cb46a9b9566fe" target="_top" xlink:title="The application entry point.">
<polygon fill="white" stroke="#666666" points="37,-381 0,-381 0,-361 37,-361 37,-381"/>
<text xml:space="preserve" text-anchor="middle" x="18.5" y="-367.5" font-family="Helvetica,sans-Serif" font-size="10.00">main</text>
</a>
</g>
</g>
<!-- Node4&#45;&gt;Node5 -->
<g id="edge4_Node000004_Node000005" class="edge">
<title>Node4&#45;&gt;Node5</title>
<g id="a_edge4_Node000004_Node000005"><a xlink:title=" ">
<path fill="none" stroke="#63b8ff" d="M62.85,-385.05C53.85,-382.14 44.85,-379.22 37.4,-376.8"/>
<polygon fill="#63b8ff" stroke="#63b8ff" points="61.68,-388.35 72.27,-388.11 63.84,-381.69 61.68,-388.35"/>
</a>
</g>
</g>
<!-- Node7&#45;&gt;Node3 -->
<g id="edge7_Node000007_Node000003" class="edge">
<title>Node7&#45;&gt;Node3</title>
<g id="a_edge7_Node000007_Node000003"><a xlink:title=" ">
<path fill="none" stroke="#63b8ff" d="M308.84,-421.45C291.33,-419.08 271.81,-416.44 255.28,-414.2"/>
<polygon fill="#63b8ff" stroke="#63b8ff" points="308.12,-424.88 318.5,-422.76 309.06,-417.95 308.12,-424.88"/>
</a>
</g>
</g>
<!-- Node10 -->
<g id="Node000010" class="node">
<title>Node10</title>
<g id="a_Node000010"><a xlink:href="ui_8c.html#a4f4b9a90a4a79b7a2c5bd2e4454e6331" target="_top" xlink:title="Initialize the UI module.">
<polygon fill="white" stroke="#666666" points="126.5,-362 87.25,-362 87.25,-342 126.5,-342 126.5,-362"/>
<text xml:space="preserve" text-anchor="middle" x="106.88" y="-348.5" font-family="Helvetica,sans-Serif" font-size="10.00">initUI</text>
</a>
</g>
</g>
<!-- Node9&#45;&gt;Node10 -->
<g id="edge10_Node000009_Node000010" class="edge">
<title>Node9&#45;&gt;Node10</title>
<g id="a_edge10_Node000009_Node000010"><a xlink:title=" ">
<path fill="none" stroke="#63b8ff" d="M286.49,-324.78C232.01,-333.08 160.52,-343.98 126.9,-349.1"/>
<polygon fill="#63b8ff" stroke="#63b8ff" points="286.98,-328.25 296.34,-323.28 285.93,-321.33 286.98,-328.25"/>
</a>
</g>
</g>
<!-- Node10&#45;&gt;Node5 -->
<g id="edge11_Node000010_Node000005" class="edge">
<title>Node10&#45;&gt;Node5</title>
<g id="a_edge11_Node000010_Node000005"><a xlink:title=" ">
<path fill="none" stroke="#63b8ff" d="M75.95,-358.58C63.07,-361.42 48.45,-364.63 37.32,-367.08"/>
<polygon fill="#63b8ff" stroke="#63b8ff" points="76.64,-362.01 85.65,-356.45 75.14,-355.18 76.64,-362.01"/>
</a>
</g>
</g>
<!-- Node11&#45;&gt;Node3 -->
<g id="edge13_Node000011_Node000003" class="edge">
<title>Node11&#45;&gt;Node3</title>
<g id="a_edge13_Node000011_Node000003"><a xlink:title=" ">
<path fill="none" stroke="#63b8ff" d="M305.43,-365.8C300.51,-367.43 295.63,-369.17 291,-371 271.1,-378.87 249.43,-390.34 234.69,-398.62"/>
<polygon fill="#63b8ff" stroke="#63b8ff" points="306.25,-369.21 314.75,-362.88 304.16,-362.53 306.25,-369.21"/>
</a>
</g>
</g>
</g>
</svg>

<g id="navigator" transform="translate(0 0)" fill="#404254">
  <rect fill="#f2f5e9" fill-opacity="0.5" stroke="#606060" stroke-width=".5" x="0" y="0" width="60" height="60"/>
  <use id="zoomplus" xlink:href="#zoomPlus" x="17" y="9" onmousedown="handleZoom(evt,'in')"/>
  <use id="zoomminus" xlink:href="#zoomMin" x="42" y="9" onmousedown="handleZoom(evt,'out')"/>
  <use id="reset" xlink:href="#resetDef" x="30" y="36" onmousedown="handleReset()"/>
   <use id="arrowup" xlink:href="#arrowUp" x="0" y="0" onmousedown="handlePan(0,-1)"/>
  <use id="arrowright" xlink:href="#arrowRight" x="0" y="0" onmousedown="handlePan(1,0)"/>
  <use id="arrowdown" xlink:href="#arrowDown" x="0" y="0" onmousedown="handlePan(0,1)"/>
  <use id="arrowleft" xlink:href="#arrowLeft" x="0" y="0" onmousedown="handlePan(-1,0)"/>
</g>
<svg viewBox="0 0 15 15" width="100%" height="30px" preserveAspectRatio="xMaxYMin meet">
 <g id="arrow_out" transform="scale(0.3 0.3)">
  <a xlink:href="lcd1602__rgb_8c_a0f2acca4c1aa5a1126b031e719beb4df_icgraph_org.svg" target="_base">
   <rect id="button" ry="5" rx="5" y="6" x="6" height="38" width="38"
        fill="#f2f5e9" fill-opacity="0.5" stroke="#606060" stroke-width="1.0"/>
   <path id="arrow"
     d="M 11.500037,31.436501 C 11.940474,20.09759 22.043105,11.32322 32.158766,21.979434 L 37.068811,17.246167 C 37.068811,17.246167 37.088388,32 37.088388,32 L 22.160133,31.978069 C 22.160133,31.978069 26.997745,27.140456 26.997745,27.140456 C 18.528582,18.264221 13.291696,25.230495 11.500037,31.436501 z"
     style="fill:#404040;"/>
  </a>
 </g>
</svg>

<style type='text/css'>
<![CDATA[
[data-mouse-over-selected='false'] { opacity: 0.7; }
[data-mouse-over-selected='true']  { opacity: 1.0; }
]]>
</style>
<script type="application/ecmascript"><![CDATA[
document.addEventListener('DOMContentLoaded', (event) => {
  highlightEdges();
  highlightAdjacentNodes();
});
]]></script>
</svg>
