<?xml version="1.0" encoding="UTF-8" standalone="no"?>
<!DOCTYPE svg PUBLIC "-//W3C//DTD SVG 1.1//EN"
 "http://www.w3.org/Graphics/SVG/1.1/DTD/svg11.dtd">
<!-- Generated by graphviz version 14.1.2 (0)
 -->
<!-- Title: lcd1602_cursor Pages: 1 -->
<svg width="336pt" height="28pt"
 viewBox="0.00 0.00 336.00 28.00" xmlns="http://www.w3.org/2000/svg" xmlns:xlink="http://www.w3.org/1999/xlink">
<g id="graph0" class="graph" transform="scale(1 1) rotate(0) translate(4 24)">
<title>lcd1602_cursor</title>
<!-- Node1 -->
<g id="Node000001" class="node">
<title>Node1</title>
<g id="a_Node000001"><a xlink:title="Show the cursor (underscore).">
<polygon fill="#999999" stroke="#666666" points="82,-20 0,-20 0,0 82,0 82,-20"/>
<text xml:space="preserve" text-anchor="middle" x="41" y="-6.5" font-family="Helvetica,sans-Serif" font-size="10.00">lcd1602_cursor</text>
</a>
</g>
</g>
<!-- Node2 -->
<g id="Node000002" class="node">
<title>Node2</title>
<g id="a_Node000002"><a xlink:href="lcd1602__rgb_8c.html#a0f2acca4c1aa5a1126b031e719beb4df" target="_top" xlink:title="Send a command byte to the LCD.">
<polygon fill="white" stroke="#666666" points="215.75,-20 118,-20 118,0 215.75,0 215.75,-20"/>
<text xml:space="preserve" text-anchor="middle" x="166.88" y="-6.5" font-family="Helvetica,sans-Serif" font-size="10.00">lcd1602_command</text>
</a>
</g>
</g>
<!-- Node1&#45;&gt;Node2 -->
<g id="edge1_Node000001_Node000002" class="edge">
<title>Node1&#45;&gt;Node2</title>
<g id="a_edge1_Node000001_Node000002"><a xlink:title=" ">
<path fill="none" stroke="#63b8ff" d="M82.22,-10C89.9,-10 98.09,-10 106.23,-10"/>
<polygon fill="#63b8ff" stroke="#63b8ff" points="106.14,-13.5 116.14,-10 106.14,-6.5 106.14,-13.5"/>
</a>
</g>
</g>
<!-- Node3 -->
<g id="Node000003" class="node">
<title>Node3</title>
<g id="a_Node000003"><a xlink:href="lcd1602__rgb_8c.html#af833ec77ef44dc848f52a09072a777ae" target="_top" xlink:title="Send raw data bytes to the LCD via I2C.">
<polygon fill="white" stroke="#666666" points="327.75,-20 251.75,-20 251.75,0 327.75,0 327.75,-20"/>
<text xml:space="preserve" text-anchor="middle" x="289.75" y="-6.5" font-family="Helvetica,sans-Serif" font-size="10.00">lcd1602_send</text>
</a>
</g>
</g>
<!-- Node2&#45;&gt;Node3 -->
<g id="edge2_Node000002_Node000003" class="edge">
<title>Node2&#45;&gt;Node3</title>
<g id="a_edge2_Node000002_Node000003"><a xlink:title=" ">
<path fill="none" stroke="#63b8ff" d="M216,-10C223.96,-10 232.22,-10 240.19,-10"/>
<polygon fill="#63b8ff" stroke="#63b8ff" points="240.08,-13.5 250.08,-10 240.08,-6.5 240.08,-13.5"/>
</a>
</g>
</g>
</g>
</svg>
