<?xml version="1.0" encoding="UTF-8" standalone="no"?>
<!DOCTYPE svg PUBLIC "-//W3C//DTD SVG 1.1//EN"
 "http://www.w3.org/Graphics/SVG/1.1/DTD/svg11.dtd">
<!-- Generated by graphviz version 14.1.2 (0)
 -->
<!-- Title: Core/Inc/lcd1602_rgb.h Pages: 1 -->
<svg width="277pt" height="140pt"
 viewBox="0.00 0.00 277.00 140.00" xmlns="http://www.w3.org/2000/svg" xmlns:xlink="http://www.w3.org/1999/xlink">
<g id="graph0" class="graph" transform="scale(1 1) rotate(0) translate(4 136)">
<title>Core/Inc/lcd1602_rgb.h</title>
<!-- Node1 -->
<g id="Node000001" class="node">
<title>Node1</title>
<g id="a_Node000001"><a xlink:title="LCD1602 RGB display driver with I2C interface.">
<polygon fill="#999999" stroke="#666666" points="198.75,-132 81.5,-132 81.5,-112 198.75,-112 198.75,-132"/>
<text xml:space="preserve" text-anchor="middle" x="140.12" y="-118.5" font-family="Helvetica,sans-Serif" font-size="10.00">Core/Inc/lcd1602_rgb.h</text>
</a>
</g>
</g>
<!-- Node2 -->
<g id="Node000002" class="node">
<title>Node2</title>
<g id="a_Node000002"><a xlink:title=" ">
<polygon fill="#e0e0e0" stroke="#999999" points="48.25,-76 0,-76 0,-56 48.25,-56 48.25,-76"/>
<text xml:space="preserve" text-anchor="middle" x="24.12" y="-62.5" font-family="Helvetica,sans-Serif" font-size="10.00">stdint.h</text>
</a>
</g>
</g>
<!-- Node1&#45;&gt;Node2 -->
<g id="edge1_Node000001_Node000002" class="edge">
<title>Node1&#45;&gt;Node2</title>
<g id="a_edge1_Node000001_Node000002"><a xlink:title=" ">
<path fill="none" stroke="#63b8ff" d="M119.92,-111.59C101.9,-103.21 75.26,-90.8 54.64,-81.21"/>
<polygon fill="#63b8ff" stroke="#63b8ff" points="56.4,-78.17 45.86,-77.12 53.45,-84.51 56.4,-78.17"/>
</a>
</g>
</g>
<!-- Node3 -->
<g id="Node000003" class="node">
<title>Node3</title>
<g id="a_Node000003"><a xlink:href="main_8h.html" target="_top" xlink:title=": Header for main.c file. This file contains the common defines of the application.">
<polygon fill="white" stroke="#666666" points="111.75,-76 66.5,-76 66.5,-56 111.75,-56 111.75,-76"/>
<text xml:space="preserve" text-anchor="middle" x="89.12" y="-62.5" font-family="Helvetica,sans-Serif" font-size="10.00">main.h</text>
</a>
</g>
</g>
<!-- Node1&#45;&gt;Node3 -->
<g id="edge2_Node000001_Node000003" class="edge">
<title>Node1&#45;&gt;Node3</title>
<g id="a_edge2_Node000001_Node000003"><a xlink:title=" ">
<path fill="none" stroke="#63b8ff" d="M131.24,-111.59C124.22,-104.16 114.22,-93.58 105.73,-84.58"/>
<polygon fill="#63b8ff" stroke="#63b8ff" points="108.36,-82.27 98.95,-77.4 103.27,-87.07 108.36,-82.27"/>
</a>
</g>
</g>
<!-- Node4 -->
<g id="Node000004" class="node">
<title>Node4</title>
<g id="a_Node000004"><a xlink:title=" ">
<polygon fill="#e0e0e0" stroke="#999999" points="184.12,-20 96.12,-20 96.12,0 184.12,0 184.12,-20"/>
<text xml:space="preserve" text-anchor="middle" x="140.12" y="-6.5" font-family="Helvetica,sans-Serif" font-size="10.00">stm32f0xx_hal.h</text>
</a>
</g>
</g>
<!-- Node1&#45;&gt;Node4 -->
<g id="edge7_Node000001_Node000004" class="edge">
<title>Node1&#45;&gt;Node4</title>
<g id="a_edge7_Node000001_Node000004"><a xlink:title=" ">
<path fill="none" stroke="#63b8ff" d="M140.12,-111.62C140.12,-94.01 140.12,-55.59 140.12,-31.65"/>
<polygon fill="#63b8ff" stroke="#63b8ff" points="143.63,-31.87 140.13,-21.87 136.63,-31.87 143.63,-31.87"/>
</a>
</g>
</g>
<!-- Node5 -->
<g id="Node000005" class="node">
<title>Node5</title>
<g id="a_Node000005"><a xlink:href="log_8h.html" target="_top" xlink:title="Logging module with configurable log levels and UART output.">
<polygon fill="white" stroke="#666666" points="205.62,-76 168.62,-76 168.62,-56 205.62,-56 205.62,-76"/>
<text xml:space="preserve" text-anchor="middle" x="187.12" y="-62.5" font-family="Helvetica,sans-Serif" font-size="10.00">log.h</text>
</a>
</g>
</g>
<!-- Node1&#45;&gt;Node5 -->
<g id="edge4_Node000001_Node000005" class="edge">
<title>Node1&#45;&gt;Node5</title>
<g id="a_edge4_Node000001_Node000005"><a xlink:title=" ">
<path fill="none" stroke="#63b8ff" d="M148.31,-111.59C154.71,-104.24 163.8,-93.8 171.58,-84.87"/>
<polygon fill="#63b8ff" stroke="#63b8ff" points="174.11,-87.28 178.04,-77.44 168.83,-82.69 174.11,-87.28"/>
</a>
</g>
</g>
<!-- Node6 -->
<g id="Node000006" class="node">
<title>Node6</title>
<g id="a_Node000006"><a xlink:title=" ">
<polygon fill="#e0e0e0" stroke="#999999" points="268.75,-76 223.5,-76 223.5,-56 268.75,-56 268.75,-76"/>
<text xml:space="preserve" text-anchor="middle" x="246.12" y="-62.5" font-family="Helvetica,sans-Serif" font-size="10.00">stdio.h</text>
</a>
</g>
</g>
<!-- Node1&#45;&gt;Node6 -->
<g id="edge6_Node000001_Node000006" class="edge">
<title>Node1&#45;&gt;Node6</title>
<g id="a_edge6_Node000001_Node000006"><a xlink:title=" ">
<path fill="none" stroke="#63b8ff" d="M158.59,-111.59C174.83,-103.32 198.73,-91.14 217.46,-81.6"/>
<polygon fill="#63b8ff" stroke="#63b8ff" points="218.85,-84.82 226.17,-77.17 215.67,-78.59 218.85,-84.82"/>
</a>
</g>
</g>
<!-- Node3&#45;&gt;Node4 -->
<g id="edge3_Node000003_Node000004" class="edge">
<title>Node3&#45;&gt;Node4</title>
<g id="a_edge3_Node000003_Node000004"><a xlink:title=" ">
<path fill="none" stroke="#63b8ff" d="M98.01,-55.59C105.03,-48.16 115.03,-37.58 123.52,-28.58"/>
<polygon fill="#63b8ff" stroke="#63b8ff" points="125.98,-31.07 130.3,-21.4 120.89,-26.27 125.98,-31.07"/>
</a>
</g>
</g>
<!-- Node5&#45;&gt;Node4 -->
<g id="edge5_Node000005_Node000004" class="edge">
<title>Node5&#45;&gt;Node4</title>
<g id="a_edge5_Node000005_Node000004"><a xlink:title=" ">
<path fill="none" stroke="#63b8ff" d="M178.94,-55.59C172.54,-48.24 163.45,-37.8 155.67,-28.87"/>
<polygon fill="#63b8ff" stroke="#63b8ff" points="158.42,-26.69 149.21,-21.44 153.14,-31.28 158.42,-26.69"/>
</a>
</g>
</g>
</g>
</svg>
