<?xml version="1.0" encoding="UTF-8" standalone="no"?>
<!DOCTYPE svg PUBLIC "-//W3C//DTD SVG 1.1//EN"
 "http://www.w3.org/Graphics/SVG/1.1/DTD/svg11.dtd">
<!-- Generated by graphviz version 14.1.2 (0)
 -->
<!-- Title: Core/Inc/log.h Pages: 1 -->
<svg width="832pt" height="252pt"
 viewBox="0.00 0.00 832.00 252.00" xmlns="http://www.w3.org/2000/svg" xmlns:xlink="http://www.w3.org/1999/xlink">
<g id="graph0" class="graph" transform="scale(1 1) rotate(0) translate(4 248)">
<title>Core/Inc/log.h</title>
<!-- Node1 -->
<g id="Node000001" class="node">
<title>Node1</title>
<g id="a_Node000001"><a xlink:title="Logging module with configurable log levels and UART output.">
<polygon fill="#999999" stroke="#666666" points="492.77,-244 415.27,-244 415.27,-224 492.77,-224 492.77,-244"/>
<text xml:space="preserve" text-anchor="middle" x="454.02" y="-230.5" font-family="Helvetica,sans-Serif" font-size="10.00">Core/Inc/log.h</text>
</a>
</g>
</g>
<!-- Node2 -->
<g id="Node000002" class="node">
<title>Node2</title>
<g id="a_Node000002"><a xlink:href="event_8h.html" target="_top" xlink:title="Event queue module for decoupling interrupt handlers from UI processing.">
<polygon fill="white" stroke="#666666" points="175.4,-188 86.65,-188 86.65,-168 175.4,-168 175.4,-188"/>
<text xml:space="preserve" text-anchor="middle" x="131.02" y="-174.5" font-family="Helvetica,sans-Serif" font-size="10.00">Core/Inc/event.h</text>
</a>
</g>
</g>
<!-- Node1&#45;&gt;Node2 -->
<g id="edge1_Node000001_Node000002" class="edge">
<title>Node1&#45;&gt;Node2</title>
<g id="a_edge1_Node000001_Node000002"><a xlink:title=" ">
<path fill="none" stroke="#63b8ff" d="M403.93,-224.62C341.48,-214.18 235.69,-196.5 175.82,-186.49"/>
<polygon fill="#63b8ff" stroke="#63b8ff" points="403.13,-228.04 413.57,-226.24 404.28,-221.14 403.13,-228.04"/>
</a>
</g>
</g>
<!-- Node5 -->
<g id="Node000005" class="node">
<title>Node5</title>
<g id="a_Node000005"><a xlink:href="main_8c.html" target="_top" xlink:title=": Main program body">
<polygon fill="white" stroke="#666666" points="323.65,-20 236.4,-20 236.4,0 323.65,0 323.65,-20"/>
<text xml:space="preserve" text-anchor="middle" x="280.02" y="-6.5" font-family="Helvetica,sans-Serif" font-size="10.00">Core/Src/main.c</text>
</a>
</g>
</g>
<!-- Node1&#45;&gt;Node5 -->
<g id="edge21_Node000001_Node000005" class="edge">
<title>Node1&#45;&gt;Node5</title>
<g id="a_edge21_Node000001_Node000005"><a xlink:title=" ">
<path fill="none" stroke="#63b8ff" d="M485.23,-218.5C527.56,-196.81 594.67,-153.96 565.02,-112 509.97,-34.08 389.43,-15.89 324.15,-11.9"/>
<polygon fill="#63b8ff" stroke="#63b8ff" points="483.83,-215.29 476.43,-222.87 486.95,-221.56 483.83,-215.29"/>
</a>
</g>
</g>
<!-- Node6 -->
<g id="Node000006" class="node">
<title>Node6</title>
<g id="a_Node000006"><a xlink:href="ui_8h.html" target="_top" xlink:title="User interface module for menu&#45;driven LCD control.">
<polygon fill="white" stroke="#666666" points="232.15,-132 159.9,-132 159.9,-112 232.15,-112 232.15,-132"/>
<text xml:space="preserve" text-anchor="middle" x="196.02" y="-118.5" font-family="Helvetica,sans-Serif" font-size="10.00">Core/Inc/ui.h</text>
</a>
</g>
</g>
<!-- Node1&#45;&gt;Node6 -->
<g id="edge18_Node000001_Node000006" class="edge">
<title>Node1&#45;&gt;Node6</title>
<g id="a_edge18_Node000001_Node000006"><a xlink:title=" ">
<path fill="none" stroke="#63b8ff" d="M403.61,-229.47C362.21,-224.75 303.23,-213.73 258.02,-188 233.08,-173.81 211.97,-146.44 202.06,-132.16"/>
<polygon fill="#63b8ff" stroke="#63b8ff" points="402.98,-232.92 413.29,-230.48 403.71,-225.96 402.98,-232.92"/>
</a>
</g>
</g>
<!-- Node9 -->
<g id="Node000009" class="node">
<title>Node9</title>
<g id="a_Node000009"><a xlink:href="heater_8h.html" target="_top" xlink:title="Heater control module for kiln heating coils.">
<polygon fill="white" stroke="#666666" points="499.9,-188 408.15,-188 408.15,-168 499.9,-168 499.9,-188"/>
<text xml:space="preserve" text-anchor="middle" x="454.02" y="-174.5" font-family="Helvetica,sans-Serif" font-size="10.00">Core/Inc/heater.h</text>
</a>
</g>
</g>
<!-- Node1&#45;&gt;Node9 -->
<g id="edge11_Node000001_Node000009" class="edge">
<title>Node1&#45;&gt;Node9</title>
<g id="a_edge11_Node000001_Node000009"><a xlink:title=" ">
<path fill="none" stroke="#63b8ff" d="M454.02,-212.13C454.02,-203.9 454.02,-194.85 454.02,-188.3"/>
<polygon fill="#63b8ff" stroke="#63b8ff" points="450.52,-212.08 454.02,-222.08 457.52,-212.08 450.52,-212.08"/>
</a>
</g>
</g>
<!-- Node11 -->
<g id="Node000011" class="node">
<title>Node11</title>
<g id="a_Node000011"><a xlink:href="lcd1602__rgb_8h.html" target="_top" xlink:title="LCD1602 RGB display driver with I2C interface.">
<polygon fill="white" stroke="#666666" points="384.65,-188 267.4,-188 267.4,-168 384.65,-168 384.65,-188"/>
<text xml:space="preserve" text-anchor="middle" x="326.02" y="-174.5" font-family="Helvetica,sans-Serif" font-size="10.00">Core/Inc/lcd1602_rgb.h</text>
</a>
</g>
</g>
<!-- Node1&#45;&gt;Node11 -->
<g id="edge14_Node000001_Node000011" class="edge">
<title>Node1&#45;&gt;Node11</title>
<g id="a_edge14_Node000001_Node000011"><a xlink:title=" ">
<path fill="none" stroke="#63b8ff" d="M421.17,-219.14C398.38,-209.52 368.62,-196.97 348.49,-188.48"/>
<polygon fill="#63b8ff" stroke="#63b8ff" points="419.76,-222.34 430.33,-223.01 422.48,-215.89 419.76,-222.34"/>
</a>
</g>
</g>
<!-- Node13 -->
<g id="Node000013" class="node">
<title>Node13</title>
<g id="a_Node000013"><a xlink:href="MAX31855_8c.html" target="_top" xlink:title="Implementation of MAX31855 thermocouple&#45;to&#45;digital converter driver.">
<polygon fill="white" stroke="#666666" points="726.15,-188 611.9,-188 611.9,-168 726.15,-168 726.15,-188"/>
<text xml:space="preserve" text-anchor="middle" x="669.02" y="-174.5" font-family="Helvetica,sans-Serif" font-size="10.00">Core/Src/MAX31855.c</text>
</a>
</g>
</g>
<!-- Node1&#45;&gt;Node13 -->
<g id="edge19_Node000001_Node000013" class="edge">
<title>Node1&#45;&gt;Node13</title>
<g id="a_edge19_Node000001_Node000013"><a xlink:title=" ">
<path fill="none" stroke="#63b8ff" d="M502.55,-220.81C541.52,-211.02 595.48,-197.47 631.28,-188.48"/>
<polygon fill="#63b8ff" stroke="#63b8ff" points="501.79,-217.39 492.94,-223.23 503.49,-224.18 501.79,-217.39"/>
</a>
</g>
</g>
<!-- Node14 -->
<g id="Node000014" class="node">
<title>Node14</title>
<g id="a_Node000014"><a xlink:href="log_8c.html" target="_top" xlink:title="Implementation of logging module with UART output.">
<polygon fill="white" stroke="#666666" points="823.52,-188 744.52,-188 744.52,-168 823.52,-168 823.52,-188"/>
<text xml:space="preserve" text-anchor="middle" x="784.02" y="-174.5" font-family="Helvetica,sans-Serif" font-size="10.00">Core/Src/log.c</text>
</a>
</g>
</g>
<!-- Node1&#45;&gt;Node14 -->
<g id="edge20_Node000001_Node000014" class="edge">
<title>Node1&#45;&gt;Node14</title>
<g id="a_edge20_Node000001_Node000014"><a xlink:title=" ">
<path fill="none" stroke="#63b8ff" d="M504.24,-225.31C560.5,-216.62 654.39,-201.86 735.02,-188 738.01,-187.49 741.09,-186.95 744.19,-186.39"/>
<polygon fill="#63b8ff" stroke="#63b8ff" points="504.01,-221.81 494.66,-226.79 505.08,-228.72 504.01,-221.81"/>
</a>
</g>
</g>
<!-- Node3 -->
<g id="Node000003" class="node">
<title>Node3</title>
<g id="a_Node000003"><a xlink:href="encoder_8h.html" target="_top" xlink:title="Rotary encoder driver with interrupt&#45;based rotation detection.">
<polygon fill="white" stroke="#666666" points="102.65,-76 3.4,-76 3.4,-56 102.65,-56 102.65,-76"/>
<text xml:space="preserve" text-anchor="middle" x="53.02" y="-62.5" font-family="Helvetica,sans-Serif" font-size="10.00">Core/Inc/encoder.h</text>
</a>
</g>
</g>
<!-- Node2&#45;&gt;Node3 -->
<g id="edge2_Node000002_Node000003" class="edge">
<title>Node2&#45;&gt;Node3</title>
<g id="a_edge2_Node000002_Node000003"><a xlink:title=" ">
<path fill="none" stroke="#63b8ff" d="M75.21,-171.79C49.08,-166.22 20.2,-154.9 4.02,-132 -10.25,-111.8 17.89,-88.84 37.12,-76.34"/>
<polygon fill="#63b8ff" stroke="#63b8ff" points="74.24,-175.16 84.71,-173.56 75.52,-168.28 74.24,-175.16"/>
</a>
</g>
</g>
<!-- Node2&#45;&gt;Node5 -->
<g id="edge10_Node000002_Node000005" class="edge">
<title>Node2&#45;&gt;Node5</title>
<g id="a_edge10_Node000002_Node000005"><a xlink:title=" ">
<path fill="none" stroke="#63b8ff" d="M128.3,-156.26C126.04,-129.87 126.34,-84.31 150.02,-56 171.17,-30.72 207.3,-19.62 236.1,-14.76"/>
<polygon fill="#63b8ff" stroke="#63b8ff" points="124.8,-156.45 129.36,-166.01 131.76,-155.69 124.8,-156.45"/>
</a>
</g>
</g>
<!-- Node2&#45;&gt;Node6 -->
<g id="edge5_Node000002_Node000006" class="edge">
<title>Node2&#45;&gt;Node6</title>
<g id="a_edge5_Node000002_Node000006"><a xlink:title=" ">
<path fill="none" stroke="#63b8ff" d="M151,-160.4C162.12,-151.17 175.55,-140.01 184.83,-132.3"/>
<polygon fill="#63b8ff" stroke="#63b8ff" points="148.96,-157.54 143.51,-166.63 153.44,-162.93 148.96,-157.54"/>
</a>
</g>
</g>
<!-- Node8 -->
<g id="Node000008" class="node">
<title>Node8</title>
<g id="a_Node000008"><a xlink:href="event_8c.html" target="_top" xlink:title="Implementation of event queue for UI event handling.">
<polygon fill="white" stroke="#666666" points="103.15,-132 12.9,-132 12.9,-112 103.15,-112 103.15,-132"/>
<text xml:space="preserve" text-anchor="middle" x="58.02" y="-118.5" font-family="Helvetica,sans-Serif" font-size="10.00">Core/Src/event.c</text>
</a>
</g>
</g>
<!-- Node2&#45;&gt;Node8 -->
<g id="edge9_Node000002_Node000008" class="edge">
<title>Node2&#45;&gt;Node8</title>
<g id="a_edge9_Node000002_Node000008"><a xlink:title=" ">
<path fill="none" stroke="#63b8ff" d="M109.33,-160.95C96.7,-151.61 81.23,-140.16 70.59,-132.3"/>
<polygon fill="#63b8ff" stroke="#63b8ff" points="106.97,-163.56 117.09,-166.69 111.13,-157.93 106.97,-163.56"/>
</a>
</g>
</g>
<!-- Node4 -->
<g id="Node000004" class="node">
<title>Node4</title>
<g id="a_Node000004"><a xlink:href="encoder_8c.html" target="_top" xlink:title="Implementation of rotary encoder driver.">
<polygon fill="white" stroke="#666666" points="103.4,-20 2.65,-20 2.65,0 103.4,0 103.4,-20"/>
<text xml:space="preserve" text-anchor="middle" x="53.02" y="-6.5" font-family="Helvetica,sans-Serif" font-size="10.00">Core/Src/encoder.c</text>
</a>
</g>
</g>
<!-- Node3&#45;&gt;Node4 -->
<g id="edge3_Node000003_Node000004" class="edge">
<title>Node3&#45;&gt;Node4</title>
<g id="a_edge3_Node000003_Node000004"><a xlink:title=" ">
<path fill="none" stroke="#63b8ff" d="M53.02,-44.13C53.02,-35.9 53.02,-26.85 53.02,-20.3"/>
<polygon fill="#63b8ff" stroke="#63b8ff" points="49.52,-44.08 53.02,-54.08 56.52,-44.08 49.52,-44.08"/>
</a>
</g>
</g>
<!-- Node3&#45;&gt;Node5 -->
<g id="edge4_Node000003_Node000005" class="edge">
<title>Node3&#45;&gt;Node5</title>
<g id="a_edge4_Node000003_Node000005"><a xlink:title=" ">
<path fill="none" stroke="#63b8ff" d="M103.99,-52.88C145.2,-43.07 202.39,-29.47 240.27,-20.46"/>
<polygon fill="#63b8ff" stroke="#63b8ff" points="103.21,-49.46 94.3,-55.18 104.83,-56.27 103.21,-49.46"/>
</a>
</g>
</g>
<!-- Node6&#45;&gt;Node3 -->
<g id="edge6_Node000006_Node000003" class="edge">
<title>Node6&#45;&gt;Node3</title>
<g id="a_edge6_Node000006_Node000003"><a xlink:title=" ">
<path fill="none" stroke="#63b8ff" d="M160.36,-107.53C134.77,-97.87 100.91,-85.08 78.13,-76.48"/>
<polygon fill="#63b8ff" stroke="#63b8ff" points="159.11,-110.8 169.7,-111.06 161.58,-104.25 159.11,-110.8"/>
</a>
</g>
</g>
<!-- Node6&#45;&gt;Node5 -->
<g id="edge7_Node000006_Node000005" class="edge">
<title>Node6&#45;&gt;Node5</title>
<g id="a_edge7_Node000006_Node000005"><a xlink:title=" ">
<path fill="none" stroke="#63b8ff" d="M215.48,-104.15C224.16,-96.11 234.17,-86.07 242.02,-76 256.34,-57.66 269.12,-33.4 275.58,-20.32"/>
<polygon fill="#63b8ff" stroke="#63b8ff" points="213.29,-101.42 208.2,-110.71 217.97,-106.62 213.29,-101.42"/>
</a>
</g>
</g>
<!-- Node7 -->
<g id="Node000007" class="node">
<title>Node7</title>
<g id="a_Node000007"><a xlink:href="ui_8c.html" target="_top" xlink:title="Implementation of menu&#45;driven user interface.">
<polygon fill="white" stroke="#666666" points="232.9,-76 159.15,-76 159.15,-56 232.9,-56 232.9,-76"/>
<text xml:space="preserve" text-anchor="middle" x="196.02" y="-62.5" font-family="Helvetica,sans-Serif" font-size="10.00">Core/Src/ui.c</text>
</a>
</g>
</g>
<!-- Node6&#45;&gt;Node7 -->
<g id="edge8_Node000006_Node000007" class="edge">
<title>Node6&#45;&gt;Node7</title>
<g id="a_edge8_Node000006_Node000007"><a xlink:title=" ">
<path fill="none" stroke="#63b8ff" d="M196.02,-100.13C196.02,-91.9 196.02,-82.85 196.02,-76.3"/>
<polygon fill="#63b8ff" stroke="#63b8ff" points="192.52,-100.08 196.02,-110.08 199.52,-100.08 192.52,-100.08"/>
</a>
</g>
</g>
<!-- Node9&#45;&gt;Node5 -->
<g id="edge13_Node000009_Node000005" class="edge">
<title>Node9&#45;&gt;Node5</title>
<g id="a_edge13_Node000009_Node000005"><a xlink:title=" ">
<path fill="none" stroke="#63b8ff" d="M444.96,-157.66C437.97,-143.99 427.43,-125.74 415.02,-112 378.54,-71.59 323.8,-36.58 296.6,-20.46"/>
<polygon fill="#63b8ff" stroke="#63b8ff" points="441.74,-159.06 449.28,-166.5 448.03,-155.98 441.74,-159.06"/>
</a>
</g>
</g>
<!-- Node10 -->
<g id="Node000010" class="node">
<title>Node10</title>
<g id="a_Node000010"><a xlink:href="heater_8c.html" target="_top" xlink:title="Implementation of heater control for kiln heating coils.">
<polygon fill="white" stroke="#666666" points="555.65,-132 462.4,-132 462.4,-112 555.65,-112 555.65,-132"/>
<text xml:space="preserve" text-anchor="middle" x="509.02" y="-118.5" font-family="Helvetica,sans-Serif" font-size="10.00">Core/Src/heater.c</text>
</a>
</g>
</g>
<!-- Node9&#45;&gt;Node10 -->
<g id="edge12_Node000009_Node000010" class="edge">
<title>Node9&#45;&gt;Node10</title>
<g id="a_edge12_Node000009_Node000010"><a xlink:title=" ">
<path fill="none" stroke="#63b8ff" d="M471.78,-159.57C481.01,-150.5 491.93,-139.78 499.55,-132.3"/>
<polygon fill="#63b8ff" stroke="#63b8ff" points="469.37,-157.03 464.68,-166.53 474.27,-162.03 469.37,-157.03"/>
</a>
</g>
</g>
<!-- Node11&#45;&gt;Node5 -->
<g id="edge17_Node000011_Node000005" class="edge">
<title>Node11&#45;&gt;Node5</title>
<g id="a_edge17_Node000011_Node000005"><a xlink:title=" ">
<path fill="none" stroke="#63b8ff" d="M301.95,-160.6C292.99,-153.05 283.83,-143.26 279.02,-132 262.52,-93.36 272.41,-41.24 277.53,-20.29"/>
<polygon fill="#63b8ff" stroke="#63b8ff" points="299.79,-163.34 309.84,-166.69 304.07,-157.81 299.79,-163.34"/>
</a>
</g>
</g>
<!-- Node11&#45;&gt;Node6 -->
<g id="edge15_Node000011_Node000006" class="edge">
<title>Node11&#45;&gt;Node6</title>
<g id="a_edge15_Node000011_Node000006"><a xlink:title=" ">
<path fill="none" stroke="#63b8ff" d="M292.97,-163.27C269.78,-153.64 239.37,-141.01 218.84,-132.48"/>
<polygon fill="#63b8ff" stroke="#63b8ff" points="291.4,-166.41 301.98,-167.01 294.09,-159.94 291.4,-166.41"/>
</a>
</g>
</g>
<!-- Node12 -->
<g id="Node000012" class="node">
<title>Node12</title>
<g id="a_Node000012"><a xlink:href="lcd1602__rgb_8c.html" target="_top" xlink:title="Implementation of LCD1602 RGB display driver.">
<polygon fill="white" stroke="#666666" points="406.4,-132 287.65,-132 287.65,-112 406.4,-112 406.4,-132"/>
<text xml:space="preserve" text-anchor="middle" x="347.02" y="-118.5" font-family="Helvetica,sans-Serif" font-size="10.00">Core/Src/lcd1602_rgb.c</text>
</a>
</g>
</g>
<!-- Node11&#45;&gt;Node12 -->
<g id="edge16_Node000011_Node000012" class="edge">
<title>Node11&#45;&gt;Node12</title>
<g id="a_edge16_Node000011_Node000012"><a xlink:title=" ">
<path fill="none" stroke="#63b8ff" d="M333.8,-157C337.09,-148.54 340.77,-139.08 343.41,-132.3"/>
<polygon fill="#63b8ff" stroke="#63b8ff" points="330.59,-155.59 330.23,-166.18 337.12,-158.13 330.59,-155.59"/>
</a>
</g>
</g>
</g>
</svg>
