<?xml version="1.0" encoding="UTF-8" standalone="no"?>
<!DOCTYPE svg PUBLIC "-//W3C//DTD SVG 1.1//EN"
 "http://www.w3.org/Graphics/SVG/1.1/DTD/svg11.dtd">
<!-- Generated by graphviz version 14.1.2 (0)
 -->
<!-- Title: logMsg Pages: 1 -->
<!--zoomable 418 -->

<svg id="main" version="1.1" xmlns="http://www.w3.org/2000/svg" xmlns:xlink="http://www.w3.org/1999/xlink" xml:space="preserve" onload="init(evt)">

<style type="text/css"><![CDATA[
.node, .edge {opacity: 0.7;}
.node.selected, .edge.selected {opacity: 1;}
.edge:hover path { stroke: red; }
.edge:hover polygon { stroke: red; fill: red; }
]]></style>

<defs>
  <circle id="rim" cx="0" cy="0" r="7"/>
  <circle id="rim2" cx="0" cy="0" r="3.5"/>
  <g id="zoomPlus">
    <use xlink:href="#rim" fill="#404040"><set attributeName="fill" to="#808080" begin="zoomplus.mouseover" end="zoomplus.mouseout"/></use>
    <path d="M-4,0h8M0,-4v8" fill="none" stroke="white" stroke-width="1.5" pointer-events="none"/>
  </g>
  <g id="zoomMin">
    <use xlink:href="#rim" fill="#404040"><set attributeName="fill" to="#808080" begin="zoomminus.mouseover" end="zoomminus.mouseout"/></use>
    <path d="M-4,0h8" fill="none" stroke="white" stroke-width="1.5" pointer-events="none"/>
  </g>
  <g id="arrowUp" transform="translate(30 24)">
    <use xlink:href="#rim"/>
    <path pointer-events="none" fill="none" stroke="white" stroke-width="1.5" d="M0,-3.0v7 M-2.5,-0.5L0,-3.0L2.5,-0.5"/>
  </g>
  <g id="arrowRight" transform="rotate(90) translate(36 -43)">
    <use xlink:href="#rim"/>
    <path pointer-events="none" fill="none" stroke="white" stroke-width="1.5" d="M0,-3.0v7 M-2.5,-0.5L0,-3.0L2.5,-0.5"/>
  </g>
  <g id="arrowDown" transform="rotate(180) translate(-30 -48)">
    <use xlink:href="#rim"/>
    <path pointer-events="none" fill="none" stroke="white" stroke-width="1.5" d="M0,-3.0v7 M-2.5,-0.5L0,-3.0L2.5,-0.5"/>
  </g>
  <g id="arrowLeft" transform="rotate(270) translate(-36 17)">
    <use xlink:href="#rim"/>
    <path pointer-events="none" fill="none" stroke="white" stroke-width="1.5" d="M0,-3.0v7 M-2.5,-0.5L0,-3.0L2.5,-0.5"/>
  </g>
  <g id="resetDef">
    <use xlink:href="#rim2" fill="#404040"><set attributeName="fill" to="#808080" begin="reset.mouseover" end="reset.mouseout"/></use>
  </g>
</defs>
<script type="application/ecmascript">
var viewWidth = 783;
var viewHeight = 418;
var sectionId = 'dynsection-3';
</script>
<script type="application/ecmascript" xlink:href="svg.min.js"/>
<svg id="graph" class="graph">
<g id="viewport">
<title>logMsg</title>
<!-- Node1 -->
<g id="Node000001" class="node">
<title>Node1</title>
<g id="a_Node000001"><a xlink:title="Log a message with specified log level.">
<polygon fill="#999999" stroke="#666666" points="774.75,-215 727.25,-215 727.25,-195 774.75,-195 774.75,-215"/>
<text xml:space="preserve" text-anchor="middle" x="751" y="-201.5" font-family="Helvetica,sans-Serif" font-size="10.00">logMsg</text>
</a>
</g>
</g>
<!-- Node2 -->
<g id="Node000002" class="node">
<title>Node2</title>
<g id="a_Node000002"><a xlink:href="event_8c.html#a9a29143d5146b5140c4fdfbe1009549f" target="_top" xlink:title="Log event type to terminal when event callback is triggered.">
<polygon fill="white" stroke="#666666" points="669.88,-398 575.12,-398 575.12,-378 669.88,-378 669.88,-398"/>
<text xml:space="preserve" text-anchor="middle" x="622.5" y="-384.5" font-family="Helvetica,sans-Serif" font-size="10.00">event_diplay_type</text>
</a>
</g>
</g>
<!-- Node1&#45;&gt;Node2 -->
<g id="edge1_Node000001_Node000002" class="edge">
<title>Node1&#45;&gt;Node2</title>
<g id="a_edge1_Node000001_Node000002"><a xlink:title=" ">
<path fill="none" stroke="#63b8ff" d="M748.46,-226.4C744.79,-261.35 732.44,-330.62 691.25,-369 685.35,-374.5 677.99,-378.42 670.31,-381.22"/>
<polygon fill="#63b8ff" stroke="#63b8ff" points="751.93,-226.98 749.33,-216.7 744.95,-226.35 751.93,-226.98"/>
</a>
</g>
</g>
<!-- Node8 -->
<g id="Node000008" class="node">
<title>Node8</title>
<g id="a_Node000008"><a xlink:href="event_8c.html#a215000c56c950c6a4830a65f77d25a0a" target="_top" xlink:title="Initialize the event queue.">
<polygon fill="white" stroke="#666666" points="649.62,-360 595.38,-360 595.38,-340 649.62,-340 649.62,-360"/>
<text xml:space="preserve" text-anchor="middle" x="622.5" y="-346.5" font-family="Helvetica,sans-Serif" font-size="10.00">initEvent</text>
</a>
</g>
</g>
<!-- Node1&#45;&gt;Node8 -->
<g id="edge9_Node000001_Node000008" class="edge">
<title>Node1&#45;&gt;Node8</title>
<g id="a_edge9_Node000001_Node000008"><a xlink:title=" ">
<path fill="none" stroke="#63b8ff" d="M745.86,-226.19C739.25,-254.28 723.62,-303.51 691.25,-331 679.8,-340.73 663.71,-345.49 650.08,-347.82"/>
<polygon fill="#63b8ff" stroke="#63b8ff" points="749.21,-227.23 747.9,-216.72 742.37,-225.76 749.21,-227.23"/>
</a>
</g>
</g>
<!-- Node10 -->
<g id="Node000010" class="node">
<title>Node10</title>
<g id="a_Node000010"><a xlink:href="ui_8c.html#a9cd652642569d6902183444cd519cc25" target="_top" xlink:title="Handle CREATE_PROGRAM menu state.">
<polygon fill="white" stroke="#666666" points="687.88,-322 557.12,-322 557.12,-302 687.88,-302 687.88,-322"/>
<text xml:space="preserve" text-anchor="middle" x="622.5" y="-308.5" font-family="Helvetica,sans-Serif" font-size="10.00">ui_update_create_program</text>
</a>
</g>
</g>
<!-- Node1&#45;&gt;Node10 -->
<g id="edge11_Node000001_Node000010" class="edge">
<title>Node1&#45;&gt;Node10</title>
<g id="a_edge11_Node000001_Node000010"><a xlink:title=" ">
<path fill="none" stroke="#63b8ff" d="M741.37,-225.72C731.95,-245.84 714.97,-275.78 691.25,-293 686.5,-296.44 681.16,-299.26 675.6,-301.57"/>
<polygon fill="#63b8ff" stroke="#63b8ff" points="744.46,-227.39 745.32,-216.83 738.06,-224.55 744.46,-227.39"/>
</a>
</g>
</g>
<!-- Node12 -->
<g id="Node000012" class="node">
<title>Node12</title>
<g id="a_Node000012"><a xlink:href="ui_8c.html#a7328c75524fbd4c255db4ee57d587e16" target="_top" xlink:title="Handle CREATE_PROGRAM_DETAILED menu state.">
<polygon fill="white" stroke="#666666" points="687.88,-284 557.12,-284 557.12,-252 687.88,-252 687.88,-284"/>
<text xml:space="preserve" text-anchor="start" x="565.12" y="-270.5" font-family="Helvetica,sans-Serif" font-size="10.00">ui_update_create_program</text>
<text xml:space="preserve" text-anchor="middle" x="622.5" y="-258.5" font-family="Helvetica,sans-Serif" font-size="10.00">_detailed</text>
</a>
</g>
</g>
<!-- Node1&#45;&gt;Node12 -->
<g id="edge13_Node000001_Node000012" class="edge">
<title>Node1&#45;&gt;Node12</title>
<g id="a_edge13_Node000001_Node000012"><a xlink:title=" ">
<path fill="none" stroke="#63b8ff" d="M726.74,-221.74C716.22,-228.86 703.43,-236.91 691.25,-243 685.2,-246.03 678.68,-248.89 672.17,-251.53"/>
<polygon fill="#63b8ff" stroke="#63b8ff" points="728.57,-224.73 734.79,-216.15 724.58,-218.97 728.57,-224.73"/>
</a>
</g>
</g>
<!-- Node13 -->
<g id="Node000013" class="node">
<title>Node13</title>
<g id="a_Node000013"><a xlink:href="ui_8c.html#ab9762754190f18740cddebbe0d59b309" target="_top" xlink:title="Handle PROGRAM_DETAILED menu state.">
<polygon fill="white" stroke="#666666" points="691.25,-234 553.75,-234 553.75,-214 691.25,-214 691.25,-234"/>
<text xml:space="preserve" text-anchor="middle" x="622.5" y="-220.5" font-family="Helvetica,sans-Serif" font-size="10.00">ui_update_program_detailed</text>
</a>
</g>
</g>
<!-- Node1&#45;&gt;Node13 -->
<g id="edge15_Node000001_Node000013" class="edge">
<title>Node1&#45;&gt;Node13</title>
<g id="a_edge15_Node000001_Node000013"><a xlink:title=" ">
<path fill="none" stroke="#63b8ff" d="M715.61,-210.16C708.08,-211.3 699.84,-212.53 691.5,-213.79"/>
<polygon fill="#63b8ff" stroke="#63b8ff" points="715.93,-213.66 725.3,-208.71 714.89,-206.73 715.93,-213.66"/>
</a>
</g>
</g>
<!-- Node14 -->
<g id="Node000014" class="node">
<title>Node14</title>
<g id="a_Node000014"><a xlink:href="ui_8c.html#a3b5feeaa3b12e5b763ca3bada8a6f185" target="_top" xlink:title="Handle PROGRAMS main menu state.">
<polygon fill="white" stroke="#666666" points="674.38,-196 570.62,-196 570.62,-176 674.38,-176 674.38,-196"/>
<text xml:space="preserve" text-anchor="middle" x="622.5" y="-182.5" font-family="Helvetica,sans-Serif" font-size="10.00">ui_update_programs</text>
</a>
</g>
</g>
<!-- Node1&#45;&gt;Node14 -->
<g id="edge17_Node000001_Node000014" class="edge">
<title>Node1&#45;&gt;Node14</title>
<g id="a_edge17_Node000001_Node000014"><a xlink:title=" ">
<path fill="none" stroke="#63b8ff" d="M715.47,-199.81C702.95,-197.93 688.53,-195.77 674.87,-193.72"/>
<polygon fill="#63b8ff" stroke="#63b8ff" points="714.89,-203.27 725.3,-201.29 715.93,-196.34 714.89,-203.27"/>
</a>
</g>
</g>
<!-- Node15 -->
<g id="Node000015" class="node">
<title>Node15</title>
<g id="a_Node000015"><a xlink:href="ui_8c.html#aaf5cd0f82052c1fe3150ee31bee733c3" target="_top" xlink:title="Handle PROGRAMS_OVERVIEW menu state.">
<polygon fill="white" stroke="#666666" points="674.38,-158 570.62,-158 570.62,-126 674.38,-126 674.38,-158"/>
<text xml:space="preserve" text-anchor="start" x="578.62" y="-144.5" font-family="Helvetica,sans-Serif" font-size="10.00">ui_update_programs</text>
<text xml:space="preserve" text-anchor="middle" x="622.5" y="-132.5" font-family="Helvetica,sans-Serif" font-size="10.00">_overview</text>
</a>
</g>
</g>
<!-- Node1&#45;&gt;Node15 -->
<g id="edge19_Node000001_Node000015" class="edge">
<title>Node1&#45;&gt;Node15</title>
<g id="a_edge19_Node000001_Node000015"><a xlink:title=" ">
<path fill="none" stroke="#63b8ff" d="M726.74,-188.26C716.22,-181.14 703.43,-173.09 691.25,-167 685.2,-163.97 678.68,-161.11 672.17,-158.47"/>
<polygon fill="#63b8ff" stroke="#63b8ff" points="724.58,-191.03 734.79,-193.85 728.57,-185.27 724.58,-191.03"/>
</a>
</g>
</g>
<!-- Node16 -->
<g id="Node000016" class="node">
<title>Node16</title>
<g id="a_Node000016"><a xlink:href="ui_8c.html#a69020987570a087f78cc6e830c66d003" target="_top" xlink:title="Handle SETPOINT menu state.">
<polygon fill="white" stroke="#666666" points="671.38,-108 573.62,-108 573.62,-88 671.38,-88 671.38,-108"/>
<text xml:space="preserve" text-anchor="middle" x="622.5" y="-94.5" font-family="Helvetica,sans-Serif" font-size="10.00">ui_update_setpoint</text>
</a>
</g>
</g>
<!-- Node1&#45;&gt;Node16 -->
<g id="edge21_Node000001_Node000016" class="edge">
<title>Node1&#45;&gt;Node16</title>
<g id="a_edge21_Node000001_Node000016"><a xlink:title=" ">
<path fill="none" stroke="#63b8ff" d="M741.37,-184.28C731.95,-164.16 714.97,-134.22 691.25,-117 685.42,-112.77 678.67,-109.48 671.75,-106.92"/>
<polygon fill="#63b8ff" stroke="#63b8ff" points="738.06,-185.45 745.32,-193.17 744.46,-182.61 738.06,-185.45"/>
</a>
</g>
</g>
<!-- Node17 -->
<g id="Node000017" class="node">
<title>Node17</title>
<g id="a_Node000017"><a xlink:href="ui_8c.html#a02da7ed57381740b440cbbf67658edb7" target="_top" xlink:title="Handle SETTINGS main menu state.">
<polygon fill="white" stroke="#666666" points="671.38,-70 573.62,-70 573.62,-50 671.38,-50 671.38,-70"/>
<text xml:space="preserve" text-anchor="middle" x="622.5" y="-56.5" font-family="Helvetica,sans-Serif" font-size="10.00">ui_update_settings</text>
</a>
</g>
</g>
<!-- Node1&#45;&gt;Node17 -->
<g id="edge23_Node000001_Node000017" class="edge">
<title>Node1&#45;&gt;Node17</title>
<g id="a_edge23_Node000001_Node000017"><a xlink:title=" ">
<path fill="none" stroke="#63b8ff" d="M745.86,-183.81C739.25,-155.72 723.62,-106.49 691.25,-79 685.57,-74.18 678.75,-70.57 671.66,-67.88"/>
<polygon fill="#63b8ff" stroke="#63b8ff" points="742.37,-184.24 747.9,-193.28 749.21,-182.77 742.37,-184.24"/>
</a>
</g>
</g>
<!-- Node18 -->
<g id="Node000018" class="node">
<title>Node18</title>
<g id="a_Node000018"><a xlink:href="ui_8c.html#ae12e11d5bc28a67cea4da70fe20127c3" target="_top" xlink:title="Handle SETTINGS_OVERVIEW menu state.">
<polygon fill="white" stroke="#666666" points="671.38,-32 573.62,-32 573.62,0 671.38,0 671.38,-32"/>
<text xml:space="preserve" text-anchor="start" x="581.62" y="-18.5" font-family="Helvetica,sans-Serif" font-size="10.00">ui_update_settings</text>
<text xml:space="preserve" text-anchor="middle" x="622.5" y="-6.5" font-family="Helvetica,sans-Serif" font-size="10.00">_overview</text>
</a>
</g>
</g>
<!-- Node1&#45;&gt;Node18 -->
<g id="edge25_Node000001_Node000018" class="edge">
<title>Node1&#45;&gt;Node18</title>
<g id="a_edge25_Node000001_Node000018"><a xlink:title=" ">
<path fill="none" stroke="#63b8ff" d="M748.05,-183.47C743.81,-148.88 730.68,-80.81 691.25,-41 685.78,-35.48 678.99,-31.16 671.83,-27.8"/>
<polygon fill="#63b8ff" stroke="#63b8ff" points="744.54,-183.51 749.09,-193.07 751.5,-182.76 744.54,-183.51"/>
</a>
</g>
</g>
<!-- Node3 -->
<g id="Node000003" class="node">
<title>Node3</title>
<g id="a_Node000003"><a xlink:href="event_8c.html#a55880a847852bc5cd0e3b50ecb2b6839" target="_top" xlink:title="Add an event to the rear of the queue.">
<polygon fill="white" stroke="#666666" points="517.75,-398 435.75,-398 435.75,-378 517.75,-378 517.75,-398"/>
<text xml:space="preserve" text-anchor="middle" x="476.75" y="-384.5" font-family="Helvetica,sans-Serif" font-size="10.00">event_enqueue</text>
</a>
</g>
</g>
<!-- Node2&#45;&gt;Node3 -->
<g id="edge2_Node000002_Node000003" class="edge">
<title>Node2&#45;&gt;Node3</title>
<g id="a_edge2_Node000002_Node000003"><a xlink:title=" ">
<path fill="none" stroke="#63b8ff" d="M563.37,-388C548.12,-388 532,-388 517.91,-388"/>
<polygon fill="#63b8ff" stroke="#63b8ff" points="563.31,-391.5 573.31,-388 563.31,-384.5 563.31,-391.5"/>
</a>
</g>
</g>
<!-- Node4 -->
<g id="Node000004" class="node">
<title>Node4</title>
<g id="a_Node000004"><a xlink:href="encoder_8c.html#ac97bebdda353039aa590609205734aa1" target="_top" xlink:title="Process encoder interrupt callback.">
<polygon fill="white" stroke="#666666" points="279.5,-398 187.75,-398 187.75,-378 279.5,-378 279.5,-398"/>
<text xml:space="preserve" text-anchor="middle" x="233.62" y="-384.5" font-family="Helvetica,sans-Serif" font-size="10.00">encoder_callback</text>
</a>
</g>
</g>
<!-- Node3&#45;&gt;Node4 -->
<g id="edge3_Node000003_Node000004" class="edge">
<title>Node3&#45;&gt;Node4</title>
<g id="a_edge3_Node000003_Node000004"><a xlink:title=" ">
<path fill="none" stroke="#63b8ff" d="M430.61,-401.21C420.54,-403.62 409.85,-405.76 399.75,-407 362.59,-411.58 352.7,-411.31 315.5,-407 300.74,-405.29 284.77,-401.88 270.95,-398.42"/>
<polygon fill="#63b8ff" stroke="#63b8ff" points="431.36,-404.63 440.19,-398.79 429.64,-397.85 431.36,-404.63"/>
</a>
</g>
</g>
<!-- Node5 -->
<g id="Node000005" class="node">
<title>Node5</title>
<g id="a_Node000005"><a xlink:href="main_8c.html#a0cd91fd3a9608559c2a87a8ba6cba55f" target="_top" xlink:title=" ">
<polygon fill="white" stroke="#666666" points="144.25,-360 7.5,-360 7.5,-340 144.25,-340 144.25,-360"/>
<text xml:space="preserve" text-anchor="middle" x="75.88" y="-346.5" font-family="Helvetica,sans-Serif" font-size="10.00">HAL_GPIO_EXTI_Callback</text>
</a>
</g>
</g>
<!-- Node3&#45;&gt;Node5 -->
<g id="edge6_Node000003_Node000005" class="edge">
<title>Node3&#45;&gt;Node5</title>
<g id="a_edge6_Node000003_Node000005"><a xlink:title=" ">
<path fill="none" stroke="#63b8ff" d="M428.77,-374.81C419.23,-372.54 409.22,-370.45 399.75,-369 312.33,-355.62 210.26,-351.51 144.66,-350.33"/>
<polygon fill="#63b8ff" stroke="#63b8ff" points="427.67,-378.14 438.22,-377.16 429.36,-371.35 427.67,-378.14"/>
</a>
</g>
</g>
<!-- Node7 -->
<g id="Node000007" class="node">
<title>Node7</title>
<g id="a_Node000007"><a xlink:href="encoder_8c.html#a2eece46a31e7c42df2173d6173bce48d" target="_top" xlink:title="Update encoder position based on rotation direction.">
<polygon fill="white" stroke="#666666" points="399.75,-398 315.5,-398 315.5,-378 399.75,-378 399.75,-398"/>
<text xml:space="preserve" text-anchor="middle" x="357.62" y="-384.5" font-family="Helvetica,sans-Serif" font-size="10.00">update_position</text>
</a>
</g>
</g>
<!-- Node3&#45;&gt;Node7 -->
<g id="edge7_Node000003_Node000007" class="edge">
<title>Node3&#45;&gt;Node7</title>
<g id="a_edge7_Node000003_Node000007"><a xlink:title=" ">
<path fill="none" stroke="#63b8ff" d="M423.98,-388C416.02,-388 407.9,-388 400.2,-388"/>
<polygon fill="#63b8ff" stroke="#63b8ff" points="423.93,-391.5 433.93,-388 423.93,-384.5 423.93,-391.5"/>
</a>
</g>
</g>
<!-- Node4&#45;&gt;Node5 -->
<g id="edge4_Node000004_Node000005" class="edge">
<title>Node4&#45;&gt;Node5</title>
<g id="a_edge4_Node000004_Node000005"><a xlink:title=" ">
<path fill="none" stroke="#63b8ff" d="M178.6,-374.82C159.33,-370.12 137.9,-364.89 119.71,-360.45"/>
<polygon fill="#63b8ff" stroke="#63b8ff" points="177.64,-378.19 188.18,-377.16 179.3,-371.39 177.64,-378.19"/>
</a>
</g>
</g>
<!-- Node6 -->
<g id="Node000006" class="node">
<title>Node6</title>
<g id="a_Node000006"><a xlink:href="main_8c.html#a77a2401a35ddd9bd0b8fc28331b81381" target="_top" xlink:title=" ">
<polygon fill="white" stroke="#666666" points="151.75,-398 0,-398 0,-378 151.75,-378 151.75,-398"/>
<text xml:space="preserve" text-anchor="middle" x="75.88" y="-384.5" font-family="Helvetica,sans-Serif" font-size="10.00">HAL_TIM_IC_CaptureCallback</text>
</a>
</g>
</g>
<!-- Node4&#45;&gt;Node6 -->
<g id="edge5_Node000004_Node000006" class="edge">
<title>Node4&#45;&gt;Node6</title>
<g id="a_edge5_Node000004_Node000006"><a xlink:title=" ">
<path fill="none" stroke="#63b8ff" d="M176.3,-388C168.41,-388 160.21,-388 152.05,-388"/>
<polygon fill="#63b8ff" stroke="#63b8ff" points="176.06,-391.5 186.06,-388 176.06,-384.5 176.06,-391.5"/>
</a>
</g>
</g>
<!-- Node7&#45;&gt;Node4 -->
<g id="edge8_Node000007_Node000004" class="edge">
<title>Node7&#45;&gt;Node4</title>
<g id="a_edge8_Node000007_Node000004"><a xlink:title=" ">
<path fill="none" stroke="#63b8ff" d="M304.04,-388C295.91,-388 287.59,-388 279.65,-388"/>
<polygon fill="#63b8ff" stroke="#63b8ff" points="303.81,-391.5 313.81,-388 303.81,-384.5 303.81,-391.5"/>
</a>
</g>
</g>
<!-- Node9 -->
<g id="Node000009" class="node">
<title>Node9</title>
<g id="a_Node000009"><a xlink:href="main_8c.html#a840291bc02cba5474a4cb46a9b9566fe" target="_top" xlink:title="The application entry point.">
<polygon fill="white" stroke="#666666" points="495.25,-360 458.25,-360 458.25,-340 495.25,-340 495.25,-360"/>
<text xml:space="preserve" text-anchor="middle" x="476.75" y="-346.5" font-family="Helvetica,sans-Serif" font-size="10.00">main</text>
</a>
</g>
</g>
<!-- Node8&#45;&gt;Node9 -->
<g id="edge10_Node000008_Node000009" class="edge">
<title>Node8&#45;&gt;Node9</title>
<g id="a_edge10_Node000008_Node000009"><a xlink:title=" ">
<path fill="none" stroke="#63b8ff" d="M583.92,-350C555.32,-350 517.27,-350 495.35,-350"/>
<polygon fill="#63b8ff" stroke="#63b8ff" points="583.62,-353.5 593.62,-350 583.62,-346.5 583.62,-353.5"/>
</a>
</g>
</g>
<!-- Node11 -->
<g id="Node000011" class="node">
<title>Node11</title>
<g id="a_Node000011"><a xlink:href="ui_8c.html#a1c0a0e3c37fa619fc105b56716b1e08a" target="_top" xlink:title="Main UI state machine update function.">
<polygon fill="white" stroke="#666666" points="505.75,-174 447.75,-174 447.75,-154 505.75,-154 505.75,-174"/>
<text xml:space="preserve" text-anchor="middle" x="476.75" y="-160.5" font-family="Helvetica,sans-Serif" font-size="10.00">ui_update</text>
</a>
</g>
</g>
<!-- Node10&#45;&gt;Node11 -->
<g id="edge12_Node000010_Node000011" class="edge">
<title>Node10&#45;&gt;Node11</title>
<g id="a_edge12_Node000010_Node000011"><a xlink:title=" ">
<path fill="none" stroke="#63b8ff" d="M558.54,-296.32C556.88,-295.28 555.28,-294.18 553.75,-293 511.93,-260.82 488.65,-198.56 480.8,-174.16"/>
<polygon fill="#63b8ff" stroke="#63b8ff" points="556.69,-299.3 567.18,-300.84 559.94,-293.1 556.69,-299.3"/>
</a>
</g>
</g>
<!-- Node12&#45;&gt;Node11 -->
<g id="edge14_Node000012_Node000011" class="edge">
<title>Node12&#45;&gt;Node11</title>
<g id="a_edge14_Node000012_Node000011"><a xlink:title=" ">
<path fill="none" stroke="#63b8ff" d="M559.35,-246.41C557.43,-245.32 555.56,-244.18 553.75,-243 524.28,-223.73 497.72,-191.06 485.25,-174.41"/>
<polygon fill="#63b8ff" stroke="#63b8ff" points="557.43,-249.36 567.92,-250.81 560.63,-243.13 557.43,-249.36"/>
</a>
</g>
</g>
<!-- Node13&#45;&gt;Node11 -->
<g id="edge16_Node000013_Node000011" class="edge">
<title>Node13&#45;&gt;Node11</title>
<g id="a_edge16_Node000013_Node000011"><a xlink:title=" ">
<path fill="none" stroke="#63b8ff" d="M568.04,-210.21C563.16,-208.59 558.33,-206.85 553.75,-205 532.48,-196.41 509.49,-183.44 494.43,-174.4"/>
<polygon fill="#63b8ff" stroke="#63b8ff" points="566.7,-213.46 577.29,-213.11 568.79,-206.78 566.7,-213.46"/>
</a>
</g>
</g>
<!-- Node14&#45;&gt;Node11 -->
<g id="edge18_Node000014_Node000011" class="edge">
<title>Node14&#45;&gt;Node11</title>
<g id="a_edge18_Node000014_Node000011"><a xlink:title=" ">
<path fill="none" stroke="#63b8ff" d="M559.06,-176.44C540.59,-173.62 521.26,-170.66 506.09,-168.34"/>
<polygon fill="#63b8ff" stroke="#63b8ff" points="558.5,-179.9 568.92,-177.95 559.56,-172.98 558.5,-179.9"/>
</a>
</g>
</g>
<!-- Node15&#45;&gt;Node11 -->
<g id="edge20_Node000015_Node000011" class="edge">
<title>Node15&#45;&gt;Node11</title>
<g id="a_edge20_Node000015_Node000011"><a xlink:title=" ">
<path fill="none" stroke="#63b8ff" d="M559.06,-151.56C540.59,-154.38 521.26,-157.34 506.09,-159.66"/>
<polygon fill="#63b8ff" stroke="#63b8ff" points="559.56,-155.02 568.92,-150.05 558.5,-148.1 559.56,-155.02"/>
</a>
</g>
</g>
<!-- Node16&#45;&gt;Node11 -->
<g id="edge22_Node000016_Node000011" class="edge">
<title>Node16&#45;&gt;Node11</title>
<g id="a_edge22_Node000016_Node000011"><a xlink:title=" ">
<path fill="none" stroke="#63b8ff" d="M566.92,-111.85C562.41,-113.43 557.97,-115.15 553.75,-117 530.88,-127.04 506.72,-143.04 491.93,-153.53"/>
<polygon fill="#63b8ff" stroke="#63b8ff" points="567.64,-115.3 576.06,-108.87 565.47,-108.64 567.64,-115.3"/>
</a>
</g>
</g>
<!-- Node17&#45;&gt;Node11 -->
<g id="edge24_Node000017_Node000011" class="edge">
<title>Node17&#45;&gt;Node11</title>
<g id="a_edge24_Node000017_Node000011"><a xlink:title=" ">
<path fill="none" stroke="#63b8ff" d="M562.94,-74.05C559.75,-75.54 556.66,-77.18 553.75,-79 522,-98.79 495.71,-135.69 484.12,-153.65"/>
<polygon fill="#63b8ff" stroke="#63b8ff" points="564.05,-77.37 572,-70.36 561.41,-70.89 564.05,-77.37"/>
</a>
</g>
</g>
<!-- Node18&#45;&gt;Node11 -->
<g id="edge26_Node000018_Node000011" class="edge">
<title>Node18&#45;&gt;Node11</title>
<g id="a_edge26_Node000018_Node000011"><a xlink:title=" ">
<path fill="none" stroke="#63b8ff" d="M563.44,-34.3C560.02,-36.32 556.75,-38.54 553.75,-41 514.69,-72.94 490.11,-130.55 481.36,-153.83"/>
<polygon fill="#63b8ff" stroke="#63b8ff" points="564.79,-37.54 572.07,-29.84 561.58,-31.32 564.79,-37.54"/>
</a>
</g>
</g>
</g>
</svg>

<g id="navigator" transform="translate(0 0)" fill="#404254">
  <rect fill="#f2f5e9" fill-opacity="0.5" stroke="#606060" stroke-width=".5" x="0" y="0" width="60" height="60"/>
  <use id="zoomplus" xlink:href="#zoomPlus" x="17" y="9" onmousedown="handleZoom(evt,'in')"/>
  <use id="zoomminus" xlink:href="#zoomMin" x="42" y="9" onmousedown="handleZoom(evt,'out')"/>
  <use id="reset" xlink:href="#resetDef" x="30" y="36" onmousedown="handleReset()"/>
   <use id="arrowup" xlink:href="#arrowUp" x="0" y="0" onmousedown="handlePan(0,-1)"/>
  <use id="arrowright" xlink:href="#arrowRight" x="0" y="0" onmousedown="handlePan(1,0)"/>
  <use id="arrowdown" xlink:href="#arrowDown" x="0" y="0" onmousedown="handlePan(0,1)"/>
  <use id="arrowleft" xlink:href="#arrowLeft" x="0" y="0" onmousedown="handlePan(-1,0)"/>
</g>
<svg viewBox="0 0 15 15" width="100%" height="30px" preserveAspectRatio="xMaxYMin meet">
 <g id="arrow_out" transform="scale(0.3 0.3)">
  <a xlink:href="log_8h_a19c27922f37e1d81bb9370e65be76554_icgraph_org.svg" target="_base">
   <rect id="button" ry="5" rx="5" y="6" x="6" height="38" width="38"
        fill="#f2f5e9" fill-opacity="0.5" stroke="#606060" stroke-width="1.0"/>
   <path id="arrow"
     d="M 11.500037,31.436501 C 11.940474,20.09759 22.043105,11.32322 32.158766,21.979434 L 37.068811,17.246167 C 37.068811,17.246167 37.088388,32 37.088388,32 L 22.160133,31.978069 C 22.160133,31.978069 26.997745,27.140456 26.997745,27.140456 C 18.528582,18.264221 13.291696,25.230495 11.500037,31.436501 z"
     style="fill:#404040;"/>
  </a>
 </g>
</svg>

<style type='text/css'>
<![CDATA[
[data-mouse-over-selected='false'] { opacity: 0.7; }
[data-mouse-over-selected='true']  { opacity: 1.0; }
]]>
</style>
<script type="application/ecmascript"><![CDATA[
document.addEventListener('DOMContentLoaded', (event) => {
  highlightEdges();
  highlightAdjacentNodes();
});
]]></script>
</svg>
