<?xml version="1.0" encoding="UTF-8" standalone="no"?>
<!DOCTYPE svg PUBLIC "-//W3C//DTD SVG 1.1//EN"
 "http://www.w3.org/Graphics/SVG/1.1/DTD/svg11.dtd">
<!-- Generated by graphviz version 14.1.2 (0)
 -->
<!-- Title: Core/Inc/main.h Pages: 1 -->
<!--zoomable 252 -->

<svg id="main" version="1.1" xmlns="http://www.w3.org/2000/svg" xmlns:xlink="http://www.w3.org/1999/xlink" xml:space="preserve" onload="init(evt)">

<style type="text/css"><![CDATA[
.node, .edge {opacity: 0.7;}
.node.selected, .edge.selected {opacity: 1;}
.edge:hover path { stroke: red; }
.edge:hover polygon { stroke: red; fill: red; }
]]></style>

<defs>
  <circle id="rim" cx="0" cy="0" r="7"/>
  <circle id="rim2" cx="0" cy="0" r="3.5"/>
  <g id="zoomPlus">
    <use xlink:href="#rim" fill="#404040"><set attributeName="fill" to="#808080" begin="zoomplus.mouseover" end="zoomplus.mouseout"/></use>
    <path d="M-4,0h8M0,-4v8" fill="none" stroke="white" stroke-width="1.5" pointer-events="none"/>
  </g>
  <g id="zoomMin">
    <use xlink:href="#rim" fill="#404040"><set attributeName="fill" to="#808080" begin="zoomminus.mouseover" end="zoomminus.mouseout"/></use>
    <path d="M-4,0h8" fill="none" stroke="white" stroke-width="1.5" pointer-events="none"/>
  </g>
  <g id="arrowUp" transform="translate(30 24)">
    <use xlink:href="#rim"/>
    <path pointer-events="none" fill="none" stroke="white" stroke-width="1.5" d="M0,-3.0v7 M-2.5,-0.5L0,-3.0L2.5,-0.5"/>
  </g>
  <g id="arrowRight" transform="rotate(90) translate(36 -43)">
    <use xlink:href="#rim"/>
    <path pointer-events="none" fill="none" stroke="white" stroke-width="1.5" d="M0,-3.0v7 M-2.5,-0.5L0,-3.0L2.5,-0.5"/>
  </g>
  <g id="arrowDown" transform="rotate(180) translate(-30 -48)">
    <use xlink:href="#rim"/>
    <path pointer-events="none" fill="none" stroke="white" stroke-width="1.5" d="M0,-3.0v7 M-2.5,-0.5L0,-3.0L2.5,-0.5"/>
  </g>
  <g id="arrowLeft" transform="rotate(270) translate(-36 17)">
    <use xlink:href="#rim"/>
    <path pointer-events="none" fill="none" stroke="white" stroke-width="1.5" d="M0,-3.0v7 M-2.5,-0.5L0,-3.0L2.5,-0.5"/>
  </g>
  <g id="resetDef">
    <use xlink:href="#rim2" fill="#404040"><set attributeName="fill" to="#808080" begin="reset.mouseover" end="reset.mouseout"/></use>
  </g>
</defs>
<script type="application/ecmascript">
var viewWidth = 637;
var viewHeight = 252;
var sectionId = 'dynsection-1';
</script>
<script type="application/ecmascript" xlink:href="svg.min.js"/>
<svg id="graph" class="graph">
<g id="viewport">
<title>Core/Inc/main.h</title>
<!-- Node1 -->
<g id="Node000001" class="node">
<title>Node1</title>
<g id="a_Node000001"><a xlink:title=": Header for main.c file. This file contains the common defines of the application.">
<polygon fill="#999999" stroke="#666666" points="395.5,-244 309.75,-244 309.75,-224 395.5,-224 395.5,-244"/>
<text xml:space="preserve" text-anchor="middle" x="352.62" y="-230.5" font-family="Helvetica,sans-Serif" font-size="10.00">Core/Inc/main.h</text>
</a>
</g>
</g>
<!-- Node2 -->
<g id="Node000002" class="node">
<title>Node2</title>
<g id="a_Node000002"><a xlink:href="MAX31855_8h.html" target="_top" xlink:title="MAX31855 thermocouple&#45;to&#45;digital converter driver.">
<polygon fill="white" stroke="#666666" points="235,-188 122.25,-188 122.25,-168 235,-168 235,-188"/>
<text xml:space="preserve" text-anchor="middle" x="178.62" y="-174.5" font-family="Helvetica,sans-Serif" font-size="10.00">Core/Inc/MAX31855.h</text>
</a>
</g>
</g>
<!-- Node1&#45;&gt;Node2 -->
<g id="edge1_Node000001_Node000002" class="edge">
<title>Node1&#45;&gt;Node2</title>
<g id="a_edge1_Node000001_Node000002"><a xlink:title=" ">
<path fill="none" stroke="#63b8ff" d="M311.72,-220.31C280.31,-210.56 237.64,-197.32 209.17,-188.48"/>
<polygon fill="#63b8ff" stroke="#63b8ff" points="310.28,-223.52 320.87,-223.15 312.36,-216.84 310.28,-223.52"/>
</a>
</g>
</g>
<!-- Node3 -->
<g id="Node000003" class="node">
<title>Node3</title>
<g id="a_Node000003"><a xlink:href="heater_8h.html" target="_top" xlink:title="Heater control module for kiln heating coils.">
<polygon fill="white" stroke="#666666" points="92.5,-132 0.75,-132 0.75,-112 92.5,-112 92.5,-132"/>
<text xml:space="preserve" text-anchor="middle" x="46.62" y="-118.5" font-family="Helvetica,sans-Serif" font-size="10.00">Core/Inc/heater.h</text>
</a>
</g>
</g>
<!-- Node1&#45;&gt;Node3 -->
<g id="edge11_Node000001_Node000003" class="edge">
<title>Node1&#45;&gt;Node3</title>
<g id="a_edge11_Node000001_Node000003"><a xlink:title=" ">
<path fill="none" stroke="#63b8ff" d="M298.34,-231.63C247.92,-228.37 172.05,-218.28 113.62,-188 87.15,-174.28 64.12,-146.7 53.26,-132.28"/>
<polygon fill="#63b8ff" stroke="#63b8ff" points="297.95,-235.11 308.13,-232.19 298.35,-228.13 297.95,-235.11"/>
</a>
</g>
</g>
<!-- Node5 -->
<g id="Node000005" class="node">
<title>Node5</title>
<g id="a_Node000005"><a xlink:href="main_8c.html" target="_top" xlink:title=": Main program body">
<polygon fill="white" stroke="#666666" points="353.25,-20 266,-20 266,0 353.25,0 353.25,-20"/>
<text xml:space="preserve" text-anchor="middle" x="309.62" y="-6.5" font-family="Helvetica,sans-Serif" font-size="10.00">Core/Src/main.c</text>
</a>
</g>
</g>
<!-- Node1&#45;&gt;Node5 -->
<g id="edge20_Node000001_Node000005" class="edge">
<title>Node1&#45;&gt;Node5</title>
<g id="a_edge20_Node000001_Node000005"><a xlink:title=" ">
<path fill="none" stroke="#63b8ff" d="M340.49,-213.98C336.07,-206.2 331.46,-196.95 328.62,-188 309.1,-126.43 308.79,-47.42 309.34,-20.48"/>
<polygon fill="#63b8ff" stroke="#63b8ff" points="337.47,-215.74 345.63,-222.5 343.46,-212.13 337.47,-215.74"/>
</a>
</g>
</g>
<!-- Node7 -->
<g id="Node000007" class="node">
<title>Node7</title>
<g id="a_Node000007"><a xlink:href="encoder_8h.html" target="_top" xlink:title="Rotary encoder driver with interrupt&#45;based rotation detection.">
<polygon fill="white" stroke="#666666" points="628.25,-76 529,-76 529,-56 628.25,-56 628.25,-76"/>
<text xml:space="preserve" text-anchor="middle" x="578.62" y="-62.5" font-family="Helvetica,sans-Serif" font-size="10.00">Core/Inc/encoder.h</text>
</a>
</g>
</g>
<!-- Node1&#45;&gt;Node7 -->
<g id="edge8_Node000001_Node000007" class="edge">
<title>Node1&#45;&gt;Node7</title>
<g id="a_edge8_Node000001_Node000007"><a xlink:title=" ">
<path fill="none" stroke="#63b8ff" d="M407.09,-226.1C461.08,-215.96 540.52,-191.28 574.62,-132 584.77,-114.36 582.63,-89.39 580.46,-76.12"/>
<polygon fill="#63b8ff" stroke="#63b8ff" points="406.71,-222.62 397.47,-227.79 407.93,-229.51 406.71,-222.62"/>
</a>
</g>
</g>
<!-- Node9 -->
<g id="Node000009" class="node">
<title>Node9</title>
<g id="a_Node000009"><a xlink:href="lcd1602__rgb_8h.html" target="_top" xlink:title="LCD1602 RGB display driver with I2C interface.">
<polygon fill="white" stroke="#666666" points="455.25,-188 338,-188 338,-168 455.25,-168 455.25,-188"/>
<text xml:space="preserve" text-anchor="middle" x="396.62" y="-174.5" font-family="Helvetica,sans-Serif" font-size="10.00">Core/Inc/lcd1602_rgb.h</text>
</a>
</g>
</g>
<!-- Node1&#45;&gt;Node9 -->
<g id="edge12_Node000001_Node000009" class="edge">
<title>Node1&#45;&gt;Node9</title>
<g id="a_edge12_Node000001_Node000009"><a xlink:title=" ">
<path fill="none" stroke="#63b8ff" d="M367.52,-214.72C374.76,-205.84 383.14,-195.55 389.05,-188.3"/>
<polygon fill="#63b8ff" stroke="#63b8ff" points="364.85,-212.46 361.25,-222.42 370.28,-216.88 364.85,-212.46"/>
</a>
</g>
</g>
<!-- Node10 -->
<g id="Node000010" class="node">
<title>Node10</title>
<g id="a_Node000010"><a xlink:href="ui_8h.html" target="_top" xlink:title="User interface module for menu&#45;driven LCD control.">
<polygon fill="white" stroke="#666666" points="565.75,-132 493.5,-132 493.5,-112 565.75,-112 565.75,-132"/>
<text xml:space="preserve" text-anchor="middle" x="529.62" y="-118.5" font-family="Helvetica,sans-Serif" font-size="10.00">Core/Inc/ui.h</text>
</a>
</g>
</g>
<!-- Node1&#45;&gt;Node10 -->
<g id="edge19_Node000001_Node000010" class="edge">
<title>Node1&#45;&gt;Node10</title>
<g id="a_edge19_Node000001_Node000010"><a xlink:title=" ">
<path fill="none" stroke="#63b8ff" d="M396.76,-219.9C418.24,-212.4 443.85,-201.72 464.62,-188 488.86,-171.99 511.49,-145.89 522.55,-132.14"/>
<polygon fill="#63b8ff" stroke="#63b8ff" points="395.74,-216.55 387.38,-223.05 397.97,-223.18 395.74,-216.55"/>
</a>
</g>
</g>
<!-- Node2&#45;&gt;Node2 -->
<g id="edge2_Node000002_Node000002" class="edge">
<title>Node2&#45;&gt;Node2</title>
<g id="a_edge2_Node000002_Node000002"><a xlink:title=" ">
<path fill="none" stroke="#63b8ff" d="M246.52,-185.24C250.57,-183.51 253,-181.1 253,-178 253,-172.64 245.73,-169.33 235.37,-168.08"/>
<polygon fill="#63b8ff" stroke="#63b8ff" points="245.75,-181.82 236.85,-187.57 247.39,-188.63 245.75,-181.82"/>
</a>
</g>
</g>
<!-- Node2&#45;&gt;Node3 -->
<g id="edge3_Node000002_Node000003" class="edge">
<title>Node2&#45;&gt;Node3</title>
<g id="a_edge3_Node000002_Node000003"><a xlink:title=" ">
<path fill="none" stroke="#63b8ff" d="M145.07,-163.27C121.52,-153.64 90.64,-141.01 69.8,-132.48"/>
<polygon fill="#63b8ff" stroke="#63b8ff" points="143.65,-166.47 154.23,-167.02 146.3,-160 143.65,-166.47"/>
</a>
</g>
</g>
<!-- Node2&#45;&gt;Node5 -->
<g id="edge7_Node000002_Node000005" class="edge">
<title>Node2&#45;&gt;Node5</title>
<g id="a_edge7_Node000002_Node000005"><a xlink:title=" ">
<path fill="none" stroke="#63b8ff" d="M202.02,-160.93C212.49,-153.01 224.5,-142.84 233.62,-132 258.63,-102.32 255.56,-88.59 276.62,-56 284.83,-43.31 295.29,-29.37 302.21,-20.42"/>
<polygon fill="#63b8ff" stroke="#63b8ff" points="200.22,-157.91 194.2,-166.63 204.34,-163.57 200.22,-157.91"/>
</a>
</g>
</g>
<!-- Node6 -->
<g id="Node000006" class="node">
<title>Node6</title>
<g id="a_Node000006"><a xlink:href="MAX31855_8c.html" target="_top" xlink:title="Implementation of MAX31855 thermocouple&#45;to&#45;digital converter driver.">
<polygon fill="white" stroke="#666666" points="224.75,-132 110.5,-132 110.5,-112 224.75,-112 224.75,-132"/>
<text xml:space="preserve" text-anchor="middle" x="167.62" y="-118.5" font-family="Helvetica,sans-Serif" font-size="10.00">Core/Src/MAX31855.c</text>
</a>
</g>
</g>
<!-- Node2&#45;&gt;Node6 -->
<g id="edge6_Node000002_Node000006" class="edge">
<title>Node2&#45;&gt;Node6</title>
<g id="a_edge6_Node000002_Node000006"><a xlink:title=" ">
<path fill="none" stroke="#63b8ff" d="M174.43,-156.43C172.74,-148.11 170.87,-138.93 169.52,-132.3"/>
<polygon fill="#63b8ff" stroke="#63b8ff" points="170.98,-157.01 176.41,-166.11 177.84,-155.61 170.98,-157.01"/>
</a>
</g>
</g>
<!-- Node4 -->
<g id="Node000004" class="node">
<title>Node4</title>
<g id="a_Node000004"><a xlink:href="heater_8c.html" target="_top" xlink:title="Implementation of heater control for kiln heating coils.">
<polygon fill="white" stroke="#666666" points="93.25,-76 0,-76 0,-56 93.25,-56 93.25,-76"/>
<text xml:space="preserve" text-anchor="middle" x="46.62" y="-62.5" font-family="Helvetica,sans-Serif" font-size="10.00">Core/Src/heater.c</text>
</a>
</g>
</g>
<!-- Node3&#45;&gt;Node4 -->
<g id="edge4_Node000003_Node000004" class="edge">
<title>Node3&#45;&gt;Node4</title>
<g id="a_edge4_Node000003_Node000004"><a xlink:title=" ">
<path fill="none" stroke="#63b8ff" d="M46.62,-100.13C46.62,-91.9 46.62,-82.85 46.62,-76.3"/>
<polygon fill="#63b8ff" stroke="#63b8ff" points="43.13,-100.08 46.63,-110.08 50.13,-100.08 43.13,-100.08"/>
</a>
</g>
</g>
<!-- Node3&#45;&gt;Node5 -->
<g id="edge5_Node000003_Node000005" class="edge">
<title>Node3&#45;&gt;Node5</title>
<g id="a_edge5_Node000003_Node000005"><a xlink:title=" ">
<path fill="none" stroke="#63b8ff" d="M79.48,-107.26C133.77,-84.55 240.82,-39.78 287.26,-20.35"/>
<polygon fill="#63b8ff" stroke="#63b8ff" points="78.32,-103.95 70.44,-111.04 81.02,-110.41 78.32,-103.95"/>
</a>
</g>
</g>
<!-- Node7&#45;&gt;Node5 -->
<g id="edge10_Node000007_Node000005" class="edge">
<title>Node7&#45;&gt;Node5</title>
<g id="a_edge10_Node000007_Node000005"><a xlink:title=" ">
<path fill="none" stroke="#63b8ff" d="M520.47,-53.33C470.36,-43.27 399.1,-28.96 353.61,-19.83"/>
<polygon fill="#63b8ff" stroke="#63b8ff" points="519.48,-56.7 529.98,-55.23 520.86,-49.83 519.48,-56.7"/>
</a>
</g>
</g>
<!-- Node8 -->
<g id="Node000008" class="node">
<title>Node8</title>
<g id="a_Node000008"><a xlink:href="encoder_8c.html" target="_top" xlink:title="Implementation of rotary encoder driver.">
<polygon fill="white" stroke="#666666" points="629,-20 528.25,-20 528.25,0 629,0 629,-20"/>
<text xml:space="preserve" text-anchor="middle" x="578.62" y="-6.5" font-family="Helvetica,sans-Serif" font-size="10.00">Core/Src/encoder.c</text>
</a>
</g>
</g>
<!-- Node7&#45;&gt;Node8 -->
<g id="edge9_Node000007_Node000008" class="edge">
<title>Node7&#45;&gt;Node8</title>
<g id="a_edge9_Node000007_Node000008"><a xlink:title=" ">
<path fill="none" stroke="#63b8ff" d="M578.62,-44.13C578.62,-35.9 578.62,-26.85 578.62,-20.3"/>
<polygon fill="#63b8ff" stroke="#63b8ff" points="575.13,-44.08 578.63,-54.08 582.13,-44.08 575.13,-44.08"/>
</a>
</g>
</g>
<!-- Node9&#45;&gt;Node5 -->
<g id="edge18_Node000009_Node000005" class="edge">
<title>Node9&#45;&gt;Node5</title>
<g id="a_edge18_Node000009_Node000005"><a xlink:title=" ">
<path fill="none" stroke="#63b8ff" d="M374.27,-160.77C364.9,-152.99 354.59,-142.97 347.62,-132 323.89,-94.65 314,-41.36 310.85,-20.18"/>
<polygon fill="#63b8ff" stroke="#63b8ff" points="371.95,-163.4 381.97,-166.83 376.27,-157.9 371.95,-163.4"/>
</a>
</g>
</g>
<!-- Node9&#45;&gt;Node10 -->
<g id="edge13_Node000009_Node000010" class="edge">
<title>Node9&#45;&gt;Node10</title>
<g id="a_edge13_Node000009_Node000010"><a xlink:title=" ">
<path fill="none" stroke="#63b8ff" d="M430.44,-163.27C454.16,-153.64 485.27,-141.01 506.28,-132.48"/>
<polygon fill="#63b8ff" stroke="#63b8ff" points="429.14,-160.02 421.19,-167.02 431.78,-166.51 429.14,-160.02"/>
</a>
</g>
</g>
<!-- Node12 -->
<g id="Node000012" class="node">
<title>Node12</title>
<g id="a_Node000012"><a xlink:href="lcd1602__rgb_8c.html" target="_top" xlink:title="Implementation of LCD1602 RGB display driver.">
<polygon fill="white" stroke="#666666" points="475,-132 356.25,-132 356.25,-112 475,-112 475,-132"/>
<text xml:space="preserve" text-anchor="middle" x="415.62" y="-118.5" font-family="Helvetica,sans-Serif" font-size="10.00">Core/Src/lcd1602_rgb.c</text>
</a>
</g>
</g>
<!-- Node9&#45;&gt;Node12 -->
<g id="edge17_Node000009_Node000012" class="edge">
<title>Node9&#45;&gt;Node12</title>
<g id="a_edge17_Node000009_Node000012"><a xlink:title=" ">
<path fill="none" stroke="#63b8ff" d="M403.66,-157C406.64,-148.54 409.97,-139.08 412.35,-132.3"/>
<polygon fill="#63b8ff" stroke="#63b8ff" points="400.45,-155.57 400.44,-166.17 407.06,-157.89 400.45,-155.57"/>
</a>
</g>
</g>
<!-- Node10&#45;&gt;Node5 -->
<g id="edge15_Node000010_Node000005" class="edge">
<title>Node10&#45;&gt;Node5</title>
<g id="a_edge15_Node000010_Node000005"><a xlink:title=" ">
<path fill="none" stroke="#63b8ff" d="M496.18,-107.12C476.1,-98.58 450.17,-87.15 427.62,-76 390.31,-57.54 347.84,-33.32 325.42,-20.28"/>
<polygon fill="#63b8ff" stroke="#63b8ff" points="494.71,-110.3 505.28,-110.97 497.43,-103.85 494.71,-110.3"/>
</a>
</g>
</g>
<!-- Node10&#45;&gt;Node7 -->
<g id="edge14_Node000010_Node000007" class="edge">
<title>Node10&#45;&gt;Node7</title>
<g id="a_edge14_Node000010_Node000007"><a xlink:title=" ">
<path fill="none" stroke="#63b8ff" d="M545.7,-103.29C553.87,-94.28 563.47,-83.7 570.19,-76.3"/>
<polygon fill="#63b8ff" stroke="#63b8ff" points="543.31,-100.72 539.18,-110.47 548.49,-105.42 543.31,-100.72"/>
</a>
</g>
</g>
<!-- Node11 -->
<g id="Node000011" class="node">
<title>Node11</title>
<g id="a_Node000011"><a xlink:href="ui_8c.html" target="_top" xlink:title="Implementation of menu&#45;driven user interface.">
<polygon fill="white" stroke="#666666" points="510.5,-76 436.75,-76 436.75,-56 510.5,-56 510.5,-76"/>
<text xml:space="preserve" text-anchor="middle" x="473.62" y="-62.5" font-family="Helvetica,sans-Serif" font-size="10.00">Core/Src/ui.c</text>
</a>
</g>
</g>
<!-- Node10&#45;&gt;Node11 -->
<g id="edge16_Node000010_Node000011" class="edge">
<title>Node10&#45;&gt;Node11</title>
<g id="a_edge16_Node000010_Node000011"><a xlink:title=" ">
<path fill="none" stroke="#63b8ff" d="M511.84,-103.85C502.37,-94.72 491.1,-83.86 483.27,-76.3"/>
<polygon fill="#63b8ff" stroke="#63b8ff" points="509.15,-106.12 518.78,-110.54 514.01,-101.08 509.15,-106.12"/>
</a>
</g>
</g>
</g>
</svg>

<g id="navigator" transform="translate(0 0)" fill="#404254">
  <rect fill="#f2f5e9" fill-opacity="0.5" stroke="#606060" stroke-width=".5" x="0" y="0" width="60" height="60"/>
  <use id="zoomplus" xlink:href="#zoomPlus" x="17" y="9" onmousedown="handleZoom(evt,'in')"/>
  <use id="zoomminus" xlink:href="#zoomMin" x="42" y="9" onmousedown="handleZoom(evt,'out')"/>
  <use id="reset" xlink:href="#resetDef" x="30" y="36" onmousedown="handleReset()"/>
   <use id="arrowup" xlink:href="#arrowUp" x="0" y="0" onmousedown="handlePan(0,-1)"/>
  <use id="arrowright" xlink:href="#arrowRight" x="0" y="0" onmousedown="handlePan(1,0)"/>
  <use id="arrowdown" xlink:href="#arrowDown" x="0" y="0" onmousedown="handlePan(0,1)"/>
  <use id="arrowleft" xlink:href="#arrowLeft" x="0" y="0" onmousedown="handlePan(-1,0)"/>
</g>
<svg viewBox="0 0 15 15" width="100%" height="30px" preserveAspectRatio="xMaxYMin meet">
 <g id="arrow_out" transform="scale(0.3 0.3)">
  <a xlink:href="main_8h__dep__incl_org.svg" target="_base">
   <rect id="button" ry="5" rx="5" y="6" x="6" height="38" width="38"
        fill="#f2f5e9" fill-opacity="0.5" stroke="#606060" stroke-width="1.0"/>
   <path id="arrow"
     d="M 11.500037,31.436501 C 11.940474,20.09759 22.043105,11.32322 32.158766,21.979434 L 37.068811,17.246167 C 37.068811,17.246167 37.088388,32 37.088388,32 L 22.160133,31.978069 C 22.160133,31.978069 26.997745,27.140456 26.997745,27.140456 C 18.528582,18.264221 13.291696,25.230495 11.500037,31.436501 z"
     style="fill:#404040;"/>
  </a>
 </g>
</svg>

<style type='text/css'>
<![CDATA[
[data-mouse-over-selected='false'] { opacity: 0.7; }
[data-mouse-over-selected='true']  { opacity: 1.0; }
]]>
</style>
<script type="application/ecmascript"><![CDATA[
document.addEventListener('DOMContentLoaded', (event) => {
  highlightEdges();
  highlightAdjacentNodes();
});
]]></script>
</svg>
