<?xml version="1.0" encoding="UTF-8" standalone="no"?>
<!DOCTYPE svg PUBLIC "-//W3C//DTD SVG 1.1//EN"
 "http://www.w3.org/Graphics/SVG/1.1/DTD/svg11.dtd">
<!-- Generated by graphviz version 14.1.2 (0)
 -->
<!-- Title: Error_Handler Pages: 1 -->
<svg width="319pt" height="218pt"
 viewBox="0.00 0.00 319.00 218.00" xmlns="http://www.w3.org/2000/svg" xmlns:xlink="http://www.w3.org/1999/xlink">

<svg id="main" version="1.1" xmlns="http://www.w3.org/2000/svg" xmlns:xlink="http://www.w3.org/1999/xlink" xml:space="preserve">

<style type="text/css"><![CDATA[
.node, .edge {opacity: 0.7;}
.node.selected, .edge.selected {opacity: 1;}
.edge:hover path { stroke: red; }
.edge:hover polygon { stroke: red; fill: red; }
]]></style>
<script type="application/ecmascript" xlink:href="svg.min.js"/>
<svg id="graph" class="graph">
<g id="graph0" class="graph" transform="scale(1 1) rotate(0) translate(4 214)">
<title>Error_Handler</title>
<!-- Node1 -->
<g id="Node000001" class="node">
<title>Node1</title>
<g id="a_Node000001"><a xlink:title="This function is executed in case of error occurrence.">
<polygon fill="#999999" stroke="#666666" points="311.25,-115 235.25,-115 235.25,-95 311.25,-95 311.25,-115"/>
<text xml:space="preserve" text-anchor="middle" x="273.25" y="-101.5" font-family="Helvetica,sans-Serif" font-size="10.00">Error_Handler</text>
</a>
</g>
</g>
<!-- Node2 -->
<g id="Node000002" class="node">
<title>Node2</title>
<g id="a_Node000002"><a xlink:href="main_8c.html#a4230d11f81d0b16e112f1cc3f40cb42f" target="_top" xlink:title="I2C1 Initialization Function.">
<polygon fill="white" stroke="#666666" points="174.12,-210 98.12,-210 98.12,-190 174.12,-190 174.12,-210"/>
<text xml:space="preserve" text-anchor="middle" x="136.12" y="-196.5" font-family="Helvetica,sans-Serif" font-size="10.00">MX_I2C1_Init</text>
</a>
</g>
</g>
<!-- Node1&#45;&gt;Node2 -->
<g id="edge1_Node000001_Node000002" class="edge">
<title>Node1&#45;&gt;Node2</title>
<g id="a_edge1_Node000001_Node000002"><a xlink:title=" ">
<path fill="none" stroke="#63b8ff" d="M258.1,-124.62C244.74,-141.8 223.22,-166.26 199.25,-181 191.76,-185.61 183.06,-189.17 174.59,-191.9"/>
<polygon fill="#63b8ff" stroke="#63b8ff" points="260.86,-126.78 264.07,-116.68 255.26,-122.57 260.86,-126.78"/>
</a>
</g>
</g>
<!-- Node4 -->
<g id="Node000004" class="node">
<title>Node4</title>
<g id="a_Node000004"><a xlink:href="main_8c.html#a54909c9e8ca1af96208ae7a8cf1e9468" target="_top" xlink:title="RTC Initialization Function.">
<polygon fill="white" stroke="#666666" points="173.75,-172 98.5,-172 98.5,-152 173.75,-152 173.75,-172"/>
<text xml:space="preserve" text-anchor="middle" x="136.12" y="-158.5" font-family="Helvetica,sans-Serif" font-size="10.00">MX_RTC_Init</text>
</a>
</g>
</g>
<!-- Node1&#45;&gt;Node4 -->
<g id="edge3_Node000001_Node000004" class="edge">
<title>Node1&#45;&gt;Node4</title>
<g id="a_edge3_Node000001_Node000004"><a xlink:title=" ">
<path fill="none" stroke="#63b8ff" d="M244.39,-121.03C231.01,-128.33 214.59,-136.72 199.25,-143 191.21,-146.29 182.39,-149.32 173.98,-151.95"/>
<polygon fill="#63b8ff" stroke="#63b8ff" points="246.03,-124.13 253.07,-116.21 242.63,-118.01 246.03,-124.13"/>
</a>
</g>
</g>
<!-- Node5 -->
<g id="Node000005" class="node">
<title>Node5</title>
<g id="a_Node000005"><a xlink:href="main_8c.html#ade0c8abfcfc1615647bfdd244bd1ee00" target="_top" xlink:title="SPI2 Initialization Function.">
<polygon fill="white" stroke="#666666" points="174.5,-134 97.75,-134 97.75,-114 174.5,-114 174.5,-134"/>
<text xml:space="preserve" text-anchor="middle" x="136.12" y="-120.5" font-family="Helvetica,sans-Serif" font-size="10.00">MX_SPI2_Init</text>
</a>
</g>
</g>
<!-- Node1&#45;&gt;Node5 -->
<g id="edge5_Node000001_Node000005" class="edge">
<title>Node1&#45;&gt;Node5</title>
<g id="a_edge5_Node000001_Node000005"><a xlink:title=" ">
<path fill="none" stroke="#63b8ff" d="M223.59,-111.84C207.51,-114.1 189.88,-116.58 174.75,-118.71"/>
<polygon fill="#63b8ff" stroke="#63b8ff" points="224.05,-115.31 233.47,-110.45 223.08,-108.38 224.05,-115.31"/>
</a>
</g>
</g>
<!-- Node6 -->
<g id="Node000006" class="node">
<title>Node6</title>
<g id="a_Node000006"><a xlink:href="main_8c.html#a73ff2ff527606fb2be261e9f85aab83c" target="_top" xlink:title="TIM3 Initialization Function.">
<polygon fill="white" stroke="#666666" points="174.88,-96 97.38,-96 97.38,-76 174.88,-76 174.88,-96"/>
<text xml:space="preserve" text-anchor="middle" x="136.12" y="-82.5" font-family="Helvetica,sans-Serif" font-size="10.00">MX_TIM3_Init</text>
</a>
</g>
</g>
<!-- Node1&#45;&gt;Node6 -->
<g id="edge7_Node000001_Node000006" class="edge">
<title>Node1&#45;&gt;Node6</title>
<g id="a_edge7_Node000001_Node000006"><a xlink:title=" ">
<path fill="none" stroke="#63b8ff" d="M223.69,-98.17C207.75,-95.93 190.27,-93.47 175.22,-91.36"/>
<polygon fill="#63b8ff" stroke="#63b8ff" points="223.08,-101.62 233.47,-99.55 224.05,-94.69 223.08,-101.62"/>
</a>
</g>
</g>
<!-- Node7 -->
<g id="Node000007" class="node">
<title>Node7</title>
<g id="a_Node000007"><a xlink:href="main_8c.html#a62f4b77e20bccafe98a183771749c20c" target="_top" xlink:title="USART1 Initialization Function.">
<polygon fill="white" stroke="#666666" points="199.25,-58 73,-58 73,-38 199.25,-38 199.25,-58"/>
<text xml:space="preserve" text-anchor="middle" x="136.12" y="-44.5" font-family="Helvetica,sans-Serif" font-size="10.00">MX_USART1_UART_Init</text>
</a>
</g>
</g>
<!-- Node1&#45;&gt;Node7 -->
<g id="edge9_Node000001_Node000007" class="edge">
<title>Node1&#45;&gt;Node7</title>
<g id="a_edge9_Node000001_Node000007"><a xlink:title=" ">
<path fill="none" stroke="#63b8ff" d="M244.39,-88.97C231.01,-81.67 214.59,-73.28 199.25,-67 191.63,-63.88 183.3,-61 175.29,-58.47"/>
<polygon fill="#63b8ff" stroke="#63b8ff" points="242.63,-91.99 253.07,-93.79 246.03,-85.87 242.63,-91.99"/>
</a>
</g>
</g>
<!-- Node8 -->
<g id="Node000008" class="node">
<title>Node8</title>
<g id="a_Node000008"><a xlink:href="main_8c.html#a70af21c671abfcc773614a9a4f63d920" target="_top" xlink:title="System Clock Configuration.">
<polygon fill="white" stroke="#666666" points="190.62,-20 81.62,-20 81.62,0 190.62,0 190.62,-20"/>
<text xml:space="preserve" text-anchor="middle" x="136.12" y="-6.5" font-family="Helvetica,sans-Serif" font-size="10.00">SystemClock_Config</text>
</a>
</g>
</g>
<!-- Node1&#45;&gt;Node8 -->
<g id="edge11_Node000001_Node000008" class="edge">
<title>Node1&#45;&gt;Node8</title>
<g id="a_edge11_Node000001_Node000008"><a xlink:title=" ">
<path fill="none" stroke="#63b8ff" d="M258.1,-85.38C244.74,-68.2 223.22,-43.74 199.25,-29 193.77,-25.63 187.66,-22.82 181.45,-20.49"/>
<polygon fill="#63b8ff" stroke="#63b8ff" points="255.26,-87.43 264.07,-93.32 260.86,-83.22 255.26,-87.43"/>
</a>
</g>
</g>
<!-- Node3 -->
<g id="Node000003" class="node">
<title>Node3</title>
<g id="a_Node000003"><a xlink:href="main_8c.html#a840291bc02cba5474a4cb46a9b9566fe" target="_top" xlink:title="The application entry point.">
<polygon fill="white" stroke="#666666" points="37,-115 0,-115 0,-95 37,-95 37,-115"/>
<text xml:space="preserve" text-anchor="middle" x="18.5" y="-101.5" font-family="Helvetica,sans-Serif" font-size="10.00">main</text>
</a>
</g>
</g>
<!-- Node2&#45;&gt;Node3 -->
<g id="edge2_Node000002_Node000003" class="edge">
<title>Node2&#45;&gt;Node3</title>
<g id="a_edge2_Node000002_Node000003"><a xlink:title=" ">
<path fill="none" stroke="#63b8ff" d="M87.26,-188.98C82.21,-186.78 77.34,-184.14 73,-181 48.83,-163.48 31.65,-131.59 23.99,-115.25"/>
<polygon fill="#63b8ff" stroke="#63b8ff" points="85.76,-192.15 96.35,-192.38 88.21,-185.6 85.76,-192.15"/>
</a>
</g>
</g>
<!-- Node4&#45;&gt;Node3 -->
<g id="edge4_Node000004_Node000003" class="edge">
<title>Node4&#45;&gt;Node3</title>
<g id="a_edge4_Node000004_Node000003"><a xlink:title=" ">
<path fill="none" stroke="#63b8ff" d="M87.4,-149.13C82.45,-147.29 77.56,-145.25 73,-143 57.67,-135.46 41.93,-123.71 31.53,-115.27"/>
<polygon fill="#63b8ff" stroke="#63b8ff" points="86.21,-152.43 96.8,-152.36 88.48,-145.8 86.21,-152.43"/>
</a>
</g>
</g>
<!-- Node5&#45;&gt;Node3 -->
<g id="edge6_Node000005_Node000003" class="edge">
<title>Node5&#45;&gt;Node3</title>
<g id="a_edge6_Node000005_Node000003"><a xlink:title=" ">
<path fill="none" stroke="#63b8ff" d="M86.11,-115.95C68.8,-113.1 50.41,-110.08 37.35,-107.93"/>
<polygon fill="#63b8ff" stroke="#63b8ff" points="85.34,-119.37 95.77,-117.53 86.47,-112.46 85.34,-119.37"/>
</a>
</g>
</g>
<!-- Node6&#45;&gt;Node3 -->
<g id="edge8_Node000006_Node000003" class="edge">
<title>Node6&#45;&gt;Node3</title>
<g id="a_edge8_Node000006_Node000003"><a xlink:title=" ">
<path fill="none" stroke="#63b8ff" d="M85.81,-94.1C68.54,-96.94 50.24,-99.95 37.25,-102.08"/>
<polygon fill="#63b8ff" stroke="#63b8ff" points="86.15,-97.59 95.45,-92.52 85.02,-90.69 86.15,-97.59"/>
</a>
</g>
</g>
<!-- Node7&#45;&gt;Node3 -->
<g id="edge10_Node000007_Node000003" class="edge">
<title>Node7&#45;&gt;Node3</title>
<g id="a_edge10_Node000007_Node000003"><a xlink:title=" ">
<path fill="none" stroke="#63b8ff" d="M83.77,-62.26C80.07,-63.73 76.44,-65.31 73,-67 57.67,-74.54 41.93,-86.29 31.53,-94.73"/>
<polygon fill="#63b8ff" stroke="#63b8ff" points="84.67,-65.66 92.87,-58.95 82.28,-59.08 84.67,-65.66"/>
</a>
</g>
</g>
<!-- Node8&#45;&gt;Node3 -->
<g id="edge12_Node000008_Node000003" class="edge">
<title>Node8&#45;&gt;Node3</title>
<g id="a_edge12_Node000008_Node000003"><a xlink:title=" ">
<path fill="none" stroke="#63b8ff" d="M78.59,-25.38C76.65,-26.51 74.78,-27.71 73,-29 48.83,-46.52 31.65,-78.41 23.99,-94.75"/>
<polygon fill="#63b8ff" stroke="#63b8ff" points="79.91,-28.63 87.34,-21.08 76.82,-22.35 79.91,-28.63"/>
</a>
</g>
</g>
</g>
</svg>
</svg>

<style type='text/css'>
<![CDATA[
[data-mouse-over-selected='false'] { opacity: 0.7; }
[data-mouse-over-selected='true']  { opacity: 1.0; }
]]>
</style>
<script type="application/ecmascript"><![CDATA[
document.addEventListener('DOMContentLoaded', (event) => {
  highlightEdges();
  highlightAdjacentNodes();
});
]]></script>
</svg>
