<?xml version="1.0" encoding="UTF-8" standalone="no"?>
<!DOCTYPE svg PUBLIC "-//W3C//DTD SVG 1.1//EN"
 "http://www.w3.org/Graphics/SVG/1.1/DTD/svg11.dtd">
<!-- Generated by graphviz version 14.1.2 (0)
 -->
<!-- Title: HAL_GPIO_EXTI_Callback Pages: 1 -->
<svg width="809pt" height="237pt"
 viewBox="0.00 0.00 809.00 237.00" xmlns="http://www.w3.org/2000/svg" xmlns:xlink="http://www.w3.org/1999/xlink">
<g id="graph0" class="graph" transform="scale(1 1) rotate(0) translate(4 233)">
<title>HAL_GPIO_EXTI_Callback</title>
<!-- Node1 -->
<g id="Node000001" class="node">
<title>Node1</title>
<g id="a_Node000001"><a xlink:title=" ">
<polygon fill="#999999" stroke="#666666" points="136.75,-153 0,-153 0,-133 136.75,-133 136.75,-153"/>
<text xml:space="preserve" text-anchor="middle" x="68.38" y="-139.5" font-family="Helvetica,sans-Serif" font-size="10.00">HAL_GPIO_EXTI_Callback</text>
</a>
</g>
</g>
<!-- Node2 -->
<g id="Node000002" class="node">
<title>Node2</title>
<g id="a_Node000002"><a xlink:href="encoder_8c.html#ac97bebdda353039aa590609205734aa1" target="_top" xlink:title="Process encoder interrupt callback.">
<polygon fill="white" stroke="#666666" points="264.5,-191 172.75,-191 172.75,-171 264.5,-171 264.5,-191"/>
<text xml:space="preserve" text-anchor="middle" x="218.62" y="-177.5" font-family="Helvetica,sans-Serif" font-size="10.00">encoder_callback</text>
</a>
</g>
</g>
<!-- Node1&#45;&gt;Node2 -->
<g id="edge1_Node000001_Node000002" class="edge">
<title>Node1&#45;&gt;Node2</title>
<g id="a_edge1_Node000001_Node000002"><a xlink:title=" ">
<path fill="none" stroke="#63b8ff" d="M110.28,-153.48C127.45,-157.89 147.63,-163.06 165.83,-167.72"/>
<polygon fill="#63b8ff" stroke="#63b8ff" points="164.83,-171.08 175.39,-170.17 166.57,-164.3 164.83,-171.08"/>
</a>
</g>
</g>
<!-- Node3 -->
<g id="Node000003" class="node">
<title>Node3</title>
<g id="a_Node000003"><a xlink:href="event_8c.html#a55880a847852bc5cd0e3b50ecb2b6839" target="_top" xlink:title="Add an event to the rear of the queue.">
<polygon fill="white" stroke="#666666" points="565,-191 483,-191 483,-171 565,-171 565,-191"/>
<text xml:space="preserve" text-anchor="middle" x="524" y="-177.5" font-family="Helvetica,sans-Serif" font-size="10.00">event_enqueue</text>
</a>
</g>
</g>
<!-- Node1&#45;&gt;Node3 -->
<g id="edge9_Node000001_Node000003" class="edge">
<title>Node1&#45;&gt;Node3</title>
<g id="a_edge9_Node000001_Node000003"><a xlink:title=" ">
<path fill="none" stroke="#63b8ff" d="M137,-143.79C208.91,-145.28 325.86,-149.59 426,-162 440.93,-163.85 457.01,-166.66 471.7,-169.56"/>
<polygon fill="#63b8ff" stroke="#63b8ff" points="470.64,-172.91 481.13,-171.47 472.03,-166.05 470.64,-172.91"/>
</a>
</g>
</g>
<!-- Node9 -->
<g id="Node000009" class="node">
<title>Node9</title>
<g id="a_Node000009"><a xlink:href="heater_8c.html#aeb7b9057d5e38aaa7816e8c7f0b059e3" target="_top" xlink:title="Apply configured state to all coil GPIO outputs.">
<polygon fill="white" stroke="#666666" points="263,-115 174.25,-115 174.25,-95 263,-95 263,-115"/>
<text xml:space="preserve" text-anchor="middle" x="218.62" y="-101.5" font-family="Helvetica,sans-Serif" font-size="10.00">heater_set_state</text>
</a>
</g>
</g>
<!-- Node1&#45;&gt;Node9 -->
<g id="edge10_Node000001_Node000009" class="edge">
<title>Node1&#45;&gt;Node9</title>
<g id="a_edge10_Node000001_Node000009"><a xlink:title=" ">
<path fill="none" stroke="#63b8ff" d="M110.28,-132.52C127.45,-128.11 147.63,-122.94 165.83,-118.28"/>
<polygon fill="#63b8ff" stroke="#63b8ff" points="166.57,-121.7 175.39,-115.83 164.83,-114.92 166.57,-121.7"/>
</a>
</g>
</g>
<!-- Node2&#45;&gt;Node3 -->
<g id="edge2_Node000002_Node000003" class="edge">
<title>Node2&#45;&gt;Node3</title>
<g id="a_edge2_Node000002_Node000003"><a xlink:title=" ">
<path fill="none" stroke="#63b8ff" d="M255.95,-191.42C269.77,-194.88 285.74,-198.29 300.5,-200 355.91,-206.42 370.48,-205.39 426,-200 440.97,-198.55 457.06,-195.86 471.75,-192.96"/>
<polygon fill="#63b8ff" stroke="#63b8ff" points="472.1,-196.46 481.19,-191.02 470.69,-189.6 472.1,-196.46"/>
</a>
</g>
</g>
<!-- Node8 -->
<g id="Node000008" class="node">
<title>Node8</title>
<g id="a_Node000008"><a xlink:href="encoder_8c.html#a2eece46a31e7c42df2173d6173bce48d" target="_top" xlink:title="Update encoder position based on rotation direction.">
<polygon fill="white" stroke="#666666" points="405.38,-191 321.12,-191 321.12,-171 405.38,-171 405.38,-191"/>
<text xml:space="preserve" text-anchor="middle" x="363.25" y="-177.5" font-family="Helvetica,sans-Serif" font-size="10.00">update_position</text>
</a>
</g>
</g>
<!-- Node2&#45;&gt;Node8 -->
<g id="edge7_Node000002_Node000008" class="edge">
<title>Node2&#45;&gt;Node8</title>
<g id="a_edge7_Node000002_Node000008"><a xlink:title=" ">
<path fill="none" stroke="#63b8ff" d="M264.75,-181C278.92,-181 294.69,-181 309.34,-181"/>
<polygon fill="#63b8ff" stroke="#63b8ff" points="309.29,-184.5 319.29,-181 309.29,-177.5 309.29,-184.5"/>
</a>
</g>
</g>
<!-- Node4 -->
<g id="Node000004" class="node">
<title>Node4</title>
<g id="a_Node000004"><a xlink:href="event_8c.html#ae5e03ab33fd406568f5f30681b510393" target="_top" xlink:title="Create a new event node with dynamic memory allocation.">
<polygon fill="white" stroke="#666666" points="717.5,-229 622,-229 622,-209 717.5,-209 717.5,-229"/>
<text xml:space="preserve" text-anchor="middle" x="669.75" y="-215.5" font-family="Helvetica,sans-Serif" font-size="10.00">event_createNode</text>
</a>
</g>
</g>
<!-- Node3&#45;&gt;Node4 -->
<g id="edge3_Node000003_Node000004" class="edge">
<title>Node3&#45;&gt;Node4</title>
<g id="a_edge3_Node000003_Node000004"><a xlink:title=" ">
<path fill="none" stroke="#63b8ff" d="M564.66,-191.48C581.32,-195.89 600.88,-201.06 618.52,-205.72"/>
<polygon fill="#63b8ff" stroke="#63b8ff" points="617.19,-208.99 627.76,-208.16 618.98,-202.22 617.19,-208.99"/>
</a>
</g>
</g>
<!-- Node5 -->
<g id="Node000005" class="node">
<title>Node5</title>
<g id="a_Node000005"><a xlink:href="event_8c.html#a9a29143d5146b5140c4fdfbe1009549f" target="_top" xlink:title="Log event type to terminal when event callback is triggered.">
<polygon fill="white" stroke="#666666" points="717.12,-191 622.38,-191 622.38,-171 717.12,-171 717.12,-191"/>
<text xml:space="preserve" text-anchor="middle" x="669.75" y="-177.5" font-family="Helvetica,sans-Serif" font-size="10.00">event_diplay_type</text>
</a>
</g>
</g>
<!-- Node3&#45;&gt;Node5 -->
<g id="edge4_Node000003_Node000005" class="edge">
<title>Node3&#45;&gt;Node5</title>
<g id="a_edge4_Node000003_Node000005"><a xlink:title=" ">
<path fill="none" stroke="#63b8ff" d="M565.42,-181C579.45,-181 595.47,-181 610.64,-181"/>
<polygon fill="#63b8ff" stroke="#63b8ff" points="610.52,-184.5 620.52,-181 610.52,-177.5 610.52,-184.5"/>
</a>
</g>
</g>
<!-- Node7 -->
<g id="Node000007" class="node">
<title>Node7</title>
<g id="a_Node000007"><a xlink:href="event_8c.html#aea88d358a100904366305919eaa2d0ce" target="_top" xlink:title="Check if the event queue is empty.">
<polygon fill="white" stroke="#666666" points="710.38,-153 629.12,-153 629.12,-133 710.38,-133 710.38,-153"/>
<text xml:space="preserve" text-anchor="middle" x="669.75" y="-139.5" font-family="Helvetica,sans-Serif" font-size="10.00">event_isEmpty</text>
</a>
</g>
</g>
<!-- Node3&#45;&gt;Node7 -->
<g id="edge6_Node000003_Node000007" class="edge">
<title>Node3&#45;&gt;Node7</title>
<g id="a_edge6_Node000003_Node000007"><a xlink:title=" ">
<path fill="none" stroke="#63b8ff" d="M564.66,-170.52C581.32,-166.11 600.88,-160.94 618.52,-156.28"/>
<polygon fill="#63b8ff" stroke="#63b8ff" points="618.98,-159.78 627.76,-153.84 617.19,-153.01 618.98,-159.78"/>
</a>
</g>
</g>
<!-- Node6 -->
<g id="Node000006" class="node">
<title>Node6</title>
<g id="a_Node000006"><a xlink:href="log_8c.html#a19c27922f37e1d81bb9370e65be76554" target="_top" xlink:title="Log a message with specified log level.">
<polygon fill="white" stroke="#666666" points="801,-191 753.5,-191 753.5,-171 801,-171 801,-191"/>
<text xml:space="preserve" text-anchor="middle" x="777.25" y="-177.5" font-family="Helvetica,sans-Serif" font-size="10.00">logMsg</text>
</a>
</g>
</g>
<!-- Node5&#45;&gt;Node6 -->
<g id="edge5_Node000005_Node000006" class="edge">
<title>Node5&#45;&gt;Node6</title>
<g id="a_edge5_Node000005_Node000006"><a xlink:title=" ">
<path fill="none" stroke="#63b8ff" d="M717.33,-181C725.54,-181 733.95,-181 741.76,-181"/>
<polygon fill="#63b8ff" stroke="#63b8ff" points="741.52,-184.5 751.52,-181 741.52,-177.5 741.52,-184.5"/>
</a>
</g>
</g>
<!-- Node8&#45;&gt;Node3 -->
<g id="edge8_Node000008_Node000003" class="edge">
<title>Node8&#45;&gt;Node3</title>
<g id="a_edge8_Node000008_Node000003"><a xlink:title=" ">
<path fill="none" stroke="#63b8ff" d="M405.55,-181C425.62,-181 449.96,-181 471.26,-181"/>
<polygon fill="#63b8ff" stroke="#63b8ff" points="471.22,-184.5 481.22,-181 471.22,-177.5 471.22,-184.5"/>
</a>
</g>
</g>
<!-- Node10 -->
<g id="Node000010" class="node">
<title>Node10</title>
<g id="a_Node000010"><a xlink:href="heater_8c.html#a744433fcabe6fce4a484100cb21dbc00" target="_top" xlink:title="Check door state and pause/resume heating accordingly.">
<polygon fill="white" stroke="#666666" points="426,-115 300.5,-115 300.5,-95 426,-95 426,-115"/>
<text xml:space="preserve" text-anchor="middle" x="363.25" y="-101.5" font-family="Helvetica,sans-Serif" font-size="10.00">heater_check_door_state</text>
</a>
</g>
</g>
<!-- Node9&#45;&gt;Node10 -->
<g id="edge11_Node000009_Node000010" class="edge">
<title>Node9&#45;&gt;Node10</title>
<g id="a_edge11_Node000009_Node000010"><a xlink:title=" ">
<path fill="none" stroke="#63b8ff" d="M263.19,-105C271.28,-105 279.93,-105 288.63,-105"/>
<polygon fill="#63b8ff" stroke="#63b8ff" points="288.54,-108.5 298.54,-105 288.54,-101.5 288.54,-108.5"/>
</a>
</g>
</g>
<!-- Node12 -->
<g id="Node000012" class="node">
<title>Node12</title>
<g id="a_Node000012"><a xlink:href="heater_8c.html#a6d5286ce557080170ed8c1855deb2bd5" target="_top" xlink:title="Apply configured state to a single coil.">
<polygon fill="white" stroke="#666666" points="417.75,-77 308.75,-77 308.75,-57 417.75,-57 417.75,-77"/>
<text xml:space="preserve" text-anchor="middle" x="363.25" y="-63.5" font-family="Helvetica,sans-Serif" font-size="10.00">heater_set_coil_state</text>
</a>
</g>
</g>
<!-- Node9&#45;&gt;Node12 -->
<g id="edge13_Node000009_Node000012" class="edge">
<title>Node9&#45;&gt;Node12</title>
<g id="a_edge13_Node000009_Node000012"><a xlink:title=" ">
<path fill="none" stroke="#63b8ff" d="M258.98,-94.52C275.34,-90.15 294.54,-85.04 311.92,-80.41"/>
<polygon fill="#63b8ff" stroke="#63b8ff" points="312.8,-83.8 321.57,-77.84 311,-77.03 312.8,-83.8"/>
</a>
</g>
</g>
<!-- Node11 -->
<g id="Node000011" class="node">
<title>Node11</title>
<g id="a_Node000011"><a xlink:href="heater_8c.html#aa845617288d221752fd94dbb011b564a" target="_top" xlink:title="Set the heater power level (0&#45;6).">
<polygon fill="white" stroke="#666666" points="567.62,-134 480.38,-134 480.38,-114 567.62,-114 567.62,-134"/>
<text xml:space="preserve" text-anchor="middle" x="524" y="-120.5" font-family="Helvetica,sans-Serif" font-size="10.00">heater_set_level</text>
</a>
</g>
</g>
<!-- Node10&#45;&gt;Node11 -->
<g id="edge12_Node000010_Node000011" class="edge">
<title>Node10&#45;&gt;Node11</title>
<g id="a_edge12_Node000010_Node000011"><a xlink:title=" ">
<path fill="none" stroke="#63b8ff" d="M426.08,-112.4C440.23,-114.09 455.16,-115.88 468.95,-117.53"/>
<polygon fill="#63b8ff" stroke="#63b8ff" points="468.38,-120.99 478.72,-118.7 469.21,-114.04 468.38,-120.99"/>
</a>
</g>
</g>
<!-- Node13 -->
<g id="Node000013" class="node">
<title>Node13</title>
<g id="a_Node000013"><a xlink:href="heater_8c.html#abd981657b41a08c0fca6d043e71f9fe1" target="_top" xlink:title="Set coil GPIO pin low (turn off).">
<polygon fill="white" stroke="#666666" points="572.88,-96 475.12,-96 475.12,-76 572.88,-76 572.88,-96"/>
<text xml:space="preserve" text-anchor="middle" x="524" y="-82.5" font-family="Helvetica,sans-Serif" font-size="10.00">heater_set_coil_off</text>
</a>
</g>
</g>
<!-- Node12&#45;&gt;Node13 -->
<g id="edge14_Node000012_Node000013" class="edge">
<title>Node12&#45;&gt;Node13</title>
<g id="a_edge14_Node000012_Node000013"><a xlink:title=" ">
<path fill="none" stroke="#63b8ff" d="M418,-73.43C432.62,-75.18 448.54,-77.09 463.46,-78.87"/>
<polygon fill="#63b8ff" stroke="#63b8ff" points="462.79,-82.32 473.14,-80.03 463.63,-75.37 462.79,-82.32"/>
</a>
</g>
</g>
<!-- Node14 -->
<g id="Node000014" class="node">
<title>Node14</title>
<g id="a_Node000014"><a xlink:href="heater_8c.html#a7b55ee7ff070b92958c6ce66d74a3c6b" target="_top" xlink:title="Set coil GPIO pin high (turn on).">
<polygon fill="white" stroke="#666666" points="572.88,-58 475.12,-58 475.12,-38 572.88,-38 572.88,-58"/>
<text xml:space="preserve" text-anchor="middle" x="524" y="-44.5" font-family="Helvetica,sans-Serif" font-size="10.00">heater_set_coil_on</text>
</a>
</g>
</g>
<!-- Node12&#45;&gt;Node14 -->
<g id="edge15_Node000012_Node000014" class="edge">
<title>Node12&#45;&gt;Node14</title>
<g id="a_edge15_Node000012_Node000014"><a xlink:title=" ">
<path fill="none" stroke="#63b8ff" d="M418,-60.57C432.62,-58.82 448.54,-56.91 463.46,-55.13"/>
<polygon fill="#63b8ff" stroke="#63b8ff" points="463.63,-58.63 473.14,-53.97 462.79,-51.68 463.63,-58.63"/>
</a>
</g>
</g>
<!-- Node15 -->
<g id="Node000015" class="node">
<title>Node15</title>
<g id="a_Node000015"><a xlink:href="heater_8c.html#af1591585fd2062bd24306e39d4db5596" target="_top" xlink:title="Update PWM state for a coil.">
<polygon fill="white" stroke="#666666" points="586,-20 462,-20 462,0 586,0 586,-20"/>
<text xml:space="preserve" text-anchor="middle" x="524" y="-6.5" font-family="Helvetica,sans-Serif" font-size="10.00">heater_update_pwm_coil</text>
</a>
</g>
</g>
<!-- Node12&#45;&gt;Node15 -->
<g id="edge16_Node000012_Node000015" class="edge">
<title>Node12&#45;&gt;Node15</title>
<g id="a_edge16_Node000012_Node000015"><a xlink:title=" ">
<path fill="none" stroke="#63b8ff" d="M389.8,-56.51C409.42,-48.6 437.25,-37.65 462,-29 466.97,-27.26 472.2,-25.51 477.42,-23.82"/>
<polygon fill="#63b8ff" stroke="#63b8ff" points="478.12,-27.27 486.58,-20.9 475.99,-20.6 478.12,-27.27"/>
</a>
</g>
</g>
<!-- Node16 -->
<g id="Node000016" class="node">
<title>Node16</title>
<g id="a_Node000016"><a xlink:href="heater_8c.html#ac4a6b221323e72ff20c2a96b8c51b9ac" target="_top" xlink:title="Toggle coil GPIO pin state.">
<polygon fill="white" stroke="#666666" points="717.12,-20 622.38,-20 622.38,0 717.12,0 717.12,-20"/>
<text xml:space="preserve" text-anchor="middle" x="669.75" y="-6.5" font-family="Helvetica,sans-Serif" font-size="10.00">heater_toggle_coil</text>
</a>
</g>
</g>
<!-- Node15&#45;&gt;Node16 -->
<g id="edge17_Node000015_Node000016" class="edge">
<title>Node15&#45;&gt;Node16</title>
<g id="a_edge17_Node000015_Node000016"><a xlink:title=" ">
<path fill="none" stroke="#63b8ff" d="M586.38,-10C594.38,-10 602.55,-10 610.5,-10"/>
<polygon fill="#63b8ff" stroke="#63b8ff" points="610.41,-13.5 620.41,-10 610.41,-6.5 610.41,-13.5"/>
</a>
</g>
</g>
</g>
</svg>
