<?xml version="1.0" encoding="UTF-8" standalone="no"?>
<!DOCTYPE svg PUBLIC "-//W3C//DTD SVG 1.1//EN"
 "http://www.w3.org/Graphics/SVG/1.1/DTD/svg11.dtd">
<!-- Generated by graphviz version 14.1.2 (0)
 -->
<!-- Title: main Pages: 1 -->
<!--zoomable 624 -->

<svg id="main" version="1.1" xmlns="http://www.w3.org/2000/svg" xmlns:xlink="http://www.w3.org/1999/xlink" xml:space="preserve" onload="init(evt)">

<style type="text/css"><![CDATA[
.node, .edge {opacity: 0.7;}
.node.selected, .edge.selected {opacity: 1;}
.edge:hover path { stroke: red; }
.edge:hover polygon { stroke: red; fill: red; }
]]></style>

<defs>
  <circle id="rim" cx="0" cy="0" r="7"/>
  <circle id="rim2" cx="0" cy="0" r="3.5"/>
  <g id="zoomPlus">
    <use xlink:href="#rim" fill="#404040"><set attributeName="fill" to="#808080" begin="zoomplus.mouseover" end="zoomplus.mouseout"/></use>
    <path d="M-4,0h8M0,-4v8" fill="none" stroke="white" stroke-width="1.5" pointer-events="none"/>
  </g>
  <g id="zoomMin">
    <use xlink:href="#rim" fill="#404040"><set attributeName="fill" to="#808080" begin="zoomminus.mouseover" end="zoomminus.mouseout"/></use>
    <path d="M-4,0h8" fill="none" stroke="white" stroke-width="1.5" pointer-events="none"/>
  </g>
  <g id="arrowUp" transform="translate(30 24)">
    <use xlink:href="#rim"/>
    <path pointer-events="none" fill="none" stroke="white" stroke-width="1.5" d="M0,-3.0v7 M-2.5,-0.5L0,-3.0L2.5,-0.5"/>
  </g>
  <g id="arrowRight" transform="rotate(90) translate(36 -43)">
    <use xlink:href="#rim"/>
    <path pointer-events="none" fill="none" stroke="white" stroke-width="1.5" d="M0,-3.0v7 M-2.5,-0.5L0,-3.0L2.5,-0.5"/>
  </g>
  <g id="arrowDown" transform="rotate(180) translate(-30 -48)">
    <use xlink:href="#rim"/>
    <path pointer-events="none" fill="none" stroke="white" stroke-width="1.5" d="M0,-3.0v7 M-2.5,-0.5L0,-3.0L2.5,-0.5"/>
  </g>
  <g id="arrowLeft" transform="rotate(270) translate(-36 17)">
    <use xlink:href="#rim"/>
    <path pointer-events="none" fill="none" stroke="white" stroke-width="1.5" d="M0,-3.0v7 M-2.5,-0.5L0,-3.0L2.5,-0.5"/>
  </g>
  <g id="resetDef">
    <use xlink:href="#rim2" fill="#404040"><set attributeName="fill" to="#808080" begin="reset.mouseover" end="reset.mouseout"/></use>
  </g>
</defs>
<script type="application/ecmascript">
var viewWidth = 785;
var viewHeight = 624;
var sectionId = 'dynsection-5';
</script>
<script type="application/ecmascript" xlink:href="svg.min.js"/>
<svg id="graph" class="graph">
<g id="viewport">
<title>main</title>
<!-- Node1 -->
<g id="Node000001" class="node">
<title>Node1</title>
<g id="a_Node000001"><a xlink:title="The application entry point.">
<polygon fill="#999999" stroke="#666666" points="37,-305 0,-305 0,-285 37,-285 37,-305"/>
<text xml:space="preserve" text-anchor="middle" x="18.5" y="-291.5" font-family="Helvetica,sans-Serif" font-size="10.00">main</text>
</a>
</g>
</g>
<!-- Node2 -->
<g id="Node000002" class="node">
<title>Node2</title>
<g id="a_Node000002"><a xlink:href="heater_8c.html#aa845617288d221752fd94dbb011b564a" target="_top" xlink:title="Set the heater power level (0&#45;6).">
<polygon fill="white" stroke="#666666" points="502.38,-590 415.12,-590 415.12,-570 502.38,-570 502.38,-590"/>
<text xml:space="preserve" text-anchor="middle" x="458.75" y="-576.5" font-family="Helvetica,sans-Serif" font-size="10.00">heater_set_level</text>
</a>
</g>
</g>
<!-- Node1&#45;&gt;Node2 -->
<g id="edge1_Node000001_Node000002" class="edge">
<title>Node1&#45;&gt;Node2</title>
<g id="a_edge1_Node000001_Node000002"><a xlink:title=" ">
<path fill="none" stroke="#63b8ff" d="M19.95,-305.41C22.14,-350.32 33.2,-526.73 73,-561 169.25,-643.87 334.43,-614.24 413.31,-593.42"/>
<polygon fill="#63b8ff" stroke="#63b8ff" points="414.11,-596.83 422.84,-590.83 412.27,-590.08 414.11,-596.83"/>
</a>
</g>
</g>
<!-- Node3 -->
<g id="Node000003" class="node">
<title>Node3</title>
<g id="a_Node000003"><a xlink:href="heater_8c.html#aeb7b9057d5e38aaa7816e8c7f0b059e3" target="_top" xlink:title="Apply configured state to all coil GPIO outputs.">
<polygon fill="white" stroke="#666666" points="180.5,-552 91.75,-552 91.75,-532 180.5,-532 180.5,-552"/>
<text xml:space="preserve" text-anchor="middle" x="136.12" y="-538.5" font-family="Helvetica,sans-Serif" font-size="10.00">heater_set_state</text>
</a>
</g>
</g>
<!-- Node1&#45;&gt;Node3 -->
<g id="edge2_Node000001_Node000003" class="edge">
<title>Node1&#45;&gt;Node3</title>
<g id="a_edge2_Node000001_Node000003"><a xlink:title=" ">
<path fill="none" stroke="#63b8ff" d="M20.56,-305.32C24.89,-345.43 42.44,-490.34 73,-523 75.43,-525.59 78.2,-527.84 81.19,-529.77"/>
<polygon fill="#63b8ff" stroke="#63b8ff" points="79.51,-532.85 90,-534.3 82.7,-526.62 79.51,-532.85"/>
</a>
</g>
</g>
<!-- Node10 -->
<g id="Node000010" class="node">
<title>Node10</title>
<g id="a_Node000010"><a xlink:href="encoder_8c.html#ada15b263460935f6cc996206f002acbe" target="_top" xlink:title="Initialize the encoder driver.">
<polygon fill="white" stroke="#666666" points="171.12,-514 101.12,-514 101.12,-494 171.12,-494 171.12,-514"/>
<text xml:space="preserve" text-anchor="middle" x="136.12" y="-500.5" font-family="Helvetica,sans-Serif" font-size="10.00">init_Encoder</text>
</a>
</g>
</g>
<!-- Node1&#45;&gt;Node10 -->
<g id="edge10_Node000001_Node000010" class="edge">
<title>Node1&#45;&gt;Node10</title>
<g id="a_edge10_Node000001_Node000010"><a xlink:title=" ">
<path fill="none" stroke="#63b8ff" d="M19.2,-305.31C18.85,-336.84 22.21,-433.06 73,-485 77.75,-489.86 83.7,-493.48 90.03,-496.18"/>
<polygon fill="#63b8ff" stroke="#63b8ff" points="88.86,-499.48 99.45,-499.42 91.13,-492.86 88.86,-499.48"/>
</a>
</g>
</g>
<!-- Node11 -->
<g id="Node000011" class="node">
<title>Node11</title>
<g id="a_Node000011"><a xlink:href="event_8c.html#a215000c56c950c6a4830a65f77d25a0a" target="_top" xlink:title="Initialize the event queue.">
<polygon fill="white" stroke="#666666" points="163.25,-476 109,-476 109,-456 163.25,-456 163.25,-476"/>
<text xml:space="preserve" text-anchor="middle" x="136.12" y="-462.5" font-family="Helvetica,sans-Serif" font-size="10.00">initEvent</text>
</a>
</g>
</g>
<!-- Node1&#45;&gt;Node11 -->
<g id="edge11_Node000001_Node000011" class="edge">
<title>Node1&#45;&gt;Node11</title>
<g id="a_edge11_Node000001_Node000011"><a xlink:title=" ">
<path fill="none" stroke="#63b8ff" d="M20.04,-305.17C22.02,-332.27 31.21,-406.91 73,-447 79.83,-453.55 88.85,-457.85 97.9,-460.67"/>
<polygon fill="#63b8ff" stroke="#63b8ff" points="96.78,-463.99 107.34,-463.05 98.5,-457.21 96.78,-463.99"/>
</a>
</g>
</g>
<!-- Node13 -->
<g id="Node000013" class="node">
<title>Node13</title>
<g id="a_Node000013"><a xlink:href="heater_8c.html#a972087cb00b2551215bec518ee3a2646" target="_top" xlink:title="Initialize the heater module.">
<polygon fill="white" stroke="#666666" points="165.12,-438 107.12,-438 107.12,-418 165.12,-418 165.12,-438"/>
<text xml:space="preserve" text-anchor="middle" x="136.12" y="-424.5" font-family="Helvetica,sans-Serif" font-size="10.00">initHeater</text>
</a>
</g>
</g>
<!-- Node1&#45;&gt;Node13 -->
<g id="edge13_Node000001_Node000013" class="edge">
<title>Node1&#45;&gt;Node13</title>
<g id="a_edge13_Node000001_Node000013"><a xlink:title=" ">
<path fill="none" stroke="#63b8ff" d="M21.39,-305.2C26.04,-327.42 40.13,-380.5 73,-409 79.44,-414.59 87.5,-418.53 95.66,-421.32"/>
<polygon fill="#63b8ff" stroke="#63b8ff" points="94.67,-424.67 105.24,-424.03 96.57,-417.94 94.67,-424.67"/>
</a>
</g>
</g>
<!-- Node15 -->
<g id="Node000015" class="node">
<title>Node15</title>
<g id="a_Node000015"><a xlink:href="log_8c.html#ab11712e24fe906f2688817e7d35c1b1c" target="_top" xlink:title="Initialize the logging module.">
<polygon fill="white" stroke="#666666" points="158.38,-400 113.88,-400 113.88,-380 158.38,-380 158.38,-400"/>
<text xml:space="preserve" text-anchor="middle" x="136.12" y="-386.5" font-family="Helvetica,sans-Serif" font-size="10.00">initLog</text>
</a>
</g>
</g>
<!-- Node1&#45;&gt;Node15 -->
<g id="edge15_Node000001_Node000015" class="edge">
<title>Node1&#45;&gt;Node15</title>
<g id="a_edge15_Node000001_Node000015"><a xlink:title=" ">
<path fill="none" stroke="#63b8ff" d="M24.85,-305.38C33.19,-320.64 50.71,-349.16 73,-366 81.81,-372.65 92.69,-377.68 102.87,-381.37"/>
<polygon fill="#63b8ff" stroke="#63b8ff" points="101.48,-384.6 112.07,-384.39 103.66,-377.95 101.48,-384.6"/>
</a>
</g>
</g>
<!-- Node16 -->
<g id="Node000016" class="node">
<title>Node16</title>
<g id="a_Node000016"><a xlink:href="ui_8c.html#a4f4b9a90a4a79b7a2c5bd2e4454e6331" target="_top" xlink:title="Initialize the UI module.">
<polygon fill="white" stroke="#666666" points="317.62,-375 278.38,-375 278.38,-355 317.62,-355 317.62,-375"/>
<text xml:space="preserve" text-anchor="middle" x="298" y="-361.5" font-family="Helvetica,sans-Serif" font-size="10.00">initUI</text>
</a>
</g>
</g>
<!-- Node1&#45;&gt;Node16 -->
<g id="edge16_Node000001_Node000016" class="edge">
<title>Node1&#45;&gt;Node16</title>
<g id="a_edge16_Node000001_Node000016"><a xlink:title=" ">
<path fill="none" stroke="#63b8ff" d="M30.45,-305.19C40.65,-314.07 56.71,-326.5 73,-333 138.53,-359.15 222.37,-364.36 266.57,-365.14"/>
<polygon fill="#63b8ff" stroke="#63b8ff" points="266.39,-368.64 276.43,-365.24 266.46,-361.64 266.39,-368.64"/>
</a>
</g>
</g>
<!-- Node20 -->
<g id="Node000020" class="node">
<title>Node20</title>
<g id="a_Node000020"><a xlink:href="lcd1602__rgb_8c.html#a46c1528764d32608b85028f9f6a13dc6" target="_top" xlink:title="Initialize the LCD display.">
<polygon fill="white" stroke="#666666" points="170,-324 102.25,-324 102.25,-304 170,-304 170,-324"/>
<text xml:space="preserve" text-anchor="middle" x="136.12" y="-310.5" font-family="Helvetica,sans-Serif" font-size="10.00">lcd1602_init</text>
</a>
</g>
</g>
<!-- Node1&#45;&gt;Node20 -->
<g id="edge21_Node000001_Node000020" class="edge">
<title>Node1&#45;&gt;Node20</title>
<g id="a_edge21_Node000001_Node000020"><a xlink:title=" ">
<path fill="none" stroke="#63b8ff" d="M37.31,-297.93C51.58,-300.27 72.23,-303.66 90.88,-306.73"/>
<polygon fill="#63b8ff" stroke="#63b8ff" points="90.23,-310.17 100.66,-308.34 91.36,-303.26 90.23,-310.17"/>
</a>
</g>
</g>
<!-- Node27 -->
<g id="Node000027" class="node">
<title>Node27</title>
<g id="a_Node000027"><a xlink:href="MAX31855_8c.html#a80cb515c92c00eb348c7a9aa5be79049" target="_top" xlink:title="Initialize the MAX31855 driver.">
<polygon fill="white" stroke="#666666" points="175.62,-286 96.62,-286 96.62,-266 175.62,-266 175.62,-286"/>
<text xml:space="preserve" text-anchor="middle" x="136.12" y="-272.5" font-family="Helvetica,sans-Serif" font-size="10.00">max31855_init</text>
</a>
</g>
</g>
<!-- Node1&#45;&gt;Node27 -->
<g id="edge32_Node000001_Node000027" class="edge">
<title>Node1&#45;&gt;Node27</title>
<g id="a_edge32_Node000001_Node000027"><a xlink:title=" ">
<path fill="none" stroke="#63b8ff" d="M37.31,-292.07C50.2,-289.96 68.29,-286.98 85.41,-284.17"/>
<polygon fill="#63b8ff" stroke="#63b8ff" points="85.66,-287.67 94.96,-282.6 84.53,-280.77 85.66,-287.67"/>
</a>
</g>
</g>
<!-- Node28 -->
<g id="Node000028" class="node">
<title>Node28</title>
<g id="a_Node000028"><a xlink:href="main_8c.html#ae89fdd15729ad41a66911190fcbab23a" target="_top" xlink:title="GPIO Initialization Function.">
<polygon fill="white" stroke="#666666" points="176,-248 96.25,-248 96.25,-228 176,-228 176,-248"/>
<text xml:space="preserve" text-anchor="middle" x="136.12" y="-234.5" font-family="Helvetica,sans-Serif" font-size="10.00">MX_GPIO_Init</text>
</a>
</g>
</g>
<!-- Node1&#45;&gt;Node28 -->
<g id="edge33_Node000001_Node000028" class="edge">
<title>Node1&#45;&gt;Node28</title>
<g id="a_edge33_Node000001_Node000028"><a xlink:title=" ">
<path fill="none" stroke="#63b8ff" d="M31.53,-284.73C41.93,-276.29 57.67,-264.54 73,-257 76.93,-255.07 81.1,-253.28 85.34,-251.65"/>
<polygon fill="#63b8ff" stroke="#63b8ff" points="86.26,-255.03 94.52,-248.39 83.92,-248.44 86.26,-255.03"/>
</a>
</g>
</g>
<!-- Node29 -->
<g id="Node000029" class="node">
<title>Node29</title>
<g id="a_Node000029"><a xlink:href="main_8c.html#a4230d11f81d0b16e112f1cc3f40cb42f" target="_top" xlink:title="I2C1 Initialization Function.">
<polygon fill="white" stroke="#666666" points="174.12,-210 98.12,-210 98.12,-190 174.12,-190 174.12,-210"/>
<text xml:space="preserve" text-anchor="middle" x="136.12" y="-196.5" font-family="Helvetica,sans-Serif" font-size="10.00">MX_I2C1_Init</text>
</a>
</g>
</g>
<!-- Node1&#45;&gt;Node29 -->
<g id="edge34_Node000001_Node000029" class="edge">
<title>Node1&#45;&gt;Node29</title>
<g id="a_edge34_Node000001_Node000029"><a xlink:title=" ">
<path fill="none" stroke="#63b8ff" d="M23.99,-284.75C31.65,-268.41 48.83,-236.52 73,-219 77.34,-215.86 82.21,-213.22 87.26,-211.02"/>
<polygon fill="#63b8ff" stroke="#63b8ff" points="88.21,-214.4 96.35,-207.62 85.76,-207.85 88.21,-214.4"/>
</a>
</g>
</g>
<!-- Node31 -->
<g id="Node000031" class="node">
<title>Node31</title>
<g id="a_Node000031"><a xlink:href="main_8c.html#a54909c9e8ca1af96208ae7a8cf1e9468" target="_top" xlink:title="RTC Initialization Function.">
<polygon fill="white" stroke="#666666" points="173.75,-172 98.5,-172 98.5,-152 173.75,-152 173.75,-172"/>
<text xml:space="preserve" text-anchor="middle" x="136.12" y="-158.5" font-family="Helvetica,sans-Serif" font-size="10.00">MX_RTC_Init</text>
</a>
</g>
</g>
<!-- Node1&#45;&gt;Node31 -->
<g id="edge36_Node000001_Node000031" class="edge">
<title>Node1&#45;&gt;Node31</title>
<g id="a_edge36_Node000001_Node000031"><a xlink:title=" ">
<path fill="none" stroke="#63b8ff" d="M21.39,-284.8C26.04,-262.58 40.13,-209.5 73,-181 77.31,-177.26 82.34,-174.26 87.64,-171.85"/>
<polygon fill="#63b8ff" stroke="#63b8ff" points="88.52,-175.26 96.63,-168.44 86.04,-168.71 88.52,-175.26"/>
</a>
</g>
</g>
<!-- Node32 -->
<g id="Node000032" class="node">
<title>Node32</title>
<g id="a_Node000032"><a xlink:href="main_8c.html#ade0c8abfcfc1615647bfdd244bd1ee00" target="_top" xlink:title="SPI2 Initialization Function.">
<polygon fill="white" stroke="#666666" points="174.5,-134 97.75,-134 97.75,-114 174.5,-114 174.5,-134"/>
<text xml:space="preserve" text-anchor="middle" x="136.12" y="-120.5" font-family="Helvetica,sans-Serif" font-size="10.00">MX_SPI2_Init</text>
</a>
</g>
</g>
<!-- Node1&#45;&gt;Node32 -->
<g id="edge38_Node000001_Node000032" class="edge">
<title>Node1&#45;&gt;Node32</title>
<g id="a_edge38_Node000001_Node000032"><a xlink:title=" ">
<path fill="none" stroke="#63b8ff" d="M20.04,-284.83C22.02,-257.73 31.21,-183.09 73,-143 76.96,-139.2 81.67,-136.16 86.68,-133.72"/>
<polygon fill="#63b8ff" stroke="#63b8ff" points="87.87,-137.02 95.88,-130.08 85.3,-130.51 87.87,-137.02"/>
</a>
</g>
</g>
<!-- Node33 -->
<g id="Node000033" class="node">
<title>Node33</title>
<g id="a_Node000033"><a xlink:href="main_8c.html#a73ff2ff527606fb2be261e9f85aab83c" target="_top" xlink:title="TIM3 Initialization Function.">
<polygon fill="white" stroke="#666666" points="174.88,-96 97.38,-96 97.38,-76 174.88,-76 174.88,-96"/>
<text xml:space="preserve" text-anchor="middle" x="136.12" y="-82.5" font-family="Helvetica,sans-Serif" font-size="10.00">MX_TIM3_Init</text>
</a>
</g>
</g>
<!-- Node1&#45;&gt;Node33 -->
<g id="edge40_Node000001_Node000033" class="edge">
<title>Node1&#45;&gt;Node33</title>
<g id="a_edge40_Node000001_Node000033"><a xlink:title=" ">
<path fill="none" stroke="#63b8ff" d="M19.2,-284.69C18.85,-253.16 22.21,-156.94 73,-105 76.84,-101.07 81.47,-97.95 86.44,-95.48"/>
<polygon fill="#63b8ff" stroke="#63b8ff" points="87.62,-98.77 95.6,-91.8 85.01,-92.28 87.62,-98.77"/>
</a>
</g>
</g>
<!-- Node34 -->
<g id="Node000034" class="node">
<title>Node34</title>
<g id="a_Node000034"><a xlink:href="main_8c.html#a62f4b77e20bccafe98a183771749c20c" target="_top" xlink:title="USART1 Initialization Function.">
<polygon fill="white" stroke="#666666" points="199.25,-58 73,-58 73,-38 199.25,-38 199.25,-58"/>
<text xml:space="preserve" text-anchor="middle" x="136.12" y="-44.5" font-family="Helvetica,sans-Serif" font-size="10.00">MX_USART1_UART_Init</text>
</a>
</g>
</g>
<!-- Node1&#45;&gt;Node34 -->
<g id="edge42_Node000001_Node000034" class="edge">
<title>Node1&#45;&gt;Node34</title>
<g id="a_edge42_Node000001_Node000034"><a xlink:title=" ">
<path fill="none" stroke="#63b8ff" d="M20.56,-284.68C24.89,-244.57 42.44,-99.66 73,-67 73.71,-66.24 74.45,-65.52 75.21,-64.82"/>
<polygon fill="#63b8ff" stroke="#63b8ff" points="76.9,-67.91 83.02,-59.26 72.84,-62.21 76.9,-67.91"/>
</a>
</g>
</g>
<!-- Node35 -->
<g id="Node000035" class="node">
<title>Node35</title>
<g id="a_Node000035"><a xlink:href="main_8c.html#a70af21c671abfcc773614a9a4f63d920" target="_top" xlink:title="System Clock Configuration.">
<polygon fill="white" stroke="#666666" points="190.62,-20 81.62,-20 81.62,0 190.62,0 190.62,-20"/>
<text xml:space="preserve" text-anchor="middle" x="136.12" y="-6.5" font-family="Helvetica,sans-Serif" font-size="10.00">SystemClock_Config</text>
</a>
</g>
</g>
<!-- Node1&#45;&gt;Node35 -->
<g id="edge44_Node000001_Node000035" class="edge">
<title>Node1&#45;&gt;Node35</title>
<g id="a_edge44_Node000001_Node000035"><a xlink:title=" ">
<path fill="none" stroke="#63b8ff" d="M20.2,-284.52C23.38,-240.1 37.81,-67.83 73,-29 73.58,-28.36 74.19,-27.74 74.81,-27.14"/>
<polygon fill="#63b8ff" stroke="#63b8ff" points="76.67,-30.11 82.62,-21.34 72.51,-24.49 76.67,-30.11"/>
</a>
</g>
</g>
<!-- Node4 -->
<g id="Node000004" class="node">
<title>Node4</title>
<g id="a_Node000004"><a xlink:href="heater_8c.html#a744433fcabe6fce4a484100cb21dbc00" target="_top" xlink:title="Check door state and pause/resume heating accordingly.">
<polygon fill="white" stroke="#666666" points="360.75,-552 235.25,-552 235.25,-532 360.75,-532 360.75,-552"/>
<text xml:space="preserve" text-anchor="middle" x="298" y="-538.5" font-family="Helvetica,sans-Serif" font-size="10.00">heater_check_door_state</text>
</a>
</g>
</g>
<!-- Node3&#45;&gt;Node4 -->
<g id="edge3_Node000003_Node000004" class="edge">
<title>Node3&#45;&gt;Node4</title>
<g id="a_edge3_Node000003_Node000004"><a xlink:title=" ">
<path fill="none" stroke="#63b8ff" d="M180.81,-542C194.07,-542 209.02,-542 223.67,-542"/>
<polygon fill="#63b8ff" stroke="#63b8ff" points="223.27,-545.5 233.27,-542 223.27,-538.5 223.27,-545.5"/>
</a>
</g>
</g>
<!-- Node5 -->
<g id="Node000005" class="node">
<title>Node5</title>
<g id="a_Node000005"><a xlink:href="heater_8c.html#a6d5286ce557080170ed8c1855deb2bd5" target="_top" xlink:title="Apply configured state to a single coil.">
<polygon fill="white" stroke="#666666" points="352.5,-514 243.5,-514 243.5,-494 352.5,-494 352.5,-514"/>
<text xml:space="preserve" text-anchor="middle" x="298" y="-500.5" font-family="Helvetica,sans-Serif" font-size="10.00">heater_set_coil_state</text>
</a>
</g>
</g>
<!-- Node3&#45;&gt;Node5 -->
<g id="edge5_Node000003_Node000005" class="edge">
<title>Node3&#45;&gt;Node5</title>
<g id="a_edge5_Node000003_Node000005"><a xlink:title=" ">
<path fill="none" stroke="#63b8ff" d="M180.81,-531.62C199.68,-527.13 221.97,-521.83 241.95,-517.09"/>
<polygon fill="#63b8ff" stroke="#63b8ff" points="242.7,-520.5 251.62,-514.79 241.08,-513.69 242.7,-520.5"/>
</a>
</g>
</g>
<!-- Node4&#45;&gt;Node2 -->
<g id="edge4_Node000004_Node000002" class="edge">
<title>Node4&#45;&gt;Node2</title>
<g id="a_edge4_Node000004_Node000002"><a xlink:title=" ">
<path fill="none" stroke="#63b8ff" d="M342.8,-552.48C361.61,-556.99 383.77,-562.29 403.6,-567.04"/>
<polygon fill="#63b8ff" stroke="#63b8ff" points="402.63,-570.4 413.17,-569.33 404.26,-563.6 402.63,-570.4"/>
</a>
</g>
</g>
<!-- Node6 -->
<g id="Node000006" class="node">
<title>Node6</title>
<g id="a_Node000006"><a xlink:href="heater_8c.html#abd981657b41a08c0fca6d043e71f9fe1" target="_top" xlink:title="Set coil GPIO pin low (turn off).">
<polygon fill="white" stroke="#666666" points="507.62,-552 409.88,-552 409.88,-532 507.62,-532 507.62,-552"/>
<text xml:space="preserve" text-anchor="middle" x="458.75" y="-538.5" font-family="Helvetica,sans-Serif" font-size="10.00">heater_set_coil_off</text>
</a>
</g>
</g>
<!-- Node5&#45;&gt;Node6 -->
<g id="edge6_Node000005_Node000006" class="edge">
<title>Node5&#45;&gt;Node6</title>
<g id="a_edge6_Node000005_Node000006"><a xlink:title=" ">
<path fill="none" stroke="#63b8ff" d="M342.8,-514.48C361.45,-518.95 383.41,-524.21 403.11,-528.92"/>
<polygon fill="#63b8ff" stroke="#63b8ff" points="402.08,-532.27 412.62,-531.2 403.71,-525.47 402.08,-532.27"/>
</a>
</g>
</g>
<!-- Node7 -->
<g id="Node000007" class="node">
<title>Node7</title>
<g id="a_Node000007"><a xlink:href="heater_8c.html#a7b55ee7ff070b92958c6ce66d74a3c6b" target="_top" xlink:title="Set coil GPIO pin high (turn on).">
<polygon fill="white" stroke="#666666" points="507.62,-514 409.88,-514 409.88,-494 507.62,-494 507.62,-514"/>
<text xml:space="preserve" text-anchor="middle" x="458.75" y="-500.5" font-family="Helvetica,sans-Serif" font-size="10.00">heater_set_coil_on</text>
</a>
</g>
</g>
<!-- Node5&#45;&gt;Node7 -->
<g id="edge7_Node000005_Node000007" class="edge">
<title>Node5&#45;&gt;Node7</title>
<g id="a_edge7_Node000005_Node000007"><a xlink:title=" ">
<path fill="none" stroke="#63b8ff" d="M352.75,-504C367.37,-504 383.29,-504 398.21,-504"/>
<polygon fill="#63b8ff" stroke="#63b8ff" points="397.88,-507.5 407.88,-504 397.88,-500.5 397.88,-507.5"/>
</a>
</g>
</g>
<!-- Node8 -->
<g id="Node000008" class="node">
<title>Node8</title>
<g id="a_Node000008"><a xlink:href="heater_8c.html#af1591585fd2062bd24306e39d4db5596" target="_top" xlink:title="Update PWM state for a coil.">
<polygon fill="white" stroke="#666666" points="520.75,-476 396.75,-476 396.75,-456 520.75,-456 520.75,-476"/>
<text xml:space="preserve" text-anchor="middle" x="458.75" y="-462.5" font-family="Helvetica,sans-Serif" font-size="10.00">heater_update_pwm_coil</text>
</a>
</g>
</g>
<!-- Node5&#45;&gt;Node8 -->
<g id="edge8_Node000005_Node000008" class="edge">
<title>Node5&#45;&gt;Node8</title>
<g id="a_edge8_Node000005_Node000008"><a xlink:title=" ">
<path fill="none" stroke="#63b8ff" d="M342.8,-493.52C361.45,-489.05 383.41,-483.79 403.11,-479.08"/>
<polygon fill="#63b8ff" stroke="#63b8ff" points="403.71,-482.53 412.62,-476.8 402.08,-475.73 403.71,-482.53"/>
</a>
</g>
</g>
<!-- Node9 -->
<g id="Node000009" class="node">
<title>Node9</title>
<g id="a_Node000009"><a xlink:href="heater_8c.html#ac4a6b221323e72ff20c2a96b8c51b9ac" target="_top" xlink:title="Toggle coil GPIO pin state.">
<polygon fill="white" stroke="#666666" points="653,-476 558.25,-476 558.25,-456 653,-456 653,-476"/>
<text xml:space="preserve" text-anchor="middle" x="605.62" y="-462.5" font-family="Helvetica,sans-Serif" font-size="10.00">heater_toggle_coil</text>
</a>
</g>
</g>
<!-- Node8&#45;&gt;Node9 -->
<g id="edge9_Node000008_Node000009" class="edge">
<title>Node8&#45;&gt;Node9</title>
<g id="a_edge9_Node000008_Node000009"><a xlink:title=" ">
<path fill="none" stroke="#63b8ff" d="M521.19,-466C529.67,-466 538.36,-466 546.78,-466"/>
<polygon fill="#63b8ff" stroke="#63b8ff" points="546.52,-469.5 556.52,-466 546.52,-462.5 546.52,-469.5"/>
</a>
</g>
</g>
<!-- Node12 -->
<g id="Node000012" class="node">
<title>Node12</title>
<g id="a_Node000012"><a xlink:href="log_8c.html#a19c27922f37e1d81bb9370e65be76554" target="_top" xlink:title="Log a message with specified log level.">
<polygon fill="white" stroke="#666666" points="321.75,-476 274.25,-476 274.25,-456 321.75,-456 321.75,-476"/>
<text xml:space="preserve" text-anchor="middle" x="298" y="-462.5" font-family="Helvetica,sans-Serif" font-size="10.00">logMsg</text>
</a>
</g>
</g>
<!-- Node11&#45;&gt;Node12 -->
<g id="edge12_Node000011_Node000012" class="edge">
<title>Node11&#45;&gt;Node12</title>
<g id="a_edge12_Node000011_Node000012"><a xlink:title=" ">
<path fill="none" stroke="#63b8ff" d="M163.53,-466C190.57,-466 232.76,-466 262.45,-466"/>
<polygon fill="#63b8ff" stroke="#63b8ff" points="262.42,-469.5 272.42,-466 262.42,-462.5 262.42,-469.5"/>
</a>
</g>
</g>
<!-- Node14 -->
<g id="Node000014" class="node">
<title>Node14</title>
<g id="a_Node000014"><a xlink:href="heater_8c.html#acb934dc7f2da9fbe2df9efed0f8b9da2" target="_top" xlink:title="Reset heater parameters to default state.">
<polygon fill="white" stroke="#666666" points="346.12,-438 249.88,-438 249.88,-406 346.12,-406 346.12,-438"/>
<text xml:space="preserve" text-anchor="start" x="257.88" y="-424.5" font-family="Helvetica,sans-Serif" font-size="10.00">heater_set_default</text>
<text xml:space="preserve" text-anchor="middle" x="298" y="-412.5" font-family="Helvetica,sans-Serif" font-size="10.00">_params</text>
</a>
</g>
</g>
<!-- Node13&#45;&gt;Node14 -->
<g id="edge14_Node000013_Node000014" class="edge">
<title>Node13&#45;&gt;Node14</title>
<g id="a_edge14_Node000013_Node000014"><a xlink:title=" ">
<path fill="none" stroke="#63b8ff" d="M165.34,-426.94C185.55,-426.18 213.49,-425.13 238.44,-424.2"/>
<polygon fill="#63b8ff" stroke="#63b8ff" points="238.28,-427.71 248.14,-423.83 238.01,-420.71 238.28,-427.71"/>
</a>
</g>
</g>
<!-- Node17 -->
<g id="Node000017" class="node">
<title>Node17</title>
<g id="a_Node000017"><a xlink:href="lcd1602__rgb_8c.html#a8bd959dd5ad9fbb32f319b142ebcce17" target="_top" xlink:title="Create a custom character in CGRAM.">
<polygon fill="white" stroke="#666666" points="518.88,-413 398.62,-413 398.62,-393 518.88,-393 518.88,-413"/>
<text xml:space="preserve" text-anchor="middle" x="458.75" y="-399.5" font-family="Helvetica,sans-Serif" font-size="10.00">lcd1602_customSymbol</text>
</a>
</g>
</g>
<!-- Node16&#45;&gt;Node17 -->
<g id="edge17_Node000016_Node000017" class="edge">
<title>Node16&#45;&gt;Node17</title>
<g id="a_edge17_Node000016_Node000017"><a xlink:title=" ">
<path fill="none" stroke="#63b8ff" d="M317.83,-369.51C338.74,-374.51 373.43,-382.82 403.03,-389.9"/>
<polygon fill="#63b8ff" stroke="#63b8ff" points="402.08,-393.27 412.62,-392.2 403.71,-386.47 402.08,-393.27"/>
</a>
</g>
</g>
<!-- Node18 -->
<g id="Node000018" class="node">
<title>Node18</title>
<g id="a_Node000018"><a xlink:href="lcd1602__rgb_8c.html#a0f2acca4c1aa5a1126b031e719beb4df" target="_top" xlink:title="Send a command byte to the LCD.">
<polygon fill="white" stroke="#666666" points="654.5,-375 556.75,-375 556.75,-355 654.5,-355 654.5,-375"/>
<text xml:space="preserve" text-anchor="middle" x="605.62" y="-361.5" font-family="Helvetica,sans-Serif" font-size="10.00">lcd1602_command</text>
</a>
</g>
</g>
<!-- Node17&#45;&gt;Node18 -->
<g id="edge18_Node000017_Node000018" class="edge">
<title>Node17&#45;&gt;Node18</title>
<g id="a_edge18_Node000017_Node000018"><a xlink:title=" ">
<path fill="none" stroke="#63b8ff" d="M499.72,-392.52C516.43,-388.13 536.04,-382.99 553.75,-378.34"/>
<polygon fill="#63b8ff" stroke="#63b8ff" points="554.54,-381.76 563.32,-375.83 552.76,-374.99 554.54,-381.76"/>
</a>
</g>
</g>
<!-- Node19 -->
<g id="Node000019" class="node">
<title>Node19</title>
<g id="a_Node000019"><a xlink:href="lcd1602__rgb_8c.html#af833ec77ef44dc848f52a09072a777ae" target="_top" xlink:title="Send raw data bytes to the LCD via I2C.">
<polygon fill="white" stroke="#666666" points="771.75,-394 695.75,-394 695.75,-374 771.75,-374 771.75,-394"/>
<text xml:space="preserve" text-anchor="middle" x="733.75" y="-380.5" font-family="Helvetica,sans-Serif" font-size="10.00">lcd1602_send</text>
</a>
</g>
</g>
<!-- Node17&#45;&gt;Node19 -->
<g id="edge20_Node000017_Node000019" class="edge">
<title>Node17&#45;&gt;Node19</title>
<g id="a_edge20_Node000017_Node000019"><a xlink:title=" ">
<path fill="none" stroke="#63b8ff" d="M519.32,-398.85C568.68,-395.42 637.97,-390.6 684.05,-387.39"/>
<polygon fill="#63b8ff" stroke="#63b8ff" points="684.29,-390.88 694.02,-386.7 683.8,-383.9 684.29,-390.88"/>
</a>
</g>
</g>
<!-- Node18&#45;&gt;Node19 -->
<g id="edge19_Node000018_Node000019" class="edge">
<title>Node18&#45;&gt;Node19</title>
<g id="a_edge19_Node000018_Node000019"><a xlink:title=" ">
<path fill="none" stroke="#63b8ff" d="M654.67,-372.24C664.37,-373.7 674.59,-375.24 684.31,-376.7"/>
<polygon fill="#63b8ff" stroke="#63b8ff" points="683.53,-380.12 693.94,-378.15 684.57,-373.2 683.53,-380.12"/>
</a>
</g>
</g>
<!-- Node21 -->
<g id="Node000021" class="node">
<title>Node21</title>
<g id="a_Node000021"><a xlink:href="lcd1602__rgb_8c.html#a971081be754ef4622e54951a306bca10" target="_top" xlink:title="Begin display operation with full initialization sequence.">
<polygon fill="white" stroke="#666666" points="337.12,-299 258.88,-299 258.88,-279 337.12,-279 337.12,-299"/>
<text xml:space="preserve" text-anchor="middle" x="298" y="-285.5" font-family="Helvetica,sans-Serif" font-size="10.00">lcd1602_begin</text>
</a>
</g>
</g>
<!-- Node20&#45;&gt;Node21 -->
<g id="edge22_Node000020_Node000021" class="edge">
<title>Node20&#45;&gt;Node21</title>
<g id="a_edge22_Node000020_Node000021"><a xlink:title=" ">
<path fill="none" stroke="#63b8ff" d="M170.25,-308.82C192.54,-305.33 222.32,-300.68 247.42,-296.75"/>
<polygon fill="#63b8ff" stroke="#63b8ff" points="247.74,-300.25 257.08,-295.24 246.66,-293.33 247.74,-300.25"/>
</a>
</g>
</g>
<!-- Node21&#45;&gt;Node18 -->
<g id="edge25_Node000021_Node000018" class="edge">
<title>Node21&#45;&gt;Node18</title>
<g id="a_edge25_Node000021_Node000018"><a xlink:title=" ">
<path fill="none" stroke="#63b8ff" d="M312.33,-299.36C330.35,-312.74 364.01,-335.53 396.75,-346 445.02,-361.44 502.59,-365.68 544.89,-366.35"/>
<polygon fill="#63b8ff" stroke="#63b8ff" points="544.85,-369.85 554.88,-366.44 544.92,-362.85 544.85,-369.85"/>
</a>
</g>
</g>
<!-- Node22 -->
<g id="Node000022" class="node">
<title>Node22</title>
<g id="a_Node000022"><a xlink:href="lcd1602__rgb_8c.html#af0c1d216ce5b0f77cdb3cbfebb180ac4" target="_top" xlink:title="Clear the display and return cursor to home.">
<polygon fill="white" stroke="#666666" points="496.75,-337 420.75,-337 420.75,-317 496.75,-317 496.75,-337"/>
<text xml:space="preserve" text-anchor="middle" x="458.75" y="-323.5" font-family="Helvetica,sans-Serif" font-size="10.00">lcd1602_clear</text>
</a>
</g>
</g>
<!-- Node21&#45;&gt;Node22 -->
<g id="edge23_Node000021_Node000022" class="edge">
<title>Node21&#45;&gt;Node22</title>
<g id="a_edge23_Node000021_Node000022"><a xlink:title=" ">
<path fill="none" stroke="#63b8ff" d="M337.43,-298.2C359.12,-303.39 386.42,-309.92 409.53,-315.46"/>
<polygon fill="#63b8ff" stroke="#63b8ff" points="408.48,-318.81 419.02,-317.73 410.11,-312 408.48,-318.81"/>
</a>
</g>
</g>
<!-- Node23 -->
<g id="Node000023" class="node">
<title>Node23</title>
<g id="a_Node000023"><a xlink:href="lcd1602__rgb_8c.html#a63497d3efb539cc2db79a2ef8de2f1fa" target="_top" xlink:title="Turn on the display.">
<polygon fill="white" stroke="#666666" points="501.62,-299 415.88,-299 415.88,-279 501.62,-279 501.62,-299"/>
<text xml:space="preserve" text-anchor="middle" x="458.75" y="-285.5" font-family="Helvetica,sans-Serif" font-size="10.00">lcd1602_display</text>
</a>
</g>
</g>
<!-- Node21&#45;&gt;Node23 -->
<g id="edge26_Node000021_Node000023" class="edge">
<title>Node21&#45;&gt;Node23</title>
<g id="a_edge26_Node000021_Node000023"><a xlink:title=" ">
<path fill="none" stroke="#63b8ff" d="M337.43,-289C357.42,-289 382.18,-289 404.03,-289"/>
<polygon fill="#63b8ff" stroke="#63b8ff" points="403.98,-292.5 413.98,-289 403.98,-285.5 403.98,-292.5"/>
</a>
</g>
</g>
<!-- Node24 -->
<g id="Node000024" class="node">
<title>Node24</title>
<g id="a_Node000024"><a xlink:href="lcd1602__rgb_8c.html#accc7208e7b9a4f0cb58891d91fdbf759" target="_top" xlink:title="Set backlight to white (full brightness all colors).">
<polygon fill="white" stroke="#666666" points="517.38,-261 400.12,-261 400.12,-241 517.38,-241 517.38,-261"/>
<text xml:space="preserve" text-anchor="middle" x="458.75" y="-247.5" font-family="Helvetica,sans-Serif" font-size="10.00">lcd1602_setColorWhite</text>
</a>
</g>
</g>
<!-- Node21&#45;&gt;Node24 -->
<g id="edge28_Node000021_Node000024" class="edge">
<title>Node21&#45;&gt;Node24</title>
<g id="a_edge28_Node000021_Node000024"><a xlink:title=" ">
<path fill="none" stroke="#63b8ff" d="M337.43,-279.8C357.12,-275.09 381.44,-269.27 403.05,-264.09"/>
<polygon fill="#63b8ff" stroke="#63b8ff" points="403.69,-267.54 412.6,-261.81 402.06,-260.73 403.69,-267.54"/>
</a>
</g>
</g>
<!-- Node26 -->
<g id="Node000026" class="node">
<title>Node26</title>
<g id="a_Node000026"><a xlink:href="lcd1602__rgb_8c.html#a04d63df3f6caa36888761103435accd8" target="_top" xlink:title="Write a value to an RGB controller register.">
<polygon fill="white" stroke="#666666" points="777,-242 690.5,-242 690.5,-222 777,-222 777,-242"/>
<text xml:space="preserve" text-anchor="middle" x="733.75" y="-228.5" font-family="Helvetica,sans-Serif" font-size="10.00">lcd1602_setReg</text>
</a>
</g>
</g>
<!-- Node21&#45;&gt;Node26 -->
<g id="edge31_Node000021_Node000026" class="edge">
<title>Node21&#45;&gt;Node26</title>
<g id="a_edge31_Node000021_Node000026"><a xlink:title=" ">
<path fill="none" stroke="#63b8ff" d="M311.59,-278.66C329.3,-264.85 363.18,-241.07 396.75,-232 493.5,-205.85 611.73,-214.8 679.03,-223.52"/>
<polygon fill="#63b8ff" stroke="#63b8ff" points="678.3,-226.95 688.68,-224.82 679.24,-220.01 678.3,-226.95"/>
</a>
</g>
</g>
<!-- Node22&#45;&gt;Node18 -->
<g id="edge24_Node000022_Node000018" class="edge">
<title>Node22&#45;&gt;Node18</title>
<g id="a_edge24_Node000022_Node000018"><a xlink:title=" ">
<path fill="none" stroke="#63b8ff" d="M497.06,-336.79C514.29,-341.31 535.02,-346.74 553.66,-351.63"/>
<polygon fill="#63b8ff" stroke="#63b8ff" points="552.62,-354.98 563.19,-354.13 554.4,-348.21 552.62,-354.98"/>
</a>
</g>
</g>
<!-- Node23&#45;&gt;Node18 -->
<g id="edge27_Node000023_Node000018" class="edge">
<title>Node23&#45;&gt;Node18</title>
<g id="a_edge27_Node000023_Node000018"><a xlink:title=" ">
<path fill="none" stroke="#63b8ff" d="M499.46,-299.5C506.69,-301.93 514.06,-304.77 520.75,-308 543.42,-318.93 566.92,-335.43 583.26,-347.87"/>
<polygon fill="#63b8ff" stroke="#63b8ff" points="580.75,-350.35 590.8,-353.72 585.05,-344.82 580.75,-350.35"/>
</a>
</g>
</g>
<!-- Node25 -->
<g id="Node000025" class="node">
<title>Node25</title>
<g id="a_Node000025"><a xlink:href="lcd1602__rgb_8c.html#a194a9c42a39f341ab1f51a61a75ab1f2" target="_top" xlink:title="Set RGB backlight color.">
<polygon fill="white" stroke="#666666" points="650.75,-261 560.5,-261 560.5,-241 650.75,-241 650.75,-261"/>
<text xml:space="preserve" text-anchor="middle" x="605.62" y="-247.5" font-family="Helvetica,sans-Serif" font-size="10.00">lcd1602_setRGB</text>
</a>
</g>
</g>
<!-- Node24&#45;&gt;Node25 -->
<g id="edge29_Node000024_Node000025" class="edge">
<title>Node24&#45;&gt;Node25</title>
<g id="a_edge29_Node000024_Node000025"><a xlink:title=" ">
<path fill="none" stroke="#63b8ff" d="M517.84,-251C528.14,-251 538.83,-251 549.06,-251"/>
<polygon fill="#63b8ff" stroke="#63b8ff" points="548.84,-254.5 558.84,-251 548.84,-247.5 548.84,-254.5"/>
</a>
</g>
</g>
<!-- Node25&#45;&gt;Node26 -->
<g id="edge30_Node000025_Node000026" class="edge">
<title>Node25&#45;&gt;Node26</title>
<g id="a_edge30_Node000025_Node000026"><a xlink:title=" ">
<path fill="none" stroke="#63b8ff" d="M651.09,-244.3C660.17,-242.93 669.81,-241.48 679.16,-240.07"/>
<polygon fill="#63b8ff" stroke="#63b8ff" points="679.51,-243.56 688.88,-238.61 678.47,-236.64 679.51,-243.56"/>
</a>
</g>
</g>
<!-- Node30 -->
<g id="Node000030" class="node">
<title>Node30</title>
<g id="a_Node000030"><a xlink:href="main_8c.html#a1730ffe1e560465665eb47d9264826f9" target="_top" xlink:title="This function is executed in case of error occurrence.">
<polygon fill="white" stroke="#666666" points="336,-115 260,-115 260,-95 336,-95 336,-115"/>
<text xml:space="preserve" text-anchor="middle" x="298" y="-101.5" font-family="Helvetica,sans-Serif" font-size="10.00">Error_Handler</text>
</a>
</g>
</g>
<!-- Node29&#45;&gt;Node30 -->
<g id="edge35_Node000029_Node000030" class="edge">
<title>Node29&#45;&gt;Node30</title>
<g id="a_edge35_Node000029_Node000030"><a xlink:title=" ">
<path fill="none" stroke="#63b8ff" d="M174.46,-190.99C182.85,-188.31 191.54,-185 199.25,-181 229.42,-165.34 259.61,-140.03 278.29,-122.96"/>
<polygon fill="#63b8ff" stroke="#63b8ff" points="280.45,-125.74 285.38,-116.36 275.67,-120.62 280.45,-125.74"/>
</a>
</g>
</g>
<!-- Node31&#45;&gt;Node30 -->
<g id="edge37_Node000031_Node000030" class="edge">
<title>Node31&#45;&gt;Node30</title>
<g id="a_edge37_Node000031_Node000030"><a xlink:title=" ">
<path fill="none" stroke="#63b8ff" d="M172.75,-151.6C181.46,-148.92 190.73,-145.96 199.25,-143 220,-135.8 242.91,-126.95 261.32,-119.6"/>
<polygon fill="#63b8ff" stroke="#63b8ff" points="262.5,-122.9 270.47,-115.92 259.89,-116.41 262.5,-122.9"/>
</a>
</g>
</g>
<!-- Node32&#45;&gt;Node30 -->
<g id="edge39_Node000032_Node000030" class="edge">
<title>Node32&#45;&gt;Node30</title>
<g id="a_edge39_Node000032_Node000030"><a xlink:title=" ">
<path fill="none" stroke="#63b8ff" d="M174.61,-119.55C196.66,-116.92 224.78,-113.58 248.5,-110.76"/>
<polygon fill="#63b8ff" stroke="#63b8ff" points="248.73,-114.26 258.25,-109.61 247.91,-107.31 248.73,-114.26"/>
</a>
</g>
</g>
<!-- Node33&#45;&gt;Node30 -->
<g id="edge41_Node000033_Node000030" class="edge">
<title>Node33&#45;&gt;Node30</title>
<g id="a_edge41_Node000033_Node000030"><a xlink:title=" ">
<path fill="none" stroke="#63b8ff" d="M175.01,-90.5C196.99,-93.12 224.9,-96.43 248.48,-99.23"/>
<polygon fill="#63b8ff" stroke="#63b8ff" points="247.81,-102.68 258.16,-100.38 248.64,-95.73 247.81,-102.68"/>
</a>
</g>
</g>
<!-- Node34&#45;&gt;Node30 -->
<g id="edge43_Node000034_Node000030" class="edge">
<title>Node34&#45;&gt;Node30</title>
<g id="a_edge43_Node000034_Node000030"><a xlink:title=" ">
<path fill="none" stroke="#63b8ff" d="M172.75,-58.4C181.46,-61.08 190.73,-64.04 199.25,-67 220,-74.2 242.91,-83.05 261.32,-90.4"/>
<polygon fill="#63b8ff" stroke="#63b8ff" points="259.89,-93.59 270.47,-94.08 262.5,-87.1 259.89,-93.59"/>
</a>
</g>
</g>
<!-- Node35&#45;&gt;Node30 -->
<g id="edge45_Node000035_Node000030" class="edge">
<title>Node35&#45;&gt;Node30</title>
<g id="a_edge45_Node000035_Node000030"><a xlink:title=" ">
<path fill="none" stroke="#63b8ff" d="M178.73,-20.42C185.76,-22.82 192.84,-25.67 199.25,-29 229.42,-44.66 259.61,-69.97 278.29,-87.04"/>
<polygon fill="#63b8ff" stroke="#63b8ff" points="275.67,-89.38 285.38,-93.64 280.45,-84.26 275.67,-89.38"/>
</a>
</g>
</g>
</g>
</svg>

<g id="navigator" transform="translate(0 0)" fill="#404254">
  <rect fill="#f2f5e9" fill-opacity="0.5" stroke="#606060" stroke-width=".5" x="0" y="0" width="60" height="60"/>
  <use id="zoomplus" xlink:href="#zoomPlus" x="17" y="9" onmousedown="handleZoom(evt,'in')"/>
  <use id="zoomminus" xlink:href="#zoomMin" x="42" y="9" onmousedown="handleZoom(evt,'out')"/>
  <use id="reset" xlink:href="#resetDef" x="30" y="36" onmousedown="handleReset()"/>
   <use id="arrowup" xlink:href="#arrowUp" x="0" y="0" onmousedown="handlePan(0,-1)"/>
  <use id="arrowright" xlink:href="#arrowRight" x="0" y="0" onmousedown="handlePan(1,0)"/>
  <use id="arrowdown" xlink:href="#arrowDown" x="0" y="0" onmousedown="handlePan(0,1)"/>
  <use id="arrowleft" xlink:href="#arrowLeft" x="0" y="0" onmousedown="handlePan(-1,0)"/>
</g>
<svg viewBox="0 0 15 15" width="100%" height="30px" preserveAspectRatio="xMaxYMin meet">
 <g id="arrow_out" transform="scale(0.3 0.3)">
  <a xlink:href="main_8c_a840291bc02cba5474a4cb46a9b9566fe_cgraph_org.svg" target="_base">
   <rect id="button" ry="5" rx="5" y="6" x="6" height="38" width="38"
        fill="#f2f5e9" fill-opacity="0.5" stroke="#606060" stroke-width="1.0"/>
   <path id="arrow"
     d="M 11.500037,31.436501 C 11.940474,20.09759 22.043105,11.32322 32.158766,21.979434 L 37.068811,17.246167 C 37.068811,17.246167 37.088388,32 37.088388,32 L 22.160133,31.978069 C 22.160133,31.978069 26.997745,27.140456 26.997745,27.140456 C 18.528582,18.264221 13.291696,25.230495 11.500037,31.436501 z"
     style="fill:#404040;"/>
  </a>
 </g>
</svg>

<style type='text/css'>
<![CDATA[
[data-mouse-over-selected='false'] { opacity: 0.7; }
[data-mouse-over-selected='true']  { opacity: 1.0; }
]]>
</style>
<script type="application/ecmascript"><![CDATA[
document.addEventListener('DOMContentLoaded', (event) => {
  highlightEdges();
  highlightAdjacentNodes();
});
]]></script>
</svg>
