<?xml version="1.0" encoding="UTF-8" standalone="no"?>
<!DOCTYPE svg PUBLIC "-//W3C//DTD SVG 1.1//EN"
 "http://www.w3.org/Graphics/SVG/1.1/DTD/svg11.dtd">
<!-- Generated by graphviz version 14.1.2 (0)
 -->
<!-- Title: HAL_RTC_AlarmAEventCallback Pages: 1 -->
<svg width="652pt" height="218pt"
 viewBox="0.00 0.00 652.00 218.00" xmlns="http://www.w3.org/2000/svg" xmlns:xlink="http://www.w3.org/1999/xlink">
<g id="graph0" class="graph" transform="scale(1 1) rotate(0) translate(4 214)">
<title>HAL_RTC_AlarmAEventCallback</title>
<!-- Node1 -->
<g id="Node000001" class="node">
<title>Node1</title>
<g id="a_Node000001"><a xlink:title=" ">
<polygon fill="#999999" stroke="#666666" points="162.25,-115 0,-115 0,-95 162.25,-95 162.25,-115"/>
<text xml:space="preserve" text-anchor="middle" x="81.12" y="-101.5" font-family="Helvetica,sans-Serif" font-size="10.00">HAL_RTC_AlarmAEventCallback</text>
</a>
</g>
</g>
<!-- Node2 -->
<g id="Node000002" class="node">
<title>Node2</title>
<g id="a_Node000002"><a xlink:href="heater_8c.html#ac2883f1108f7c28edb2c028a9e0f2639" target="_top" xlink:title="RTC interrupt handler for temperature sampling and PID calculation.">
<polygon fill="white" stroke="#666666" points="294.5,-115 198.25,-115 198.25,-95 294.5,-95 294.5,-115"/>
<text xml:space="preserve" text-anchor="middle" x="246.38" y="-101.5" font-family="Helvetica,sans-Serif" font-size="10.00">heater_on_interupt</text>
</a>
</g>
</g>
<!-- Node1&#45;&gt;Node2 -->
<g id="edge1_Node000001_Node000002" class="edge">
<title>Node1&#45;&gt;Node2</title>
<g id="a_edge1_Node000001_Node000002"><a xlink:title=" ">
<path fill="none" stroke="#63b8ff" d="M162.32,-105C170.55,-105 178.8,-105 186.74,-105"/>
<polygon fill="#63b8ff" stroke="#63b8ff" points="186.59,-108.5 196.59,-105 186.59,-101.5 186.59,-108.5"/>
</a>
</g>
</g>
<!-- Node3 -->
<g id="Node000003" class="node">
<title>Node3</title>
<g id="a_Node000003"><a xlink:href="heater_8c.html#a5e2e3fa0e798944d57a5bcc38822e5a9" target="_top" xlink:title="Calculate mean temperature from sample buffer.">
<polygon fill="white" stroke="#666666" points="460.12,-210 343.62,-210 343.62,-190 460.12,-190 460.12,-210"/>
<text xml:space="preserve" text-anchor="middle" x="401.88" y="-196.5" font-family="Helvetica,sans-Serif" font-size="10.00">heater_calculate_mean</text>
</a>
</g>
</g>
<!-- Node2&#45;&gt;Node3 -->
<g id="edge2_Node000002_Node000003" class="edge">
<title>Node2&#45;&gt;Node3</title>
<g id="a_edge2_Node000002_Node000003"><a xlink:title=" ">
<path fill="none" stroke="#63b8ff" d="M255.69,-115.28C269.5,-131.65 298.79,-163.59 330.5,-181 333.51,-182.65 336.67,-184.17 339.92,-185.56"/>
<polygon fill="#63b8ff" stroke="#63b8ff" points="338.5,-188.76 349.09,-189.04 340.98,-182.22 338.5,-188.76"/>
</a>
</g>
</g>
<!-- Node4 -->
<g id="Node000004" class="node">
<title>Node4</title>
<g id="a_Node000004"><a xlink:href="heater_8c.html#aafa171e3ee132132560f2a851bb2ba7e" target="_top" xlink:title="Calculate temperature slope using linear regression.">
<polygon fill="white" stroke="#666666" points="459.75,-172 344,-172 344,-152 459.75,-152 459.75,-172"/>
<text xml:space="preserve" text-anchor="middle" x="401.88" y="-158.5" font-family="Helvetica,sans-Serif" font-size="10.00">heater_calculate_slope</text>
</a>
</g>
</g>
<!-- Node2&#45;&gt;Node4 -->
<g id="edge3_Node000002_Node000004" class="edge">
<title>Node2&#45;&gt;Node4</title>
<g id="a_edge3_Node000002_Node000004"><a xlink:title=" ">
<path fill="none" stroke="#63b8ff" d="M267.82,-115.5C284.41,-123.73 308.56,-135.08 330.5,-143 335.8,-144.91 341.38,-146.73 346.98,-148.43"/>
<polygon fill="#63b8ff" stroke="#63b8ff" points="345.69,-151.7 356.27,-151.14 347.65,-144.98 345.69,-151.7"/>
</a>
</g>
</g>
<!-- Node5 -->
<g id="Node000005" class="node">
<title>Node5</title>
<g id="a_Node000005"><a xlink:href="heater_8c.html#a3ebedbe9a7aef79d70fb5e26f0b10abd" target="_top" xlink:title="Print temperature reading with RTC timestamp.">
<polygon fill="white" stroke="#666666" points="446.25,-134 357.5,-134 357.5,-114 446.25,-114 446.25,-134"/>
<text xml:space="preserve" text-anchor="middle" x="401.88" y="-120.5" font-family="Helvetica,sans-Serif" font-size="10.00">heater_print_test</text>
</a>
</g>
</g>
<!-- Node2&#45;&gt;Node5 -->
<g id="edge4_Node000002_Node000005" class="edge">
<title>Node2&#45;&gt;Node5</title>
<g id="a_edge4_Node000002_Node000005"><a xlink:title=" ">
<path fill="none" stroke="#63b8ff" d="M294.68,-110.86C310.86,-112.86 329.09,-115.11 345.82,-117.19"/>
<polygon fill="#63b8ff" stroke="#63b8ff" points="345.27,-120.64 355.62,-118.4 346.13,-113.7 345.27,-120.64"/>
</a>
</g>
</g>
<!-- Node6 -->
<g id="Node000006" class="node">
<title>Node6</title>
<g id="a_Node000006"><a xlink:href="heater_8c.html#a6d9ebb2503909ecffc49e9097c9a61a0" target="_top" xlink:title="Clear temperature sample buffer.">
<polygon fill="white" stroke="#666666" points="473.25,-96 330.5,-96 330.5,-76 473.25,-76 473.25,-96"/>
<text xml:space="preserve" text-anchor="middle" x="401.88" y="-82.5" font-family="Helvetica,sans-Serif" font-size="10.00">heater_set_temperature_zero</text>
</a>
</g>
</g>
<!-- Node2&#45;&gt;Node6 -->
<g id="edge5_Node000002_Node000006" class="edge">
<title>Node2&#45;&gt;Node6</title>
<g id="a_edge5_Node000002_Node000006"><a xlink:title=" ">
<path fill="none" stroke="#63b8ff" d="M294.68,-99.14C302.37,-98.19 310.53,-97.18 318.77,-96.16"/>
<polygon fill="#63b8ff" stroke="#63b8ff" points="319.02,-99.66 328.52,-94.96 318.16,-92.71 319.02,-99.66"/>
</a>
</g>
</g>
<!-- Node7 -->
<g id="Node000007" class="node">
<title>Node7</title>
<g id="a_Node000007"><a xlink:href="MAX31855_8c.html#a4a6509f271e451fd9f7dcf2f11755108" target="_top" xlink:title="Get thermocouple temperature as float32.">
<polygon fill="white" stroke="#666666" points="464.62,-58 339.12,-58 339.12,-38 464.62,-38 464.62,-58"/>
<text xml:space="preserve" text-anchor="middle" x="401.88" y="-44.5" font-family="Helvetica,sans-Serif" font-size="10.00">max31855_get_temp_f32</text>
</a>
</g>
</g>
<!-- Node2&#45;&gt;Node7 -->
<g id="edge6_Node000002_Node000007" class="edge">
<title>Node2&#45;&gt;Node7</title>
<g id="a_edge6_Node000002_Node000007"><a xlink:title=" ">
<path fill="none" stroke="#63b8ff" d="M267.82,-94.5C284.41,-86.27 308.56,-74.92 330.5,-67 335.8,-65.09 341.38,-63.27 346.98,-61.57"/>
<polygon fill="#63b8ff" stroke="#63b8ff" points="347.65,-65.02 356.27,-58.86 345.69,-58.3 347.65,-65.02"/>
</a>
</g>
</g>
<!-- Node10 -->
<g id="Node000010" class="node">
<title>Node10</title>
<g id="a_Node000010"><a xlink:href="MAX31855_8c.html#a6cd53d20c2e59cce375ec338cd52f6ad" target="_top" xlink:title="Read data from MAX31855 via SPI.">
<polygon fill="white" stroke="#666666" points="456.38,-20 347.38,-20 347.38,0 456.38,0 456.38,-20"/>
<text xml:space="preserve" text-anchor="middle" x="401.88" y="-6.5" font-family="Helvetica,sans-Serif" font-size="10.00">max31855_read_data</text>
</a>
</g>
</g>
<!-- Node2&#45;&gt;Node10 -->
<g id="edge9_Node000002_Node000010" class="edge">
<title>Node2&#45;&gt;Node10</title>
<g id="a_edge9_Node000002_Node000010"><a xlink:title=" ">
<path fill="none" stroke="#63b8ff" d="M255.69,-94.72C269.5,-78.35 298.79,-46.41 330.5,-29 333.51,-27.35 336.67,-25.83 339.92,-24.44"/>
<polygon fill="#63b8ff" stroke="#63b8ff" points="340.98,-27.78 349.09,-20.96 338.5,-21.24 340.98,-27.78"/>
</a>
</g>
</g>
<!-- Node8 -->
<g id="Node000008" class="node">
<title>Node8</title>
<g id="a_Node000008"><a xlink:href="MAX31855_8c.html#a49efeafd115179b8de90f96c540b7a94" target="_top" xlink:title="Get thermocouple temperature sign.">
<polygon fill="white" stroke="#666666" points="641.5,-96 511.5,-96 511.5,-76 641.5,-76 641.5,-96"/>
<text xml:space="preserve" text-anchor="middle" x="576.5" y="-82.5" font-family="Helvetica,sans-Serif" font-size="10.00">max31855_get_temp_sign</text>
</a>
</g>
</g>
<!-- Node7&#45;&gt;Node8 -->
<g id="edge7_Node000007_Node000008" class="edge">
<title>Node7&#45;&gt;Node8</title>
<g id="a_edge7_Node000007_Node000008"><a xlink:title=" ">
<path fill="none" stroke="#63b8ff" d="M450.5,-58.48C471.07,-63.01 495.33,-68.35 516.98,-73.12"/>
<polygon fill="#63b8ff" stroke="#63b8ff" points="516.03,-76.49 526.55,-75.22 517.54,-69.66 516.03,-76.49"/>
</a>
</g>
</g>
<!-- Node9 -->
<g id="Node000009" class="node">
<title>Node9</title>
<g id="a_Node000009"><a xlink:href="MAX31855_8c.html#a48789df725799c99959eccdc8f9012a3" target="_top" xlink:title="Get thermocouple temperature integer value.">
<polygon fill="white" stroke="#666666" points="638.88,-58 514.12,-58 514.12,-38 638.88,-38 638.88,-58"/>
<text xml:space="preserve" text-anchor="middle" x="576.5" y="-44.5" font-family="Helvetica,sans-Serif" font-size="10.00">max31855_get_temp_val</text>
</a>
</g>
</g>
<!-- Node7&#45;&gt;Node9 -->
<g id="edge8_Node000007_Node000009" class="edge">
<title>Node7&#45;&gt;Node9</title>
<g id="a_edge8_Node000007_Node000009"><a xlink:title=" ">
<path fill="none" stroke="#63b8ff" d="M464.71,-48C476.93,-48 489.87,-48 502.42,-48"/>
<polygon fill="#63b8ff" stroke="#63b8ff" points="502.29,-51.5 512.29,-48 502.29,-44.5 502.29,-51.5"/>
</a>
</g>
</g>
<!-- Node11 -->
<g id="Node000011" class="node">
<title>Node11</title>
<g id="a_Node000011"><a xlink:href="MAX31855_8c.html#aae5583f844a0b1863d8a3777ba0f22aa" target="_top" xlink:title="Parse raw SPI data into payload structure fields.">
<polygon fill="white" stroke="#666666" points="643.75,-20 509.25,-20 509.25,0 643.75,0 643.75,-20"/>
<text xml:space="preserve" text-anchor="middle" x="576.5" y="-6.5" font-family="Helvetica,sans-Serif" font-size="10.00">max31855_update_payload</text>
</a>
</g>
</g>
<!-- Node10&#45;&gt;Node11 -->
<g id="edge10_Node000010_Node000011" class="edge">
<title>Node10&#45;&gt;Node11</title>
<g id="a_edge10_Node000010_Node000011"><a xlink:title=" ">
<path fill="none" stroke="#63b8ff" d="M456.55,-10C469.46,-10 483.52,-10 497.3,-10"/>
<polygon fill="#63b8ff" stroke="#63b8ff" points="497.26,-13.5 507.26,-10 497.26,-6.5 497.26,-13.5"/>
</a>
</g>
</g>
</g>
</svg>
