<?xml version="1.0" encoding="UTF-8" standalone="no"?>
<!DOCTYPE svg PUBLIC "-//W3C//DTD SVG 1.1//EN"
 "http://www.w3.org/Graphics/SVG/1.1/DTD/svg11.dtd">
<!-- Generated by graphviz version 14.1.2 (0)
 -->
<!-- Title: Core/Src/main.c Pages: 1 -->
<!--zoomable 308 -->

<svg id="main" version="1.1" xmlns="http://www.w3.org/2000/svg" xmlns:xlink="http://www.w3.org/1999/xlink" xml:space="preserve" onload="init(evt)">

<style type="text/css"><![CDATA[
.node, .edge {opacity: 0.7;}
.node.selected, .edge.selected {opacity: 1;}
.edge:hover path { stroke: red; }
.edge:hover polygon { stroke: red; fill: red; }
]]></style>

<defs>
  <circle id="rim" cx="0" cy="0" r="7"/>
  <circle id="rim2" cx="0" cy="0" r="3.5"/>
  <g id="zoomPlus">
    <use xlink:href="#rim" fill="#404040"><set attributeName="fill" to="#808080" begin="zoomplus.mouseover" end="zoomplus.mouseout"/></use>
    <path d="M-4,0h8M0,-4v8" fill="none" stroke="white" stroke-width="1.5" pointer-events="none"/>
  </g>
  <g id="zoomMin">
    <use xlink:href="#rim" fill="#404040"><set attributeName="fill" to="#808080" begin="zoomminus.mouseover" end="zoomminus.mouseout"/></use>
    <path d="M-4,0h8" fill="none" stroke="white" stroke-width="1.5" pointer-events="none"/>
  </g>
  <g id="arrowUp" transform="translate(30 24)">
    <use xlink:href="#rim"/>
    <path pointer-events="none" fill="none" stroke="white" stroke-width="1.5" d="M0,-3.0v7 M-2.5,-0.5L0,-3.0L2.5,-0.5"/>
  </g>
  <g id="arrowRight" transform="rotate(90) translate(36 -43)">
    <use xlink:href="#rim"/>
    <path pointer-events="none" fill="none" stroke="white" stroke-width="1.5" d="M0,-3.0v7 M-2.5,-0.5L0,-3.0L2.5,-0.5"/>
  </g>
  <g id="arrowDown" transform="rotate(180) translate(-30 -48)">
    <use xlink:href="#rim"/>
    <path pointer-events="none" fill="none" stroke="white" stroke-width="1.5" d="M0,-3.0v7 M-2.5,-0.5L0,-3.0L2.5,-0.5"/>
  </g>
  <g id="arrowLeft" transform="rotate(270) translate(-36 17)">
    <use xlink:href="#rim"/>
    <path pointer-events="none" fill="none" stroke="white" stroke-width="1.5" d="M0,-3.0v7 M-2.5,-0.5L0,-3.0L2.5,-0.5"/>
  </g>
  <g id="resetDef">
    <use xlink:href="#rim2" fill="#404040"><set attributeName="fill" to="#808080" begin="reset.mouseover" end="reset.mouseout"/></use>
  </g>
</defs>
<script type="application/ecmascript">
var viewWidth = 921;
var viewHeight = 308;
var sectionId = 'dynsection-0';
</script>
<script type="application/ecmascript" xlink:href="svg.min.js"/>
<svg id="graph" class="graph">
<g id="viewport">
<title>Core/Src/main.c</title>
<!-- Node1 -->
<g id="Node000001" class="node">
<title>Node1</title>
<g id="a_Node000001"><a xlink:title=": Main program body">
<polygon fill="#999999" stroke="#666666" points="578.12,-300 490.88,-300 490.88,-280 578.12,-280 578.12,-300"/>
<text xml:space="preserve" text-anchor="middle" x="534.5" y="-286.5" font-family="Helvetica,sans-Serif" font-size="10.00">Core/Src/main.c</text>
</a>
</g>
</g>
<!-- Node2 -->
<g id="Node000002" class="node">
<title>Node2</title>
<g id="a_Node000002"><a xlink:href="main_8h.html" target="_top" xlink:title=": Header for main.c file. This file contains the common defines of the application.">
<polygon fill="white" stroke="#666666" points="424.12,-76 378.88,-76 378.88,-56 424.12,-56 424.12,-76"/>
<text xml:space="preserve" text-anchor="middle" x="401.5" y="-62.5" font-family="Helvetica,sans-Serif" font-size="10.00">main.h</text>
</a>
</g>
</g>
<!-- Node1&#45;&gt;Node2 -->
<g id="edge1_Node000001_Node000002" class="edge">
<title>Node1&#45;&gt;Node2</title>
<g id="a_edge1_Node000001_Node000002"><a xlink:title=" ">
<path fill="none" stroke="#63b8ff" d="M525.32,-279.62C503.26,-256.56 446.95,-194.41 417.5,-132 410.81,-117.82 406.73,-100.54 404.36,-87.36"/>
<polygon fill="#63b8ff" stroke="#63b8ff" points="407.86,-87.04 402.83,-77.71 400.94,-88.14 407.86,-87.04"/>
</a>
</g>
</g>
<!-- Node4 -->
<g id="Node000004" class="node">
<title>Node4</title>
<g id="a_Node000004"><a xlink:title=" ">
<polygon fill="#e0e0e0" stroke="#999999" points="563.12,-76 517.88,-76 517.88,-56 563.12,-56 563.12,-76"/>
<text xml:space="preserve" text-anchor="middle" x="540.5" y="-62.5" font-family="Helvetica,sans-Serif" font-size="10.00">stdio.h</text>
</a>
</g>
</g>
<!-- Node1&#45;&gt;Node4 -->
<g id="edge3_Node000001_Node000004" class="edge">
<title>Node1&#45;&gt;Node4</title>
<g id="a_edge3_Node000001_Node000004"><a xlink:title=" ">
<path fill="none" stroke="#63b8ff" d="M534.75,-279.74C535.64,-246.74 538.68,-134.31 539.94,-87.61"/>
<polygon fill="#63b8ff" stroke="#63b8ff" points="543.44,-87.9 540.21,-77.81 536.44,-87.71 543.44,-87.9"/>
</a>
</g>
</g>
<!-- Node5 -->
<g id="Node000005" class="node">
<title>Node5</title>
<g id="a_Node000005"><a xlink:href="log_8h.html" target="_top" xlink:title="Logging module with configurable log levels and UART output.">
<polygon fill="white" stroke="#666666" points="756,-76 719,-76 719,-56 756,-56 756,-76"/>
<text xml:space="preserve" text-anchor="middle" x="737.5" y="-62.5" font-family="Helvetica,sans-Serif" font-size="10.00">log.h</text>
</a>
</g>
</g>
<!-- Node1&#45;&gt;Node5 -->
<g id="edge4_Node000001_Node000005" class="edge">
<title>Node1&#45;&gt;Node5</title>
<g id="a_edge4_Node000001_Node000005"><a xlink:title=" ">
<path fill="none" stroke="#63b8ff" d="M578.32,-285.23C657.46,-275.72 821.83,-242.88 884.5,-132 910.44,-86.1 818.03,-72.55 767.83,-68.6"/>
<polygon fill="#63b8ff" stroke="#63b8ff" points="768.09,-65.11 757.87,-67.91 767.61,-72.09 768.09,-65.11"/>
</a>
</g>
</g>
<!-- Node6 -->
<g id="Node000006" class="node">
<title>Node6</title>
<g id="a_Node000006"><a xlink:href="MAX31855_8h.html" target="_top" xlink:title="MAX31855 thermocouple&#45;to&#45;digital converter driver.">
<polygon fill="white" stroke="#666666" points="127.62,-132 55.38,-132 55.38,-112 127.62,-112 127.62,-132"/>
<text xml:space="preserve" text-anchor="middle" x="91.5" y="-118.5" font-family="Helvetica,sans-Serif" font-size="10.00">MAX31855.h</text>
</a>
</g>
</g>
<!-- Node1&#45;&gt;Node6 -->
<g id="edge6_Node000001_Node000006" class="edge">
<title>Node1&#45;&gt;Node6</title>
<g id="a_edge6_Node000001_Node000006"><a xlink:title=" ">
<path fill="none" stroke="#63b8ff" d="M490.48,-283.41C446.51,-276.98 377.45,-264.58 320.5,-244 241.53,-215.47 155.91,-164.18 115.37,-138.51"/>
<polygon fill="#63b8ff" stroke="#63b8ff" points="117.43,-135.67 107.12,-133.24 113.66,-141.57 117.43,-135.67"/>
</a>
</g>
</g>
<!-- Node8 -->
<g id="Node000008" class="node">
<title>Node8</title>
<g id="a_Node000008"><a xlink:href="heater_8h.html" target="_top" xlink:title="Heater control module for kiln heating coils.">
<polygon fill="white" stroke="#666666" points="313.12,-188 261.88,-188 261.88,-168 313.12,-168 313.12,-188"/>
<text xml:space="preserve" text-anchor="middle" x="287.5" y="-174.5" font-family="Helvetica,sans-Serif" font-size="10.00">heater.h</text>
</a>
</g>
</g>
<!-- Node1&#45;&gt;Node8 -->
<g id="edge11_Node000001_Node000008" class="edge">
<title>Node1&#45;&gt;Node8</title>
<g id="a_edge11_Node000001_Node000008"><a xlink:title=" ">
<path fill="none" stroke="#63b8ff" d="M490.41,-285.34C451.2,-280.5 393.44,-269.38 349.5,-244 329.31,-232.34 311.56,-212.13 300.28,-197.33"/>
<polygon fill="#63b8ff" stroke="#63b8ff" points="303.17,-195.36 294.45,-189.35 297.52,-199.49 303.17,-195.36"/>
</a>
</g>
</g>
<!-- Node9 -->
<g id="Node000009" class="node">
<title>Node9</title>
<g id="a_Node000009"><a xlink:href="lcd1602__rgb_8h.html" target="_top" xlink:title="LCD1602 RGB display driver with I2C interface.">
<polygon fill="white" stroke="#666666" points="695.88,-132 619.12,-132 619.12,-112 695.88,-112 695.88,-132"/>
<text xml:space="preserve" text-anchor="middle" x="657.5" y="-118.5" font-family="Helvetica,sans-Serif" font-size="10.00">lcd1602_rgb.h</text>
</a>
</g>
</g>
<!-- Node1&#45;&gt;Node9 -->
<g id="edge18_Node000001_Node000009" class="edge">
<title>Node1&#45;&gt;Node9</title>
<g id="a_edge18_Node000001_Node000009"><a xlink:title=" ">
<path fill="none" stroke="#63b8ff" d="M578.53,-283.15C603.18,-277.45 632.17,-266.19 648.5,-244 670.18,-214.55 666.59,-169.4 662.04,-143.39"/>
<polygon fill="#63b8ff" stroke="#63b8ff" points="665.52,-142.91 660.13,-133.79 658.65,-144.28 665.52,-142.91"/>
</a>
</g>
</g>
<!-- Node11 -->
<g id="Node000011" class="node">
<title>Node11</title>
<g id="a_Node000011"><a xlink:href="encoder_8h.html" target="_top" xlink:title="Rotary encoder driver with interrupt&#45;based rotation detection.">
<polygon fill="white" stroke="#666666" points="639.88,-244 581.12,-244 581.12,-224 639.88,-224 639.88,-244"/>
<text xml:space="preserve" text-anchor="middle" x="610.5" y="-230.5" font-family="Helvetica,sans-Serif" font-size="10.00">encoder.h</text>
</a>
</g>
</g>
<!-- Node1&#45;&gt;Node11 -->
<g id="edge24_Node000001_Node000011" class="edge">
<title>Node1&#45;&gt;Node11</title>
<g id="a_edge24_Node000001_Node000011"><a xlink:title=" ">
<path fill="none" stroke="#63b8ff" d="M547.74,-279.59C558.79,-271.74 574.78,-260.38 587.86,-251.09"/>
<polygon fill="#63b8ff" stroke="#63b8ff" points="589.8,-254 595.92,-245.36 585.75,-248.3 589.8,-254"/>
</a>
</g>
</g>
<!-- Node12 -->
<g id="Node000012" class="node">
<title>Node12</title>
<g id="a_Node000012"><a xlink:href="ui_8h.html" target="_top" xlink:title="User interface module for menu&#45;driven LCD control.">
<polygon fill="white" stroke="#666666" points="591.38,-188 559.62,-188 559.62,-168 591.38,-168 591.38,-188"/>
<text xml:space="preserve" text-anchor="middle" x="575.5" y="-174.5" font-family="Helvetica,sans-Serif" font-size="10.00">ui.h</text>
</a>
</g>
</g>
<!-- Node1&#45;&gt;Node12 -->
<g id="edge41_Node000001_Node000012" class="edge">
<title>Node1&#45;&gt;Node12</title>
<g id="a_edge41_Node000001_Node000012"><a xlink:title=" ">
<path fill="none" stroke="#63b8ff" d="M538,-279.62C544.62,-261.84 559.14,-222.88 568.05,-199"/>
<polygon fill="#63b8ff" stroke="#63b8ff" points="571.27,-200.37 571.48,-189.77 564.71,-197.92 571.27,-200.37"/>
</a>
</g>
</g>
<!-- Node13 -->
<g id="Node000013" class="node">
<title>Node13</title>
<g id="a_Node000013"><a xlink:href="event_8h.html" target="_top" xlink:title="Event queue module for decoupling interrupt handlers from UI processing.">
<polygon fill="white" stroke="#666666" points="875.62,-132 827.38,-132 827.38,-112 875.62,-112 875.62,-132"/>
<text xml:space="preserve" text-anchor="middle" x="851.5" y="-118.5" font-family="Helvetica,sans-Serif" font-size="10.00">event.h</text>
</a>
</g>
</g>
<!-- Node1&#45;&gt;Node13 -->
<g id="edge42_Node000001_Node000013" class="edge">
<title>Node1&#45;&gt;Node13</title>
<g id="a_edge42_Node000001_Node000013"><a xlink:title=" ">
<path fill="none" stroke="#63b8ff" d="M570.48,-279.54C597.82,-271.71 635.95,-259.39 667.5,-244 730.67,-213.17 798.01,-164.22 830.95,-139.07"/>
<polygon fill="#63b8ff" stroke="#63b8ff" points="832.67,-142.16 838.46,-133.28 828.4,-136.61 832.67,-142.16"/>
</a>
</g>
</g>
<!-- Node15 -->
<g id="Node000015" class="node">
<title>Node15</title>
<g id="a_Node000015"><a xlink:href="pid_8h.html" target="_top" xlink:title="PID controller module for temperature control.">
<polygon fill="white" stroke="#666666" points="37,-132 0,-132 0,-112 37,-112 37,-132"/>
<text xml:space="preserve" text-anchor="middle" x="18.5" y="-118.5" font-family="Helvetica,sans-Serif" font-size="10.00">pid.h</text>
</a>
</g>
</g>
<!-- Node1&#45;&gt;Node15 -->
<g id="edge43_Node000001_Node000015" class="edge">
<title>Node1&#45;&gt;Node15</title>
<g id="a_edge43_Node000001_Node000015"><a xlink:title=" ">
<path fill="none" stroke="#63b8ff" d="M490.46,-285.34C437.14,-280.04 345.08,-268.1 269.5,-244 182.85,-216.37 88.1,-164.07 43.88,-138.23"/>
<polygon fill="#63b8ff" stroke="#63b8ff" points="45.7,-135.24 35.31,-133.17 42.15,-141.27 45.7,-135.24"/>
</a>
</g>
</g>
<!-- Node3 -->
<g id="Node000003" class="node">
<title>Node3</title>
<g id="a_Node000003"><a xlink:title=" ">
<polygon fill="#e0e0e0" stroke="#999999" points="521.5,-20 433.5,-20 433.5,0 521.5,0 521.5,-20"/>
<text xml:space="preserve" text-anchor="middle" x="477.5" y="-6.5" font-family="Helvetica,sans-Serif" font-size="10.00">stm32f0xx_hal.h</text>
</a>
</g>
</g>
<!-- Node2&#45;&gt;Node3 -->
<g id="edge2_Node000002_Node000003" class="edge">
<title>Node2&#45;&gt;Node3</title>
<g id="a_edge2_Node000002_Node000003"><a xlink:title=" ">
<path fill="none" stroke="#63b8ff" d="M414.74,-55.59C425.79,-47.74 441.78,-36.38 454.86,-27.09"/>
<polygon fill="#63b8ff" stroke="#63b8ff" points="456.8,-30 462.92,-21.36 452.75,-24.3 456.8,-30"/>
</a>
</g>
</g>
<!-- Node5&#45;&gt;Node3 -->
<g id="edge5_Node000005_Node000003" class="edge">
<title>Node5&#45;&gt;Node3</title>
<g id="a_edge5_Node000005_Node000003"><a xlink:title=" ">
<path fill="none" stroke="#63b8ff" d="M718.8,-61.12C680.41,-53.14 591.38,-34.65 532.86,-22.5"/>
<polygon fill="#63b8ff" stroke="#63b8ff" points="533.94,-19.15 523.43,-20.54 532.51,-26 533.94,-19.15"/>
</a>
</g>
</g>
<!-- Node6&#45;&gt;Node2 -->
<g id="edge8_Node000006_Node000002" class="edge">
<title>Node6&#45;&gt;Node2</title>
<g id="a_edge8_Node000006_Node000002"><a xlink:title=" ">
<path fill="none" stroke="#63b8ff" d="M127.97,-114.65C188.47,-104.11 308.7,-83.16 367.51,-72.92"/>
<polygon fill="#63b8ff" stroke="#63b8ff" points="368.01,-76.39 377.26,-71.22 366.81,-69.49 368.01,-76.39"/>
</a>
</g>
</g>
<!-- Node6&#45;&gt;Node3 -->
<g id="edge7_Node000006_Node000003" class="edge">
<title>Node6&#45;&gt;Node3</title>
<g id="a_edge7_Node000006_Node000003"><a xlink:title=" ">
<path fill="none" stroke="#63b8ff" d="M93.49,-111.64C97.12,-97.11 106.27,-69.39 125.5,-56 172.21,-23.49 334.84,-14.47 421.74,-11.96"/>
<polygon fill="#63b8ff" stroke="#63b8ff" points="421.81,-15.46 431.71,-11.7 421.63,-8.46 421.81,-15.46"/>
</a>
</g>
</g>
<!-- Node6&#45;&gt;Node6 -->
<g id="edge10_Node000006_Node000006" class="edge">
<title>Node6&#45;&gt;Node6</title>
<g id="a_edge10_Node000006_Node000006"><a xlink:title=" ">
<path fill="none" stroke="#63b8ff" d="M127.93,-132.44C137.96,-131.93 145.62,-128.45 145.62,-122 145.62,-118.27 143.06,-115.53 138.96,-113.79"/>
<polygon fill="#63b8ff" stroke="#63b8ff" points="139.9,-110.41 129.41,-111.86 138.52,-117.27 139.9,-110.41"/>
</a>
</g>
</g>
<!-- Node7 -->
<g id="Node000007" class="node">
<title>Node7</title>
<g id="a_Node000007"><a xlink:title=" ">
<polygon fill="#e0e0e0" stroke="#999999" points="202.38,-76 134.62,-76 134.62,-56 202.38,-56 202.38,-76"/>
<text xml:space="preserve" text-anchor="middle" x="168.5" y="-62.5" font-family="Helvetica,sans-Serif" font-size="10.00">arm_math.h</text>
</a>
</g>
</g>
<!-- Node6&#45;&gt;Node7 -->
<g id="edge9_Node000006_Node000007" class="edge">
<title>Node6&#45;&gt;Node7</title>
<g id="a_edge9_Node000006_Node000007"><a xlink:title=" ">
<path fill="none" stroke="#63b8ff" d="M104.91,-111.59C116.11,-103.74 132.31,-92.38 145.56,-83.09"/>
<polygon fill="#63b8ff" stroke="#63b8ff" points="147.57,-85.96 153.74,-77.35 143.55,-80.22 147.57,-85.96"/>
</a>
</g>
</g>
<!-- Node8&#45;&gt;Node2 -->
<g id="edge13_Node000008_Node000002" class="edge">
<title>Node8&#45;&gt;Node2</title>
<g id="a_edge13_Node000008_Node000002"><a xlink:title=" ">
<path fill="none" stroke="#63b8ff" d="M288.7,-167.93C290.92,-154.28 296.89,-128.31 311.5,-112 326.43,-95.33 348.97,-84.07 367.75,-76.99"/>
<polygon fill="#63b8ff" stroke="#63b8ff" points="368.86,-80.3 377.14,-73.7 366.55,-73.7 368.86,-80.3"/>
</a>
</g>
</g>
<!-- Node8&#45;&gt;Node3 -->
<g id="edge15_Node000008_Node000003" class="edge">
<title>Node8&#45;&gt;Node3</title>
<g id="a_edge15_Node000008_Node000003"><a xlink:title=" ">
<path fill="none" stroke="#63b8ff" d="M286.5,-167.9C285.48,-154.66 285.28,-129.73 295.5,-112 323.05,-64.19 382.49,-37.48 425.98,-23.71"/>
<polygon fill="#63b8ff" stroke="#63b8ff" points="426.93,-27.08 435.49,-20.84 424.9,-20.38 426.93,-27.08"/>
</a>
</g>
</g>
<!-- Node8&#45;&gt;Node4 -->
<g id="edge12_Node000008_Node000004" class="edge">
<title>Node8&#45;&gt;Node4</title>
<g id="a_edge12_Node000008_Node000004"><a xlink:title=" ">
<path fill="none" stroke="#63b8ff" d="M309.07,-167.62C353.7,-148.22 456.34,-103.59 508.63,-80.86"/>
<polygon fill="#63b8ff" stroke="#63b8ff" points="509.82,-84.16 517.6,-76.96 507.03,-77.74 509.82,-84.16"/>
</a>
</g>
</g>
<!-- Node8&#45;&gt;Node5 -->
<g id="edge14_Node000008_Node000005" class="edge">
<title>Node8&#45;&gt;Node5</title>
<g id="a_edge14_Node000008_Node000005"><a xlink:title=" ">
<path fill="none" stroke="#63b8ff" d="M313.38,-175.63C399.42,-170.9 672.25,-154.26 704.5,-132 719.62,-121.56 728.2,-102.06 732.8,-87.13"/>
<polygon fill="#63b8ff" stroke="#63b8ff" points="736.08,-88.42 735.29,-77.85 729.32,-86.6 736.08,-88.42"/>
</a>
</g>
</g>
<!-- Node8&#45;&gt;Node6 -->
<g id="edge17_Node000008_Node000006" class="edge">
<title>Node8&#45;&gt;Node6</title>
<g id="a_edge17_Node000008_Node000006"><a xlink:title=" ">
<path fill="none" stroke="#63b8ff" d="M261.47,-169.83C229.72,-161.08 175.51,-146.15 136.85,-135.49"/>
<polygon fill="#63b8ff" stroke="#63b8ff" points="137.92,-132.16 127.35,-132.88 136.06,-138.91 137.92,-132.16"/>
</a>
</g>
</g>
<!-- Node8&#45;&gt;Node7 -->
<g id="edge16_Node000008_Node000007" class="edge">
<title>Node8&#45;&gt;Node7</title>
<g id="a_edge16_Node000008_Node000007"><a xlink:title=" ">
<path fill="none" stroke="#63b8ff" d="M261.7,-169.42C241.93,-162.47 215.13,-150.43 197.5,-132 185.47,-119.43 177.91,-101.03 173.53,-87.02"/>
<polygon fill="#63b8ff" stroke="#63b8ff" points="176.94,-86.23 170.88,-77.54 170.2,-88.11 176.94,-86.23"/>
</a>
</g>
</g>
<!-- Node9&#45;&gt;Node2 -->
<g id="edge20_Node000009_Node000002" class="edge">
<title>Node9&#45;&gt;Node2</title>
<g id="a_edge20_Node000009_Node000002"><a xlink:title=" ">
<path fill="none" stroke="#63b8ff" d="M618.9,-112.86C569.06,-102.35 483.12,-84.22 435.59,-74.19"/>
<polygon fill="#63b8ff" stroke="#63b8ff" points="436.37,-70.78 425.86,-72.14 434.92,-77.63 436.37,-70.78"/>
</a>
</g>
</g>
<!-- Node9&#45;&gt;Node3 -->
<g id="edge23_Node000009_Node000003" class="edge">
<title>Node9&#45;&gt;Node3</title>
<g id="a_edge23_Node000009_Node000003"><a xlink:title=" ">
<path fill="none" stroke="#63b8ff" d="M657.47,-111.62C656.9,-97.55 653.72,-71.04 638.5,-56 610.77,-28.6 567.82,-17.56 533.25,-13.26"/>
<polygon fill="#63b8ff" stroke="#63b8ff" points="533.71,-9.79 523.39,-12.21 532.96,-16.75 533.71,-9.79"/>
</a>
</g>
</g>
<!-- Node9&#45;&gt;Node4 -->
<g id="edge22_Node000009_Node000004" class="edge">
<title>Node9&#45;&gt;Node4</title>
<g id="a_edge22_Node000009_Node000004"><a xlink:title=" ">
<path fill="none" stroke="#63b8ff" d="M637.12,-111.59C618.94,-103.21 592.07,-90.8 571.28,-81.21"/>
<polygon fill="#63b8ff" stroke="#63b8ff" points="572.96,-78.13 562.41,-77.11 570.03,-84.48 572.96,-78.13"/>
</a>
</g>
</g>
<!-- Node9&#45;&gt;Node5 -->
<g id="edge21_Node000009_Node000005" class="edge">
<title>Node9&#45;&gt;Node5</title>
<g id="a_edge21_Node000009_Node000005"><a xlink:title=" ">
<path fill="none" stroke="#63b8ff" d="M671.43,-111.59C683.18,-103.67 700.23,-92.16 714.07,-82.82"/>
<polygon fill="#63b8ff" stroke="#63b8ff" points="715.87,-85.82 722.2,-77.33 711.96,-80.02 715.87,-85.82"/>
</a>
</g>
</g>
<!-- Node10 -->
<g id="Node000010" class="node">
<title>Node10</title>
<g id="a_Node000010"><a xlink:title=" ">
<polygon fill="#e0e0e0" stroke="#999999" points="629.62,-76 581.38,-76 581.38,-56 629.62,-56 629.62,-76"/>
<text xml:space="preserve" text-anchor="middle" x="605.5" y="-62.5" font-family="Helvetica,sans-Serif" font-size="10.00">stdint.h</text>
</a>
</g>
</g>
<!-- Node9&#45;&gt;Node10 -->
<g id="edge19_Node000009_Node000010" class="edge">
<title>Node9&#45;&gt;Node10</title>
<g id="a_edge19_Node000009_Node000010"><a xlink:title=" ">
<path fill="none" stroke="#63b8ff" d="M648.44,-111.59C641.28,-104.16 631.09,-93.58 622.43,-84.58"/>
<polygon fill="#63b8ff" stroke="#63b8ff" points="624.96,-82.16 615.5,-77.39 619.92,-87.02 624.96,-82.16"/>
</a>
</g>
</g>
<!-- Node11&#45;&gt;Node2 -->
<g id="edge25_Node000011_Node000002" class="edge">
<title>Node11&#45;&gt;Node2</title>
<g id="a_edge25_Node000011_Node000002"><a xlink:title=" ">
<path fill="none" stroke="#63b8ff" d="M585.16,-223.52C548.49,-208.75 480.24,-177.16 436.5,-132 423.96,-119.05 414.64,-100.72 408.78,-86.82"/>
<polygon fill="#63b8ff" stroke="#63b8ff" points="412.15,-85.83 405.23,-77.81 405.64,-88.4 412.15,-85.83"/>
</a>
</g>
</g>
<!-- Node11&#45;&gt;Node3 -->
<g id="edge26_Node000011_Node000003" class="edge">
<title>Node11&#45;&gt;Node3</title>
<g id="a_edge26_Node000011_Node000003"><a xlink:title=" ">
<path fill="none" stroke="#63b8ff" d="M630.25,-223.66C683.23,-197.42 820.88,-120.7 765.5,-56 736.2,-21.76 608.26,-13.38 533.12,-11.45"/>
<polygon fill="#63b8ff" stroke="#63b8ff" points="533.58,-7.96 523.5,-11.24 533.42,-14.96 533.58,-7.96"/>
</a>
</g>
</g>
<!-- Node11&#45;&gt;Node12 -->
<g id="edge27_Node000011_Node000012" class="edge">
<title>Node11&#45;&gt;Node12</title>
<g id="a_edge27_Node000011_Node000012"><a xlink:title=" ">
<path fill="none" stroke="#63b8ff" d="M604.4,-223.59C599.79,-216.47 593.29,-206.45 587.63,-197.72"/>
<polygon fill="#63b8ff" stroke="#63b8ff" points="590.73,-196.06 582.35,-189.57 584.85,-199.86 590.73,-196.06"/>
</a>
</g>
</g>
<!-- Node11&#45;&gt;Node13 -->
<g id="edge40_Node000011_Node000013" class="edge">
<title>Node11&#45;&gt;Node13</title>
<g id="a_edge40_Node000011_Node000013"><a xlink:title=" ">
<path fill="none" stroke="#63b8ff" d="M640.26,-225.98C669.42,-218.54 714.7,-205.45 751.5,-188 780.34,-174.33 810.7,-153.56 830.3,-139.19"/>
<polygon fill="#63b8ff" stroke="#63b8ff" points="832.36,-142.02 838.29,-133.24 828.18,-136.41 832.36,-142.02"/>
</a>
</g>
</g>
<!-- Node12&#45;&gt;Node2 -->
<g id="edge30_Node000012_Node000002" class="edge">
<title>Node12&#45;&gt;Node2</title>
<g id="a_edge30_Node000012_Node000002"><a xlink:title=" ">
<path fill="none" stroke="#63b8ff" d="M559.24,-172.84C536.46,-166.51 494.38,-152.92 463.5,-132 444.41,-119.06 426.69,-99.38 415.12,-85.07"/>
<polygon fill="#63b8ff" stroke="#63b8ff" points="418.01,-83.08 409.09,-77.35 412.49,-87.39 418.01,-83.08"/>
</a>
</g>
</g>
<!-- Node12&#45;&gt;Node3 -->
<g id="edge32_Node000012_Node000003" class="edge">
<title>Node12&#45;&gt;Node3</title>
<g id="a_edge32_Node000012_Node000003"><a xlink:title=" ">
<path fill="none" stroke="#63b8ff" d="M568.57,-167.54C555.85,-149.98 528.31,-110.97 508.5,-76 500.11,-61.19 491.88,-43.75 486.01,-30.67"/>
<polygon fill="#63b8ff" stroke="#63b8ff" points="489.36,-29.59 482.12,-21.85 482.95,-32.41 489.36,-29.59"/>
</a>
</g>
</g>
<!-- Node12&#45;&gt;Node4 -->
<g id="edge28_Node000012_Node000004" class="edge">
<title>Node12&#45;&gt;Node4</title>
<g id="a_edge28_Node000012_Node000004"><a xlink:title=" ">
<path fill="none" stroke="#63b8ff" d="M572.52,-167.62C566.88,-149.92 554.58,-111.24 546.97,-87.32"/>
<polygon fill="#63b8ff" stroke="#63b8ff" points="550.3,-86.27 543.94,-77.8 543.63,-88.39 550.3,-86.27"/>
</a>
</g>
</g>
<!-- Node12&#45;&gt;Node5 -->
<g id="edge31_Node000012_Node000005" class="edge">
<title>Node12&#45;&gt;Node5</title>
<g id="a_edge31_Node000012_Node000005"><a xlink:title=" ">
<path fill="none" stroke="#63b8ff" d="M591.7,-174.97C629.11,-169.92 719.66,-155.47 737.5,-132 747.11,-119.35 746.15,-100.96 743.34,-86.97"/>
<polygon fill="#63b8ff" stroke="#63b8ff" points="746.8,-86.38 740.98,-77.52 740.01,-88.07 746.8,-86.38"/>
</a>
</g>
</g>
<!-- Node12&#45;&gt;Node7 -->
<g id="edge34_Node000012_Node000007" class="edge">
<title>Node12&#45;&gt;Node7</title>
<g id="a_edge34_Node000012_Node000007"><a xlink:title=" ">
<path fill="none" stroke="#63b8ff" d="M559.29,-172.62C501.45,-156.99 303.79,-103.57 213.79,-79.24"/>
<polygon fill="#63b8ff" stroke="#63b8ff" points="214.88,-75.91 204.32,-76.68 213.06,-82.67 214.88,-75.91"/>
</a>
</g>
</g>
<!-- Node12&#45;&gt;Node9 -->
<g id="edge33_Node000012_Node000009" class="edge">
<title>Node12&#45;&gt;Node9</title>
<g id="a_edge33_Node000012_Node000009"><a xlink:title=" ">
<path fill="none" stroke="#63b8ff" d="M589.78,-167.59C601.94,-159.59 619.64,-147.93 633.9,-138.54"/>
<polygon fill="#63b8ff" stroke="#63b8ff" points="635.41,-141.73 641.84,-133.31 631.56,-135.89 635.41,-141.73"/>
</a>
</g>
</g>
<!-- Node12&#45;&gt;Node10 -->
<g id="edge29_Node000012_Node000010" class="edge">
<title>Node12&#45;&gt;Node10</title>
<g id="a_edge29_Node000012_Node000010"><a xlink:title=" ">
<path fill="none" stroke="#63b8ff" d="M578.06,-167.62C582.88,-149.92 593.43,-111.24 599.96,-87.32"/>
<polygon fill="#63b8ff" stroke="#63b8ff" points="603.3,-88.38 602.55,-77.82 596.54,-86.54 603.3,-88.38"/>
</a>
</g>
</g>
<!-- Node12&#45;&gt;Node13 -->
<g id="edge35_Node000012_Node000013" class="edge">
<title>Node12&#45;&gt;Node13</title>
<g id="a_edge35_Node000012_Node000013"><a xlink:title=" ">
<path fill="none" stroke="#63b8ff" d="M591.53,-173.86C634.89,-165.38 755.27,-141.83 815.8,-129.99"/>
<polygon fill="#63b8ff" stroke="#63b8ff" points="816.43,-133.43 825.58,-128.07 815.09,-126.56 816.43,-133.43"/>
</a>
</g>
</g>
<!-- Node13&#45;&gt;Node3 -->
<g id="edge36_Node000013_Node000003" class="edge">
<title>Node13&#45;&gt;Node3</title>
<g id="a_edge36_Node000013_Node000003"><a xlink:title=" ">
<path fill="none" stroke="#63b8ff" d="M848.92,-111.63C844.39,-97.08 833.52,-69.33 813.5,-56 768.7,-26.17 616.41,-15.99 533.09,-12.62"/>
<polygon fill="#63b8ff" stroke="#63b8ff" points="533.45,-9.13 523.32,-12.24 533.18,-16.12 533.45,-9.13"/>
</a>
</g>
</g>
<!-- Node13&#45;&gt;Node4 -->
<g id="edge38_Node000013_Node000004" class="edge">
<title>Node13&#45;&gt;Node4</title>
<g id="a_edge38_Node000013_Node000004"><a xlink:title=" ">
<path fill="none" stroke="#63b8ff" d="M827.07,-118.01C780.09,-112.07 673.75,-97.64 574.61,-76.24"/>
<polygon fill="#63b8ff" stroke="#63b8ff" points="575.49,-72.85 564.97,-74.13 573.99,-79.69 575.49,-72.85"/>
</a>
</g>
</g>
<!-- Node13&#45;&gt;Node5 -->
<g id="edge37_Node000013_Node000005" class="edge">
<title>Node13&#45;&gt;Node5</title>
<g id="a_edge37_Node000013_Node000005"><a xlink:title=" ">
<path fill="none" stroke="#63b8ff" d="M831.64,-111.59C813.69,-103.09 787.03,-90.46 766.66,-80.81"/>
<polygon fill="#63b8ff" stroke="#63b8ff" points="768.28,-77.71 757.74,-76.59 765.28,-84.03 768.28,-77.71"/>
</a>
</g>
</g>
<!-- Node14 -->
<g id="Node000014" class="node">
<title>Node14</title>
<g id="a_Node000014"><a xlink:title=" ">
<polygon fill="#e0e0e0" stroke="#999999" points="913.25,-76 865.75,-76 865.75,-56 913.25,-56 913.25,-76"/>
<text xml:space="preserve" text-anchor="middle" x="889.5" y="-62.5" font-family="Helvetica,sans-Serif" font-size="10.00">stdlib.h</text>
</a>
</g>
</g>
<!-- Node13&#45;&gt;Node14 -->
<g id="edge39_Node000013_Node000014" class="edge">
<title>Node13&#45;&gt;Node14</title>
<g id="a_edge39_Node000013_Node000014"><a xlink:title=" ">
<path fill="none" stroke="#63b8ff" d="M858.12,-111.59C863.19,-104.39 870.34,-94.23 876.53,-85.43"/>
<polygon fill="#63b8ff" stroke="#63b8ff" points="879.19,-87.73 882.09,-77.54 873.47,-83.7 879.19,-87.73"/>
</a>
</g>
</g>
<!-- Node15&#45;&gt;Node3 -->
<g id="edge44_Node000015_Node000003" class="edge">
<title>Node15&#45;&gt;Node3</title>
<g id="a_edge44_Node000015_Node000003"><a xlink:title=" ">
<path fill="none" stroke="#63b8ff" d="M27.5,-111.53C42.11,-96.83 72.57,-68.89 104.5,-56 160.78,-33.28 332.34,-19.81 421.84,-14.15"/>
<polygon fill="#63b8ff" stroke="#63b8ff" points="421.84,-17.66 431.61,-13.55 421.41,-10.67 421.84,-17.66"/>
</a>
</g>
</g>
<!-- Node15&#45;&gt;Node7 -->
<g id="edge45_Node000015_Node000007" class="edge">
<title>Node15&#45;&gt;Node7</title>
<g id="a_edge45_Node000015_Node000007"><a xlink:title=" ">
<path fill="none" stroke="#63b8ff" d="M37.5,-114.16C61.06,-105.68 101.74,-91.03 131.53,-80.31"/>
<polygon fill="#63b8ff" stroke="#63b8ff" points="132.71,-83.6 140.94,-76.92 130.34,-77.02 132.71,-83.6"/>
</a>
</g>
</g>
</g>
</svg>

<g id="navigator" transform="translate(0 0)" fill="#404254">
  <rect fill="#f2f5e9" fill-opacity="0.5" stroke="#606060" stroke-width=".5" x="0" y="0" width="60" height="60"/>
  <use id="zoomplus" xlink:href="#zoomPlus" x="17" y="9" onmousedown="handleZoom(evt,'in')"/>
  <use id="zoomminus" xlink:href="#zoomMin" x="42" y="9" onmousedown="handleZoom(evt,'out')"/>
  <use id="reset" xlink:href="#resetDef" x="30" y="36" onmousedown="handleReset()"/>
   <use id="arrowup" xlink:href="#arrowUp" x="0" y="0" onmousedown="handlePan(0,-1)"/>
  <use id="arrowright" xlink:href="#arrowRight" x="0" y="0" onmousedown="handlePan(1,0)"/>
  <use id="arrowdown" xlink:href="#arrowDown" x="0" y="0" onmousedown="handlePan(0,1)"/>
  <use id="arrowleft" xlink:href="#arrowLeft" x="0" y="0" onmousedown="handlePan(-1,0)"/>
</g>
<svg viewBox="0 0 15 15" width="100%" height="30px" preserveAspectRatio="xMaxYMin meet">
 <g id="arrow_out" transform="scale(0.3 0.3)">
  <a xlink:href="main_8c__incl_org.svg" target="_base">
   <rect id="button" ry="5" rx="5" y="6" x="6" height="38" width="38"
        fill="#f2f5e9" fill-opacity="0.5" stroke="#606060" stroke-width="1.0"/>
   <path id="arrow"
     d="M 11.500037,31.436501 C 11.940474,20.09759 22.043105,11.32322 32.158766,21.979434 L 37.068811,17.246167 C 37.068811,17.246167 37.088388,32 37.088388,32 L 22.160133,31.978069 C 22.160133,31.978069 26.997745,27.140456 26.997745,27.140456 C 18.528582,18.264221 13.291696,25.230495 11.500037,31.436501 z"
     style="fill:#404040;"/>
  </a>
 </g>
</svg>

<style type='text/css'>
<![CDATA[
[data-mouse-over-selected='false'] { opacity: 0.7; }
[data-mouse-over-selected='true']  { opacity: 1.0; }
]]>
</style>
<script type="application/ecmascript"><![CDATA[
document.addEventListener('DOMContentLoaded', (event) => {
  highlightEdges();
  highlightAdjacentNodes();
});
]]></script>
</svg>
