<?xml version="1.0" encoding="UTF-8" standalone="no"?>
<!DOCTYPE svg PUBLIC "-//W3C//DTD SVG 1.1//EN"
 "http://www.w3.org/Graphics/SVG/1.1/DTD/svg11.dtd">
<!-- Generated by graphviz version 14.1.2 (0)
 -->
<!-- Title: HAL_TIM_IC_CaptureCallback Pages: 1 -->
<svg width="741pt" height="104pt"
 viewBox="0.00 0.00 741.00 104.00" xmlns="http://www.w3.org/2000/svg" xmlns:xlink="http://www.w3.org/1999/xlink">
<g id="graph0" class="graph" transform="scale(1 1) rotate(0) translate(4 100)">
<title>HAL_TIM_IC_CaptureCallback</title>
<!-- Node1 -->
<g id="Node000001" class="node">
<title>Node1</title>
<g id="a_Node000001"><a xlink:title=" ">
<polygon fill="#999999" stroke="#666666" points="151.75,-58 0,-58 0,-38 151.75,-38 151.75,-58"/>
<text xml:space="preserve" text-anchor="middle" x="75.88" y="-44.5" font-family="Helvetica,sans-Serif" font-size="10.00">HAL_TIM_IC_CaptureCallback</text>
</a>
</g>
</g>
<!-- Node2 -->
<g id="Node000002" class="node">
<title>Node2</title>
<g id="a_Node000002"><a xlink:href="encoder_8c.html#ac97bebdda353039aa590609205734aa1" target="_top" xlink:title="Process encoder interrupt callback.">
<polygon fill="white" stroke="#666666" points="279.5,-58 187.75,-58 187.75,-38 279.5,-38 279.5,-58"/>
<text xml:space="preserve" text-anchor="middle" x="233.62" y="-44.5" font-family="Helvetica,sans-Serif" font-size="10.00">encoder_callback</text>
</a>
</g>
</g>
<!-- Node1&#45;&gt;Node2 -->
<g id="edge1_Node000001_Node000002" class="edge">
<title>Node1&#45;&gt;Node2</title>
<g id="a_edge1_Node000001_Node000002"><a xlink:title=" ">
<path fill="none" stroke="#63b8ff" d="M152.01,-48C160.17,-48 168.36,-48 176.23,-48"/>
<polygon fill="#63b8ff" stroke="#63b8ff" points="175.99,-51.5 185.99,-48 175.99,-44.5 175.99,-51.5"/>
</a>
</g>
</g>
<!-- Node3 -->
<g id="Node000003" class="node">
<title>Node3</title>
<g id="a_Node000003"><a xlink:href="event_8c.html#a55880a847852bc5cd0e3b50ecb2b6839" target="_top" xlink:title="Add an event to the rear of the queue.">
<polygon fill="white" stroke="#666666" points="517.75,-58 435.75,-58 435.75,-38 517.75,-38 517.75,-58"/>
<text xml:space="preserve" text-anchor="middle" x="476.75" y="-44.5" font-family="Helvetica,sans-Serif" font-size="10.00">event_enqueue</text>
</a>
</g>
</g>
<!-- Node2&#45;&gt;Node3 -->
<g id="edge2_Node000002_Node000003" class="edge">
<title>Node2&#45;&gt;Node3</title>
<g id="a_edge2_Node000002_Node000003"><a xlink:title=" ">
<path fill="none" stroke="#63b8ff" d="M279.98,-48C320.97,-48 381.27,-48 424.1,-48"/>
<polygon fill="#63b8ff" stroke="#63b8ff" points="423.89,-51.5 433.89,-48 423.89,-44.5 423.89,-51.5"/>
</a>
</g>
</g>
<!-- Node8 -->
<g id="Node000008" class="node">
<title>Node8</title>
<g id="a_Node000008"><a xlink:href="encoder_8c.html#a2eece46a31e7c42df2173d6173bce48d" target="_top" xlink:title="Update encoder position based on rotation direction.">
<polygon fill="white" stroke="#666666" points="399.75,-39 315.5,-39 315.5,-19 399.75,-19 399.75,-39"/>
<text xml:space="preserve" text-anchor="middle" x="357.62" y="-25.5" font-family="Helvetica,sans-Serif" font-size="10.00">update_position</text>
</a>
</g>
</g>
<!-- Node2&#45;&gt;Node8 -->
<g id="edge7_Node000002_Node000008" class="edge">
<title>Node2&#45;&gt;Node8</title>
<g id="a_edge7_Node000002_Node000008"><a xlink:title=" ">
<path fill="none" stroke="#63b8ff" d="M279.71,-40.98C287.64,-39.74 295.96,-38.45 304.08,-37.18"/>
<polygon fill="#63b8ff" stroke="#63b8ff" points="304.52,-40.66 313.87,-35.66 303.45,-33.74 304.52,-40.66"/>
</a>
</g>
</g>
<!-- Node4 -->
<g id="Node000004" class="node">
<title>Node4</title>
<g id="a_Node000004"><a xlink:href="event_8c.html#ae5e03ab33fd406568f5f30681b510393" target="_top" xlink:title="Create a new event node with dynamic memory allocation.">
<polygon fill="white" stroke="#666666" points="649.25,-96 553.75,-96 553.75,-76 649.25,-76 649.25,-96"/>
<text xml:space="preserve" text-anchor="middle" x="601.5" y="-82.5" font-family="Helvetica,sans-Serif" font-size="10.00">event_createNode</text>
</a>
</g>
</g>
<!-- Node3&#45;&gt;Node4 -->
<g id="edge3_Node000003_Node000004" class="edge">
<title>Node3&#45;&gt;Node4</title>
<g id="a_edge3_Node000003_Node000004"><a xlink:title=" ">
<path fill="none" stroke="#63b8ff" d="M511.62,-58.48C525.3,-62.72 541.29,-67.67 555.9,-72.19"/>
<polygon fill="#63b8ff" stroke="#63b8ff" points="554.71,-75.49 565.3,-75.1 556.78,-68.8 554.71,-75.49"/>
</a>
</g>
</g>
<!-- Node5 -->
<g id="Node000005" class="node">
<title>Node5</title>
<g id="a_Node000005"><a xlink:href="event_8c.html#a9a29143d5146b5140c4fdfbe1009549f" target="_top" xlink:title="Log event type to terminal when event callback is triggered.">
<polygon fill="white" stroke="#666666" points="648.88,-58 554.12,-58 554.12,-38 648.88,-38 648.88,-58"/>
<text xml:space="preserve" text-anchor="middle" x="601.5" y="-44.5" font-family="Helvetica,sans-Serif" font-size="10.00">event_diplay_type</text>
</a>
</g>
</g>
<!-- Node3&#45;&gt;Node5 -->
<g id="edge4_Node000003_Node000005" class="edge">
<title>Node3&#45;&gt;Node5</title>
<g id="a_edge4_Node000003_Node000005"><a xlink:title=" ">
<path fill="none" stroke="#63b8ff" d="M517.94,-48C525.83,-48 534.24,-48 542.57,-48"/>
<polygon fill="#63b8ff" stroke="#63b8ff" points="542.31,-51.5 552.31,-48 542.31,-44.5 542.31,-51.5"/>
</a>
</g>
</g>
<!-- Node7 -->
<g id="Node000007" class="node">
<title>Node7</title>
<g id="a_Node000007"><a xlink:href="event_8c.html#aea88d358a100904366305919eaa2d0ce" target="_top" xlink:title="Check if the event queue is empty.">
<polygon fill="white" stroke="#666666" points="642.12,-20 560.88,-20 560.88,0 642.12,0 642.12,-20"/>
<text xml:space="preserve" text-anchor="middle" x="601.5" y="-6.5" font-family="Helvetica,sans-Serif" font-size="10.00">event_isEmpty</text>
</a>
</g>
</g>
<!-- Node3&#45;&gt;Node7 -->
<g id="edge6_Node000003_Node000007" class="edge">
<title>Node3&#45;&gt;Node7</title>
<g id="a_edge6_Node000003_Node000007"><a xlink:title=" ">
<path fill="none" stroke="#63b8ff" d="M511.62,-37.52C525.3,-33.28 541.29,-28.33 555.9,-23.81"/>
<polygon fill="#63b8ff" stroke="#63b8ff" points="556.78,-27.2 565.3,-20.9 554.71,-20.51 556.78,-27.2"/>
</a>
</g>
</g>
<!-- Node6 -->
<g id="Node000006" class="node">
<title>Node6</title>
<g id="a_Node000006"><a xlink:href="log_8c.html#a19c27922f37e1d81bb9370e65be76554" target="_top" xlink:title="Log a message with specified log level.">
<polygon fill="white" stroke="#666666" points="732.75,-58 685.25,-58 685.25,-38 732.75,-38 732.75,-58"/>
<text xml:space="preserve" text-anchor="middle" x="709" y="-44.5" font-family="Helvetica,sans-Serif" font-size="10.00">logMsg</text>
</a>
</g>
</g>
<!-- Node5&#45;&gt;Node6 -->
<g id="edge5_Node000005_Node000006" class="edge">
<title>Node5&#45;&gt;Node6</title>
<g id="a_edge5_Node000005_Node000006"><a xlink:title=" ">
<path fill="none" stroke="#63b8ff" d="M649.08,-48C657.29,-48 665.7,-48 673.51,-48"/>
<polygon fill="#63b8ff" stroke="#63b8ff" points="673.27,-51.5 683.27,-48 673.27,-44.5 673.27,-51.5"/>
</a>
</g>
</g>
<!-- Node8&#45;&gt;Node3 -->
<g id="edge8_Node000008_Node000003" class="edge">
<title>Node8&#45;&gt;Node3</title>
<g id="a_edge8_Node000008_Node000003"><a xlink:title=" ">
<path fill="none" stroke="#63b8ff" d="M400.25,-35.75C408.02,-37.01 416.24,-38.35 424.27,-39.65"/>
<polygon fill="#63b8ff" stroke="#63b8ff" points="423.51,-43.07 433.95,-41.22 424.64,-36.16 423.51,-43.07"/>
</a>
</g>
</g>
</g>
</svg>
