<?xml version="1.0" encoding="UTF-8" standalone="no"?>
<!DOCTYPE svg PUBLIC "-//W3C//DTD SVG 1.1//EN"
 "http://www.w3.org/Graphics/SVG/1.1/DTD/svg11.dtd">
<!-- Generated by graphviz version 14.1.2 (0)
 -->
<!-- Title: Core/Src/MAX31855.c Pages: 1 -->
<svg width="255pt" height="196pt"
 viewBox="0.00 0.00 255.00 196.00" xmlns="http://www.w3.org/2000/svg" xmlns:xlink="http://www.w3.org/1999/xlink">
<g id="graph0" class="graph" transform="scale(1 1) rotate(0) translate(4 192)">
<title>Core/Src/MAX31855.c</title>
<!-- Node1 -->
<g id="Node000001" class="node">
<title>Node1</title>
<g id="a_Node000001"><a xlink:title="Implementation of MAX31855 thermocouple&#45;to&#45;digital converter driver.">
<polygon fill="#999999" stroke="#666666" points="230.12,-188 115.88,-188 115.88,-168 230.12,-168 230.12,-188"/>
<text xml:space="preserve" text-anchor="middle" x="173" y="-174.5" font-family="Helvetica,sans-Serif" font-size="10.00">Core/Src/MAX31855.c</text>
</a>
</g>
</g>
<!-- Node2 -->
<g id="Node000002" class="node">
<title>Node2</title>
<g id="a_Node000002"><a xlink:href="MAX31855_8h.html" target="_top" xlink:title="MAX31855 thermocouple&#45;to&#45;digital converter driver.">
<polygon fill="white" stroke="#666666" points="111.12,-132 38.88,-132 38.88,-112 111.12,-112 111.12,-132"/>
<text xml:space="preserve" text-anchor="middle" x="75" y="-118.5" font-family="Helvetica,sans-Serif" font-size="10.00">MAX31855.h</text>
</a>
</g>
</g>
<!-- Node1&#45;&gt;Node2 -->
<g id="edge1_Node000001_Node000002" class="edge">
<title>Node1&#45;&gt;Node2</title>
<g id="a_edge1_Node000001_Node000002"><a xlink:title=" ">
<path fill="none" stroke="#63b8ff" d="M155.93,-167.59C141.12,-159.44 119.43,-147.48 102.23,-138"/>
<polygon fill="#63b8ff" stroke="#63b8ff" points="103.98,-134.97 93.53,-133.21 100.6,-141.1 103.98,-134.97"/>
</a>
</g>
</g>
<!-- Node6 -->
<g id="Node000006" class="node">
<title>Node6</title>
<g id="a_Node000006"><a xlink:href="log_8h.html" target="_top" xlink:title="Logging module with configurable log levels and UART output.">
<polygon fill="white" stroke="#666666" points="207.5,-76 170.5,-76 170.5,-56 207.5,-56 207.5,-76"/>
<text xml:space="preserve" text-anchor="middle" x="189" y="-62.5" font-family="Helvetica,sans-Serif" font-size="10.00">log.h</text>
</a>
</g>
</g>
<!-- Node1&#45;&gt;Node6 -->
<g id="edge7_Node000001_Node000006" class="edge">
<title>Node1&#45;&gt;Node6</title>
<g id="a_edge7_Node000001_Node000006"><a xlink:title=" ">
<path fill="none" stroke="#63b8ff" d="M174.36,-167.62C176.93,-150.01 182.51,-111.59 186,-87.65"/>
<polygon fill="#63b8ff" stroke="#63b8ff" points="189.45,-88.25 187.42,-77.85 182.52,-87.24 189.45,-88.25"/>
</a>
</g>
</g>
<!-- Node7 -->
<g id="Node000007" class="node">
<title>Node7</title>
<g id="a_Node000007"><a xlink:title=" ">
<polygon fill="#e0e0e0" stroke="#999999" points="246.62,-132 201.38,-132 201.38,-112 246.62,-112 246.62,-132"/>
<text xml:space="preserve" text-anchor="middle" x="224" y="-118.5" font-family="Helvetica,sans-Serif" font-size="10.00">stdio.h</text>
</a>
</g>
</g>
<!-- Node1&#45;&gt;Node7 -->
<g id="edge9_Node000001_Node000007" class="edge">
<title>Node1&#45;&gt;Node7</title>
<g id="a_edge9_Node000001_Node000007"><a xlink:title=" ">
<path fill="none" stroke="#63b8ff" d="M181.88,-167.59C188.9,-160.16 198.9,-149.58 207.39,-140.58"/>
<polygon fill="#63b8ff" stroke="#63b8ff" points="209.86,-143.07 214.18,-133.4 204.77,-138.27 209.86,-143.07"/>
</a>
</g>
</g>
<!-- Node2&#45;&gt;Node2 -->
<g id="edge6_Node000002_Node000002" class="edge">
<title>Node2&#45;&gt;Node2</title>
<g id="a_edge6_Node000002_Node000002"><a xlink:title=" ">
<path fill="none" stroke="#63b8ff" d="M111.43,-132.44C121.46,-131.93 129.12,-128.45 129.12,-122 129.12,-118.27 126.56,-115.53 122.46,-113.79"/>
<polygon fill="#63b8ff" stroke="#63b8ff" points="123.4,-110.41 112.91,-111.86 122.02,-117.27 123.4,-110.41"/>
</a>
</g>
</g>
<!-- Node3 -->
<g id="Node000003" class="node">
<title>Node3</title>
<g id="a_Node000003"><a xlink:title=" ">
<polygon fill="#e0e0e0" stroke="#999999" points="88,-20 0,-20 0,0 88,0 88,-20"/>
<text xml:space="preserve" text-anchor="middle" x="44" y="-6.5" font-family="Helvetica,sans-Serif" font-size="10.00">stm32f0xx_hal.h</text>
</a>
</g>
</g>
<!-- Node2&#45;&gt;Node3 -->
<g id="edge2_Node000002_Node000003" class="edge">
<title>Node2&#45;&gt;Node3</title>
<g id="a_edge2_Node000002_Node000003"><a xlink:title=" ">
<path fill="none" stroke="#63b8ff" d="M52.59,-111.64C38.13,-104.28 20.49,-92.49 12,-76 3.77,-60.01 14.72,-41.6 25.99,-28.46"/>
<polygon fill="#63b8ff" stroke="#63b8ff" points="28.31,-31.11 32.58,-21.41 23.19,-26.33 28.31,-31.11"/>
</a>
</g>
</g>
<!-- Node4 -->
<g id="Node000004" class="node">
<title>Node4</title>
<g id="a_Node000004"><a xlink:href="main_8h.html" target="_top" xlink:title=": Header for main.c file. This file contains the common defines of the application.">
<polygon fill="white" stroke="#666666" points="66.62,-76 21.38,-76 21.38,-56 66.62,-56 66.62,-76"/>
<text xml:space="preserve" text-anchor="middle" x="44" y="-62.5" font-family="Helvetica,sans-Serif" font-size="10.00">main.h</text>
</a>
</g>
</g>
<!-- Node2&#45;&gt;Node4 -->
<g id="edge3_Node000002_Node000004" class="edge">
<title>Node2&#45;&gt;Node4</title>
<g id="a_edge3_Node000002_Node000004"><a xlink:title=" ">
<path fill="none" stroke="#63b8ff" d="M69.6,-111.59C65.56,-104.55 59.88,-94.67 54.91,-86"/>
<polygon fill="#63b8ff" stroke="#63b8ff" points="58.11,-84.54 50.09,-77.61 52.03,-88.03 58.11,-84.54"/>
</a>
</g>
</g>
<!-- Node5 -->
<g id="Node000005" class="node">
<title>Node5</title>
<g id="a_Node000005"><a xlink:title=" ">
<polygon fill="#e0e0e0" stroke="#999999" points="152.88,-76 85.12,-76 85.12,-56 152.88,-56 152.88,-76"/>
<text xml:space="preserve" text-anchor="middle" x="119" y="-62.5" font-family="Helvetica,sans-Serif" font-size="10.00">arm_math.h</text>
</a>
</g>
</g>
<!-- Node2&#45;&gt;Node5 -->
<g id="edge5_Node000002_Node000005" class="edge">
<title>Node2&#45;&gt;Node5</title>
<g id="a_edge5_Node000002_Node000005"><a xlink:title=" ">
<path fill="none" stroke="#63b8ff" d="M82.66,-111.59C88.59,-104.32 96.99,-94.02 104.21,-85.15"/>
<polygon fill="#63b8ff" stroke="#63b8ff" points="106.86,-87.43 110.47,-77.47 101.44,-83.01 106.86,-87.43"/>
</a>
</g>
</g>
<!-- Node4&#45;&gt;Node3 -->
<g id="edge4_Node000004_Node000003" class="edge">
<title>Node4&#45;&gt;Node3</title>
<g id="a_edge4_Node000004_Node000003"><a xlink:title=" ">
<path fill="none" stroke="#63b8ff" d="M44,-55.59C44,-49.01 44,-39.96 44,-31.73"/>
<polygon fill="#63b8ff" stroke="#63b8ff" points="47.5,-31.81 44,-21.81 40.5,-31.81 47.5,-31.81"/>
</a>
</g>
</g>
<!-- Node6&#45;&gt;Node3 -->
<g id="edge8_Node000006_Node000003" class="edge">
<title>Node6&#45;&gt;Node3</title>
<g id="a_edge8_Node000006_Node000003"><a xlink:title=" ">
<path fill="none" stroke="#63b8ff" d="M170.04,-57.94C147.27,-49.46 108.58,-35.05 80.06,-24.43"/>
<polygon fill="#63b8ff" stroke="#63b8ff" points="81.31,-21.16 70.72,-20.95 78.87,-27.72 81.31,-21.16"/>
</a>
</g>
</g>
</g>
</svg>
