<?xml version="1.0" encoding="UTF-8" standalone="no"?>
<!DOCTYPE svg PUBLIC "-//W3C//DTD SVG 1.1//EN"
 "http://www.w3.org/Graphics/SVG/1.1/DTD/svg11.dtd">
<!-- Generated by graphviz version 14.1.2 (0)
 -->
<!-- Title: max31855_get_temp_sign Pages: 1 -->
<svg width="678pt" height="78pt"
 viewBox="0.00 0.00 678.00 78.00" xmlns="http://www.w3.org/2000/svg" xmlns:xlink="http://www.w3.org/1999/xlink">
<g id="graph0" class="graph" transform="scale(1 1) rotate(0) translate(4 74)">
<title>max31855_get_temp_sign</title>
<!-- Node1 -->
<g id="Node000001" class="node">
<title>Node1</title>
<g id="a_Node000001"><a xlink:title="Get thermocouple temperature sign.">
<polygon fill="#999999" stroke="#666666" points="670,-48 540,-48 540,-28 670,-28 670,-48"/>
<text xml:space="preserve" text-anchor="middle" x="605" y="-34.5" font-family="Helvetica,sans-Serif" font-size="10.00">max31855_get_temp_sign</text>
</a>
</g>
</g>
<!-- Node2 -->
<g id="Node000002" class="node">
<title>Node2</title>
<g id="a_Node000002"><a xlink:href="MAX31855_8c.html#a4a6509f271e451fd9f7dcf2f11755108" target="_top" xlink:title="Get thermocouple temperature as float32.">
<polygon fill="white" stroke="#666666" points="502.12,-68 376.62,-68 376.62,-48 502.12,-48 502.12,-68"/>
<text xml:space="preserve" text-anchor="middle" x="439.38" y="-54.5" font-family="Helvetica,sans-Serif" font-size="10.00">max31855_get_temp_f32</text>
</a>
</g>
</g>
<!-- Node1&#45;&gt;Node2 -->
<g id="edge1_Node000001_Node000002" class="edge">
<title>Node1&#45;&gt;Node2</title>
<g id="a_edge1_Node000001_Node000002"><a xlink:title=" ">
<path fill="none" stroke="#63b8ff" d="M528.47,-47.23C519.78,-48.29 511,-49.37 502.51,-50.4"/>
<polygon fill="#63b8ff" stroke="#63b8ff" points="528.8,-50.72 538.3,-46.03 527.95,-43.77 528.8,-50.72"/>
</a>
</g>
</g>
<!-- Node5 -->
<g id="Node000005" class="node">
<title>Node5</title>
<g id="a_Node000005"><a xlink:href="MAX31855_8c.html#a64c227c2118d56f92d82fe64611b898f" target="_top" xlink:title="Print payload values in human&#45;readable format.">
<polygon fill="white" stroke="#666666" points="504,-29 374.75,-29 374.75,-9 504,-9 504,-29"/>
<text xml:space="preserve" text-anchor="middle" x="439.38" y="-15.5" font-family="Helvetica,sans-Serif" font-size="10.00">max_31855_print_payload</text>
</a>
</g>
</g>
<!-- Node1&#45;&gt;Node5 -->
<g id="edge4_Node000001_Node000005" class="edge">
<title>Node1&#45;&gt;Node5</title>
<g id="a_edge4_Node000001_Node000005"><a xlink:title=" ">
<path fill="none" stroke="#63b8ff" d="M528.5,-29.23C520.44,-28.3 512.3,-27.35 504.39,-26.43"/>
<polygon fill="#63b8ff" stroke="#63b8ff" points="527.96,-32.69 538.3,-30.37 528.77,-25.74 527.96,-32.69"/>
</a>
</g>
</g>
<!-- Node3 -->
<g id="Node000003" class="node">
<title>Node3</title>
<g id="a_Node000003"><a xlink:href="heater_8c.html#ac2883f1108f7c28edb2c028a9e0f2639" target="_top" xlink:title="RTC interrupt handler for temperature sampling and PID calculation.">
<polygon fill="white" stroke="#666666" points="316.62,-70 220.38,-70 220.38,-50 316.62,-50 316.62,-70"/>
<text xml:space="preserve" text-anchor="middle" x="268.5" y="-56.5" font-family="Helvetica,sans-Serif" font-size="10.00">heater_on_interupt</text>
</a>
</g>
</g>
<!-- Node2&#45;&gt;Node3 -->
<g id="edge2_Node000002_Node000003" class="edge">
<title>Node2&#45;&gt;Node3</title>
<g id="a_edge2_Node000002_Node000003"><a xlink:title=" ">
<path fill="none" stroke="#63b8ff" d="M365.23,-58.87C348.84,-59.06 331.88,-59.26 316.87,-59.44"/>
<polygon fill="#63b8ff" stroke="#63b8ff" points="364.98,-62.37 374.94,-58.75 364.9,-55.37 364.98,-62.37"/>
</a>
</g>
</g>
<!-- Node4 -->
<g id="Node000004" class="node">
<title>Node4</title>
<g id="a_Node000004"><a xlink:href="main_8c.html#a11aeff83fd498cddbed3bcddcf017e0a" target="_top" xlink:title=" ">
<polygon fill="white" stroke="#666666" points="162.25,-70 0,-70 0,-50 162.25,-50 162.25,-70"/>
<text xml:space="preserve" text-anchor="middle" x="81.12" y="-56.5" font-family="Helvetica,sans-Serif" font-size="10.00">HAL_RTC_AlarmAEventCallback</text>
</a>
</g>
</g>
<!-- Node3&#45;&gt;Node4 -->
<g id="edge3_Node000003_Node000004" class="edge">
<title>Node3&#45;&gt;Node4</title>
<g id="a_edge3_Node000003_Node000004"><a xlink:title=" ">
<path fill="none" stroke="#63b8ff" d="M208.76,-60C194.04,-60 178,-60 162.43,-60"/>
<polygon fill="#63b8ff" stroke="#63b8ff" points="208.73,-63.5 218.73,-60 208.73,-56.5 208.73,-63.5"/>
</a>
</g>
</g>
<!-- Node6 -->
<g id="Node000006" class="node">
<title>Node6</title>
<g id="a_Node000006"><a xlink:href="MAX31855_8c.html#ae07dd9d652d3357d25fb9f48728c0d1e" target="_top" xlink:title="Print all payload fields in binary format.">
<polygon fill="white" stroke="#666666" points="338.75,-32 198.25,-32 198.25,0 338.75,0 338.75,-32"/>
<text xml:space="preserve" text-anchor="start" x="206.25" y="-18.5" font-family="Helvetica,sans-Serif" font-size="10.00">max_31855_print_max31855</text>
<text xml:space="preserve" text-anchor="middle" x="268.5" y="-6.5" font-family="Helvetica,sans-Serif" font-size="10.00">_payload_binary</text>
</a>
</g>
</g>
<!-- Node5&#45;&gt;Node6 -->
<g id="edge5_Node000005_Node000006" class="edge">
<title>Node5&#45;&gt;Node6</title>
<g id="a_edge5_Node000005_Node000006"><a xlink:title=" ">
<path fill="none" stroke="#63b8ff" d="M363.26,-17.67C355.22,-17.52 347.06,-17.38 339.08,-17.24"/>
<polygon fill="#63b8ff" stroke="#63b8ff" points="362.96,-21.16 373.02,-17.84 363.08,-14.16 362.96,-21.16"/>
</a>
</g>
</g>
</g>
</svg>
