<?xml version="1.0" encoding="UTF-8" standalone="no"?>
<!DOCTYPE svg PUBLIC "-//W3C//DTD SVG 1.1//EN"
 "http://www.w3.org/Graphics/SVG/1.1/DTD/svg11.dtd">
<!-- Generated by graphviz version 14.1.2 (0)
 -->
<!-- Title: max_31855_print_max31855_payload_binary Pages: 1 -->
<svg width="608pt" height="268pt"
 viewBox="0.00 0.00 608.00 268.00" xmlns="http://www.w3.org/2000/svg" xmlns:xlink="http://www.w3.org/1999/xlink">
<g id="graph0" class="graph" transform="scale(1 1) rotate(0) translate(4 264)">
<title>max_31855_print_max31855_payload_binary</title>
<!-- Node1 -->
<g id="Node000001" class="node">
<title>Node1</title>
<g id="a_Node000001"><a xlink:title="Print parsed payload in binary format (debug function).">
<polygon fill="#999999" stroke="#666666" points="140.5,-64 0,-64 0,-32 140.5,-32 140.5,-64"/>
<text xml:space="preserve" text-anchor="start" x="8" y="-50.5" font-family="Helvetica,sans-Serif" font-size="10.00">max_31855_print_max31855</text>
<text xml:space="preserve" text-anchor="middle" x="70.25" y="-38.5" font-family="Helvetica,sans-Serif" font-size="10.00">_payload_binary</text>
</a>
</g>
</g>
<!-- Node2 -->
<g id="Node000002" class="node">
<title>Node2</title>
<g id="a_Node000002"><a xlink:href="MAX31855_8c.html#a64c227c2118d56f92d82fe64611b898f" target="_top" xlink:title="Print payload values in human&#45;readable format.">
<polygon fill="white" stroke="#666666" points="305.75,-127 176.5,-127 176.5,-107 305.75,-107 305.75,-127"/>
<text xml:space="preserve" text-anchor="middle" x="241.12" y="-113.5" font-family="Helvetica,sans-Serif" font-size="10.00">max_31855_print_payload</text>
</a>
</g>
</g>
<!-- Node1&#45;&gt;Node2 -->
<g id="edge1_Node000001_Node000002" class="edge">
<title>Node1&#45;&gt;Node2</title>
<g id="a_edge1_Node000001_Node000002"><a xlink:title=" ">
<path fill="none" stroke="#63b8ff" d="M111.27,-64.35C139.39,-75.84 176.69,-91.08 203.92,-102.21"/>
<polygon fill="#63b8ff" stroke="#63b8ff" points="202.57,-105.44 213.16,-105.98 205.22,-98.96 202.57,-105.44"/>
</a>
</g>
</g>
<!-- Node9 -->
<g id="Node000009" class="node">
<title>Node9</title>
<g id="a_Node000009"><a xlink:href="MAX31855_8c.html#a255e62e8f5383162625bc54a312e5e6b" target="_top" xlink:title="Print raw payload bytes in binary format.">
<polygon fill="white" stroke="#666666" points="468.38,-32 360.88,-32 360.88,0 468.38,0 468.38,-32"/>
<text xml:space="preserve" text-anchor="start" x="368.88" y="-18.5" font-family="Helvetica,sans-Serif" font-size="10.00">print_raw_payload_in</text>
<text xml:space="preserve" text-anchor="middle" x="414.62" y="-6.5" font-family="Helvetica,sans-Serif" font-size="10.00">_binary</text>
</a>
</g>
</g>
<!-- Node1&#45;&gt;Node9 -->
<g id="edge11_Node000001_Node000009" class="edge">
<title>Node1&#45;&gt;Node9</title>
<g id="a_edge11_Node000001_Node000009"><a xlink:title=" ">
<path fill="none" stroke="#63b8ff" d="M140.83,-43.08C187.52,-39.6 250.38,-34.58 305.75,-29 319.82,-27.58 334.9,-25.88 349.19,-24.18"/>
<polygon fill="#63b8ff" stroke="#63b8ff" points="349.44,-27.68 358.95,-23.01 348.6,-20.73 349.44,-27.68"/>
</a>
</g>
</g>
<!-- Node11 -->
<g id="Node000011" class="node">
<title>Node11</title>
<g id="a_Node000011"><a xlink:href="MAX31855_8c.html#a4ec938e8d1bd835ea8d1490fca7cca8c" target="_top" xlink:title="Print a value in binary format with specified number of bits.">
<polygon fill="white" stroke="#666666" points="274.25,-20 208,-20 208,0 274.25,0 274.25,-20"/>
<text xml:space="preserve" text-anchor="middle" x="241.12" y="-6.5" font-family="Helvetica,sans-Serif" font-size="10.00">print_binary</text>
</a>
</g>
</g>
<!-- Node1&#45;&gt;Node11 -->
<g id="edge10_Node000001_Node000011" class="edge">
<title>Node1&#45;&gt;Node11</title>
<g id="a_edge10_Node000001_Node000011"><a xlink:title=" ">
<path fill="none" stroke="#63b8ff" d="M140.91,-32.32C159.66,-28.11 179.42,-23.66 196.32,-19.86"/>
<polygon fill="#63b8ff" stroke="#63b8ff" points="197.05,-23.28 206.04,-17.67 195.52,-16.45 197.05,-23.28"/>
</a>
</g>
</g>
<!-- Node3 -->
<g id="Node000003" class="node">
<title>Node3</title>
<g id="a_Node000003"><a xlink:href="MAX31855_8h.html#a73a05388dec5b14617bec24b170f1f00" target="_top" xlink:title="Get reference junction temperature fractional value.">
<polygon fill="white" stroke="#666666" points="486.75,-260 342.5,-260 342.5,-240 486.75,-240 486.75,-260"/>
<text xml:space="preserve" text-anchor="middle" x="414.62" y="-246.5" font-family="Helvetica,sans-Serif" font-size="10.00">max31855_get_int_temp_frac</text>
</a>
</g>
</g>
<!-- Node2&#45;&gt;Node3 -->
<g id="edge2_Node000002_Node000003" class="edge">
<title>Node2&#45;&gt;Node3</title>
<g id="a_edge2_Node000002_Node000003"><a xlink:title=" ">
<path fill="none" stroke="#63b8ff" d="M248.13,-127.34C261.76,-149.83 297.31,-203.42 341.75,-231 344.06,-232.44 346.48,-233.76 348.98,-234.99"/>
<polygon fill="#63b8ff" stroke="#63b8ff" points="347.59,-238.21 358.16,-238.91 350.34,-231.77 347.59,-238.21"/>
</a>
</g>
</g>
<!-- Node4 -->
<g id="Node000004" class="node">
<title>Node4</title>
<g id="a_Node000004"><a xlink:href="MAX31855_8h.html#a8c5296623761ea4a791c26371a69daac" target="_top" xlink:title="Get reference junction (internal) temperature sign.">
<polygon fill="white" stroke="#666666" points="487.5,-222 341.75,-222 341.75,-202 487.5,-202 487.5,-222"/>
<text xml:space="preserve" text-anchor="middle" x="414.62" y="-208.5" font-family="Helvetica,sans-Serif" font-size="10.00">max31855_get_int_temp_sign</text>
</a>
</g>
</g>
<!-- Node2&#45;&gt;Node4 -->
<g id="edge3_Node000002_Node000004" class="edge">
<title>Node2&#45;&gt;Node4</title>
<g id="a_edge3_Node000002_Node000004"><a xlink:title=" ">
<path fill="none" stroke="#63b8ff" d="M252.8,-127.48C270.06,-143.84 305.8,-175.41 341.75,-193 345.28,-194.73 348.98,-196.31 352.77,-197.76"/>
<polygon fill="#63b8ff" stroke="#63b8ff" points="351.57,-201.05 362.16,-201.01 353.86,-194.43 351.57,-201.05"/>
</a>
</g>
</g>
<!-- Node5 -->
<g id="Node000005" class="node">
<title>Node5</title>
<g id="a_Node000005"><a xlink:href="MAX31855_8h.html#a9bae7c58c8d04bcdc770fbaf0cf80630" target="_top" xlink:title="Get reference junction temperature integer value.">
<polygon fill="white" stroke="#666666" points="484.88,-184 344.38,-184 344.38,-164 484.88,-164 484.88,-184"/>
<text xml:space="preserve" text-anchor="middle" x="414.62" y="-170.5" font-family="Helvetica,sans-Serif" font-size="10.00">max31855_get_int_temp_val</text>
</a>
</g>
</g>
<!-- Node2&#45;&gt;Node5 -->
<g id="edge4_Node000002_Node000005" class="edge">
<title>Node2&#45;&gt;Node5</title>
<g id="a_edge4_Node000002_Node000005"><a xlink:title=" ">
<path fill="none" stroke="#63b8ff" d="M267.25,-127.43C287.24,-135.52 316.02,-146.72 341.75,-155 347.81,-156.95 354.2,-158.86 360.58,-160.66"/>
<polygon fill="#63b8ff" stroke="#63b8ff" points="359.19,-163.91 369.76,-163.19 361.05,-157.16 359.19,-163.91"/>
</a>
</g>
</g>
<!-- Node6 -->
<g id="Node000006" class="node">
<title>Node6</title>
<g id="a_Node000006"><a xlink:href="MAX31855_8c.html#a8096a25192db1bec7c8f7974724052f4" target="_top" xlink:title="Get thermocouple temperature fractional value.">
<polygon fill="white" stroke="#666666" points="478.88,-146 350.38,-146 350.38,-126 478.88,-126 478.88,-146"/>
<text xml:space="preserve" text-anchor="middle" x="414.62" y="-132.5" font-family="Helvetica,sans-Serif" font-size="10.00">max31855_get_temp_frac</text>
</a>
</g>
</g>
<!-- Node2&#45;&gt;Node6 -->
<g id="edge5_Node000002_Node000006" class="edge">
<title>Node2&#45;&gt;Node6</title>
<g id="a_edge5_Node000002_Node000006"><a xlink:title=" ">
<path fill="none" stroke="#63b8ff" d="M305.99,-124.07C316.66,-125.26 327.82,-126.49 338.74,-127.7"/>
<polygon fill="#63b8ff" stroke="#63b8ff" points="338.17,-131.16 348.49,-128.78 338.94,-124.2 338.17,-131.16"/>
</a>
</g>
</g>
<!-- Node7 -->
<g id="Node000007" class="node">
<title>Node7</title>
<g id="a_Node000007"><a xlink:href="MAX31855_8c.html#a49efeafd115179b8de90f96c540b7a94" target="_top" xlink:title="Get thermocouple temperature sign.">
<polygon fill="white" stroke="#666666" points="479.62,-108 349.62,-108 349.62,-88 479.62,-88 479.62,-108"/>
<text xml:space="preserve" text-anchor="middle" x="414.62" y="-94.5" font-family="Helvetica,sans-Serif" font-size="10.00">max31855_get_temp_sign</text>
</a>
</g>
</g>
<!-- Node2&#45;&gt;Node7 -->
<g id="edge6_Node000002_Node000007" class="edge">
<title>Node2&#45;&gt;Node7</title>
<g id="a_edge6_Node000002_Node000007"><a xlink:title=" ">
<path fill="none" stroke="#63b8ff" d="M305.99,-109.93C316.34,-108.78 327.14,-107.58 337.75,-106.41"/>
<polygon fill="#63b8ff" stroke="#63b8ff" points="338.08,-109.89 347.64,-105.31 337.31,-102.93 338.08,-109.89"/>
</a>
</g>
</g>
<!-- Node8 -->
<g id="Node000008" class="node">
<title>Node8</title>
<g id="a_Node000008"><a xlink:href="MAX31855_8c.html#a48789df725799c99959eccdc8f9012a3" target="_top" xlink:title="Get thermocouple temperature integer value.">
<polygon fill="white" stroke="#666666" points="477,-70 352.25,-70 352.25,-50 477,-50 477,-70"/>
<text xml:space="preserve" text-anchor="middle" x="414.62" y="-56.5" font-family="Helvetica,sans-Serif" font-size="10.00">max31855_get_temp_val</text>
</a>
</g>
</g>
<!-- Node2&#45;&gt;Node8 -->
<g id="edge7_Node000002_Node000008" class="edge">
<title>Node2&#45;&gt;Node8</title>
<g id="a_edge7_Node000002_Node000008"><a xlink:title=" ">
<path fill="none" stroke="#63b8ff" d="M267.25,-106.57C287.24,-98.48 316.02,-87.28 341.75,-79 347.81,-77.05 354.2,-75.14 360.58,-73.34"/>
<polygon fill="#63b8ff" stroke="#63b8ff" points="361.05,-76.84 369.76,-70.81 359.19,-70.09 361.05,-76.84"/>
</a>
</g>
</g>
<!-- Node2&#45;&gt;Node9 -->
<g id="edge8_Node000002_Node000009" class="edge">
<title>Node2&#45;&gt;Node9</title>
<g id="a_edge8_Node000002_Node000009"><a xlink:title=" ">
<path fill="none" stroke="#63b8ff" d="M253.25,-106.58C270.84,-90.59 306.68,-59.85 341.75,-41 344.44,-39.55 347.23,-38.17 350.08,-36.84"/>
<polygon fill="#63b8ff" stroke="#63b8ff" points="351.42,-40.07 359.2,-32.88 348.63,-33.65 351.42,-40.07"/>
</a>
</g>
</g>
<!-- Node10 -->
<g id="Node000010" class="node">
<title>Node10</title>
<g id="a_Node000010"><a xlink:href="MAX31855_8c.html#a66830c733bd0ae54bed889647a1286d2" target="_top" xlink:title="Print a single byte in binary format.">
<polygon fill="white" stroke="#666666" points="600.25,-26 523.5,-26 523.5,-6 600.25,-6 600.25,-26"/>
<text xml:space="preserve" text-anchor="middle" x="561.88" y="-12.5" font-family="Helvetica,sans-Serif" font-size="10.00">print_binary_2</text>
</a>
</g>
</g>
<!-- Node9&#45;&gt;Node10 -->
<g id="edge9_Node000009_Node000010" class="edge">
<title>Node9&#45;&gt;Node10</title>
<g id="a_edge9_Node000009_Node000010"><a xlink:title=" ">
<path fill="none" stroke="#63b8ff" d="M468.47,-16C482.67,-16 497.96,-16 511.93,-16"/>
<polygon fill="#63b8ff" stroke="#63b8ff" points="511.79,-19.5 521.79,-16 511.79,-12.5 511.79,-19.5"/>
</a>
</g>
</g>
</g>
</svg>
