<?xml version="1.0" encoding="UTF-8" standalone="no"?>
<!DOCTYPE svg PUBLIC "-//W3C//DTD SVG 1.1//EN"
 "http://www.w3.org/Graphics/SVG/1.1/DTD/svg11.dtd">
<!-- Generated by graphviz version 14.1.2 (0)
 -->
<!-- Title: max31855_get_int_temp_val Pages: 1 -->
<svg width="490pt" height="40pt"
 viewBox="0.00 0.00 490.00 40.00" xmlns="http://www.w3.org/2000/svg" xmlns:xlink="http://www.w3.org/1999/xlink">
<g id="graph0" class="graph" transform="scale(1 1) rotate(0) translate(4 36)">
<title>max31855_get_int_temp_val</title>
<!-- Node1 -->
<g id="Node000001" class="node">
<title>Node1</title>
<g id="a_Node000001"><a xlink:title="Get reference junction temperature integer value.">
<polygon fill="#999999" stroke="#666666" points="482.25,-26 341.75,-26 341.75,-6 482.25,-6 482.25,-26"/>
<text xml:space="preserve" text-anchor="middle" x="412" y="-12.5" font-family="Helvetica,sans-Serif" font-size="10.00">max31855_get_int_temp_val</text>
</a>
</g>
</g>
<!-- Node2 -->
<g id="Node000002" class="node">
<title>Node2</title>
<g id="a_Node000002"><a xlink:href="MAX31855_8c.html#a64c227c2118d56f92d82fe64611b898f" target="_top" xlink:title="Print payload values in human&#45;readable format.">
<polygon fill="white" stroke="#666666" points="305.75,-26 176.5,-26 176.5,-6 305.75,-6 305.75,-26"/>
<text xml:space="preserve" text-anchor="middle" x="241.12" y="-12.5" font-family="Helvetica,sans-Serif" font-size="10.00">max_31855_print_payload</text>
</a>
</g>
</g>
<!-- Node1&#45;&gt;Node2 -->
<g id="edge1_Node000001_Node000002" class="edge">
<title>Node1&#45;&gt;Node2</title>
<g id="a_edge1_Node000001_Node000002"><a xlink:title=" ">
<path fill="none" stroke="#63b8ff" d="M330.07,-16C322.06,-16 314.01,-16 306.21,-16"/>
<polygon fill="#63b8ff" stroke="#63b8ff" points="329.82,-19.5 339.82,-16 329.82,-12.5 329.82,-19.5"/>
</a>
</g>
</g>
<!-- Node3 -->
<g id="Node000003" class="node">
<title>Node3</title>
<g id="a_Node000003"><a xlink:href="MAX31855_8c.html#ae07dd9d652d3357d25fb9f48728c0d1e" target="_top" xlink:title="Print all payload fields in binary format.">
<polygon fill="white" stroke="#666666" points="140.5,-32 0,-32 0,0 140.5,0 140.5,-32"/>
<text xml:space="preserve" text-anchor="start" x="8" y="-18.5" font-family="Helvetica,sans-Serif" font-size="10.00">max_31855_print_max31855</text>
<text xml:space="preserve" text-anchor="middle" x="70.25" y="-6.5" font-family="Helvetica,sans-Serif" font-size="10.00">_payload_binary</text>
</a>
</g>
</g>
<!-- Node2&#45;&gt;Node3 -->
<g id="edge2_Node000002_Node000003" class="edge">
<title>Node2&#45;&gt;Node3</title>
<g id="a_edge2_Node000002_Node000003"><a xlink:title=" ">
<path fill="none" stroke="#63b8ff" d="M165.01,-16C156.97,-16 148.81,-16 140.83,-16"/>
<polygon fill="#63b8ff" stroke="#63b8ff" points="164.77,-19.5 174.77,-16 164.77,-12.5 164.77,-19.5"/>
</a>
</g>
</g>
</g>
</svg>
