<?xml version="1.0" encoding="UTF-8" standalone="no"?>
<!DOCTYPE svg PUBLIC "-//W3C//DTD SVG 1.1//EN"
 "http://www.w3.org/Graphics/SVG/1.1/DTD/svg11.dtd">
<!-- Generated by graphviz version 14.1.2 (0)
 -->
<!-- Title: max_31855_print_max31855_payload_binary Pages: 1 -->
<!--zoomable 268 -->

<svg id="main" version="1.1" xmlns="http://www.w3.org/2000/svg" xmlns:xlink="http://www.w3.org/1999/xlink" xml:space="preserve" onload="init(evt)">

<style type="text/css"><![CDATA[
.node, .edge {opacity: 0.7;}
.node.selected, .edge.selected {opacity: 1;}
.edge:hover path { stroke: red; }
.edge:hover polygon { stroke: red; fill: red; }
]]></style>

<defs>
  <circle id="rim" cx="0" cy="0" r="7"/>
  <circle id="rim2" cx="0" cy="0" r="3.5"/>
  <g id="zoomPlus">
    <use xlink:href="#rim" fill="#404040"><set attributeName="fill" to="#808080" begin="zoomplus.mouseover" end="zoomplus.mouseout"/></use>
    <path d="M-4,0h8M0,-4v8" fill="none" stroke="white" stroke-width="1.5" pointer-events="none"/>
  </g>
  <g id="zoomMin">
    <use xlink:href="#rim" fill="#404040"><set attributeName="fill" to="#808080" begin="zoomminus.mouseover" end="zoomminus.mouseout"/></use>
    <path d="M-4,0h8" fill="none" stroke="white" stroke-width="1.5" pointer-events="none"/>
  </g>
  <g id="arrowUp" transform="translate(30 24)">
    <use xlink:href="#rim"/>
    <path pointer-events="none" fill="none" stroke="white" stroke-width="1.5" d="M0,-3.0v7 M-2.5,-0.5L0,-3.0L2.5,-0.5"/>
  </g>
  <g id="arrowRight" transform="rotate(90) translate(36 -43)">
    <use xlink:href="#rim"/>
    <path pointer-events="none" fill="none" stroke="white" stroke-width="1.5" d="M0,-3.0v7 M-2.5,-0.5L0,-3.0L2.5,-0.5"/>
  </g>
  <g id="arrowDown" transform="rotate(180) translate(-30 -48)">
    <use xlink:href="#rim"/>
    <path pointer-events="none" fill="none" stroke="white" stroke-width="1.5" d="M0,-3.0v7 M-2.5,-0.5L0,-3.0L2.5,-0.5"/>
  </g>
  <g id="arrowLeft" transform="rotate(270) translate(-36 17)">
    <use xlink:href="#rim"/>
    <path pointer-events="none" fill="none" stroke="white" stroke-width="1.5" d="M0,-3.0v7 M-2.5,-0.5L0,-3.0L2.5,-0.5"/>
  </g>
  <g id="resetDef">
    <use xlink:href="#rim2" fill="#404040"><set attributeName="fill" to="#808080" begin="reset.mouseover" end="reset.mouseout"/></use>
  </g>
</defs>
<script type="application/ecmascript">
var viewWidth = 608;
var viewHeight = 268;
var sectionId = 'dynsection-10';
</script>
<script type="application/ecmascript" xlink:href="svg.min.js"/>
<svg id="graph" class="graph">
<g id="viewport">
<title>max_31855_print_max31855_payload_binary</title>
<!-- Node1 -->
<g id="Node000001" class="node">
<title>Node1</title>
<g id="a_Node000001"><a xlink:title="Print all payload fields in binary format.">
<polygon fill="#999999" stroke="#666666" points="140.5,-64 0,-64 0,-32 140.5,-32 140.5,-64"/>
<text xml:space="preserve" text-anchor="start" x="8" y="-50.5" font-family="Helvetica,sans-Serif" font-size="10.00">max_31855_print_max31855</text>
<text xml:space="preserve" text-anchor="middle" x="70.25" y="-38.5" font-family="Helvetica,sans-Serif" font-size="10.00">_payload_binary</text>
</a>
</g>
</g>
<!-- Node2 -->
<g id="Node000002" class="node">
<title>Node2</title>
<g id="a_Node000002"><a xlink:href="MAX31855_8c.html#a64c227c2118d56f92d82fe64611b898f" target="_top" xlink:title="Print payload values in human&#45;readable format.">
<polygon fill="white" stroke="#666666" points="305.75,-127 176.5,-127 176.5,-107 305.75,-107 305.75,-127"/>
<text xml:space="preserve" text-anchor="middle" x="241.12" y="-113.5" font-family="Helvetica,sans-Serif" font-size="10.00">max_31855_print_payload</text>
</a>
</g>
</g>
<!-- Node1&#45;&gt;Node2 -->
<g id="edge1_Node000001_Node000002" class="edge">
<title>Node1&#45;&gt;Node2</title>
<g id="a_edge1_Node000001_Node000002"><a xlink:title=" ">
<path fill="none" stroke="#63b8ff" d="M111.27,-64.35C139.39,-75.84 176.69,-91.08 203.92,-102.21"/>
<polygon fill="#63b8ff" stroke="#63b8ff" points="202.57,-105.44 213.16,-105.98 205.22,-98.96 202.57,-105.44"/>
</a>
</g>
</g>
<!-- Node9 -->
<g id="Node000009" class="node">
<title>Node9</title>
<g id="a_Node000009"><a xlink:href="MAX31855_8c.html#a255e62e8f5383162625bc54a312e5e6b" target="_top" xlink:title="Print raw payload bytes in binary format.">
<polygon fill="white" stroke="#666666" points="468.38,-32 360.88,-32 360.88,0 468.38,0 468.38,-32"/>
<text xml:space="preserve" text-anchor="start" x="368.88" y="-18.5" font-family="Helvetica,sans-Serif" font-size="10.00">print_raw_payload_in</text>
<text xml:space="preserve" text-anchor="middle" x="414.62" y="-6.5" font-family="Helvetica,sans-Serif" font-size="10.00">_binary</text>
</a>
</g>
</g>
<!-- Node1&#45;&gt;Node9 -->
<g id="edge11_Node000001_Node000009" class="edge">
<title>Node1&#45;&gt;Node9</title>
<g id="a_edge11_Node000001_Node000009"><a xlink:title=" ">
<path fill="none" stroke="#63b8ff" d="M140.83,-43.08C187.52,-39.6 250.38,-34.58 305.75,-29 319.82,-27.58 334.9,-25.88 349.19,-24.18"/>
<polygon fill="#63b8ff" stroke="#63b8ff" points="349.44,-27.68 358.95,-23.01 348.6,-20.73 349.44,-27.68"/>
</a>
</g>
</g>
<!-- Node11 -->
<g id="Node000011" class="node">
<title>Node11</title>
<g id="a_Node000011"><a xlink:href="MAX31855_8c.html#a4ec938e8d1bd835ea8d1490fca7cca8c" target="_top" xlink:title="Print a value in binary format with specified number of bits.">
<polygon fill="white" stroke="#666666" points="274.25,-20 208,-20 208,0 274.25,0 274.25,-20"/>
<text xml:space="preserve" text-anchor="middle" x="241.12" y="-6.5" font-family="Helvetica,sans-Serif" font-size="10.00">print_binary</text>
</a>
</g>
</g>
<!-- Node1&#45;&gt;Node11 -->
<g id="edge10_Node000001_Node000011" class="edge">
<title>Node1&#45;&gt;Node11</title>
<g id="a_edge10_Node000001_Node000011"><a xlink:title=" ">
<path fill="none" stroke="#63b8ff" d="M140.91,-32.32C159.66,-28.11 179.42,-23.66 196.32,-19.86"/>
<polygon fill="#63b8ff" stroke="#63b8ff" points="197.05,-23.28 206.04,-17.67 195.52,-16.45 197.05,-23.28"/>
</a>
</g>
</g>
<!-- Node3 -->
<g id="Node000003" class="node">
<title>Node3</title>
<g id="a_Node000003"><a xlink:href="MAX31855_8h.html#a73a05388dec5b14617bec24b170f1f00" target="_top" xlink:title="Get reference junction temperature fractional value.">
<polygon fill="white" stroke="#666666" points="486.75,-260 342.5,-260 342.5,-240 486.75,-240 486.75,-260"/>
<text xml:space="preserve" text-anchor="middle" x="414.62" y="-246.5" font-family="Helvetica,sans-Serif" font-size="10.00">max31855_get_int_temp_frac</text>
</a>
</g>
</g>
<!-- Node2&#45;&gt;Node3 -->
<g id="edge2_Node000002_Node000003" class="edge">
<title>Node2&#45;&gt;Node3</title>
<g id="a_edge2_Node000002_Node000003"><a xlink:title=" ">
<path fill="none" stroke="#63b8ff" d="M248.13,-127.34C261.76,-149.83 297.31,-203.42 341.75,-231 344.06,-232.44 346.48,-233.76 348.98,-234.99"/>
<polygon fill="#63b8ff" stroke="#63b8ff" points="347.59,-238.21 358.16,-238.91 350.34,-231.77 347.59,-238.21"/>
</a>
</g>
</g>
<!-- Node4 -->
<g id="Node000004" class="node">
<title>Node4</title>
<g id="a_Node000004"><a xlink:href="MAX31855_8h.html#a8c5296623761ea4a791c26371a69daac" target="_top" xlink:title="Get reference junction (internal) temperature sign.">
<polygon fill="white" stroke="#666666" points="487.5,-222 341.75,-222 341.75,-202 487.5,-202 487.5,-222"/>
<text xml:space="preserve" text-anchor="middle" x="414.62" y="-208.5" font-family="Helvetica,sans-Serif" font-size="10.00">max31855_get_int_temp_sign</text>
</a>
</g>
</g>
<!-- Node2&#45;&gt;Node4 -->
<g id="edge3_Node000002_Node000004" class="edge">
<title>Node2&#45;&gt;Node4</title>
<g id="a_edge3_Node000002_Node000004"><a xlink:title=" ">
<path fill="none" stroke="#63b8ff" d="M252.8,-127.48C270.06,-143.84 305.8,-175.41 341.75,-193 345.28,-194.73 348.98,-196.31 352.77,-197.76"/>
<polygon fill="#63b8ff" stroke="#63b8ff" points="351.57,-201.05 362.16,-201.01 353.86,-194.43 351.57,-201.05"/>
</a>
</g>
</g>
<!-- Node5 -->
<g id="Node000005" class="node">
<title>Node5</title>
<g id="a_Node000005"><a xlink:href="MAX31855_8h.html#a9bae7c58c8d04bcdc770fbaf0cf80630" target="_top" xlink:title="Get reference junction temperature integer value.">
<polygon fill="white" stroke="#666666" points="484.88,-184 344.38,-184 344.38,-164 484.88,-164 484.88,-184"/>
<text xml:space="preserve" text-anchor="middle" x="414.62" y="-170.5" font-family="Helvetica,sans-Serif" font-size="10.00">max31855_get_int_temp_val</text>
</a>
</g>
</g>
<!-- Node2&#45;&gt;Node5 -->
<g id="edge4_Node000002_Node000005" class="edge">
<title>Node2&#45;&gt;Node5</title>
<g id="a_edge4_Node000002_Node000005"><a xlink:title=" ">
<path fill="none" stroke="#63b8ff" d="M267.25,-127.43C287.24,-135.52 316.02,-146.72 341.75,-155 347.81,-156.95 354.2,-158.86 360.58,-160.66"/>
<polygon fill="#63b8ff" stroke="#63b8ff" points="359.19,-163.91 369.76,-163.19 361.05,-157.16 359.19,-163.91"/>
</a>
</g>
</g>
<!-- Node6 -->
<g id="Node000006" class="node">
<title>Node6</title>
<g id="a_Node000006"><a xlink:href="MAX31855_8c.html#a8096a25192db1bec7c8f7974724052f4" target="_top" xlink:title="Get thermocouple temperature fractional value.">
<polygon fill="white" stroke="#666666" points="478.88,-146 350.38,-146 350.38,-126 478.88,-126 478.88,-146"/>
<text xml:space="preserve" text-anchor="middle" x="414.62" y="-132.5" font-family="Helvetica,sans-Serif" font-size="10.00">max31855_get_temp_frac</text>
</a>
</g>
</g>
<!-- Node2&#45;&gt;Node6 -->
<g id="edge5_Node000002_Node000006" class="edge">
<title>Node2&#45;&gt;Node6</title>
<g id="a_edge5_Node000002_Node000006"><a xlink:title=" ">
<path fill="none" stroke="#63b8ff" d="M305.99,-124.07C316.66,-125.26 327.82,-126.49 338.74,-127.7"/>
<polygon fill="#63b8ff" stroke="#63b8ff" points="338.17,-131.16 348.49,-128.78 338.94,-124.2 338.17,-131.16"/>
</a>
</g>
</g>
<!-- Node7 -->
<g id="Node000007" class="node">
<title>Node7</title>
<g id="a_Node000007"><a xlink:href="MAX31855_8c.html#a49efeafd115179b8de90f96c540b7a94" target="_top" xlink:title="Get thermocouple temperature sign.">
<polygon fill="white" stroke="#666666" points="479.62,-108 349.62,-108 349.62,-88 479.62,-88 479.62,-108"/>
<text xml:space="preserve" text-anchor="middle" x="414.62" y="-94.5" font-family="Helvetica,sans-Serif" font-size="10.00">max31855_get_temp_sign</text>
</a>
</g>
</g>
<!-- Node2&#45;&gt;Node7 -->
<g id="edge6_Node000002_Node000007" class="edge">
<title>Node2&#45;&gt;Node7</title>
<g id="a_edge6_Node000002_Node000007"><a xlink:title=" ">
<path fill="none" stroke="#63b8ff" d="M305.99,-109.93C316.34,-108.78 327.14,-107.58 337.75,-106.41"/>
<polygon fill="#63b8ff" stroke="#63b8ff" points="338.08,-109.89 347.64,-105.31 337.31,-102.93 338.08,-109.89"/>
</a>
</g>
</g>
<!-- Node8 -->
<g id="Node000008" class="node">
<title>Node8</title>
<g id="a_Node000008"><a xlink:href="MAX31855_8c.html#a48789df725799c99959eccdc8f9012a3" target="_top" xlink:title="Get thermocouple temperature integer value.">
<polygon fill="white" stroke="#666666" points="477,-70 352.25,-70 352.25,-50 477,-50 477,-70"/>
<text xml:space="preserve" text-anchor="middle" x="414.62" y="-56.5" font-family="Helvetica,sans-Serif" font-size="10.00">max31855_get_temp_val</text>
</a>
</g>
</g>
<!-- Node2&#45;&gt;Node8 -->
<g id="edge7_Node000002_Node000008" class="edge">
<title>Node2&#45;&gt;Node8</title>
<g id="a_edge7_Node000002_Node000008"><a xlink:title=" ">
<path fill="none" stroke="#63b8ff" d="M267.25,-106.57C287.24,-98.48 316.02,-87.28 341.75,-79 347.81,-77.05 354.2,-75.14 360.58,-73.34"/>
<polygon fill="#63b8ff" stroke="#63b8ff" points="361.05,-76.84 369.76,-70.81 359.19,-70.09 361.05,-76.84"/>
</a>
</g>
</g>
<!-- Node2&#45;&gt;Node9 -->
<g id="edge8_Node000002_Node000009" class="edge">
<title>Node2&#45;&gt;Node9</title>
<g id="a_edge8_Node000002_Node000009"><a xlink:title=" ">
<path fill="none" stroke="#63b8ff" d="M253.25,-106.58C270.84,-90.59 306.68,-59.85 341.75,-41 344.44,-39.55 347.23,-38.17 350.08,-36.84"/>
<polygon fill="#63b8ff" stroke="#63b8ff" points="351.42,-40.07 359.2,-32.88 348.63,-33.65 351.42,-40.07"/>
</a>
</g>
</g>
<!-- Node10 -->
<g id="Node000010" class="node">
<title>Node10</title>
<g id="a_Node000010"><a xlink:href="MAX31855_8c.html#a66830c733bd0ae54bed889647a1286d2" target="_top" xlink:title="Print a single byte in binary format.">
<polygon fill="white" stroke="#666666" points="600.25,-26 523.5,-26 523.5,-6 600.25,-6 600.25,-26"/>
<text xml:space="preserve" text-anchor="middle" x="561.88" y="-12.5" font-family="Helvetica,sans-Serif" font-size="10.00">print_binary_2</text>
</a>
</g>
</g>
<!-- Node9&#45;&gt;Node10 -->
<g id="edge9_Node000009_Node000010" class="edge">
<title>Node9&#45;&gt;Node10</title>
<g id="a_edge9_Node000009_Node000010"><a xlink:title=" ">
<path fill="none" stroke="#63b8ff" d="M468.47,-16C482.67,-16 497.96,-16 511.93,-16"/>
<polygon fill="#63b8ff" stroke="#63b8ff" points="511.79,-19.5 521.79,-16 511.79,-12.5 511.79,-19.5"/>
</a>
</g>
</g>
</g>
</svg>

<g id="navigator" transform="translate(0 0)" fill="#404254">
  <rect fill="#f2f5e9" fill-opacity="0.5" stroke="#606060" stroke-width=".5" x="0" y="0" width="60" height="60"/>
  <use id="zoomplus" xlink:href="#zoomPlus" x="17" y="9" onmousedown="handleZoom(evt,'in')"/>
  <use id="zoomminus" xlink:href="#zoomMin" x="42" y="9" onmousedown="handleZoom(evt,'out')"/>
  <use id="reset" xlink:href="#resetDef" x="30" y="36" onmousedown="handleReset()"/>
   <use id="arrowup" xlink:href="#arrowUp" x="0" y="0" onmousedown="handlePan(0,-1)"/>
  <use id="arrowright" xlink:href="#arrowRight" x="0" y="0" onmousedown="handlePan(1,0)"/>
  <use id="arrowdown" xlink:href="#arrowDown" x="0" y="0" onmousedown="handlePan(0,1)"/>
  <use id="arrowleft" xlink:href="#arrowLeft" x="0" y="0" onmousedown="handlePan(-1,0)"/>
</g>
<svg viewBox="0 0 15 15" width="100%" height="30px" preserveAspectRatio="xMaxYMin meet">
 <g id="arrow_out" transform="scale(0.3 0.3)">
  <a xlink:href="MAX31855_8c_ae07dd9d652d3357d25fb9f48728c0d1e_cgraph_org.svg" target="_base">
   <rect id="button" ry="5" rx="5" y="6" x="6" height="38" width="38"
        fill="#f2f5e9" fill-opacity="0.5" stroke="#606060" stroke-width="1.0"/>
   <path id="arrow"
     d="M 11.500037,31.436501 C 11.940474,20.09759 22.043105,11.32322 32.158766,21.979434 L 37.068811,17.246167 C 37.068811,17.246167 37.088388,32 37.088388,32 L 22.160133,31.978069 C 22.160133,31.978069 26.997745,27.140456 26.997745,27.140456 C 18.528582,18.264221 13.291696,25.230495 11.500037,31.436501 z"
     style="fill:#404040;"/>
  </a>
 </g>
</svg>

<style type='text/css'>
<![CDATA[
[data-mouse-over-selected='false'] { opacity: 0.7; }
[data-mouse-over-selected='true']  { opacity: 1.0; }
]]>
</style>
<script type="application/ecmascript"><![CDATA[
document.addEventListener('DOMContentLoaded', (event) => {
  highlightEdges();
  highlightAdjacentNodes();
});
]]></script>
</svg>
