<?xml version="1.0" encoding="UTF-8" standalone="no"?>
<!DOCTYPE svg PUBLIC "-//W3C//DTD SVG 1.1//EN"
 "http://www.w3.org/Graphics/SVG/1.1/DTD/svg11.dtd">
<!-- Generated by graphviz version 14.1.2 (0)
 -->
<!-- Title: Core/Inc/MAX31855.h Pages: 1 -->
<svg width="187pt" height="140pt"
 viewBox="0.00 0.00 187.00 140.00" xmlns="http://www.w3.org/2000/svg" xmlns:xlink="http://www.w3.org/1999/xlink">
<g id="graph0" class="graph" transform="scale(1 1) rotate(0) translate(4 136)">
<title>Core/Inc/MAX31855.h</title>
<!-- Node1 -->
<g id="Node000001" class="node">
<title>Node1</title>
<g id="a_Node000001"><a xlink:title="MAX31855 thermocouple&#45;to&#45;digital converter driver.">
<polygon fill="#999999" stroke="#666666" points="126.38,-132 13.62,-132 13.62,-112 126.38,-112 126.38,-132"/>
<text xml:space="preserve" text-anchor="middle" x="70" y="-118.5" font-family="Helvetica,sans-Serif" font-size="10.00">Core/Inc/MAX31855.h</text>
</a>
</g>
</g>
<!-- Node1&#45;&gt;Node1 -->
<g id="edge5_Node000001_Node000001" class="edge">
<title>Node1&#45;&gt;Node1</title>
<g id="a_edge5_Node000001_Node000001"><a xlink:title=" ">
<path fill="none" stroke="#63b8ff" d="M126.75,-131.92C137.11,-130.67 144.38,-127.36 144.38,-122 144.38,-118.9 141.95,-116.49 137.9,-114.76"/>
<polygon fill="#63b8ff" stroke="#63b8ff" points="138.76,-111.37 128.22,-112.43 137.12,-118.18 138.76,-111.37"/>
</a>
</g>
</g>
<!-- Node2 -->
<g id="Node000002" class="node">
<title>Node2</title>
<g id="a_Node000002"><a xlink:title=" ">
<polygon fill="#e0e0e0" stroke="#999999" points="88,-20 0,-20 0,0 88,0 88,-20"/>
<text xml:space="preserve" text-anchor="middle" x="44" y="-6.5" font-family="Helvetica,sans-Serif" font-size="10.00">stm32f0xx_hal.h</text>
</a>
</g>
</g>
<!-- Node1&#45;&gt;Node2 -->
<g id="edge1_Node000001_Node000002" class="edge">
<title>Node1&#45;&gt;Node2</title>
<g id="a_edge1_Node000001_Node000002"><a xlink:title=" ">
<path fill="none" stroke="#63b8ff" d="M60.64,-111.63C52.88,-103.14 42.43,-89.88 38,-76 33.35,-61.44 35.27,-44.17 38.12,-31.1"/>
<polygon fill="#63b8ff" stroke="#63b8ff" points="41.48,-32.1 40.58,-21.54 34.7,-30.35 41.48,-32.1"/>
</a>
</g>
</g>
<!-- Node3 -->
<g id="Node000003" class="node">
<title>Node3</title>
<g id="a_Node000003"><a xlink:href="main_8h.html" target="_top" xlink:title=": Header for main.c file. This file contains the common defines of the application.">
<polygon fill="white" stroke="#666666" points="92.62,-76 47.38,-76 47.38,-56 92.62,-56 92.62,-76"/>
<text xml:space="preserve" text-anchor="middle" x="70" y="-62.5" font-family="Helvetica,sans-Serif" font-size="10.00">main.h</text>
</a>
</g>
</g>
<!-- Node1&#45;&gt;Node3 -->
<g id="edge2_Node000001_Node000003" class="edge">
<title>Node1&#45;&gt;Node3</title>
<g id="a_edge2_Node000001_Node000003"><a xlink:title=" ">
<path fill="none" stroke="#63b8ff" d="M70,-111.59C70,-105.01 70,-95.96 70,-87.73"/>
<polygon fill="#63b8ff" stroke="#63b8ff" points="73.5,-87.81 70,-77.81 66.5,-87.81 73.5,-87.81"/>
</a>
</g>
</g>
<!-- Node4 -->
<g id="Node000004" class="node">
<title>Node4</title>
<g id="a_Node000004"><a xlink:title=" ">
<polygon fill="#e0e0e0" stroke="#999999" points="178.88,-76 111.12,-76 111.12,-56 178.88,-56 178.88,-76"/>
<text xml:space="preserve" text-anchor="middle" x="145" y="-62.5" font-family="Helvetica,sans-Serif" font-size="10.00">arm_math.h</text>
</a>
</g>
</g>
<!-- Node1&#45;&gt;Node4 -->
<g id="edge4_Node000001_Node000004" class="edge">
<title>Node1&#45;&gt;Node4</title>
<g id="a_edge4_Node000001_Node000004"><a xlink:title=" ">
<path fill="none" stroke="#63b8ff" d="M83.06,-111.59C93.97,-103.74 109.75,-92.38 122.66,-83.09"/>
<polygon fill="#63b8ff" stroke="#63b8ff" points="124.54,-86.05 130.61,-77.36 120.45,-80.37 124.54,-86.05"/>
</a>
</g>
</g>
<!-- Node3&#45;&gt;Node2 -->
<g id="edge3_Node000003_Node000002" class="edge">
<title>Node3&#45;&gt;Node2</title>
<g id="a_edge3_Node000003_Node000002"><a xlink:title=" ">
<path fill="none" stroke="#63b8ff" d="M65.47,-55.59C62.15,-48.7 57.53,-39.1 53.42,-30.57"/>
<polygon fill="#63b8ff" stroke="#63b8ff" points="56.63,-29.15 49.13,-21.66 50.32,-32.19 56.63,-29.15"/>
</a>
</g>
</g>
</g>
</svg>
