<?xml version="1.0" encoding="UTF-8" standalone="no"?>
<!DOCTYPE svg PUBLIC "-//W3C//DTD SVG 1.1//EN"
 "http://www.w3.org/Graphics/SVG/1.1/DTD/svg11.dtd">
<!-- Generated by graphviz version 14.1.2 (0)
 -->
<!-- Title: max31855_get_temp_f32 Pages: 1 -->
<svg width="300pt" height="66pt"
 viewBox="0.00 0.00 300.00 66.00" xmlns="http://www.w3.org/2000/svg" xmlns:xlink="http://www.w3.org/1999/xlink">
<g id="graph0" class="graph" transform="scale(1 1) rotate(0) translate(4 62)">
<title>max31855_get_temp_f32</title>
<!-- Node1 -->
<g id="Node000001" class="node">
<title>Node1</title>
<g id="a_Node000001"><a xlink:title="Get thermocouple temperature as float32.">
<polygon fill="#999999" stroke="#666666" points="125.5,-39 0,-39 0,-19 125.5,-19 125.5,-39"/>
<text xml:space="preserve" text-anchor="middle" x="62.75" y="-25.5" font-family="Helvetica,sans-Serif" font-size="10.00">max31855_get_temp_f32</text>
</a>
</g>
</g>
<!-- Node2 -->
<g id="Node000002" class="node">
<title>Node2</title>
<g id="a_Node000002"><a xlink:href="MAX31855_8c.html#a49efeafd115179b8de90f96c540b7a94" target="_top" xlink:title="Get thermocouple temperature sign.">
<polygon fill="white" stroke="#666666" points="291.5,-58 161.5,-58 161.5,-38 291.5,-38 291.5,-58"/>
<text xml:space="preserve" text-anchor="middle" x="226.5" y="-44.5" font-family="Helvetica,sans-Serif" font-size="10.00">max31855_get_temp_sign</text>
</a>
</g>
</g>
<!-- Node1&#45;&gt;Node2 -->
<g id="edge1_Node000001_Node000002" class="edge">
<title>Node1&#45;&gt;Node2</title>
<g id="a_edge1_Node000001_Node000002"><a xlink:title=" ">
<path fill="none" stroke="#63b8ff" d="M125.82,-36.29C133.7,-37.22 141.82,-38.17 149.87,-39.12"/>
<polygon fill="#63b8ff" stroke="#63b8ff" points="149.34,-42.58 159.68,-40.27 150.15,-35.63 149.34,-42.58"/>
</a>
</g>
</g>
<!-- Node3 -->
<g id="Node000003" class="node">
<title>Node3</title>
<g id="a_Node000003"><a xlink:href="MAX31855_8c.html#a48789df725799c99959eccdc8f9012a3" target="_top" xlink:title="Get thermocouple temperature integer value.">
<polygon fill="white" stroke="#666666" points="288.88,-20 164.12,-20 164.12,0 288.88,0 288.88,-20"/>
<text xml:space="preserve" text-anchor="middle" x="226.5" y="-6.5" font-family="Helvetica,sans-Serif" font-size="10.00">max31855_get_temp_val</text>
</a>
</g>
</g>
<!-- Node1&#45;&gt;Node3 -->
<g id="edge2_Node000001_Node000003" class="edge">
<title>Node1&#45;&gt;Node3</title>
<g id="a_edge2_Node000001_Node000003"><a xlink:title=" ">
<path fill="none" stroke="#63b8ff" d="M125.82,-21.71C134.59,-20.68 143.68,-19.61 152.63,-18.56"/>
<polygon fill="#63b8ff" stroke="#63b8ff" points="152.83,-22.06 162.36,-17.42 152.02,-15.11 152.83,-22.06"/>
</a>
</g>
</g>
</g>
</svg>
