<?xml version="1.0" encoding="UTF-8" standalone="no"?>
<!DOCTYPE svg PUBLIC "-//W3C//DTD SVG 1.1//EN"
 "http://www.w3.org/Graphics/SVG/1.1/DTD/svg11.dtd">
<!-- Generated by graphviz version 14.1.2 (0)
 -->
<!-- Title: Core/Inc/MAX31855.h Pages: 1 -->
<svg width="305pt" height="140pt"
 viewBox="0.00 0.00 305.00 140.00" xmlns="http://www.w3.org/2000/svg" xmlns:xlink="http://www.w3.org/1999/xlink">

<svg id="main" version="1.1" xmlns="http://www.w3.org/2000/svg" xmlns:xlink="http://www.w3.org/1999/xlink" xml:space="preserve">

<style type="text/css"><![CDATA[
.node, .edge {opacity: 0.7;}
.node.selected, .edge.selected {opacity: 1;}
.edge:hover path { stroke: red; }
.edge:hover polygon { stroke: red; fill: red; }
]]></style>
<script type="application/ecmascript" xlink:href="svg.min.js"/>
<svg id="graph" class="graph">
<g id="graph0" class="graph" transform="scale(1 1) rotate(0) translate(4 136)">
<title>Core/Inc/MAX31855.h</title>
<!-- Node1 -->
<g id="Node000001" class="node">
<title>Node1</title>
<g id="a_Node000001"><a xlink:title="MAX31855 thermocouple&#45;to&#45;digital converter driver.">
<polygon fill="#999999" stroke="#666666" points="211,-132 98.25,-132 98.25,-112 211,-112 211,-132"/>
<text xml:space="preserve" text-anchor="middle" x="154.62" y="-118.5" font-family="Helvetica,sans-Serif" font-size="10.00">Core/Inc/MAX31855.h</text>
</a>
</g>
</g>
<!-- Node1&#45;&gt;Node1 -->
<g id="edge1_Node000001_Node000001" class="edge">
<title>Node1&#45;&gt;Node1</title>
<g id="a_edge1_Node000001_Node000001"><a xlink:title=" ">
<path fill="none" stroke="#63b8ff" d="M222.52,-129.24C226.57,-127.51 229,-125.1 229,-122 229,-116.64 221.73,-113.33 211.37,-112.08"/>
<polygon fill="#63b8ff" stroke="#63b8ff" points="221.75,-125.82 212.85,-131.57 223.39,-132.63 221.75,-125.82"/>
</a>
</g>
</g>
<!-- Node2 -->
<g id="Node000002" class="node">
<title>Node2</title>
<g id="a_Node000002"><a xlink:href="heater_8h.html" target="_top" xlink:title="Heater control module for kiln heating coils.">
<polygon fill="white" stroke="#666666" points="126.5,-76 34.75,-76 34.75,-56 126.5,-56 126.5,-76"/>
<text xml:space="preserve" text-anchor="middle" x="80.62" y="-62.5" font-family="Helvetica,sans-Serif" font-size="10.00">Core/Inc/heater.h</text>
</a>
</g>
</g>
<!-- Node1&#45;&gt;Node2 -->
<g id="edge2_Node000001_Node000002" class="edge">
<title>Node1&#45;&gt;Node2</title>
<g id="a_edge2_Node000001_Node000002"><a xlink:title=" ">
<path fill="none" stroke="#63b8ff" d="M132.64,-104.95C119.84,-95.61 104.15,-84.16 93.37,-76.3"/>
<polygon fill="#63b8ff" stroke="#63b8ff" points="130.37,-107.63 140.51,-110.7 134.5,-101.98 130.37,-107.63"/>
</a>
</g>
</g>
<!-- Node4 -->
<g id="Node000004" class="node">
<title>Node4</title>
<g id="a_Node000004"><a xlink:href="main_8c.html" target="_top" xlink:title=": Main program body">
<polygon fill="white" stroke="#666666" points="198.25,-20 111,-20 111,0 198.25,0 198.25,-20"/>
<text xml:space="preserve" text-anchor="middle" x="154.62" y="-6.5" font-family="Helvetica,sans-Serif" font-size="10.00">Core/Src/main.c</text>
</a>
</g>
</g>
<!-- Node1&#45;&gt;Node4 -->
<g id="edge6_Node000001_Node000004" class="edge">
<title>Node1&#45;&gt;Node4</title>
<g id="a_edge6_Node000001_Node000004"><a xlink:title=" ">
<path fill="none" stroke="#63b8ff" d="M154.62,-100.31C154.62,-76.36 154.62,-37.95 154.62,-20.35"/>
<polygon fill="#63b8ff" stroke="#63b8ff" points="151.13,-100.11 154.63,-110.11 158.13,-100.11 151.13,-100.11"/>
</a>
</g>
</g>
<!-- Node5 -->
<g id="Node000005" class="node">
<title>Node5</title>
<g id="a_Node000005"><a xlink:href="MAX31855_8c.html" target="_top" xlink:title="Implementation of MAX31855 thermocouple&#45;to&#45;digital converter driver.">
<polygon fill="white" stroke="#666666" points="296.75,-76 182.5,-76 182.5,-56 296.75,-56 296.75,-76"/>
<text xml:space="preserve" text-anchor="middle" x="239.62" y="-62.5" font-family="Helvetica,sans-Serif" font-size="10.00">Core/Src/MAX31855.c</text>
</a>
</g>
</g>
<!-- Node1&#45;&gt;Node5 -->
<g id="edge5_Node000001_Node000005" class="edge">
<title>Node1&#45;&gt;Node5</title>
<g id="a_edge5_Node000001_Node000005"><a xlink:title=" ">
<path fill="none" stroke="#63b8ff" d="M178.96,-105.54C193.71,-96.17 212.07,-84.51 224.7,-76.48"/>
<polygon fill="#63b8ff" stroke="#63b8ff" points="177.27,-102.47 170.71,-110.78 181.03,-108.37 177.27,-102.47"/>
</a>
</g>
</g>
<!-- Node3 -->
<g id="Node000003" class="node">
<title>Node3</title>
<g id="a_Node000003"><a xlink:href="heater_8c.html" target="_top" xlink:title="Implementation of heater control for kiln heating coils.">
<polygon fill="white" stroke="#666666" points="93.25,-20 0,-20 0,0 93.25,0 93.25,-20"/>
<text xml:space="preserve" text-anchor="middle" x="46.62" y="-6.5" font-family="Helvetica,sans-Serif" font-size="10.00">Core/Src/heater.c</text>
</a>
</g>
</g>
<!-- Node2&#45;&gt;Node3 -->
<g id="edge3_Node000002_Node000003" class="edge">
<title>Node2&#45;&gt;Node3</title>
<g id="a_edge3_Node000002_Node000003"><a xlink:title=" ">
<path fill="none" stroke="#63b8ff" d="M68.58,-45.87C63.11,-37.19 56.9,-27.32 52.48,-20.3"/>
<polygon fill="#63b8ff" stroke="#63b8ff" points="65.61,-47.72 73.9,-54.31 71.53,-43.99 65.61,-47.72"/>
</a>
</g>
</g>
<!-- Node2&#45;&gt;Node4 -->
<g id="edge4_Node000002_Node000004" class="edge">
<title>Node2&#45;&gt;Node4</title>
<g id="a_edge4_Node000002_Node000004"><a xlink:title=" ">
<path fill="none" stroke="#63b8ff" d="M102.61,-48.95C115.41,-39.61 131.1,-28.16 141.88,-20.3"/>
<polygon fill="#63b8ff" stroke="#63b8ff" points="100.75,-45.98 94.74,-54.7 104.88,-51.63 100.75,-45.98"/>
</a>
</g>
</g>
</g>
</svg>
</svg>

<style type='text/css'>
<![CDATA[
[data-mouse-over-selected='false'] { opacity: 0.7; }
[data-mouse-over-selected='true']  { opacity: 1.0; }
]]>
</style>
<script type="application/ecmascript"><![CDATA[
document.addEventListener('DOMContentLoaded', (event) => {
  highlightEdges();
  highlightAdjacentNodes();
});
]]></script>
</svg>
