<?xml version="1.0" encoding="UTF-8" standalone="no"?>
<!DOCTYPE svg PUBLIC "-//W3C//DTD SVG 1.1//EN"
 "http://www.w3.org/Graphics/SVG/1.1/DTD/svg11.dtd">
<!-- Generated by graphviz version 14.1.2 (0)
 -->
<!-- Title: max_31855_print_payload Pages: 1 -->
<svg width="432pt" height="268pt"
 viewBox="0.00 0.00 432.00 268.00" xmlns="http://www.w3.org/2000/svg" xmlns:xlink="http://www.w3.org/1999/xlink">

<svg id="main" version="1.1" xmlns="http://www.w3.org/2000/svg" xmlns:xlink="http://www.w3.org/1999/xlink" xml:space="preserve">

<style type="text/css"><![CDATA[
.node, .edge {opacity: 0.7;}
.node.selected, .edge.selected {opacity: 1;}
.edge:hover path { stroke: red; }
.edge:hover polygon { stroke: red; fill: red; }
]]></style>
<script type="application/ecmascript" xlink:href="svg.min.js"/>
<svg id="graph" class="graph">
<g id="graph0" class="graph" transform="scale(1 1) rotate(0) translate(4 264)">
<title>max_31855_print_payload</title>
<!-- Node1 -->
<g id="Node000001" class="node">
<title>Node1</title>
<g id="a_Node000001"><a xlink:title="Print payload values in human&#45;readable format.">
<polygon fill="#999999" stroke="#666666" points="129.25,-146 0,-146 0,-126 129.25,-126 129.25,-146"/>
<text xml:space="preserve" text-anchor="middle" x="64.62" y="-132.5" font-family="Helvetica,sans-Serif" font-size="10.00">max_31855_print_payload</text>
</a>
</g>
</g>
<!-- Node2 -->
<g id="Node000002" class="node">
<title>Node2</title>
<g id="a_Node000002"><a xlink:href="MAX31855_8h.html#a73a05388dec5b14617bec24b170f1f00" target="_top" xlink:title="Get reference junction temperature fractional value.">
<polygon fill="white" stroke="#666666" points="310.25,-260 166,-260 166,-240 310.25,-240 310.25,-260"/>
<text xml:space="preserve" text-anchor="middle" x="238.12" y="-246.5" font-family="Helvetica,sans-Serif" font-size="10.00">max31855_get_int_temp_frac</text>
</a>
</g>
</g>
<!-- Node1&#45;&gt;Node2 -->
<g id="edge1_Node000001_Node000002" class="edge">
<title>Node1&#45;&gt;Node2</title>
<g id="a_edge1_Node000001_Node000002"><a xlink:title=" ">
<path fill="none" stroke="#63b8ff" d="M73.44,-146.34C88.81,-165.92 125,-208.48 165.25,-231 168.1,-232.6 171.09,-234.06 174.16,-235.41"/>
<polygon fill="#63b8ff" stroke="#63b8ff" points="172.86,-238.65 183.44,-238.99 175.38,-232.12 172.86,-238.65"/>
</a>
</g>
</g>
<!-- Node3 -->
<g id="Node000003" class="node">
<title>Node3</title>
<g id="a_Node000003"><a xlink:href="MAX31855_8h.html#a8c5296623761ea4a791c26371a69daac" target="_top" xlink:title="Get reference junction (internal) temperature sign.">
<polygon fill="white" stroke="#666666" points="311,-222 165.25,-222 165.25,-202 311,-202 311,-222"/>
<text xml:space="preserve" text-anchor="middle" x="238.12" y="-208.5" font-family="Helvetica,sans-Serif" font-size="10.00">max31855_get_int_temp_sign</text>
</a>
</g>
</g>
<!-- Node1&#45;&gt;Node3 -->
<g id="edge2_Node000001_Node000003" class="edge">
<title>Node1&#45;&gt;Node3</title>
<g id="a_edge2_Node000001_Node000003"><a xlink:title=" ">
<path fill="none" stroke="#63b8ff" d="M80.85,-146.4C99.86,-158.98 133.72,-180.07 165.25,-193 169.88,-194.9 174.75,-196.65 179.68,-198.27"/>
<polygon fill="#63b8ff" stroke="#63b8ff" points="178.49,-201.57 189.08,-201.14 180.54,-194.87 178.49,-201.57"/>
</a>
</g>
</g>
<!-- Node4 -->
<g id="Node000004" class="node">
<title>Node4</title>
<g id="a_Node000004"><a xlink:href="MAX31855_8h.html#a9bae7c58c8d04bcdc770fbaf0cf80630" target="_top" xlink:title="Get reference junction temperature integer value.">
<polygon fill="white" stroke="#666666" points="308.38,-184 167.88,-184 167.88,-164 308.38,-164 308.38,-184"/>
<text xml:space="preserve" text-anchor="middle" x="238.12" y="-170.5" font-family="Helvetica,sans-Serif" font-size="10.00">max31855_get_int_temp_val</text>
</a>
</g>
</g>
<!-- Node1&#45;&gt;Node4 -->
<g id="edge3_Node000001_Node000004" class="edge">
<title>Node1&#45;&gt;Node4</title>
<g id="a_edge3_Node000001_Node000004"><a xlink:title=" ">
<path fill="none" stroke="#63b8ff" d="M112.94,-146.48C133.37,-151.01 157.48,-156.35 178.98,-161.12"/>
<polygon fill="#63b8ff" stroke="#63b8ff" points="177.96,-164.48 188.48,-163.22 179.48,-157.64 177.96,-164.48"/>
</a>
</g>
</g>
<!-- Node5 -->
<g id="Node000005" class="node">
<title>Node5</title>
<g id="a_Node000005"><a xlink:href="MAX31855_8c.html#a8096a25192db1bec7c8f7974724052f4" target="_top" xlink:title="Get thermocouple temperature fractional value.">
<polygon fill="white" stroke="#666666" points="302.38,-146 173.88,-146 173.88,-126 302.38,-126 302.38,-146"/>
<text xml:space="preserve" text-anchor="middle" x="238.12" y="-132.5" font-family="Helvetica,sans-Serif" font-size="10.00">max31855_get_temp_frac</text>
</a>
</g>
</g>
<!-- Node1&#45;&gt;Node5 -->
<g id="edge4_Node000001_Node000005" class="edge">
<title>Node1&#45;&gt;Node5</title>
<g id="a_edge4_Node000001_Node000005"><a xlink:title=" ">
<path fill="none" stroke="#63b8ff" d="M129.49,-136C140.16,-136 151.32,-136 162.24,-136"/>
<polygon fill="#63b8ff" stroke="#63b8ff" points="161.98,-139.5 171.98,-136 161.98,-132.5 161.98,-139.5"/>
</a>
</g>
</g>
<!-- Node6 -->
<g id="Node000006" class="node">
<title>Node6</title>
<g id="a_Node000006"><a xlink:href="MAX31855_8c.html#a49efeafd115179b8de90f96c540b7a94" target="_top" xlink:title="Get thermocouple temperature sign.">
<polygon fill="white" stroke="#666666" points="303.12,-108 173.12,-108 173.12,-88 303.12,-88 303.12,-108"/>
<text xml:space="preserve" text-anchor="middle" x="238.12" y="-94.5" font-family="Helvetica,sans-Serif" font-size="10.00">max31855_get_temp_sign</text>
</a>
</g>
</g>
<!-- Node1&#45;&gt;Node6 -->
<g id="edge5_Node000001_Node000006" class="edge">
<title>Node1&#45;&gt;Node6</title>
<g id="a_edge5_Node000001_Node000006"><a xlink:title=" ">
<path fill="none" stroke="#63b8ff" d="M112.94,-125.52C133.37,-120.99 157.48,-115.65 178.98,-110.88"/>
<polygon fill="#63b8ff" stroke="#63b8ff" points="179.48,-114.36 188.48,-108.78 177.96,-107.52 179.48,-114.36"/>
</a>
</g>
</g>
<!-- Node7 -->
<g id="Node000007" class="node">
<title>Node7</title>
<g id="a_Node000007"><a xlink:href="MAX31855_8c.html#a48789df725799c99959eccdc8f9012a3" target="_top" xlink:title="Get thermocouple temperature integer value.">
<polygon fill="white" stroke="#666666" points="300.5,-70 175.75,-70 175.75,-50 300.5,-50 300.5,-70"/>
<text xml:space="preserve" text-anchor="middle" x="238.12" y="-56.5" font-family="Helvetica,sans-Serif" font-size="10.00">max31855_get_temp_val</text>
</a>
</g>
</g>
<!-- Node1&#45;&gt;Node7 -->
<g id="edge6_Node000001_Node000007" class="edge">
<title>Node1&#45;&gt;Node7</title>
<g id="a_edge6_Node000001_Node000007"><a xlink:title=" ">
<path fill="none" stroke="#63b8ff" d="M80.85,-125.6C99.86,-113.02 133.72,-91.93 165.25,-79 169.88,-77.1 174.75,-75.35 179.68,-73.73"/>
<polygon fill="#63b8ff" stroke="#63b8ff" points="180.54,-77.13 189.08,-70.86 178.49,-70.43 180.54,-77.13"/>
</a>
</g>
</g>
<!-- Node8 -->
<g id="Node000008" class="node">
<title>Node8</title>
<g id="a_Node000008"><a xlink:href="MAX31855_8c.html#a255e62e8f5383162625bc54a312e5e6b" target="_top" xlink:title="Print raw payload bytes in binary format.">
<polygon fill="white" stroke="#666666" points="291.88,-32 184.38,-32 184.38,0 291.88,0 291.88,-32"/>
<text xml:space="preserve" text-anchor="start" x="192.38" y="-18.5" font-family="Helvetica,sans-Serif" font-size="10.00">print_raw_payload_in</text>
<text xml:space="preserve" text-anchor="middle" x="238.12" y="-6.5" font-family="Helvetica,sans-Serif" font-size="10.00">_binary</text>
</a>
</g>
</g>
<!-- Node1&#45;&gt;Node8 -->
<g id="edge7_Node000001_Node000008" class="edge">
<title>Node1&#45;&gt;Node8</title>
<g id="a_edge7_Node000001_Node000008"><a xlink:title=" ">
<path fill="none" stroke="#63b8ff" d="M73.85,-125.64C89.63,-106.39 126.09,-64.91 165.25,-41 168,-39.32 170.88,-37.74 173.83,-36.24"/>
<polygon fill="#63b8ff" stroke="#63b8ff" points="175.12,-39.5 182.74,-32.14 172.19,-33.14 175.12,-39.5"/>
</a>
</g>
</g>
<!-- Node9 -->
<g id="Node000009" class="node">
<title>Node9</title>
<g id="a_Node000009"><a xlink:href="MAX31855_8c.html#a66830c733bd0ae54bed889647a1286d2" target="_top" xlink:title="Print a single byte in binary format.">
<polygon fill="white" stroke="#666666" points="423.75,-26 347,-26 347,-6 423.75,-6 423.75,-26"/>
<text xml:space="preserve" text-anchor="middle" x="385.38" y="-12.5" font-family="Helvetica,sans-Serif" font-size="10.00">print_binary_2</text>
</a>
</g>
</g>
<!-- Node8&#45;&gt;Node9 -->
<g id="edge8_Node000008_Node000009" class="edge">
<title>Node8&#45;&gt;Node9</title>
<g id="a_edge8_Node000008_Node000009"><a xlink:title=" ">
<path fill="none" stroke="#63b8ff" d="M291.97,-16C306.17,-16 321.46,-16 335.43,-16"/>
<polygon fill="#63b8ff" stroke="#63b8ff" points="335.29,-19.5 345.29,-16 335.29,-12.5 335.29,-19.5"/>
</a>
</g>
</g>
</g>
</svg>
</svg>

<style type='text/css'>
<![CDATA[
[data-mouse-over-selected='false'] { opacity: 0.7; }
[data-mouse-over-selected='true']  { opacity: 1.0; }
]]>
</style>
<script type="application/ecmascript"><![CDATA[
document.addEventListener('DOMContentLoaded', (event) => {
  highlightEdges();
  highlightAdjacentNodes();
});
]]></script>
</svg>
