<?xml version="1.0" encoding="UTF-8" standalone="no"?>
<!DOCTYPE svg PUBLIC "-//W3C//DTD SVG 1.1//EN"
 "http://www.w3.org/Graphics/SVG/1.1/DTD/svg11.dtd">
<!-- Generated by graphviz version 14.1.2 (0)
 -->
<!-- Title: Core/Inc/pid.h Pages: 1 -->
<svg width="182pt" height="84pt"
 viewBox="0.00 0.00 182.00 84.00" xmlns="http://www.w3.org/2000/svg" xmlns:xlink="http://www.w3.org/1999/xlink">
<g id="graph0" class="graph" transform="scale(1 1) rotate(0) translate(4 80)">
<title>Core/Inc/pid.h</title>
<!-- Node1 -->
<g id="Node000001" class="node">
<title>Node1</title>
<g id="a_Node000001"><a xlink:title="PID controller module for temperature control.">
<polygon fill="#999999" stroke="#666666" points="130.75,-76 53.25,-76 53.25,-56 130.75,-56 130.75,-76"/>
<text xml:space="preserve" text-anchor="middle" x="92" y="-62.5" font-family="Helvetica,sans-Serif" font-size="10.00">Core/Inc/pid.h</text>
</a>
</g>
</g>
<!-- Node2 -->
<g id="Node000002" class="node">
<title>Node2</title>
<g id="a_Node000002"><a xlink:title=" ">
<polygon fill="#e0e0e0" stroke="#999999" points="88,-20 0,-20 0,0 88,0 88,-20"/>
<text xml:space="preserve" text-anchor="middle" x="44" y="-6.5" font-family="Helvetica,sans-Serif" font-size="10.00">stm32f0xx_hal.h</text>
</a>
</g>
</g>
<!-- Node1&#45;&gt;Node2 -->
<g id="edge1_Node000001_Node000002" class="edge">
<title>Node1&#45;&gt;Node2</title>
<g id="a_edge1_Node000001_Node000002"><a xlink:title=" ">
<path fill="none" stroke="#63b8ff" d="M83.64,-55.59C77.1,-48.24 67.82,-37.8 59.88,-28.87"/>
<polygon fill="#63b8ff" stroke="#63b8ff" points="62.53,-26.58 53.27,-21.43 57.3,-31.23 62.53,-26.58"/>
</a>
</g>
</g>
<!-- Node3 -->
<g id="Node000003" class="node">
<title>Node3</title>
<g id="a_Node000003"><a xlink:title=" ">
<polygon fill="#e0e0e0" stroke="#999999" points="173.88,-20 106.12,-20 106.12,0 173.88,0 173.88,-20"/>
<text xml:space="preserve" text-anchor="middle" x="140" y="-6.5" font-family="Helvetica,sans-Serif" font-size="10.00">arm_math.h</text>
</a>
</g>
</g>
<!-- Node1&#45;&gt;Node3 -->
<g id="edge2_Node000001_Node000003" class="edge">
<title>Node1&#45;&gt;Node3</title>
<g id="a_edge2_Node000001_Node000003"><a xlink:title=" ">
<path fill="none" stroke="#63b8ff" d="M100.36,-55.59C106.9,-48.24 116.18,-37.8 124.12,-28.87"/>
<polygon fill="#63b8ff" stroke="#63b8ff" points="126.7,-31.23 130.73,-21.43 121.47,-26.58 126.7,-31.23"/>
</a>
</g>
</g>
</g>
</svg>
