<?xml version="1.0" encoding="UTF-8" standalone="no"?>
<!DOCTYPE svg PUBLIC "-//W3C//DTD SVG 1.1//EN"
 "http://www.w3.org/Graphics/SVG/1.1/DTD/svg11.dtd">
<!-- Generated by graphviz version 14.1.2 (0)
 -->
<!-- Title: Core/Inc/stm32f0xx_hal_conf.h Pages: 1 -->
<svg width="1521pt" height="96pt"
 viewBox="0.00 0.00 1521.00 96.00" xmlns="http://www.w3.org/2000/svg" xmlns:xlink="http://www.w3.org/1999/xlink">
<g id="graph0" class="graph" transform="scale(1 1) rotate(0) translate(4 92)">
<title>Core/Inc/stm32f0xx_hal_conf.h</title>
<!-- Node1 -->
<g id="Node000001" class="node">
<title>Node1</title>
<g id="a_Node000001"><a xlink:title="HAL configuration file.">
<polygon fill="#999999" stroke="#666666" points="821.5,-88 719.25,-88 719.25,-56 821.5,-56 821.5,-88"/>
<text xml:space="preserve" text-anchor="start" x="727.25" y="-74.5" font-family="Helvetica,sans-Serif" font-size="10.00">Core/Inc/stm32f0xx</text>
<text xml:space="preserve" text-anchor="middle" x="770.38" y="-62.5" font-family="Helvetica,sans-Serif" font-size="10.00">_hal_conf.h</text>
</a>
</g>
</g>
<!-- Node2 -->
<g id="Node000002" class="node">
<title>Node2</title>
<g id="a_Node000002"><a xlink:title=" ">
<polygon fill="#e0e0e0" stroke="#999999" points="106.75,-20 0,-20 0,0 106.75,0 106.75,-20"/>
<text xml:space="preserve" text-anchor="middle" x="53.38" y="-6.5" font-family="Helvetica,sans-Serif" font-size="10.00">stm32f0xx_hal_rcc.h</text>
</a>
</g>
</g>
<!-- Node1&#45;&gt;Node2 -->
<g id="edge1_Node000001_Node000002" class="edge">
<title>Node1&#45;&gt;Node2</title>
<g id="a_edge1_Node000001_Node000002"><a xlink:title=" ">
<path fill="none" stroke="#63b8ff" d="M718.89,-68.16C610.01,-61.9 348.16,-45.51 118.38,-20.27"/>
<polygon fill="#63b8ff" stroke="#63b8ff" points="118.94,-16.81 108.62,-19.19 118.17,-23.77 118.94,-16.81"/>
</a>
</g>
</g>
<!-- Node3 -->
<g id="Node000003" class="node">
<title>Node3</title>
<g id="a_Node000003"><a xlink:title=" ">
<polygon fill="#e0e0e0" stroke="#999999" points="236,-20 124.75,-20 124.75,0 236,0 236,-20"/>
<text xml:space="preserve" text-anchor="middle" x="180.38" y="-6.5" font-family="Helvetica,sans-Serif" font-size="10.00">stm32f0xx_hal_gpio.h</text>
</a>
</g>
</g>
<!-- Node1&#45;&gt;Node3 -->
<g id="edge2_Node000001_Node000003" class="edge">
<title>Node1&#45;&gt;Node3</title>
<g id="a_edge2_Node000001_Node000003"><a xlink:title=" ">
<path fill="none" stroke="#63b8ff" d="M718.78,-66.74C626.39,-58.95 426.36,-41.35 247.42,-20.32"/>
<polygon fill="#63b8ff" stroke="#63b8ff" points="248.05,-16.87 237.71,-19.17 247.23,-23.82 248.05,-16.87"/>
</a>
</g>
</g>
<!-- Node4 -->
<g id="Node000004" class="node">
<title>Node4</title>
<g id="a_Node000004"><a xlink:title=" ">
<polygon fill="#e0e0e0" stroke="#999999" points="362.88,-20 253.88,-20 253.88,0 362.88,0 362.88,-20"/>
<text xml:space="preserve" text-anchor="middle" x="308.38" y="-6.5" font-family="Helvetica,sans-Serif" font-size="10.00">stm32f0xx_hal_exti.h</text>
</a>
</g>
</g>
<!-- Node1&#45;&gt;Node4 -->
<g id="edge3_Node000001_Node000004" class="edge">
<title>Node1&#45;&gt;Node4</title>
<g id="a_edge3_Node000001_Node000004"><a xlink:title=" ">
<path fill="none" stroke="#63b8ff" d="M718.83,-64.6C645.08,-55.4 504.88,-37.74 374.55,-20.28"/>
<polygon fill="#63b8ff" stroke="#63b8ff" points="375.06,-16.81 364.68,-18.95 374.13,-23.75 375.06,-16.81"/>
</a>
</g>
</g>
<!-- Node5 -->
<g id="Node000005" class="node">
<title>Node5</title>
<g id="a_Node000005"><a xlink:title=" ">
<polygon fill="#e0e0e0" stroke="#999999" points="493.38,-20 381.38,-20 381.38,0 493.38,0 493.38,-20"/>
<text xml:space="preserve" text-anchor="middle" x="437.38" y="-6.5" font-family="Helvetica,sans-Serif" font-size="10.00">stm32f0xx_hal_dma.h</text>
</a>
</g>
</g>
<!-- Node1&#45;&gt;Node5 -->
<g id="edge4_Node000001_Node000005" class="edge">
<title>Node1&#45;&gt;Node5</title>
<g id="a_edge4_Node000001_Node000005"><a xlink:title=" ">
<path fill="none" stroke="#63b8ff" d="M719.07,-61.76C660.39,-51.18 564.24,-33.86 500.88,-22.44"/>
<polygon fill="#63b8ff" stroke="#63b8ff" points="501.79,-19.05 491.32,-20.72 500.54,-25.94 501.79,-19.05"/>
</a>
</g>
</g>
<!-- Node6 -->
<g id="Node000006" class="node">
<title>Node6</title>
<g id="a_Node000006"><a xlink:title=" ">
<polygon fill="#e0e0e0" stroke="#999999" points="631.5,-20 511.25,-20 511.25,0 631.5,0 631.5,-20"/>
<text xml:space="preserve" text-anchor="middle" x="571.38" y="-6.5" font-family="Helvetica,sans-Serif" font-size="10.00">stm32f0xx_hal_cortex.h</text>
</a>
</g>
</g>
<!-- Node1&#45;&gt;Node6 -->
<g id="edge5_Node000001_Node000006" class="edge">
<title>Node1&#45;&gt;Node6</title>
<g id="a_edge5_Node000001_Node000006"><a xlink:title=" ">
<path fill="none" stroke="#63b8ff" d="M719.13,-55.55C686.41,-45.68 644.51,-33.05 613.69,-23.76"/>
<polygon fill="#63b8ff" stroke="#63b8ff" points="614.9,-20.47 604.32,-20.93 612.88,-27.17 614.9,-20.47"/>
</a>
</g>
</g>
<!-- Node7 -->
<g id="Node000007" class="node">
<title>Node7</title>
<g id="a_Node000007"><a xlink:title=" ">
<polygon fill="#e0e0e0" stroke="#999999" points="763.5,-20 649.25,-20 649.25,0 763.5,0 763.5,-20"/>
<text xml:space="preserve" text-anchor="middle" x="706.38" y="-6.5" font-family="Helvetica,sans-Serif" font-size="10.00">stm32f0xx_hal_flash.h</text>
</a>
</g>
</g>
<!-- Node1&#45;&gt;Node7 -->
<g id="edge6_Node000001_Node000007" class="edge">
<title>Node1&#45;&gt;Node7</title>
<g id="a_edge6_Node000001_Node000007"><a xlink:title=" ">
<path fill="none" stroke="#63b8ff" d="M753.89,-55.55C744.91,-47.13 733.78,-36.69 724.55,-28.04"/>
<polygon fill="#63b8ff" stroke="#63b8ff" points="727.2,-25.73 717.51,-21.44 722.42,-30.84 727.2,-25.73"/>
</a>
</g>
</g>
<!-- Node8 -->
<g id="Node000008" class="node">
<title>Node8</title>
<g id="a_Node000008"><a xlink:title=" ">
<polygon fill="#e0e0e0" stroke="#999999" points="887.38,-20 781.38,-20 781.38,0 887.38,0 887.38,-20"/>
<text xml:space="preserve" text-anchor="middle" x="834.38" y="-6.5" font-family="Helvetica,sans-Serif" font-size="10.00">stm32f0xx_hal_i2c.h</text>
</a>
</g>
</g>
<!-- Node1&#45;&gt;Node8 -->
<g id="edge7_Node000001_Node000008" class="edge">
<title>Node1&#45;&gt;Node8</title>
<g id="a_edge7_Node000001_Node000008"><a xlink:title=" ">
<path fill="none" stroke="#63b8ff" d="M786.86,-55.55C795.84,-47.13 806.97,-36.69 816.2,-28.04"/>
<polygon fill="#63b8ff" stroke="#63b8ff" points="818.33,-30.84 823.24,-21.44 813.55,-25.73 818.33,-30.84"/>
</a>
</g>
</g>
<!-- Node9 -->
<g id="Node000009" class="node">
<title>Node9</title>
<g id="a_Node000009"><a xlink:title=" ">
<polygon fill="#e0e0e0" stroke="#999999" points="1014.88,-20 905.88,-20 905.88,0 1014.88,0 1014.88,-20"/>
<text xml:space="preserve" text-anchor="middle" x="960.38" y="-6.5" font-family="Helvetica,sans-Serif" font-size="10.00">stm32f0xx_hal_pwr.h</text>
</a>
</g>
</g>
<!-- Node1&#45;&gt;Node9 -->
<g id="edge8_Node000001_Node000009" class="edge">
<title>Node1&#45;&gt;Node9</title>
<g id="a_edge8_Node000001_Node000009"><a xlink:title=" ">
<path fill="none" stroke="#63b8ff" d="M819.3,-55.55C850.41,-45.73 890.2,-33.16 919.59,-23.88"/>
<polygon fill="#63b8ff" stroke="#63b8ff" points="920.38,-27.3 928.86,-20.95 918.27,-20.63 920.38,-27.3"/>
</a>
</g>
</g>
<!-- Node10 -->
<g id="Node000010" class="node">
<title>Node10</title>
<g id="a_Node000010"><a xlink:title=" ">
<polygon fill="#e0e0e0" stroke="#999999" points="1137.62,-20 1033.12,-20 1033.12,0 1137.62,0 1137.62,-20"/>
<text xml:space="preserve" text-anchor="middle" x="1085.38" y="-6.5" font-family="Helvetica,sans-Serif" font-size="10.00">stm32f0xx_hal_rtc.h</text>
</a>
</g>
</g>
<!-- Node1&#45;&gt;Node10 -->
<g id="edge9_Node000001_Node000010" class="edge">
<title>Node1&#45;&gt;Node10</title>
<g id="a_edge9_Node000001_Node000010"><a xlink:title=" ">
<path fill="none" stroke="#63b8ff" d="M821.69,-61.23C877.21,-50.65 965.68,-33.8 1024.63,-22.57"/>
<polygon fill="#63b8ff" stroke="#63b8ff" points="1024.99,-26.06 1034.16,-20.76 1023.68,-19.19 1024.99,-26.06"/>
</a>
</g>
</g>
<!-- Node11 -->
<g id="Node000011" class="node">
<title>Node11</title>
<g id="a_Node000011"><a xlink:title=" ">
<polygon fill="#e0e0e0" stroke="#999999" points="1261.38,-20 1155.38,-20 1155.38,0 1261.38,0 1261.38,-20"/>
<text xml:space="preserve" text-anchor="middle" x="1208.38" y="-6.5" font-family="Helvetica,sans-Serif" font-size="10.00">stm32f0xx_hal_spi.h</text>
</a>
</g>
</g>
<!-- Node1&#45;&gt;Node11 -->
<g id="edge10_Node000001_Node000011" class="edge">
<title>Node1&#45;&gt;Node11</title>
<g id="a_edge10_Node000001_Node000011"><a xlink:title=" ">
<path fill="none" stroke="#63b8ff" d="M821.79,-64.18C892.02,-54.83 1022.23,-37.38 1143.61,-20.38"/>
<polygon fill="#63b8ff" stroke="#63b8ff" points="1144.03,-23.85 1153.45,-19 1143.06,-16.92 1144.03,-23.85"/>
</a>
</g>
</g>
<!-- Node12 -->
<g id="Node000012" class="node">
<title>Node12</title>
<g id="a_Node000012"><a xlink:title=" ">
<polygon fill="#e0e0e0" stroke="#999999" points="1385.75,-20 1279,-20 1279,0 1385.75,0 1385.75,-20"/>
<text xml:space="preserve" text-anchor="middle" x="1332.38" y="-6.5" font-family="Helvetica,sans-Serif" font-size="10.00">stm32f0xx_hal_tim.h</text>
</a>
</g>
</g>
<!-- Node1&#45;&gt;Node12 -->
<g id="edge11_Node000001_Node000012" class="edge">
<title>Node1&#45;&gt;Node12</title>
<g id="a_edge11_Node000001_Node000012"><a xlink:title=" ">
<path fill="none" stroke="#63b8ff" d="M821.92,-66.47C910.69,-58.51 1098.44,-40.98 1267.28,-20.34"/>
<polygon fill="#63b8ff" stroke="#63b8ff" points="1267.63,-23.82 1277.12,-19.13 1266.77,-16.88 1267.63,-23.82"/>
</a>
</g>
</g>
<!-- Node13 -->
<g id="Node000013" class="node">
<title>Node13</title>
<g id="a_Node000013"><a xlink:title=" ">
<polygon fill="#e0e0e0" stroke="#999999" points="1513.25,-20 1403.5,-20 1403.5,0 1513.25,0 1513.25,-20"/>
<text xml:space="preserve" text-anchor="middle" x="1458.38" y="-6.5" font-family="Helvetica,sans-Serif" font-size="10.00">stm32f0xx_hal_uart.h</text>
</a>
</g>
</g>
<!-- Node1&#45;&gt;Node13 -->
<g id="edge12_Node000001_Node000013" class="edge">
<title>Node1&#45;&gt;Node13</title>
<g id="a_edge12_Node000001_Node000013"><a xlink:title=" ">
<path fill="none" stroke="#63b8ff" d="M821.84,-67.81C926.87,-61.08 1173.74,-44.14 1391.89,-20.21"/>
<polygon fill="#63b8ff" stroke="#63b8ff" points="1392.18,-23.7 1401.74,-19.13 1391.41,-16.75 1392.18,-23.7"/>
</a>
</g>
</g>
</g>
</svg>
