<?xml version="1.0" encoding="UTF-8" standalone="no"?>
<!DOCTYPE svg PUBLIC "-//W3C//DTD SVG 1.1//EN"
 "http://www.w3.org/Graphics/SVG/1.1/DTD/svg11.dtd">
<!-- Generated by graphviz version 14.1.2 (0)
 -->
<!-- Title: Ui_HandleTypeDef_t Pages: 1 -->
<svg width="535pt" height="192pt"
 viewBox="0.00 0.00 535.00 192.00" xmlns="http://www.w3.org/2000/svg" xmlns:xlink="http://www.w3.org/1999/xlink">
<g id="graph0" class="graph" transform="scale(1 1) rotate(0) translate(4 188)">
<title>Ui_HandleTypeDef_t</title>
<!-- Node1 -->
<g id="Node000001" class="node">
<title>Node1</title>
<g id="a_Node000001"><a xlink:title="Handle structure for UI state.">
<polygon fill="#999999" stroke="#666666" points="287.12,-20 180.38,-20 180.38,0 287.12,0 287.12,-20"/>
<text xml:space="preserve" text-anchor="middle" x="233.75" y="-6.5" font-family="Helvetica,sans-Serif" font-size="10.00">Ui_HandleTypeDef_t</text>
</a>
</g>
</g>
<!-- Node2 -->
<g id="Node000002" class="node">
<title>Node2</title>
<g id="a_Node000002"><a xlink:href="structui__programs__t.html" target="_top" xlink:title="Structure for storing multiple programs.">
<polygon fill="white" stroke="#666666" points="77.5,-94 0,-94 0,-74 77.5,-74 77.5,-94"/>
<text xml:space="preserve" text-anchor="middle" x="38.75" y="-80.5" font-family="Helvetica,sans-Serif" font-size="10.00">ui_programs_t</text>
</a>
</g>
</g>
<!-- Node2&#45;&gt;Node1 -->
<g id="edge1_Node000001_Node000002" class="edge">
<title>Node2&#45;&gt;Node1</title>
<g id="a_edge1_Node000001_Node000002"><a xlink:title=" ">
<path fill="none" stroke="#9a32cd" stroke-dasharray="5,2" d="M62.4,-67.69C78.24,-58.02 99.85,-45.89 120.25,-38 139.52,-30.55 161.45,-24.75 180.87,-20.47"/>
<polygon fill="#9a32cd" stroke="#9a32cd" points="60.8,-64.56 54.18,-72.83 64.51,-70.5 60.8,-64.56"/>
</a>
</g>
<text xml:space="preserve" text-anchor="start" x="123.25" y="-43.5" font-family="Helvetica,sans-Serif" font-size="10.00" fill="grey">programs</text>
</g>
<!-- Node3 -->
<g id="Node000003" class="node">
<title>Node3</title>
<g id="a_Node000003"><a xlink:href="structui__program__t.html" target="_top" xlink:title="Structure for a firing program.">
<polygon fill="white" stroke="#666666" points="74.88,-184 2.62,-184 2.62,-164 74.88,-164 74.88,-184"/>
<text xml:space="preserve" text-anchor="middle" x="38.75" y="-170.5" font-family="Helvetica,sans-Serif" font-size="10.00">ui_program_t</text>
</a>
</g>
</g>
<!-- Node3&#45;&gt;Node2 -->
<g id="edge2_Node000002_Node000003" class="edge">
<title>Node3&#45;&gt;Node2</title>
<g id="a_edge2_Node000002_Node000003"><a xlink:title=" ">
<path fill="none" stroke="#9a32cd" stroke-dasharray="5,2" d="M38.75,-152.09C38.75,-133.77 38.75,-108.01 38.75,-94.35"/>
<polygon fill="#9a32cd" stroke="#9a32cd" points="35.25,-152.07 38.75,-162.07 42.25,-152.07 35.25,-152.07"/>
</a>
</g>
<text xml:space="preserve" text-anchor="start" x="41.75" y="-125.5" font-family="Helvetica,sans-Serif" font-size="10.00" fill="grey">program_list</text>
</g>
<!-- Node4 -->
<g id="Node000004" class="node">
<title>Node4</title>
<g id="a_Node000004"><a xlink:href="structui__settings__t.html" target="_top" xlink:title="Structure for storing multiple settings.">
<polygon fill="white" stroke="#666666" points="167.5,-94 96,-94 96,-74 167.5,-74 167.5,-94"/>
<text xml:space="preserve" text-anchor="middle" x="131.75" y="-80.5" font-family="Helvetica,sans-Serif" font-size="10.00">ui_settings_t</text>
</a>
</g>
</g>
<!-- Node4&#45;&gt;Node1 -->
<g id="edge3_Node000001_Node000004" class="edge">
<title>Node4&#45;&gt;Node1</title>
<g id="a_edge3_Node000001_Node000004"><a xlink:title=" ">
<path fill="none" stroke="#9a32cd" stroke-dasharray="5,2" d="M154.23,-67.13C174.49,-52.83 203.61,-32.27 220.41,-20.42"/>
<polygon fill="#9a32cd" stroke="#9a32cd" points="152.47,-64.09 146.32,-72.71 156.51,-69.81 152.47,-64.09"/>
</a>
</g>
<text xml:space="preserve" text-anchor="start" x="197.89" y="-43.5" font-family="Helvetica,sans-Serif" font-size="10.00" fill="grey">settings</text>
</g>
<!-- Node5 -->
<g id="Node000005" class="node">
<title>Node5</title>
<g id="a_Node000005"><a xlink:href="structui__setting__t.html" target="_top" xlink:title="Structure for a single setting.">
<polygon fill="white" stroke="#666666" points="164.88,-184 98.62,-184 98.62,-164 164.88,-164 164.88,-184"/>
<text xml:space="preserve" text-anchor="middle" x="131.75" y="-170.5" font-family="Helvetica,sans-Serif" font-size="10.00">ui_setting_t</text>
</a>
</g>
</g>
<!-- Node5&#45;&gt;Node4 -->
<g id="edge4_Node000004_Node000005" class="edge">
<title>Node5&#45;&gt;Node4</title>
<g id="a_edge4_Node000004_Node000005"><a xlink:title=" ">
<path fill="none" stroke="#9a32cd" stroke-dasharray="5,2" d="M131.75,-152.09C131.75,-133.77 131.75,-108.01 131.75,-94.35"/>
<polygon fill="#9a32cd" stroke="#9a32cd" points="128.25,-152.07 131.75,-162.07 135.25,-152.07 128.25,-152.07"/>
</a>
</g>
<text xml:space="preserve" text-anchor="start" x="134.75" y="-125.5" font-family="Helvetica,sans-Serif" font-size="10.00" fill="grey">setting_list</text>
</g>
<!-- Node6 -->
<g id="Node000006" class="node">
<title>Node6</title>
<g id="a_Node000006"><a xlink:href="structLCD1602__RGB__HandleTypeDef__t.html" target="_top" xlink:title="Handle structure for LCD1602 RGB display.">
<polygon fill="white" stroke="#666666" points="350.38,-94 185.12,-94 185.12,-74 350.38,-74 350.38,-94"/>
<text xml:space="preserve" text-anchor="middle" x="267.75" y="-80.5" font-family="Helvetica,sans-Serif" font-size="10.00">LCD1602_RGB_HandleTypeDef_t</text>
</a>
</g>
</g>
<!-- Node6&#45;&gt;Node1 -->
<g id="edge5_Node000001_Node000006" class="edge">
<title>Node6&#45;&gt;Node1</title>
<g id="a_edge5_Node000001_Node000006"><a xlink:title=" ">
<path fill="none" stroke="#9a32cd" stroke-dasharray="5,2" d="M258.51,-63.44C251.87,-49.37 243.21,-31.03 238.09,-20.19"/>
<polygon fill="#9a32cd" stroke="#9a32cd" points="255.22,-64.67 262.66,-72.22 261.55,-61.68 255.22,-64.67"/>
</a>
</g>
<text xml:space="preserve" text-anchor="start" x="257.8" y="-43.5" font-family="Helvetica,sans-Serif" font-size="10.00" fill="grey">hlcd</text>
</g>
<!-- Node7 -->
<g id="Node000007" class="node">
<title>Node7</title>
<g id="a_Node000007"><a xlink:href="structEvent__Queue__HandleTypeDef__t.html" target="_top" xlink:title="Handle structure for the event queue.">
<polygon fill="white" stroke="#666666" points="524.88,-94 368.62,-94 368.62,-74 524.88,-74 524.88,-94"/>
<text xml:space="preserve" text-anchor="middle" x="446.75" y="-80.5" font-family="Helvetica,sans-Serif" font-size="10.00">Event_Queue_HandleTypeDef_t</text>
</a>
</g>
</g>
<!-- Node7&#45;&gt;Node1 -->
<g id="edge6_Node000001_Node000007" class="edge">
<title>Node7&#45;&gt;Node1</title>
<g id="a_edge6_Node000001_Node000007"><a xlink:title=" ">
<path fill="none" stroke="#9a32cd" stroke-dasharray="5,2" d="M408.19,-69.97C365.9,-55.67 299.08,-33.08 261.6,-20.42"/>
<polygon fill="#9a32cd" stroke="#9a32cd" points="406.88,-73.22 417.47,-73.1 409.12,-66.58 406.88,-73.22"/>
</a>
</g>
<text xml:space="preserve" text-anchor="start" x="368.59" y="-43.5" font-family="Helvetica,sans-Serif" font-size="10.00" fill="grey">queue</text>
</g>
<!-- Node8 -->
<g id="Node000008" class="node">
<title>Node8</title>
<g id="a_Node000008"><a xlink:href="structevent__node__t.html" target="_top" xlink:title="Node structure for the event queue linked list.">
<polygon fill="white" stroke="#666666" points="484,-184 409.5,-184 409.5,-164 484,-164 484,-184"/>
<text xml:space="preserve" text-anchor="middle" x="446.75" y="-170.5" font-family="Helvetica,sans-Serif" font-size="10.00">event_node_t</text>
</a>
</g>
</g>
<!-- Node8&#45;&gt;Node7 -->
<g id="edge7_Node000007_Node000008" class="edge">
<title>Node8&#45;&gt;Node7</title>
<g id="a_edge7_Node000007_Node000008"><a xlink:title=" ">
<path fill="none" stroke="#9a32cd" stroke-dasharray="5,2" d="M446.75,-152.09C446.75,-133.77 446.75,-108.01 446.75,-94.35"/>
<polygon fill="#9a32cd" stroke="#9a32cd" points="443.25,-152.07 446.75,-162.07 450.25,-152.07 443.25,-152.07"/>
</a>
</g>
<text xml:space="preserve" text-anchor="start" x="449.75" y="-133.5" font-family="Helvetica,sans-Serif" font-size="10.00" fill="grey">front</text>
<text xml:space="preserve" text-anchor="start" x="449.75" y="-117.5" font-family="Helvetica,sans-Serif" font-size="10.00" fill="grey">rear</text>
</g>
<!-- Node8&#45;&gt;Node8 -->
<g id="edge8_Node000008_Node000008" class="edge">
<title>Node8&#45;&gt;Node8</title>
<g id="a_edge8_Node000008_Node000008"><a xlink:title=" ">
<path fill="none" stroke="#9a32cd" stroke-dasharray="5,2" d="M495.74,-180.41C499.61,-179 502,-176.87 502,-174 502,-168.9 494.44,-166.11 484.45,-165.64"/>
<polygon fill="#9a32cd" stroke="#9a32cd" points="495.2,-176.95 485.94,-182.11 496.39,-183.85 495.2,-176.95"/>
</a>
</g>
<text xml:space="preserve" text-anchor="start" x="505" y="-170.5" font-family="Helvetica,sans-Serif" font-size="10.00" fill="grey">next</text>
</g>
</g>
</svg>
