<?xml version="1.0" encoding="UTF-8" standalone="no"?>
<!DOCTYPE svg PUBLIC "-//W3C//DTD SVG 1.1//EN"
 "http://www.w3.org/Graphics/SVG/1.1/DTD/svg11.dtd">
<!-- Generated by graphviz version 14.1.2 (0)
 -->
<!-- Title: Event_Queue_HandleTypeDef_t Pages: 1 -->
<svg width="166pt" height="118pt"
 viewBox="0.00 0.00 166.00 118.00" xmlns="http://www.w3.org/2000/svg" xmlns:xlink="http://www.w3.org/1999/xlink">
<g id="graph0" class="graph" transform="scale(1 1) rotate(0) translate(4 114)">
<title>Event_Queue_HandleTypeDef_t</title>
<!-- Node1 -->
<g id="Node000001" class="node">
<title>Node1</title>
<g id="a_Node000001"><a xlink:title="Handle structure for the event queue.">
<polygon fill="#999999" stroke="#666666" points="156.25,-20 0,-20 0,0 156.25,0 156.25,-20"/>
<text xml:space="preserve" text-anchor="middle" x="78.12" y="-6.5" font-family="Helvetica,sans-Serif" font-size="10.00">Event_Queue_HandleTypeDef_t</text>
</a>
</g>
</g>
<!-- Node2 -->
<g id="Node000002" class="node">
<title>Node2</title>
<g id="a_Node000002"><a xlink:href="structevent__node__t.html" target="_top" xlink:title="Node structure for the event queue linked list.">
<polygon fill="white" stroke="#666666" points="115.38,-110 40.88,-110 40.88,-90 115.38,-90 115.38,-110"/>
<text xml:space="preserve" text-anchor="middle" x="78.12" y="-96.5" font-family="Helvetica,sans-Serif" font-size="10.00">event_node_t</text>
</a>
</g>
</g>
<!-- Node2&#45;&gt;Node1 -->
<g id="edge1_Node000001_Node000002" class="edge">
<title>Node2&#45;&gt;Node1</title>
<g id="a_edge1_Node000001_Node000002"><a xlink:title=" ">
<path fill="none" stroke="#9a32cd" stroke-dasharray="5,2" d="M78.12,-78.09C78.12,-59.77 78.12,-34.01 78.12,-20.35"/>
<polygon fill="#9a32cd" stroke="#9a32cd" points="74.63,-78.07 78.13,-88.07 81.63,-78.07 74.63,-78.07"/>
</a>
</g>
<text xml:space="preserve" text-anchor="start" x="81.12" y="-59.5" font-family="Helvetica,sans-Serif" font-size="10.00" fill="grey">front</text>
<text xml:space="preserve" text-anchor="start" x="81.12" y="-43.5" font-family="Helvetica,sans-Serif" font-size="10.00" fill="grey">rear</text>
</g>
<!-- Node2&#45;&gt;Node2 -->
<g id="edge2_Node000002_Node000002" class="edge">
<title>Node2&#45;&gt;Node2</title>
<g id="a_edge2_Node000002_Node000002"><a xlink:title=" ">
<path fill="none" stroke="#9a32cd" stroke-dasharray="5,2" d="M127.11,-106.41C130.98,-105 133.38,-102.87 133.38,-100 133.38,-94.9 125.81,-92.11 115.83,-91.64"/>
<polygon fill="#9a32cd" stroke="#9a32cd" points="126.57,-102.95 117.32,-108.11 127.77,-109.85 126.57,-102.95"/>
</a>
</g>
<text xml:space="preserve" text-anchor="start" x="136.38" y="-96.5" font-family="Helvetica,sans-Serif" font-size="10.00" fill="grey">next</text>
</g>
</g>
</svg>
