<?xml version="1.0" encoding="UTF-8" standalone="no"?>
<!DOCTYPE svg PUBLIC "-//W3C//DTD SVG 1.1//EN"
 "http://www.w3.org/Graphics/SVG/1.1/DTD/svg11.dtd">
<!-- Generated by graphviz version 14.1.2 (0)
 -->
<!-- Title: Encoder_HandleTypeDef_t Pages: 1 -->
<svg width="166pt" height="192pt"
 viewBox="0.00 0.00 166.00 192.00" xmlns="http://www.w3.org/2000/svg" xmlns:xlink="http://www.w3.org/1999/xlink">
<g id="graph0" class="graph" transform="scale(1 1) rotate(0) translate(4 188)">
<title>Encoder_HandleTypeDef_t</title>
<!-- Node1 -->
<g id="Node000001" class="node">
<title>Node1</title>
<g id="a_Node000001"><a xlink:title="Handle structure for the rotary encoder.">
<polygon fill="#999999" stroke="#666666" points="144.62,-20 11.62,-20 11.62,0 144.62,0 144.62,-20"/>
<text xml:space="preserve" text-anchor="middle" x="78.12" y="-6.5" font-family="Helvetica,sans-Serif" font-size="10.00">Encoder_HandleTypeDef_t</text>
</a>
</g>
</g>
<!-- Node2 -->
<g id="Node000002" class="node">
<title>Node2</title>
<g id="a_Node000002"><a xlink:href="structEvent__Queue__HandleTypeDef__t.html" target="_top" xlink:title="Handle structure for the event queue.">
<polygon fill="white" stroke="#666666" points="156.25,-94 0,-94 0,-74 156.25,-74 156.25,-94"/>
<text xml:space="preserve" text-anchor="middle" x="78.12" y="-80.5" font-family="Helvetica,sans-Serif" font-size="10.00">Event_Queue_HandleTypeDef_t</text>
</a>
</g>
</g>
<!-- Node2&#45;&gt;Node1 -->
<g id="edge1_Node000001_Node000002" class="edge">
<title>Node2&#45;&gt;Node1</title>
<g id="a_edge1_Node000001_Node000002"><a xlink:title=" ">
<path fill="none" stroke="#9a32cd" stroke-dasharray="5,2" d="M78.12,-62.18C78.12,-48.29 78.12,-30.71 78.12,-20.19"/>
<polygon fill="#9a32cd" stroke="#9a32cd" points="74.63,-62.07 78.13,-72.07 81.63,-62.07 74.63,-62.07"/>
</a>
</g>
<text xml:space="preserve" text-anchor="start" x="81.12" y="-43.5" font-family="Helvetica,sans-Serif" font-size="10.00" fill="grey">queue</text>
</g>
<!-- Node3 -->
<g id="Node000003" class="node">
<title>Node3</title>
<g id="a_Node000003"><a xlink:href="structevent__node__t.html" target="_top" xlink:title="Node structure for the event queue linked list.">
<polygon fill="white" stroke="#666666" points="115.38,-184 40.88,-184 40.88,-164 115.38,-164 115.38,-184"/>
<text xml:space="preserve" text-anchor="middle" x="78.12" y="-170.5" font-family="Helvetica,sans-Serif" font-size="10.00">event_node_t</text>
</a>
</g>
</g>
<!-- Node3&#45;&gt;Node2 -->
<g id="edge2_Node000002_Node000003" class="edge">
<title>Node3&#45;&gt;Node2</title>
<g id="a_edge2_Node000002_Node000003"><a xlink:title=" ">
<path fill="none" stroke="#9a32cd" stroke-dasharray="5,2" d="M78.12,-152.09C78.12,-133.77 78.12,-108.01 78.12,-94.35"/>
<polygon fill="#9a32cd" stroke="#9a32cd" points="74.63,-152.07 78.13,-162.07 81.63,-152.07 74.63,-152.07"/>
</a>
</g>
<text xml:space="preserve" text-anchor="start" x="81.12" y="-133.5" font-family="Helvetica,sans-Serif" font-size="10.00" fill="grey">front</text>
<text xml:space="preserve" text-anchor="start" x="81.12" y="-117.5" font-family="Helvetica,sans-Serif" font-size="10.00" fill="grey">rear</text>
</g>
<!-- Node3&#45;&gt;Node3 -->
<g id="edge3_Node000003_Node000003" class="edge">
<title>Node3&#45;&gt;Node3</title>
<g id="a_edge3_Node000003_Node000003"><a xlink:title=" ">
<path fill="none" stroke="#9a32cd" stroke-dasharray="5,2" d="M127.11,-180.41C130.98,-179 133.38,-176.87 133.38,-174 133.38,-168.9 125.81,-166.11 115.83,-165.64"/>
<polygon fill="#9a32cd" stroke="#9a32cd" points="126.57,-176.95 117.32,-182.11 127.77,-183.85 126.57,-176.95"/>
</a>
</g>
<text xml:space="preserve" text-anchor="start" x="136.38" y="-170.5" font-family="Helvetica,sans-Serif" font-size="10.00" fill="grey">next</text>
</g>
</g>
</svg>
