<?xml version="1.0" encoding="UTF-8" standalone="no"?>
<!DOCTYPE svg PUBLIC "-//W3C//DTD SVG 1.1//EN"
 "http://www.w3.org/Graphics/SVG/1.1/DTD/svg11.dtd">
<!-- Generated by graphviz version 14.1.2 (0)
 -->
<!-- Title: ui_update_program_detailed Pages: 1 -->
<svg width="706pt" height="161pt"
 viewBox="0.00 0.00 706.00 161.00" xmlns="http://www.w3.org/2000/svg" xmlns:xlink="http://www.w3.org/1999/xlink">
<g id="graph0" class="graph" transform="scale(1 1) rotate(0) translate(4 157)">
<title>ui_update_program_detailed</title>
<!-- Node1 -->
<g id="Node000001" class="node">
<title>Node1</title>
<g id="a_Node000001"><a xlink:title="Handle PROGRAM_DETAILED menu state.">
<polygon fill="#999999" stroke="#666666" points="137.5,-96 0,-96 0,-76 137.5,-76 137.5,-96"/>
<text xml:space="preserve" text-anchor="middle" x="68.75" y="-82.5" font-family="Helvetica,sans-Serif" font-size="10.00">ui_update_program_detailed</text>
</a>
</g>
</g>
<!-- Node2 -->
<g id="Node000002" class="node">
<title>Node2</title>
<g id="a_Node000002"><a xlink:href="log_8c.html#a19c27922f37e1d81bb9370e65be76554" target="_top" xlink:title="Log a message with specified log level.">
<polygon fill="white" stroke="#666666" points="264.88,-153 217.38,-153 217.38,-133 264.88,-133 264.88,-153"/>
<text xml:space="preserve" text-anchor="middle" x="241.12" y="-139.5" font-family="Helvetica,sans-Serif" font-size="10.00">logMsg</text>
</a>
</g>
</g>
<!-- Node1&#45;&gt;Node2 -->
<g id="edge1_Node000001_Node000002" class="edge">
<title>Node1&#45;&gt;Node2</title>
<g id="a_edge1_Node000001_Node000002"><a xlink:title=" ">
<path fill="none" stroke="#63b8ff" d="M96.43,-96.39C117.28,-104.35 147.05,-115.4 173.5,-124 184.08,-127.44 195.72,-130.88 206.27,-133.86"/>
<polygon fill="#63b8ff" stroke="#63b8ff" points="205.15,-137.19 215.72,-136.5 207.03,-130.44 205.15,-137.19"/>
</a>
</g>
</g>
<!-- Node3 -->
<g id="Node000003" class="node">
<title>Node3</title>
<g id="a_Node000003"><a xlink:href="ui_8c.html#ababb2e5a797bf5751b72fa000a7b1c1b" target="_top" xlink:title="Fill LCD buffers with program step data.">
<polygon fill="white" stroke="#666666" points="299,-115 183.25,-115 183.25,-95 299,-95 299,-115"/>
<text xml:space="preserve" text-anchor="middle" x="241.12" y="-101.5" font-family="Helvetica,sans-Serif" font-size="10.00">ui_fill_lcd_buf_program</text>
</a>
</g>
</g>
<!-- Node1&#45;&gt;Node3 -->
<g id="edge2_Node000001_Node000003" class="edge">
<title>Node1&#45;&gt;Node3</title>
<g id="a_edge2_Node000001_Node000003"><a xlink:title=" ">
<path fill="none" stroke="#63b8ff" d="M137.58,-93.56C148.85,-94.82 160.55,-96.13 171.84,-97.38"/>
<polygon fill="#63b8ff" stroke="#63b8ff" points="171.12,-100.83 181.45,-98.46 171.9,-93.87 171.12,-100.83"/>
</a>
</g>
</g>
<!-- Node4 -->
<g id="Node000004" class="node">
<title>Node4</title>
<g id="a_Node000004"><a xlink:href="ui_8c.html#ab08bf40f29760a62fbea13ac28c412b6" target="_top" xlink:title="Display two rows of text on the LCD.">
<polygon fill="white" stroke="#666666" points="273.88,-77 208.38,-77 208.38,-57 273.88,-57 273.88,-77"/>
<text xml:space="preserve" text-anchor="middle" x="241.12" y="-63.5" font-family="Helvetica,sans-Serif" font-size="10.00">ui_print_lcd</text>
</a>
</g>
</g>
<!-- Node1&#45;&gt;Node4 -->
<g id="edge3_Node000001_Node000004" class="edge">
<title>Node1&#45;&gt;Node4</title>
<g id="a_edge3_Node000001_Node000004"><a xlink:title=" ">
<path fill="none" stroke="#63b8ff" d="M137.58,-78.44C157.52,-76.21 178.79,-73.84 196.76,-71.84"/>
<polygon fill="#63b8ff" stroke="#63b8ff" points="196.99,-75.33 206.54,-70.75 196.21,-68.38 196.99,-75.33"/>
</a>
</g>
</g>
<!-- Node9 -->
<g id="Node000009" class="node">
<title>Node9</title>
<g id="a_Node000009"><a xlink:href="ui_8c.html#a81de81298db27fab4a93d349c6f4defb" target="_top" xlink:title="Print custom degree symbols on LCD for program view.">
<polygon fill="white" stroke="#666666" points="308.75,-39 173.5,-39 173.5,-19 308.75,-19 308.75,-39"/>
<text xml:space="preserve" text-anchor="middle" x="241.12" y="-25.5" font-family="Helvetica,sans-Serif" font-size="10.00">ui_print_lcd_program_symb</text>
</a>
</g>
</g>
<!-- Node1&#45;&gt;Node9 -->
<g id="edge9_Node000001_Node000009" class="edge">
<title>Node1&#45;&gt;Node9</title>
<g id="a_edge9_Node000001_Node000009"><a xlink:title=" ">
<path fill="none" stroke="#63b8ff" d="M96.43,-75.61C117.28,-67.65 147.05,-56.6 173.5,-48 179.01,-46.21 184.8,-44.42 190.57,-42.69"/>
<polygon fill="#63b8ff" stroke="#63b8ff" points="191.51,-46.07 200.12,-39.9 189.54,-39.35 191.51,-46.07"/>
</a>
</g>
</g>
<!-- Node5 -->
<g id="Node000005" class="node">
<title>Node5</title>
<g id="a_Node000005"><a xlink:href="lcd1602__rgb_8c.html#a4675a2ae1eb331b5476c475cd042c71d" target="_top" xlink:title="Write a null&#45;terminated string to the display.">
<polygon fill="white" stroke="#666666" points="450,-96 344.75,-96 344.75,-76 450,-76 450,-96"/>
<text xml:space="preserve" text-anchor="middle" x="397.38" y="-82.5" font-family="Helvetica,sans-Serif" font-size="10.00">lcd1602_send_string</text>
</a>
</g>
</g>
<!-- Node4&#45;&gt;Node5 -->
<g id="edge4_Node000004_Node000005" class="edge">
<title>Node4&#45;&gt;Node5</title>
<g id="a_edge4_Node000004_Node000005"><a xlink:title=" ">
<path fill="none" stroke="#63b8ff" d="M274.09,-70.94C291.13,-73.04 312.72,-75.7 333,-78.19"/>
<polygon fill="#63b8ff" stroke="#63b8ff" points="332.56,-81.67 342.92,-79.42 333.42,-74.72 332.56,-81.67"/>
</a>
</g>
</g>
<!-- Node8 -->
<g id="Node000008" class="node">
<title>Node8</title>
<g id="a_Node000008"><a xlink:href="lcd1602__rgb_8c.html#acedfa8e3ed17c86c319b1ee71aa43856" target="_top" xlink:title="Set cursor position.">
<polygon fill="white" stroke="#666666" points="446.25,-58 348.5,-58 348.5,-38 446.25,-38 446.25,-58"/>
<text xml:space="preserve" text-anchor="middle" x="397.38" y="-44.5" font-family="Helvetica,sans-Serif" font-size="10.00">lcd1602_setCursor</text>
</a>
</g>
</g>
<!-- Node4&#45;&gt;Node8 -->
<g id="edge7_Node000004_Node000008" class="edge">
<title>Node4&#45;&gt;Node8</title>
<g id="a_edge7_Node000004_Node000008"><a xlink:title=" ">
<path fill="none" stroke="#63b8ff" d="M274.09,-63.06C292.19,-60.83 315.41,-57.97 336.75,-55.34"/>
<polygon fill="#63b8ff" stroke="#63b8ff" points="337.04,-58.84 346.53,-54.14 336.18,-51.89 337.04,-58.84"/>
</a>
</g>
</g>
<!-- Node6 -->
<g id="Node000006" class="node">
<title>Node6</title>
<g id="a_Node000006"><a xlink:href="lcd1602__rgb_8c.html#ab95d5708eabcbaa2bf3ca2b155fcefe3" target="_top" xlink:title="Write a single character to the display.">
<polygon fill="white" stroke="#666666" points="586,-20 486,-20 486,0 586,0 586,-20"/>
<text xml:space="preserve" text-anchor="middle" x="536" y="-6.5" font-family="Helvetica,sans-Serif" font-size="10.00">lcd1602_write_char</text>
</a>
</g>
</g>
<!-- Node5&#45;&gt;Node6 -->
<g id="edge5_Node000005_Node000006" class="edge">
<title>Node5&#45;&gt;Node6</title>
<g id="a_edge5_Node000005_Node000006"><a xlink:title=" ">
<path fill="none" stroke="#63b8ff" d="M430.55,-75.51C437.11,-72.99 443.87,-70.12 450,-67 472.49,-55.53 496.21,-39.23 512.85,-26.99"/>
<polygon fill="#63b8ff" stroke="#63b8ff" points="514.65,-30.02 520.56,-21.24 510.46,-24.42 514.65,-30.02"/>
</a>
</g>
</g>
<!-- Node7 -->
<g id="Node000007" class="node">
<title>Node7</title>
<g id="a_Node000007"><a xlink:href="lcd1602__rgb_8c.html#af833ec77ef44dc848f52a09072a777ae" target="_top" xlink:title="Send raw data bytes to the LCD via I2C.">
<polygon fill="white" stroke="#666666" points="698,-39 622,-39 622,-19 698,-19 698,-39"/>
<text xml:space="preserve" text-anchor="middle" x="660" y="-25.5" font-family="Helvetica,sans-Serif" font-size="10.00">lcd1602_send</text>
</a>
</g>
</g>
<!-- Node6&#45;&gt;Node7 -->
<g id="edge6_Node000006_Node000007" class="edge">
<title>Node6&#45;&gt;Node7</title>
<g id="a_edge6_Node000006_Node000007"><a xlink:title=" ">
<path fill="none" stroke="#63b8ff" d="M586.27,-17.67C594.18,-18.9 602.36,-20.18 610.26,-21.41"/>
<polygon fill="#63b8ff" stroke="#63b8ff" points="609.64,-24.86 620.06,-22.94 610.72,-17.94 609.64,-24.86"/>
</a>
</g>
</g>
<!-- Node8&#45;&gt;Node7 -->
<g id="edge8_Node000008_Node000007" class="edge">
<title>Node8&#45;&gt;Node7</title>
<g id="a_edge8_Node000008_Node000007"><a xlink:title=" ">
<path fill="none" stroke="#63b8ff" d="M446.48,-44.49C493.12,-41.09 563.52,-35.96 610.35,-32.55"/>
<polygon fill="#63b8ff" stroke="#63b8ff" points="610.49,-36.05 620.21,-31.83 609.98,-29.06 610.49,-36.05"/>
</a>
</g>
</g>
<!-- Node9&#45;&gt;Node6 -->
<g id="edge11_Node000009_Node000006" class="edge">
<title>Node9&#45;&gt;Node6</title>
<g id="a_edge11_Node000009_Node000006"><a xlink:title=" ">
<path fill="none" stroke="#63b8ff" d="M308.95,-24.66C358.81,-21.43 426.36,-17.05 474.6,-13.92"/>
<polygon fill="#63b8ff" stroke="#63b8ff" points="474.55,-17.43 484.3,-13.29 474.1,-10.44 474.55,-17.43"/>
</a>
</g>
</g>
<!-- Node9&#45;&gt;Node8 -->
<g id="edge10_Node000009_Node000008" class="edge">
<title>Node9&#45;&gt;Node8</title>
<g id="a_edge10_Node000009_Node000008"><a xlink:title=" ">
<path fill="none" stroke="#63b8ff" d="M308.88,-37.22C318.16,-38.37 327.64,-39.53 336.77,-40.66"/>
<polygon fill="#63b8ff" stroke="#63b8ff" points="336.25,-44.12 346.61,-41.87 337.11,-37.17 336.25,-44.12"/>
</a>
</g>
</g>
</g>
</svg>
