<?xml version="1.0" encoding="UTF-8" standalone="no"?>
<!DOCTYPE svg PUBLIC "-//W3C//DTD SVG 1.1//EN"
 "http://www.w3.org/Graphics/SVG/1.1/DTD/svg11.dtd">
<!-- Generated by graphviz version 14.1.2 (0)
 -->
<!-- Title: ui_get_events Pages: 1 -->
<svg width="320pt" height="47pt"
 viewBox="0.00 0.00 320.00 47.00" xmlns="http://www.w3.org/2000/svg" xmlns:xlink="http://www.w3.org/1999/xlink">
<g id="graph0" class="graph" transform="scale(1 1) rotate(0) translate(4 43)">
<title>ui_get_events</title>
<!-- Node1 -->
<g id="Node000001" class="node">
<title>Node1</title>
<g id="a_Node000001"><a xlink:title="Get next event from UI event queue.">
<polygon fill="#999999" stroke="#666666" points="76.75,-20 0,-20 0,0 76.75,0 76.75,-20"/>
<text xml:space="preserve" text-anchor="middle" x="38.38" y="-6.5" font-family="Helvetica,sans-Serif" font-size="10.00">ui_get_events</text>
</a>
</g>
</g>
<!-- Node2 -->
<g id="Node000002" class="node">
<title>Node2</title>
<g id="a_Node000002"><a xlink:href="event_8c.html#aa5ad85f2fdb68531971d2f337e657061" target="_top" xlink:title="Remove and return the event at the front of the queue.">
<polygon fill="white" stroke="#666666" points="194.75,-39 112.75,-39 112.75,-19 194.75,-19 194.75,-39"/>
<text xml:space="preserve" text-anchor="middle" x="153.75" y="-25.5" font-family="Helvetica,sans-Serif" font-size="10.00">event_dequeue</text>
</a>
</g>
</g>
<!-- Node1&#45;&gt;Node2 -->
<g id="edge1_Node000001_Node000002" class="edge">
<title>Node1&#45;&gt;Node2</title>
<g id="a_edge1_Node000001_Node000002"><a xlink:title=" ">
<path fill="none" stroke="#63b8ff" d="M77.13,-16.33C84.83,-17.62 93.07,-19 101.16,-20.35"/>
<polygon fill="#63b8ff" stroke="#63b8ff" points="100.51,-23.79 110.95,-21.99 101.66,-16.89 100.51,-23.79"/>
</a>
</g>
</g>
<!-- Node3 -->
<g id="Node000003" class="node">
<title>Node3</title>
<g id="a_Node000003"><a xlink:href="event_8c.html#aea88d358a100904366305919eaa2d0ce" target="_top" xlink:title="Check if the event queue is empty.">
<polygon fill="white" stroke="#666666" points="312,-20 230.75,-20 230.75,0 312,0 312,-20"/>
<text xml:space="preserve" text-anchor="middle" x="271.38" y="-6.5" font-family="Helvetica,sans-Serif" font-size="10.00">event_isEmpty</text>
</a>
</g>
</g>
<!-- Node1&#45;&gt;Node3 -->
<g id="edge3_Node000001_Node000003" class="edge">
<title>Node1&#45;&gt;Node3</title>
<g id="a_edge3_Node000001_Node000003"><a xlink:title=" ">
<path fill="none" stroke="#63b8ff" d="M77,-10C115.65,-10 176.07,-10 219.08,-10"/>
<polygon fill="#63b8ff" stroke="#63b8ff" points="218.92,-13.5 228.92,-10 218.92,-6.5 218.92,-13.5"/>
</a>
</g>
</g>
<!-- Node2&#45;&gt;Node3 -->
<g id="edge2_Node000002_Node000003" class="edge">
<title>Node2&#45;&gt;Node3</title>
<g id="a_edge2_Node000002_Node000003"><a xlink:title=" ">
<path fill="none" stroke="#63b8ff" d="M195.19,-22.35C202.98,-21.07 211.23,-19.72 219.31,-18.39"/>
<polygon fill="#63b8ff" stroke="#63b8ff" points="219.75,-21.87 229.05,-16.79 218.61,-14.96 219.75,-21.87"/>
</a>
</g>
</g>
</g>
</svg>
