<?xml version="1.0" encoding="UTF-8" standalone="no"?>
<!DOCTYPE svg PUBLIC "-//W3C//DTD SVG 1.1//EN"
 "http://www.w3.org/Graphics/SVG/1.1/DTD/svg11.dtd">
<!-- Generated by graphviz version 14.1.2 (0)
 -->
<!-- Title: ui_update_settings Pages: 1 -->
<svg width="597pt" height="85pt"
 viewBox="0.00 0.00 597.00 85.00" xmlns="http://www.w3.org/2000/svg" xmlns:xlink="http://www.w3.org/1999/xlink">
<g id="graph0" class="graph" transform="scale(1 1) rotate(0) translate(4 81)">
<title>ui_update_settings</title>
<!-- Node1 -->
<g id="Node000001" class="node">
<title>Node1</title>
<g id="a_Node000001"><a xlink:title="Handle SETTINGS main menu state.">
<polygon fill="#999999" stroke="#666666" points="97.75,-58 0,-58 0,-38 97.75,-38 97.75,-58"/>
<text xml:space="preserve" text-anchor="middle" x="48.88" y="-44.5" font-family="Helvetica,sans-Serif" font-size="10.00">ui_update_settings</text>
</a>
</g>
</g>
<!-- Node2 -->
<g id="Node000002" class="node">
<title>Node2</title>
<g id="a_Node000002"><a xlink:href="log_8c.html#a19c27922f37e1d81bb9370e65be76554" target="_top" xlink:title="Log a message with specified log level.">
<polygon fill="white" stroke="#666666" points="190.25,-77 142.75,-77 142.75,-57 190.25,-57 190.25,-77"/>
<text xml:space="preserve" text-anchor="middle" x="166.5" y="-63.5" font-family="Helvetica,sans-Serif" font-size="10.00">logMsg</text>
</a>
</g>
</g>
<!-- Node1&#45;&gt;Node2 -->
<g id="edge1_Node000001_Node000002" class="edge">
<title>Node1&#45;&gt;Node2</title>
<g id="a_edge1_Node000001_Node000002"><a xlink:title=" ">
<path fill="none" stroke="#63b8ff" d="M98.24,-55.95C109.39,-57.78 121.02,-59.69 131.42,-61.4"/>
<polygon fill="#63b8ff" stroke="#63b8ff" points="130.61,-64.81 141.04,-62.98 131.74,-57.91 130.61,-64.81"/>
</a>
</g>
</g>
<!-- Node3 -->
<g id="Node000003" class="node">
<title>Node3</title>
<g id="a_Node000003"><a xlink:href="ui_8c.html#ab08bf40f29760a62fbea13ac28c412b6" target="_top" xlink:title="Display two rows of text on the LCD.">
<polygon fill="white" stroke="#666666" points="199.25,-39 133.75,-39 133.75,-19 199.25,-19 199.25,-39"/>
<text xml:space="preserve" text-anchor="middle" x="166.5" y="-25.5" font-family="Helvetica,sans-Serif" font-size="10.00">ui_print_lcd</text>
</a>
</g>
</g>
<!-- Node1&#45;&gt;Node3 -->
<g id="edge2_Node000001_Node000003" class="edge">
<title>Node1&#45;&gt;Node3</title>
<g id="a_edge2_Node000001_Node000003"><a xlink:title=" ">
<path fill="none" stroke="#63b8ff" d="M98.24,-40.05C106.22,-38.74 114.45,-37.39 122.3,-36.1"/>
<polygon fill="#63b8ff" stroke="#63b8ff" points="122.65,-39.59 131.95,-34.51 121.52,-32.68 122.65,-39.59"/>
</a>
</g>
</g>
<!-- Node4 -->
<g id="Node000004" class="node">
<title>Node4</title>
<g id="a_Node000004"><a xlink:href="lcd1602__rgb_8c.html#a4675a2ae1eb331b5476c475cd042c71d" target="_top" xlink:title="Write a null&#45;terminated string to the display.">
<polygon fill="white" stroke="#666666" points="340.5,-58 235.25,-58 235.25,-38 340.5,-38 340.5,-58"/>
<text xml:space="preserve" text-anchor="middle" x="287.88" y="-44.5" font-family="Helvetica,sans-Serif" font-size="10.00">lcd1602_send_string</text>
</a>
</g>
</g>
<!-- Node3&#45;&gt;Node4 -->
<g id="edge3_Node000003_Node000004" class="edge">
<title>Node3&#45;&gt;Node4</title>
<g id="a_edge3_Node000003_Node000004"><a xlink:title=" ">
<path fill="none" stroke="#63b8ff" d="M199.49,-34.09C207.08,-35.3 215.43,-36.63 223.88,-37.97"/>
<polygon fill="#63b8ff" stroke="#63b8ff" points="223.05,-41.39 233.47,-39.5 224.15,-34.47 223.05,-41.39"/>
</a>
</g>
</g>
<!-- Node7 -->
<g id="Node000007" class="node">
<title>Node7</title>
<g id="a_Node000007"><a xlink:href="lcd1602__rgb_8c.html#acedfa8e3ed17c86c319b1ee71aa43856" target="_top" xlink:title="Set cursor position.">
<polygon fill="white" stroke="#666666" points="475.38,-20 377.62,-20 377.62,0 475.38,0 475.38,-20"/>
<text xml:space="preserve" text-anchor="middle" x="426.5" y="-6.5" font-family="Helvetica,sans-Serif" font-size="10.00">lcd1602_setCursor</text>
</a>
</g>
</g>
<!-- Node3&#45;&gt;Node7 -->
<g id="edge6_Node000003_Node000007" class="edge">
<title>Node3&#45;&gt;Node7</title>
<g id="a_edge6_Node000003_Node000007"><a xlink:title=" ">
<path fill="none" stroke="#63b8ff" d="M199.65,-26.63C241.22,-23.57 314.41,-18.18 366.19,-14.37"/>
<polygon fill="#63b8ff" stroke="#63b8ff" points="366.32,-17.87 376.04,-13.64 365.81,-10.89 366.32,-17.87"/>
</a>
</g>
</g>
<!-- Node5 -->
<g id="Node000005" class="node">
<title>Node5</title>
<g id="a_Node000005"><a xlink:href="lcd1602__rgb_8c.html#ab95d5708eabcbaa2bf3ca2b155fcefe3" target="_top" xlink:title="Write a single character to the display.">
<polygon fill="white" stroke="#666666" points="476.5,-58 376.5,-58 376.5,-38 476.5,-38 476.5,-58"/>
<text xml:space="preserve" text-anchor="middle" x="426.5" y="-44.5" font-family="Helvetica,sans-Serif" font-size="10.00">lcd1602_write_char</text>
</a>
</g>
</g>
<!-- Node4&#45;&gt;Node5 -->
<g id="edge4_Node000004_Node000005" class="edge">
<title>Node4&#45;&gt;Node5</title>
<g id="a_edge4_Node000004_Node000005"><a xlink:title=" ">
<path fill="none" stroke="#63b8ff" d="M340.92,-48C348.81,-48 357.01,-48 365.06,-48"/>
<polygon fill="#63b8ff" stroke="#63b8ff" points="364.79,-51.5 374.79,-48 364.79,-44.5 364.79,-51.5"/>
</a>
</g>
</g>
<!-- Node6 -->
<g id="Node000006" class="node">
<title>Node6</title>
<g id="a_Node000006"><a xlink:href="lcd1602__rgb_8c.html#af833ec77ef44dc848f52a09072a777ae" target="_top" xlink:title="Send raw data bytes to the LCD via I2C.">
<polygon fill="white" stroke="#666666" points="588.5,-39 512.5,-39 512.5,-19 588.5,-19 588.5,-39"/>
<text xml:space="preserve" text-anchor="middle" x="550.5" y="-25.5" font-family="Helvetica,sans-Serif" font-size="10.00">lcd1602_send</text>
</a>
</g>
</g>
<!-- Node5&#45;&gt;Node6 -->
<g id="edge5_Node000005_Node000006" class="edge">
<title>Node5&#45;&gt;Node6</title>
<g id="a_edge5_Node000005_Node000006"><a xlink:title=" ">
<path fill="none" stroke="#63b8ff" d="M476.77,-40.33C484.68,-39.1 492.86,-37.82 500.76,-36.59"/>
<polygon fill="#63b8ff" stroke="#63b8ff" points="501.22,-40.06 510.56,-35.06 500.14,-33.14 501.22,-40.06"/>
</a>
</g>
</g>
<!-- Node7&#45;&gt;Node6 -->
<g id="edge7_Node000007_Node000006" class="edge">
<title>Node7&#45;&gt;Node6</title>
<g id="a_edge7_Node000007_Node000006"><a xlink:title=" ">
<path fill="none" stroke="#63b8ff" d="M475.72,-17.51C484.05,-18.81 492.72,-20.16 501.06,-21.46"/>
<polygon fill="#63b8ff" stroke="#63b8ff" points="500.25,-24.87 510.67,-22.95 501.33,-17.96 500.25,-24.87"/>
</a>
</g>
</g>
</g>
</svg>
