<?xml version="1.0" encoding="UTF-8" standalone="no"?>
<!DOCTYPE svg PUBLIC "-//W3C//DTD SVG 1.1//EN"
 "http://www.w3.org/Graphics/SVG/1.1/DTD/svg11.dtd">
<!-- Generated by graphviz version 14.1.2 (0)
 -->
<!-- Title: ui_update Pages: 1 -->
<svg width="800pt" height="368pt"
 viewBox="0.00 0.00 800.00 368.00" xmlns="http://www.w3.org/2000/svg" xmlns:xlink="http://www.w3.org/1999/xlink">
<g id="graph0" class="graph" transform="scale(1 1) rotate(0) translate(4 364)">
<title>ui_update</title>
<!-- Node1 -->
<g id="Node000001" class="node">
<title>Node1</title>
<g id="a_Node000001"><a xlink:title="Update UI state machine.">
<polygon fill="#999999" stroke="#666666" points="58,-196 0,-196 0,-176 58,-176 58,-196"/>
<text xml:space="preserve" text-anchor="middle" x="29" y="-182.5" font-family="Helvetica,sans-Serif" font-size="10.00">ui_update</text>
</a>
</g>
</g>
<!-- Node2 -->
<g id="Node000002" class="node">
<title>Node2</title>
<g id="a_Node000002"><a xlink:href="ui_8c.html#ad5a13f6f84cc1bd8df97a052ba4a746b" target="_top" xlink:title="Get next event from UI event queue.">
<polygon fill="white" stroke="#666666" points="201.12,-360 124.38,-360 124.38,-340 201.12,-340 201.12,-360"/>
<text xml:space="preserve" text-anchor="middle" x="162.75" y="-346.5" font-family="Helvetica,sans-Serif" font-size="10.00">ui_get_events</text>
</a>
</g>
</g>
<!-- Node1&#45;&gt;Node2 -->
<g id="edge1_Node000001_Node000002" class="edge">
<title>Node1&#45;&gt;Node2</title>
<g id="a_edge1_Node000001_Node000002"><a xlink:title=" ">
<path fill="none" stroke="#63b8ff" d="M31.47,-196.18C35.83,-222.6 51.17,-293.87 94,-331 99.64,-335.89 106.46,-339.53 113.56,-342.24"/>
<polygon fill="#63b8ff" stroke="#63b8ff" points="112.03,-345.43 122.62,-345.11 114.15,-338.75 112.03,-345.43"/>
</a>
</g>
</g>
<!-- Node5 -->
<g id="Node000005" class="node">
<title>Node5</title>
<g id="a_Node000005"><a xlink:href="ui_8c.html#a9cd652642569d6902183444cd519cc25" target="_top" xlink:title="Handle CREATE_PROGRAM menu state.">
<polygon fill="white" stroke="#666666" points="228.12,-196 97.38,-196 97.38,-176 228.12,-176 228.12,-196"/>
<text xml:space="preserve" text-anchor="middle" x="162.75" y="-182.5" font-family="Helvetica,sans-Serif" font-size="10.00">ui_update_create_program</text>
</a>
</g>
</g>
<!-- Node1&#45;&gt;Node5 -->
<g id="edge5_Node000001_Node000005" class="edge">
<title>Node1&#45;&gt;Node5</title>
<g id="a_edge5_Node000001_Node000005"><a xlink:title=" ">
<path fill="none" stroke="#63b8ff" d="M58.26,-186C66.47,-186 75.85,-186 85.53,-186"/>
<polygon fill="#63b8ff" stroke="#63b8ff" points="85.47,-189.5 95.47,-186 85.47,-182.5 85.47,-189.5"/>
</a>
</g>
</g>
<!-- Node12 -->
<g id="Node000012" class="node">
<title>Node12</title>
<g id="a_Node000012"><a xlink:href="ui_8c.html#a7328c75524fbd4c255db4ee57d587e16" target="_top" xlink:title="Handle CREATE_PROGRAM_DETAILED menu state.">
<polygon fill="white" stroke="#666666" points="228.12,-32 97.38,-32 97.38,0 228.12,0 228.12,-32"/>
<text xml:space="preserve" text-anchor="start" x="105.38" y="-18.5" font-family="Helvetica,sans-Serif" font-size="10.00">ui_update_create_program</text>
<text xml:space="preserve" text-anchor="middle" x="162.75" y="-6.5" font-family="Helvetica,sans-Serif" font-size="10.00">_detailed</text>
</a>
</g>
</g>
<!-- Node1&#45;&gt;Node12 -->
<g id="edge13_Node000001_Node000012" class="edge">
<title>Node1&#45;&gt;Node12</title>
<g id="a_edge13_Node000001_Node000012"><a xlink:title=" ">
<path fill="none" stroke="#63b8ff" d="M31.71,-175.63C36.58,-149.37 52.89,-79.63 94,-41 94.76,-40.29 95.54,-39.59 96.34,-38.92"/>
<polygon fill="#63b8ff" stroke="#63b8ff" points="98.19,-41.9 104.35,-33.28 94.16,-36.18 98.19,-41.9"/>
</a>
</g>
</g>
<!-- Node16 -->
<g id="Node000016" class="node">
<title>Node16</title>
<g id="a_Node000016"><a xlink:href="ui_8c.html#ab9762754190f18740cddebbe0d59b309" target="_top" xlink:title="Handle PROGRAM_DETAILED menu state.">
<polygon fill="white" stroke="#666666" points="231.5,-70 94,-70 94,-50 231.5,-50 231.5,-70"/>
<text xml:space="preserve" text-anchor="middle" x="162.75" y="-56.5" font-family="Helvetica,sans-Serif" font-size="10.00">ui_update_program_detailed</text>
</a>
</g>
</g>
<!-- Node1&#45;&gt;Node16 -->
<g id="edge21_Node000001_Node000016" class="edge">
<title>Node1&#45;&gt;Node16</title>
<g id="a_edge21_Node000001_Node000016"><a xlink:title=" ">
<path fill="none" stroke="#63b8ff" d="M33.23,-175.7C40.48,-154.3 60.12,-104.89 94,-79 95.53,-77.83 97.14,-76.73 98.8,-75.69"/>
<polygon fill="#63b8ff" stroke="#63b8ff" points="100.19,-78.91 107.45,-71.19 96.96,-72.7 100.19,-78.91"/>
</a>
</g>
</g>
<!-- Node17 -->
<g id="Node000017" class="node">
<title>Node17</title>
<g id="a_Node000017"><a xlink:href="ui_8c.html#a3b5feeaa3b12e5b763ca3bada8a6f185" target="_top" xlink:title="Handle PROGRAMS main menu state.">
<polygon fill="white" stroke="#666666" points="214.62,-158 110.88,-158 110.88,-138 214.62,-138 214.62,-158"/>
<text xml:space="preserve" text-anchor="middle" x="162.75" y="-144.5" font-family="Helvetica,sans-Serif" font-size="10.00">ui_update_programs</text>
</a>
</g>
</g>
<!-- Node1&#45;&gt;Node17 -->
<g id="edge26_Node000001_Node000017" class="edge">
<title>Node1&#45;&gt;Node17</title>
<g id="a_edge26_Node000001_Node000017"><a xlink:title=" ">
<path fill="none" stroke="#63b8ff" d="M58.33,-177.49C69.44,-174.18 82.31,-170.37 94,-167 100.24,-165.2 106.81,-163.33 113.31,-161.49"/>
<polygon fill="#63b8ff" stroke="#63b8ff" points="113.96,-164.94 122.64,-158.86 112.06,-158.2 113.96,-164.94"/>
</a>
</g>
</g>
<!-- Node18 -->
<g id="Node000018" class="node">
<title>Node18</title>
<g id="a_Node000018"><a xlink:href="ui_8c.html#aaf5cd0f82052c1fe3150ee31bee733c3" target="_top" xlink:title="Handle PROGRAMS_OVERVIEW menu state.">
<polygon fill="white" stroke="#666666" points="214.62,-120 110.88,-120 110.88,-88 214.62,-88 214.62,-120"/>
<text xml:space="preserve" text-anchor="start" x="118.88" y="-106.5" font-family="Helvetica,sans-Serif" font-size="10.00">ui_update_programs</text>
<text xml:space="preserve" text-anchor="middle" x="162.75" y="-94.5" font-family="Helvetica,sans-Serif" font-size="10.00">_overview</text>
</a>
</g>
</g>
<!-- Node1&#45;&gt;Node18 -->
<g id="edge29_Node000001_Node000018" class="edge">
<title>Node1&#45;&gt;Node18</title>
<g id="a_edge29_Node000001_Node000018"><a xlink:title=" ">
<path fill="none" stroke="#63b8ff" d="M39.06,-175.87C50.71,-163.37 72.06,-142.17 94,-129 96.14,-127.72 98.36,-126.48 100.63,-125.29"/>
<polygon fill="#63b8ff" stroke="#63b8ff" points="101.96,-128.54 109.46,-121.06 98.93,-122.22 101.96,-128.54"/>
</a>
</g>
</g>
<!-- Node19 -->
<g id="Node000019" class="node">
<title>Node19</title>
<g id="a_Node000019"><a xlink:href="ui_8c.html#a69020987570a087f78cc6e830c66d003" target="_top" xlink:title="Handle SETPOINT menu state.">
<polygon fill="white" stroke="#666666" points="211.62,-322 113.88,-322 113.88,-302 211.62,-302 211.62,-322"/>
<text xml:space="preserve" text-anchor="middle" x="162.75" y="-308.5" font-family="Helvetica,sans-Serif" font-size="10.00">ui_update_setpoint</text>
</a>
</g>
</g>
<!-- Node1&#45;&gt;Node19 -->
<g id="edge32_Node000001_Node000019" class="edge">
<title>Node1&#45;&gt;Node19</title>
<g id="a_edge32_Node000001_Node000019"><a xlink:title=" ">
<path fill="none" stroke="#63b8ff" d="M33.23,-196.3C40.48,-217.7 60.12,-267.11 94,-293 96.91,-295.23 100.07,-297.19 103.38,-298.92"/>
<polygon fill="#63b8ff" stroke="#63b8ff" points="101.72,-302.02 112.28,-302.86 104.55,-295.61 101.72,-302.02"/>
</a>
</g>
</g>
<!-- Node20 -->
<g id="Node000020" class="node">
<title>Node20</title>
<g id="a_Node000020"><a xlink:href="ui_8c.html#a02da7ed57381740b440cbbf67658edb7" target="_top" xlink:title="Handle SETTINGS main menu state.">
<polygon fill="white" stroke="#666666" points="211.62,-284 113.88,-284 113.88,-264 211.62,-264 211.62,-284"/>
<text xml:space="preserve" text-anchor="middle" x="162.75" y="-270.5" font-family="Helvetica,sans-Serif" font-size="10.00">ui_update_settings</text>
</a>
</g>
</g>
<!-- Node1&#45;&gt;Node20 -->
<g id="edge35_Node000001_Node000020" class="edge">
<title>Node1&#45;&gt;Node20</title>
<g id="a_edge35_Node000001_Node000020"><a xlink:title=" ">
<path fill="none" stroke="#63b8ff" d="M36.76,-196.33C47.22,-211.48 68.76,-239.59 94,-255 96.93,-256.79 100.03,-258.41 103.23,-259.89"/>
<polygon fill="#63b8ff" stroke="#63b8ff" points="101.72,-263.05 112.31,-263.54 104.34,-256.56 101.72,-263.05"/>
</a>
</g>
</g>
<!-- Node21 -->
<g id="Node000021" class="node">
<title>Node21</title>
<g id="a_Node000021"><a xlink:href="ui_8c.html#ae12e11d5bc28a67cea4da70fe20127c3" target="_top" xlink:title="Handle SETTINGS_OVERVIEW menu state.">
<polygon fill="white" stroke="#666666" points="211.62,-246 113.88,-246 113.88,-214 211.62,-214 211.62,-246"/>
<text xml:space="preserve" text-anchor="start" x="121.88" y="-232.5" font-family="Helvetica,sans-Serif" font-size="10.00">ui_update_settings</text>
<text xml:space="preserve" text-anchor="middle" x="162.75" y="-220.5" font-family="Helvetica,sans-Serif" font-size="10.00">_overview</text>
</a>
</g>
</g>
<!-- Node1&#45;&gt;Node21 -->
<g id="edge38_Node000001_Node000021" class="edge">
<title>Node1&#45;&gt;Node21</title>
<g id="a_edge38_Node000001_Node000021"><a xlink:title=" ">
<path fill="none" stroke="#63b8ff" d="M58.26,-195.44C71.35,-199.81 87.41,-205.17 102.94,-210.36"/>
<polygon fill="#63b8ff" stroke="#63b8ff" points="101.54,-213.58 112.13,-213.43 103.76,-206.94 101.54,-213.58"/>
</a>
</g>
</g>
<!-- Node3 -->
<g id="Node000003" class="node">
<title>Node3</title>
<g id="a_Node000003"><a xlink:href="event_8c.html#aa5ad85f2fdb68531971d2f337e657061" target="_top" xlink:title="Remove and return the event at the front of the queue.">
<polygon fill="white" stroke="#666666" points="376.12,-341 294.12,-341 294.12,-321 376.12,-321 376.12,-341"/>
<text xml:space="preserve" text-anchor="middle" x="335.12" y="-327.5" font-family="Helvetica,sans-Serif" font-size="10.00">event_dequeue</text>
</a>
</g>
</g>
<!-- Node2&#45;&gt;Node3 -->
<g id="edge2_Node000002_Node000003" class="edge">
<title>Node2&#45;&gt;Node3</title>
<g id="a_edge2_Node000002_Node000003"><a xlink:title=" ">
<path fill="none" stroke="#63b8ff" d="M201.56,-345.78C225.39,-343.13 256.46,-339.66 282.54,-336.75"/>
<polygon fill="#63b8ff" stroke="#63b8ff" points="282.69,-340.26 292.24,-335.67 281.91,-333.3 282.69,-340.26"/>
</a>
</g>
</g>
<!-- Node4 -->
<g id="Node000004" class="node">
<title>Node4</title>
<g id="a_Node000004"><a xlink:href="event_8c.html#aea88d358a100904366305919eaa2d0ce" target="_top" xlink:title="Check if the event queue is empty.">
<polygon fill="white" stroke="#666666" points="532,-360 450.75,-360 450.75,-340 532,-340 532,-360"/>
<text xml:space="preserve" text-anchor="middle" x="491.38" y="-346.5" font-family="Helvetica,sans-Serif" font-size="10.00">event_isEmpty</text>
</a>
</g>
</g>
<!-- Node2&#45;&gt;Node4 -->
<g id="edge4_Node000002_Node000004" class="edge">
<title>Node2&#45;&gt;Node4</title>
<g id="a_edge4_Node000002_Node000004"><a xlink:title=" ">
<path fill="none" stroke="#63b8ff" d="M201.54,-350C260.15,-350 373.08,-350 439.04,-350"/>
<polygon fill="#63b8ff" stroke="#63b8ff" points="438.87,-353.5 448.87,-350 438.87,-346.5 438.87,-353.5"/>
</a>
</g>
</g>
<!-- Node3&#45;&gt;Node4 -->
<g id="edge3_Node000003_Node000004" class="edge">
<title>Node3&#45;&gt;Node4</title>
<g id="a_edge3_Node000003_Node000004"><a xlink:title=" ">
<path fill="none" stroke="#63b8ff" d="M376.25,-335.94C395.44,-338.31 418.64,-341.16 439.09,-343.68"/>
<polygon fill="#63b8ff" stroke="#63b8ff" points="438.6,-347.15 448.95,-344.9 439.45,-340.2 438.6,-347.15"/>
</a>
</g>
</g>
<!-- Node6 -->
<g id="Node000006" class="node">
<title>Node6</title>
<g id="a_Node000006"><a xlink:href="log_8c.html#a19c27922f37e1d81bb9370e65be76554" target="_top" xlink:title="Log a message with specified log level.">
<polygon fill="white" stroke="#666666" points="358.88,-152 311.38,-152 311.38,-132 358.88,-132 358.88,-152"/>
<text xml:space="preserve" text-anchor="middle" x="335.12" y="-138.5" font-family="Helvetica,sans-Serif" font-size="10.00">logMsg</text>
</a>
</g>
</g>
<!-- Node5&#45;&gt;Node6 -->
<g id="edge6_Node000005_Node000006" class="edge">
<title>Node5&#45;&gt;Node6</title>
<g id="a_edge6_Node000005_Node000006"><a xlink:title=" ">
<path fill="none" stroke="#63b8ff" d="M204.13,-175.57C233.4,-168.01 272.55,-157.9 300.21,-150.76"/>
<polygon fill="#63b8ff" stroke="#63b8ff" points="301.02,-154.16 309.83,-148.27 299.27,-147.39 301.02,-154.16"/>
</a>
</g>
</g>
<!-- Node7 -->
<g id="Node000007" class="node">
<title>Node7</title>
<g id="a_Node000007"><a xlink:href="ui_8c.html#ab08bf40f29760a62fbea13ac28c412b6" target="_top" xlink:title="Display two rows of text on the LCD.">
<polygon fill="white" stroke="#666666" points="367.88,-190 302.38,-190 302.38,-170 367.88,-170 367.88,-190"/>
<text xml:space="preserve" text-anchor="middle" x="335.12" y="-176.5" font-family="Helvetica,sans-Serif" font-size="10.00">ui_print_lcd</text>
</a>
</g>
</g>
<!-- Node5&#45;&gt;Node7 -->
<g id="edge7_Node000005_Node000007" class="edge">
<title>Node5&#45;&gt;Node7</title>
<g id="a_edge7_Node000005_Node000007"><a xlink:title=" ">
<path fill="none" stroke="#63b8ff" d="M228.16,-183.73C249.08,-183 271.77,-182.2 290.77,-181.53"/>
<polygon fill="#63b8ff" stroke="#63b8ff" points="290.69,-185.03 300.56,-181.18 290.44,-178.04 290.69,-185.03"/>
</a>
</g>
</g>
<!-- Node8 -->
<g id="Node000008" class="node">
<title>Node8</title>
<g id="a_Node000008"><a xlink:href="lcd1602__rgb_8c.html#a4675a2ae1eb331b5476c475cd042c71d" target="_top" xlink:title="Write a null&#45;terminated string to the display.">
<polygon fill="white" stroke="#666666" points="544,-178 438.75,-178 438.75,-158 544,-158 544,-178"/>
<text xml:space="preserve" text-anchor="middle" x="491.38" y="-164.5" font-family="Helvetica,sans-Serif" font-size="10.00">lcd1602_send_string</text>
</a>
</g>
</g>
<!-- Node7&#45;&gt;Node8 -->
<g id="edge8_Node000007_Node000008" class="edge">
<title>Node7&#45;&gt;Node8</title>
<g id="a_edge8_Node000007_Node000008"><a xlink:title=" ">
<path fill="none" stroke="#63b8ff" d="M368.09,-177.51C385.13,-176.19 406.72,-174.51 427,-172.93"/>
<polygon fill="#63b8ff" stroke="#63b8ff" points="427.21,-176.42 436.91,-172.16 426.67,-169.45 427.21,-176.42"/>
</a>
</g>
</g>
<!-- Node11 -->
<g id="Node000011" class="node">
<title>Node11</title>
<g id="a_Node000011"><a xlink:href="lcd1602__rgb_8c.html#acedfa8e3ed17c86c319b1ee71aa43856" target="_top" xlink:title="Set cursor position.">
<polygon fill="white" stroke="#666666" points="540.25,-134 442.5,-134 442.5,-114 540.25,-114 540.25,-134"/>
<text xml:space="preserve" text-anchor="middle" x="491.38" y="-120.5" font-family="Helvetica,sans-Serif" font-size="10.00">lcd1602_setCursor</text>
</a>
</g>
</g>
<!-- Node7&#45;&gt;Node11 -->
<g id="edge11_Node000007_Node000011" class="edge">
<title>Node7&#45;&gt;Node11</title>
<g id="a_edge11_Node000007_Node000011"><a xlink:title=" ">
<path fill="none" stroke="#63b8ff" d="M368.23,-171.7C379.26,-168.62 391.63,-164.92 402.75,-161 421.28,-154.47 441.5,-146.03 457.85,-138.85"/>
<polygon fill="#63b8ff" stroke="#63b8ff" points="458.88,-142.22 466.59,-134.96 456.03,-135.83 458.88,-142.22"/>
</a>
</g>
</g>
<!-- Node9 -->
<g id="Node000009" class="node">
<title>Node9</title>
<g id="a_Node000009"><a xlink:href="lcd1602__rgb_8c.html#ab95d5708eabcbaa2bf3ca2b155fcefe3" target="_top" xlink:title="Write a single character to the display.">
<polygon fill="white" stroke="#666666" points="680,-96 580,-96 580,-76 680,-76 680,-96"/>
<text xml:space="preserve" text-anchor="middle" x="630" y="-82.5" font-family="Helvetica,sans-Serif" font-size="10.00">lcd1602_write_char</text>
</a>
</g>
</g>
<!-- Node8&#45;&gt;Node9 -->
<g id="edge9_Node000008_Node000009" class="edge">
<title>Node8&#45;&gt;Node9</title>
<g id="a_edge9_Node000008_Node000009"><a xlink:title=" ">
<path fill="none" stroke="#63b8ff" d="M515.6,-157.6C524.62,-153.34 534.93,-148.2 544,-143 565.64,-130.58 589.12,-114.64 605.91,-102.77"/>
<polygon fill="#63b8ff" stroke="#63b8ff" points="607.62,-105.85 613.72,-97.19 603.55,-100.15 607.62,-105.85"/>
</a>
</g>
</g>
<!-- Node10 -->
<g id="Node000010" class="node">
<title>Node10</title>
<g id="a_Node000010"><a xlink:href="lcd1602__rgb_8c.html#af833ec77ef44dc848f52a09072a777ae" target="_top" xlink:title="Send raw data bytes to the LCD via I2C.">
<polygon fill="white" stroke="#666666" points="792,-115 716,-115 716,-95 792,-95 792,-115"/>
<text xml:space="preserve" text-anchor="middle" x="754" y="-101.5" font-family="Helvetica,sans-Serif" font-size="10.00">lcd1602_send</text>
</a>
</g>
</g>
<!-- Node9&#45;&gt;Node10 -->
<g id="edge10_Node000009_Node000010" class="edge">
<title>Node9&#45;&gt;Node10</title>
<g id="a_edge10_Node000009_Node000010"><a xlink:title=" ">
<path fill="none" stroke="#63b8ff" d="M680.27,-93.67C688.18,-94.9 696.36,-96.18 704.26,-97.41"/>
<polygon fill="#63b8ff" stroke="#63b8ff" points="703.64,-100.86 714.06,-98.94 704.72,-93.94 703.64,-100.86"/>
</a>
</g>
</g>
<!-- Node11&#45;&gt;Node10 -->
<g id="edge12_Node000011_Node000010" class="edge">
<title>Node11&#45;&gt;Node10</title>
<g id="a_edge12_Node000011_Node000010"><a xlink:title=" ">
<path fill="none" stroke="#63b8ff" d="M540.48,-120.49C587.12,-117.09 657.52,-111.96 704.35,-108.55"/>
<polygon fill="#63b8ff" stroke="#63b8ff" points="704.49,-112.05 714.21,-107.83 703.98,-105.06 704.49,-112.05"/>
</a>
</g>
</g>
<!-- Node12&#45;&gt;Node6 -->
<g id="edge14_Node000012_Node000006" class="edge">
<title>Node12&#45;&gt;Node6</title>
<g id="a_edge14_Node000012_Node000006"><a xlink:title=" ">
<path fill="none" stroke="#63b8ff" d="M219.43,-32.38C223.77,-34.87 227.87,-37.73 231.5,-41 258.38,-65.21 241.16,-89.2 267.5,-114 276.71,-122.67 288.99,-128.85 300.5,-133.16"/>
<polygon fill="#63b8ff" stroke="#63b8ff" points="299.15,-136.4 309.74,-136.26 301.37,-129.76 299.15,-136.4"/>
</a>
</g>
</g>
<!-- Node12&#45;&gt;Node7 -->
<g id="edge17_Node000012_Node000007" class="edge">
<title>Node12&#45;&gt;Node7</title>
<g id="a_edge17_Node000012_Node000007"><a xlink:title=" ">
<path fill="none" stroke="#63b8ff" d="M221.01,-32.37C224.85,-34.85 228.41,-37.71 231.5,-41 269.63,-81.58 227.86,-121.9 267.5,-161 273.94,-167.35 282.35,-171.62 291.02,-174.46"/>
<polygon fill="#63b8ff" stroke="#63b8ff" points="289.97,-177.81 300.54,-176.98 291.76,-171.04 289.97,-177.81"/>
</a>
</g>
</g>
<!-- Node13 -->
<g id="Node000013" class="node">
<title>Node13</title>
<g id="a_Node000013"><a xlink:href="ui_8c.html#ababb2e5a797bf5751b72fa000a7b1c1b" target="_top" xlink:title="Fill LCD buffers with program step data.">
<polygon fill="white" stroke="#666666" points="393,-105 277.25,-105 277.25,-85 393,-85 393,-105"/>
<text xml:space="preserve" text-anchor="middle" x="335.12" y="-91.5" font-family="Helvetica,sans-Serif" font-size="10.00">ui_fill_lcd_buf_program</text>
</a>
</g>
</g>
<!-- Node12&#45;&gt;Node13 -->
<g id="edge15_Node000012_Node000013" class="edge">
<title>Node12&#45;&gt;Node13</title>
<g id="a_edge15_Node000012_Node000013"><a xlink:title=" ">
<path fill="none" stroke="#63b8ff" d="M215.52,-32.5C221.08,-35.03 226.52,-37.86 231.5,-41 250.38,-52.9 248.19,-64.82 267.5,-76 270.14,-77.53 272.91,-78.94 275.77,-80.24"/>
<polygon fill="#63b8ff" stroke="#63b8ff" points="274.36,-83.45 284.94,-83.94 276.97,-76.96 274.36,-83.45"/>
</a>
</g>
</g>
<!-- Node14 -->
<g id="Node000014" class="node">
<title>Node14</title>
<g id="a_Node000014"><a xlink:href="ui_8c.html#ad6f04bbd335a129dfdde361113a3bde0" target="_top" xlink:title="Update program values from temporary input variables.">
<polygon fill="white" stroke="#666666" points="391.5,-26 278.75,-26 278.75,-6 391.5,-6 391.5,-26"/>
<text xml:space="preserve" text-anchor="middle" x="335.12" y="-12.5" font-family="Helvetica,sans-Serif" font-size="10.00">ui_fill_program_values</text>
</a>
</g>
</g>
<!-- Node12&#45;&gt;Node14 -->
<g id="edge16_Node000012_Node000014" class="edge">
<title>Node12&#45;&gt;Node14</title>
<g id="a_edge16_Node000012_Node000014"><a xlink:title=" ">
<path fill="none" stroke="#63b8ff" d="M228.16,-16C240.79,-16 254.06,-16 266.78,-16"/>
<polygon fill="#63b8ff" stroke="#63b8ff" points="266.76,-19.5 276.76,-16 266.76,-12.5 266.76,-19.5"/>
</a>
</g>
</g>
<!-- Node15 -->
<g id="Node000015" class="node">
<title>Node15</title>
<g id="a_Node000015"><a xlink:href="ui_8c.html#a81de81298db27fab4a93d349c6f4defb" target="_top" xlink:title="Print custom degree symbols on LCD for program view.">
<polygon fill="white" stroke="#666666" points="402.75,-67 267.5,-67 267.5,-47 402.75,-47 402.75,-67"/>
<text xml:space="preserve" text-anchor="middle" x="335.12" y="-53.5" font-family="Helvetica,sans-Serif" font-size="10.00">ui_print_lcd_program_symb</text>
</a>
</g>
</g>
<!-- Node12&#45;&gt;Node15 -->
<g id="edge18_Node000012_Node000015" class="edge">
<title>Node12&#45;&gt;Node15</title>
<g id="a_edge18_Node000012_Node000015"><a xlink:title=" ">
<path fill="none" stroke="#63b8ff" d="M228.16,-31.5C245.08,-35.57 263.17,-39.92 279.52,-43.86"/>
<polygon fill="#63b8ff" stroke="#63b8ff" points="278.51,-47.22 289.06,-46.15 280.15,-40.41 278.51,-47.22"/>
</a>
</g>
</g>
<!-- Node15&#45;&gt;Node9 -->
<g id="edge20_Node000015_Node000009" class="edge">
<title>Node15&#45;&gt;Node9</title>
<g id="a_edge20_Node000015_Node000009"><a xlink:title=" ">
<path fill="none" stroke="#63b8ff" d="M402.95,-63.62C452.81,-68.55 520.36,-75.24 568.6,-80.02"/>
<polygon fill="#63b8ff" stroke="#63b8ff" points="568.01,-83.48 578.31,-80.98 568.7,-76.51 568.01,-83.48"/>
</a>
</g>
</g>
<!-- Node15&#45;&gt;Node11 -->
<g id="edge19_Node000015_Node000011" class="edge">
<title>Node15&#45;&gt;Node11</title>
<g id="a_edge19_Node000015_Node000011"><a xlink:title=" ">
<path fill="none" stroke="#63b8ff" d="M378.19,-67.45C386.45,-69.93 394.96,-72.8 402.75,-76 424.28,-84.84 447.31,-97.59 464.35,-107.73"/>
<polygon fill="#63b8ff" stroke="#63b8ff" points="462.46,-110.68 472.83,-112.87 466.09,-104.7 462.46,-110.68"/>
</a>
</g>
</g>
<!-- Node16&#45;&gt;Node6 -->
<g id="edge22_Node000016_Node000006" class="edge">
<title>Node16&#45;&gt;Node6</title>
<g id="a_edge22_Node000016_Node000006"><a xlink:title=" ">
<path fill="none" stroke="#63b8ff" d="M212.34,-70.42C218.99,-72.76 225.57,-75.59 231.5,-79 250.84,-90.13 248.89,-101.69 267.5,-114 277.62,-120.7 289.61,-126.33 300.61,-130.75"/>
<polygon fill="#63b8ff" stroke="#63b8ff" points="299.16,-133.95 309.75,-134.22 301.65,-127.4 299.16,-133.95"/>
</a>
</g>
</g>
<!-- Node16&#45;&gt;Node7 -->
<g id="edge24_Node000016_Node000007" class="edge">
<title>Node16&#45;&gt;Node7</title>
<g id="a_edge24_Node000016_Node000007"><a xlink:title=" ">
<path fill="none" stroke="#63b8ff" d="M218.17,-70.42C222.99,-72.73 227.53,-75.56 231.5,-79 261.55,-105.1 237.51,-134.83 267.5,-161 274.25,-166.89 282.72,-170.97 291.34,-173.78"/>
<polygon fill="#63b8ff" stroke="#63b8ff" points="290.18,-177.09 300.74,-176.31 292,-170.33 290.18,-177.09"/>
</a>
</g>
</g>
<!-- Node16&#45;&gt;Node13 -->
<g id="edge23_Node000016_Node000013" class="edge">
<title>Node16&#45;&gt;Node13</title>
<g id="a_edge23_Node000016_Node000013"><a xlink:title=" ">
<path fill="none" stroke="#63b8ff" d="M214.41,-70.41C232.44,-74.11 252.97,-78.33 271.86,-82.21"/>
<polygon fill="#63b8ff" stroke="#63b8ff" points="271.09,-85.62 281.59,-84.21 272.5,-78.77 271.09,-85.62"/>
</a>
</g>
</g>
<!-- Node16&#45;&gt;Node15 -->
<g id="edge25_Node000016_Node000015" class="edge">
<title>Node16&#45;&gt;Node15</title>
<g id="a_edge25_Node000016_Node000015"><a xlink:title=" ">
<path fill="none" stroke="#63b8ff" d="M231.58,-58.81C239.52,-58.67 247.68,-58.52 255.76,-58.38"/>
<polygon fill="#63b8ff" stroke="#63b8ff" points="255.64,-61.88 265.57,-58.21 255.51,-54.88 255.64,-61.88"/>
</a>
</g>
</g>
<!-- Node17&#45;&gt;Node6 -->
<g id="edge27_Node000017_Node000006" class="edge">
<title>Node17&#45;&gt;Node6</title>
<g id="a_edge27_Node000017_Node000006"><a xlink:title=" ">
<path fill="none" stroke="#63b8ff" d="M214.87,-146.2C242.33,-145.23 275.44,-144.07 299.8,-143.21"/>
<polygon fill="#63b8ff" stroke="#63b8ff" points="299.61,-146.72 309.48,-142.87 299.37,-139.72 299.61,-146.72"/>
</a>
</g>
</g>
<!-- Node17&#45;&gt;Node7 -->
<g id="edge28_Node000017_Node000007" class="edge">
<title>Node17&#45;&gt;Node7</title>
<g id="a_edge28_Node000017_Node000007"><a xlink:title=" ">
<path fill="none" stroke="#63b8ff" d="M214.87,-157.6C239.1,-162.15 267.74,-167.53 290.88,-171.88"/>
<polygon fill="#63b8ff" stroke="#63b8ff" points="290.12,-175.3 300.6,-173.7 291.41,-168.42 290.12,-175.3"/>
</a>
</g>
</g>
<!-- Node18&#45;&gt;Node6 -->
<g id="edge30_Node000018_Node000006" class="edge">
<title>Node18&#45;&gt;Node6</title>
<g id="a_edge30_Node000018_Node000006"><a xlink:title=" ">
<path fill="none" stroke="#63b8ff" d="M214.87,-115.4C242.33,-121.53 275.44,-128.91 299.8,-134.34"/>
<polygon fill="#63b8ff" stroke="#63b8ff" points="299,-137.75 309.52,-136.51 300.52,-130.92 299,-137.75"/>
</a>
</g>
</g>
<!-- Node18&#45;&gt;Node7 -->
<g id="edge31_Node000018_Node000007" class="edge">
<title>Node18&#45;&gt;Node7</title>
<g id="a_edge31_Node000018_Node000007"><a xlink:title=" ">
<path fill="none" stroke="#63b8ff" d="M214.67,-120.41C220.5,-122.98 226.23,-125.84 231.5,-129 249.86,-140.01 248.74,-150.7 267.5,-161 274.82,-165.02 283.07,-168.26 291.21,-170.84"/>
<polygon fill="#63b8ff" stroke="#63b8ff" points="290.11,-174.17 300.68,-173.55 292.03,-167.44 290.11,-174.17"/>
</a>
</g>
</g>
<!-- Node19&#45;&gt;Node6 -->
<g id="edge33_Node000019_Node000006" class="edge">
<title>Node19&#45;&gt;Node6</title>
<g id="a_edge33_Node000019_Node000006"><a xlink:title=" ">
<path fill="none" stroke="#63b8ff" d="M211.96,-305.2C219.22,-302.39 226.08,-298.46 231.5,-293 274.34,-249.85 224.75,-204.25 267.5,-161 276.06,-152.34 288.27,-147.56 299.91,-144.94"/>
<polygon fill="#63b8ff" stroke="#63b8ff" points="300.45,-148.4 309.7,-143.24 299.25,-141.5 300.45,-148.4"/>
</a>
</g>
</g>
<!-- Node19&#45;&gt;Node7 -->
<g id="edge34_Node000019_Node000007" class="edge">
<title>Node19&#45;&gt;Node7</title>
<g id="a_edge34_Node000019_Node000007"><a xlink:title=" ">
<path fill="none" stroke="#63b8ff" d="M211.83,-302.17C218.7,-299.74 225.47,-296.72 231.5,-293 270.93,-268.64 304.39,-224.82 321.62,-199.5"/>
<polygon fill="#63b8ff" stroke="#63b8ff" points="324.35,-201.72 326.96,-191.45 318.52,-197.85 324.35,-201.72"/>
</a>
</g>
</g>
<!-- Node20&#45;&gt;Node6 -->
<g id="edge36_Node000020_Node000006" class="edge">
<title>Node20&#45;&gt;Node6</title>
<g id="a_edge36_Node000020_Node000006"><a xlink:title=" ">
<path fill="none" stroke="#63b8ff" d="M211.86,-266.59C219.04,-263.85 225.9,-260.1 231.5,-255 264.56,-224.86 234.51,-191.21 267.5,-161 276.35,-152.9 288.42,-148.22 299.85,-145.54"/>
<polygon fill="#63b8ff" stroke="#63b8ff" points="300.26,-149.02 309.45,-143.74 298.97,-142.14 300.26,-149.02"/>
</a>
</g>
</g>
<!-- Node20&#45;&gt;Node7 -->
<g id="edge37_Node000020_Node000007" class="edge">
<title>Node20&#45;&gt;Node7</title>
<g id="a_edge37_Node000020_Node000007"><a xlink:title=" ">
<path fill="none" stroke="#63b8ff" d="M209.77,-263.51C217.2,-261.13 224.69,-258.31 231.5,-255 262.89,-239.75 294.65,-214.73 314.36,-197.82"/>
<polygon fill="#63b8ff" stroke="#63b8ff" points="316.65,-200.47 321.87,-191.25 312.04,-195.2 316.65,-200.47"/>
</a>
</g>
</g>
<!-- Node21&#45;&gt;Node6 -->
<g id="edge39_Node000021_Node000006" class="edge">
<title>Node21&#45;&gt;Node6</title>
<g id="a_edge39_Node000021_Node000006"><a xlink:title=" ">
<path fill="none" stroke="#63b8ff" d="M212.02,-215.84C218.86,-212.81 225.58,-209.22 231.5,-205 252.07,-190.33 246.39,-174.88 267.5,-161 277.2,-154.63 289.05,-150.36 300.05,-147.51"/>
<polygon fill="#63b8ff" stroke="#63b8ff" points="300.62,-150.97 309.61,-145.37 299.09,-144.14 300.62,-150.97"/>
</a>
</g>
</g>
<!-- Node21&#45;&gt;Node7 -->
<g id="edge40_Node000021_Node000007" class="edge">
<title>Node21&#45;&gt;Node7</title>
<g id="a_edge40_Node000021_Node000007"><a xlink:title=" ">
<path fill="none" stroke="#63b8ff" d="M212.12,-215.81C237,-208.5 267.08,-199.68 291.14,-192.61"/>
<polygon fill="#63b8ff" stroke="#63b8ff" points="292.01,-196.01 300.62,-189.83 290.04,-189.29 292.01,-196.01"/>
</a>
</g>
</g>
</g>
</svg>
