<?xml version="1.0" encoding="UTF-8" standalone="no"?>
<!DOCTYPE svg PUBLIC "-//W3C//DTD SVG 1.1//EN"
 "http://www.w3.org/Graphics/SVG/1.1/DTD/svg11.dtd">
<!-- Generated by graphviz version 14.1.2 (0)
 -->
<!-- Title: Core/Inc/ui.h Pages: 1 -->
<svg width="272pt" height="140pt"
 viewBox="0.00 0.00 272.00 140.00" xmlns="http://www.w3.org/2000/svg" xmlns:xlink="http://www.w3.org/1999/xlink">

<svg id="main" version="1.1" xmlns="http://www.w3.org/2000/svg" xmlns:xlink="http://www.w3.org/1999/xlink" xml:space="preserve">

<style type="text/css"><![CDATA[
.node, .edge {opacity: 0.7;}
.node.selected, .edge.selected {opacity: 1;}
.edge:hover path { stroke: red; }
.edge:hover polygon { stroke: red; fill: red; }
]]></style>
<script type="application/ecmascript" xlink:href="svg.min.js"/>
<svg id="graph" class="graph">
<g id="graph0" class="graph" transform="scale(1 1) rotate(0) translate(4 136)">
<title>Core/Inc/ui.h</title>
<!-- Node1 -->
<g id="Node000001" class="node">
<title>Node1</title>
<g id="a_Node000001"><a xlink:title="User interface module for menu&#45;driven LCD control.">
<polygon fill="#999999" stroke="#666666" points="198.5,-132 126.25,-132 126.25,-112 198.5,-112 198.5,-132"/>
<text xml:space="preserve" text-anchor="middle" x="162.38" y="-118.5" font-family="Helvetica,sans-Serif" font-size="10.00">Core/Inc/ui.h</text>
</a>
</g>
</g>
<!-- Node2 -->
<g id="Node000002" class="node">
<title>Node2</title>
<g id="a_Node000002"><a xlink:href="encoder_8h.html" target="_top" xlink:title="Rotary encoder driver with interrupt&#45;based rotation detection.">
<polygon fill="white" stroke="#666666" points="134,-76 34.75,-76 34.75,-56 134,-56 134,-76"/>
<text xml:space="preserve" text-anchor="middle" x="84.38" y="-62.5" font-family="Helvetica,sans-Serif" font-size="10.00">Core/Inc/encoder.h</text>
</a>
</g>
</g>
<!-- Node1&#45;&gt;Node2 -->
<g id="edge1_Node000001_Node000002" class="edge">
<title>Node1&#45;&gt;Node2</title>
<g id="a_edge1_Node000001_Node000002"><a xlink:title=" ">
<path fill="none" stroke="#63b8ff" d="M139.66,-105.27C126.18,-95.94 109.55,-84.43 98.07,-76.48"/>
<polygon fill="#63b8ff" stroke="#63b8ff" points="137.33,-107.92 147.54,-110.73 141.31,-102.16 137.33,-107.92"/>
</a>
</g>
</g>
<!-- Node4 -->
<g id="Node000004" class="node">
<title>Node4</title>
<g id="a_Node000004"><a xlink:href="main_8c.html" target="_top" xlink:title=": Main program body">
<polygon fill="white" stroke="#666666" points="206,-20 118.75,-20 118.75,0 206,0 206,-20"/>
<text xml:space="preserve" text-anchor="middle" x="162.38" y="-6.5" font-family="Helvetica,sans-Serif" font-size="10.00">Core/Src/main.c</text>
</a>
</g>
</g>
<!-- Node1&#45;&gt;Node4 -->
<g id="edge4_Node000001_Node000004" class="edge">
<title>Node1&#45;&gt;Node4</title>
<g id="a_edge4_Node000001_Node000004"><a xlink:title=" ">
<path fill="none" stroke="#63b8ff" d="M162.38,-100.31C162.38,-76.36 162.38,-37.95 162.38,-20.35"/>
<polygon fill="#63b8ff" stroke="#63b8ff" points="158.88,-100.11 162.38,-110.11 165.88,-100.11 158.88,-100.11"/>
</a>
</g>
</g>
<!-- Node5 -->
<g id="Node000005" class="node">
<title>Node5</title>
<g id="a_Node000005"><a xlink:href="ui_8c.html" target="_top" xlink:title="Implementation of menu&#45;driven user interface.">
<polygon fill="white" stroke="#666666" points="264.25,-76 190.5,-76 190.5,-56 264.25,-56 264.25,-76"/>
<text xml:space="preserve" text-anchor="middle" x="227.38" y="-62.5" font-family="Helvetica,sans-Serif" font-size="10.00">Core/Src/ui.c</text>
</a>
</g>
</g>
<!-- Node1&#45;&gt;Node5 -->
<g id="edge5_Node000001_Node000005" class="edge">
<title>Node1&#45;&gt;Node5</title>
<g id="a_edge5_Node000001_Node000005"><a xlink:title=" ">
<path fill="none" stroke="#63b8ff" d="M182.35,-104.4C193.47,-95.17 206.9,-84.01 216.18,-76.3"/>
<polygon fill="#63b8ff" stroke="#63b8ff" points="180.32,-101.54 174.86,-110.63 184.79,-106.93 180.32,-101.54"/>
</a>
</g>
</g>
<!-- Node3 -->
<g id="Node000003" class="node">
<title>Node3</title>
<g id="a_Node000003"><a xlink:href="encoder_8c.html" target="_top" xlink:title="Implementation of rotary encoder driver.">
<polygon fill="white" stroke="#666666" points="100.75,-20 0,-20 0,0 100.75,0 100.75,-20"/>
<text xml:space="preserve" text-anchor="middle" x="50.38" y="-6.5" font-family="Helvetica,sans-Serif" font-size="10.00">Core/Src/encoder.c</text>
</a>
</g>
</g>
<!-- Node2&#45;&gt;Node3 -->
<g id="edge2_Node000002_Node000003" class="edge">
<title>Node2&#45;&gt;Node3</title>
<g id="a_edge2_Node000002_Node000003"><a xlink:title=" ">
<path fill="none" stroke="#63b8ff" d="M72.33,-45.87C66.86,-37.19 60.65,-27.32 56.23,-20.3"/>
<polygon fill="#63b8ff" stroke="#63b8ff" points="69.36,-47.72 77.65,-54.31 75.28,-43.99 69.36,-47.72"/>
</a>
</g>
</g>
<!-- Node2&#45;&gt;Node4 -->
<g id="edge3_Node000002_Node000004" class="edge">
<title>Node2&#45;&gt;Node4</title>
<g id="a_edge3_Node000002_Node000004"><a xlink:title=" ">
<path fill="none" stroke="#63b8ff" d="M107.09,-49.27C120.57,-39.94 137.2,-28.43 148.68,-20.48"/>
<polygon fill="#63b8ff" stroke="#63b8ff" points="105.44,-46.16 99.21,-54.73 109.42,-51.92 105.44,-46.16"/>
</a>
</g>
</g>
</g>
</svg>
</svg>

<style type='text/css'>
<![CDATA[
[data-mouse-over-selected='false'] { opacity: 0.7; }
[data-mouse-over-selected='true']  { opacity: 1.0; }
]]>
</style>
<script type="application/ecmascript"><![CDATA[
document.addEventListener('DOMContentLoaded', (event) => {
  highlightEdges();
  highlightAdjacentNodes();
});
]]></script>
</svg>
