<?xml version="1.0" encoding="UTF-8" standalone="no"?>
<!DOCTYPE svg PUBLIC "-//W3C//DTD SVG 1.1//EN"
 "http://www.w3.org/Graphics/SVG/1.1/DTD/svg11.dtd">
<!-- Generated by graphviz version 14.1.2 (0)
 -->
<!-- Title: initUI Pages: 1 -->
<svg width="449pt" height="47pt"
 viewBox="0.00 0.00 449.00 47.00" xmlns="http://www.w3.org/2000/svg" xmlns:xlink="http://www.w3.org/1999/xlink">
<g id="graph0" class="graph" transform="scale(1 1) rotate(0) translate(4 43)">
<title>initUI</title>
<!-- Node1 -->
<g id="Node000001" class="node">
<title>Node1</title>
<g id="a_Node000001"><a xlink:title="Initialize the UI module.">
<polygon fill="#999999" stroke="#666666" points="39.25,-20 0,-20 0,0 39.25,0 39.25,-20"/>
<text xml:space="preserve" text-anchor="middle" x="19.62" y="-6.5" font-family="Helvetica,sans-Serif" font-size="10.00">initUI</text>
</a>
</g>
</g>
<!-- Node2 -->
<g id="Node000002" class="node">
<title>Node2</title>
<g id="a_Node000002"><a xlink:href="lcd1602__rgb_8c.html#a8bd959dd5ad9fbb32f319b142ebcce17" target="_top" xlink:title="Create a custom character in CGRAM.">
<polygon fill="white" stroke="#666666" points="195.5,-20 75.25,-20 75.25,0 195.5,0 195.5,-20"/>
<text xml:space="preserve" text-anchor="middle" x="135.38" y="-6.5" font-family="Helvetica,sans-Serif" font-size="10.00">lcd1602_customSymbol</text>
</a>
</g>
</g>
<!-- Node1&#45;&gt;Node2 -->
<g id="edge1_Node000001_Node000002" class="edge">
<title>Node1&#45;&gt;Node2</title>
<g id="a_edge1_Node000001_Node000002"><a xlink:title=" ">
<path fill="none" stroke="#63b8ff" d="M39.66,-10C46.6,-10 54.91,-10 63.69,-10"/>
<polygon fill="#63b8ff" stroke="#63b8ff" points="63.48,-13.5 73.48,-10 63.48,-6.5 63.48,-13.5"/>
</a>
</g>
</g>
<!-- Node3 -->
<g id="Node000003" class="node">
<title>Node3</title>
<g id="a_Node000003"><a xlink:href="lcd1602__rgb_8c.html#a0f2acca4c1aa5a1126b031e719beb4df" target="_top" xlink:title="Send a command byte to the LCD.">
<polygon fill="white" stroke="#666666" points="329.25,-39 231.5,-39 231.5,-19 329.25,-19 329.25,-39"/>
<text xml:space="preserve" text-anchor="middle" x="280.38" y="-25.5" font-family="Helvetica,sans-Serif" font-size="10.00">lcd1602_command</text>
</a>
</g>
</g>
<!-- Node2&#45;&gt;Node3 -->
<g id="edge2_Node000002_Node000003" class="edge">
<title>Node2&#45;&gt;Node3</title>
<g id="a_edge2_Node000002_Node000003"><a xlink:title=" ">
<path fill="none" stroke="#63b8ff" d="M195.78,-17.89C203.81,-18.96 212.05,-20.05 220.08,-21.12"/>
<polygon fill="#63b8ff" stroke="#63b8ff" points="219.38,-24.56 229.75,-22.41 220.3,-17.62 219.38,-24.56"/>
</a>
</g>
</g>
<!-- Node4 -->
<g id="Node000004" class="node">
<title>Node4</title>
<g id="a_Node000004"><a xlink:href="lcd1602__rgb_8c.html#af833ec77ef44dc848f52a09072a777ae" target="_top" xlink:title="Send raw data bytes to the LCD via I2C.">
<polygon fill="white" stroke="#666666" points="441.25,-20 365.25,-20 365.25,0 441.25,0 441.25,-20"/>
<text xml:space="preserve" text-anchor="middle" x="403.25" y="-6.5" font-family="Helvetica,sans-Serif" font-size="10.00">lcd1602_send</text>
</a>
</g>
</g>
<!-- Node2&#45;&gt;Node4 -->
<g id="edge4_Node000002_Node000004" class="edge">
<title>Node2&#45;&gt;Node4</title>
<g id="a_edge4_Node000002_Node000004"><a xlink:title=" ">
<path fill="none" stroke="#63b8ff" d="M195.71,-10C243.2,-10 308.98,-10 353.44,-10"/>
<polygon fill="#63b8ff" stroke="#63b8ff" points="353.31,-13.5 363.31,-10 353.31,-6.5 353.31,-13.5"/>
</a>
</g>
</g>
<!-- Node3&#45;&gt;Node4 -->
<g id="edge3_Node000003_Node000004" class="edge">
<title>Node3&#45;&gt;Node4</title>
<g id="a_edge3_Node000003_Node000004"><a xlink:title=" ">
<path fill="none" stroke="#63b8ff" d="M329.5,-21.44C337.55,-20.17 345.91,-18.86 353.97,-17.59"/>
<polygon fill="#63b8ff" stroke="#63b8ff" points="354.27,-21.09 363.6,-16.07 353.18,-14.17 354.27,-21.09"/>
</a>
</g>
</g>
</g>
</svg>
