<?xml version="1.0" encoding="UTF-8" standalone="no"?>
<!DOCTYPE svg PUBLIC "-//W3C//DTD SVG 1.1//EN"
 "http://www.w3.org/Graphics/SVG/1.1/DTD/svg11.dtd">
<!-- Generated by graphviz version 14.1.2 (0)
 -->
<!-- Title: ui_update_create_program_detailed Pages: 1 -->
<!--zoomable 199 -->

<svg id="main" version="1.1" xmlns="http://www.w3.org/2000/svg" xmlns:xlink="http://www.w3.org/1999/xlink" xml:space="preserve" onload="init(evt)">

<style type="text/css"><![CDATA[
.node, .edge {opacity: 0.7;}
.node.selected, .edge.selected {opacity: 1;}
.edge:hover path { stroke: red; }
.edge:hover polygon { stroke: red; fill: red; }
]]></style>

<defs>
  <circle id="rim" cx="0" cy="0" r="7"/>
  <circle id="rim2" cx="0" cy="0" r="3.5"/>
  <g id="zoomPlus">
    <use xlink:href="#rim" fill="#404040"><set attributeName="fill" to="#808080" begin="zoomplus.mouseover" end="zoomplus.mouseout"/></use>
    <path d="M-4,0h8M0,-4v8" fill="none" stroke="white" stroke-width="1.5" pointer-events="none"/>
  </g>
  <g id="zoomMin">
    <use xlink:href="#rim" fill="#404040"><set attributeName="fill" to="#808080" begin="zoomminus.mouseover" end="zoomminus.mouseout"/></use>
    <path d="M-4,0h8" fill="none" stroke="white" stroke-width="1.5" pointer-events="none"/>
  </g>
  <g id="arrowUp" transform="translate(30 24)">
    <use xlink:href="#rim"/>
    <path pointer-events="none" fill="none" stroke="white" stroke-width="1.5" d="M0,-3.0v7 M-2.5,-0.5L0,-3.0L2.5,-0.5"/>
  </g>
  <g id="arrowRight" transform="rotate(90) translate(36 -43)">
    <use xlink:href="#rim"/>
    <path pointer-events="none" fill="none" stroke="white" stroke-width="1.5" d="M0,-3.0v7 M-2.5,-0.5L0,-3.0L2.5,-0.5"/>
  </g>
  <g id="arrowDown" transform="rotate(180) translate(-30 -48)">
    <use xlink:href="#rim"/>
    <path pointer-events="none" fill="none" stroke="white" stroke-width="1.5" d="M0,-3.0v7 M-2.5,-0.5L0,-3.0L2.5,-0.5"/>
  </g>
  <g id="arrowLeft" transform="rotate(270) translate(-36 17)">
    <use xlink:href="#rim"/>
    <path pointer-events="none" fill="none" stroke="white" stroke-width="1.5" d="M0,-3.0v7 M-2.5,-0.5L0,-3.0L2.5,-0.5"/>
  </g>
  <g id="resetDef">
    <use xlink:href="#rim2" fill="#404040"><set attributeName="fill" to="#808080" begin="reset.mouseover" end="reset.mouseout"/></use>
  </g>
</defs>
<script type="application/ecmascript">
var viewWidth = 699;
var viewHeight = 199;
var sectionId = 'dynsection-14';
</script>
<script type="application/ecmascript" xlink:href="svg.min.js"/>
<svg id="graph" class="graph">
<g id="viewport">
<title>ui_update_create_program_detailed</title>
<!-- Node1 -->
<g id="Node000001" class="node">
<title>Node1</title>
<g id="a_Node000001"><a xlink:title="Handle CREATE_PROGRAM_DETAILED menu state.">
<polygon fill="#999999" stroke="#666666" points="130.75,-121 0,-121 0,-89 130.75,-89 130.75,-121"/>
<text xml:space="preserve" text-anchor="start" x="8" y="-107.5" font-family="Helvetica,sans-Serif" font-size="10.00">ui_update_create_program</text>
<text xml:space="preserve" text-anchor="middle" x="65.38" y="-95.5" font-family="Helvetica,sans-Serif" font-size="10.00">_detailed</text>
</a>
</g>
</g>
<!-- Node2 -->
<g id="Node000002" class="node">
<title>Node2</title>
<g id="a_Node000002"><a xlink:href="log_8c.html#a19c27922f37e1d81bb9370e65be76554" target="_top" xlink:title="Log a message with specified log level.">
<polygon fill="white" stroke="#666666" points="258.12,-191 210.62,-191 210.62,-171 258.12,-171 258.12,-191"/>
<text xml:space="preserve" text-anchor="middle" x="234.38" y="-177.5" font-family="Helvetica,sans-Serif" font-size="10.00">logMsg</text>
</a>
</g>
</g>
<!-- Node1&#45;&gt;Node2 -->
<g id="edge1_Node000001_Node000002" class="edge">
<title>Node1&#45;&gt;Node2</title>
<g id="a_edge1_Node000001_Node000002"><a xlink:title=" ">
<path fill="none" stroke="#63b8ff" d="M91.1,-121.26C110.92,-133.74 139.77,-150.68 166.75,-162 177.09,-166.34 188.75,-170.04 199.38,-172.99"/>
<polygon fill="#63b8ff" stroke="#63b8ff" points="198.38,-176.34 208.94,-175.5 200.16,-169.57 198.38,-176.34"/>
</a>
</g>
</g>
<!-- Node3 -->
<g id="Node000003" class="node">
<title>Node3</title>
<g id="a_Node000003"><a xlink:href="ui_8c.html#ababb2e5a797bf5751b72fa000a7b1c1b" target="_top" xlink:title="Fill LCD buffers with program step data.">
<polygon fill="white" stroke="#666666" points="292.25,-153 176.5,-153 176.5,-133 292.25,-133 292.25,-153"/>
<text xml:space="preserve" text-anchor="middle" x="234.38" y="-139.5" font-family="Helvetica,sans-Serif" font-size="10.00">ui_fill_lcd_buf_program</text>
</a>
</g>
</g>
<!-- Node1&#45;&gt;Node3 -->
<g id="edge2_Node000001_Node000003" class="edge">
<title>Node1&#45;&gt;Node3</title>
<g id="a_edge2_Node000001_Node000003"><a xlink:title=" ">
<path fill="none" stroke="#63b8ff" d="M130.94,-119.69C145.94,-123.1 161.79,-126.71 176.43,-130.04"/>
<polygon fill="#63b8ff" stroke="#63b8ff" points="175.35,-133.39 185.87,-132.19 176.9,-126.56 175.35,-133.39"/>
</a>
</g>
</g>
<!-- Node4 -->
<g id="Node000004" class="node">
<title>Node4</title>
<g id="a_Node000004"><a xlink:href="ui_8c.html#ad6f04bbd335a129dfdde361113a3bde0" target="_top" xlink:title="Update program values from temporary input variables.">
<polygon fill="white" stroke="#666666" points="290.75,-115 178,-115 178,-95 290.75,-95 290.75,-115"/>
<text xml:space="preserve" text-anchor="middle" x="234.38" y="-101.5" font-family="Helvetica,sans-Serif" font-size="10.00">ui_fill_program_values</text>
</a>
</g>
</g>
<!-- Node1&#45;&gt;Node4 -->
<g id="edge3_Node000001_Node000004" class="edge">
<title>Node1&#45;&gt;Node4</title>
<g id="a_edge3_Node000001_Node000004"><a xlink:title=" ">
<path fill="none" stroke="#63b8ff" d="M130.94,-105C142.51,-105 154.58,-105 166.22,-105"/>
<polygon fill="#63b8ff" stroke="#63b8ff" points="166.16,-108.5 176.16,-105 166.16,-101.5 166.16,-108.5"/>
</a>
</g>
</g>
<!-- Node5 -->
<g id="Node000005" class="node">
<title>Node5</title>
<g id="a_Node000005"><a xlink:href="ui_8c.html#ab08bf40f29760a62fbea13ac28c412b6" target="_top" xlink:title="Display two rows of text on the LCD.">
<polygon fill="white" stroke="#666666" points="267.12,-77 201.62,-77 201.62,-57 267.12,-57 267.12,-77"/>
<text xml:space="preserve" text-anchor="middle" x="234.38" y="-63.5" font-family="Helvetica,sans-Serif" font-size="10.00">ui_print_lcd</text>
</a>
</g>
</g>
<!-- Node1&#45;&gt;Node5 -->
<g id="edge4_Node000001_Node000005" class="edge">
<title>Node1&#45;&gt;Node5</title>
<g id="a_edge4_Node000001_Node000005"><a xlink:title=" ">
<path fill="none" stroke="#63b8ff" d="M130.94,-90.31C150.76,-85.8 172.08,-80.95 190.12,-76.84"/>
<polygon fill="#63b8ff" stroke="#63b8ff" points="190.71,-80.3 199.68,-74.67 189.16,-73.47 190.71,-80.3"/>
</a>
</g>
</g>
<!-- Node10 -->
<g id="Node000010" class="node">
<title>Node10</title>
<g id="a_Node000010"><a xlink:href="ui_8c.html#a81de81298db27fab4a93d349c6f4defb" target="_top" xlink:title="Print custom degree symbols on LCD for program view.">
<polygon fill="white" stroke="#666666" points="302,-39 166.75,-39 166.75,-19 302,-19 302,-39"/>
<text xml:space="preserve" text-anchor="middle" x="234.38" y="-25.5" font-family="Helvetica,sans-Serif" font-size="10.00">ui_print_lcd_program_symb</text>
</a>
</g>
</g>
<!-- Node1&#45;&gt;Node10 -->
<g id="edge10_Node000001_Node000010" class="edge">
<title>Node1&#45;&gt;Node10</title>
<g id="a_edge10_Node000001_Node000010"><a xlink:title=" ">
<path fill="none" stroke="#63b8ff" d="M91.1,-88.74C110.92,-76.26 139.77,-59.32 166.75,-48 171.06,-46.19 175.59,-44.5 180.18,-42.92"/>
<polygon fill="#63b8ff" stroke="#63b8ff" points="181.03,-46.33 189.47,-39.93 178.88,-39.66 181.03,-46.33"/>
</a>
</g>
</g>
<!-- Node6 -->
<g id="Node000006" class="node">
<title>Node6</title>
<g id="a_Node000006"><a xlink:href="lcd1602__rgb_8c.html#a4675a2ae1eb331b5476c475cd042c71d" target="_top" xlink:title="Write a null&#45;terminated string to the display.">
<polygon fill="white" stroke="#666666" points="443.25,-96 338,-96 338,-76 443.25,-76 443.25,-96"/>
<text xml:space="preserve" text-anchor="middle" x="390.62" y="-82.5" font-family="Helvetica,sans-Serif" font-size="10.00">lcd1602_send_string</text>
</a>
</g>
</g>
<!-- Node5&#45;&gt;Node6 -->
<g id="edge5_Node000005_Node000006" class="edge">
<title>Node5&#45;&gt;Node6</title>
<g id="a_edge5_Node000005_Node000006"><a xlink:title=" ">
<path fill="none" stroke="#63b8ff" d="M267.34,-70.94C284.38,-73.04 305.97,-75.7 326.25,-78.19"/>
<polygon fill="#63b8ff" stroke="#63b8ff" points="325.81,-81.67 336.17,-79.42 326.67,-74.72 325.81,-81.67"/>
</a>
</g>
</g>
<!-- Node9 -->
<g id="Node000009" class="node">
<title>Node9</title>
<g id="a_Node000009"><a xlink:href="lcd1602__rgb_8c.html#acedfa8e3ed17c86c319b1ee71aa43856" target="_top" xlink:title="Set cursor position.">
<polygon fill="white" stroke="#666666" points="439.5,-58 341.75,-58 341.75,-38 439.5,-38 439.5,-58"/>
<text xml:space="preserve" text-anchor="middle" x="390.62" y="-44.5" font-family="Helvetica,sans-Serif" font-size="10.00">lcd1602_setCursor</text>
</a>
</g>
</g>
<!-- Node5&#45;&gt;Node9 -->
<g id="edge8_Node000005_Node000009" class="edge">
<title>Node5&#45;&gt;Node9</title>
<g id="a_edge8_Node000005_Node000009"><a xlink:title=" ">
<path fill="none" stroke="#63b8ff" d="M267.34,-63.06C285.44,-60.83 308.66,-57.97 330,-55.34"/>
<polygon fill="#63b8ff" stroke="#63b8ff" points="330.29,-58.84 339.78,-54.14 329.43,-51.89 330.29,-58.84"/>
</a>
</g>
</g>
<!-- Node7 -->
<g id="Node000007" class="node">
<title>Node7</title>
<g id="a_Node000007"><a xlink:href="lcd1602__rgb_8c.html#ab95d5708eabcbaa2bf3ca2b155fcefe3" target="_top" xlink:title="Write a single character to the display.">
<polygon fill="white" stroke="#666666" points="579.25,-20 479.25,-20 479.25,0 579.25,0 579.25,-20"/>
<text xml:space="preserve" text-anchor="middle" x="529.25" y="-6.5" font-family="Helvetica,sans-Serif" font-size="10.00">lcd1602_write_char</text>
</a>
</g>
</g>
<!-- Node6&#45;&gt;Node7 -->
<g id="edge6_Node000006_Node000007" class="edge">
<title>Node6&#45;&gt;Node7</title>
<g id="a_edge6_Node000006_Node000007"><a xlink:title=" ">
<path fill="none" stroke="#63b8ff" d="M423.8,-75.51C430.36,-72.99 437.12,-70.12 443.25,-67 465.74,-55.53 489.46,-39.23 506.1,-26.99"/>
<polygon fill="#63b8ff" stroke="#63b8ff" points="507.9,-30.02 513.81,-21.24 503.71,-24.42 507.9,-30.02"/>
</a>
</g>
</g>
<!-- Node8 -->
<g id="Node000008" class="node">
<title>Node8</title>
<g id="a_Node000008"><a xlink:href="lcd1602__rgb_8c.html#af833ec77ef44dc848f52a09072a777ae" target="_top" xlink:title="Send raw data bytes to the LCD via I2C.">
<polygon fill="white" stroke="#666666" points="691.25,-39 615.25,-39 615.25,-19 691.25,-19 691.25,-39"/>
<text xml:space="preserve" text-anchor="middle" x="653.25" y="-25.5" font-family="Helvetica,sans-Serif" font-size="10.00">lcd1602_send</text>
</a>
</g>
</g>
<!-- Node7&#45;&gt;Node8 -->
<g id="edge7_Node000007_Node000008" class="edge">
<title>Node7&#45;&gt;Node8</title>
<g id="a_edge7_Node000007_Node000008"><a xlink:title=" ">
<path fill="none" stroke="#63b8ff" d="M579.52,-17.67C587.43,-18.9 595.61,-20.18 603.51,-21.41"/>
<polygon fill="#63b8ff" stroke="#63b8ff" points="602.89,-24.86 613.31,-22.94 603.97,-17.94 602.89,-24.86"/>
</a>
</g>
</g>
<!-- Node9&#45;&gt;Node8 -->
<g id="edge9_Node000009_Node000008" class="edge">
<title>Node9&#45;&gt;Node8</title>
<g id="a_edge9_Node000009_Node000008"><a xlink:title=" ">
<path fill="none" stroke="#63b8ff" d="M439.73,-44.49C486.37,-41.09 556.77,-35.96 603.6,-32.55"/>
<polygon fill="#63b8ff" stroke="#63b8ff" points="603.74,-36.05 613.46,-31.83 603.23,-29.06 603.74,-36.05"/>
</a>
</g>
</g>
<!-- Node10&#45;&gt;Node7 -->
<g id="edge12_Node000010_Node000007" class="edge">
<title>Node10&#45;&gt;Node7</title>
<g id="a_edge12_Node000010_Node000007"><a xlink:title=" ">
<path fill="none" stroke="#63b8ff" d="M302.2,-24.66C352.06,-21.43 419.61,-17.05 467.85,-13.92"/>
<polygon fill="#63b8ff" stroke="#63b8ff" points="467.8,-17.43 477.55,-13.29 467.35,-10.44 467.8,-17.43"/>
</a>
</g>
</g>
<!-- Node10&#45;&gt;Node9 -->
<g id="edge11_Node000010_Node000009" class="edge">
<title>Node10&#45;&gt;Node9</title>
<g id="a_edge11_Node000010_Node000009"><a xlink:title=" ">
<path fill="none" stroke="#63b8ff" d="M302.13,-37.22C311.41,-38.37 320.89,-39.53 330.02,-40.66"/>
<polygon fill="#63b8ff" stroke="#63b8ff" points="329.5,-44.12 339.86,-41.87 330.36,-37.17 329.5,-44.12"/>
</a>
</g>
</g>
</g>
</svg>

<g id="navigator" transform="translate(0 0)" fill="#404254">
  <rect fill="#f2f5e9" fill-opacity="0.5" stroke="#606060" stroke-width=".5" x="0" y="0" width="60" height="60"/>
  <use id="zoomplus" xlink:href="#zoomPlus" x="17" y="9" onmousedown="handleZoom(evt,'in')"/>
  <use id="zoomminus" xlink:href="#zoomMin" x="42" y="9" onmousedown="handleZoom(evt,'out')"/>
  <use id="reset" xlink:href="#resetDef" x="30" y="36" onmousedown="handleReset()"/>
   <use id="arrowup" xlink:href="#arrowUp" x="0" y="0" onmousedown="handlePan(0,-1)"/>
  <use id="arrowright" xlink:href="#arrowRight" x="0" y="0" onmousedown="handlePan(1,0)"/>
  <use id="arrowdown" xlink:href="#arrowDown" x="0" y="0" onmousedown="handlePan(0,1)"/>
  <use id="arrowleft" xlink:href="#arrowLeft" x="0" y="0" onmousedown="handlePan(-1,0)"/>
</g>
<svg viewBox="0 0 15 15" width="100%" height="30px" preserveAspectRatio="xMaxYMin meet">
 <g id="arrow_out" transform="scale(0.3 0.3)">
  <a xlink:href="ui_8c_a7328c75524fbd4c255db4ee57d587e16_cgraph_org.svg" target="_base">
   <rect id="button" ry="5" rx="5" y="6" x="6" height="38" width="38"
        fill="#f2f5e9" fill-opacity="0.5" stroke="#606060" stroke-width="1.0"/>
   <path id="arrow"
     d="M 11.500037,31.436501 C 11.940474,20.09759 22.043105,11.32322 32.158766,21.979434 L 37.068811,17.246167 C 37.068811,17.246167 37.088388,32 37.088388,32 L 22.160133,31.978069 C 22.160133,31.978069 26.997745,27.140456 26.997745,27.140456 C 18.528582,18.264221 13.291696,25.230495 11.500037,31.436501 z"
     style="fill:#404040;"/>
  </a>
 </g>
</svg>

<style type='text/css'>
<![CDATA[
[data-mouse-over-selected='false'] { opacity: 0.7; }
[data-mouse-over-selected='true']  { opacity: 1.0; }
]]>
</style>
<script type="application/ecmascript"><![CDATA[
document.addEventListener('DOMContentLoaded', (event) => {
  highlightEdges();
  highlightAdjacentNodes();
});
]]></script>
</svg>
