<?xml version="1.0" encoding="UTF-8" standalone="no"?>
<!DOCTYPE svg PUBLIC "-//W3C//DTD SVG 1.1//EN"
 "http://www.w3.org/Graphics/SVG/1.1/DTD/svg11.dtd">
<!-- Generated by graphviz version 14.1.2 (0)
 -->
<!-- Title: ui_fill_program_values Pages: 1 -->
<svg width="382pt" height="40pt"
 viewBox="0.00 0.00 382.00 40.00" xmlns="http://www.w3.org/2000/svg" xmlns:xlink="http://www.w3.org/1999/xlink">
<g id="graph0" class="graph" transform="scale(1 1) rotate(0) translate(4 36)">
<title>ui_fill_program_values</title>
<!-- Node1 -->
<g id="Node000001" class="node">
<title>Node1</title>
<g id="a_Node000001"><a xlink:title="Update program values from temporary input variables.">
<polygon fill="#999999" stroke="#666666" points="373.5,-26 260.75,-26 260.75,-6 373.5,-6 373.5,-26"/>
<text xml:space="preserve" text-anchor="middle" x="317.12" y="-12.5" font-family="Helvetica,sans-Serif" font-size="10.00">ui_fill_program_values</text>
</a>
</g>
</g>
<!-- Node2 -->
<g id="Node000002" class="node">
<title>Node2</title>
<g id="a_Node000002"><a xlink:href="ui_8c.html#a7328c75524fbd4c255db4ee57d587e16" target="_top" xlink:title="Handle CREATE_PROGRAM_DETAILED menu state.">
<polygon fill="white" stroke="#666666" points="224.75,-32 94,-32 94,0 224.75,0 224.75,-32"/>
<text xml:space="preserve" text-anchor="start" x="102" y="-18.5" font-family="Helvetica,sans-Serif" font-size="10.00">ui_update_create_program</text>
<text xml:space="preserve" text-anchor="middle" x="159.38" y="-6.5" font-family="Helvetica,sans-Serif" font-size="10.00">_detailed</text>
</a>
</g>
</g>
<!-- Node1&#45;&gt;Node2 -->
<g id="edge1_Node000001_Node000002" class="edge">
<title>Node1&#45;&gt;Node2</title>
<g id="a_edge1_Node000001_Node000002"><a xlink:title=" ">
<path fill="none" stroke="#63b8ff" d="M248.89,-16C240.99,-16 232.93,-16 225.06,-16"/>
<polygon fill="#63b8ff" stroke="#63b8ff" points="248.82,-19.5 258.82,-16 248.82,-12.5 248.82,-19.5"/>
</a>
</g>
</g>
<!-- Node3 -->
<g id="Node000003" class="node">
<title>Node3</title>
<g id="a_Node000003"><a xlink:href="ui_8c.html#a1c0a0e3c37fa619fc105b56716b1e08a" target="_top" xlink:title="Main UI state machine update function.">
<polygon fill="white" stroke="#666666" points="58,-26 0,-26 0,-6 58,-6 58,-26"/>
<text xml:space="preserve" text-anchor="middle" x="29" y="-12.5" font-family="Helvetica,sans-Serif" font-size="10.00">ui_update</text>
</a>
</g>
</g>
<!-- Node2&#45;&gt;Node3 -->
<g id="edge2_Node000002_Node000003" class="edge">
<title>Node2&#45;&gt;Node3</title>
<g id="a_edge2_Node000002_Node000003"><a xlink:title=" ">
<path fill="none" stroke="#63b8ff" d="M82.46,-16C73.9,-16 65.64,-16 58.3,-16"/>
<polygon fill="#63b8ff" stroke="#63b8ff" points="82.3,-19.5 92.3,-16 82.3,-12.5 82.3,-19.5"/>
</a>
</g>
</g>
</g>
</svg>
