<?xml version="1.0" encoding="UTF-8" standalone="no"?>
<!DOCTYPE svg PUBLIC "-//W3C//DTD SVG 1.1//EN"
 "http://www.w3.org/Graphics/SVG/1.1/DTD/svg11.dtd">
<!-- Generated by graphviz version 14.1.2 (0)
 -->
<!-- Title: ui_print_lcd Pages: 1 -->
<svg width="463pt" height="66pt"
 viewBox="0.00 0.00 463.00 66.00" xmlns="http://www.w3.org/2000/svg" xmlns:xlink="http://www.w3.org/1999/xlink">

<svg id="main" version="1.1" xmlns="http://www.w3.org/2000/svg" xmlns:xlink="http://www.w3.org/1999/xlink" xml:space="preserve">

<style type="text/css"><![CDATA[
.node, .edge {opacity: 0.7;}
.node.selected, .edge.selected {opacity: 1;}
.edge:hover path { stroke: red; }
.edge:hover polygon { stroke: red; fill: red; }
]]></style>
<script type="application/ecmascript" xlink:href="svg.min.js"/>
<svg id="graph" class="graph">
<g id="graph0" class="graph" transform="scale(1 1) rotate(0) translate(4 62)">
<title>ui_print_lcd</title>
<!-- Node1 -->
<g id="Node000001" class="node">
<title>Node1</title>
<g id="a_Node000001"><a xlink:title="Display two rows of text on the LCD.">
<polygon fill="#999999" stroke="#666666" points="65.5,-39 0,-39 0,-19 65.5,-19 65.5,-39"/>
<text xml:space="preserve" text-anchor="middle" x="32.75" y="-25.5" font-family="Helvetica,sans-Serif" font-size="10.00">ui_print_lcd</text>
</a>
</g>
</g>
<!-- Node2 -->
<g id="Node000002" class="node">
<title>Node2</title>
<g id="a_Node000002"><a xlink:href="lcd1602__rgb_8c.html#a4675a2ae1eb331b5476c475cd042c71d" target="_top" xlink:title="Write a null&#45;terminated string to the display.">
<polygon fill="white" stroke="#666666" points="206.75,-58 101.5,-58 101.5,-38 206.75,-38 206.75,-58"/>
<text xml:space="preserve" text-anchor="middle" x="154.12" y="-44.5" font-family="Helvetica,sans-Serif" font-size="10.00">lcd1602_send_string</text>
</a>
</g>
</g>
<!-- Node1&#45;&gt;Node2 -->
<g id="edge1_Node000001_Node000002" class="edge">
<title>Node1&#45;&gt;Node2</title>
<g id="a_edge1_Node000001_Node000002"><a xlink:title=" ">
<path fill="none" stroke="#63b8ff" d="M65.74,-34.09C73.33,-35.3 81.68,-36.63 90.13,-37.97"/>
<polygon fill="#63b8ff" stroke="#63b8ff" points="89.3,-41.39 99.72,-39.5 90.4,-34.47 89.3,-41.39"/>
</a>
</g>
</g>
<!-- Node5 -->
<g id="Node000005" class="node">
<title>Node5</title>
<g id="a_Node000005"><a xlink:href="lcd1602__rgb_8c.html#acedfa8e3ed17c86c319b1ee71aa43856" target="_top" xlink:title="Set cursor position.">
<polygon fill="white" stroke="#666666" points="341.62,-20 243.88,-20 243.88,0 341.62,0 341.62,-20"/>
<text xml:space="preserve" text-anchor="middle" x="292.75" y="-6.5" font-family="Helvetica,sans-Serif" font-size="10.00">lcd1602_setCursor</text>
</a>
</g>
</g>
<!-- Node1&#45;&gt;Node5 -->
<g id="edge4_Node000001_Node000005" class="edge">
<title>Node1&#45;&gt;Node5</title>
<g id="a_edge4_Node000001_Node000005"><a xlink:title=" ">
<path fill="none" stroke="#63b8ff" d="M65.9,-26.63C107.47,-23.57 180.66,-18.18 232.44,-14.37"/>
<polygon fill="#63b8ff" stroke="#63b8ff" points="232.57,-17.87 242.29,-13.64 232.06,-10.89 232.57,-17.87"/>
</a>
</g>
</g>
<!-- Node3 -->
<g id="Node000003" class="node">
<title>Node3</title>
<g id="a_Node000003"><a xlink:href="lcd1602__rgb_8c.html#ab95d5708eabcbaa2bf3ca2b155fcefe3" target="_top" xlink:title="Write a single character to the display.">
<polygon fill="white" stroke="#666666" points="342.75,-58 242.75,-58 242.75,-38 342.75,-38 342.75,-58"/>
<text xml:space="preserve" text-anchor="middle" x="292.75" y="-44.5" font-family="Helvetica,sans-Serif" font-size="10.00">lcd1602_write_char</text>
</a>
</g>
</g>
<!-- Node2&#45;&gt;Node3 -->
<g id="edge2_Node000002_Node000003" class="edge">
<title>Node2&#45;&gt;Node3</title>
<g id="a_edge2_Node000002_Node000003"><a xlink:title=" ">
<path fill="none" stroke="#63b8ff" d="M207.17,-48C215.06,-48 223.26,-48 231.31,-48"/>
<polygon fill="#63b8ff" stroke="#63b8ff" points="231.04,-51.5 241.04,-48 231.04,-44.5 231.04,-51.5"/>
</a>
</g>
</g>
<!-- Node4 -->
<g id="Node000004" class="node">
<title>Node4</title>
<g id="a_Node000004"><a xlink:href="lcd1602__rgb_8c.html#af833ec77ef44dc848f52a09072a777ae" target="_top" xlink:title="Send raw data bytes to the LCD via I2C.">
<polygon fill="white" stroke="#666666" points="454.75,-39 378.75,-39 378.75,-19 454.75,-19 454.75,-39"/>
<text xml:space="preserve" text-anchor="middle" x="416.75" y="-25.5" font-family="Helvetica,sans-Serif" font-size="10.00">lcd1602_send</text>
</a>
</g>
</g>
<!-- Node3&#45;&gt;Node4 -->
<g id="edge3_Node000003_Node000004" class="edge">
<title>Node3&#45;&gt;Node4</title>
<g id="a_edge3_Node000003_Node000004"><a xlink:title=" ">
<path fill="none" stroke="#63b8ff" d="M343.02,-40.33C350.93,-39.1 359.11,-37.82 367.01,-36.59"/>
<polygon fill="#63b8ff" stroke="#63b8ff" points="367.47,-40.06 376.81,-35.06 366.39,-33.14 367.47,-40.06"/>
</a>
</g>
</g>
<!-- Node5&#45;&gt;Node4 -->
<g id="edge5_Node000005_Node000004" class="edge">
<title>Node5&#45;&gt;Node4</title>
<g id="a_edge5_Node000005_Node000004"><a xlink:title=" ">
<path fill="none" stroke="#63b8ff" d="M341.97,-17.51C350.3,-18.81 358.97,-20.16 367.31,-21.46"/>
<polygon fill="#63b8ff" stroke="#63b8ff" points="366.5,-24.87 376.92,-22.95 367.58,-17.96 366.5,-24.87"/>
</a>
</g>
</g>
</g>
</svg>
</svg>

<style type='text/css'>
<![CDATA[
[data-mouse-over-selected='false'] { opacity: 0.7; }
[data-mouse-over-selected='true']  { opacity: 1.0; }
]]>
</style>
<script type="application/ecmascript"><![CDATA[
document.addEventListener('DOMContentLoaded', (event) => {
  highlightEdges();
  highlightAdjacentNodes();
});
]]></script>
</svg>
