<?xml version="1.0" encoding="UTF-8" standalone="no"?>
<!DOCTYPE svg PUBLIC "-//W3C//DTD SVG 1.1//EN"
 "http://www.w3.org/Graphics/SVG/1.1/DTD/svg11.dtd">
<!-- Generated by graphviz version 14.1.2 (0)
 -->
<!-- Title: Core/Inc/ui.h Pages: 1 -->
<svg width="423pt" height="196pt"
 viewBox="0.00 0.00 423.00 196.00" xmlns="http://www.w3.org/2000/svg" xmlns:xlink="http://www.w3.org/1999/xlink">

<svg id="main" version="1.1" xmlns="http://www.w3.org/2000/svg" xmlns:xlink="http://www.w3.org/1999/xlink" xml:space="preserve">

<style type="text/css"><![CDATA[
.node, .edge {opacity: 0.7;}
.node.selected, .edge.selected {opacity: 1;}
.edge:hover path { stroke: red; }
.edge:hover polygon { stroke: red; fill: red; }
]]></style>
<script type="application/ecmascript" xlink:href="svg.min.js"/>
<svg id="graph" class="graph">
<g id="graph0" class="graph" transform="scale(1 1) rotate(0) translate(4 192)">
<title>Core/Inc/ui.h</title>
<!-- Node1 -->
<g id="Node000001" class="node">
<title>Node1</title>
<g id="a_Node000001"><a xlink:title="User interface module for menu&#45;driven LCD control.">
<polygon fill="#999999" stroke="#666666" points="218.51,-188 146.26,-188 146.26,-168 218.51,-168 218.51,-188"/>
<text xml:space="preserve" text-anchor="middle" x="182.39" y="-174.5" font-family="Helvetica,sans-Serif" font-size="10.00">Core/Inc/ui.h</text>
</a>
</g>
</g>
<!-- Node2 -->
<g id="Node000002" class="node">
<title>Node2</title>
<g id="a_Node000002"><a xlink:title=" ">
<polygon fill="#e0e0e0" stroke="#999999" points="226.01,-76 180.76,-76 180.76,-56 226.01,-56 226.01,-76"/>
<text xml:space="preserve" text-anchor="middle" x="203.39" y="-62.5" font-family="Helvetica,sans-Serif" font-size="10.00">stdio.h</text>
</a>
</g>
</g>
<!-- Node1&#45;&gt;Node2 -->
<g id="edge1_Node000001_Node000002" class="edge">
<title>Node1&#45;&gt;Node2</title>
<g id="a_edge1_Node000001_Node000002"><a xlink:title=" ">
<path fill="none" stroke="#63b8ff" d="M185.82,-167.83C189.04,-158.83 193.76,-144.66 196.39,-132 199.43,-117.33 201.19,-100.51 202.19,-87.65"/>
<polygon fill="#63b8ff" stroke="#63b8ff" points="205.67,-88.07 202.85,-77.86 198.69,-87.6 205.67,-88.07"/>
</a>
</g>
</g>
<!-- Node3 -->
<g id="Node000003" class="node">
<title>Node3</title>
<g id="a_Node000003"><a xlink:title=" ">
<polygon fill="#e0e0e0" stroke="#999999" points="60.51,-76 12.26,-76 12.26,-56 60.51,-56 60.51,-76"/>
<text xml:space="preserve" text-anchor="middle" x="36.39" y="-62.5" font-family="Helvetica,sans-Serif" font-size="10.00">stdint.h</text>
</a>
</g>
</g>
<!-- Node1&#45;&gt;Node3 -->
<g id="edge2_Node000001_Node000003" class="edge">
<title>Node1&#45;&gt;Node3</title>
<g id="a_edge2_Node000001_Node000003"><a xlink:title=" ">
<path fill="none" stroke="#63b8ff" d="M157.18,-167.57C138.23,-159.76 112.23,-147.46 92.39,-132 75.36,-118.74 59.68,-99.68 49.26,-85.62"/>
<polygon fill="#63b8ff" stroke="#63b8ff" points="52.22,-83.75 43.55,-77.66 46.53,-87.83 52.22,-83.75"/>
</a>
</g>
</g>
<!-- Node4 -->
<g id="Node000004" class="node">
<title>Node4</title>
<g id="a_Node000004"><a xlink:href="main_8h.html" target="_top" xlink:title=": Header for main.c file. This file contains the common defines of the application.">
<polygon fill="white" stroke="#666666" points="124.01,-76 78.76,-76 78.76,-56 124.01,-56 124.01,-76"/>
<text xml:space="preserve" text-anchor="middle" x="101.39" y="-62.5" font-family="Helvetica,sans-Serif" font-size="10.00">main.h</text>
</a>
</g>
</g>
<!-- Node1&#45;&gt;Node4 -->
<g id="edge3_Node000001_Node000004" class="edge">
<title>Node1&#45;&gt;Node4</title>
<g id="a_edge3_Node000001_Node000004"><a xlink:title=" ">
<path fill="none" stroke="#63b8ff" d="M150.21,-167.65C132.82,-160.78 112.82,-149.53 102.39,-132 94.43,-118.63 94.75,-100.82 96.74,-87.22"/>
<polygon fill="#63b8ff" stroke="#63b8ff" points="100.13,-88.13 98.57,-77.66 93.25,-86.82 100.13,-88.13"/>
</a>
</g>
</g>
<!-- Node5 -->
<g id="Node000005" class="node">
<title>Node5</title>
<g id="a_Node000005"><a xlink:title=" ">
<polygon fill="#e0e0e0" stroke="#999999" points="196.39,-20 108.39,-20 108.39,0 196.39,0 196.39,-20"/>
<text xml:space="preserve" text-anchor="middle" x="152.39" y="-6.5" font-family="Helvetica,sans-Serif" font-size="10.00">stm32f0xx_hal.h</text>
</a>
</g>
</g>
<!-- Node1&#45;&gt;Node5 -->
<g id="edge7_Node000001_Node000005" class="edge">
<title>Node1&#45;&gt;Node5</title>
<g id="a_edge7_Node000001_Node000005"><a xlink:title=" ">
<path fill="none" stroke="#63b8ff" d="M145.8,-169.66C101.25,-158.42 28.82,-132.05 3.39,-76 -15.22,-34.99 47.26,-19.85 96.97,-14.26"/>
<polygon fill="#63b8ff" stroke="#63b8ff" points="97.2,-17.76 106.8,-13.28 96.5,-10.79 97.2,-17.76"/>
</a>
</g>
</g>
<!-- Node6 -->
<g id="Node000006" class="node">
<title>Node6</title>
<g id="a_Node000006"><a xlink:href="log_8h.html" target="_top" xlink:title="Logging module with configurable log levels and UART output.">
<polygon fill="white" stroke="#666666" points="280.89,-76 243.89,-76 243.89,-56 280.89,-56 280.89,-76"/>
<text xml:space="preserve" text-anchor="middle" x="262.39" y="-62.5" font-family="Helvetica,sans-Serif" font-size="10.00">log.h</text>
</a>
</g>
</g>
<!-- Node1&#45;&gt;Node6 -->
<g id="edge5_Node000001_Node000006" class="edge">
<title>Node1&#45;&gt;Node6</title>
<g id="a_edge5_Node000001_Node000006"><a xlink:title=" ">
<path fill="none" stroke="#63b8ff" d="M189.21,-167.62C202.43,-149.44 231.77,-109.09 249.01,-85.38"/>
<polygon fill="#63b8ff" stroke="#63b8ff" points="251.64,-87.72 254.69,-77.58 245.98,-83.61 251.64,-87.72"/>
</a>
</g>
</g>
<!-- Node7 -->
<g id="Node000007" class="node">
<title>Node7</title>
<g id="a_Node000007"><a xlink:href="lcd1602__rgb_8h.html" target="_top" xlink:title="LCD1602 RGB display driver with I2C interface.">
<polygon fill="white" stroke="#666666" points="187.76,-132 111.01,-132 111.01,-112 187.76,-112 187.76,-132"/>
<text xml:space="preserve" text-anchor="middle" x="149.39" y="-118.5" font-family="Helvetica,sans-Serif" font-size="10.00">lcd1602_rgb.h</text>
</a>
</g>
</g>
<!-- Node1&#45;&gt;Node7 -->
<g id="edge8_Node000001_Node000007" class="edge">
<title>Node1&#45;&gt;Node7</title>
<g id="a_edge8_Node000001_Node000007"><a xlink:title=" ">
<path fill="none" stroke="#63b8ff" d="M176.64,-167.59C172.33,-160.55 166.29,-150.67 161,-142"/>
<polygon fill="#63b8ff" stroke="#63b8ff" points="164.06,-140.3 155.86,-133.59 158.08,-143.95 164.06,-140.3"/>
</a>
</g>
</g>
<!-- Node8 -->
<g id="Node000008" class="node">
<title>Node8</title>
<g id="a_Node000008"><a xlink:title=" ">
<polygon fill="#e0e0e0" stroke="#999999" points="415.26,-132 347.51,-132 347.51,-112 415.26,-112 415.26,-132"/>
<text xml:space="preserve" text-anchor="middle" x="381.39" y="-118.5" font-family="Helvetica,sans-Serif" font-size="10.00">arm_math.h</text>
</a>
</g>
</g>
<!-- Node1&#45;&gt;Node8 -->
<g id="edge14_Node000001_Node000008" class="edge">
<title>Node1&#45;&gt;Node8</title>
<g id="a_edge14_Node000001_Node000008"><a xlink:title=" ">
<path fill="none" stroke="#63b8ff" d="M217.05,-167.59C250.15,-158.61 300.21,-145.03 336.37,-135.21"/>
<polygon fill="#63b8ff" stroke="#63b8ff" points="336.92,-138.69 345.66,-132.69 335.09,-131.94 336.92,-138.69"/>
</a>
</g>
</g>
<!-- Node9 -->
<g id="Node000009" class="node">
<title>Node9</title>
<g id="a_Node000009"><a xlink:href="event_8h.html" target="_top" xlink:title="Event queue module for decoupling interrupt handlers from UI processing.">
<polygon fill="white" stroke="#666666" points="329.51,-132 281.26,-132 281.26,-112 329.51,-112 329.51,-132"/>
<text xml:space="preserve" text-anchor="middle" x="305.39" y="-118.5" font-family="Helvetica,sans-Serif" font-size="10.00">event.h</text>
</a>
</g>
</g>
<!-- Node1&#45;&gt;Node9 -->
<g id="edge15_Node000001_Node000009" class="edge">
<title>Node1&#45;&gt;Node9</title>
<g id="a_edge15_Node000001_Node000009"><a xlink:title=" ">
<path fill="none" stroke="#63b8ff" d="M203.81,-167.59C223.01,-159.17 251.43,-146.69 273.33,-137.07"/>
<polygon fill="#63b8ff" stroke="#63b8ff" points="274.66,-140.31 282.41,-133.09 271.84,-133.9 274.66,-140.31"/>
</a>
</g>
</g>
<!-- Node4&#45;&gt;Node5 -->
<g id="edge4_Node000004_Node000005" class="edge">
<title>Node4&#45;&gt;Node5</title>
<g id="a_edge4_Node000004_Node000005"><a xlink:title=" ">
<path fill="none" stroke="#63b8ff" d="M110.27,-55.59C117.29,-48.16 127.29,-37.58 135.78,-28.58"/>
<polygon fill="#63b8ff" stroke="#63b8ff" points="138.24,-31.07 142.56,-21.4 133.15,-26.27 138.24,-31.07"/>
</a>
</g>
</g>
<!-- Node6&#45;&gt;Node5 -->
<g id="edge6_Node000006_Node000005" class="edge">
<title>Node6&#45;&gt;Node5</title>
<g id="a_edge6_Node000006_Node000005"><a xlink:title=" ">
<path fill="none" stroke="#63b8ff" d="M243.73,-55.84C226.76,-47.51 201.45,-35.09 181.77,-25.43"/>
<polygon fill="#63b8ff" stroke="#63b8ff" points="183.38,-22.32 172.87,-21.05 180.3,-28.6 183.38,-22.32"/>
</a>
</g>
</g>
<!-- Node7&#45;&gt;Node2 -->
<g id="edge12_Node000007_Node000002" class="edge">
<title>Node7&#45;&gt;Node2</title>
<g id="a_edge12_Node000007_Node000002"><a xlink:title=" ">
<path fill="none" stroke="#63b8ff" d="M158.79,-111.59C166.3,-104.08 177.03,-93.35 186.08,-84.3"/>
<polygon fill="#63b8ff" stroke="#63b8ff" points="188.42,-86.91 193.02,-77.37 183.47,-81.96 188.42,-86.91"/>
</a>
</g>
</g>
<!-- Node7&#45;&gt;Node3 -->
<g id="edge9_Node000007_Node000003" class="edge">
<title>Node7&#45;&gt;Node3</title>
<g id="a_edge9_Node000007_Node000003"><a xlink:title=" ">
<path fill="none" stroke="#63b8ff" d="M129.7,-111.59C112.23,-103.24 86.43,-90.92 66.39,-81.34"/>
<polygon fill="#63b8ff" stroke="#63b8ff" points="68.12,-78.29 57.59,-77.13 65.1,-84.6 68.12,-78.29"/>
</a>
</g>
</g>
<!-- Node7&#45;&gt;Node4 -->
<g id="edge10_Node000007_Node000004" class="edge">
<title>Node7&#45;&gt;Node4</title>
<g id="a_edge10_Node000007_Node000004"><a xlink:title=" ">
<path fill="none" stroke="#63b8ff" d="M141.02,-111.59C134.49,-104.24 125.2,-93.8 117.27,-84.87"/>
<polygon fill="#63b8ff" stroke="#63b8ff" points="119.92,-82.58 110.66,-77.43 114.68,-87.23 119.92,-82.58"/>
</a>
</g>
</g>
<!-- Node7&#45;&gt;Node5 -->
<g id="edge13_Node000007_Node000005" class="edge">
<title>Node7&#45;&gt;Node5</title>
<g id="a_edge13_Node000007_Node000005"><a xlink:title=" ">
<path fill="none" stroke="#63b8ff" d="M149.64,-111.62C150.12,-94.01 151.17,-55.59 151.82,-31.65"/>
<polygon fill="#63b8ff" stroke="#63b8ff" points="155.31,-31.96 152.09,-21.87 148.32,-31.77 155.31,-31.96"/>
</a>
</g>
</g>
<!-- Node7&#45;&gt;Node6 -->
<g id="edge11_Node000007_Node000006" class="edge">
<title>Node7&#45;&gt;Node6</title>
<g id="a_edge11_Node000007_Node000006"><a xlink:title=" ">
<path fill="none" stroke="#63b8ff" d="M169.07,-111.59C186.86,-103.09 213.29,-90.46 233.48,-80.81"/>
<polygon fill="#63b8ff" stroke="#63b8ff" points="234.8,-84.06 242.31,-76.59 231.78,-77.75 234.8,-84.06"/>
</a>
</g>
</g>
<!-- Node9&#45;&gt;Node2 -->
<g id="edge18_Node000009_Node000002" class="edge">
<title>Node9&#45;&gt;Node2</title>
<g id="a_edge18_Node000009_Node000002"><a xlink:title=" ">
<path fill="none" stroke="#63b8ff" d="M287.62,-111.59C272.06,-103.36 249.2,-91.26 231.22,-81.74"/>
<polygon fill="#63b8ff" stroke="#63b8ff" points="233.1,-78.77 222.63,-77.19 229.83,-84.96 233.1,-78.77"/>
</a>
</g>
</g>
<!-- Node9&#45;&gt;Node5 -->
<g id="edge16_Node000009_Node000005" class="edge">
<title>Node9&#45;&gt;Node5</title>
<g id="a_edge16_Node000009_Node000005"><a xlink:title=" ">
<path fill="none" stroke="#63b8ff" d="M305.92,-111.74C306.19,-97.84 304.62,-71.55 290.39,-56 269.28,-32.94 236.23,-21.66 207.77,-16.16"/>
<polygon fill="#63b8ff" stroke="#63b8ff" points="208.65,-12.77 198.2,-14.52 207.47,-19.66 208.65,-12.77"/>
</a>
</g>
</g>
<!-- Node9&#45;&gt;Node6 -->
<g id="edge17_Node000009_Node000006" class="edge">
<title>Node9&#45;&gt;Node6</title>
<g id="a_edge17_Node000009_Node000006"><a xlink:title=" ">
<path fill="none" stroke="#63b8ff" d="M297.9,-111.59C292.1,-104.32 283.9,-94.02 276.84,-85.15"/>
<polygon fill="#63b8ff" stroke="#63b8ff" points="279.7,-83.12 270.73,-77.48 274.22,-87.49 279.7,-83.12"/>
</a>
</g>
</g>
<!-- Node10 -->
<g id="Node000010" class="node">
<title>Node10</title>
<g id="a_Node000010"><a xlink:title=" ">
<polygon fill="#e0e0e0" stroke="#999999" points="385.14,-76 337.64,-76 337.64,-56 385.14,-56 385.14,-76"/>
<text xml:space="preserve" text-anchor="middle" x="361.39" y="-62.5" font-family="Helvetica,sans-Serif" font-size="10.00">stdlib.h</text>
</a>
</g>
</g>
<!-- Node9&#45;&gt;Node10 -->
<g id="edge19_Node000009_Node000010" class="edge">
<title>Node9&#45;&gt;Node10</title>
<g id="a_edge19_Node000009_Node000010"><a xlink:title=" ">
<path fill="none" stroke="#63b8ff" d="M315.14,-111.59C323.01,-104.01 334.28,-93.13 343.73,-84.02"/>
<polygon fill="#63b8ff" stroke="#63b8ff" points="345.88,-86.81 350.65,-77.35 341.03,-81.77 345.88,-86.81"/>
</a>
</g>
</g>
</g>
</svg>
</svg>

<style type='text/css'>
<![CDATA[
[data-mouse-over-selected='false'] { opacity: 0.7; }
[data-mouse-over-selected='true']  { opacity: 1.0; }
]]>
</style>
<script type="application/ecmascript"><![CDATA[
document.addEventListener('DOMContentLoaded', (event) => {
  highlightEdges();
  highlightAdjacentNodes();
});
]]></script>
</svg>
