<?xml version="1.0" encoding="UTF-8" standalone="no"?>
<!DOCTYPE svg PUBLIC "-//W3C//DTD SVG 1.1//EN"
 "http://www.w3.org/Graphics/SVG/1.1/DTD/svg11.dtd">
<!-- Generated by graphviz version 14.1.2 (0)
 -->
<!-- Title: ui_print_lcd_program_symb Pages: 1 -->
<svg width="391pt" height="66pt"
 viewBox="0.00 0.00 391.00 66.00" xmlns="http://www.w3.org/2000/svg" xmlns:xlink="http://www.w3.org/1999/xlink">
<g id="graph0" class="graph" transform="scale(1 1) rotate(0) translate(4 62)">
<title>ui_print_lcd_program_symb</title>
<!-- Node1 -->
<g id="Node000001" class="node">
<title>Node1</title>
<g id="a_Node000001"><a xlink:title="Print custom degree symbols on LCD for program view.">
<polygon fill="#999999" stroke="#666666" points="135.25,-39 0,-39 0,-19 135.25,-19 135.25,-39"/>
<text xml:space="preserve" text-anchor="middle" x="67.62" y="-25.5" font-family="Helvetica,sans-Serif" font-size="10.00">ui_print_lcd_program_symb</text>
</a>
</g>
</g>
<!-- Node2 -->
<g id="Node000002" class="node">
<title>Node2</title>
<g id="a_Node000002"><a xlink:href="lcd1602__rgb_8c.html#acedfa8e3ed17c86c319b1ee71aa43856" target="_top" xlink:title="Set cursor position.">
<polygon fill="white" stroke="#666666" points="270.12,-58 172.38,-58 172.38,-38 270.12,-38 270.12,-58"/>
<text xml:space="preserve" text-anchor="middle" x="221.25" y="-44.5" font-family="Helvetica,sans-Serif" font-size="10.00">lcd1602_setCursor</text>
</a>
</g>
</g>
<!-- Node1&#45;&gt;Node2 -->
<g id="edge1_Node000001_Node000002" class="edge">
<title>Node1&#45;&gt;Node2</title>
<g id="a_edge1_Node000001_Node000002"><a xlink:title=" ">
<path fill="none" stroke="#63b8ff" d="M135.57,-37.39C144.08,-38.46 152.74,-39.54 161.11,-40.59"/>
<polygon fill="#63b8ff" stroke="#63b8ff" points="160.45,-44.03 170.81,-41.8 161.32,-37.09 160.45,-44.03"/>
</a>
</g>
</g>
<!-- Node4 -->
<g id="Node000004" class="node">
<title>Node4</title>
<g id="a_Node000004"><a xlink:href="lcd1602__rgb_8c.html#ab95d5708eabcbaa2bf3ca2b155fcefe3" target="_top" xlink:title="Write a single character to the display.">
<polygon fill="white" stroke="#666666" points="271.25,-20 171.25,-20 171.25,0 271.25,0 271.25,-20"/>
<text xml:space="preserve" text-anchor="middle" x="221.25" y="-6.5" font-family="Helvetica,sans-Serif" font-size="10.00">lcd1602_write_char</text>
</a>
</g>
</g>
<!-- Node1&#45;&gt;Node4 -->
<g id="edge3_Node000001_Node000004" class="edge">
<title>Node1&#45;&gt;Node4</title>
<g id="a_edge3_Node000001_Node000004"><a xlink:title=" ">
<path fill="none" stroke="#63b8ff" d="M135.57,-20.61C143.57,-19.61 151.7,-18.59 159.59,-17.6"/>
<polygon fill="#63b8ff" stroke="#63b8ff" points="159.97,-21.08 169.46,-16.36 159.1,-14.13 159.97,-21.08"/>
</a>
</g>
</g>
<!-- Node3 -->
<g id="Node000003" class="node">
<title>Node3</title>
<g id="a_Node000003"><a xlink:href="lcd1602__rgb_8c.html#af833ec77ef44dc848f52a09072a777ae" target="_top" xlink:title="Send raw data bytes to the LCD via I2C.">
<polygon fill="white" stroke="#666666" points="383.25,-39 307.25,-39 307.25,-19 383.25,-19 383.25,-39"/>
<text xml:space="preserve" text-anchor="middle" x="345.25" y="-25.5" font-family="Helvetica,sans-Serif" font-size="10.00">lcd1602_send</text>
</a>
</g>
</g>
<!-- Node2&#45;&gt;Node3 -->
<g id="edge2_Node000002_Node000003" class="edge">
<title>Node2&#45;&gt;Node3</title>
<g id="a_edge2_Node000002_Node000003"><a xlink:title=" ">
<path fill="none" stroke="#63b8ff" d="M270.47,-40.49C278.8,-39.19 287.47,-37.84 295.81,-36.54"/>
<polygon fill="#63b8ff" stroke="#63b8ff" points="296.08,-40.04 305.42,-35.05 295,-33.13 296.08,-40.04"/>
</a>
</g>
</g>
<!-- Node4&#45;&gt;Node3 -->
<g id="edge4_Node000004_Node000003" class="edge">
<title>Node4&#45;&gt;Node3</title>
<g id="a_edge4_Node000004_Node000003"><a xlink:title=" ">
<path fill="none" stroke="#63b8ff" d="M271.52,-17.67C279.43,-18.9 287.61,-20.18 295.51,-21.41"/>
<polygon fill="#63b8ff" stroke="#63b8ff" points="294.89,-24.86 305.31,-22.94 295.97,-17.94 294.89,-24.86"/>
</a>
</g>
</g>
</g>
</svg>
