<?xml version="1.0" encoding="UTF-8" standalone="no"?>
<!DOCTYPE svg PUBLIC "-//W3C//DTD SVG 1.1//EN"
 "http://www.w3.org/Graphics/SVG/1.1/DTD/svg11.dtd">
<!-- Generated by graphviz version 14.1.2 (0)
 -->
<!-- Title: ui_fill_lcd_buf_program Pages: 1 -->
<svg width="391pt" height="78pt"
 viewBox="0.00 0.00 391.00 78.00" xmlns="http://www.w3.org/2000/svg" xmlns:xlink="http://www.w3.org/1999/xlink">
<g id="graph0" class="graph" transform="scale(1 1) rotate(0) translate(4 74)">
<title>ui_fill_lcd_buf_program</title>
<!-- Node1 -->
<g id="Node000001" class="node">
<title>Node1</title>
<g id="a_Node000001"><a xlink:title="Fill LCD buffers with program step data.">
<polygon fill="#999999" stroke="#666666" points="383.25,-42 267.5,-42 267.5,-22 383.25,-22 383.25,-42"/>
<text xml:space="preserve" text-anchor="middle" x="325.38" y="-28.5" font-family="Helvetica,sans-Serif" font-size="10.00">ui_fill_lcd_buf_program</text>
</a>
</g>
</g>
<!-- Node2 -->
<g id="Node000002" class="node">
<title>Node2</title>
<g id="a_Node000002"><a xlink:href="ui_8c.html#a7328c75524fbd4c255db4ee57d587e16" target="_top" xlink:title="Handle CREATE_PROGRAM_DETAILED menu state.">
<polygon fill="white" stroke="#666666" points="228.12,-70 97.38,-70 97.38,-38 228.12,-38 228.12,-70"/>
<text xml:space="preserve" text-anchor="start" x="105.38" y="-56.5" font-family="Helvetica,sans-Serif" font-size="10.00">ui_update_create_program</text>
<text xml:space="preserve" text-anchor="middle" x="162.75" y="-44.5" font-family="Helvetica,sans-Serif" font-size="10.00">_detailed</text>
</a>
</g>
</g>
<!-- Node1&#45;&gt;Node2 -->
<g id="edge1_Node000001_Node000002" class="edge">
<title>Node1&#45;&gt;Node2</title>
<g id="a_edge1_Node000001_Node000002"><a xlink:title=" ">
<path fill="none" stroke="#63b8ff" d="M255.95,-41.37C246.87,-42.61 237.59,-43.89 228.58,-45.12"/>
<polygon fill="#63b8ff" stroke="#63b8ff" points="256.36,-44.85 265.79,-40.02 255.41,-37.91 256.36,-44.85"/>
</a>
</g>
</g>
<!-- Node4 -->
<g id="Node000004" class="node">
<title>Node4</title>
<g id="a_Node000004"><a xlink:href="ui_8c.html#ab9762754190f18740cddebbe0d59b309" target="_top" xlink:title="Handle PROGRAM_DETAILED menu state.">
<polygon fill="white" stroke="#666666" points="231.5,-20 94,-20 94,0 231.5,0 231.5,-20"/>
<text xml:space="preserve" text-anchor="middle" x="162.75" y="-6.5" font-family="Helvetica,sans-Serif" font-size="10.00">ui_update_program_detailed</text>
</a>
</g>
</g>
<!-- Node1&#45;&gt;Node4 -->
<g id="edge3_Node000001_Node000004" class="edge">
<title>Node1&#45;&gt;Node4</title>
<g id="a_edge3_Node000001_Node000004"><a xlink:title=" ">
<path fill="none" stroke="#63b8ff" d="M256.11,-22.65C248.1,-21.55 239.92,-20.43 231.91,-19.34"/>
<polygon fill="#63b8ff" stroke="#63b8ff" points="255.41,-26.09 265.79,-23.98 256.36,-19.15 255.41,-26.09"/>
</a>
</g>
</g>
<!-- Node3 -->
<g id="Node000003" class="node">
<title>Node3</title>
<g id="a_Node000003"><a xlink:href="ui_8c.html#a1c0a0e3c37fa619fc105b56716b1e08a" target="_top" xlink:title="Main UI state machine update function.">
<polygon fill="white" stroke="#666666" points="58,-42 0,-42 0,-22 58,-22 58,-42"/>
<text xml:space="preserve" text-anchor="middle" x="29" y="-28.5" font-family="Helvetica,sans-Serif" font-size="10.00">ui_update</text>
</a>
</g>
</g>
<!-- Node2&#45;&gt;Node3 -->
<g id="edge2_Node000002_Node000003" class="edge">
<title>Node2&#45;&gt;Node3</title>
<g id="a_edge2_Node000002_Node000003"><a xlink:title=" ">
<path fill="none" stroke="#63b8ff" d="M85.86,-41.33C76.03,-39.69 66.5,-38.1 58.19,-36.71"/>
<polygon fill="#63b8ff" stroke="#63b8ff" points="85.1,-44.75 95.54,-42.94 86.25,-37.84 85.1,-44.75"/>
</a>
</g>
</g>
<!-- Node4&#45;&gt;Node3 -->
<g id="edge4_Node000004_Node000003" class="edge">
<title>Node4&#45;&gt;Node3</title>
<g id="a_edge4_Node000004_Node000003"><a xlink:title=" ">
<path fill="none" stroke="#63b8ff" d="M87.67,-22.37C77.31,-24.1 67.24,-25.78 58.48,-27.24"/>
<polygon fill="#63b8ff" stroke="#63b8ff" points="88.18,-25.83 97.47,-20.73 87.03,-18.93 88.18,-25.83"/>
</a>
</g>
</g>
</g>
</svg>
