<?xml version="1.0" encoding="UTF-8" standalone="no"?>
<!DOCTYPE svg PUBLIC "-//W3C//DTD SVG 1.1//EN"
 "http://www.w3.org/Graphics/SVG/1.1/DTD/svg11.dtd">
<!-- Generated by graphviz version 14.1.2 (0)
 -->
<!-- Title: ui_update_create_program Pages: 1 -->
<svg width="630pt" height="85pt"
 viewBox="0.00 0.00 630.00 85.00" xmlns="http://www.w3.org/2000/svg" xmlns:xlink="http://www.w3.org/1999/xlink">
<g id="graph0" class="graph" transform="scale(1 1) rotate(0) translate(4 81)">
<title>ui_update_create_program</title>
<!-- Node1 -->
<g id="Node000001" class="node">
<title>Node1</title>
<g id="a_Node000001"><a xlink:title="Handle CREATE_PROGRAM menu state.">
<polygon fill="#999999" stroke="#666666" points="130.75,-58 0,-58 0,-38 130.75,-38 130.75,-58"/>
<text xml:space="preserve" text-anchor="middle" x="65.38" y="-44.5" font-family="Helvetica,sans-Serif" font-size="10.00">ui_update_create_program</text>
</a>
</g>
</g>
<!-- Node2 -->
<g id="Node000002" class="node">
<title>Node2</title>
<g id="a_Node000002"><a xlink:href="log_8c.html#a19c27922f37e1d81bb9370e65be76554" target="_top" xlink:title="Log a message with specified log level.">
<polygon fill="white" stroke="#666666" points="223.25,-77 175.75,-77 175.75,-57 223.25,-57 223.25,-77"/>
<text xml:space="preserve" text-anchor="middle" x="199.5" y="-63.5" font-family="Helvetica,sans-Serif" font-size="10.00">logMsg</text>
</a>
</g>
</g>
<!-- Node1&#45;&gt;Node2 -->
<g id="edge1_Node000001_Node000002" class="edge">
<title>Node1&#45;&gt;Node2</title>
<g id="a_edge1_Node000001_Node000002"><a xlink:title=" ">
<path fill="none" stroke="#63b8ff" d="M130.89,-57.28C142.38,-58.93 153.93,-60.59 164.15,-62.06"/>
<polygon fill="#63b8ff" stroke="#63b8ff" points="163.56,-65.51 173.96,-63.47 164.56,-58.58 163.56,-65.51"/>
</a>
</g>
</g>
<!-- Node3 -->
<g id="Node000003" class="node">
<title>Node3</title>
<g id="a_Node000003"><a xlink:href="ui_8c.html#ab08bf40f29760a62fbea13ac28c412b6" target="_top" xlink:title="Display two rows of text on the LCD.">
<polygon fill="white" stroke="#666666" points="232.25,-39 166.75,-39 166.75,-19 232.25,-19 232.25,-39"/>
<text xml:space="preserve" text-anchor="middle" x="199.5" y="-25.5" font-family="Helvetica,sans-Serif" font-size="10.00">ui_print_lcd</text>
</a>
</g>
</g>
<!-- Node1&#45;&gt;Node3 -->
<g id="edge2_Node000001_Node000003" class="edge">
<title>Node1&#45;&gt;Node3</title>
<g id="a_edge2_Node000001_Node000003"><a xlink:title=" ">
<path fill="none" stroke="#63b8ff" d="M130.89,-38.72C139.07,-37.55 147.28,-36.37 155.02,-35.25"/>
<polygon fill="#63b8ff" stroke="#63b8ff" points="155.44,-38.73 164.84,-33.84 154.44,-31.8 155.44,-38.73"/>
</a>
</g>
</g>
<!-- Node4 -->
<g id="Node000004" class="node">
<title>Node4</title>
<g id="a_Node000004"><a xlink:href="lcd1602__rgb_8c.html#a4675a2ae1eb331b5476c475cd042c71d" target="_top" xlink:title="Write a null&#45;terminated string to the display.">
<polygon fill="white" stroke="#666666" points="373.5,-58 268.25,-58 268.25,-38 373.5,-38 373.5,-58"/>
<text xml:space="preserve" text-anchor="middle" x="320.88" y="-44.5" font-family="Helvetica,sans-Serif" font-size="10.00">lcd1602_send_string</text>
</a>
</g>
</g>
<!-- Node3&#45;&gt;Node4 -->
<g id="edge3_Node000003_Node000004" class="edge">
<title>Node3&#45;&gt;Node4</title>
<g id="a_edge3_Node000003_Node000004"><a xlink:title=" ">
<path fill="none" stroke="#63b8ff" d="M232.49,-34.09C240.08,-35.3 248.43,-36.63 256.88,-37.97"/>
<polygon fill="#63b8ff" stroke="#63b8ff" points="256.05,-41.39 266.47,-39.5 257.15,-34.47 256.05,-41.39"/>
</a>
</g>
</g>
<!-- Node7 -->
<g id="Node000007" class="node">
<title>Node7</title>
<g id="a_Node000007"><a xlink:href="lcd1602__rgb_8c.html#acedfa8e3ed17c86c319b1ee71aa43856" target="_top" xlink:title="Set cursor position.">
<polygon fill="white" stroke="#666666" points="508.38,-20 410.62,-20 410.62,0 508.38,0 508.38,-20"/>
<text xml:space="preserve" text-anchor="middle" x="459.5" y="-6.5" font-family="Helvetica,sans-Serif" font-size="10.00">lcd1602_setCursor</text>
</a>
</g>
</g>
<!-- Node3&#45;&gt;Node7 -->
<g id="edge6_Node000003_Node000007" class="edge">
<title>Node3&#45;&gt;Node7</title>
<g id="a_edge6_Node000003_Node000007"><a xlink:title=" ">
<path fill="none" stroke="#63b8ff" d="M232.65,-26.63C274.22,-23.57 347.41,-18.18 399.19,-14.37"/>
<polygon fill="#63b8ff" stroke="#63b8ff" points="399.32,-17.87 409.04,-13.64 398.81,-10.89 399.32,-17.87"/>
</a>
</g>
</g>
<!-- Node5 -->
<g id="Node000005" class="node">
<title>Node5</title>
<g id="a_Node000005"><a xlink:href="lcd1602__rgb_8c.html#ab95d5708eabcbaa2bf3ca2b155fcefe3" target="_top" xlink:title="Write a single character to the display.">
<polygon fill="white" stroke="#666666" points="509.5,-58 409.5,-58 409.5,-38 509.5,-38 509.5,-58"/>
<text xml:space="preserve" text-anchor="middle" x="459.5" y="-44.5" font-family="Helvetica,sans-Serif" font-size="10.00">lcd1602_write_char</text>
</a>
</g>
</g>
<!-- Node4&#45;&gt;Node5 -->
<g id="edge4_Node000004_Node000005" class="edge">
<title>Node4&#45;&gt;Node5</title>
<g id="a_edge4_Node000004_Node000005"><a xlink:title=" ">
<path fill="none" stroke="#63b8ff" d="M373.92,-48C381.81,-48 390.01,-48 398.06,-48"/>
<polygon fill="#63b8ff" stroke="#63b8ff" points="397.79,-51.5 407.79,-48 397.79,-44.5 397.79,-51.5"/>
</a>
</g>
</g>
<!-- Node6 -->
<g id="Node000006" class="node">
<title>Node6</title>
<g id="a_Node000006"><a xlink:href="lcd1602__rgb_8c.html#af833ec77ef44dc848f52a09072a777ae" target="_top" xlink:title="Send raw data bytes to the LCD via I2C.">
<polygon fill="white" stroke="#666666" points="621.5,-39 545.5,-39 545.5,-19 621.5,-19 621.5,-39"/>
<text xml:space="preserve" text-anchor="middle" x="583.5" y="-25.5" font-family="Helvetica,sans-Serif" font-size="10.00">lcd1602_send</text>
</a>
</g>
</g>
<!-- Node5&#45;&gt;Node6 -->
<g id="edge5_Node000005_Node000006" class="edge">
<title>Node5&#45;&gt;Node6</title>
<g id="a_edge5_Node000005_Node000006"><a xlink:title=" ">
<path fill="none" stroke="#63b8ff" d="M509.77,-40.33C517.68,-39.1 525.86,-37.82 533.76,-36.59"/>
<polygon fill="#63b8ff" stroke="#63b8ff" points="534.22,-40.06 543.56,-35.06 533.14,-33.14 534.22,-40.06"/>
</a>
</g>
</g>
<!-- Node7&#45;&gt;Node6 -->
<g id="edge7_Node000007_Node000006" class="edge">
<title>Node7&#45;&gt;Node6</title>
<g id="a_edge7_Node000007_Node000006"><a xlink:title=" ">
<path fill="none" stroke="#63b8ff" d="M508.72,-17.51C517.05,-18.81 525.72,-20.16 534.06,-21.46"/>
<polygon fill="#63b8ff" stroke="#63b8ff" points="533.25,-24.87 543.67,-22.95 534.33,-17.96 533.25,-24.87"/>
</a>
</g>
</g>
</g>
</svg>
