<?xml version="1.0" encoding="UTF-8" standalone="no"?>
<!DOCTYPE svg PUBLIC "-//W3C//DTD SVG 1.1//EN"
 "http://www.w3.org/Graphics/SVG/1.1/DTD/svg11.dtd">
<!-- Generated by graphviz version 14.1.2 (0)
 -->
<!-- Title: ui_update_programs Pages: 1 -->
<!--zoomable 85 -->

<svg id="main" version="1.1" xmlns="http://www.w3.org/2000/svg" xmlns:xlink="http://www.w3.org/1999/xlink" xml:space="preserve" onload="init(evt)">

<style type="text/css"><![CDATA[
.node, .edge {opacity: 0.7;}
.node.selected, .edge.selected {opacity: 1;}
.edge:hover path { stroke: red; }
.edge:hover polygon { stroke: red; fill: red; }
]]></style>

<defs>
  <circle id="rim" cx="0" cy="0" r="7"/>
  <circle id="rim2" cx="0" cy="0" r="3.5"/>
  <g id="zoomPlus">
    <use xlink:href="#rim" fill="#404040"><set attributeName="fill" to="#808080" begin="zoomplus.mouseover" end="zoomplus.mouseout"/></use>
    <path d="M-4,0h8M0,-4v8" fill="none" stroke="white" stroke-width="1.5" pointer-events="none"/>
  </g>
  <g id="zoomMin">
    <use xlink:href="#rim" fill="#404040"><set attributeName="fill" to="#808080" begin="zoomminus.mouseover" end="zoomminus.mouseout"/></use>
    <path d="M-4,0h8" fill="none" stroke="white" stroke-width="1.5" pointer-events="none"/>
  </g>
  <g id="arrowUp" transform="translate(30 24)">
    <use xlink:href="#rim"/>
    <path pointer-events="none" fill="none" stroke="white" stroke-width="1.5" d="M0,-3.0v7 M-2.5,-0.5L0,-3.0L2.5,-0.5"/>
  </g>
  <g id="arrowRight" transform="rotate(90) translate(36 -43)">
    <use xlink:href="#rim"/>
    <path pointer-events="none" fill="none" stroke="white" stroke-width="1.5" d="M0,-3.0v7 M-2.5,-0.5L0,-3.0L2.5,-0.5"/>
  </g>
  <g id="arrowDown" transform="rotate(180) translate(-30 -48)">
    <use xlink:href="#rim"/>
    <path pointer-events="none" fill="none" stroke="white" stroke-width="1.5" d="M0,-3.0v7 M-2.5,-0.5L0,-3.0L2.5,-0.5"/>
  </g>
  <g id="arrowLeft" transform="rotate(270) translate(-36 17)">
    <use xlink:href="#rim"/>
    <path pointer-events="none" fill="none" stroke="white" stroke-width="1.5" d="M0,-3.0v7 M-2.5,-0.5L0,-3.0L2.5,-0.5"/>
  </g>
  <g id="resetDef">
    <use xlink:href="#rim2" fill="#404040"><set attributeName="fill" to="#808080" begin="reset.mouseover" end="reset.mouseout"/></use>
  </g>
</defs>
<script type="application/ecmascript">
var viewWidth = 603;
var viewHeight = 85;
var sectionId = 'dynsection-18';
</script>
<script type="application/ecmascript" xlink:href="svg.min.js"/>
<svg id="graph" class="graph">
<g id="viewport">
<title>ui_update_programs</title>
<!-- Node1 -->
<g id="Node000001" class="node">
<title>Node1</title>
<g id="a_Node000001"><a xlink:title="Handle PROGRAMS main menu state.">
<polygon fill="#999999" stroke="#666666" points="103.75,-58 0,-58 0,-38 103.75,-38 103.75,-58"/>
<text xml:space="preserve" text-anchor="middle" x="51.88" y="-44.5" font-family="Helvetica,sans-Serif" font-size="10.00">ui_update_programs</text>
</a>
</g>
</g>
<!-- Node2 -->
<g id="Node000002" class="node">
<title>Node2</title>
<g id="a_Node000002"><a xlink:href="log_8c.html#a19c27922f37e1d81bb9370e65be76554" target="_top" xlink:title="Log a message with specified log level.">
<polygon fill="white" stroke="#666666" points="196.25,-77 148.75,-77 148.75,-57 196.25,-57 196.25,-77"/>
<text xml:space="preserve" text-anchor="middle" x="172.5" y="-63.5" font-family="Helvetica,sans-Serif" font-size="10.00">logMsg</text>
</a>
</g>
</g>
<!-- Node1&#45;&gt;Node2 -->
<g id="edge1_Node000001_Node000002" class="edge">
<title>Node1&#45;&gt;Node2</title>
<g id="a_edge1_Node000001_Node000002"><a xlink:title=" ">
<path fill="none" stroke="#63b8ff" d="M104.22,-56.22C115.41,-58.02 126.98,-59.87 137.31,-61.52"/>
<polygon fill="#63b8ff" stroke="#63b8ff" points="136.44,-64.93 146.87,-63.05 137.55,-58.02 136.44,-64.93"/>
</a>
</g>
</g>
<!-- Node3 -->
<g id="Node000003" class="node">
<title>Node3</title>
<g id="a_Node000003"><a xlink:href="ui_8c.html#ab08bf40f29760a62fbea13ac28c412b6" target="_top" xlink:title="Display two rows of text on the LCD.">
<polygon fill="white" stroke="#666666" points="205.25,-39 139.75,-39 139.75,-19 205.25,-19 205.25,-39"/>
<text xml:space="preserve" text-anchor="middle" x="172.5" y="-25.5" font-family="Helvetica,sans-Serif" font-size="10.00">ui_print_lcd</text>
</a>
</g>
</g>
<!-- Node1&#45;&gt;Node3 -->
<g id="edge2_Node000001_Node000003" class="edge">
<title>Node1&#45;&gt;Node3</title>
<g id="a_edge2_Node000001_Node000003"><a xlink:title=" ">
<path fill="none" stroke="#63b8ff" d="M104.22,-39.78C112.12,-38.51 120.21,-37.22 127.92,-35.98"/>
<polygon fill="#63b8ff" stroke="#63b8ff" points="128.44,-39.44 137.76,-34.4 127.33,-32.53 128.44,-39.44"/>
</a>
</g>
</g>
<!-- Node4 -->
<g id="Node000004" class="node">
<title>Node4</title>
<g id="a_Node000004"><a xlink:href="lcd1602__rgb_8c.html#a4675a2ae1eb331b5476c475cd042c71d" target="_top" xlink:title="Write a null&#45;terminated string to the display.">
<polygon fill="white" stroke="#666666" points="346.5,-58 241.25,-58 241.25,-38 346.5,-38 346.5,-58"/>
<text xml:space="preserve" text-anchor="middle" x="293.88" y="-44.5" font-family="Helvetica,sans-Serif" font-size="10.00">lcd1602_send_string</text>
</a>
</g>
</g>
<!-- Node3&#45;&gt;Node4 -->
<g id="edge3_Node000003_Node000004" class="edge">
<title>Node3&#45;&gt;Node4</title>
<g id="a_edge3_Node000003_Node000004"><a xlink:title=" ">
<path fill="none" stroke="#63b8ff" d="M205.49,-34.09C213.08,-35.3 221.43,-36.63 229.88,-37.97"/>
<polygon fill="#63b8ff" stroke="#63b8ff" points="229.05,-41.39 239.47,-39.5 230.15,-34.47 229.05,-41.39"/>
</a>
</g>
</g>
<!-- Node7 -->
<g id="Node000007" class="node">
<title>Node7</title>
<g id="a_Node000007"><a xlink:href="lcd1602__rgb_8c.html#acedfa8e3ed17c86c319b1ee71aa43856" target="_top" xlink:title="Set cursor position.">
<polygon fill="white" stroke="#666666" points="481.38,-20 383.62,-20 383.62,0 481.38,0 481.38,-20"/>
<text xml:space="preserve" text-anchor="middle" x="432.5" y="-6.5" font-family="Helvetica,sans-Serif" font-size="10.00">lcd1602_setCursor</text>
</a>
</g>
</g>
<!-- Node3&#45;&gt;Node7 -->
<g id="edge6_Node000003_Node000007" class="edge">
<title>Node3&#45;&gt;Node7</title>
<g id="a_edge6_Node000003_Node000007"><a xlink:title=" ">
<path fill="none" stroke="#63b8ff" d="M205.65,-26.63C247.22,-23.57 320.41,-18.18 372.19,-14.37"/>
<polygon fill="#63b8ff" stroke="#63b8ff" points="372.32,-17.87 382.04,-13.64 371.81,-10.89 372.32,-17.87"/>
</a>
</g>
</g>
<!-- Node5 -->
<g id="Node000005" class="node">
<title>Node5</title>
<g id="a_Node000005"><a xlink:href="lcd1602__rgb_8c.html#ab95d5708eabcbaa2bf3ca2b155fcefe3" target="_top" xlink:title="Write a single character to the display.">
<polygon fill="white" stroke="#666666" points="482.5,-58 382.5,-58 382.5,-38 482.5,-38 482.5,-58"/>
<text xml:space="preserve" text-anchor="middle" x="432.5" y="-44.5" font-family="Helvetica,sans-Serif" font-size="10.00">lcd1602_write_char</text>
</a>
</g>
</g>
<!-- Node4&#45;&gt;Node5 -->
<g id="edge4_Node000004_Node000005" class="edge">
<title>Node4&#45;&gt;Node5</title>
<g id="a_edge4_Node000004_Node000005"><a xlink:title=" ">
<path fill="none" stroke="#63b8ff" d="M346.92,-48C354.81,-48 363.01,-48 371.06,-48"/>
<polygon fill="#63b8ff" stroke="#63b8ff" points="370.79,-51.5 380.79,-48 370.79,-44.5 370.79,-51.5"/>
</a>
</g>
</g>
<!-- Node6 -->
<g id="Node000006" class="node">
<title>Node6</title>
<g id="a_Node000006"><a xlink:href="lcd1602__rgb_8c.html#af833ec77ef44dc848f52a09072a777ae" target="_top" xlink:title="Send raw data bytes to the LCD via I2C.">
<polygon fill="white" stroke="#666666" points="594.5,-39 518.5,-39 518.5,-19 594.5,-19 594.5,-39"/>
<text xml:space="preserve" text-anchor="middle" x="556.5" y="-25.5" font-family="Helvetica,sans-Serif" font-size="10.00">lcd1602_send</text>
</a>
</g>
</g>
<!-- Node5&#45;&gt;Node6 -->
<g id="edge5_Node000005_Node000006" class="edge">
<title>Node5&#45;&gt;Node6</title>
<g id="a_edge5_Node000005_Node000006"><a xlink:title=" ">
<path fill="none" stroke="#63b8ff" d="M482.77,-40.33C490.68,-39.1 498.86,-37.82 506.76,-36.59"/>
<polygon fill="#63b8ff" stroke="#63b8ff" points="507.22,-40.06 516.56,-35.06 506.14,-33.14 507.22,-40.06"/>
</a>
</g>
</g>
<!-- Node7&#45;&gt;Node6 -->
<g id="edge7_Node000007_Node000006" class="edge">
<title>Node7&#45;&gt;Node6</title>
<g id="a_edge7_Node000007_Node000006"><a xlink:title=" ">
<path fill="none" stroke="#63b8ff" d="M481.72,-17.51C490.05,-18.81 498.72,-20.16 507.06,-21.46"/>
<polygon fill="#63b8ff" stroke="#63b8ff" points="506.25,-24.87 516.67,-22.95 507.33,-17.96 506.25,-24.87"/>
</a>
</g>
</g>
</g>
</svg>

<g id="navigator" transform="translate(0 0)" fill="#404254">
  <rect fill="#f2f5e9" fill-opacity="0.5" stroke="#606060" stroke-width=".5" x="0" y="0" width="60" height="60"/>
  <use id="zoomplus" xlink:href="#zoomPlus" x="17" y="9" onmousedown="handleZoom(evt,'in')"/>
  <use id="zoomminus" xlink:href="#zoomMin" x="42" y="9" onmousedown="handleZoom(evt,'out')"/>
  <use id="reset" xlink:href="#resetDef" x="30" y="36" onmousedown="handleReset()"/>
   <use id="arrowup" xlink:href="#arrowUp" x="0" y="0" onmousedown="handlePan(0,-1)"/>
  <use id="arrowright" xlink:href="#arrowRight" x="0" y="0" onmousedown="handlePan(1,0)"/>
  <use id="arrowdown" xlink:href="#arrowDown" x="0" y="0" onmousedown="handlePan(0,1)"/>
  <use id="arrowleft" xlink:href="#arrowLeft" x="0" y="0" onmousedown="handlePan(-1,0)"/>
</g>
<svg viewBox="0 0 15 15" width="100%" height="30px" preserveAspectRatio="xMaxYMin meet">
 <g id="arrow_out" transform="scale(0.3 0.3)">
  <a xlink:href="ui_8c_a3b5feeaa3b12e5b763ca3bada8a6f185_cgraph_org.svg" target="_base">
   <rect id="button" ry="5" rx="5" y="6" x="6" height="38" width="38"
        fill="#f2f5e9" fill-opacity="0.5" stroke="#606060" stroke-width="1.0"/>
   <path id="arrow"
     d="M 11.500037,31.436501 C 11.940474,20.09759 22.043105,11.32322 32.158766,21.979434 L 37.068811,17.246167 C 37.068811,17.246167 37.088388,32 37.088388,32 L 22.160133,31.978069 C 22.160133,31.978069 26.997745,27.140456 26.997745,27.140456 C 18.528582,18.264221 13.291696,25.230495 11.500037,31.436501 z"
     style="fill:#404040;"/>
  </a>
 </g>
</svg>

<style type='text/css'>
<![CDATA[
[data-mouse-over-selected='false'] { opacity: 0.7; }
[data-mouse-over-selected='true']  { opacity: 1.0; }
]]>
</style>
<script type="application/ecmascript"><![CDATA[
document.addEventListener('DOMContentLoaded', (event) => {
  highlightEdges();
  highlightAdjacentNodes();
});
]]></script>
</svg>
